<svg width="63" height="62" viewBox="0 0 63 62" fill="none" xmlns="http://www.w3.org/2000/svg">
<path d="M31.3996 1.89844C15.4996 1.89844 2.59961 14.7984 2.59961 30.6984C2.59961 38.5984 5.79961 45.6984 10.8996 50.8984V47.5984C9.49961 43.9984 8.69961 40.0984 8.69961 36.0984C8.69961 18.7984 22.6996 4.79844 39.9996 4.79844C41.5996 4.79844 43.1996 4.89844 44.6996 5.19844C40.7996 3.09844 36.1996 1.89844 31.3996 1.89844Z" fill="#F1E8F0"/>
<path d="M24.2 24.7C23.4 24.7 22.8 25.3 22.8 26.1C22.8 26.9 23.4 27.5 24.2 27.5L34.5 27.6C33.8 30.1 31.6 31.8 29 31.8C29 31.8 29 31.7 28.9 31.7L24.1 31.6C23.3 31.6 22.6 32.3 22.7 33.2C22.7 33.6 22.9 33.9 23.1 34.2L34.9 45.6C35.5 46.2 36.4 46.1 36.9 45.6C37.5 45 37.4 44.1 36.9 43.6L27.7 34.7H28.8C33 34.7 36.6 31.7 37.3 27.6H40.7C41.5 27.6 42.1 27 42.1 26.2C42.1 25.4 41.5 24.8 40.7 24.8H37.3C37 23.2 36.4 21.8 35.3 20.6L40.8 20.7C41.6 20.7 42.2 20 42.2 19.2C42.2 18.4 41.6 17.7 40.8 17.7L28.9 17.6L24.1 17.5C23.3 17.5 22.7 18.1 22.7 18.9C22.7 19.7 23.3 20.3 24.1 20.3H28.9C31.5 20.3 33.7 22.1 34.4 24.7H24.2Z" fill="#721B65"/>
<path d="M35.9004 45.8008C35.6004 45.8008 35.3004 45.7008 35.0004 45.5008L23.3004 34.1008C23.1004 33.9008 22.9004 33.6008 22.9004 33.2008C22.9004 32.5008 23.4004 31.9008 24.1004 31.9008L28.8004 32.0008H28.9004C31.6004 32.0008 33.9004 30.2008 34.6004 27.7008L34.7004 27.4008L24.2004 27.3008C23.9004 27.3008 23.6004 27.2008 23.3004 26.9008C23.1004 26.7008 22.9004 26.4008 22.9004 26.0008C22.9004 25.3008 23.5004 24.8008 24.1004 24.8008L34.7004 25.0008L34.6004 24.7008C34.0004 22.1008 31.6004 20.2008 28.9004 20.2008H24.1004C23.4004 20.2008 22.9004 19.6008 22.9004 19.0008C22.9004 18.3008 23.5004 17.8008 24.1004 17.8008L40.8004 18.0008C41.5004 18.0008 42.0004 18.6008 42.0004 19.3008C42.0004 20.0008 41.5004 20.6008 40.8004 20.6008L35.0004 20.3008L35.3004 20.6008C36.3004 21.8008 37.0004 23.2008 37.3004 24.7008V24.9008H40.9004C41.6004 24.9008 42.1004 25.5008 42.1004 26.1008C42.1004 26.8008 41.6004 27.3008 40.9004 27.3008H37.3004V27.5008C36.6004 31.5008 33.1004 34.4008 29.0004 34.4008H27.3004L36.8004 43.6008C37.3004 44.1008 37.3004 44.9008 36.8004 45.3008C36.6004 45.7008 36.2004 45.8008 35.9004 45.8008Z" fill="#721B65"/>
<path d="M31.3996 61.6016C26.7996 61.6016 22.3996 60.6016 18.1996 58.6016H17.9996C17.7996 58.5016 17.6996 58.5016 17.5996 58.4016C17.2996 58.2016 16.9996 57.8016 16.8996 57.4016C16.7996 57.0016 16.8996 56.6016 17.0996 56.2016C17.3996 55.8016 17.8996 55.5016 18.3996 55.5016C18.6996 55.5016 18.9996 55.6016 19.2996 55.8016L19.4996 55.9016C23.1996 57.7016 27.3996 58.6016 31.4996 58.6016C35.3996 58.6016 39.1996 57.8016 42.6996 56.2016C49.4996 53.2016 54.6996 47.7016 57.3996 40.8016C60.0996 33.9016 59.8996 26.3016 56.8996 19.5016L55.0996 15.3016L53.6996 19.7016C53.4996 20.3016 52.8996 20.8016 52.1996 20.8016C51.3996 20.8016 50.6996 20.1016 50.6996 19.3016V10.1016C50.6996 9.90156 50.7996 9.70156 50.7996 9.50156C50.9996 9.10156 51.1996 8.80156 51.5996 8.70156C51.7996 8.60156 51.9996 8.60156 52.0996 8.60156H61.3996C62.2996 8.60156 62.8996 9.30156 62.8996 10.1016C62.8996 11.0016 62.1996 11.6016 61.3996 11.6016H55.7996L57.4996 14.2016C63.0996 23.2016 63.7996 34.3016 59.2996 43.8016C54.1996 54.6016 43.2996 61.6016 31.3996 61.6016Z" fill="#721B65"/>
<path d="M1.5 53.1C0.6 53.1 0 52.4 0 51.6C0 50.8 0.7 50 1.5 50H7.1L5.4 47.4C2.2 42.5 0.5 36.7 0.6 30.8C0.6 26.2 1.7 21.7 3.6 17.6C8.7 6.9 19.7 0 31.5 0C36.1 0 40.6 1 44.8 3L45 3.1C45.2 3.2 45.3 3.2 45.4 3.3C45.7 3.5 46 3.9 46.1 4.3C46.2 4.7 46.1 5.1 45.9 5.5C45.6 5.9 45.1 6.2 44.6 6.2C44.3 6.2 44 6.1 43.7 5.9L43.5 5.8C39.8 4 35.6 3 31.5 3C27.6 3 23.8 3.8 20.2 5.4C6.2 11.6 -0.0999999 28.1 6.1 42.1L8 46.4L9.3 42C9.5 41.3 10.1 40.9 10.8 40.9C11.6 40.9 12.3 41.6 12.3 42.4V51.6C12.3 51.8 12.2 52 12.2 52.2C12.1 52.6 11.8 52.8 11.4 53C11.3 53.1 11.1 53.1 10.9 53.1H1.5Z" fill="#721B65"/>
</svg>
