<svg width="122" height="15" viewBox="0 0 122 15" fill="none" xmlns="http://www.w3.org/2000/svg">
<path d="M23.708 12.096C23.076 12.096 22.464 12 21.872 11.808C21.288 11.608 20.828 11.352 20.492 11.04L20.936 10.104C21.256 10.392 21.664 10.628 22.16 10.812C22.664 10.988 23.18 11.076 23.708 11.076C24.404 11.076 24.924 10.96 25.268 10.728C25.612 10.488 25.784 10.172 25.784 9.78C25.784 9.492 25.688 9.26 25.496 9.084C25.312 8.9 25.08 8.76 24.8 8.664C24.528 8.568 24.14 8.46 23.636 8.34C23.004 8.188 22.492 8.036 22.1 7.884C21.716 7.732 21.384 7.5 21.104 7.188C20.832 6.868 20.696 6.44 20.696 5.904C20.696 5.456 20.812 5.052 21.044 4.692C21.284 4.332 21.644 4.044 22.124 3.828C22.604 3.612 23.2 3.504 23.912 3.504C24.408 3.504 24.896 3.568 25.376 3.696C25.856 3.824 26.268 4.008 26.612 4.248L26.216 5.208C25.864 4.984 25.488 4.816 25.088 4.704C24.688 4.584 24.296 4.524 23.912 4.524C23.232 4.524 22.72 4.648 22.376 4.896C22.04 5.144 21.872 5.464 21.872 5.856C21.872 6.144 21.968 6.38 22.16 6.564C22.352 6.74 22.588 6.88 22.868 6.984C23.156 7.08 23.544 7.184 24.032 7.296C24.664 7.448 25.172 7.6 25.556 7.752C25.94 7.904 26.268 8.136 26.54 8.448C26.82 8.76 26.96 9.18 26.96 9.708C26.96 10.148 26.84 10.552 26.6 10.92C26.36 11.28 25.996 11.568 25.508 11.784C25.02 11.992 24.42 12.096 23.708 12.096ZM34.2931 8.856C34.2931 8.944 34.2851 9.06 34.2691 9.204H29.1091C29.1811 9.764 29.4251 10.216 29.8411 10.56C30.2651 10.896 30.7891 11.064 31.4131 11.064C32.1731 11.064 32.7851 10.808 33.2491 10.296L33.8851 11.04C33.5971 11.376 33.2371 11.632 32.8051 11.808C32.3811 11.984 31.9051 12.072 31.3771 12.072C30.7051 12.072 30.1091 11.936 29.5891 11.664C29.0691 11.384 28.6651 10.996 28.3771 10.5C28.0971 10.004 27.9571 9.444 27.9571 8.82C27.9571 8.204 28.0931 7.648 28.3651 7.152C28.6451 6.656 29.0251 6.272 29.5051 6C29.9931 5.72 30.5411 5.58 31.1491 5.58C31.7571 5.58 32.2971 5.72 32.7691 6C33.2491 6.272 33.6211 6.656 33.8851 7.152C34.1571 7.648 34.2931 8.216 34.2931 8.856ZM31.1491 6.552C30.5971 6.552 30.1331 6.72 29.7571 7.056C29.3891 7.392 29.1731 7.832 29.1091 8.376H33.1891C33.1251 7.84 32.9051 7.404 32.5291 7.068C32.1611 6.724 31.7011 6.552 31.1491 6.552ZM41.6408 8.856C41.6408 8.944 41.6328 9.06 41.6168 9.204H36.4568C36.5288 9.764 36.7728 10.216 37.1888 10.56C37.6128 10.896 38.1368 11.064 38.7608 11.064C39.5208 11.064 40.1328 10.808 40.5968 10.296L41.2328 11.04C40.9448 11.376 40.5848 11.632 40.1528 11.808C39.7288 11.984 39.2528 12.072 38.7248 12.072C38.0528 12.072 37.4568 11.936 36.9368 11.664C36.4168 11.384 36.0128 10.996 35.7248 10.5C35.4448 10.004 35.3048 9.444 35.3048 8.82C35.3048 8.204 35.4408 7.648 35.7128 7.152C35.9928 6.656 36.3728 6.272 36.8528 6C37.3408 5.72 37.8888 5.58 38.4968 5.58C39.1048 5.58 39.6448 5.72 40.1168 6C40.5968 6.272 40.9688 6.656 41.2328 7.152C41.5048 7.648 41.6408 8.216 41.6408 8.856ZM38.4968 6.552C37.9448 6.552 37.4808 6.72 37.1048 7.056C36.7368 7.392 36.5208 7.832 36.4568 8.376H40.5368C40.4728 7.84 40.2528 7.404 39.8768 7.068C39.5088 6.724 39.0488 6.552 38.4968 6.552ZM54.4191 12L54.4071 5.88L51.3711 10.98H50.8191L47.7831 5.916V12H46.6311V3.6H47.6151L51.1191 9.504L54.5751 3.6H55.5591L55.5711 12H54.4191ZM60.648 12.072C60.016 12.072 59.448 11.932 58.944 11.652C58.44 11.372 58.044 10.988 57.756 10.5C57.476 10.004 57.336 9.444 57.336 8.82C57.336 8.196 57.476 7.64 57.756 7.152C58.044 6.656 58.44 6.272 58.944 6C59.448 5.72 60.016 5.58 60.648 5.58C61.28 5.58 61.844 5.72 62.34 6C62.844 6.272 63.236 6.656 63.516 7.152C63.804 7.64 63.948 8.196 63.948 8.82C63.948 9.444 63.804 10.004 63.516 10.5C63.236 10.988 62.844 11.372 62.34 11.652C61.844 11.932 61.28 12.072 60.648 12.072ZM60.648 11.064C61.056 11.064 61.42 10.972 61.74 10.788C62.068 10.596 62.324 10.332 62.508 9.996C62.692 9.652 62.784 9.26 62.784 8.82C62.784 8.38 62.692 7.992 62.508 7.656C62.324 7.312 62.068 7.048 61.74 6.864C61.42 6.68 61.056 6.588 60.648 6.588C60.24 6.588 59.872 6.68 59.544 6.864C59.224 7.048 58.968 7.312 58.776 7.656C58.592 7.992 58.5 8.38 58.5 8.82C58.5 9.26 58.592 9.652 58.776 9.996C58.968 10.332 59.224 10.596 59.544 10.788C59.872 10.972 60.24 11.064 60.648 11.064ZM66.6452 6.708C66.8452 6.34 67.1412 6.06 67.5332 5.868C67.9252 5.676 68.4012 5.58 68.9612 5.58V6.696C68.8972 6.688 68.8092 6.684 68.6972 6.684C68.0732 6.684 67.5812 6.872 67.2212 7.248C66.8692 7.616 66.6932 8.144 66.6932 8.832V12H65.5412V5.64H66.6452V6.708ZM76.0705 8.856C76.0705 8.944 76.0625 9.06 76.0465 9.204H70.8865C70.9585 9.764 71.2025 10.216 71.6185 10.56C72.0425 10.896 72.5665 11.064 73.1905 11.064C73.9505 11.064 74.5625 10.808 75.0265 10.296L75.6625 11.04C75.3745 11.376 75.0145 11.632 74.5825 11.808C74.1585 11.984 73.6825 12.072 73.1545 12.072C72.4825 12.072 71.8865 11.936 71.3665 11.664C70.8465 11.384 70.4425 10.996 70.1545 10.5C69.8745 10.004 69.7345 9.444 69.7345 8.82C69.7345 8.204 69.8705 7.648 70.1425 7.152C70.4225 6.656 70.8025 6.272 71.2825 6C71.7705 5.72 72.3185 5.58 72.9265 5.58C73.5345 5.58 74.0745 5.72 74.5465 6C75.0265 6.272 75.3985 6.656 75.6625 7.152C75.9345 7.648 76.0705 8.216 76.0705 8.856ZM72.9265 6.552C72.3745 6.552 71.9105 6.72 71.5345 7.056C71.1665 7.392 70.9505 7.832 70.8865 8.376H74.9665C74.9025 7.84 74.6825 7.404 74.3065 7.068C73.9385 6.724 73.4785 6.552 72.9265 6.552ZM81.0608 3.6H84.6008C85.4888 3.6 86.2768 3.776 86.9648 4.128C87.6528 4.48 88.1848 4.976 88.5608 5.616C88.9448 6.248 89.1368 6.976 89.1368 7.8C89.1368 8.624 88.9448 9.356 88.5608 9.996C88.1848 10.628 87.6528 11.12 86.9648 11.472C86.2768 11.824 85.4888 12 84.6008 12H81.0608V3.6ZM84.5288 10.956C85.2088 10.956 85.8048 10.824 86.3168 10.56C86.8368 10.296 87.2368 9.928 87.5168 9.456C87.7968 8.976 87.9368 8.424 87.9368 7.8C87.9368 7.176 87.7968 6.628 87.5168 6.156C87.2368 5.676 86.8368 5.304 86.3168 5.04C85.8048 4.776 85.2088 4.644 84.5288 4.644H82.2608V10.956H84.5288ZM96.5548 8.856C96.5548 8.944 96.5468 9.06 96.5308 9.204H91.3708C91.4428 9.764 91.6868 10.216 92.1028 10.56C92.5268 10.896 93.0508 11.064 93.6748 11.064C94.4348 11.064 95.0468 10.808 95.5108 10.296L96.1468 11.04C95.8588 11.376 95.4988 11.632 95.0668 11.808C94.6428 11.984 94.1668 12.072 93.6388 12.072C92.9668 12.072 92.3708 11.936 91.8508 11.664C91.3308 11.384 90.9268 10.996 90.6388 10.5C90.3588 10.004 90.2188 9.444 90.2188 8.82C90.2188 8.204 90.3548 7.648 90.6268 7.152C90.9068 6.656 91.2868 6.272 91.7668 6C92.2548 5.72 92.8028 5.58 93.4108 5.58C94.0188 5.58 94.5588 5.72 95.0308 6C95.5108 6.272 95.8828 6.656 96.1468 7.152C96.4188 7.648 96.5548 8.216 96.5548 8.856ZM93.4108 6.552C92.8588 6.552 92.3948 6.72 92.0188 7.056C91.6508 7.392 91.4348 7.832 91.3708 8.376H95.4508C95.3868 7.84 95.1668 7.404 94.7908 7.068C94.4228 6.724 93.9628 6.552 93.4108 6.552ZM101.731 11.628C101.563 11.772 101.355 11.884 101.107 11.964C100.859 12.036 100.603 12.072 100.339 12.072C99.6985 12.072 99.2025 11.9 98.8505 11.556C98.4985 11.212 98.3225 10.72 98.3225 10.08V6.588H97.2425V5.64H98.3225V4.248H99.4745V5.64H101.299V6.588H99.4745V10.032C99.4745 10.376 99.5585 10.64 99.7265 10.824C99.9025 11.008 100.151 11.1 100.471 11.1C100.823 11.1 101.123 11 101.371 10.8L101.731 11.628ZM105.439 5.58C106.319 5.58 106.991 5.796 107.455 6.228C107.927 6.66 108.163 7.304 108.163 8.16V12H107.071V11.16C106.879 11.456 106.603 11.684 106.243 11.844C105.891 11.996 105.471 12.072 104.983 12.072C104.271 12.072 103.699 11.9 103.267 11.556C102.843 11.212 102.631 10.76 102.631 10.2C102.631 9.64 102.835 9.192 103.243 8.856C103.651 8.512 104.299 8.34 105.187 8.34H107.011V8.112C107.011 7.616 106.867 7.236 106.579 6.972C106.291 6.708 105.867 6.576 105.307 6.576C104.931 6.576 104.563 6.64 104.203 6.768C103.843 6.888 103.539 7.052 103.291 7.26L102.811 6.396C103.139 6.132 103.531 5.932 103.987 5.796C104.443 5.652 104.927 5.58 105.439 5.58ZM105.175 11.184C105.615 11.184 105.995 11.088 106.315 10.896C106.635 10.696 106.867 10.416 107.011 10.056V9.168H105.235C104.259 9.168 103.771 9.496 103.771 10.152C103.771 10.472 103.895 10.724 104.143 10.908C104.391 11.092 104.735 11.184 105.175 11.184ZM110.295 5.64H111.447V12H110.295V5.64ZM110.871 4.416C110.647 4.416 110.459 4.344 110.307 4.2C110.163 4.056 110.091 3.88 110.091 3.672C110.091 3.464 110.163 3.288 110.307 3.144C110.459 2.992 110.647 2.916 110.871 2.916C111.095 2.916 111.279 2.988 111.423 3.132C111.575 3.268 111.651 3.44 111.651 3.648C111.651 3.864 111.575 4.048 111.423 4.2C111.279 4.344 111.095 4.416 110.871 4.416ZM113.647 3.096H114.799V12H113.647V3.096ZM118.822 12.072C118.302 12.072 117.802 12.004 117.322 11.868C116.842 11.724 116.466 11.544 116.194 11.328L116.674 10.416C116.954 10.616 117.294 10.776 117.694 10.896C118.094 11.016 118.498 11.076 118.906 11.076C119.914 11.076 120.418 10.788 120.418 10.212C120.418 10.02 120.35 9.868 120.214 9.756C120.078 9.644 119.906 9.564 119.698 9.516C119.498 9.46 119.21 9.4 118.834 9.336C118.322 9.256 117.902 9.164 117.574 9.06C117.254 8.956 116.978 8.78 116.746 8.532C116.514 8.284 116.398 7.936 116.398 7.488C116.398 6.912 116.638 6.452 117.118 6.108C117.598 5.756 118.242 5.58 119.05 5.58C119.474 5.58 119.898 5.632 120.322 5.736C120.746 5.84 121.094 5.98 121.366 6.156L120.874 7.068C120.354 6.732 119.742 6.564 119.038 6.564C118.55 6.564 118.178 6.644 117.922 6.804C117.666 6.964 117.538 7.176 117.538 7.44C117.538 7.648 117.61 7.812 117.754 7.932C117.898 8.052 118.074 8.14 118.282 8.196C118.498 8.252 118.798 8.316 119.182 8.388C119.694 8.476 120.106 8.572 120.418 8.676C120.738 8.772 121.01 8.94 121.234 9.18C121.458 9.42 121.57 9.756 121.57 10.188C121.57 10.764 121.322 11.224 120.826 11.568C120.338 11.904 119.67 12.072 118.822 12.072Z" fill="#721B65"/>
<g clip-path="url(#clip0)">
<path d="M11.1 4.3C10.9 4.1 10.6 4 10.3 4C10 4 9.7 4.1 9.5 4.3L5.7 8.3L5.5 8.1L1.8 4.3C1.7 4.1 1.4 4 1.1 4C0.8 4 0.5 4.1 0.3 4.3C-0.1 4.7 -0.1 5.5 0.3 5.9L4.9 10.7C5.3 11.1 6 11.1 6.4 10.7L11 5.9C11.5 5.5 11.5 4.8 11.1 4.3Z" fill="#721B65"/>
</g>
<defs>
<clipPath id="clip0">
<rect width="11.4" height="7" fill="white" transform="translate(0 4)"/>
</clipPath>
</defs>
</svg>
