<svg width="69" height="62" viewBox="0 0 69 62" fill="none" xmlns="http://www.w3.org/2000/svg">
<g clip-path="url(#clip0)">
<path d="M23.7004 7.30039H55.7004V4.40039C55.7004 3.60039 55.0004 2.90039 54.2004 2.90039H16.4004C15.6004 2.90039 14.9004 3.60039 14.9004 4.40039V48.9004C14.9004 50.5004 14.4004 52.1004 13.4004 53.4004H20.8004V10.3004C20.8004 8.60039 22.1004 7.30039 23.7004 7.30039Z" fill="#F1E8F0"/>
<path d="M23.4004 16.0996H31.4004C32.2004 16.0996 32.9004 15.3996 32.9004 14.5996C32.9004 13.7996 32.2004 13.0996 31.4004 13.0996H23.4004C22.6004 13.0996 21.9004 13.7996 21.9004 14.5996C21.9004 15.3996 22.6004 16.0996 23.4004 16.0996Z" fill="#721B65"/>
<path d="M23.4004 28.5996H46.2004C47.0004 28.5996 47.7004 27.8996 47.7004 27.0996C47.7004 26.2996 47.0004 25.5996 46.2004 25.5996H23.4004C22.6004 25.5996 21.9004 26.2996 21.9004 27.0996C21.9004 27.9996 22.6004 28.5996 23.4004 28.5996Z" fill="#721B65"/>
<path d="M47.6004 38.2998C47.6004 37.4998 46.9004 36.7998 46.1004 36.7998H23.4004C22.6004 36.7998 21.9004 37.4998 21.9004 38.2998C21.9004 39.0998 22.6004 39.7998 23.4004 39.7998H46.2004C46.9004 39.7998 47.6004 39.0998 47.6004 38.2998Z" fill="#721B65"/>
<path d="M58.7 37.4V4.4C58.7 2 56.7 0 54.3 0H16.4C14 0 12 2 12 4.4V31.3H7.3C3.3 31.3 0 34.6 0 38.6V48.8C0 52.9 3.3 56.3 7.5 56.3H45.1C47.3 59.7 51.2 62 55.6 62C62.5 62 68.1 56.4 68.1 49.5C68.1 43.7 64.1 38.8 58.7 37.4ZM2.9 48.9V38.6C2.9 36.2 4.9 34.2 7.3 34.2H12V48.8C12 51.3 10 53.3 7.5 53.3C5 53.3 2.9 51.4 2.9 48.9ZM43.7 53.4H20.8H13.4C14.4 52.1 14.9 50.5 14.9 48.9V4.4C14.9 3.6 15.6 2.9 16.4 2.9H54.3C55.1 2.9 55.8 3.6 55.8 4.4V7.3V37C55.7 37 55.7 37 55.6 37C48.6 37 43 42.6 43 49.5C43 50.9 43.3 52.2 43.7 53.4ZM55.5 59.3C52.7 59.3 50.2 58.1 48.4 56.3C47.6 55.5 46.9 54.5 46.4 53.4C45.9 52.2 45.6 50.9 45.6 49.5C45.6 44.1 50 39.7 55.4 39.7C55.5 39.7 55.5 39.7 55.6 39.7C56.6 39.7 57.6 39.9 58.5 40.2C62.4 41.5 65.2 45.2 65.2 49.5C65.4 54.9 61 59.3 55.5 59.3Z" fill="#721B65"/>
<path d="M58.6008 45.9999L54.3008 50.2999L52.5008 48.4999C52.3008 48.2999 52.0008 48.0999 51.6008 48.0999C51.3008 48.0999 51.0008 48.1999 50.7008 48.4999C50.5008 48.6999 50.3008 48.9999 50.3008 49.3999C50.3008 49.6999 50.4008 49.9999 50.7008 50.2999L53.3008 52.8999C53.5008 53.0999 53.8008 53.2999 54.2008 53.2999C54.5008 53.2999 54.8008 53.1999 55.1008 52.8999L60.3008 47.6999C60.5008 47.4999 60.7008 47.1999 60.7008 46.7999C60.7008 46.4999 60.6008 46.1999 60.3008 45.8999C59.8008 45.4999 59.1008 45.4999 58.6008 45.9999Z" fill="#721B65"/>
</g>
<defs>
<clipPath id="clip0">
<rect width="68.1" height="62" fill="white"/>
</clipPath>
</defs>
</svg>

