<svg width="56" height="54" viewBox="0 0 56 54" fill="none" xmlns="http://www.w3.org/2000/svg">
<path d="M52.9377 7.97047H47.3373V2.65384C47.3373 2.00977 46.8271 1.53047 46.1587 1.53047C45.4904 1.53047 44.9802 2.00977 44.9802 2.65384V7.97047H39.0645C38.3961 7.97047 37.8859 8.44977 37.8859 9.09384C37.8859 9.73791 38.3961 10.2172 39.0645 10.2172H44.9802V15.8334C44.9802 16.4774 45.4904 16.9567 46.1587 16.9567C46.8271 16.9567 47.3373 16.4774 47.3373 15.8334V10.0674H52.9377C53.606 10.0674 54.1162 9.58814 54.1162 8.94407C54.1162 8.44276 53.5983 7.97047 52.9377 7.97047Z" fill="#721B65" stroke="#721B65" stroke-width="0.15"/>
<path d="M37.5411 4.25803L37.5591 4.24947L37.5735 4.23574C37.7369 4.08059 37.8699 3.91595 37.9387 3.74171C38.0063 3.57053 38.0106 3.39192 37.9269 3.21531C37.9168 3.03428 37.8204 2.8673 37.6985 2.73219C37.5681 2.58764 37.3966 2.46591 37.2258 2.38476L37.218 2.38109L37.2099 2.37851C34.3638 1.47725 31.3554 0.875 28.3437 0.875C13.1474 0.875 0.945312 12.4562 0.945312 26.6102C0.945312 29.6164 1.41963 32.6252 2.52779 35.4853C2.61927 35.8241 2.8471 36.0387 3.13598 36.1443C3.42168 36.2487 3.76322 36.2459 4.09454 36.1672C4.44906 36.083 4.67863 35.8681 4.79242 35.587C4.90392 35.3116 4.90062 34.9831 4.81714 34.6659L4.81773 34.6657L4.81343 34.6541C3.87147 32.1187 3.24488 29.2883 3.24476 26.611C3.40194 13.6546 14.377 3.07198 28.1861 3.07198C31.0076 3.07198 33.6721 3.51823 36.3374 4.41114C36.5284 4.49909 36.7535 4.49418 36.959 4.45513C37.1697 4.41509 37.3772 4.33584 37.5411 4.25803Z" fill="#721B65" stroke="#721B65" stroke-width="0.25"/>
<path d="M51.6411 15.9984L51.6411 15.9981L51.6323 16.0008C51.0849 16.1742 50.747 16.8479 50.9185 17.4997L50.9211 17.5094L50.9251 17.5186C52.1789 20.3473 52.8062 23.475 52.8062 26.6037C52.8062 39.5585 41.6752 50.142 28.0225 50.142C22.6871 50.142 17.3535 48.5019 13.1201 45.3739L13.1203 45.3736L13.1127 45.3688C12.5967 45.0421 11.9022 45.0405 11.3832 45.5336L11.3574 45.558L11.3484 45.5924C11.2675 45.8996 11.2238 46.218 11.2669 46.5039C11.3103 46.7929 11.4434 47.0522 11.7142 47.2252C16.465 50.6843 22.165 52.4887 28.0225 52.4887C43.0622 52.4887 55.2633 40.9066 55.2633 26.6037C55.2633 23.1451 54.6303 19.834 53.2049 16.6724C53.1106 16.4095 52.8842 16.202 52.607 16.0804C52.3264 15.9574 51.9834 15.9171 51.6411 15.9984Z" fill="#721B65" stroke="#721B65" stroke-width="0.25"/>
<path d="M8.40352 45.4973L8.40326 45.4973L8.40509 45.5034L10.6091 52.8319C10.613 53.0034 10.7035 53.1661 10.8254 53.3012C10.9509 53.4404 11.1169 53.5584 11.2824 53.637C11.4521 53.7176 11.6596 53.756 11.8796 53.775C12.0996 53.794 12.3388 53.794 12.5739 53.794H12.5758V53.7954L12.5898 53.7927C13.0068 53.7135 13.3018 53.4742 13.4698 53.1549C13.637 52.8373 13.6769 52.4446 13.5951 52.0561L13.5955 52.0561L13.5932 52.049L11.7247 46.1319L17.9533 44.3567C18.3685 44.2768 18.6623 44.038 18.8299 43.7195C18.9971 43.402 19.037 43.0093 18.9552 42.6208C18.871 42.2209 18.6174 41.9409 18.2834 41.7822C17.9511 41.6244 17.5404 41.5867 17.1337 41.664L17.1336 41.6637L17.128 41.6653L9.40593 43.7612C8.99043 43.841 8.69647 44.0799 8.52878 44.3985C8.36165 44.7161 8.32174 45.1088 8.40352 45.4973Z" fill="#721B65" stroke="#721B65" stroke-width="0.15"/>
<path d="M21.8207 15.8262H25.6273V32.3022H25.5619C24.9056 32.3022 24.3147 32.0459 23.7897 31.5971C23.3302 31.0842 23.0673 30.5713 23.0673 29.9302V18.3264H21.7546V30.1866C21.8203 31.1482 22.2142 31.9177 22.8705 32.5588C23.5925 33.264 24.5118 33.6486 25.5619 33.6486C26.612 33.6486 27.465 33.264 28.2526 32.5588C28.9746 31.8536 29.3685 30.956 29.3685 29.9302V15.8262H34.4225C35.1444 15.8262 35.6691 16.4031 35.6691 17.0442V30.8919C35.6691 31.9817 35.4722 33.0075 35.0128 33.9691C34.619 34.9308 33.9625 35.7642 33.2405 36.5335C32.5186 37.2387 31.5997 37.8798 30.6152 38.2644C28.5805 39.0978 26.2839 39.0978 24.2492 38.2644C23.2647 37.8798 22.3459 37.2387 21.6239 36.5335C21.2957 36.213 20.9673 35.8923 20.7048 35.5077L20.7701 35.5719H20.8362C25.4961 39.3543 33.1098 36.4053 33.1098 29.6738V19.3522H34.1597L32.5188 16.7878L30.878 19.3522H31.9279V29.9302C31.9279 30.7636 31.7967 31.5329 31.4029 32.3022C31.0748 33.0074 30.6156 33.7127 30.0249 34.2897C28.1871 36.0847 25.4961 36.5975 23.1333 35.6359C22.4114 35.3153 21.689 34.8667 21.0983 34.2897C20.5076 33.7127 20.0484 33.0715 19.7203 32.3022C19.3921 31.5329 19.1953 30.7636 19.1953 29.9302V17.0442C19.1953 16.339 19.7856 15.8262 20.442 15.8262H21.8207Z" fill="#721B65"/>
</svg>
