<svg width="19" height="27" viewBox="0 0 19 27" fill="none" xmlns="http://www.w3.org/2000/svg">
<path d="M3.11857 0.28125H7.27786V18.8552H7.20642C6.48928 18.8552 5.84371 18.5662 5.27 18.0603C4.768 17.4822 4.48072 16.9039 4.48072 16.1812V3.0998H3.04644V16.4702C3.11815 17.5543 3.54858 18.4217 4.26572 19.1444C5.05458 19.9394 6.059 20.373 7.20642 20.373C8.35385 20.373 9.28586 19.9394 10.1464 19.1444C10.9353 18.3494 11.3657 17.3375 11.3657 16.1812V0.28125H16.8878C17.6767 0.28125 18.25 0.931631 18.25 1.65436V17.2653C18.25 18.4939 18.0349 19.6503 17.5329 20.7344C17.1026 21.8185 16.3853 22.758 15.5964 23.6253C14.8076 24.4203 13.8036 25.143 12.7279 25.5766C10.5047 26.5161 7.99528 26.5161 5.77214 25.5766C4.69642 25.143 3.69242 24.4203 2.90357 23.6253C2.545 23.2639 2.18615 22.9025 1.89929 22.4688L1.97072 22.5412H2.04286C7.13457 26.8053 15.4536 23.4808 15.4536 15.8922V4.25623H16.6007L14.8079 1.36534L13.015 4.25623H14.1621V16.1812C14.1621 17.1207 14.0189 17.988 13.5886 18.8552C13.23 19.6502 12.7283 20.4453 12.0829 21.0957C10.0749 23.1194 7.13457 23.6974 4.55286 22.6134C3.764 22.252 2.97472 21.7462 2.32929 21.0957C1.68387 20.4453 1.18215 19.7225 0.823574 18.8552C0.465003 17.988 0.25 17.1207 0.25 16.1812V1.65436C0.25 0.859359 0.895008 0.28125 1.61215 0.28125H3.11857Z" fill="#721B65"/>
</svg>
