<svg width="56" height="57" viewBox="0 0 56 57" fill="none" xmlns="http://www.w3.org/2000/svg">
<path d="M52.0708 18.1712L52.0707 18.1709L52.062 18.1737C51.5146 18.347 51.1767 19.0208 51.3482 19.6726L51.3508 19.6823L51.3548 19.6914C52.6085 22.5201 53.2359 25.6479 53.2359 28.7766C53.2359 41.7313 42.1048 52.3148 28.4522 52.3148C23.1168 52.3148 17.7832 50.6748 13.5498 47.5467L13.5499 47.5465L13.5424 47.5417C13.0264 47.2149 12.3318 47.2134 11.8129 47.7064L11.7871 47.7309L11.7781 47.7652C11.6972 48.0725 11.6535 48.3908 11.6965 48.6768C11.74 48.9657 11.8731 49.2251 12.1439 49.3981C16.8946 52.8572 22.5947 54.6616 28.4522 54.6616C43.4919 54.6616 55.693 43.0795 55.693 28.7766C55.693 25.3179 55.06 22.0068 53.6346 18.8453C53.5403 18.5823 53.3139 18.3748 53.0367 18.2533C52.7561 18.1303 52.4131 18.09 52.0708 18.1712Z" fill="#721B65" stroke="#721B65" stroke-width="0.25"/>
<path d="M8.83321 47.6682L8.83294 47.6682L8.83478 47.6743L11.0388 55.0028C11.0427 55.1743 11.1332 55.337 11.2551 55.4721C11.3806 55.6113 11.5466 55.7293 11.7121 55.8079C11.8817 55.8885 12.0893 55.9269 12.3093 55.9459C12.5293 55.9649 12.7685 55.9649 13.0036 55.9649H13.0055V55.9663L13.0195 55.9636C13.4365 55.8844 13.7315 55.6451 13.8995 55.3258C14.0667 55.0082 14.1066 54.6155 14.0248 54.227L14.0251 54.227L14.0229 54.2199L12.1543 48.3028L18.3829 46.5276C18.7982 46.4477 19.092 46.2089 19.2596 45.8904C19.4268 45.5729 19.4667 45.1802 19.3849 44.7917C19.3007 44.3918 19.0471 44.1118 18.7131 43.9531C18.3808 43.7953 17.9701 43.7576 17.5633 43.8349L17.5633 43.8346L17.5577 43.8362L9.83562 45.9321C9.42011 46.0119 9.12616 46.2508 8.95847 46.5694C8.79134 46.887 8.75142 47.2797 8.83321 47.6682Z" fill="#721B65" stroke="#721B65" stroke-width="0.15"/>
<path d="M38.6484 18H16.6484V20.4H24.5919C27.3894 20.3657 29.2544 21.2571 30.1869 22.7657H16.6484V25.1657H30.9122V25.6457C30.9122 28.2514 29.1853 30.2057 24.9028 30.2057H18.6861V33.9771H25.179H25.7662L31.0503 42H35.8855L30.0833 33.2229C33.4679 32.0229 35.4365 29.4857 35.4365 25.8514C35.4365 25.6114 35.4365 25.4057 35.402 25.1657H38.6484V22.7657H34.8839C34.504 21.8743 33.986 21.0857 33.2261 20.4H38.6484V18Z" fill="#721B65"/>
<path d="M4.14793 38.7233L4.14801 38.7236L4.15678 38.7208C4.70418 38.5475 5.04206 37.8738 4.87053 37.222L4.86798 37.2123L4.86392 37.2031C3.6102 34.3744 2.98284 31.2467 2.98284 28.118C2.98284 15.1632 14.1139 4.5797 27.7665 4.5797C33.1019 4.5797 38.4355 6.21975 42.669 9.34779L42.6688 9.34805L42.6764 9.35286C43.1923 9.67961 43.8869 9.68114 44.4059 9.18812L44.4316 9.16365L44.4407 9.1293C44.5215 8.82204 44.5652 8.50371 44.5222 8.21774C44.4788 7.92881 44.3457 7.66948 44.0749 7.49647C39.3241 4.03735 33.624 2.23296 27.7665 2.23296C12.7269 2.23296 0.525747 13.8151 0.525748 28.118C0.525749 31.5766 1.15871 34.8877 2.58412 38.0493C2.67842 38.3122 2.90483 38.5197 3.18207 38.6413C3.46263 38.7643 3.80566 38.8046 4.14793 38.7233Z" fill="#721B65" stroke="#721B65" stroke-width="0.25"/>
<path d="M47.3855 9.22245L47.3858 9.2224L47.384 9.2163L45.1799 1.88783C45.176 1.71632 45.0856 1.55359 44.9637 1.41848C44.8381 1.27933 44.6722 1.16136 44.5066 1.08272C44.337 1.00215 44.1295 0.963702 43.9094 0.944697C43.6894 0.9257 43.4503 0.9257 43.2152 0.9257L43.2133 0.9257L43.2133 0.924358L43.1993 0.927018C42.7822 1.00625 42.4873 1.24549 42.3192 1.56484C42.1521 1.88238 42.1122 2.27511 42.194 2.66359L42.1936 2.66366L42.1958 2.67072L44.0644 8.58785L37.8358 10.363C37.4206 10.4429 37.1267 10.6817 36.9591 11.0002C36.792 11.3177 36.7521 11.7105 36.8339 12.0989C36.918 12.4988 37.1717 12.7789 37.5057 12.9375C37.8379 13.0953 38.2487 13.133 38.6554 13.0558L38.6554 13.056L38.6611 13.0545L46.3831 10.9585C46.7986 10.8787 47.0926 10.6398 47.2603 10.3212C47.4274 10.0037 47.4673 9.61093 47.3855 9.22245Z" fill="#721B65" stroke="#721B65" stroke-width="0.15"/>
</svg>
