<svg width="40" height="40" viewBox="0 0 40 40" fill="none" xmlns="http://www.w3.org/2000/svg">
<path fill-rule="evenodd" clip-rule="evenodd" d="M20 37.6C29.7202 37.6 37.6 29.7202 37.6 20C37.6 10.2798 29.7202 2.4 20 2.4C10.2798 2.4 2.4 10.2798 2.4 20C2.4 29.7202 10.2798 37.6 20 37.6ZM20 40C31.0457 40 40 31.0457 40 20C40 8.95431 31.0457 0 20 0C8.95431 0 0 8.95431 0 20C0 31.0457 8.95431 40 20 40Z" fill="#721B65"/>
<path d="M16.1445 22.5714H7.10156V25.1429H16.1445V29L21.2916 23.8571L16.1445 18.7143V22.5714ZM23.8587 21.2857V17.4286H32.9016V14.8571H23.8587V11L18.7116 16.1429L23.8587 21.2857Z" fill="#721B65"/>
</svg>
