<svg width="40" height="40" viewBox="0 0 40 40" fill="none" xmlns="http://www.w3.org/2000/svg">
<path fill-rule="evenodd" clip-rule="evenodd" d="M20 37.6C29.7202 37.6 37.6 29.7202 37.6 20C37.6 10.2798 29.7202 2.4 20 2.4C10.2798 2.4 2.4 10.2798 2.4 20C2.4 29.7202 10.2798 37.6 20 37.6ZM20 40C31.0457 40 40 31.0457 40 20C40 8.95431 31.0457 0 20 0C8.95431 0 0 8.95431 0 20C0 31.0457 8.95431 40 20 40Z" fill="#721B65"/>
<path d="M28.2002 13.0388L20.3058 9.76464C20.108 9.68264 19.8857 9.6826 19.688 9.76464L11.7935 13.0388C11.4929 13.1635 11.2969 13.4567 11.2969 13.782V17.7622C11.2969 23.2426 14.6129 28.1724 19.6925 30.2435C19.8876 30.323 20.1061 30.323 20.3013 30.2435C25.3808 28.1724 28.6969 23.2426 28.6969 17.7622V13.782C28.6969 13.4567 28.5009 13.1635 28.2002 13.0388ZM27.0858 17.7622C27.0858 22.4211 24.3469 26.71 19.9969 28.6244C15.7631 26.7611 12.908 22.5474 12.908 17.7622V14.3192L19.9969 11.3791L27.0858 14.3192V17.7622ZM19.1065 20.4745L22.5689 17.0158C22.8835 16.7016 23.3935 16.7016 23.7081 17.0158C24.0228 17.3301 24.0227 17.8396 23.7081 18.1538L19.6761 22.1815C19.3615 22.4958 18.8514 22.4957 18.5369 22.1815L16.2856 19.9326C15.971 19.6184 15.971 19.1089 16.2856 18.7946C16.6002 18.4804 17.1102 18.4804 17.4248 18.7946L19.1065 20.4745Z" fill="#721B65"/>
</svg>
