<svg width="40" height="40" viewBox="0 0 40 40" fill="none" xmlns="http://www.w3.org/2000/svg">
<path d="M14 27.5C11.5185 27.5 9.5 25.4813 9.5 23V17C9.5 14.5187 11.5185 12.5 13.9996 12.5C16.4813 12.5 18.5 14.5187 18.5 17V23C18.5 25.4813 16.4813 27.5 14 27.5ZM14 15.5C13.1727 15.5 12.5 16.1729 12.5 17V23C12.5 23.8271 13.1727 24.5 13.9996 24.5C14.8271 24.5 15.5 23.8271 15.5 23V17C15.5 16.1729 14.8271 15.5 14 15.5Z" fill="#721B65"/>
<path d="M23 18.5C23.8284 18.5 24.5 17.8284 24.5 17C24.5 16.1716 23.8284 15.5 23 15.5C22.1716 15.5 21.5 16.1716 21.5 17C21.5 17.8284 22.1716 18.5 23 18.5Z" fill="#721B65"/>
<path d="M29 24.5C29.8284 24.5 30.5 23.8284 30.5 23C30.5 22.1716 29.8284 21.5 29 21.5C28.1716 21.5 27.5 22.1716 27.5 23C27.5 23.8284 28.1716 24.5 29 24.5Z" fill="#721B65"/>
<path d="M21.9393 24.0606C21.3536 23.4748 21.3536 22.5252 21.9393 21.9394L27.9393 15.9393C28.525 15.3536 29.4748 15.3536 30.0606 15.9393C30.6464 16.5251 30.6464 17.4748 30.0606 18.0606L24.0606 24.0606C23.4749 24.6464 22.525 24.6465 21.9393 24.0606Z" fill="#721B65"/>
<path fill-rule="evenodd" clip-rule="evenodd" d="M20 37.6C29.7202 37.6 37.6 29.7202 37.6 20C37.6 10.2798 29.7202 2.4 20 2.4C10.2798 2.4 2.4 10.2798 2.4 20C2.4 29.7202 10.2798 37.6 20 37.6ZM20 40C31.0457 40 40 31.0457 40 20C40 8.95431 31.0457 0 20 0C8.95431 0 0 8.95431 0 20C0 31.0457 8.95431 40 20 40Z" fill="#721B65"/>
</svg>
