<svg width="30" height="30" viewBox="0 0 30 30" fill="none" xmlns="http://www.w3.org/2000/svg">
<path d="M24 30H6C2.7 30 0 27.3 0 24V6C0 2.7 2.7 0 6 0H24C27.3 0 30 2.7 30 6V24C30 27.3 27.3 30 24 30Z" fill="#ED2939"/>
<path d="M16.2996 19.7C16.6996 19.7 16.9996 19.4 16.9996 19V13.7C16.9996 13.3 16.6996 13 16.2996 13C15.8996 13 15.5996 13.3 15.5996 13.7V19C15.6996 19.4 15.9996 19.7 16.2996 19.7Z" fill="white"/>
<path d="M13.7 19.7C14.1 19.7 14.4 19.4 14.4 19V13.7C14.4 13.3 14.1 13 13.7 13C13.3 13 13 13.3 13 13.7V19C13 19.4 13.3 19.7 13.7 19.7Z" fill="white"/>
<path d="M20.9998 9.7H17.6998V9C17.6998 7.9 16.7998 7 15.6998 7H14.3998C13.2998 7 12.3998 7.9 12.3998 9V9.7H8.9998C8.5998 9.7 8.2998 10 8.2998 10.4C8.2998 10.7 8.5998 11 8.9998 11H9.0998L10.1998 21.2C10.2998 22.2 11.1998 23 12.1998 23H17.7998C18.7998 23 19.6998 22.2 19.7998 21.2L20.8998 11H20.9998C21.3998 11 21.6998 10.7 21.6998 10.3C21.6998 10 21.3998 9.7 20.9998 9.7ZM13.6998 9C13.6998 8.6 13.9998 8.3 14.3998 8.3H15.6998C16.0998 8.3 16.3998 8.6 16.3998 9V9.7H13.6998V9ZM18.4998 21.1C18.4998 21.4 18.1998 21.7 17.7998 21.7H12.1998C11.8998 21.7 11.5998 21.4 11.4998 21.1L10.3998 11H19.5998L18.4998 21.1Z" fill="white"/>
</svg>
