<svg width="30" height="30" viewBox="0 0 30 30" fill="none" xmlns="http://www.w3.org/2000/svg">
<path d="M24 30H6C2.7 30 0 27.3 0 24V6C0 2.7 2.7 0 6 0H24C27.3 0 30 2.7 30 6V24C30 27.3 27.3 30 24 30Z" fill="#25A9EF"/>
<path d="M17.6996 7.6C18.4996 6.8 19.8996 6.8 20.7996 7.6L22.3996 9.20001C23.1996 10 23.1996 11.4 22.3996 12.3L12.2996 22.4C11.8996 22.8 11.2996 23 10.7996 23H7.79959C7.39959 23 7.09961 22.7 7.09961 22.3V19.3C7.09961 18.7 7.29962 18.2 7.69962 17.8L17.6996 7.6ZM19.7996 8.70001C19.4996 8.40001 19.0996 8.40001 18.7996 8.70001L17.3996 10.1L19.9996 12.7L21.3996 11.3C21.6996 11 21.6996 10.6 21.3996 10.3L19.7996 8.70001ZM18.9996 13.6L16.3996 11L8.69962 18.7C8.59962 18.8 8.4996 19 8.4996 19.2V21.5H10.7996C10.9996 21.5 11.1996 21.4 11.2996 21.3L18.9996 13.6Z" fill="white"/>
</svg>
