<svg width="75" height="116" viewBox="0 0 75 116" fill="none" xmlns="http://www.w3.org/2000/svg">
<path d="M13.6004 78.5996C13.6004 61.5996 26.2004 47.3996 42.5004 44.9996C40.8004 44.6996 39.1004 44.5996 37.4004 44.5996C18.7004 44.5996 3.40039 59.8996 3.40039 78.5996C3.40039 97.2996 18.7004 112.6 37.4004 112.6C39.1004 112.6 40.8004 112.5 42.5004 112.2C26.2004 109.7 13.6004 95.5996 13.6004 78.5996Z" fill="#F1E8F0"/>
<path d="M66 54.4V28.6C66 12.8 53.2 0 37.4 0C21.6 0 8.9 12.8 8.9 28.6V54.4C3.1 61.1 0 69.7 0 78.6C0 99.2 16.8 116 37.4 116C58 116 74.8 99.2 74.8 78.6C74.9 69.7 71.7 61.1 66 54.4ZM37.4 44.9C56 44.9 71.1 60 71.1 78.6C71.1 97.2 56 112.2 37.4 112.2C18.8 112.2 3.8 97.1 3.8 78.6C3.8 60.1 18.9 44.9 37.4 44.9ZM16.4 47.6C15.1 48.5 13.8 49.5 12.6 50.5V28.6C12.6 15 23.7 3.9 37.3 3.9C50.9 3.9 62 15 62 28.6V50.5H62.2C61 49.4 59.7 48.5 58.4 47.6L54.5 45.3C49.1 42.5 43.3 41.1 37.4 41.1C31.5 41.1 25.7 42.5 20.3 45.3L16.4 47.6Z" fill="#721B65"/>
<path d="M46.4004 66.9999C44.8004 62.6999 40.4004 60.0999 35.8004 60.8999C31.2004 61.6999 27.9004 65.5999 27.9004 70.2999C27.9004 71.2999 28.8004 72.1999 29.8004 72.1999C30.8004 72.1999 31.7004 71.2999 31.7004 70.2999C31.7004 68.6999 32.4004 67.1999 33.5004 66.0999C34.7004 64.9999 36.2004 64.4999 37.8004 64.5999C40.3004 64.7999 42.4004 66.5999 43.0004 68.9999C43.6004 71.4999 42.5004 73.9999 40.3004 75.1999C37.3004 76.9999 35.5004 80.1999 35.5004 83.5999V86.8999C35.5004 87.8999 36.4004 88.7999 37.4004 88.7999C38.4004 88.7999 39.3004 87.8999 39.3004 86.8999V83.5999C39.3004 81.4999 40.4004 79.4999 42.2004 78.4999C46.2004 76.0999 48.0004 71.2999 46.4004 66.9999Z" fill="#721B65"/>
<path d="M37.3992 96.4C39.1992 96.4 40.5992 95 40.5992 93.2C40.5992 91.4 39.1992 90 37.3992 90C35.5992 90 34.1992 91.4 34.1992 93.2C34.1992 95 35.5992 96.4 37.3992 96.4Z" fill="#721B65"/>
</svg>

