<svg width="94" height="94" viewBox="0 0 94 94" fill="none" xmlns="http://www.w3.org/2000/svg">
<path d="M31.3008 39.3002V5.6002C31.3008 3.7002 32.8008 2.2002 34.7008 2.2002H30.2008C28.3008 2.2002 26.8008 3.7002 26.8008 5.6002V39.3002C26.8008 41.2002 28.3008 42.7002 30.2008 42.7002H34.7008C32.8008 42.7002 31.3008 41.2002 31.3008 39.3002Z" fill="#F1E8F0"/>
<path d="M64.6996 0H28.6996C25.5996 0 23.0996 2.5 23.0996 5.6V39.3C23.0996 42.4 25.5996 44.9 28.6996 44.9H64.6996C67.7996 44.9 70.2996 42.4 70.2996 39.3V5.6C70.2996 2.5 67.7996 0 64.6996 0ZM65.8996 5.6V39.3C65.8996 40 65.3996 40.5 64.6996 40.5H28.6996C27.9996 40.5 27.4996 40 27.4996 39.3V5.6C27.4996 4.9 27.9996 4.4 28.6996 4.4H64.6996C65.3996 4.4 65.8996 4.9 65.8996 5.6Z" fill="#721B65"/>
<path d="M58.4996 16.7996C59.0996 16.7996 59.5996 16.4996 59.8996 16.0996C60.2996 15.6996 60.3996 15.0996 60.3996 14.5996L60.0996 9.79961C60.0996 9.19961 59.7996 8.59961 59.2996 8.19961C58.9996 7.89961 58.4996 7.59961 57.9996 7.59961H57.8996L52.2996 7.89961C51.6996 7.89961 51.1996 8.19961 50.8996 8.59961C50.4996 8.99961 50.2996 9.59961 50.3996 10.0996C50.3996 10.6996 50.6996 11.1996 51.0996 11.4996C51.4996 11.7996 51.8996 11.9996 52.3996 11.9996L44.6996 19.4996L37.1996 19.5996C36.6996 19.5996 36.1996 19.7996 35.7996 20.1996L29.6996 26.0996C28.8996 26.8996 28.8996 28.1996 29.6996 29.0996C30.0996 29.4996 30.5996 29.6996 31.1996 29.6996C31.6996 29.6996 32.2996 29.4996 32.6996 29.0996L38.1996 23.7996L45.6996 23.6996C46.1996 23.6996 46.6996 23.4996 47.0996 23.0996L56.2996 14.0996V14.7996C56.3996 15.9996 57.3996 16.8996 58.4996 16.7996Z" fill="#721B65"/>
<path d="M42.7992 26.5996C41.5992 26.5996 40.6992 27.4996 40.6992 28.6996V34.2996C40.6992 35.4996 41.5992 36.3996 42.7992 36.3996C43.9992 36.3996 44.8992 35.4996 44.8992 34.2996V28.6996C44.8992 27.4996 43.8992 26.5996 42.7992 26.5996Z" fill="#721B65"/>
<path d="M34.6996 30.7002C33.4996 30.7002 32.5996 31.6002 32.5996 32.8002V34.3002C32.5996 35.5002 33.4996 36.4002 34.6996 36.4002C35.8996 36.4002 36.7996 35.5002 36.7996 34.3002V32.8002C36.7996 31.7002 35.7996 30.7002 34.6996 30.7002Z" fill="#721B65"/>
<path d="M50.8988 28C49.6988 28 48.7988 28.9 48.7988 30.1V34.3C48.7988 35.5 49.6988 36.4 50.8988 36.4C52.0988 36.4 52.9988 35.5 52.9988 34.3V30.1C52.9988 28.9 52.0988 28 50.8988 28Z" fill="#721B65"/>
<path d="M59.0004 21.4004C57.8004 21.4004 56.9004 22.3004 56.9004 23.5004V34.3004C56.9004 35.5004 57.8004 36.4004 59.0004 36.4004C60.2004 36.4004 61.1004 35.5004 61.1004 34.3004V23.5004C61.1004 22.3004 60.2004 21.4004 59.0004 21.4004Z" fill="#721B65"/>
<path d="M6.29922 62.9H14.6992L13.8992 58.5H3.69922L7.59922 90.5H11.3992L6.29922 62.9Z" fill="#F1E8F0"/>
<path d="M66.3002 68.1001L58.9002 67.7001C56.8002 67.6001 54.8002 67.6001 52.7002 67.8001C52.1002 67.9001 51.5002 67.9001 50.8002 68.0001C50.7002 68.0001 50.7002 68.0001 50.6002 68.0001C50.5002 68.0001 50.5002 68.0001 50.4002 68.0001C49.6002 68.1001 49.1002 68.9001 49.2002 69.7001C49.3002 70.5001 50.0002 71.1001 50.8002 71.0001C53.4002 70.6001 56.1002 70.5001 58.7002 70.6001L67.8002 71.0001C67.8002 71.0001 67.8002 71.0001 67.9002 71.0001C68.7002 71.0001 69.3002 70.3001 69.3002 69.5001C69.3002 69.3001 69.3002 69.2001 69.3002 69.0001L70.4002 68.4001L83.5002 61.0001C84.6002 60.4001 85.8002 60.2001 87.0002 60.5001L89.3002 58.8001C87.7002 57.2001 85.4002 56.9001 83.5002 58.0001L70.4002 65.5001L69.3002 66.1001C69.3002 66.3001 69.3002 66.4001 69.3002 66.6001C69.3002 67.4001 68.7002 68.1001 67.9002 68.1001C67.9002 68.1001 67.9002 68.1001 67.8002 68.1001H66.3002Z" fill="#F1E8F0"/>
<path d="M22.6996 67.4004L25.2996 65.1004C30.1996 61.5004 36.5996 60.8004 42.0996 63.5004L43.1996 64.1004C45.0996 65.0004 47.1996 65.5004 49.2996 65.5004H59.9996C61.7996 65.5004 63.4996 66.2004 64.7996 67.6004L66.2996 64.7004C65.5996 61.8004 62.9996 59.7004 59.9996 59.7004H49.3996C47.2996 59.7004 45.1996 59.2004 43.2996 58.3004L42.1996 57.7004C36.6996 55.0004 30.1996 55.7004 25.3996 59.3004L22.7996 61.6004C21.5996 62.7004 20.0996 63.5004 18.5996 64.0004L19.3996 69.5004C20.5996 69.1004 21.6996 68.3004 22.6996 67.4004Z" fill="#F1E8F0"/>
<path d="M11.4004 83C11.4004 85 13.0004 86.5 14.9004 86.5C16.9004 86.5 18.4004 84.9 18.4004 83C18.4004 81 16.8004 79.5 14.9004 79.5C13.0004 79.5 11.4004 81.1 11.4004 83Z" fill="#721B65"/>
<path d="M93.2 57.9999C90.9 54.0999 86 52.7999 82 54.7999C79.7 52.4999 76.3 51.8999 73.6 53.1999L73 53.4999C70 51.2999 66 51.0999 62.8 52.9999L57 56.1999H49.3C47.7 56.1999 46.1 55.7999 44.7 55.0999L43.6 54.4999C37 51.2999 29.1 51.9999 23 56.5999L20.4 58.9999C19.7 59.5999 19 60.0999 18.2 60.3999L17 56.3999C16.7 55.4999 15.9 54.8999 15 54.9999H2.2C1.7 54.8999 1.1 55.0999 0.7 55.4999C0.3 55.8999 0 56.3999 0 56.8999C0 56.9999 0 57.1999 0 57.2999L4.3 92.1999C4.4 93.2999 5.3 93.9999 6.4 93.9999H25.5H25.6C26.7 93.9999 27.6 93.0999 27.7 91.9999C27.7 91.7999 27.7 91.4999 27.6 91.2999L25.3 83.6999L32.5 79.0999C33.3 78.5999 34.3 78.4999 35.4 78.7999L51.4 81.6999C56 82.4999 60.6 81.8999 64.7 79.7999C64.8 79.7999 64.9 79.6999 65 79.5999L92.6 60.5999C93.5 60.1999 93.7 58.8999 93.2 57.9999ZM52.1 77.5999L36.2 74.6999C34.2 74.1999 32.1 74.4999 30.3 75.5999L24 79.5999L19.4 64.4999C20.8 63.9999 22.1 63.1999 23.2 62.1999L25.8 59.8999C30.5 56.3999 36.6 55.7999 41.9 58.3999L43 58.9999C45 59.9999 47.2 60.4999 49.4 60.4999H60C62.3 60.4999 64.4 61.8999 65.3 63.9999L58.9 63.6999C56.1 63.5999 53.2 63.6999 50.4 64.0999C49.8 64.1999 49.3 64.4999 49 64.8999C48.7 65.2999 48.5 65.8999 48.6 66.4999C48.8 67.6999 49.9 68.3999 51 68.2999C53.6 67.8999 56.2 67.7999 58.8 67.8999L68 68.2999C69.2 68.2999 70.1 67.3999 70.1 66.1999L84 58.6999C85.4 57.9999 87 57.9999 88.3 58.7999L62.7 76.1999C59.4 77.7999 55.7 78.2999 52.1 77.5999ZM69 61.7999C68.8 61.4999 68.7 61.0999 68.5 60.7999L75.6 56.9999C76.3 56.6999 77.1 56.7999 77.8 57.0999L69 61.7999ZM64.2 56.9999L64.9 56.5999C66 55.9999 67.2 55.7999 68.4 55.9999L65.3 57.5999C65 57.3999 64.6 57.1999 64.2 56.9999ZM22.7 89.7999H8.3L4.5 59.1999H13.3L22.7 89.7999Z" fill="#721B65"/>
</svg>

