<svg width="10" height="10" viewBox="0 0 10 10" fill="none" xmlns="http://www.w3.org/2000/svg">
<path fill-rule="evenodd" clip-rule="evenodd" d="M1.28647 0.484907C1.07346 0.271897 0.728103 0.271897 0.515093 0.484907C0.302082 0.697918 0.302082 1.04328 0.515093 1.25629L7.29498 8.03618L2.40651 8.02605C2.10527 8.02543 1.86056 8.26913 1.85993 8.57037C1.85931 8.87161 2.10301 9.11632 2.40425 9.11695L8.6067 9.12979C8.6939 9.13104 8.78134 9.11151 8.86095 9.0712C8.91214 9.04534 8.95939 9.01134 9.0007 8.97003C9.10327 8.86745 9.16075 8.72824 9.16044 8.58318L9.14707 2.37409C9.14642 2.07285 8.90169 1.82917 8.60045 1.82982C8.2992 1.83046 8.05552 2.0752 8.05617 2.37644L8.0667 7.26514L1.28647 0.484907Z" fill="#2DBE60"/>
</svg>
