<svg width="10" height="10" viewBox="0 0 10 10" fill="none" xmlns="http://www.w3.org/2000/svg">
<path fill-rule="evenodd" clip-rule="evenodd" d="M8.2604 8.96822C8.47341 9.18123 8.81877 9.18123 9.03178 8.96822C9.24479 8.75521 9.24479 8.40985 9.03178 8.19684L2.25189 1.41695L7.14036 1.42707C7.44161 1.42769 7.68632 1.18399 7.68694 0.882753C7.68756 0.581511 7.44386 0.3368 7.14262 0.336177L0.940176 0.323335C0.852979 0.322082 0.765539 0.341612 0.685922 0.381924C0.634738 0.407781 0.587487 0.441781 0.546177 0.483093C0.443608 0.58567 0.386124 0.724881 0.386437 0.869942L0.399808 7.07904C0.400457 7.38028 0.645187 7.62396 0.946429 7.62331C1.24767 7.62266 1.49135 7.37793 1.4907 7.07669L1.48017 2.18799L8.2604 8.96822Z" fill="#FF4D4F"/>
</svg>
