<svg width="337" height="146" viewBox="0 0 337 146" fill="none" xmlns="http://www.w3.org/2000/svg">
<g filter="url(#filter0_f)">
<path d="M10 20C10 14.4772 14.4772 10 20 10H307C318.046 10 327 18.9543 327 30V126C327 131.523 322.523 136 317 136H20C14.4772 136 10 131.523 10 126V20Z" fill="#D493CB"/>
</g>
<path d="M21 36C21 30.4772 25.4772 26 31 26H296C307.046 26 316 34.9543 316 46V122C316 127.523 311.523 132 306 132H31C25.4771 132 21 127.523 21 122V36Z" fill="#B359A5"/>
<path d="M9 20C9 14.4772 13.4772 10 19 10H307C318.046 10 327 18.9543 327 30V117C327 122.523 322.523 127 317 127H19C13.4771 127 9 122.523 9 117V20Z" fill="#721B65"/>
<mask id="mask0" style="mask-type:alpha" maskUnits="userSpaceOnUse" x="9" y="10" width="318" height="117">
<path d="M9 20C9 14.4772 13.4772 10 19 10H307C318.046 10 327 18.9543 327 30V117C327 122.523 322.523 127 317 127H19C13.4771 127 9 122.523 9 117V20Z" fill="#721B65"/>
</mask>
<g mask="url(#mask0)">
<path opacity="0.1" d="M4.72127 -18H18.8166V44.8658H18.5745C16.1442 44.8658 13.9565 43.8877 12.0122 42.1754C10.311 40.2184 9.33744 38.2613 9.33744 35.8151V-8.46028H4.47681V36.7934C4.71984 40.4626 6.17851 43.3984 8.60882 45.8446C11.2822 48.5353 14.686 50.0029 18.5745 50.0029C22.4631 50.0029 25.6215 48.5353 28.5379 45.8446C31.2112 43.1538 32.6699 39.729 32.6699 35.8151V-18H51.3838C54.0572 -18 56 -15.7987 56 -13.3526V39.4844C56 43.6428 55.2709 47.5568 53.5697 51.226C52.1115 54.8952 49.6807 58.0752 47.0074 61.0105C44.334 63.7013 40.9316 66.1473 37.2861 67.615C29.7521 70.795 21.2479 70.795 13.7139 67.615C10.0684 66.1473 6.66599 63.7013 3.99265 61.0105C2.77749 59.7875 1.56138 58.5642 0.589254 57.0965L0.831336 57.3413H1.07579C18.331 71.7736 46.5232 60.5214 46.5232 34.8369V-4.54621H50.4107L44.335 -14.3308L38.2592 -4.54621H42.1467V35.8151C42.1467 38.9951 41.6611 41.9304 40.2029 44.8658C38.9878 47.5565 37.2875 50.2475 35.1002 52.449C28.2953 59.2982 18.331 61.2548 9.5819 57.5856C6.90855 56.3625 4.23378 54.6506 2.04649 52.449C-0.140791 50.2475 -1.84106 47.8011 -3.05622 44.8658C-4.27138 41.9304 -5 38.9951 -5 35.8151V-13.3526C-5 -16.0433 -2.81414 -18 -0.383822 -18H4.72127Z" fill="white"/>
<path opacity="0.1" d="M313.721 58H327.817V120.866H327.575C325.144 120.866 322.956 119.888 321.012 118.175C319.311 116.218 318.337 114.261 318.337 111.815V67.5397H313.477V112.793C313.72 116.463 315.179 119.398 317.609 121.845C320.282 124.535 323.686 126.003 327.575 126.003C331.463 126.003 334.622 124.535 337.538 121.845C340.211 119.154 341.67 115.729 341.67 111.815V58H360.384C363.057 58 365 60.2013 365 62.6474V115.484C365 119.643 364.271 123.557 362.57 127.226C361.111 130.895 358.681 134.075 356.007 137.011C353.334 139.701 349.932 142.147 346.286 143.615C338.752 146.795 330.248 146.795 322.714 143.615C319.068 142.147 315.666 139.701 312.993 137.011C311.777 135.787 310.561 134.564 309.589 133.096L309.831 133.341H310.076C327.331 147.774 355.523 136.521 355.523 110.837V71.4538H359.411L353.335 61.6692L347.259 71.4538H351.147V111.815C351.147 114.995 350.661 117.93 349.203 120.866C347.988 123.557 346.288 126.248 344.1 128.449C337.295 135.298 327.331 137.255 318.582 133.586C315.909 132.363 313.234 130.651 311.046 128.449C308.859 126.248 307.159 123.801 305.944 120.866C304.729 117.93 304 114.995 304 111.815V62.6474C304 59.9567 306.186 58 308.616 58H313.721Z" fill="white"/>
</g>
<defs>
<filter id="filter0_f" x="0" y="0" width="337" height="146" filterUnits="userSpaceOnUse" color-interpolation-filters="sRGB">
<feFlood flood-opacity="0" result="BackgroundImageFix"/>
<feBlend mode="normal" in="SourceGraphic" in2="BackgroundImageFix" result="shape"/>
<feGaussianBlur stdDeviation="5" result="effect1_foregroundBlur"/>
</filter>
</defs>
</svg>
