<svg width="44" height="44" viewBox="0 0 44 44" fill="none" xmlns="http://www.w3.org/2000/svg">
<path fill-rule="evenodd" clip-rule="evenodd" d="M13.4396 3.66797H30.5446C36.778 3.66797 40.3346 7.18797 40.3346 13.4396V30.563C40.3346 36.778 36.7963 40.3346 30.563 40.3346H13.4396C7.18797 40.3346 3.66797 36.778 3.66797 30.563V13.4396C3.66797 7.18797 7.18797 3.66797 13.4396 3.66797ZM23.5046 23.523H28.7113C29.5546 23.5046 30.233 22.8263 30.233 21.983C30.233 21.1396 29.5546 20.4613 28.7113 20.4613H23.5046V15.2913C23.5046 14.448 22.8263 13.7696 21.983 13.7696C21.1396 13.7696 20.4613 14.448 20.4613 15.2913V20.4613H15.273C14.8696 20.4613 14.4846 20.6263 14.1913 20.9013C13.9163 21.1946 13.7513 21.5778 13.7513 21.983C13.7513 22.8263 14.4296 23.5046 15.273 23.523H20.4613V28.7113C20.4613 29.5546 21.1396 30.233 21.983 30.233C22.8263 30.233 23.5046 29.5546 23.5046 28.7113V23.523Z" fill="#721B65"/>
</svg>
