<svg width="19" height="15" viewBox="0 0 19 15" fill="none" xmlns="http://www.w3.org/2000/svg">
<path d="M3.87481 1.125C3.87481 0.95924 3.80896 0.800269 3.69175 0.683058C3.57454 0.565848 3.41557 0.5 3.24981 0.5C3.08405 0.5 2.92508 0.565848 2.80787 0.683058C2.69066 0.800269 2.62481 0.95924 2.62481 1.125V12.1163L1.19231 10.6825C1.07495 10.5651 0.915783 10.4992 0.749813 10.4992C0.583843 10.4992 0.424671 10.5651 0.307313 10.6825C0.189955 10.7999 0.124023 10.959 0.124023 11.125C0.124023 11.291 0.189955 11.4501 0.307313 11.5675L2.80731 14.0662L2.81606 14.075C2.93341 14.1894 3.09121 14.2528 3.25511 14.2514C3.419 14.25 3.5757 14.1839 3.69106 14.0675L6.19106 11.5675C6.24917 11.5095 6.29528 11.4406 6.32676 11.3647C6.35824 11.2889 6.37448 11.2076 6.37454 11.1254C6.37459 11.0433 6.35848 10.962 6.3271 10.8861C6.29573 10.8102 6.24972 10.7412 6.19169 10.6831C6.13366 10.625 6.06475 10.5789 5.98891 10.5474C5.91306 10.5159 5.83175 10.4997 5.74963 10.4997C5.66751 10.4996 5.58618 10.5157 5.51029 10.5471C5.43439 10.5785 5.36542 10.6245 5.30731 10.6825L3.87481 12.1163V1.125ZM8.24981 2.375C8.24981 2.20924 8.31566 2.05027 8.43287 1.93306C8.55008 1.81585 8.70905 1.75 8.87481 1.75H17.6248C17.7906 1.75 17.9495 1.81585 18.0668 1.93306C18.184 2.05027 18.2498 2.20924 18.2498 2.375C18.2498 2.54076 18.184 2.69973 18.0668 2.81694C17.9495 2.93415 17.7906 3 17.6248 3H8.87481C8.70905 3 8.55008 2.93415 8.43287 2.81694C8.31566 2.69973 8.24981 2.54076 8.24981 2.375ZM8.87481 5.5C8.70905 5.5 8.55008 5.56585 8.43287 5.68306C8.31566 5.80027 8.24981 5.95924 8.24981 6.125C8.24981 6.29076 8.31566 6.44973 8.43287 6.56694C8.55008 6.68415 8.70905 6.75 8.87481 6.75H15.1248C15.2906 6.75 15.4495 6.68415 15.5668 6.56694C15.684 6.44973 15.7498 6.29076 15.7498 6.125C15.7498 5.95924 15.684 5.80027 15.5668 5.68306C15.4495 5.56585 15.2906 5.5 15.1248 5.5H8.87481ZM8.87481 9.25C8.70905 9.25 8.55008 9.31585 8.43287 9.43306C8.31566 9.55027 8.24981 9.70924 8.24981 9.875C8.24981 10.0408 8.31566 10.1997 8.43287 10.3169C8.55008 10.4342 8.70905 10.5 8.87481 10.5H12.6248C12.7906 10.5 12.9495 10.4342 13.0668 10.3169C13.184 10.1997 13.2498 10.0408 13.2498 9.875C13.2498 9.70924 13.184 9.55027 13.0668 9.43306C12.9495 9.31585 12.7906 9.25 12.6248 9.25H8.87481ZM8.87481 13C8.70905 13 8.55008 13.0658 8.43287 13.1831C8.31566 13.3003 8.24981 13.4592 8.24981 13.625C8.24981 13.7908 8.31566 13.9497 8.43287 14.0669C8.55008 14.1842 8.70905 14.25 8.87481 14.25H10.1248C10.2906 14.25 10.4495 14.1842 10.5668 14.0669C10.684 13.9497 10.7498 13.7908 10.7498 13.625C10.7498 13.4592 10.684 13.3003 10.5668 13.1831C10.4495 13.0658 10.2906 13 10.1248 13H8.87481Z" fill="#721B65"/>
</svg>
