<svg width="60" height="60" viewBox="0 0 60 60" fill="none" xmlns="http://www.w3.org/2000/svg">
<path d="M30 44.2266C24.7197 44.2266 20.4414 48.5048 20.4414 53.7849H39.5586C39.5587 48.5048 35.2806 44.2266 30 44.2266Z" fill="#721B65"/>
<path d="M30.0012 37.7133C31.0568 37.7133 31.9125 36.8575 31.9125 35.802C31.9125 34.7464 31.0568 33.8906 30.0012 33.8906C28.9456 33.8906 28.0898 34.7464 28.0898 35.802C28.0898 36.8575 28.9456 37.7133 30.0012 37.7133Z" fill="#721B65"/>
<path d="M29.9997 14.4179C26.7746 11.194 21.5414 11.194 18.3164 14.4179C18.3164 20.8712 23.5466 26.1011 29.9997 26.1011C36.4529 26.1011 41.6829 20.8713 41.6829 14.4179C38.4579 17.6471 33.2243 17.6471 29.9997 14.4179Z" fill="#721B65"/>
<path d="M46.9708 54.8984H13.0273V45.8567C13.0273 38.7182 17.4791 32.4557 23.9585 29.9942C17.4706 27.5237 13.0273 21.2669 13.0273 14.1354V5.09375H46.9708V14.1355C46.9708 21.2751 42.5203 27.5364 36.0412 29.998C42.5275 32.4666 46.9708 38.7228 46.9708 45.8568V54.8984ZM15.2498 52.6764H44.7488V45.8572C44.7488 38.7646 39.6954 32.6691 32.7327 31.3645L32.7344 31.3512C32.1521 31.1664 31.7432 30.6186 31.7432 29.9961C31.7432 29.385 32.1365 28.8468 32.7009 28.6524L32.6973 28.6351C32.7 28.6341 32.7024 28.6341 32.7048 28.6333H32.7057C39.6993 27.3191 44.7486 21.2254 44.7486 14.1355V7.31574H15.2495V14.135C15.2495 21.2225 20.2985 27.3164 27.2552 28.6259L27.2998 28.6346L27.2968 28.6511C27.8614 28.8455 28.255 29.3846 28.255 29.9957C28.255 30.6063 27.8608 31.1454 27.296 31.3404L27.2998 31.3569L27.2456 31.3671C20.2985 32.6748 15.2495 38.7692 15.2495 45.8565V52.6763H15.2498V52.6764Z" fill="#0D223C"/>
<path d="M48.2659 7.31965H11.7309C10.7538 7.31965 9.83457 6.93949 9.14246 6.24949C8.4507 5.55562 8.07031 4.63664 8.07031 3.66047C8.07031 2.68219 8.4507 1.76332 9.14164 1.07262C9.8334 0.380977 10.7526 0 11.7309 0H48.2657C49.244 0 50.1632 0.380977 50.855 1.07285C51.5456 1.7632 51.926 2.6823 51.926 3.6607C51.926 4.63723 51.5458 5.55551 50.8556 6.24762C50.1624 6.93961 49.2429 7.31965 48.2659 7.31965ZM11.7309 2.22211C11.3463 2.22211 10.9851 2.37211 10.7127 2.64387C10.4417 2.9148 10.2927 3.27562 10.2927 3.66059C10.2927 4.04426 10.4423 4.40578 10.7142 4.67789C10.9845 4.94789 11.3465 5.09754 11.7311 5.09754H48.266C48.6502 5.09754 49.0123 4.94789 49.2848 4.67602C49.5545 4.40508 49.7042 4.04426 49.7042 3.66047C49.7042 3.27586 49.5552 2.91469 49.2839 2.64375C49.0118 2.37164 48.6506 2.22199 48.266 2.22199C48.2661 2.22211 11.7309 2.22211 11.7309 2.22211Z" fill="#0D223C"/>
<path d="M48.2659 59.9995H11.7309C10.7526 59.9995 9.8334 59.6181 9.14164 58.9266C8.4507 58.236 8.07031 57.3171 8.07031 56.3388C8.07031 55.3626 8.4507 54.4439 9.1407 53.7522C9.83457 53.0598 10.7538 52.6797 11.7309 52.6797H48.2657C49.2431 52.6797 50.1623 53.0601 50.8538 53.7504C51.5462 54.4441 51.926 55.3623 51.926 56.3389C51.926 57.3171 51.5452 58.2364 50.8547 58.927C50.1634 59.6181 49.2438 59.9995 48.2659 59.9995ZM11.7309 54.9018C11.3463 54.9018 10.9845 55.0514 10.7118 55.3233C10.4424 55.5933 10.2928 55.9551 10.2928 56.3389C10.2928 56.7235 10.4422 57.0844 10.7128 57.3556C10.9851 57.6277 11.3464 57.7773 11.731 57.7773H48.2659C48.6501 57.7773 49.0114 57.6277 49.2832 57.3556C49.5549 57.0846 49.7041 56.7238 49.7041 56.3389C49.7041 55.9554 49.5545 55.5943 49.2829 55.3216C49.0126 55.0516 48.6506 54.9019 48.266 54.9019L11.7309 54.9018Z" fill="#0D223C"/>
</svg>
