<svg width="49" height="48" viewBox="0 0 49 48" fill="none" xmlns="http://www.w3.org/2000/svg">
<path fill-rule="evenodd" clip-rule="evenodd" d="M24.9609 46.5C37.3873 46.5 47.4609 36.4264 47.4609 24C47.4609 11.5736 37.3873 1.5 24.9609 1.5C12.5345 1.5 2.46094 11.5736 2.46094 24C2.46094 36.4264 12.5345 46.5 24.9609 46.5ZM24.9609 48C38.2158 48 48.9609 37.2548 48.9609 24C48.9609 10.7452 38.2158 0 24.9609 0C11.7061 0 0.960938 10.7452 0.960938 24C0.960938 37.2548 11.7061 48 24.9609 48Z" fill="#721B65"/>
<path d="M32.7596 18.8087L25.5041 14.4923C25.3024 14.3724 25.0513 14.3724 24.8497 14.4923L17.594 18.8087C17.4001 18.9241 17.2812 19.1331 17.2812 19.3588V21.8228C17.2812 27.0126 20.2798 31.7526 24.9458 33.5592C25.0943 33.6167 25.2592 33.6168 25.4079 33.5592C30.0626 31.7571 33.0724 27.0273 33.0724 21.8228V19.3588C33.0724 19.1331 32.9536 18.9241 32.7596 18.8087ZM28.3387 22.5642L24.3275 26.5754C24.0776 26.8254 23.6724 26.8254 23.4224 26.5754L22.0147 25.1677C21.7648 24.9178 21.7648 24.5126 22.0147 24.2626C22.2646 24.0127 22.6699 24.0127 22.9198 24.2626L23.875 25.2178L27.4336 21.6591C27.6835 21.4092 28.0888 21.4092 28.3387 21.6591C28.5887 21.9091 28.5887 22.3143 28.3387 22.5642Z" fill="#721B65"/>
</svg>
