<svg width="49" height="48" viewBox="0 0 49 48" fill="none" xmlns="http://www.w3.org/2000/svg">
<path fill-rule="evenodd" clip-rule="evenodd" d="M24.4609 46.5C36.8873 46.5 46.9609 36.4264 46.9609 24C46.9609 11.5736 36.8873 1.5 24.4609 1.5C12.0345 1.5 1.96094 11.5736 1.96094 24C1.96094 36.4264 12.0345 46.5 24.4609 46.5ZM24.4609 48C37.7158 48 48.4609 37.2548 48.4609 24C48.4609 10.7452 37.7158 0 24.4609 0C11.2061 0 0.460938 10.7452 0.460938 24C0.460938 37.2548 11.2061 48 24.4609 48Z" fill="#721B65"/>
<path d="M25.0234 14.4023V18.9967C27.3608 19.2597 29.2066 21.1055 29.4702 23.4398H34.0609C33.7791 18.6099 29.8541 14.6842 25.0234 14.4023Z" fill="#721B65"/>
<path d="M20.5216 27.1447C19.8288 26.2784 19.3969 25.1953 19.3969 24.0023C19.3969 21.4033 21.3726 19.2807 23.8969 18.9967V14.4023C18.8791 14.6951 14.8594 18.9111 14.8594 24.0023C14.8594 26.4404 15.8169 28.6583 17.319 30.3473L20.5216 27.1447Z" fill="#721B65"/>
<path d="M34.0611 24.5625H29.4678C29.1838 27.0868 27.0612 29.0625 24.4621 29.0625C23.2692 29.0625 22.186 28.6305 21.3198 27.9378L18.1172 31.1404C19.8062 32.6425 22.0241 33.6 24.4621 33.6C29.5534 33.6 33.7684 29.5803 34.0611 24.5625Z" fill="#721B65"/>
<path d="M26.8625 21.6016H22.0625V22.1296H23.7956C24.406 22.122 24.8129 22.3181 25.0163 22.65H22.0625V23.178H25.1746V23.2836C25.1746 23.8569 24.7978 24.2868 23.8634 24.2868H22.5071V25.1165H23.9237H24.0518L25.2047 26.8816H26.2597L24.9937 24.9506C25.7322 24.6866 26.1617 24.1284 26.1617 23.3289C26.1617 23.2761 26.1617 23.2308 26.1542 23.178H26.8625V22.65H26.0411C25.9583 22.4539 25.8452 22.2804 25.6795 22.1296H26.8625V21.6016Z" fill="#721B65"/>
</svg>
