<svg width="22" height="18" viewBox="0 0 22 18" fill="none" xmlns="http://www.w3.org/2000/svg">
<path d="M20.962 15.2054L12.0613 0.904029C11.3126 -0.246656 10.148 -0.246656 9.48254 0.904029L0.415454 15.2054C-0.582757 16.767 0.165902 17.9999 1.99596 17.9999H19.3815C21.2947 17.9999 21.9602 16.767 20.962 15.2054ZM10.7303 15.5342C10.2312 15.5342 9.89846 15.2054 9.89846 14.7122C9.89846 14.2191 10.2312 13.8903 10.7303 13.8903C11.2294 13.8903 11.5621 14.2191 11.5621 14.7122C11.5621 15.2054 11.1462 15.5342 10.7303 15.5342ZM11.5621 11.4246C11.5621 11.8355 11.2294 12.2465 10.7303 12.2465C10.2312 12.2465 9.89846 11.9177 9.89846 11.4246V6.49307C9.89846 6.08211 10.2312 5.67115 10.7303 5.67115C11.2294 5.67115 11.5621 5.99992 11.5621 6.49307V11.4246Z" fill="#EEC824"/>
</svg>

