<svg width="16" height="16" viewBox="0 0 16 16" fill="none" xmlns="http://www.w3.org/2000/svg">
<path d="M3.33518 12.7988C3.50042 12.3305 3.80686 11.925 4.21225 11.6381C4.61764 11.3513 5.10202 11.1973 5.59863 11.1973C6.09524 11.1973 6.57962 11.3513 6.98501 11.6381C7.3904 11.925 7.69683 12.3305 7.86207 12.7988H15.9961V14.3984H7.86207C7.69683 14.8667 7.3904 15.2723 6.98501 15.5591C6.57962 15.846 6.09524 16 5.59863 16C5.10202 16 4.61764 15.846 4.21225 15.5591C3.80686 15.2723 3.50042 14.8667 3.33518 14.3984H0V12.7988H3.33518ZM8.13401 7.2002C8.29925 6.73188 8.60568 6.32636 9.01107 6.03951C9.41646 5.75267 9.90084 5.59863 10.3975 5.59863C10.8941 5.59863 11.3784 5.75267 11.7838 6.03951C12.1892 6.32636 12.4957 6.73188 12.6609 7.2002H15.9961V8.7998H12.6609C12.4957 9.26812 12.1892 9.67364 11.7838 9.96049C11.3784 10.2473 10.8941 10.4014 10.3975 10.4014C9.90084 10.4014 9.41646 10.2473 9.01107 9.96049C8.60568 9.67364 8.29925 9.26812 8.13401 8.7998H0V7.2002H8.13401ZM3.33518 1.60157C3.50042 1.13326 3.80686 0.727729 4.21225 0.440884C4.61764 0.154039 5.10202 0 5.59863 0C6.09524 0 6.57962 0.154039 6.98501 0.440884C7.3904 0.727729 7.69683 1.13326 7.86207 1.60157H15.9961V3.20118H7.86207C7.69683 3.66949 7.3904 4.07501 6.98501 4.36186C6.57962 4.6487 6.09524 4.80274 5.59863 4.80274C5.10202 4.80274 4.61764 4.6487 4.21225 4.36186C3.80686 4.07501 3.50042 3.66949 3.33518 3.20118H0V1.60157H3.33518Z" fill="#721B65"/>
</svg>
