<svg width="16" height="16" viewBox="0 0 16 16" fill="none" xmlns="http://www.w3.org/2000/svg">
<path d="M3.33518 12.7988C3.50042 12.3305 3.80686 11.925 4.21225 11.6381C4.61764 11.3513 5.10202 11.1973 5.59863 11.1973C6.09524 11.1973 6.57962 11.3513 6.98501 11.6381C7.3904 11.925 7.69683 12.3305 7.86207 12.7988H15.9961V14.3984H7.86207C7.69683 14.8667 7.3904 15.2723 6.98501 15.5591C6.57962 15.846 6.09524 16 5.59863 16C5.10202 16 4.61764 15.846 4.21225 15.5591C3.80686 15.2723 3.50042 14.8667 3.33518 14.3984H0V12.7988H3.33518ZM8.13401 7.2002C8.29925 6.73188 8.60568 6.32636 9.01107 6.03951C9.41646 5.75267 9.90084 5.59863 10.3975 5.59863C10.8941 5.59863 11.3784 5.75267 11.7838 6.03951C12.1892 6.32636 12.4957 6.73188 12.6609 7.2002H15.9961V8.7998H12.6609C12.4957 9.26812 12.1892 9.67364 11.7838 9.96049C11.3784 10.2473 10.8941 10.4014 10.3975 10.4014C9.90084 10.4014 9.41646 10.2473 9.01107 9.96049C8.60568 9.67364 8.29925 9.26812 8.13401 8.7998H0V7.2002H8.13401ZM3.33518 1.60157C3.50042 1.13326 3.80686 0.727729 4.21225 0.440884C4.61764 0.154039 5.10202 0 5.59863 0C6.09524 0 6.57962 0.154039 6.98501 0.440884C7.3904 0.727729 7.69683 1.13326 7.86207 1.60157H15.9961V3.20118H7.86207C7.69683 3.66949 7.3904 4.07501 6.98501 4.36186C6.57962 4.6487 6.09524 4.80274 5.59863 4.80274C5.10202 4.80274 4.61764 4.6487 4.21225 4.36186C3.80686 4.07501 3.50042 3.66949 3.33518 3.20118H0V1.60157H3.33518ZM5.59863 3.20118C5.81075 3.20118 6.01418 3.11691 6.16417 2.96692C6.31417 2.81693 6.39843 2.61349 6.39843 2.40137C6.39843 2.18925 6.31417 1.98582 6.16417 1.83583C6.01418 1.68583 5.81075 1.60157 5.59863 1.60157C5.38651 1.60157 5.18307 1.68583 5.03308 1.83583C4.88309 1.98582 4.79882 2.18925 4.79882 2.40137C4.79882 2.61349 4.88309 2.81693 5.03308 2.96692C5.18307 3.11691 5.38651 3.20118 5.59863 3.20118ZM10.3975 8.7998C10.6096 8.7998 10.813 8.71554 10.963 8.56555C11.113 8.41555 11.1973 8.21212 11.1973 8C11.1973 7.78788 11.113 7.58445 10.963 7.43445C10.813 7.28446 10.6096 7.2002 10.3975 7.2002C10.1853 7.2002 9.9819 7.28446 9.83191 7.43445C9.68191 7.58445 9.59765 7.78788 9.59765 8C9.59765 8.21212 9.68191 8.41555 9.83191 8.56555C9.9819 8.71554 10.1853 8.7998 10.3975 8.7998ZM5.59863 14.3984C5.81075 14.3984 6.01418 14.3142 6.16417 14.1642C6.31417 14.0142 6.39843 13.8107 6.39843 13.5986C6.39843 13.3865 6.31417 13.1831 6.16417 13.0331C6.01418 12.8831 5.81075 12.7988 5.59863 12.7988C5.38651 12.7988 5.18307 12.8831 5.03308 13.0331C4.88309 13.1831 4.79882 13.3865 4.79882 13.5986C4.79882 13.8107 4.88309 14.0142 5.03308 14.1642C5.18307 14.3142 5.38651 14.3984 5.59863 14.3984Z" fill="#CFCBCF"/>
</svg>
