<svg width="22" height="22" viewBox="0 0 22 22" fill="none" xmlns="http://www.w3.org/2000/svg">
<path d="M21.7071 1.70711C22.0976 1.31658 22.0976 0.683418 21.7071 0.292893C21.3166 -0.0976311 20.6834 -0.0976311 20.2929 0.292893L11 9.58578L1.70712 0.292893C1.3166 -0.0976311 0.683432 -0.0976311 0.292908 0.292893C-0.0976168 0.683418 -0.0976168 1.31658 0.292908 1.70711L9.58579 11L0.292893 20.2929C-0.0976309 20.6834 -0.0976312 21.3166 0.292893 21.7071C0.683417 22.0976 1.31658 22.0976 1.70711 21.7071L11 12.4142L20.2929 21.7071C20.6834 22.0976 21.3166 22.0976 21.7071 21.7071C22.0976 21.3166 22.0976 20.6834 21.7071 20.2929L12.4142 11L21.7071 1.70711Z" fill="#0A0A0A"/>
</svg>
