<svg width="19" height="15" viewBox="0 0 19 15" fill="none" xmlns="http://www.w3.org/2000/svg">
<path d="M12.6634 0H7.39062V0.579428H9.29446C9.96494 0.57115 10.4119 0.786367 10.6354 1.15058H7.39062V1.73001H10.8092V1.84589C10.8092 2.47499 10.3954 2.94681 9.36896 2.94681H7.879V3.85733H9.43518H9.5759L10.8424 5.79428H12.0012L10.6106 3.67523C11.4218 3.38551 11.8936 2.77298 11.8936 1.89556C11.8936 1.83761 11.8936 1.78795 11.8853 1.73001H12.6634V1.15058H11.7612C11.6701 0.935363 11.546 0.744979 11.3638 0.579428H12.6634V0Z" fill="white"/>
<path d="M18.7508 7.01227V2.38071C18.7508 2.03627 18.6129 1.70594 18.3675 1.46238C18.122 1.21883 17.7892 1.082 17.4421 1.082C17.095 1.082 16.7621 1.21883 16.5166 1.46238C16.2712 1.70594 16.1333 2.03627 16.1333 2.38071V4.65159C15.868 4.50247 15.5556 4.45892 15.2591 4.52973C14.9627 4.60055 14.7045 4.78045 14.5366 5.03304L13.207 7.01598L12.9243 7.11469C12.2183 7.3654 11.6262 7.85905 11.2558 8.50599C10.8853 9.15294 10.7608 9.91028 10.9051 10.6405L11.0083 11.1481C10.9587 11.1807 10.9178 11.2247 10.8891 11.2764C10.8605 11.3281 10.8449 11.386 10.8438 11.445V13.5615C10.8438 13.6599 10.8831 13.7543 10.9533 13.8239C11.0234 13.8934 11.1185 13.9325 11.2177 13.9325H15.7355C15.8346 13.9325 15.9297 13.8934 15.9999 13.8239C16.07 13.7543 16.1094 13.6599 16.1094 13.5615V11.4494C16.1086 11.3586 16.074 11.2714 16.0122 11.2045L18.685 7.21784C18.7269 7.1573 18.7499 7.08575 18.7508 7.01227ZM15.3645 13.1904H11.5946V11.8205H15.3645V13.1904ZM15.2067 11.0731V11.0783H11.7666L11.6492 10.4965C11.5391 9.94179 11.6333 9.36626 11.9146 8.87461C12.196 8.38296 12.6458 8.00784 13.1823 7.81747L13.5824 7.67647C13.6588 7.64983 13.7244 7.59931 13.7693 7.5325L15.1671 5.4464C15.2357 5.34689 15.3408 5.27787 15.4599 5.25404C15.5791 5.2302 15.7029 5.25342 15.805 5.31876C15.8567 5.35239 15.901 5.39601 15.9353 5.44701C15.9696 5.49801 15.9932 5.55535 16.0047 5.61561C16.0168 5.67531 16.0168 5.73679 16.0049 5.79652C15.993 5.85625 15.9692 5.91305 15.9351 5.96366L15.8925 6.02748L15.4692 6.65828L14.331 8.35551C14.3037 8.39605 14.2848 8.44152 14.2752 8.48933C14.2657 8.53713 14.2657 8.58634 14.2754 8.63413C14.285 8.68192 14.304 8.72736 14.3313 8.76786C14.3586 8.80836 14.3937 8.84312 14.4346 8.87017C14.5171 8.92479 14.6181 8.94464 14.7153 8.92537C14.7635 8.91582 14.8093 8.89696 14.8501 8.86985C14.8909 8.84274 14.9259 8.80793 14.9532 8.76739L16.312 6.74214L16.5588 6.37108L16.8168 5.98592C16.8578 5.92505 16.8796 5.85353 16.8797 5.78036V2.38368C16.8793 2.27408 16.9117 2.16685 16.9728 2.07556C17.034 1.98427 17.121 1.91303 17.2229 1.87087C17.3079 1.83536 17.4004 1.82126 17.4922 1.82983C17.584 1.83841 17.6722 1.86939 17.749 1.92002C17.8258 1.97065 17.8887 2.03934 17.9323 2.11999C17.9758 2.20063 17.9985 2.29071 17.9985 2.38219V6.90021L15.2067 11.0731Z" fill="white" stroke="#0D223C" stroke-width="0.15"/>
<path d="M8.82004 10.6582C8.96428 9.928 8.83986 9.17066 8.46936 8.52371C8.09886 7.87677 7.50686 7.38312 6.80084 7.13241L6.51815 7.03371L5.19445 5.05076C5.0262 4.79757 4.76711 4.61746 4.46984 4.54702C4.17257 4.47658 3.85942 4.5211 3.59405 4.67154V2.40066C3.59405 2.23011 3.56019 2.06123 3.49442 1.90366C3.42865 1.74609 3.33225 1.60293 3.21072 1.48233C3.0892 1.36173 2.94492 1.26607 2.78614 1.20081C2.62735 1.13554 2.45717 1.10195 2.2853 1.10195C2.11344 1.10195 1.94325 1.13554 1.78447 1.20081C1.62569 1.26607 1.48141 1.36173 1.35988 1.48233C1.23836 1.60293 1.14196 1.74609 1.07618 1.90366C1.01041 2.06123 0.976562 2.23011 0.976562 2.40066V7.03148C0.97662 7.10465 0.998476 7.17617 1.03938 7.23705L3.71221 11.2237C3.65037 11.2906 3.61573 11.3778 3.61499 11.4686V13.577C3.61499 13.6754 3.65438 13.7698 3.72451 13.8393C3.79463 13.9089 3.88974 13.948 3.98891 13.948H8.50744C8.60661 13.948 8.70172 13.9089 8.77184 13.8393C8.84197 13.7698 8.88136 13.6754 8.88136 13.577V11.4649C8.88021 11.4059 8.86464 11.3481 8.83598 11.2963C8.80732 11.2446 8.76643 11.2006 8.71684 11.168L8.82004 10.6582ZM1.72516 6.91497V2.39769C1.72492 2.30596 1.7476 2.21559 1.79116 2.13468C1.83472 2.05377 1.8978 1.98484 1.97478 1.93404C2.05175 1.88324 2.14021 1.85216 2.23224 1.84358C2.32428 1.83501 2.41702 1.8492 2.50218 1.88488C2.60426 1.92714 2.69143 1.99849 2.75266 2.08989C2.81389 2.1813 2.84644 2.28867 2.84619 2.39843V5.79511C2.84625 5.86828 2.86811 5.9398 2.90901 6.00068L4.77341 8.78065C4.80066 8.8212 4.8357 8.85601 4.87651 8.88312C4.91732 8.91023 4.96312 8.92909 5.01128 8.93863C5.05944 8.94818 5.10902 8.94822 5.15719 8.93875C5.20537 8.92928 5.25119 8.91048 5.29205 8.88344C5.3329 8.85639 5.36799 8.82163 5.3953 8.78113C5.42262 8.74063 5.44163 8.69519 5.45125 8.64739C5.46087 8.5996 5.4609 8.5504 5.45136 8.5026C5.44181 8.45479 5.42288 8.40932 5.39562 8.36878L4.25664 6.67526L3.79073 5.98064C3.75589 5.92975 3.73166 5.87247 3.71945 5.81215C3.70724 5.75184 3.7073 5.68971 3.71964 5.62942C3.73197 5.56913 3.75632 5.5119 3.79126 5.46108C3.8262 5.41026 3.87103 5.36689 3.9231 5.33351C4.02629 5.26623 4.15183 5.24147 4.2731 5.26449C4.33366 5.27607 4.39129 5.29949 4.44265 5.33338C4.494 5.36727 4.53805 5.41096 4.57224 5.4619L5.97072 7.54799C6.01569 7.6148 6.0813 7.66533 6.15768 7.69196L6.55853 7.83297C7.09489 8.02347 7.54455 8.39865 7.82575 8.89029C8.10695 9.38192 8.20103 9.95738 8.09088 10.512L7.97347 11.0938H4.53335V11.0886L1.72516 6.91497ZM8.13351 13.2059H4.36359V11.836H8.13351V13.2059Z" fill="white" stroke="#0D223C" stroke-width="0.15"/>
</svg>
