<svg width="19" height="16" viewBox="0 0 19 16" fill="none" xmlns="http://www.w3.org/2000/svg">
<path d="M17.5492 5.05333e-05H7.35848C7.07858 5.05333e-05 6.81015 0.110387 6.61223 0.306788C6.41431 0.503189 6.30312 0.769566 6.30312 1.04732V4.98126H1.05536C0.775628 4.9818 0.507512 5.09231 0.309713 5.2886C0.111913 5.48488 0.000547955 5.75094 0 6.02853V12.6722C0.000547955 12.9498 0.111913 13.2158 0.309713 13.4121C0.507512 13.6084 0.775628 13.7189 1.05536 13.7195H3.06863L3.01886 15.3531C3.0168 15.4165 3.03185 15.4794 3.06248 15.5351C3.0931 15.5908 3.13817 15.6374 3.19303 15.67C3.24983 15.6976 3.31224 15.7119 3.37549 15.7119C3.43874 15.7119 3.50115 15.6976 3.55795 15.67L7.11175 13.7112H11.329C11.4676 13.7112 11.6049 13.6841 11.7329 13.6315C11.8609 13.5789 11.9773 13.5017 12.0753 13.4045C12.1733 13.3072 12.251 13.1918 12.3041 13.0647C12.3571 12.9377 12.3844 12.8015 12.3844 12.664V9.53862H12.994L15.8055 11.5056C15.8617 11.5388 15.9249 11.5583 15.9902 11.5626C16.0554 11.5669 16.1207 11.5558 16.1808 11.5303C16.2423 11.5022 16.2945 11.4572 16.3312 11.4007C16.3679 11.3443 16.3876 11.2786 16.3881 11.2114V9.53862H17.5596C17.8395 9.53862 18.1079 9.42829 18.3058 9.23188C18.5038 9.03548 18.615 8.76911 18.615 8.49135V1.04732C18.615 0.908919 18.5873 0.771891 18.5336 0.644156C18.48 0.51642 18.4013 0.400511 18.3022 0.303127C18.2031 0.205744 18.0855 0.128818 17.9563 0.0767969C17.827 0.0247758 17.6887 -0.00130899 17.5492 5.05333e-05ZM11.6587 12.6722C11.6587 12.759 11.624 12.8422 11.5621 12.9035C11.5003 12.9649 11.4165 12.9993 11.329 12.9993H7.00808C6.94646 12.9997 6.88589 13.0152 6.83184 13.0446L3.75699 14.74L3.79846 13.3697C3.79953 13.3211 3.7905 13.2729 3.77195 13.2279C3.7534 13.1829 3.72573 13.1423 3.69064 13.1084C3.6567 13.0737 3.61608 13.0462 3.57119 13.0275C3.52631 13.0088 3.47809 12.9992 3.4294 12.9993H1.05536C0.967925 12.9993 0.884072 12.9649 0.822247 12.9035C0.760422 12.8422 0.725689 12.759 0.725689 12.6722V6.02853C0.726232 5.94193 0.76114 5.85903 0.822848 5.7978C0.884555 5.73656 0.968093 5.70192 1.05536 5.70138H6.30312V8.49135C6.30312 8.76911 6.41431 9.03548 6.61223 9.23188C6.81015 9.42829 7.07858 9.53862 7.35848 9.53862H11.6587V12.6722ZM17.8789 8.49135C17.8789 8.57812 17.8442 8.66133 17.7823 8.72268C17.7205 8.78403 17.6367 8.8185 17.5492 8.8185H16.0149C15.9187 8.8185 15.8264 8.85643 15.7583 8.92396C15.6903 8.99148 15.6521 9.08307 15.6521 9.17856V10.5159L13.3195 8.88434C13.2588 8.84185 13.1864 8.81887 13.1122 8.8185H7.35848C7.27105 8.8185 7.1872 8.78403 7.12537 8.72268C7.06355 8.66133 7.02881 8.57812 7.02881 8.49135V1.04732C7.02771 1.00367 7.03541 0.960243 7.05149 0.919597C7.06756 0.878952 7.09166 0.84191 7.12239 0.810655C7.15311 0.7794 7.18983 0.754564 7.23038 0.737611C7.27093 0.720659 7.31448 0.711932 7.35848 0.711946H17.5492C17.6367 0.711946 17.7205 0.746412 17.7823 0.807763C17.8442 0.869115 17.8789 0.952325 17.8789 1.03909V8.49135Z" fill="white"/>
<path d="M9.65889 4.07989C9.51003 4.07989 9.36452 4.12369 9.24075 4.20576C9.11698 4.28783 9.02051 4.40447 8.96354 4.54094C8.90658 4.67742 8.89167 4.82759 8.92071 4.97247C8.94975 5.11735 9.02143 5.25043 9.12669 5.35488C9.23195 5.45933 9.36606 5.53046 9.51206 5.55928C9.65806 5.5881 9.80939 5.57331 9.94692 5.51678C10.0844 5.46025 10.202 5.36452 10.2847 5.2417C10.3674 5.11888 10.4115 4.97448 10.4115 4.82676C10.4115 4.72868 10.3921 4.63156 10.3542 4.54094C10.3164 4.45033 10.261 4.36799 10.1911 4.29864C10.1212 4.22929 10.0382 4.17427 9.94692 4.13674C9.8556 4.09921 9.75773 4.07989 9.65889 4.07989Z" fill="white"/>
<path d="M12.661 4.07989C12.512 4.07948 12.3663 4.12294 12.2423 4.20476C12.1182 4.28658 12.0214 4.40308 11.9641 4.53952C11.9069 4.67596 11.8917 4.82619 11.9205 4.97121C11.9493 5.11622 12.0208 5.24949 12.126 5.35415C12.2311 5.45881 12.3652 5.53014 12.5113 5.55913C12.6574 5.58812 12.8088 5.57345 12.9464 5.51698C13.0841 5.46051 13.2018 5.36478 13.2845 5.24192C13.3673 5.11905 13.4115 4.97457 13.4115 4.82676C13.4118 4.72878 13.3926 4.63171 13.355 4.5411C13.3174 4.4505 13.2622 4.36815 13.1924 4.29877C13.1227 4.22939 13.0399 4.17434 12.9487 4.13678C12.8575 4.09922 12.7597 4.07989 12.661 4.07989Z" fill="white"/>
<path d="M15.661 4.07989C15.512 4.07948 15.3663 4.12294 15.2423 4.20476C15.1182 4.28658 15.0214 4.40308 14.9641 4.53952C14.9069 4.67596 14.8917 4.82619 14.9205 4.97121C14.9493 5.11622 15.0208 5.24949 15.126 5.35415C15.2311 5.45881 15.3652 5.53014 15.5113 5.55913C15.6574 5.58812 15.8088 5.57345 15.9464 5.51698C16.0841 5.46051 16.2018 5.36478 16.2845 5.24192C16.3673 5.11905 16.4115 4.97457 16.4115 4.82676C16.4118 4.72878 16.3926 4.63171 16.355 4.5411C16.3174 4.4505 16.2622 4.36815 16.1924 4.29877C16.1227 4.22939 16.0399 4.17434 15.9487 4.13678C15.8575 4.09922 15.7597 4.07989 15.661 4.07989Z" fill="white"/>
</svg>
