<svg width="18" height="21" viewBox="0 0 18 21" fill="none" xmlns="http://www.w3.org/2000/svg">
<path d="M1.00992 4.45665C1.00992 4.96683 1.00725 5.46086 1.0047 5.93851C0.986492 9.32471 0.972112 11.9993 1.96649 14.3145C2.48888 15.5308 3.27278 16.6056 4.36314 17.6003C5.49447 18.6325 6.98874 19.6103 8.93126 20.59C8.99638 20.6228 9.06839 20.6399 9.14143 20.6399C9.21448 20.6399 9.28649 20.6228 9.3516 20.59C11.2941 19.6104 12.7884 18.6325 13.9197 17.6003C15.0098 16.6056 15.7938 15.5308 16.3164 14.3145C17.3108 11.9993 17.2964 9.32471 17.2782 5.93851C17.2756 5.46086 17.2729 4.96694 17.2729 4.45665C17.273 4.36425 17.2449 4.27399 17.1925 4.1976C17.1401 4.12122 17.0658 4.06225 16.9792 4.02837L9.31136 1.03201C9.20213 0.989329 9.08066 0.989329 8.97143 1.03201L1.30382 4.02837C1.21716 4.06223 1.14279 4.12119 1.09037 4.19758C1.03796 4.27396 1.00992 4.36424 1.00992 4.45665ZM1.93239 5.94342C1.93443 5.56282 1.93608 5.17176 1.93734 4.77024L9.14128 1.95513L16.3452 4.77024C16.346 5.17206 16.3476 5.56312 16.3502 5.94342C16.3858 12.5763 16.4039 15.9371 9.14128 19.6624C1.8787 15.9371 1.89679 12.5763 1.93239 5.94342ZM5.61082 10.8468C5.53224 10.7546 5.49332 10.6355 5.50244 10.515C5.51155 10.3946 5.56799 10.2826 5.65958 10.2031C5.75116 10.1236 5.87056 10.083 5.99204 10.09C6.11352 10.0971 6.22734 10.1512 6.30898 10.2407L8.28475 12.4814L12.8844 8.16089C12.9738 8.07696 13.093 8.03168 13.216 8.03502C13.339 8.03837 13.4556 8.09005 13.5402 8.17871C13.6248 8.26736 13.6704 8.38573 13.667 8.50777C13.6637 8.62981 13.6116 8.74552 13.5222 8.82945L8.57219 13.479C8.48605 13.5599 8.37194 13.605 8.25332 13.605C8.24609 13.605 8.23879 13.605 8.23152 13.6045C8.16916 13.6016 8.10804 13.5862 8.05181 13.5593C7.99558 13.5324 7.94541 13.4945 7.9043 13.4479L5.61082 10.8468Z" fill="white" stroke="#0D223C" stroke-width="0.15"/>
</svg>
