<svg width="16" height="16" viewBox="0 0 16 16" fill="none" xmlns="http://www.w3.org/2000/svg">
<path d="M8 16C3.6 16 0 12.4 0 8C0 3.6 3.6 0 8 0C12.4 0 16 3.6 16 8C16 12.4 12.4 16 8 16ZM8 1.1C4.2 1.1 1.1 4.2 1.1 8C1.1 11.8 4.2 14.9 8 14.9C11.8 14.9 14.9 11.8 14.9 8C14.9 4.2 11.8 1.1 8 1.1Z" fill="#2E384D"/>
<path d="M8.60078 8.5999H11.1008C11.4008 8.5999 11.7008 8.2999 11.7008 7.9999C11.7008 7.6999 11.4008 7.3999 11.1008 7.3999H8.60078H7.40078H4.90078C4.50078 7.3999 4.30078 7.6999 4.30078 7.9999C4.30078 8.2999 4.60078 8.5999 4.90078 8.5999H7.40078H8.60078Z" fill="#2E384D"/>
</svg>
