<svg width="24" height="24" viewBox="0 0 24 24" fill="none" xmlns="http://www.w3.org/2000/svg">
<path d="M24 12C24 18.6 18.6 24 12 24C5.4 24 0 18.6 0 12C0 5.4 5.4 0 12 0C18.6 0 24 5.4 24 12Z" fill="#00CC83"/>
<path d="M18.2218 7.62362C18.5409 7.94469 18.5409 8.58683 18.2218 8.9079L10.8828 16.2925C10.7233 16.453 10.4042 16.6136 10.2446 16.6136C10.0851 16.6136 9.76601 16.453 9.60646 16.2925L5.7774 12.4397C5.45831 12.1186 5.45831 11.4765 5.7774 11.1554C6.09649 10.8343 6.73467 10.8343 7.05376 11.1554L10.2446 14.3661L16.9455 7.62362C17.2646 7.30254 17.9028 7.30254 18.2218 7.62362Z" fill="white"/>
</svg>
