<svg width="36" height="44" viewBox="0 0 36 44" fill="none" xmlns="http://www.w3.org/2000/svg">
<path d="M4.39062 0C4.9192 1.07715 5.80762 1.90123 6.78197 2.5366C8.0568 3.37474 9.46338 3.96739 10.8882 4.46757C12.0016 4.84608 13.1754 5.12186 14.145 5.83725C15.6724 6.90305 16.5723 8.7302 16.8301 10.5892C16.9311 11.3847 17.0467 12.2071 16.8723 12.9999C16.5598 11.8102 16.1734 10.6098 15.4225 9.63485C14.5169 8.39548 13.1447 7.65521 11.7688 7.12204C10.5559 6.64079 9.26914 6.33743 8.13804 5.65881C6.13206 4.52434 4.63955 2.37492 4.39062 0Z" fill="#008FCB"/>
<path d="M20.838 4.46809C21.8477 4.20638 22.82 3.73593 23.5626 2.96484C23.3005 3.87264 22.7212 4.64599 21.9384 5.1332C20.7187 5.91997 19.134 5.70259 17.9582 6.59319C17.3379 7.02037 17.0156 7.73468 16.6562 8.38357C16.675 7.16096 17.2161 5.8859 18.2394 5.22566C19.0252 4.72386 19.9766 4.73359 20.838 4.46809Z" fill="#008FCB"/>
<path d="M14.7636 3.38887C15.4927 3.18177 16.0978 3.97827 16.1968 4.65906C16.3009 5.06137 16.0832 5.60806 15.6312 5.61238C15.0063 5.58643 14.5527 4.98026 14.4199 4.39032C14.3486 4.03397 14.3876 3.5392 14.7636 3.38887Z" fill="#008FCB"/>
<path d="M19.9106 8.38127C19.9726 8.09901 20.2981 8.09306 20.5137 8.16065C21.2745 8.3883 21.927 8.882 22.5446 9.38001C23.6554 10.3225 24.6438 11.5365 24.9875 13.0138C25.2146 13.8984 25.2375 14.8198 25.2125 15.7293C26.0916 13.9509 25.3271 11.842 24.2069 10.3879C23.808 9.95536 23.5914 9.31296 23.8012 8.736C23.8793 8.49321 24.1554 8.45265 24.3506 8.56296C25.9416 9.36217 26.9597 11.0844 27.2148 12.8678C27.5065 14.4359 27.3008 16.0424 26.9628 17.5803C26.7545 18.519 26.7081 19.5356 26.1869 20.3656C25.8062 21.0324 25.1802 21.4806 24.5761 21.9094C23.1841 22.9071 21.5557 23.6295 20.4824 25.0387C19.9517 25.6935 19.7096 26.5587 19.7752 27.4087C21.9041 27.611 24.0257 27.9922 26.064 28.6719C20.648 27.6986 15.0899 27.897 9.67188 28.7671C10.8092 28.2501 12.0346 27.9803 13.2485 27.7397C14.716 27.5234 16.1924 27.3173 17.675 27.3314C18.0916 27.3433 18.5082 27.3541 18.9248 27.3519C19.147 26.3485 19.251 25.3208 19.2347 24.2914C19.1555 22.5929 18.4447 20.9799 17.3912 19.6951C17.9359 19.2263 18.7108 19.0051 19.0477 18.3146C19.4237 17.5538 19.3815 16.6729 19.357 15.8445C19.3138 15.4017 19.3159 14.9253 19.0857 14.5354C18.754 13.9406 18.2587 13.4653 17.9244 12.8748C17.8497 12.7025 17.8098 12.5161 17.807 12.3271C17.8042 12.1382 17.8387 11.9506 17.9083 11.776C18.0228 11.4651 18.4493 11.3948 18.6728 11.6187C19.2737 12.1794 19.8398 12.7818 20.3876 13.3999C20.6259 13.6539 20.8042 13.9619 20.9084 14.2996C21.15 15.1107 21.2615 15.9586 21.3391 16.8038C21.6406 15.8186 21.4458 14.7328 21.0172 13.8211C20.5652 12.8478 19.8262 12.0534 19.018 11.3878C18.6832 11.1282 18.4342 10.707 18.4858 10.2603C18.5514 9.83099 19.0956 9.6904 19.4305 9.86776C19.9512 10.1354 20.4038 10.5237 20.8542 10.9022C21.6088 11.5911 22.4467 12.333 22.6998 13.3896C22.9925 14.3537 23.0987 15.3633 23.3534 16.3355C23.6583 15.0109 23.4673 13.6154 22.8191 12.4314C22.1749 11.2001 21.0651 10.355 20.0918 9.42652C19.8773 9.1383 19.845 8.72518 19.9106 8.38127Z" fill="#008FCB"/>
<path d="M27.1787 9.62891C27.8078 9.95335 28.3546 10.4216 28.8972 10.8785C31.4104 12.9761 33.3237 15.8258 34.4001 18.9777C35.0938 21.0255 35.3812 23.1987 35.4067 25.3627C35.362 29.7897 33.7111 34.1843 30.824 37.445C28.7045 39.8829 25.9939 41.6857 22.9748 42.6653C19.9558 43.645 16.7389 43.7656 13.6597 43.0145C10.7569 42.3208 8.04218 40.8289 5.83206 38.7579C1.92685 35.1274 -0.329093 29.6162 0.0390866 24.1726C0.194144 20.4366 1.4606 16.8423 3.66412 13.8845C3.99845 13.4416 4.33122 12.988 4.75304 12.6295C4.68169 13.1118 4.30831 13.4368 4.04584 13.8131C2.45335 15.9804 1.37328 18.5386 0.836896 21.2028C0.19167 24.7647 0.53902 28.5314 1.92269 31.8667C2.92203 34.2892 4.42652 36.4987 6.33147 38.2398C8.7918 40.5311 11.8417 42.0285 15.1084 42.549C19.1766 43.2097 23.4667 42.2716 26.9183 39.9372C30.3262 37.6818 32.9024 34.1308 34.0897 30.1245C34.7641 27.8793 34.9886 25.4995 34.8188 23.1571C34.3923 17.9579 31.6869 12.9939 27.562 9.99661C27.4226 9.88778 27.2942 9.76458 27.1787 9.62891Z" fill="#008FCB"/>
<path d="M27.333 18.918C27.4512 18.9893 27.5851 19.0559 27.6455 19.1954C28.8776 21.4865 29.389 24.1896 29.0453 26.7922C28.7229 29.0092 27.823 31.1511 26.3894 32.8365C23.7272 36.1696 19.2028 37.7215 15.1492 36.7077C12.773 36.1431 10.5743 34.7816 9.00682 32.8436C6.48841 29.8738 5.58124 25.5182 6.74046 21.746L6.90658 21.6649C6.89304 22.2722 6.7165 22.8545 6.65349 23.4564C6.3853 26.0038 6.89773 28.6474 8.16891 30.8499C9.58651 33.3457 11.856 35.1969 14.5269 36.0361C16.4979 36.6586 18.5988 36.6864 20.5844 36.1161C23.0789 35.4267 25.302 33.7747 26.7727 31.5772C28.888 28.456 29.414 24.2318 28.0746 20.67C27.896 20.0546 27.4991 19.5366 27.333 18.918Z" fill="#008FCB"/>
<path d="M12.0317 8.28644C12.3114 8.14098 12.6254 8.12422 12.9301 8.16153C13.0462 8.53248 13.0701 8.94938 12.8946 9.30627C12.6863 9.60422 12.3859 9.8097 12.1281 10.0574C11.3011 10.8241 10.4439 11.6158 9.96327 12.6761C9.44251 13.7235 9.26545 14.9499 9.51073 16.1033C9.58819 16.032 9.64559 15.9403 9.67685 15.8378C9.86849 14.9391 9.9992 14.0226 10.2835 13.1477C10.5205 12.4004 11.0824 11.8407 11.6099 11.3048C12.1541 10.7944 12.7238 10.3018 13.3623 9.92163C13.6503 9.74102 14.031 9.77293 14.3137 9.94921C14.5694 10.4299 14.3413 11.0334 13.9393 11.3421C12.9233 12.1706 12.0125 13.218 11.6198 14.519C11.4115 15.2176 11.3324 15.9865 11.5422 16.6949C11.6542 15.8687 11.7505 15.031 12.0177 14.2394C12.2182 13.6311 12.6978 13.1974 13.1113 12.7464C13.4831 12.3766 13.8268 11.9764 14.2221 11.6325C14.4424 11.4162 14.847 11.4552 14.9855 11.7504C15.0707 11.9447 15.1101 12.1573 15.1004 12.3706C15.0907 12.5839 15.0322 12.7917 14.9298 12.9768C14.5512 13.603 13.9976 14.1161 13.7237 14.8088C13.5118 15.8324 13.4472 16.9177 13.7305 17.9348C13.8718 18.4092 14.1838 18.8088 14.6017 19.0503C15.6391 19.6749 16.5692 20.5379 17.1675 21.6259C17.707 22.6571 17.9445 23.8353 17.9757 25.0017C17.9721 25.7874 17.8195 26.5623 17.6716 27.3301C16.1869 27.316 14.7106 27.5242 13.2451 27.7384C13.205 27.2182 13.2222 26.6742 13.0045 26.1913C12.7441 25.5219 12.2906 24.9628 11.7943 24.4696C10.5174 23.2508 8.903 22.504 7.58234 21.3431C7.08605 20.8921 6.60122 20.3697 6.40177 19.7019C6.11743 18.7924 6.01745 17.8364 5.81018 16.9079C5.55345 15.7843 5.53834 14.619 5.60188 13.4726C5.76383 11.4881 6.76005 9.45389 8.54627 8.566C8.59703 8.53422 8.65396 8.51456 8.71294 8.50843C8.77192 8.5023 8.83147 8.50986 8.88729 8.53056C8.94311 8.55126 8.9938 8.58458 9.03569 8.62812C9.07759 8.67166 9.10964 8.72432 9.12953 8.7823C9.22014 9.2403 9.19931 9.77347 8.88217 10.139C8.18382 11.0447 7.57609 12.07 7.38497 13.2304C7.22874 14.0318 7.30894 14.8851 7.66097 15.6205C7.68753 14.6325 7.70003 13.6257 8.0177 12.6815C8.24683 11.8704 8.69469 11.1415 9.22014 10.4997C10.0263 9.60638 10.947 8.78987 12.0317 8.28644Z" fill="#EDA34C"/>
<path d="M17.2024 32.1063C17.3732 31.5921 17.5123 31.0659 17.7117 30.5625C17.9143 31.0638 18.0575 31.585 18.2148 32.1031C18.7235 32.1139 19.2349 32.0922 19.7442 32.1377C19.3896 32.5254 18.9371 32.7898 18.5402 33.1229C18.6928 33.6361 18.8761 34.1395 18.9886 34.6656C18.5439 34.385 18.1413 34.0373 17.7044 33.7431C17.2805 34.0513 16.879 34.3958 16.4322 34.6705C16.5514 34.1454 16.7337 33.6398 16.8863 33.1256C16.4874 32.7887 16.039 32.5146 15.6719 32.1377C16.1812 32.096 16.6926 32.109 17.2024 32.1063Z" fill="#C93636"/>
<path d="M11.7207 31.5068C11.8104 31.2334 11.9169 30.9663 12.0394 30.707C12.1321 30.9698 12.2196 31.2353 12.3066 31.5019C12.6092 31.5089 12.9117 31.5079 13.2143 31.496C12.9737 31.678 12.7345 31.8626 12.4967 32.0497C12.5612 32.3233 12.6274 32.5958 12.6894 32.8721C12.4576 32.7267 12.2321 32.5758 12.003 32.4293C11.7947 32.5839 11.5786 32.7343 11.3609 32.8781C11.413 32.6077 11.465 32.3341 11.5202 32.0616C11.3286 31.8972 11.1448 31.7242 10.9688 31.5425C11.2187 31.5198 11.4697 31.5116 11.7207 31.5068Z" fill="#C93636"/>
<path d="M23.0311 30.707C23.1535 30.9662 23.2615 31.2325 23.3545 31.5046C23.6149 31.5106 23.8794 31.5208 24.1419 31.5403C23.945 31.722 23.7419 31.8961 23.5357 32.0648C23.5998 32.3433 23.6722 32.6196 23.744 32.8959C23.5139 32.7445 23.2889 32.5839 23.0634 32.4255C22.8363 32.5747 22.6124 32.7294 22.3833 32.8743C22.4442 32.6039 22.5129 32.3336 22.5838 32.0675C22.3802 31.901 22.1828 31.7279 21.9922 31.5463C22.2552 31.5187 22.5197 31.503 22.7832 31.4879C22.861 31.2254 22.9436 30.9651 23.0311 30.707Z" fill="#C93636"/>
<path d="M1.88481 22.2143C1.86936 22.1028 1.87218 21.9895 1.89314 21.879C1.91057 21.7676 1.94577 21.6599 1.9973 21.5605C2.03583 21.4808 2.09186 21.4115 2.16087 21.3584C2.22989 21.3052 2.30996 21.2696 2.39464 21.2545C2.48746 21.2348 2.58226 21.2272 2.67689 21.2318C2.78941 21.2383 2.90143 21.2522 3.01226 21.2734L4.89066 21.6168L4.82452 22.0115L2.92738 21.6643C2.84614 21.6497 2.77584 21.6389 2.71595 21.633C2.65481 21.627 2.59326 21.627 2.53212 21.633C2.4781 21.6361 2.42511 21.6497 2.37589 21.673C2.33241 21.6961 2.2949 21.7296 2.26653 21.7709C2.23286 21.8208 2.21076 21.8782 2.20196 21.9385C2.19028 21.998 2.19225 22.0595 2.20768 22.118C2.22103 22.1668 2.2455 22.2115 2.27903 22.2483C2.31783 22.2873 2.36297 22.3188 2.41234 22.3413C2.46768 22.368 2.52519 22.3896 2.5842 22.4057C2.64287 22.4208 2.7123 22.436 2.7925 22.4511L4.69224 22.7956L4.62611 23.186L2.74824 22.8421C2.63695 22.8229 2.527 22.7962 2.41911 22.762C2.32785 22.7329 2.24039 22.6923 2.15873 22.6409C2.08414 22.5969 2.02046 22.5354 1.97273 22.4613C1.925 22.3873 1.89455 22.3027 1.88377 22.2143H1.88481Z" fill="#C93636"/>
<path d="M1.73749 23.2695L3.78774 23.4036L3.76378 23.7978L3.5612 23.7843C3.70459 23.9624 3.7709 24.1407 3.76013 24.3191C3.75819 24.3734 3.74238 24.4262 3.71431 24.4721C3.68873 24.5128 3.65264 24.5453 3.61015 24.5657C3.56697 24.5852 3.52142 24.5985 3.47476 24.6052C3.4245 24.6118 3.37376 24.6134 3.32321 24.61L1.66406 24.5019L1.68802 24.1082L3.23625 24.2099C3.2963 24.2176 3.35726 24.2093 3.41331 24.1855C3.43434 24.1721 3.45149 24.1529 3.46295 24.1302C3.4744 24.1075 3.47974 24.0819 3.4784 24.0563C3.48361 23.9768 3.44664 23.8822 3.36904 23.7724L1.7151 23.6643L1.73749 23.2695Z" fill="#C93636"/>
<path d="M1.67969 25.0728L4.55586 24.9922L4.56628 25.3885L1.6901 25.4718L1.67969 25.0728Z" fill="#C93636"/>
<path d="M1.71875 25.9968L3.76639 25.8195L3.79764 26.2126L1.75052 26.3899L1.71875 25.9968ZM4.06739 25.7919L4.46526 25.7578L4.49702 26.1526L4.09916 26.1872L4.06739 25.7919Z" fill="#C93636"/>
<path d="M1.84659 27.4335C1.83184 27.3576 1.83241 27.2795 1.84828 27.2039C1.86415 27.1283 1.89496 27.057 1.93877 26.9944C2.03517 26.866 2.17258 26.7776 2.32622 26.7451L2.47047 27.0549C2.36792 27.078 2.27197 27.1255 2.1903 27.1939C2.16289 27.2201 2.14244 27.2531 2.13095 27.2899C2.11945 27.3266 2.11729 27.3658 2.12468 27.4037C2.12826 27.4359 2.13832 27.467 2.1542 27.495C2.17008 27.5229 2.19142 27.5471 2.21685 27.5659C2.24239 27.584 2.27132 27.5963 2.30174 27.602C2.33216 27.6077 2.36339 27.6066 2.39339 27.5989C2.49286 27.5762 2.57931 27.5032 2.65378 27.3826L2.89489 26.9744C2.94421 26.8862 3.00801 26.8077 3.0834 26.7424C3.16129 26.6817 3.25367 26.6443 3.35056 26.6342C3.41832 26.6209 3.48799 26.622 3.55532 26.6375C3.62265 26.6531 3.68622 26.6827 3.74217 26.7246C3.84921 26.8171 3.91754 26.9491 3.93277 27.0928C3.94664 27.1626 3.94557 27.2347 3.92965 27.304C3.91372 27.3734 3.88332 27.4382 3.84059 27.494C3.74751 27.6068 3.62154 27.685 3.48179 27.7168L3.34743 27.4686C3.43814 27.445 3.52299 27.4017 3.59636 27.3415C3.62252 27.3186 3.6422 27.2888 3.65329 27.2551C3.66439 27.2215 3.66649 27.1854 3.65937 27.1507C3.65614 27.122 3.64703 27.0944 3.63266 27.0696C3.61828 27.0449 3.59898 27.0237 3.57605 27.0074C3.55344 26.9913 3.52796 26.9802 3.50112 26.9746C3.47427 26.969 3.44662 26.9691 3.41982 26.9749C3.38058 26.9823 3.3434 26.9986 3.31091 27.0227C3.27842 27.0467 3.25142 27.0778 3.23182 27.1139L2.95998 27.5416C2.90312 27.6395 2.83177 27.7274 2.74855 27.8022C2.66479 27.8723 2.56407 27.917 2.45745 27.9315C2.28872 27.9596 2.15193 27.9284 2.04709 27.8379C1.93435 27.7335 1.86291 27.5894 1.84659 27.4335Z" fill="#C93636"/>
<path d="M2.16157 28.9962C2.12408 28.8386 2.13692 28.715 2.20011 28.6252C2.26329 28.5355 2.37387 28.4691 2.53183 28.4262L3.83374 28.0921L3.78167 27.8758L4.02747 27.8125L4.07954 28.0288L4.66071 27.8796L4.75237 28.2624L4.17015 28.4116L4.24983 28.7442L4.00403 28.8075L3.92435 28.4749L2.64953 28.8026C2.58939 28.8122 2.53366 28.8411 2.49017 28.8853C2.4763 28.9096 2.46792 28.9368 2.46567 28.9649C2.46341 28.993 2.46734 29.0212 2.47715 29.0475C2.48784 29.0951 2.50194 29.1417 2.51933 29.1871L2.24333 29.2546C2.21135 29.1702 2.18405 29.0839 2.16157 28.9962Z" fill="#C93636"/>
<path d="M2.52654 30.2539C2.49018 30.1544 2.47336 30.0483 2.47706 29.9419C2.48211 29.855 2.51345 29.7719 2.56663 29.7046C2.62499 29.6325 2.6956 29.5722 2.77494 29.5266C2.87988 29.4675 2.98967 29.4181 3.10302 29.379L3.54775 29.2168C3.66109 29.174 3.7781 29.1425 3.89719 29.1227C3.98715 29.1078 4.079 29.1106 4.16798 29.1308C4.24879 29.1504 4.32165 29.1958 4.37629 29.2606C4.44108 29.3399 4.48995 29.4318 4.52002 29.531C4.54221 29.5949 4.55707 29.6613 4.56428 29.7289C4.56962 29.783 4.56752 29.8376 4.55803 29.8911C4.54825 29.9403 4.52836 29.9868 4.49971 30.0274C4.4708 30.069 4.43724 30.107 4.39972 30.1404C4.35524 30.1783 4.30706 30.2113 4.25599 30.2388C4.19844 30.2711 4.13915 30.3 4.07841 30.3253C4.01852 30.3513 3.94718 30.3794 3.86542 30.408L3.70919 30.4621L3.44464 29.6689L3.18426 29.7619L3.16291 29.7694C3.11083 29.7889 3.06813 29.804 3.04209 29.8138C3.01605 29.8235 2.9822 29.8387 2.94158 29.8576C2.9101 29.8712 2.88064 29.8894 2.8541 29.9117C2.83497 29.9303 2.81754 29.9508 2.80202 29.9728C2.78478 29.9955 2.77509 30.0233 2.77442 30.0522C2.77421 30.0856 2.77985 30.1188 2.79108 30.1501C2.79854 30.1838 2.81518 30.2145 2.83901 30.2385C2.86284 30.2626 2.89285 30.279 2.92544 30.2858C3.01241 30.2921 3.09959 30.2773 3.18009 30.2426L3.29831 30.2004L3.41965 30.5649L3.34413 30.5919C2.92544 30.7451 2.65291 30.6325 2.52654 30.2539ZM3.63941 29.6051L3.7821 30.0322L3.95811 29.9684C4.01019 29.95 4.05237 29.9327 4.08622 29.9176C4.11947 29.9022 4.1515 29.8841 4.18204 29.8635C4.20781 29.8475 4.23013 29.8261 4.24766 29.8008C4.26166 29.7779 4.2699 29.7517 4.27161 29.7246C4.27371 29.6909 4.26874 29.6571 4.25703 29.6256C4.22735 29.5375 4.17736 29.4899 4.10653 29.4834C4.03571 29.4769 3.91541 29.5045 3.74512 29.5656L3.63941 29.6051Z" fill="#C93636"/>
<path d="M3.11854 31.7787C3.04146 31.6118 3.0439 31.4609 3.12583 31.3261C3.20776 31.1913 3.3843 31.0573 3.65544 30.9243L4.01633 30.748C4.10851 30.7026 4.19183 30.6658 4.26734 30.6399C4.34327 30.6116 4.42154 30.5906 4.50116 30.5772C4.57151 30.564 4.64346 30.5629 4.71416 30.5739C4.77778 30.5855 4.83769 30.6132 4.88861 30.6545C4.94662 30.7018 4.99272 30.7631 5.02297 30.8329C5.04896 30.8948 5.06238 30.9615 5.06238 31.0289C5.06238 31.0964 5.04896 31.1631 5.02297 31.225L5.88639 30.8021L6.04835 31.1595L3.44454 32.433L3.28258 32.0761L3.40183 32.0171C3.34091 32.0008 3.28409 31.971 3.23521 31.9299C3.18633 31.8888 3.14654 31.8372 3.11854 31.7787ZM3.431 31.7354C3.46904 31.8122 3.52739 31.8762 3.5992 31.9198L4.81727 31.325C4.83744 31.2367 4.83034 31.144 4.79696 31.06C4.73342 30.9198 4.57233 30.913 4.31369 31.0395L3.78824 31.2969C3.72939 31.3255 3.68044 31.351 3.64086 31.3742C3.60065 31.3972 3.56202 31.423 3.52525 31.4515C3.49322 31.4745 3.46521 31.5031 3.44245 31.5359C3.42455 31.5636 3.41363 31.5956 3.41069 31.6289C3.40802 31.6656 3.41486 31.7024 3.43047 31.7354H3.431Z" fill="#C93636"/>
<path d="M4.56723 34.3797C4.42836 34.1739 4.38392 33.9727 4.43391 33.7763C4.48391 33.5798 4.6108 33.3981 4.81459 33.2312L5.09893 33.4772C4.77605 33.7436 4.68509 33.9819 4.82605 34.1921C4.8481 34.2305 4.87775 34.2636 4.91303 34.2892C4.9483 34.3148 4.98841 34.3324 5.03071 34.3408C5.12216 34.3487 5.21302 34.3197 5.28432 34.2597C5.33128 34.2265 5.37352 34.1866 5.40982 34.1413C5.44377 34.0971 5.47035 34.0474 5.48846 33.9942C5.50563 33.9457 5.51938 33.896 5.5296 33.8455C5.53793 33.8022 5.5473 33.7422 5.55772 33.6659L5.63323 33.0003C5.64295 32.875 5.68103 32.7539 5.74438 32.6467C5.80773 32.5396 5.89454 32.4495 5.99776 32.3839C6.16858 32.2602 6.33626 32.2153 6.50082 32.2492C6.66538 32.2831 6.80859 32.3884 6.93045 32.565C7.06481 32.7586 7.1148 32.9406 7.08043 33.1111C7.04606 33.2817 6.93063 33.4524 6.73412 33.6232L6.46177 33.3913C6.5102 33.3502 6.55186 33.3118 6.58727 33.2755C6.62349 33.2386 6.65611 33.198 6.68465 33.1544C6.71175 33.1156 6.73186 33.072 6.74402 33.0257C6.75416 32.982 6.75416 32.9364 6.74402 32.8927C6.73134 32.8401 6.7075 32.7912 6.67424 32.7494C6.54092 32.5785 6.39407 32.5509 6.23367 32.6667C6.17255 32.708 6.12155 32.7635 6.08473 32.8289C6.0512 32.9014 6.02988 32.9793 6.02172 33.0592L5.94881 33.7276C5.93105 33.8913 5.88833 34.051 5.82227 34.2007C5.75553 34.3452 5.65288 34.4686 5.52491 34.5582C5.35132 34.6829 5.17774 34.7279 5.00415 34.6933C4.91488 34.6739 4.83024 34.6362 4.75521 34.5823C4.68018 34.5285 4.61627 34.4596 4.56723 34.3797Z" fill="#C93636"/>
<path d="M5.63313 35.7861C5.56325 35.7079 5.50908 35.616 5.47378 35.5158C5.44716 35.4331 5.44625 35.3438 5.47117 35.2605C5.49922 35.1709 5.54281 35.0873 5.5998 35.014C5.67579 34.9183 5.75979 34.8298 5.85081 34.7496L6.20441 34.4251C6.29413 34.3413 6.39105 34.2662 6.49395 34.2007C6.57208 34.152 6.65826 34.1188 6.74808 34.1028C6.83034 34.0892 6.91465 34.1026 6.9892 34.1412C7.07821 34.1896 7.157 34.256 7.22094 34.3364C7.26455 34.387 7.3023 34.4427 7.33342 34.5024C7.35793 34.5507 7.37548 34.6024 7.3855 34.656C7.39424 34.7055 7.39282 34.7564 7.38133 34.8052C7.36978 34.8552 7.35228 34.9036 7.32926 34.9491C7.30224 35.0018 7.26957 35.0511 7.23187 35.0962C7.19006 35.1486 7.14574 35.1987 7.09908 35.2465C7.05273 35.293 6.99493 35.3465 6.93139 35.406L6.80485 35.5185L6.27367 34.8907L6.06536 35.0783L6.0487 35.0935C6.00495 35.1329 5.97319 35.1627 5.95236 35.1821C5.93153 35.2016 5.90653 35.2281 5.87528 35.2616C5.85102 35.2864 5.83032 35.3146 5.81383 35.3454C5.80217 35.3702 5.79293 35.3961 5.78623 35.4228C5.77878 35.4506 5.78006 35.4801 5.78988 35.5071C5.80219 35.5381 5.81983 35.5665 5.84196 35.5909C5.86091 35.6193 5.88738 35.6413 5.91816 35.6544C5.94894 35.6675 5.98271 35.671 6.01537 35.6645C6.09844 35.6365 6.17406 35.5887 6.23617 35.525L6.32991 35.4395L6.57467 35.7299L6.51478 35.784C6.18184 36.0872 5.88796 36.0879 5.63313 35.7861ZM6.42886 34.749L6.71528 35.0897L6.85536 34.9626C6.89668 34.9266 6.93 34.8941 6.95535 34.8653C6.9809 34.8383 7.00424 34.8092 7.02513 34.7782C7.0429 34.7531 7.05581 34.7246 7.06315 34.6944C7.06791 34.6677 7.06593 34.6401 7.05742 34.6144C7.04685 34.5826 7.0302 34.5533 7.00846 34.5284C6.9491 34.4581 6.88557 34.4338 6.81787 34.4554C6.74965 34.4776 6.6481 34.55 6.51218 34.6717L6.42886 34.749Z" fill="#C93636"/>
<path d="M6.78506 37.0198C6.72009 36.9597 6.66564 36.8883 6.62414 36.8089C6.59098 36.7468 6.5726 36.6773 6.57051 36.6063C6.56843 36.5353 6.58271 36.4648 6.61216 36.4006C6.64244 36.3277 6.68071 36.2585 6.72621 36.1946C6.781 36.1177 6.8403 36.0444 6.90379 35.9751L7.22771 35.6133C7.30571 35.524 7.3909 35.4417 7.48236 35.3673C7.55313 35.3098 7.63319 35.2659 7.71879 35.2375C7.79969 35.2111 7.88667 35.2126 7.96667 35.2418C8.06318 35.2801 8.15084 35.3391 8.22393 35.4149C8.29445 35.4789 8.35367 35.5552 8.3989 35.6404C8.4337 35.7064 8.44806 35.7819 8.44004 35.8567C8.43026 35.9321 8.40562 36.0046 8.36766 36.0697C8.31816 36.1532 8.26001 36.2308 8.19424 36.3011L8.1104 36.3942L7.85939 36.1514L7.94428 36.0562C8.03628 35.9535 8.08974 35.8709 8.10467 35.8085C8.11082 35.7752 8.10778 35.7407 8.0959 35.709C8.08402 35.6773 8.06377 35.6498 8.03749 35.6296C7.96806 35.5639 7.90192 35.5459 7.83908 35.5755C7.77624 35.605 7.68303 35.6876 7.55943 35.8231L7.11835 36.3152C7.00013 36.4466 6.93191 36.5472 6.91368 36.6159C6.90549 36.6518 6.90759 36.6894 6.91971 36.724C6.93183 36.7587 6.95345 36.789 6.9819 36.8111C7.00502 36.8351 7.03293 36.8535 7.06367 36.8651C7.08821 36.8741 7.11444 36.8768 7.14022 36.8732C7.16823 36.8676 7.19482 36.856 7.21833 36.8392C7.24575 36.8207 7.27154 36.7997 7.2954 36.7765C7.31884 36.7543 7.34748 36.7251 7.37925 36.6889L7.49277 36.5623L7.74378 36.8051L7.64692 36.9133C7.58467 36.9861 7.5148 37.0516 7.43861 37.1085C7.37709 37.1536 7.30752 37.1856 7.23395 37.2026C7.16112 37.2182 7.08544 37.2106 7.0168 37.1809C6.93051 37.1428 6.8519 37.0881 6.78506 37.0198Z" fill="#C93636"/>
<path d="M7.82159 37.9391C7.77911 37.9072 7.74537 37.8644 7.72369 37.8148C7.7046 37.77 7.69862 37.7203 7.7065 37.672C7.71431 37.6238 7.72869 37.577 7.7492 37.5331C7.77128 37.4856 7.79798 37.4407 7.82888 37.399L8.82823 36.0195L9.13183 36.2569L8.19914 37.5439C8.15975 37.5916 8.13301 37.6492 8.12155 37.711C8.12087 37.7366 8.12684 37.762 8.13884 37.7845C8.15084 37.8069 8.16843 37.8256 8.18977 37.8386C8.2507 37.8862 8.346 37.9067 8.47827 37.8991L9.4771 36.5246L9.78071 36.762L8.54545 38.4664L8.23924 38.2311L8.3611 38.063C8.13926 38.0882 7.95942 38.0469 7.82159 37.9391Z" fill="#C93636"/>
<path d="M9.00781 38.7784L10.0837 36.9609L10.4071 37.1675L10.254 37.4271C10.3495 37.3694 10.4563 37.3348 10.5665 37.3259C10.6506 37.3235 10.7336 37.3464 10.8055 37.3919C10.8235 37.4031 10.8409 37.4153 10.8576 37.4287L10.6378 37.8002C10.5948 37.7413 10.5419 37.6911 10.4816 37.652C10.4324 37.6189 10.3756 37.6002 10.317 37.5979C10.2465 37.6008 10.1776 37.621 10.116 37.6569L9.33173 38.986L9.00781 38.7784Z" fill="#C93636"/>
<path d="M10.1094 39.4496L11.0629 37.5602L11.3998 37.7436L10.4458 39.6329L10.1094 39.4496ZM11.203 37.2807L11.3878 36.9141L11.7237 37.0957L11.5389 37.4629L11.203 37.2807Z" fill="#C93636"/>
<path d="M11.3926 40.1268C11.2499 40.0608 11.164 39.9748 11.1322 39.8677C11.1004 39.7607 11.1197 39.6298 11.1843 39.4741L11.7259 38.2017L11.529 38.1114L11.6332 37.8708L11.8274 37.9595L12.0696 37.3906L12.4174 37.5528L12.1768 38.1217L12.4784 38.2601L12.3742 38.5008L12.0727 38.3623L11.5415 39.6098C11.5119 39.6649 11.4999 39.7283 11.5071 39.791C11.5176 39.8337 11.5556 39.8704 11.6222 39.8991C11.665 39.9196 11.7092 39.9366 11.7545 39.9499L11.641 40.2171C11.5566 40.1919 11.4737 40.1617 11.3926 40.1268Z" fill="#C93636"/>
<path d="M12.0312 40.3615L12.7348 38.3575L13.092 38.4927L12.3885 40.4967L12.0312 40.3615ZM12.839 38.0612L12.9754 37.6719L13.3342 37.8076L13.1978 38.1969L12.839 38.0612Z" fill="#C93636"/>
<path d="M13.4405 40.8705C13.3408 40.8456 13.2469 40.8 13.1645 40.7364C13.0982 40.6831 13.05 40.6092 13.027 40.5255C13.0025 40.4347 12.9946 40.3399 13.0036 40.246C13.0159 40.1226 13.0389 40.0006 13.0724 39.8815L13.1973 39.4105C13.2278 39.2893 13.2689 39.1713 13.3202 39.058C13.3598 38.9726 13.4141 38.8956 13.4806 38.8309C13.5417 38.7716 13.6191 38.7338 13.702 38.7227C13.8019 38.7123 13.9028 38.7225 13.9988 38.753C14.0622 38.7704 14.1233 38.7954 14.1811 38.8276C14.2272 38.8539 14.2696 38.8867 14.3071 38.9249C14.3406 38.9614 14.3662 39.0049 14.3821 39.0526C14.399 39.1009 14.4102 39.1512 14.4154 39.2023C14.4205 39.2618 14.4194 39.3216 14.4123 39.3808C14.4052 39.4482 14.3946 39.5152 14.3805 39.5814C14.367 39.6474 14.3482 39.7242 14.3253 39.8107L14.2795 39.9772L13.4983 39.7539L13.4254 40.0286C13.4254 40.0335 13.4223 40.0405 13.4197 40.0513C13.4041 40.1092 13.3931 40.1519 13.3864 40.18C13.3796 40.2081 13.3718 40.2449 13.364 40.2881C13.3565 40.3236 13.354 40.3601 13.3567 40.3963C13.3604 40.4235 13.3667 40.4504 13.3754 40.4763C13.3836 40.504 13.4003 40.5281 13.4228 40.545C13.4492 40.5641 13.4786 40.578 13.5098 40.5861C13.5407 40.599 13.5746 40.6022 13.6072 40.5954C13.6399 40.5886 13.6699 40.572 13.6936 40.5477C13.7478 40.4768 13.7856 40.3939 13.804 40.3054L13.8368 40.1805L14.1967 40.2854L14.1753 40.3655C14.0576 40.8085 13.8127 40.9769 13.4405 40.8705ZM13.5546 39.55L13.9743 39.6701L14.0238 39.4841C14.0384 39.43 14.0488 39.3835 14.0561 39.3456C14.063 39.3086 14.0668 39.2709 14.0675 39.2332C14.0694 39.2021 14.0652 39.171 14.055 39.1418C14.0448 39.1168 14.0287 39.0948 14.0082 39.078C13.9825 39.0576 13.9531 39.0429 13.9217 39.0347C13.8348 39.0098 13.7686 39.0255 13.7233 39.0828C13.678 39.1402 13.6317 39.2586 13.5837 39.4392L13.5546 39.55Z" fill="#C93636"/>
<path d="M14.9643 41.2218C14.8904 41.212 14.8193 41.1863 14.7555 41.1465C14.6917 41.1067 14.6365 41.0535 14.5935 40.9904C14.507 40.8542 14.4701 40.6905 14.4894 40.5286L14.8185 40.4864C14.8067 40.5941 14.8194 40.7032 14.8555 40.8049C14.8706 40.8402 14.8941 40.8709 14.924 40.894C14.9538 40.9172 14.9889 40.9319 15.0258 40.9369C15.0558 40.9434 15.0869 40.9432 15.1169 40.9364C15.1469 40.9295 15.1751 40.9161 15.1998 40.897C15.2244 40.8779 15.2448 40.8536 15.2597 40.8257C15.2746 40.7978 15.2836 40.767 15.2861 40.7352C15.2976 40.6295 15.2591 40.5214 15.1705 40.4107L14.8763 40.0419C14.8118 39.965 14.7607 39.877 14.7253 39.7818C14.6945 39.6859 14.6897 39.583 14.7112 39.4844C14.7209 39.4136 14.7443 39.3454 14.7801 39.2843C14.8159 39.2231 14.8634 39.1701 14.9195 39.1286C15.0392 39.0527 15.1828 39.0284 15.3195 39.061C15.3877 39.0696 15.4533 39.0938 15.5115 39.1318C15.5697 39.1699 15.619 39.2209 15.6559 39.2811C15.7286 39.4088 15.7591 39.5577 15.7429 39.7051L15.4736 39.7591C15.4815 39.6628 15.4702 39.5658 15.4403 39.4742C15.4274 39.4409 15.4061 39.4118 15.3786 39.3901C15.3511 39.3684 15.3184 39.3548 15.2841 39.3509C15.2571 39.3451 15.2292 39.3452 15.2023 39.3514C15.1754 39.3575 15.15 39.3695 15.1278 39.3866C15.1059 39.4036 15.0875 39.4251 15.0737 39.4497C15.0599 39.4744 15.051 39.5016 15.0476 39.5299C15.0413 39.571 15.0439 39.6131 15.0553 39.653C15.0666 39.693 15.0864 39.7298 15.1132 39.7608L15.4158 40.1658C15.4864 40.2534 15.5435 40.3519 15.5851 40.4578C15.6221 40.5626 15.6304 40.676 15.609 40.7854C15.5804 40.9606 15.5075 41.085 15.3913 41.1591C15.2611 41.2334 15.1093 41.2557 14.9643 41.2218Z" fill="#C93636"/>
<path d="M16.9453 41.4462L16.9667 38.4586L17.3588 38.4537L17.8936 40.8714L18.379 38.4418L18.7711 38.4375L18.8576 41.4224L18.5331 41.4262L18.4784 39.2594L18.0139 41.4359H17.7884L17.2807 39.2729L17.2734 41.444L16.9453 41.4462Z" fill="#C93636"/>
<path d="M19.8516 41.3197C19.7953 41.3289 19.7377 41.3242 19.6834 41.3061C19.6291 41.288 19.5797 41.2569 19.5391 41.2153C19.4481 41.1314 19.3894 41.0162 19.3735 40.8909C19.3588 40.7982 19.3618 40.7034 19.3824 40.6119C19.398 40.5384 19.4223 40.4672 19.4548 40.3999C19.4971 40.3282 19.5525 40.2658 19.6178 40.216C19.6775 40.1639 19.7399 40.1152 19.8047 40.07C19.8495 40.0398 19.9286 39.9906 20.0417 39.9213C20.0462 39.9176 20.051 39.9143 20.0562 39.9116L20.0349 39.7602C20.027 39.6602 19.9991 39.563 19.9531 39.4747C19.9182 39.4206 19.8594 39.4006 19.7771 39.413C19.6355 39.4347 19.5787 39.545 19.6063 39.7451L19.6214 39.85L19.247 39.8927C19.2438 39.8711 19.2412 39.8446 19.2392 39.8132C19.2208 39.6012 19.2555 39.439 19.3433 39.3265C19.4313 39.2146 19.5709 39.1448 19.7599 39.1156C19.949 39.0864 20.1047 39.12 20.2073 39.2178C20.3098 39.3157 20.377 39.4769 20.4083 39.7002L20.5468 40.6643C20.5708 40.8336 20.6056 41.0011 20.6509 41.1656L20.3078 41.2197C20.2716 41.1199 20.2403 41.0183 20.214 40.9152C20.1995 41.0122 20.1605 41.1034 20.101 41.1796C20.0385 41.2582 19.9491 41.3084 19.8516 41.3197ZM19.9531 40.9585C20.0049 40.9494 20.0521 40.9219 20.0864 40.8806C20.1224 40.8421 20.1519 40.7977 20.1739 40.7492L20.0901 40.1544C20.006 40.218 19.9267 40.2884 19.8531 40.3648C19.8081 40.4102 19.774 40.4659 19.7535 40.5275C19.7329 40.5891 19.7266 40.6549 19.7349 40.7195C19.7406 40.7901 19.7665 40.8574 19.8094 40.9125C19.8277 40.9321 19.8505 40.9466 19.8756 40.9546C19.9007 40.9627 19.9274 40.964 19.9531 40.9585Z" fill="#C93636"/>
<path d="M21.1333 41.0588L20.6484 38.9883L21.0182 38.8953L21.0869 39.1911C21.115 39.079 21.1674 38.9751 21.24 38.8872C21.2976 38.8235 21.3718 38.7786 21.4535 38.758C21.4737 38.7525 21.4943 38.7486 21.515 38.7461L21.6139 39.1695C21.5434 39.1599 21.4718 39.1636 21.4025 39.1803C21.3452 39.1935 21.2923 39.2225 21.2494 39.2641C21.2021 39.3185 21.1676 39.3834 21.1484 39.4539L21.5025 40.968L21.1333 41.0588Z" fill="#C93636"/>
<path d="M22.3827 40.7186L21.4453 37.8938L21.8046 37.7656L22.3634 39.4522L22.6024 38.3934L22.9779 38.2572L22.7821 39.2116L23.6315 40.28L23.2737 40.4077L22.5686 39.503L22.4874 39.8237L22.742 40.592L22.3827 40.7186Z" fill="#C93636"/>
<path d="M24.5056 39.9012C24.4142 39.9494 24.3142 39.978 24.2119 39.985C24.1281 39.9891 24.0452 39.9652 23.9755 39.9169C23.9001 39.8641 23.8349 39.7971 23.7833 39.7195C23.7155 39.6171 23.6569 39.5085 23.6083 39.395L23.4094 38.9527C23.3566 38.8399 23.3141 38.7222 23.2823 38.6012C23.2589 38.5098 23.2522 38.4146 23.2625 38.3206C23.2734 38.2346 23.3098 38.1543 23.3667 38.0908C23.4363 38.0156 23.5197 37.9557 23.612 37.9145C23.6708 37.8848 23.7329 37.8626 23.7968 37.8485C23.8481 37.837 23.9008 37.8334 23.9531 37.8377C24.0012 37.843 24.0477 37.8589 24.0895 37.8842C24.1326 37.9094 24.1725 37.9401 24.2082 37.9756C24.2491 38.0175 24.2856 38.0637 24.3171 38.1135C24.3538 38.1699 24.3877 38.2282 24.4186 38.2882C24.4493 38.3476 24.4827 38.4179 24.5197 38.4996L24.5884 38.6575L23.8557 39.0138L23.9718 39.2718L23.9817 39.2928L24.0338 39.4129C24.0463 39.4388 24.0635 39.4718 24.0859 39.5124C24.1018 39.5435 24.122 39.5721 24.1457 39.5973C24.1655 39.6156 24.187 39.6319 24.2098 39.6459C24.2335 39.6612 24.2612 39.6682 24.289 39.666C24.321 39.6625 24.3522 39.6532 24.3811 39.6384C24.4126 39.6273 24.4403 39.607 24.4609 39.5799C24.4815 39.5529 24.4941 39.5202 24.4973 39.4859C24.494 39.3953 24.4708 39.3067 24.4296 39.2269L24.3775 39.1095L24.7139 38.9473L24.7477 39.0225C24.9363 39.4388 24.8555 39.7317 24.5056 39.9012ZM23.7682 38.8197L24.1624 38.6283L24.0838 38.4536C24.0609 38.4028 24.0406 38.3601 24.0223 38.3265C24.0038 38.2931 23.9829 38.2611 23.9598 38.2308C23.9418 38.2061 23.9191 38.1853 23.8932 38.1697C23.8696 38.1576 23.8434 38.1518 23.8171 38.153C23.7849 38.1547 23.7534 38.1632 23.7244 38.1778C23.6427 38.2179 23.6021 38.2746 23.6036 38.3482C23.6052 38.4217 23.6437 38.5434 23.7198 38.7132L23.7682 38.8197Z" fill="#C93636"/>
<path d="M25.9362 39.1127C25.8014 39.1938 25.6831 39.2159 25.5826 39.1781C25.4821 39.1402 25.3894 39.0489 25.3051 38.9039L24.6343 37.7013L24.4479 37.8138L24.3208 37.5867L24.5041 37.4742L24.2031 36.9367L24.5317 36.7383L24.8322 37.2758L25.1176 37.1033L25.2447 37.3309L24.9598 37.5029L25.6207 38.6822C25.6465 38.7392 25.6887 38.7864 25.7415 38.8174C25.7678 38.8246 25.7953 38.8254 25.8219 38.8197C25.8486 38.8141 25.8736 38.8022 25.8951 38.785C25.9358 38.7606 25.9749 38.7335 26.0123 38.7039L26.1539 38.9558C26.0843 39.0125 26.0117 39.0648 25.9362 39.1127Z" fill="#C93636"/>
<path d="M27.632 37.881L25.3984 35.9343L25.6536 35.7061L27.2357 37.1255L26.1869 35.2416L26.4025 35.0486L28.0475 36.4123L26.9201 34.5738L27.169 34.3516L28.698 36.933L28.4767 37.1304L26.7831 35.7245L27.8648 37.6738L27.632 37.881Z" fill="#C93636"/>
<path d="M29.7726 35.789C29.7073 35.871 29.6267 35.9385 29.5357 35.9874C29.4603 36.0258 29.3752 36.0385 29.2925 36.0237C29.2032 36.0062 29.1178 35.9719 29.0404 35.9225C28.939 35.8572 28.8435 35.7824 28.7551 35.6992L28.402 35.3748C28.3103 35.293 28.2263 35.2025 28.151 35.1044C28.0942 35.0304 28.0513 34.9461 28.0244 34.8557C28.0006 34.7726 28.0024 34.684 28.0296 34.6021C28.0646 34.5045 28.1177 34.415 28.1859 34.3387C28.2283 34.2871 28.2765 34.2409 28.3296 34.2014C28.3726 34.1695 28.4198 34.1442 28.4697 34.1262C28.5159 34.111 28.5647 34.106 28.6129 34.1116C28.6619 34.1173 28.7102 34.1289 28.7566 34.1462C28.8103 34.1676 28.8616 34.1948 28.9097 34.2273C28.9652 34.2636 29.0188 34.3029 29.0701 34.3452C29.1212 34.3867 29.1791 34.4373 29.2441 34.4972L29.368 34.6129L28.8342 35.2455L29.0425 35.4337L29.0592 35.4494L29.156 35.537C29.1774 35.5554 29.2081 35.5786 29.242 35.6057C29.2688 35.628 29.2987 35.6462 29.3305 35.6597C29.3556 35.6682 29.3814 35.6742 29.4076 35.6776C29.4351 35.6821 29.4632 35.6772 29.4878 35.6635C29.5158 35.6471 29.5407 35.6254 29.5612 35.5997C29.586 35.5766 29.6037 35.5465 29.6122 35.513C29.6206 35.4796 29.6193 35.4443 29.6086 35.4115C29.5713 35.3297 29.516 35.258 29.4472 35.2023L29.3534 35.1168L29.5987 34.8275L29.6586 34.8816C29.9901 35.1852 30.0282 35.4876 29.7726 35.789ZM28.679 35.1039L28.9665 34.7648L28.8274 34.6372C28.7868 34.5999 28.7514 34.5696 28.7233 34.5464C28.6943 34.5236 28.6635 34.5035 28.6311 34.4863C28.6049 34.4711 28.5761 34.4613 28.5462 34.4577C28.52 34.4564 28.4938 34.4619 28.4702 34.4739C28.4413 34.4889 28.4156 34.5099 28.3947 34.5355C28.3353 34.6058 28.3204 34.6745 28.3499 34.7416C28.3791 34.8086 28.4614 34.9038 28.5973 35.0276L28.679 35.1039Z" fill="#C93636"/>
<path d="M30.445 34.8947L28.1406 33.1059L28.3692 32.7891L30.6736 34.5773L30.445 34.8947Z" fill="#C93636"/>
<path d="M31.0281 34.0458L29.5445 33.0384L29.4091 33.2547L29.1721 33.0924L29.3075 32.8761L29.219 32.8221C29.1492 32.775 29.0919 32.7323 29.0466 32.6945C29.0016 32.6571 28.9609 32.6144 28.9253 32.5674C28.893 32.5267 28.8699 32.479 28.8576 32.4279C28.8479 32.3762 28.8499 32.3229 28.8633 32.2721C28.8808 32.2058 28.9087 32.1429 28.9461 32.0861C28.9925 32.0154 29.0427 31.9475 29.0966 31.8828L29.3351 32.045C29.2747 32.1186 29.244 32.1564 29.2435 32.1575C29.2258 32.1788 29.2144 32.2049 29.2107 32.2327C29.207 32.2605 29.2112 32.2889 29.2226 32.3143C29.261 32.3727 29.3115 32.4213 29.3705 32.4565L29.5143 32.5539L29.6861 32.2808L29.9231 32.443L29.7512 32.7161L31.2349 33.7219L31.0281 34.0458Z" fill="#C93636"/>
<path d="M31.7931 32.809C31.7668 32.8615 31.7291 32.9068 31.6829 32.9413C31.6366 32.9759 31.5833 32.9987 31.527 33.008C31.4081 33.0339 31.2841 33.0147 31.1776 32.9539C31.0972 32.9109 31.0256 32.8521 30.9667 32.7809C30.9189 32.7242 30.8782 32.6615 30.8454 32.5944C30.815 32.5165 30.7992 32.4334 30.799 32.3494C30.7943 32.2413 30.7938 32.1612 30.799 32.1061C30.8042 32.0509 30.811 31.9552 30.824 31.82C30.824 31.8117 30.824 31.8058 30.824 31.8022L30.6938 31.7303C30.6116 31.6774 30.5198 31.6428 30.4241 31.6286C30.3621 31.6286 30.3111 31.6632 30.272 31.7395C30.2026 31.8707 30.2546 31.9839 30.4282 32.079L30.5183 32.1293L30.3288 32.4673C30.3107 32.4572 30.2888 32.4437 30.2631 32.4267C30.0875 32.3164 29.9833 32.1911 29.9507 32.0509C29.9181 31.9107 29.946 31.7526 30.0345 31.5767C30.1276 31.3964 30.2425 31.2919 30.3793 31.2631C30.5161 31.2342 30.6804 31.2735 30.8724 31.3809L31.701 31.8395C31.8467 31.9194 31.9974 31.9893 32.152 32.0487L31.989 32.3667C31.8765 32.3328 31.7793 32.2988 31.6973 32.2645C31.764 32.3339 31.8117 32.4205 31.8353 32.5154C31.8588 32.6152 31.8437 32.7207 31.7931 32.809ZM31.5734 32.51C31.597 32.4596 31.6029 32.4022 31.5901 32.3478C31.5806 32.2949 31.563 32.244 31.538 32.1969L31.025 31.9125C31.0247 32.0211 31.0323 32.1295 31.0479 32.2369C31.0564 32.3015 31.0793 32.3631 31.1149 32.4168C31.1504 32.4706 31.1976 32.5149 31.2526 32.5462C31.3106 32.5837 31.378 32.6025 31.4463 32.6003C31.4732 32.5979 31.499 32.5884 31.5213 32.5725C31.5436 32.5567 31.5615 32.5352 31.5734 32.51Z" fill="#C93636"/>
<path d="M32.3482 31.5798L30.4531 30.7551L30.6005 30.3907L30.8708 30.5086C30.8005 30.4187 30.7509 30.3132 30.726 30.2003C30.7108 30.1144 30.7199 30.0258 30.752 29.9451C30.76 29.9252 30.7691 29.9057 30.7791 29.8867L31.1666 30.0554C31.1172 30.1087 31.0775 30.1708 31.0494 30.2387C31.0255 30.2943 31.0167 30.3557 31.0239 30.4161C31.0377 30.488 31.0675 30.5556 31.1109 30.6135L32.4966 31.2169L32.3482 31.5798Z" fill="#C93636"/>
<path d="M33.0278 29.7975C33 29.8999 32.9527 29.9955 32.8888 30.0787C32.8349 30.1455 32.7619 30.1928 32.6805 30.2139C32.5922 30.236 32.5007 30.2407 32.4107 30.2279C32.2924 30.2106 32.1758 30.1824 32.0623 30.1436L31.6119 29.9949C31.4962 29.9594 31.3841 29.9125 31.277 29.8548C31.1962 29.8109 31.1239 29.7517 31.064 29.6802C31.0103 29.6142 30.9776 29.5326 30.9703 29.4466C30.9638 29.3424 30.9776 29.238 31.0109 29.1395C31.0294 29.0744 31.0555 29.0119 31.0885 28.9534C31.1156 28.9063 31.1489 28.8633 31.1875 28.8258C31.2236 28.7924 31.2662 28.7675 31.3124 28.7528C31.3596 28.7373 31.4084 28.7275 31.4577 28.7236C31.5152 28.7208 31.5728 28.7241 31.6296 28.7334C31.6947 28.7436 31.7587 28.7572 31.8218 28.7734C31.8848 28.7896 31.9577 28.8123 32.0405 28.8393L32.1967 28.8934L31.9535 29.6942L32.2139 29.7797L32.2352 29.7872L32.3581 29.8262C32.3847 29.8343 32.4196 29.8435 32.4623 29.8532C32.4955 29.8619 32.5296 29.8657 32.5638 29.8646C32.5901 29.8613 32.616 29.8559 32.6414 29.8484C32.6683 29.8406 32.692 29.8241 32.7091 29.8013C32.7282 29.7745 32.7426 29.7445 32.7518 29.7126C32.7653 29.6809 32.7696 29.6459 32.7642 29.6117C32.7588 29.5776 32.7441 29.5457 32.7216 29.5201C32.6554 29.4614 32.577 29.4194 32.4925 29.3974L32.3732 29.3584L32.4847 28.9902L32.5607 29.0151C32.9881 29.1532 33.1438 29.414 33.0278 29.7975ZM31.7608 29.631L31.8915 29.1984L31.7145 29.1405C31.6624 29.1232 31.6187 29.1108 31.5827 29.1021C31.5473 29.0932 31.5113 29.0876 31.4749 29.0854C31.445 29.0823 31.4149 29.0858 31.3864 29.0957C31.3618 29.1049 31.3401 29.1208 31.3234 29.1416C31.3024 29.1673 31.2869 29.1973 31.2781 29.2298C31.251 29.3195 31.264 29.3887 31.3171 29.4374C31.3702 29.4861 31.4829 29.5385 31.6551 29.5947L31.7608 29.631Z" fill="#C93636"/>
<path d="M33.5314 27.4334L30.9796 27.043L30.9026 27.5837L30.6094 27.5388L30.8177 26.0664L31.1114 26.1113L31.0374 26.6309L33.5892 27.0219L33.5314 27.4334Z" fill="#C93636"/>
<path d="M33.6831 26.1361L31.6328 26.002L31.6568 25.6078L31.9494 25.6273C31.8547 25.5661 31.7748 25.4832 31.7156 25.385C31.674 25.3092 31.6544 25.2224 31.6594 25.1352C31.6605 25.1134 31.6629 25.0918 31.6667 25.0703L32.0859 25.0979C32.056 25.1661 32.0383 25.2394 32.0338 25.3142C32.0291 25.3747 32.0401 25.4353 32.0656 25.4899C32.1011 25.5532 32.1505 25.607 32.2098 25.6467L33.7081 25.7452L33.6831 26.1361Z" fill="#C93636"/>
<path d="M33.7674 24.5238C33.7707 24.578 33.7599 24.6321 33.7362 24.6806C33.7144 24.724 33.6809 24.7599 33.6398 24.7839C33.5987 24.8082 33.5546 24.8264 33.5086 24.8379C33.4592 24.8498 33.4088 24.8563 33.3581 24.8574L31.6969 24.9153L31.6838 24.5211L33.2347 24.467C33.2952 24.469 33.3552 24.4545 33.4086 24.4248C33.428 24.409 33.4431 24.3882 33.4522 24.3645C33.4613 24.3408 33.4643 24.3149 33.4607 24.2896C33.4583 24.2103 33.413 24.1202 33.3248 24.0193L31.6687 24.0755L31.6562 23.6813L33.7091 23.6094L33.7221 24.0041L33.519 24.0111C33.6791 24.1741 33.7619 24.345 33.7674 24.5238Z" fill="#C93636"/>
<path d="M33.6164 22.5421C33.6295 22.6182 33.6272 22.6964 33.6097 22.7716C33.5922 22.8468 33.5599 22.9174 33.5148 22.979C33.415 23.1047 33.2755 23.1895 33.1211 23.2185L32.9842 22.9049C33.0865 22.8844 33.1829 22.8392 33.2654 22.773C33.2935 22.7476 33.3147 22.715 33.3271 22.6785C33.3394 22.642 33.3424 22.6028 33.3357 22.5648C33.333 22.5327 33.3238 22.5017 33.3086 22.4737C33.2934 22.4457 33.2725 22.4214 33.2475 22.4024C33.2225 22.3835 33.1938 22.3704 33.1635 22.364C33.1331 22.3576 33.1018 22.358 33.0716 22.3652C32.9717 22.3858 32.884 22.4563 32.8087 22.5767L32.5576 22.979C32.5065 23.066 32.4409 23.1429 32.3639 23.2061C32.2849 23.2653 32.1918 23.3011 32.0947 23.3094C32.0266 23.321 31.957 23.3181 31.89 23.3009C31.8231 23.2837 31.7602 23.2526 31.7052 23.2093C31.5991 23.1128 31.5339 22.9769 31.5234 22.8308C31.5109 22.7606 31.5135 22.6885 31.5311 22.6195C31.5486 22.5505 31.5807 22.4863 31.625 22.4318C31.7207 22.3211 31.8488 22.2463 31.9895 22.2187L32.1186 22.4691C32.0275 22.4901 31.9416 22.5308 31.8666 22.5886C31.84 22.6109 31.8198 22.6403 31.808 22.6736C31.7961 22.7069 31.7932 22.7429 31.7994 22.7778C31.8021 22.8065 31.8107 22.8343 31.8245 22.8592C31.8383 22.8842 31.8571 22.9059 31.8796 22.9227C31.9019 22.9396 31.9272 22.9516 31.9541 22.9579C31.9809 22.9642 32.0088 22.9648 32.0358 22.9595C32.0755 22.9532 32.1134 22.9379 32.1467 22.9146C32.18 22.8914 32.208 22.8607 32.2285 22.8249L32.5103 22.4036C32.5694 22.3075 32.6427 22.2216 32.7274 22.149C32.8129 22.081 32.9146 22.0387 33.0216 22.0267C33.1914 22.003 33.3273 22.0381 33.4299 22.1306C33.5392 22.2389 33.6056 22.3856 33.6164 22.5421Z" fill="#C93636"/>
<path d="M33.3392 20.9721C33.374 21.1307 33.3583 21.254 33.2924 21.342C33.2273 21.4301 33.1148 21.4939 32.9565 21.5329L31.6488 21.834L31.6952 22.0503L31.4478 22.1071L31.4015 21.8908L30.8167 22.0255L30.7344 21.6399L31.3187 21.5053L31.2473 21.1711L31.4947 21.117L31.566 21.4512L32.8487 21.1554C32.9089 21.1475 32.9652 21.1201 33.0096 21.077C33.0241 21.0531 33.0331 21.026 33.036 20.9979C33.0389 20.9698 33.0356 20.9414 33.0263 20.9148C33.0168 20.867 33.0039 20.82 32.9877 20.7742L33.2616 20.7109C33.2929 20.7962 33.3188 20.8834 33.3392 20.9721Z" fill="#C93636"/>
</svg>
