<svg width="91" height="74" viewBox="0 0 91 74" fill="none" xmlns="http://www.w3.org/2000/svg">
<path d="M72.0541 17.02C70.1148 7.104 61.3131 0 51.0197 0C44.0082 0 37.7426 3.256 33.5656 8.88C32.0738 8.584 30.4328 8.288 28.7918 8.288C19.3934 8.288 10.8902 14.8 8.3541 23.976C3.43115 25.308 0 29.748 0 34.928C0 41.144 5.07213 46.324 11.4869 46.324C12.6803 46.324 13.8738 46.176 14.918 45.732C18.4984 48.84 22.9738 50.616 27.7475 50.912C27.8967 50.912 28.0459 50.912 28.1951 50.912H29.0902C30.1344 50.912 31.0295 50.024 31.0295 48.988C31.0295 47.952 30.1344 47.064 29.0902 47.064H28.4934C24.018 46.916 19.841 45.288 16.559 42.18L15.6639 41.44L14.4705 41.884C13.4262 42.328 12.382 42.476 11.3377 42.476C7.01148 42.476 3.58033 39.072 3.58033 34.78C3.58033 31.08 6.26557 27.824 9.99508 27.232L11.1885 27.084L11.4869 25.9C13.4262 17.76 20.7361 11.988 28.941 11.988C30.582 11.988 32.2229 12.284 34.0131 12.728L35.3557 13.172L36.1016 11.988C39.3836 6.808 45.0525 3.7 51.1688 3.7C60.1197 3.7 67.7279 10.36 68.7721 19.24L69.0705 21.312L71.159 20.868C79.8115 18.944 87.5689 25.604 87.5689 33.892C87.5689 41.292 81.6016 47.212 74.1426 47.212H68.1754C68.0262 47.212 68.0262 47.212 67.8771 47.212H66.982C65.9377 47.212 65.0426 48.1 65.0426 49.136C65.0426 50.172 65.9377 51.06 66.982 51.06H67.1311H67.7279H73.8443C83.2426 51.06 91 43.364 91 34.04C91 23.976 82.3475 15.836 72.0541 17.02Z" fill="#2E384D"/>
<path d="M50.4221 45.2878C48.3335 43.3638 46.6926 44.2518 45.9467 44.8438L45.4991 45.2878L34.7581 55.9438C34.4598 56.5358 34.3106 57.1278 35.0565 57.8678C36.5483 59.3478 38.4876 57.4238 38.4876 57.4238L45.9467 49.8758V66.0078V71.9278V72.0758C45.9467 73.1118 46.8417 73.8518 47.7368 73.8518C48.7811 73.8518 49.527 72.9638 49.527 72.0758V71.9278V66.0078V49.7278L57.8811 57.8678C57.8811 57.8678 59.8204 59.0518 60.8647 57.8678C62.0581 56.6838 60.4171 55.2038 60.4171 55.2038L50.4221 45.2878Z" fill="#2E384D"/>
</svg>

