<svg width="14" height="14" viewBox="0 0 14 14" fill="none" xmlns="http://www.w3.org/2000/svg">
<path fill-rule="evenodd" clip-rule="evenodd" d="M4.84736 6.73136C4.85936 6.74203 4.8707 6.75203 4.88203 6.76403C5.60136 7.50136 5.99803 8.47803 5.99803 9.5147V12.1707L7.4887 11.3587C7.60603 11.2947 7.6787 11.1694 7.6787 11.0314V9.5067C7.6787 8.47403 8.07136 7.5007 8.78403 6.76736L12.0087 3.33736C12.2174 3.11536 12.332 2.82403 12.332 2.5167V1.8927C12.332 1.58336 12.088 1.33203 11.7894 1.33203H1.87536C1.57603 1.33203 1.33203 1.58336 1.33203 1.8927V2.5167C1.33203 2.82403 1.4467 3.11536 1.65536 3.3367L4.84736 6.73136ZM5.7627 13.3327C5.62803 13.3327 5.4947 13.2967 5.37336 13.2247C5.1387 13.0847 4.99803 12.8374 4.99803 12.5627V9.5147C4.99803 8.75803 4.71603 8.04536 4.20203 7.49936C4.1867 7.4867 4.17136 7.4727 4.15803 7.45803L0.927365 4.0227C0.543365 3.6147 0.332031 3.07936 0.332031 2.5167V1.8927C0.332031 1.03203 1.0247 0.332031 1.87536 0.332031H11.7894C12.6394 0.332031 13.332 1.03203 13.332 1.8927V2.5167C13.332 3.0787 13.1207 3.61336 12.738 4.02203L9.5067 7.45803C8.97136 8.01003 8.6787 8.73603 8.6787 9.5067V11.0314C8.6787 11.5354 8.40603 11.9967 7.96736 12.2367L6.1267 13.2394C6.01203 13.3014 5.88736 13.3327 5.7627 13.3327Z" fill="#721B65"/>
</svg>
