<svg width="16" height="16" viewBox="0 0 16 16" fill="none" xmlns="http://www.w3.org/2000/svg">
<path d="M8 16C3.56364 16 0 12.4364 0 8C0 3.56364 3.56364 0 8 0C12.4364 0 16 3.56364 16 8C16 12.4364 12.4364 16 8 16ZM8 1.45455C4.36364 1.45455 1.45455 4.36364 1.45455 8C1.45455 11.6364 4.36364 14.5455 8 14.5455C11.6364 14.5455 14.5455 11.6364 14.5455 8C14.5455 4.36364 11.6364 1.45455 8 1.45455Z" fill="#2E384D"/>
<path d="M7.9929 12.2352C7.55653 12.2352 7.26562 11.8716 7.26562 11.508V7.28977C7.26562 6.85341 7.55653 6.5625 7.9929 6.5625C8.42926 6.5625 8.72017 6.85341 8.72017 7.28977V11.508C8.72017 11.8716 8.42926 12.2352 7.9929 12.2352Z" fill="#2E384D"/>
<path d="M7.99233 4C7.48324 4 7.04688 4.36364 7.04688 4.94545C7.04688 5.52727 7.48324 5.81818 7.99233 5.81818C8.50142 5.81818 8.93778 5.45455 8.93778 4.87273C8.93778 4.29091 8.50142 4 7.99233 4Z" fill="#2E384D"/>
</svg>
