<svg width="14" height="14" viewBox="0 0 14 14" fill="none" xmlns="http://www.w3.org/2000/svg">
<path d="M6.71237 8.4077C6.49281 8.4077 6.31184 8.22708 6.33841 8.00914C6.35776 7.85036 6.38779 7.71481 6.42849 7.60246C6.49988 7.40543 6.64551 7.18699 6.86538 6.94713L7.42648 6.36889C7.66634 6.09762 7.78627 5.80636 7.78627 5.49512C7.78627 5.19529 7.70775 4.96114 7.55069 4.79267C7.39364 4.62134 7.16521 4.53568 6.86538 4.53568C6.57412 4.53568 6.33997 4.61277 6.16293 4.76697C6.08359 4.83607 6.02203 4.91579 5.97825 5.00611C5.88339 5.2018 5.72109 5.38804 5.50362 5.38804C5.28426 5.38804 5.10066 5.2061 5.1536 4.99322C5.22443 4.7084 5.37241 4.46736 5.59755 4.27012C5.92307 3.98457 6.34568 3.8418 6.86538 3.8418C7.40506 3.8418 7.82482 3.98743 8.12464 4.27868C8.42732 4.56709 8.57866 4.964 8.57866 5.46942C8.57866 5.96913 8.34737 6.46169 7.88478 6.94713L7.41791 7.40971C7.2772 7.56585 7.18398 7.76818 7.13826 8.0167C7.09899 8.23009 6.92935 8.4077 6.71237 8.4077ZM6.27858 9.76548C6.27858 9.63698 6.31713 9.5299 6.39423 9.44424C6.47418 9.35572 6.59125 9.31146 6.74545 9.31146C6.89965 9.31146 7.01672 9.35572 7.09667 9.44424C7.17663 9.5299 7.2166 9.63698 7.2166 9.76548C7.2166 9.89397 7.17663 10.0011 7.09667 10.0867C7.01672 10.1695 6.89965 10.2109 6.74545 10.2109C6.59125 10.2109 6.47418 10.1695 6.39423 10.0867C6.31713 10.0011 6.27858 9.89397 6.27858 9.76548Z" fill="#2E384D"/>
<circle cx="7" cy="7" r="6" stroke="#2E384D"/>
</svg>
