<svg width="300" height="200" viewBox="0 0 300 200" fill="none" xmlns="http://www.w3.org/2000/svg">
<path d="M242.147 37.8748C242.425 39.7543 242.14 41.674 241.326 43.391C240.512 45.1079 239.207 46.5448 237.577 47.5197C235.946 48.4945 234.062 48.9636 232.165 48.8674C230.267 48.7712 228.441 48.1142 226.917 46.9794C225.393 45.8446 224.24 44.2832 223.604 42.4928C222.969 40.7024 222.878 38.7636 223.345 36.9218C223.812 35.08 224.814 33.4181 226.226 32.1466C227.638 30.875 229.395 30.051 231.275 29.7788C233.79 29.4147 236.347 30.0625 238.384 31.5801C240.422 33.0976 241.776 35.3612 242.147 37.8748Z" fill="#F5F5F5"/>
<path d="M239.893 38.2026C240.105 39.6347 239.887 41.0974 239.268 42.4058C238.648 43.7141 237.654 44.8092 236.412 45.5524C235.169 46.2957 233.734 46.6536 232.289 46.5809C230.843 46.5082 229.451 46.0083 228.289 45.1442C227.128 44.2802 226.249 43.091 225.763 41.7271C225.278 40.3632 225.208 38.886 225.563 37.4824C225.917 36.0788 226.68 34.8119 227.755 33.8421C228.83 32.8724 230.168 32.2433 231.601 32.0346C233.518 31.753 235.469 32.2447 237.024 33.4014C238.579 34.5581 239.611 36.2851 239.893 38.2026Z" fill="#B6B9C1"/>
<path d="M239.856 37.9726C239.721 37.7042 239.614 37.4228 239.536 37.1326C239.079 35.852 238.282 34.7197 237.232 33.8566C236.743 33.4606 236.206 33.1298 235.632 32.8726C235.324 32.7295 235.006 32.6105 234.68 32.5166C234.34 32.4179 233.994 32.3444 233.644 32.2966C233.282 32.2489 232.917 32.2275 232.552 32.2326C232.175 32.2443 231.8 32.2817 231.428 32.3446C231.057 32.4118 230.692 32.5068 230.336 32.6286C229.988 32.7459 229.651 32.8918 229.328 33.0646C229.015 33.229 228.715 33.4176 228.432 33.6286C228.158 33.8268 227.9 34.0461 227.66 34.2846C227.211 34.7257 226.821 35.2231 226.5 35.7646C226.22 36.2384 225.994 36.7414 225.824 37.2646C225.582 38.0293 225.459 38.8266 225.46 39.6286C225.491 39.9277 225.491 40.2294 225.46 40.5286C225.327 40.251 225.256 39.9481 225.252 39.6406C225.164 38.806 225.232 37.9625 225.452 37.1526C225.783 35.9357 226.419 34.8234 227.3 33.9206C227.548 33.661 227.816 33.4203 228.1 33.2006C228.717 32.7282 229.406 32.357 230.14 32.1006C230.524 31.9708 230.917 31.8679 231.316 31.7926C231.713 31.7252 232.114 31.6865 232.516 31.6766C232.911 31.6707 233.305 31.6974 233.696 31.7566C234.074 31.8089 234.448 31.8932 234.812 32.0086C235.161 32.1147 235.5 32.2485 235.828 32.4086C236.435 32.6972 237 33.0672 237.508 33.5086C237.954 33.8911 238.354 34.3248 238.7 34.8006C239.186 35.4854 239.542 36.2543 239.748 37.0686C239.848 37.3588 239.884 37.667 239.856 37.9726Z" fill="#E0E0E0"/>
<path d="M234.1 43.4487L234.3 44.7087L233.176 44.8887L232.98 43.6647C231.976 43.7874 230.958 43.6267 230.04 43.2007L230.44 41.7327C231.156 42.079 231.95 42.2333 232.744 42.1807L232.444 40.3047C231.148 40.2007 229.692 40.0087 229.432 38.4007C229.244 37.2007 229.944 36.0527 231.684 35.5647L231.488 34.3167L232.608 34.1367L232.804 35.3647C233.618 35.278 234.441 35.3877 235.204 35.6847L234.864 37.1527C234.286 36.933 233.67 36.8284 233.052 36.8447L233.356 38.7567C234.652 38.8487 236.088 39.0447 236.34 40.6287C236.52 41.8087 235.828 42.9567 234.1 43.4487ZM232.18 38.6487L231.924 37.0487C231.352 37.2767 231.168 37.6407 231.228 38.0127C231.288 38.3847 231.66 38.5887 232.18 38.6647V38.6487ZM234.544 41.0487C234.484 40.6487 234.124 40.4927 233.612 40.4007L233.86 41.9527C234.4 41.7527 234.604 41.4247 234.544 41.0647V41.0487Z" fill="#E0E0E0"/>
<path d="M212.243 39.5715C212.725 42.8329 212.228 46.1639 210.816 49.1429C209.404 52.1219 207.139 54.6149 204.31 56.3064C201.48 57.9979 198.212 58.8119 194.919 58.6452C191.627 58.4785 188.458 57.3387 185.813 55.3701C183.169 53.4015 181.168 50.6925 180.064 47.5861C178.96 44.4798 178.802 41.1156 179.611 37.9196C180.419 34.7236 182.158 31.8394 184.607 29.632C187.056 27.4247 190.104 25.9934 193.367 25.5195C197.733 24.8799 202.175 26.001 205.715 28.6363C209.255 31.2715 211.603 35.205 212.243 39.5715Z" fill="#F5F5F5"/>
<path d="M208.318 40.1411C208.685 42.6258 208.307 45.1635 207.231 47.433C206.155 49.7026 204.43 51.6021 202.275 52.8912C200.119 54.1803 197.63 54.8011 195.121 54.675C192.613 54.549 190.198 53.6817 188.183 52.183C186.167 50.6843 184.642 48.6214 183.799 46.2554C182.956 43.8894 182.834 41.3266 183.448 38.8912C184.062 36.4558 185.384 34.2572 187.248 32.5736C189.112 30.89 191.433 29.7971 193.918 29.4331C195.567 29.1894 197.248 29.2732 198.864 29.6797C200.481 30.0861 202.001 30.8072 203.338 31.8018C204.676 32.7963 205.804 34.0447 206.659 35.4757C207.513 36.9066 208.077 38.492 208.318 40.1411Z" fill="#B6B9C1"/>
<path d="M208.26 39.7497C208.184 39.7497 208.052 39.2216 207.708 38.2856C207.233 36.9766 206.558 35.7488 205.708 34.6456C205.118 33.8946 204.448 33.2105 203.708 32.6056C202.861 31.9182 201.929 31.3416 200.936 30.8896C200.4 30.6451 199.847 30.4406 199.28 30.2776C198.693 30.0978 198.092 29.9641 197.484 29.8776C196.855 29.7918 196.22 29.7544 195.584 29.7656C194.273 29.7867 192.974 30.0176 191.736 30.4496C191.138 30.6618 190.557 30.9213 190 31.2256C189.458 31.5113 188.938 31.8376 188.444 32.2016C187.97 32.551 187.521 32.9333 187.1 33.3456C186.326 34.1125 185.654 34.9755 185.1 35.9136C184.617 36.7367 184.224 37.6098 183.928 38.5176C183.508 39.8465 183.295 41.232 183.296 42.6256C183.296 43.6177 183.36 44.1737 183.296 44.1857C183.232 44.1977 183.052 43.6617 182.932 42.6457C182.779 41.1952 182.897 39.7289 183.28 38.3216C183.849 36.2113 184.951 34.2828 186.48 32.7216C186.919 32.2651 187.394 31.8451 187.9 31.4656C188.418 31.0699 188.965 30.7142 189.536 30.4016C190.139 30.0728 190.768 29.7945 191.416 29.5696C192.083 29.3391 192.766 29.1586 193.46 29.0296C194.156 28.9112 194.859 28.8457 195.564 28.8336C196.249 28.8228 196.934 28.8669 197.612 28.9656C198.267 29.0599 198.913 29.2057 199.544 29.4016C200.149 29.5868 200.738 29.8168 201.308 30.0896C202.363 30.5927 203.345 31.2358 204.228 32.0016C204.989 32.6686 205.669 33.4231 206.252 34.2496C207.098 35.4371 207.716 36.7719 208.072 38.1856C208.312 39.1736 208.316 39.7417 208.26 39.7497Z" fill="#E0E0E0"/>
<path d="M198.265 49.2573L198.613 51.4413L196.665 51.7493L196.325 49.6253C194.377 49.8173 192.425 49.5093 191.221 48.8253L191.909 46.2733C193.151 46.8811 194.529 47.1567 195.909 47.0733L195.385 43.8173C193.137 43.6373 190.605 43.3013 190.157 40.5133C189.829 38.4453 191.045 36.4333 194.069 35.5893L193.721 33.4253L195.673 33.1133L196.013 35.2373C197.421 35.0917 198.842 35.2822 200.161 35.7933L199.597 38.3493C198.596 37.9628 197.527 37.7792 196.453 37.8093L196.981 41.1253C199.229 41.2853 201.721 41.6253 202.161 44.3733C202.465 46.4013 201.265 48.4013 198.265 49.2573ZM194.933 40.9493L194.493 38.1813C193.497 38.5813 193.177 39.2133 193.293 39.8573C193.409 40.5013 194.033 40.8013 194.933 40.9493ZM199.041 45.1133C198.933 44.4293 198.305 44.1493 197.421 43.9893L197.853 46.6813C198.797 46.3133 199.141 45.7373 199.041 45.1133Z" fill="#E0E0E0"/>
<path d="M64.9477 96.305C65.2264 98.1844 64.9412 100.104 64.1282 101.821C63.3152 103.539 62.0109 104.976 60.3805 105.951C58.7501 106.927 56.867 107.397 54.9694 107.301C53.0719 107.206 51.2454 106.549 49.7211 105.415C48.1968 104.281 47.0433 102.72 46.4066 100.93C45.7699 99.1402 45.6788 97.2014 46.1446 95.3595C46.6104 93.5176 47.6124 91.8553 49.0235 90.5831C50.4346 89.3109 52.1915 88.4861 54.0717 88.213C56.5864 87.8478 59.1433 88.4944 61.1821 90.0113C63.2208 91.5281 64.5749 93.7914 64.9477 96.305Z" fill="#F5F5F5"/>
<path d="M62.6858 96.6312C62.898 98.0634 62.6804 99.5264 62.0607 100.835C61.4409 102.143 60.4468 103.239 59.2042 103.982C57.9617 104.725 56.5265 105.083 55.0805 105.01C53.6344 104.937 52.2425 104.437 51.081 103.572C49.9195 102.708 49.0406 101.518 48.5555 100.154C48.0705 98.7899 48.0012 97.3124 48.3563 95.9088C48.7115 94.5051 49.4751 93.2384 50.5506 92.269C51.626 91.2996 52.965 90.6712 54.3978 90.4632C56.3145 90.1839 58.2637 90.6765 59.8176 91.8329C61.3715 92.9893 62.403 94.715 62.6858 96.6312Z" fill="#B6B9C1"/>
<path d="M62.6491 96.4017C62.5141 96.1324 62.4082 95.8495 62.3331 95.5577C62.0571 94.8033 61.6658 94.0962 61.1731 93.4617C60.8346 93.0289 60.4496 92.6346 60.0251 92.2857C59.5368 91.8884 58.999 91.5563 58.4251 91.2977C58.1176 91.1554 57.7993 91.0377 57.4731 90.9457C57.1342 90.8448 56.7878 90.7712 56.4371 90.7257C56.0753 90.676 55.7102 90.6546 55.3451 90.6617C54.9683 90.6701 54.5926 90.7062 54.2211 90.7697C53.1364 90.9597 52.1108 91.3993 51.2251 92.0537C50.9519 92.2545 50.6939 92.4751 50.4531 92.7137C50.0042 93.1534 49.6142 93.6496 49.2931 94.1897C49.0145 94.6639 48.7879 95.1669 48.6171 95.6897C48.3752 96.4558 48.2525 97.2544 48.2531 98.0577C48.287 98.3568 48.287 98.6587 48.2531 98.9577C48.1215 98.6799 48.0506 98.3771 48.0451 98.0697C47.9572 97.2338 48.025 96.3889 48.2451 95.5777C48.3992 95.0207 48.618 94.4837 48.8971 93.9777C49.2249 93.3938 49.6284 92.8559 50.0971 92.3777C50.3442 92.1156 50.6117 91.8735 50.8971 91.6537C51.5174 91.1867 52.2053 90.8171 52.9371 90.5577C53.3221 90.4242 53.7165 90.3199 54.1171 90.2457C54.5139 90.1793 54.9149 90.1418 55.3171 90.1337C55.7185 90.1276 56.1197 90.153 56.5171 90.2097C56.8939 90.2639 57.2658 90.3482 57.6291 90.4617C57.9772 90.5696 58.3168 90.7033 58.6451 90.8617C59.7859 91.4022 60.7671 92.229 61.4931 93.2617C61.9795 93.9465 62.3349 94.7155 62.5411 95.5297C62.6358 95.8101 62.6726 96.1067 62.6491 96.4017Z" fill="#E0E0E0"/>
<path d="M56.894 101.886L57.094 103.142L55.97 103.322L55.774 102.098C54.7714 102.228 53.7525 102.072 52.834 101.65L53.234 100.178C53.951 100.526 54.7468 100.681 55.542 100.626L55.238 98.7499C53.946 98.6499 52.486 98.4579 52.23 96.8499C52.038 95.6499 52.738 94.4979 54.482 94.0139L54.282 92.7659L55.406 92.5859L55.602 93.8099C56.4161 93.7227 57.2392 93.8325 58.002 94.1299L57.662 95.6019C57.085 95.3781 56.4686 95.2733 55.85 95.2939L56.154 97.2019C57.45 97.2939 58.886 97.4899 59.138 99.0739C59.314 100.242 58.622 101.39 56.894 101.886ZM54.974 97.0859L54.718 95.4859C54.146 95.7179 53.962 96.0779 54.022 96.4499C54.082 96.8219 54.454 97.0219 54.974 97.1019V97.0859ZM57.342 99.4859C57.278 99.0859 56.918 98.9339 56.406 98.8419L56.654 100.39C57.198 100.19 57.398 99.8579 57.342 99.4979V99.4859Z" fill="#E0E0E0"/>
<path d="M48.503 75.1766C47.4596 75.8386 46.2433 76.176 45.0081 76.1464C43.7728 76.1167 42.5741 75.7212 41.5638 75.0099C40.5534 74.2986 39.7768 73.3036 39.3322 72.1507C38.8876 70.9978 38.7951 69.7389 39.0664 68.5335C39.3376 67.328 39.9604 66.2301 40.856 65.3787C41.7515 64.5274 42.8795 63.9609 44.0971 63.751C45.3148 63.541 46.5674 63.6971 47.6963 64.1993C48.8252 64.7016 49.7797 65.5276 50.439 66.5726C50.8768 67.2647 51.1741 68.0362 51.3137 68.8431C51.4534 69.6501 51.4327 70.4766 51.253 71.2756C51.0732 72.0745 50.7378 72.8303 50.266 73.4996C49.7941 74.1689 49.1951 74.7388 48.503 75.1766Z" fill="#F5F5F5"/>
<path d="M47.709 73.9221C46.9132 74.426 45.9859 74.6825 45.0444 74.6592C44.1028 74.6358 43.1893 74.3337 42.4196 73.791C41.6498 73.2483 41.0583 72.4894 40.72 71.6104C40.3817 70.7314 40.3118 69.7718 40.519 68.8531C40.7263 67.9343 41.2015 67.0977 41.8845 66.4491C42.5674 65.8005 43.4274 65.3691 44.3556 65.2095C45.2839 65.0499 46.2386 65.1692 47.0989 65.5524C47.9593 65.9356 48.6867 66.5654 49.189 67.3621C49.8624 68.4283 50.0848 69.7184 49.8073 70.9486C49.5297 72.1787 48.775 73.2483 47.709 73.9221Z" fill="#B6B9C1"/>
<path d="M47.8363 73.8401C47.8363 73.8161 47.9843 73.6881 48.2363 73.4401C48.6128 73.0772 48.93 72.6574 49.1763 72.1961C49.5413 71.5186 49.7337 70.7616 49.7363 69.9921C49.7407 69.7714 49.7273 69.5507 49.6963 69.3321C49.6656 69.1047 49.6174 68.8801 49.5523 68.6601C49.4855 68.4313 49.4012 68.208 49.3003 67.9921C49.0929 67.5508 48.816 67.1457 48.4803 66.7921C48.3194 66.6177 48.1441 66.4571 47.9563 66.3121C47.7767 66.1636 47.5854 66.0298 47.3843 65.9121C47.1984 65.7924 47.0031 65.6881 46.8003 65.6001C46.4149 65.4487 46.0115 65.3479 45.6003 65.3001C45.2452 65.2641 44.8874 65.2641 44.5323 65.3001C44.0131 65.3538 43.5056 65.4888 43.0283 65.7001C42.8563 65.7949 42.6755 65.8726 42.4883 65.9321C42.4883 65.9321 42.6323 65.7681 42.9643 65.5721C43.4371 65.2994 43.9567 65.1177 44.4963 65.0361C44.8705 64.9762 45.2505 64.9614 45.6283 64.9921C46.0648 65.0294 46.4941 65.1263 46.9043 65.2801C47.1278 65.3613 47.3445 65.4603 47.5523 65.5761C47.7694 65.6925 47.9768 65.8262 48.1723 65.9761C48.5849 66.296 48.944 66.6794 49.2363 67.1121C49.3873 67.332 49.5211 67.5634 49.6363 67.8041C49.7437 68.037 49.8333 68.2776 49.9043 68.5241C49.971 68.7627 50.0192 69.0061 50.0483 69.2521C50.0787 69.4881 50.0894 69.7263 50.0803 69.9641C50.0693 70.4008 49.9993 70.8341 49.8723 71.2521C49.7595 71.6147 49.6037 71.9625 49.4083 72.2881C49.1302 72.7592 48.7666 73.1743 48.3363 73.5121C48.1942 73.6549 48.0239 73.7666 47.8363 73.8401Z" fill="#E0E0E0"/>
<path d="M43.0608 71.8651L42.3648 72.3171L41.9648 71.6971L42.6408 71.2571C42.2974 70.6954 42.1212 70.0474 42.1328 69.3891L43.1088 69.2371C43.0922 69.7559 43.2107 70.2701 43.4528 70.7291L44.4888 70.0531C44.2088 69.2531 43.9368 68.3371 44.8248 67.7611C45.4808 67.3331 46.3568 67.4411 47.1048 68.3491L47.7928 67.9011L48.1928 68.5211L47.5168 68.9611C47.7814 69.4204 47.9335 69.9358 47.9608 70.4651L46.9928 70.6531C46.9738 70.2509 46.8745 69.8565 46.7008 69.4931L45.6448 70.1811C45.9328 70.9811 46.1968 71.8811 45.3208 72.4491C44.6768 72.8691 43.8088 72.7611 43.0608 71.8651ZM45.3968 69.4651L46.2768 68.8891C45.9888 68.6091 45.7248 68.5971 45.5208 68.7291C45.3168 68.8611 45.3048 69.1291 45.3968 69.4611V69.4651ZM44.5968 71.5051C44.8128 71.3611 44.8128 71.1051 44.7328 70.7771L43.8768 71.3371C44.1488 71.6011 44.4008 71.6291 44.5968 71.5011V71.5051Z" fill="#E0E0E0"/>
<path d="M215.999 23.6571C214.956 24.319 213.739 24.6565 212.504 24.6268C211.269 24.5971 210.07 24.2016 209.06 23.4904C208.049 22.7791 207.273 21.784 206.828 20.6311C206.384 19.4783 206.291 18.2194 206.562 17.0139C206.834 15.8084 207.457 14.7105 208.352 13.8592C209.248 13.0079 210.376 12.4414 211.593 12.2314C212.811 12.0215 214.063 12.1775 215.192 12.6798C216.321 13.1821 217.276 14.008 217.935 15.0531C218.373 15.745 218.671 16.5165 218.811 17.3236C218.951 18.1306 218.93 18.9573 218.751 19.7564C218.571 20.5555 218.235 21.3113 217.763 21.9807C217.291 22.65 216.692 23.2196 215.999 23.6571Z" fill="#F5F5F5"/>
<path d="M215.198 22.3996C214.403 22.9046 213.475 23.1622 212.533 23.1398C211.592 23.1173 210.678 22.8159 209.907 22.2736C209.137 21.7314 208.544 20.9727 208.205 20.0937C207.867 19.2146 207.796 18.2547 208.003 17.3356C208.21 16.4165 208.685 15.5794 209.368 14.9305C210.051 14.2815 210.911 13.8498 211.84 13.69C212.768 13.5303 213.723 13.6496 214.584 14.033C215.444 14.4164 216.172 15.0465 216.674 15.8436C217.348 16.9088 217.57 18.1978 217.294 19.4273C217.017 20.6568 216.263 21.726 215.198 22.3996Z" fill="#B6B9C1"/>
<path d="M215.32 22.3227C215.32 22.2987 215.468 22.1707 215.72 21.9227C216.097 21.5598 216.414 21.14 216.66 20.6787C216.832 20.3647 216.966 20.0318 217.06 19.6867C217.166 19.2953 217.223 18.8921 217.228 18.4867C217.236 18.2583 217.226 18.0297 217.2 17.8027C217.169 17.5753 217.121 17.3506 217.056 17.1307C216.99 16.9015 216.906 16.6781 216.804 16.4627C216.701 16.2405 216.58 16.0265 216.444 15.8227C216.31 15.6214 216.162 15.4302 216 15.2507C215.838 15.0748 215.661 14.9129 215.472 14.7667C215.293 14.6172 215.102 14.4834 214.9 14.3667C214.709 14.2562 214.51 14.16 214.304 14.0787C213.919 13.9268 213.516 13.8272 213.104 13.7827C212.749 13.7427 212.391 13.7427 212.036 13.7827C211.517 13.8366 211.01 13.9716 210.532 14.1827C210.361 14.2796 210.18 14.3574 209.992 14.4147C209.992 14.4147 210.136 14.2507 210.468 14.0547C210.942 13.789 211.462 13.614 212 13.5387C212.374 13.4782 212.755 13.4648 213.132 13.4987C213.569 13.5344 213.998 13.63 214.408 13.7827C214.632 13.8639 214.848 13.9628 215.056 14.0787C215.501 14.3237 215.906 14.6353 216.256 15.0027C216.433 15.1898 216.595 15.3904 216.74 15.6027C216.891 15.8227 217.025 16.0541 217.14 16.2947C217.246 16.5276 217.335 16.7683 217.404 17.0147C217.473 17.2528 217.521 17.4963 217.548 17.7427C217.579 17.9787 217.589 18.2168 217.58 18.4547C217.569 18.8914 217.499 19.3247 217.372 19.7427C217.259 20.1139 217.1 20.4699 216.9 20.8027C216.621 21.2648 216.259 21.6716 215.832 22.0027C215.685 22.1433 215.511 22.2522 215.32 22.3227Z" fill="#E0E0E0"/>
<path d="M210.541 20.3456L209.845 20.8016L209.445 20.1816L210.121 19.7416C209.773 19.1796 209.592 18.5306 209.597 17.8696L210.573 17.7176C210.558 18.2362 210.677 18.7499 210.917 19.2096L211.953 18.5336C211.673 17.7336 211.401 16.8176 212.289 16.2416C212.945 15.8136 213.821 15.9216 214.569 16.8296L215.273 16.4016L215.673 17.0216L214.997 17.4616C215.261 17.9226 215.412 18.4393 215.437 18.9696L214.473 19.1536C214.452 18.7526 214.351 18.3597 214.177 17.9976L213.121 18.6816C213.409 19.4816 213.673 20.3816 212.797 20.9496C212.157 21.3496 211.293 21.2416 210.541 20.3456ZM212.877 17.9456L213.757 17.3736C213.469 17.0896 213.205 17.0776 213.001 17.2096C212.797 17.3416 212.797 17.6016 212.877 17.9416V17.9456ZM212.077 19.9856C212.293 19.8416 212.293 19.5856 212.213 19.2616L211.357 19.8176C211.629 20.0776 211.877 20.1096 212.077 20.0016V19.9856Z" fill="#E0E0E0"/>
<path d="M284.103 188.143C284.103 188.199 224.059 188.247 150.007 188.247C75.9545 188.247 15.8945 188.199 15.8945 188.143C15.8945 188.087 75.9265 188.039 150.007 188.039C224.087 188.039 284.103 188.083 284.103 188.143Z" fill="#263238"/>
<path d="M267.599 53.8594H115.311C114.686 53.8594 114.068 53.9824 113.491 54.2215C112.914 54.4605 112.39 54.8109 111.949 55.2526C111.508 55.6943 111.158 56.2186 110.919 56.7956C110.681 57.3726 110.558 57.991 110.559 58.6154V166.179C110.559 167.44 111.059 168.648 111.95 169.54C112.842 170.431 114.05 170.931 115.311 170.931H173.759C173.759 170.931 177.479 182.427 165.951 188.379H220.603C220.603 188.379 207.599 183.915 210.935 170.931H267.599C268.859 170.931 270.068 170.431 270.959 169.54C271.85 168.648 272.351 167.44 272.351 166.179V58.6154C272.351 57.991 272.229 57.3726 271.99 56.7956C271.751 56.2186 271.402 55.6943 270.96 55.2526C270.519 54.8109 269.995 54.4605 269.418 54.2215C268.841 53.9824 268.223 53.8594 267.599 53.8594Z" fill="#263238"/>
<path d="M193.487 159.601C195.559 162.561 192.319 165.805 189.355 163.733C189.256 163.664 189.171 163.577 189.103 163.477C187.035 160.517 190.275 157.281 193.235 159.349C193.332 159.419 193.417 159.504 193.487 159.601Z" fill="#B6B9C1"/>
<path d="M117.059 55.8281H265.859C266.888 55.8281 267.875 56.2369 268.603 56.9646C269.33 57.6922 269.739 58.6791 269.739 59.7081V151.252H113.199V59.7081C113.199 58.6825 113.605 57.6987 114.329 56.9716C115.052 56.2445 116.034 55.8334 117.059 55.8281Z" fill="white"/>
<path d="M131.577 77.3711H126.441V134.715H131.577V77.3711Z" fill="#721B65"/>
<path d="M141.491 96.8477H136.355V134.716H141.491V96.8477Z" fill="#721B65"/>
<path d="M151.402 84.4961H146.266V135.004H151.402V84.4961Z" fill="#721B65"/>
<path d="M161.32 79.5859H156.184V134.714H161.32V79.5859Z" fill="#721B65"/>
<path d="M171.23 98.0156H166.094V134.716H171.23V98.0156Z" fill="#721B65"/>
<path d="M181.144 105.211H176.008V134.715H181.144V105.211Z" fill="#721B65"/>
<path d="M191.054 83.2578H185.918V134.714H191.054V83.2578Z" fill="#721B65"/>
<path d="M200.968 92.5352H195.832V134.715H200.968V92.5352Z" fill="#721B65"/>
<path d="M210.882 85.1211H205.746V134.713H210.882V85.1211Z" fill="#721B65"/>
<path d="M220.796 100.926H215.66V134.714H220.796V100.926Z" fill="#721B65"/>
<path d="M240.566 83.2578H235.43V134.714H240.566V83.2578Z" fill="#721B65"/>
<path d="M261.62 116.367H256.484V133.975H261.62V116.367Z" fill="#721B65"/>
<path d="M251.355 100.926H246.219V134.714H251.355V100.926Z" fill="#721B65"/>
<path d="M230.706 94.4961H225.57V134.712H230.706V94.4961Z" fill="#721B65"/>
<path d="M263.057 84.6835C262.906 84.6701 262.757 84.646 262.609 84.6115L261.301 84.3435C260.596 84.1925 259.883 84.079 259.165 84.0035C258.191 83.8674 257.209 83.7859 256.225 83.7595C253.528 83.6692 250.829 83.9002 248.185 84.4475C244.691 85.1971 241.331 86.4701 238.217 88.2235C234.444 90.349 231.035 93.0631 228.117 96.2635C224.973 99.7115 222.321 103.971 219.609 108.479C216.897 112.987 214.081 117.827 210.045 122.003C208.027 124.161 205.642 125.945 203.001 127.271C201.631 127.937 200.165 128.385 198.657 128.599C197.125 128.803 195.569 128.751 194.053 128.443C191.005 127.771 188.305 126.171 186.033 124.239C183.805 122.32 181.811 120.143 180.093 117.755C176.645 113.115 174.197 108.115 171.577 103.559C168.957 99.0035 166.329 94.7155 163.069 91.3755C161.526 89.7492 159.754 88.356 157.809 87.2395C156.895 86.7123 155.945 86.2511 154.965 85.8595C154.018 85.5098 153.05 85.2226 152.065 84.9995C148.584 84.2046 144.957 84.3064 141.525 85.2955C138.933 86.0369 136.487 87.2136 134.289 88.7755C132.915 89.7858 131.643 90.9272 130.489 92.1835L129.597 93.1715C129.5 93.2894 129.393 93.3991 129.277 93.4995C129.356 93.3694 129.447 93.2475 129.549 93.1355L130.393 92.0955C131.52 90.7988 132.779 89.6231 134.149 88.5875C136.35 86.9758 138.813 85.7578 141.429 84.9875C144.909 83.9424 148.598 83.8047 152.145 84.5875C156.093 85.3875 160.117 87.6435 163.401 91.0275C166.685 94.4115 169.421 98.7035 172.029 103.279C174.637 107.855 177.125 112.827 180.537 117.407C182.232 119.763 184.197 121.911 186.393 123.807C188.617 125.699 191.241 127.243 194.161 127.887C195.61 128.179 197.097 128.229 198.561 128.035C200.012 127.827 201.422 127.397 202.741 126.759C205.327 125.461 207.663 123.716 209.641 121.603C213.621 117.511 216.405 112.679 219.157 108.203C221.909 103.727 224.565 99.4035 227.765 95.9395C230.731 92.7205 234.192 89.9955 238.017 87.8675C241.175 86.1155 244.583 84.857 248.121 84.1355C250.791 83.6046 253.515 83.4031 256.233 83.5355C257.224 83.5761 258.211 83.6763 259.189 83.8355C259.909 83.9258 260.622 84.0594 261.325 84.2355L262.621 84.5595C262.77 84.5892 262.916 84.6306 263.057 84.6835Z" fill="#263238"/>
<path d="M120.798 138.708C120.682 138.708 120.586 122.356 120.586 102.188C120.586 82.02 120.682 65.668 120.798 65.668C120.914 65.668 121.01 82.016 121.01 102.188C121.01 122.36 120.906 138.708 120.798 138.708Z" fill="#263238"/>
<path d="M261.6 138.708C261.6 138.824 230.8 138.916 192.8 138.916C154.8 138.916 124 138.824 124 138.708C124 138.592 154.8 138.496 192.8 138.496C230.8 138.496 261.6 138.592 261.6 138.708Z" fill="#263238"/>
<path d="M133.768 143.224C133.768 143.34 132.064 143.436 129.96 143.436C127.856 143.436 126.148 143.34 126.148 143.224C126.148 143.108 127.852 143.012 129.96 143.012C132.068 143.012 133.768 143.108 133.768 143.224Z" fill="#263238"/>
<path d="M146.397 143.45C146.397 143.57 144.357 143.662 141.845 143.662C139.333 143.662 137.289 143.57 137.289 143.45C137.289 143.33 139.329 143.242 141.845 143.242C144.361 143.242 146.397 143.334 146.397 143.45Z" fill="#263238"/>
<path d="M157.198 143.45C157.198 143.57 155.158 143.662 152.646 143.662C150.134 143.662 148.09 143.57 148.09 143.45C148.09 143.33 150.13 143.242 152.646 143.242C155.162 143.242 157.198 143.334 157.198 143.45Z" fill="#263238"/>
<path d="M167.967 143.45C167.967 143.57 165.927 143.662 163.415 143.662C160.903 143.662 158.859 143.57 158.859 143.45C158.859 143.33 160.899 143.242 163.415 143.242C165.931 143.242 167.967 143.334 167.967 143.45Z" fill="#263238"/>
<path d="M178.745 143.45C178.745 143.57 176.709 143.662 174.193 143.662C171.677 143.662 169.637 143.57 169.637 143.45C169.637 143.33 171.677 143.242 174.193 143.242C176.709 143.242 178.745 143.334 178.745 143.45Z" fill="#263238"/>
<path d="M189.53 143.45C189.53 143.57 187.49 143.662 184.974 143.662C182.458 143.662 180.422 143.57 180.422 143.45C180.422 143.33 182.458 143.242 184.974 143.242C187.49 143.242 189.53 143.334 189.53 143.45Z" fill="#263238"/>
<path d="M200.311 143.45C200.311 143.57 198.271 143.662 195.755 143.662C193.239 143.662 191.203 143.57 191.203 143.45C191.203 143.33 193.239 143.242 195.755 143.242C198.271 143.242 200.311 143.334 200.311 143.45Z" fill="#263238"/>
<path d="M211.092 143.45C211.092 143.57 209.052 143.662 206.536 143.662C204.02 143.662 201.984 143.57 201.984 143.45C201.984 143.33 204.024 143.242 206.536 143.242C209.048 143.242 211.092 143.334 211.092 143.45Z" fill="#263238"/>
<path d="M221.87 143.45C221.87 143.57 219.83 143.662 217.318 143.662C214.806 143.662 212.762 143.57 212.762 143.45C212.762 143.33 214.802 143.242 217.318 143.242C219.834 143.242 221.87 143.334 221.87 143.45Z" fill="#263238"/>
<path d="M232.651 143.45C232.651 143.57 230.611 143.662 228.099 143.662C225.587 143.662 223.543 143.57 223.543 143.45C223.543 143.33 225.583 143.242 228.099 143.242C230.615 143.242 232.651 143.334 232.651 143.45Z" fill="#263238"/>
<path d="M242.678 143.454C242.678 143.574 240.638 143.666 238.122 143.666C235.606 143.666 233.57 143.574 233.57 143.454C233.57 143.334 235.61 143.246 238.122 143.246C240.634 143.246 242.678 143.338 242.678 143.454Z" fill="#263238"/>
<path d="M252.706 143.458C252.706 143.574 250.666 143.67 248.15 143.67C245.634 143.67 243.598 143.574 243.598 143.458C243.598 143.342 245.634 143.25 248.15 143.25C250.666 143.25 252.706 143.342 252.706 143.458Z" fill="#263238"/>
<path d="M262.729 143.462C262.729 143.578 260.689 143.674 258.177 143.674C255.665 143.674 253.621 143.578 253.621 143.462C253.621 143.346 255.661 143.25 258.177 143.25C260.693 143.25 262.729 143.346 262.729 143.462Z" fill="#263238"/>
<path d="M173.199 104.069C173.199 103.981 173.831 104.201 174.031 105.061C174.159 105.557 174.102 106.083 173.871 106.541C173.715 106.842 173.446 107.07 173.123 107.173C172.772 107.271 172.397 107.227 172.079 107.049C171.791 106.888 171.555 106.649 171.397 106.359C171.239 106.07 171.166 105.742 171.187 105.413C171.206 105.154 171.279 104.902 171.403 104.674C171.526 104.446 171.697 104.246 171.903 104.089C172.038 103.978 172.196 103.899 172.366 103.858C172.535 103.816 172.712 103.813 172.883 103.849C173.123 103.921 173.203 104.037 173.187 104.061C173.171 104.085 172.667 103.901 172.163 104.401C171.886 104.674 171.726 105.044 171.715 105.433C171.713 105.658 171.771 105.879 171.883 106.075C171.995 106.27 172.156 106.432 172.351 106.545C172.438 106.599 172.535 106.635 172.637 106.651C172.738 106.666 172.842 106.661 172.941 106.636C173.041 106.611 173.134 106.565 173.215 106.503C173.297 106.44 173.365 106.362 173.415 106.273C173.606 105.925 173.682 105.526 173.631 105.133C173.563 104.401 173.155 104.137 173.199 104.069Z" fill="#263238"/>
<path d="M240.775 85.2008C240.775 85.1688 240.939 85.1168 241.223 85.2008C241.616 85.3477 241.941 85.632 242.139 86.0008C242.298 86.2695 242.4 86.5679 242.438 86.8775C242.477 87.1872 242.451 87.5014 242.363 87.8008C242.259 88.1918 242.033 88.5392 241.717 88.7919C241.4 89.0446 241.012 89.1893 240.607 89.2048C240.39 89.1949 240.178 89.1379 239.985 89.0378C239.793 88.9376 239.624 88.7967 239.491 88.6248C239.258 88.3327 239.097 87.9903 239.019 87.6248C238.943 87.3229 238.929 87.0085 238.978 86.701C239.028 86.3935 239.14 86.0994 239.307 85.8368C239.939 84.9448 240.719 84.9888 240.691 85.0368C240.727 85.1208 240.075 85.2448 239.655 86.0248C239.433 86.476 239.389 86.9944 239.531 87.4768C239.667 88.0048 240.075 88.6088 240.627 88.6128C240.91 88.5898 241.178 88.4825 241.399 88.3049C241.619 88.1273 241.781 87.8876 241.863 87.6168C242.02 87.1423 241.99 86.626 241.779 86.1728C241.567 85.7423 241.213 85.3988 240.775 85.2008Z" fill="#263238"/>
<path d="M182.513 26.7266H79.4688V106.923H182.513V26.7266Z" fill="white"/>
<path d="M182.515 106.922C182.515 106.122 182.479 75.1218 182.419 26.7258L182.515 26.8218H79.4826L79.5986 26.7058C79.5986 55.6138 79.5986 82.9538 79.5986 106.902L79.4946 106.798L182.539 106.902L79.4946 107.006H79.3906V106.902C79.3906 82.9538 79.3906 55.6138 79.3906 26.7058V26.5898H79.5186H182.551H182.647V26.6858C182.555 75.1218 182.519 106.122 182.515 106.922Z" fill="#263238"/>
<path d="M101.18 37.2617H84.5V38.1897H101.18V37.2617Z" fill="#263238"/>
<path d="M92.744 39.4336H84.5V40.3616H92.744V39.4336Z" fill="#263238"/>
<path d="M97.0278 95.3984H94.0078V96.2704H97.0278V95.3984Z" fill="#263238"/>
<path d="M104.708 100.055H100.844V100.927H104.708V100.055Z" fill="#263238"/>
<path d="M118.157 100.055H114.293V100.927H118.157V100.055Z" fill="#263238"/>
<path d="M131.61 100.055H127.746V100.927H131.61V100.055Z" fill="#263238"/>
<path d="M145.063 100.055H141.199V100.927H145.063V100.055Z" fill="#263238"/>
<path d="M158.516 100.055H154.652V100.927H158.516V100.055Z" fill="#263238"/>
<path d="M171.966 100.055H168.102V100.927H171.966V100.055Z" fill="#263238"/>
<path d="M97.0278 83.7695H94.0078V84.6415H97.0278V83.7695Z" fill="#263238"/>
<path d="M97.0278 61.8828H94.0078V62.7548H97.0278V61.8828Z" fill="#263238"/>
<path d="M97.0278 50.8828H94.0078V51.7548H97.0278V50.8828Z" fill="#263238"/>
<path d="M97.1841 72.8242H94.1641V73.6962H97.1841V72.8242Z" fill="#263238"/>
<path d="M171.86 96.2715C171.86 96.2715 171.752 96.2715 171.536 96.2715H170.584L166.928 96.2915L153.484 96.3275L109.12 96.3555H98.5039V96.2515C98.5039 81.4155 98.5319 68.3595 98.5399 59.0075C98.5399 54.3355 98.5639 50.6075 98.5719 48.0075C98.5719 46.7235 98.5719 45.7275 98.5719 45.0475C98.5719 44.7115 98.5719 44.4595 98.5719 44.2795C98.5719 44.0995 98.5719 44.0195 98.5719 44.0195C98.5719 44.0195 98.5719 44.1075 98.5719 44.2795C98.5719 44.4515 98.5719 44.7115 98.5719 45.0475C98.5719 45.7275 98.5719 46.7235 98.5719 48.0075C98.5719 50.5915 98.5719 54.3355 98.6039 59.0075C98.6039 68.3595 98.6239 81.4075 98.6399 96.2515L98.5359 96.1475H109.12L153.484 96.1795L166.928 96.2115L170.584 96.2315H171.536L171.86 96.2715Z" fill="#263238"/>
<path d="M172.712 73.2603C172.712 73.3163 156.776 73.3643 137.112 73.3643C117.448 73.3643 101.512 73.3163 101.512 73.2603C101.512 73.2043 117.444 73.1562 137.112 73.1562C156.78 73.1562 172.712 73.2003 172.712 73.2603Z" fill="#263238"/>
<path d="M172.712 62.3188C172.712 62.3748 156.776 62.4228 137.112 62.4228C117.448 62.4228 101.512 62.3748 101.512 62.3188C101.512 62.2628 117.444 62.2148 137.112 62.2148C156.78 62.2148 172.712 62.2628 172.712 62.3188Z" fill="#263238"/>
<path d="M172.712 51.3188C172.712 51.3788 156.776 51.4228 137.112 51.4228C117.448 51.4228 101.512 51.3788 101.512 51.3188C101.512 51.2588 117.444 51.2148 137.112 51.2148C156.78 51.2148 172.712 51.2628 172.712 51.3188Z" fill="#263238"/>
<path d="M172.712 84.2056C172.712 84.2615 156.776 84.3095 137.112 84.3095C117.448 84.3095 101.512 84.2615 101.512 84.2056C101.512 84.1496 117.444 84.1016 137.112 84.1016C156.78 84.1016 172.712 84.1496 172.712 84.2056Z" fill="#263238"/>
<path d="M102.262 93.9157V84.2077L108.314 74.8037L112.422 77.9557L120.85 64.8637L125.822 68.3637L132.738 56.2837L138.338 60.8637L146.798 44.8477L155.878 62.7557L163.198 53.7957L171.842 51.3197V93.9157H102.262Z" fill="#B6B9C1"/>
<path d="M172.709 47.8685C172.659 47.872 172.608 47.872 172.557 47.8685H172.105H170.353L163.717 47.8965L163.761 47.8725L156.649 57.2005L156.621 57.2325H156.581H138.781L138.869 57.1845L131.385 69.6405C128.837 73.8805 126.369 77.9805 124.037 81.8525L123.961 81.9845L123.873 81.8605L114.225 68.6085H114.365L105.597 82.3205L103.153 86.1125C102.873 86.5445 102.657 86.8765 102.505 87.1045C102.353 87.3325 102.277 87.4405 102.277 87.4405C102.277 87.4405 102.345 87.3205 102.485 87.0925L103.109 86.0885C103.665 85.2045 104.477 83.9125 105.509 82.2685L114.229 68.5205L114.297 68.4165L114.373 68.5165L124.041 81.7525H123.873L131.197 69.5445L138.689 57.0885L138.717 57.0405H138.797L156.597 57.0605L156.533 57.0925L163.689 47.8365V47.8125H163.717L170.353 47.8405H172.105H172.557L172.709 47.8685Z" fill="#263238"/>
<path d="M117.199 71.6795C117.205 71.8159 117.17 71.9508 117.098 72.0669C117.026 72.183 116.922 72.275 116.797 72.3311C116.673 72.3872 116.534 72.4048 116.4 72.3816C116.266 72.3585 116.141 72.2957 116.043 72.2012C115.944 72.1068 115.876 71.985 115.847 71.8516C115.819 71.7182 115.83 71.5793 115.881 71.4527C115.932 71.3261 116.02 71.2175 116.133 71.1411C116.246 71.0646 116.379 71.0237 116.515 71.0235C116.693 71.0203 116.865 71.0875 116.993 71.2104C117.121 71.3334 117.195 71.502 117.199 71.6795Z" fill="#263238"/>
<path d="M137.742 60.0038C137.748 60.1403 137.713 60.2753 137.641 60.3915C137.569 60.5077 137.464 60.5997 137.339 60.6557C137.215 60.7117 137.076 60.7291 136.942 60.7056C136.807 60.6821 136.682 60.6189 136.584 60.524C136.486 60.4292 136.418 60.307 136.39 60.1734C136.362 60.0397 136.374 59.9007 136.425 59.7741C136.477 59.6475 136.565 59.5393 136.679 59.4633C136.792 59.3873 136.926 59.3471 137.062 59.3478C137.15 59.3462 137.237 59.3619 137.319 59.394C137.401 59.4261 137.475 59.474 137.538 59.5349C137.601 59.5958 137.652 59.6686 137.687 59.749C137.722 59.8295 137.741 59.916 137.742 60.0038Z" fill="#263238"/>
<path d="M153.024 57.7964C153.402 57.7964 153.708 57.5027 153.708 57.1404C153.708 56.7781 153.402 56.4844 153.024 56.4844C152.646 56.4844 152.34 56.7781 152.34 57.1404C152.34 57.5027 152.646 57.7964 153.024 57.7964Z" fill="#263238"/>
<path d="M83.7797 30.0266C83.7797 30.1848 83.7328 30.3395 83.6449 30.471C83.557 30.6026 83.432 30.7051 83.2858 30.7657C83.1397 30.8262 82.9788 30.8421 82.8236 30.8112C82.6684 30.7803 82.5259 30.7041 82.414 30.5923C82.3021 30.4804 82.2259 30.3378 82.1951 30.1826C82.1642 30.0275 82.18 29.8666 82.2406 29.7204C82.3011 29.5742 82.4037 29.4493 82.5352 29.3614C82.6668 29.2735 82.8215 29.2266 82.9797 29.2266C83.1919 29.2266 83.3953 29.3109 83.5454 29.4609C83.6954 29.6109 83.7797 29.8144 83.7797 30.0266Z" fill="#263238"/>
<path d="M86.0844 30.0266C86.0844 30.1848 86.0375 30.3395 85.9496 30.471C85.8616 30.6026 85.7367 30.7051 85.5905 30.7657C85.4443 30.8262 85.2835 30.8421 85.1283 30.8112C84.9731 30.7803 84.8306 30.7041 84.7187 30.5923C84.6068 30.4804 84.5306 30.3378 84.4997 30.1826C84.4689 30.0275 84.4847 29.8666 84.5453 29.7204C84.6058 29.5742 84.7084 29.4493 84.8399 29.3614C84.9715 29.2735 85.1262 29.2266 85.2844 29.2266C85.4966 29.2266 85.7 29.3109 85.8501 29.4609C86.0001 29.6109 86.0844 29.8144 86.0844 30.0266Z" fill="#263238"/>
<path d="M88.3969 30.0266C88.3969 30.1848 88.35 30.3395 88.2621 30.471C88.1741 30.6026 88.0492 30.7051 87.903 30.7657C87.7568 30.8262 87.596 30.8421 87.4408 30.8112C87.2856 30.7803 87.1431 30.7041 87.0312 30.5923C86.9193 30.4804 86.8431 30.3378 86.8122 30.1826C86.7814 30.0275 86.7972 29.8666 86.8578 29.7204C86.9183 29.5742 87.0209 29.4493 87.1524 29.3614C87.284 29.2735 87.4387 29.2266 87.5969 29.2266C87.8091 29.2266 88.0125 29.3109 88.1626 29.4609C88.3126 29.6109 88.3969 29.8144 88.3969 30.0266Z" fill="#263238"/>
<path d="M182.43 33.1509C182.43 33.2069 159.406 33.2549 131.01 33.2549C102.614 33.2549 79.5977 33.2029 79.5977 33.1509C79.5977 33.0989 102.618 33.0469 131.022 33.0469C159.426 33.0469 182.43 33.0909 182.43 33.1509Z" fill="#263238"/>
<path d="M15.9687 154.628L18.1327 162.4C18.7279 164.51 20.078 166.328 21.9262 167.508C23.7743 168.688 25.9918 169.148 28.1567 168.8C28.1567 168.8 32.2527 174.64 34.0007 175.6L35.5767 188.052H44.9247L45.6647 183.008C52.3834 185.829 59.6454 187.12 66.9247 186.788C78.7607 186.16 81.5967 182.692 81.5967 182.692L83.0127 188.052H93.5727L95.3087 174.34C95.3087 174.34 108.229 162.836 104.909 149.44C104.909 149.44 114.205 143.092 111.053 134.052L109.161 133.2C109.161 133.2 106.165 138.556 103.013 139.66C103.013 139.66 94.5327 112.396 62.6127 114.604C62.6127 114.604 51.9607 114.132 41.8727 118.856C41.8727 118.856 30.6727 113.028 22.3327 117.28C22.3327 117.28 22.1767 126.88 26.9007 132.412C26.9007 132.412 22.8047 141.552 22.5007 143.444L21.2807 143.932C19.233 144.747 17.5584 146.289 16.578 148.263C15.5977 150.237 15.3807 152.504 15.9687 154.628Z" fill="#721B65"/>
<path d="M38.5482 142.917C38.5482 143.433 38.395 143.938 38.108 144.368C37.821 144.797 37.4131 145.132 36.9358 145.33C36.4585 145.528 35.9333 145.579 35.4266 145.479C34.92 145.378 34.4546 145.129 34.0893 144.764C33.724 144.398 33.4752 143.933 33.3744 143.426C33.2736 142.92 33.3254 142.394 33.523 141.917C33.7207 141.44 34.0555 141.032 34.4851 140.745C34.9146 140.458 35.4196 140.305 35.9362 140.305C36.629 140.305 37.2933 140.58 37.7832 141.07C38.273 141.56 38.5482 142.224 38.5482 142.917Z" fill="white"/>
<g opacity="0.6">
<path opacity="0.6" d="M50.582 121.526L51.754 124.814C51.754 124.814 65.958 120.586 75.114 124.814L76.406 121.526C76.406 121.526 65.254 116.362 50.582 121.526Z" fill="black"/>
</g>
<path d="M77.5575 126.321C77.4675 126.276 77.3806 126.225 77.2976 126.169C77.1296 126.061 76.8776 125.913 76.5536 125.725C75.6313 125.201 74.6634 124.762 73.6615 124.413C72.1755 123.899 70.6388 123.545 69.0776 123.357C67.1635 123.133 65.2349 123.061 63.3096 123.141C61.3816 123.195 59.4577 123.349 57.5456 123.601C55.9855 123.802 54.4497 124.16 52.9616 124.669C51.9596 125.014 50.9969 125.465 50.0896 126.013C49.4456 126.413 49.1176 126.657 49.1016 126.637C49.1744 126.566 49.2534 126.502 49.3376 126.445C49.5638 126.265 49.8002 126.098 50.0456 125.945C50.9445 125.366 51.9068 124.892 52.9136 124.533C54.4045 123.998 55.9477 123.623 57.5176 123.413C59.4369 123.152 61.3691 122.995 63.3056 122.945C65.2406 122.864 67.1791 122.942 69.1016 123.177C70.6746 123.377 72.2211 123.749 73.7135 124.285C74.716 124.65 75.6805 125.113 76.5935 125.665C76.9175 125.865 77.1615 126.029 77.3175 126.145C77.402 126.197 77.4823 126.256 77.5575 126.321Z" fill="#263238"/>
<g opacity="0.2">
<path opacity="0.2" d="M21.946 151.172C21.7955 150.765 21.5564 150.398 21.246 150.096C21.0886 149.947 20.8911 149.848 20.6778 149.81C20.4645 149.772 20.2449 149.798 20.046 149.884C19.7425 150.124 19.5307 150.462 19.446 150.84C18.9188 153.221 19.3331 155.713 20.602 157.796C20.6878 157.941 20.8035 158.067 20.9413 158.165C21.0792 158.263 21.2362 158.331 21.402 158.364C22.118 158.488 22.494 157.836 22.67 157.244C23.274 155.248 22.802 153.076 21.946 151.172Z" fill="black"/>
</g>
<path d="M27.6819 157.598C27.6618 157.4 27.6618 157.2 27.6819 157.002C27.6951 156.769 27.6951 156.535 27.6819 156.302C27.6819 156.03 27.6819 155.718 27.6819 155.374C27.6819 155.03 27.6459 154.658 27.5939 154.258C27.5419 153.858 27.4779 153.434 27.4019 152.986C27.0357 151.052 26.3243 149.2 25.3019 147.518C25.0579 147.118 24.8379 146.766 24.5939 146.446C24.3499 146.126 24.1299 145.822 23.9099 145.554C23.6899 145.286 23.4819 145.062 23.3019 144.858C23.1219 144.654 22.9579 144.486 22.8219 144.35C22.676 144.217 22.5422 144.071 22.4219 143.914C22.5876 144.027 22.7429 144.154 22.8859 144.294C23.0637 144.446 23.2332 144.608 23.3939 144.778C23.6183 144.994 23.8306 145.223 24.0299 145.462C24.2579 145.722 24.5019 146.01 24.7419 146.342C24.9819 146.674 25.2219 147.034 25.4739 147.418C25.9933 148.261 26.4377 149.149 26.8019 150.07C27.1512 151.001 27.4189 151.961 27.6019 152.938C27.6699 153.39 27.7459 153.818 27.7739 154.226C27.8019 154.634 27.8299 155.026 27.8379 155.354C27.8459 155.682 27.8379 156.014 27.8379 156.29C27.8335 156.524 27.8162 156.758 27.7859 156.99C27.7677 157.195 27.7329 157.399 27.6819 157.598Z" fill="#263238"/>
<path d="M30.5497 151.998C30.5097 151.998 30.3577 151.338 29.9137 150.326C29.6523 149.737 29.346 149.169 28.9977 148.626C28.5617 147.977 28.072 147.366 27.5337 146.798C26.9817 146.234 26.3822 145.719 25.7417 145.258C25.2149 144.887 24.6599 144.558 24.0817 144.274C23.0937 143.79 22.4257 143.61 22.4417 143.57C22.6016 143.586 22.7588 143.623 22.9097 143.678C23.0935 143.726 23.2739 143.786 23.4497 143.858C23.6868 143.94 23.9191 144.035 24.1457 144.142C24.7418 144.412 25.3132 144.733 25.8537 145.102C26.5106 145.561 27.1227 146.08 27.6817 146.654C28.2334 147.238 28.7276 147.872 29.1577 148.55C29.5057 149.104 29.8042 149.688 30.0497 150.294C30.1617 150.55 30.2337 150.794 30.3057 151.002C30.3677 151.18 30.4184 151.362 30.4577 151.546C30.5075 151.692 30.5384 151.844 30.5497 151.998Z" fill="#263238"/>
<path d="M19.6628 150.8C19.6458 150.728 19.6496 150.652 19.6736 150.581C19.6977 150.51 19.741 150.448 19.7988 150.4C19.9271 150.273 20.0949 150.192 20.2748 150.172C20.3943 150.161 20.5151 150.173 20.6298 150.209C20.7445 150.244 20.8509 150.303 20.9428 150.38C21.3553 150.807 21.6634 151.323 21.8428 151.888C22.3873 153.214 22.6593 154.635 22.6428 156.068C22.6867 156.662 22.578 157.257 22.3268 157.796C22.2251 157.977 22.0718 158.123 21.8866 158.217C21.7014 158.31 21.4925 158.346 21.2868 158.32C20.9908 158.264 20.8868 158.096 20.9108 158.1C21.0324 158.175 21.1689 158.223 21.3108 158.24C21.4954 158.249 21.6786 158.205 21.8388 158.112C21.999 158.02 22.1294 157.884 22.2148 157.72C22.4334 157.199 22.52 156.631 22.4668 156.068C22.4641 155.366 22.3958 154.666 22.2628 153.976C22.1325 153.287 21.9397 152.611 21.6868 151.956C21.523 151.414 21.2432 150.915 20.8668 150.492C20.7335 150.367 20.5593 150.295 20.3768 150.289C20.1942 150.283 20.0158 150.344 19.8748 150.46C19.7697 150.548 19.6955 150.667 19.6628 150.8Z" fill="#263238"/>
<path d="M39.7668 152.645C39.7668 152.645 39.8308 152.721 39.9028 152.885C39.9949 153.116 40.0542 153.36 40.0788 153.609C40.1275 154.023 40.0911 154.442 39.9717 154.842C39.8524 155.241 39.6527 155.612 39.3849 155.931C39.1171 156.251 38.7868 156.512 38.4143 156.7C38.0418 156.887 37.635 156.996 37.2188 157.021C36.9698 157.04 36.7193 157.024 36.4748 156.973C36.3028 156.933 36.2148 156.897 36.2148 156.881C36.5438 156.903 36.8739 156.903 37.2028 156.881C37.9899 156.797 38.7137 156.411 39.2224 155.804C39.731 155.198 39.985 154.418 39.9308 153.629C39.8962 153.298 39.8415 152.969 39.7668 152.645Z" fill="#263238"/>
<path d="M38.2905 136.541C37.4648 136.206 36.5988 135.98 35.7145 135.869C34.8241 135.827 33.9321 135.905 33.0625 136.101C33.2891 135.957 33.5419 135.859 33.8065 135.813C34.4355 135.659 35.0852 135.608 35.7305 135.661C36.376 135.715 37.0084 135.875 37.6025 136.133C37.8552 136.225 38.0886 136.363 38.2905 136.541Z" fill="#263238"/>
<path d="M82.3345 119.281L82.2345 119.249L81.9425 119.137L80.8265 118.693L80.0265 118.365C79.7305 118.249 79.4025 118.145 79.0545 118.025C78.3505 117.793 77.5665 117.485 76.6545 117.257L75.2465 116.857C74.7585 116.725 74.2385 116.629 73.7025 116.509C72.6425 116.245 71.4825 116.085 70.2705 115.885C67.6189 115.537 64.9436 115.403 62.2705 115.485C59.6042 115.6 56.9516 115.931 54.3385 116.473C53.1385 116.757 51.9985 117.005 50.9585 117.345C50.4385 117.505 49.9225 117.637 49.4465 117.809L48.0705 118.305C47.1865 118.597 46.4265 118.961 45.7425 119.245C45.4025 119.393 45.0825 119.521 44.7985 119.645L44.0225 120.045L42.9425 120.573L42.6625 120.705C42.6319 120.724 42.598 120.738 42.5625 120.745C42.5625 120.745 42.5905 120.745 42.6505 120.689L42.9225 120.537L43.9865 119.973L44.7545 119.573C45.0385 119.433 45.3585 119.297 45.6945 119.145C46.3745 118.853 47.1345 118.477 48.0185 118.173L49.3945 117.665C49.8745 117.489 50.3865 117.353 50.9105 117.185C51.9545 116.837 53.0985 116.585 54.2985 116.293C56.921 115.738 59.5846 115.4 62.2625 115.281C64.9364 115.206 67.6119 115.349 70.2625 115.709C71.4825 115.913 72.6425 116.081 73.7105 116.349C74.2425 116.477 74.7665 116.577 75.2545 116.717L76.6625 117.117C77.5665 117.353 78.3505 117.673 79.0625 117.917C79.4105 118.041 79.7385 118.153 80.0345 118.269L80.8345 118.617L81.9345 119.101L82.2185 119.233C82.3065 119.261 82.3385 119.277 82.3345 119.281Z" fill="white"/>
<path d="M87.0882 121.934C86.6528 121.865 86.2306 121.73 85.8362 121.534C85.4148 121.397 85.0178 121.195 84.6602 120.934C85.0967 121.003 85.5201 121.137 85.9162 121.334C86.3357 121.471 86.7311 121.674 87.0882 121.934Z" fill="white"/>
<path d="M20.5996 145.965C20.5996 146.001 20.2356 146.153 19.6836 146.501C18.2422 147.418 17.1712 148.815 16.6596 150.445C16.4676 151.069 16.4196 151.473 16.3796 151.469C16.3631 151.374 16.3631 151.276 16.3796 151.181C16.402 150.917 16.4489 150.656 16.5196 150.401C16.738 149.558 17.1231 148.768 17.6521 148.077C18.1811 147.386 18.8433 146.808 19.5996 146.377C19.8258 146.244 20.0642 146.133 20.3116 146.045C20.4021 146.001 20.4996 145.974 20.5996 145.965Z" fill="white"/>
<path d="M45.174 185.717C45.174 185.717 45.102 185.621 44.934 185.493C44.6826 185.317 44.3743 185.241 44.07 185.281C43.8365 185.306 43.6119 185.384 43.414 185.511C43.2161 185.637 43.0504 185.808 42.93 186.009C42.6309 186.551 42.4922 187.167 42.53 187.785H42.346C42.3782 187.47 42.3424 187.153 42.241 186.853C42.1395 186.554 41.9748 186.279 41.758 186.049C41.5162 185.8 41.2053 185.628 40.8652 185.557C40.5252 185.486 40.1716 185.518 39.85 185.649C39.6439 185.737 39.4628 185.875 39.3232 186.05C39.1836 186.225 39.0897 186.433 39.05 186.653C39.0008 186.859 39.0017 187.073 39.0525 187.279C39.1033 187.484 39.2026 187.674 39.342 187.833L39.178 187.933C38.9655 187.169 38.5779 186.465 38.046 185.877C37.836 185.656 37.5729 185.492 37.2816 185.401C36.9904 185.31 36.6806 185.295 36.382 185.357C36.1894 185.412 36.0115 185.508 35.8613 185.641C35.7111 185.773 35.5924 185.937 35.514 186.121C35.4664 186.259 35.4368 186.403 35.426 186.549C35.3867 186.401 35.3966 186.244 35.454 186.101C35.5253 185.898 35.6431 185.715 35.798 185.565C35.9529 185.416 36.1405 185.305 36.346 185.241C36.6671 185.162 37.0033 185.167 37.3217 185.257C37.64 185.347 37.9296 185.518 38.162 185.753C38.7246 186.351 39.136 187.076 39.362 187.865L39.526 188.313L39.202 187.961C39.0392 187.78 38.9226 187.562 38.8621 187.326C38.8015 187.09 38.7987 186.842 38.854 186.605C38.9014 186.35 39.0113 186.111 39.174 185.909C39.3367 185.708 39.547 185.549 39.786 185.449C40.1466 185.302 40.5432 185.266 40.9246 185.345C41.3059 185.425 41.6547 185.617 41.926 185.897C42.1599 186.15 42.3367 186.45 42.4444 186.777C42.5521 187.104 42.5881 187.451 42.55 187.793H42.366C42.3323 187.144 42.4894 186.498 42.818 185.937C42.9647 185.704 43.1666 185.51 43.406 185.373C43.613 185.264 43.8404 185.198 44.074 185.181C44.4011 185.151 44.727 185.25 44.982 185.457C45.0663 185.527 45.1322 185.616 45.174 185.717Z" fill="#263238"/>
<path d="M100.911 184.949L100.223 187.845C100.223 187.845 95.4826 194.001 94.0226 193.697C93.0626 193.501 94.2426 191.897 96.0226 187.221L96.4226 185.293L100.911 184.949Z" fill="#B6B9C1"/>
<path d="M93.8297 192.8C93.8868 192.905 93.9747 192.991 94.0817 193.044C94.2302 193.108 94.3935 193.13 94.5537 193.108C94.7139 193.085 94.8648 193.019 94.9897 192.916C95.8189 192.22 96.6056 191.474 97.3457 190.684C98.2217 189.764 98.9457 188.876 99.4777 188.224L100.082 187.444C100.142 187.368 100.198 187.3 100.246 187.232C100.265 187.206 100.286 187.182 100.31 187.16C100.291 187.186 100.269 187.21 100.246 187.232L100.094 187.456C99.9617 187.648 99.7617 187.92 99.5097 188.256C98.8483 189.12 98.1406 189.948 97.3897 190.736C96.6429 191.534 95.8409 192.279 94.9897 192.964C94.8314 193.076 94.6465 193.143 94.4537 193.16C94.308 193.168 94.1627 193.137 94.0337 193.068C93.9515 193.026 93.8823 192.963 93.8337 192.884C93.828 192.857 93.8266 192.828 93.8297 192.8Z" fill="#263238"/>
<path d="M94.4961 190.8C94.623 190.749 94.7612 190.734 94.8961 190.756C95.2135 190.787 95.5191 190.893 95.7881 191.064C96.0674 191.224 96.2929 191.463 96.4361 191.752C96.5007 191.868 96.5364 191.999 96.5401 192.132C96.5401 192.132 96.4961 191.988 96.3841 191.78C96.2311 191.514 96.0103 191.293 95.7441 191.14C95.4845 190.973 95.1929 190.863 94.8881 190.816C94.7578 190.804 94.627 190.798 94.4961 190.8Z" fill="#263238"/>
<path d="M98.984 189.367C98.9559 189.324 98.9356 189.277 98.924 189.227C98.8847 189.096 98.854 188.962 98.832 188.827C98.7652 188.375 98.8421 187.913 99.052 187.507C99.2596 187.099 99.5975 186.773 100.012 186.579C100.139 186.519 100.273 186.479 100.412 186.459C100.461 186.451 100.511 186.451 100.56 186.459C100.383 186.506 100.21 186.567 100.044 186.643C99.6528 186.846 99.3351 187.166 99.136 187.559C98.9356 187.951 98.8536 188.393 98.9 188.831C98.932 189.159 98.996 189.363 98.984 189.367Z" fill="#263238"/>
<path d="M100.611 185.441C100.611 185.441 100.523 185.841 100.435 186.365C100.399 186.68 100.315 186.988 100.188 187.277C100.188 187.277 100.263 186.877 100.351 186.349C100.39 186.035 100.477 185.728 100.611 185.441Z" fill="#263238"/>
<path d="M95.957 187.627C96.1559 187.572 96.3661 187.572 96.565 187.627C96.7691 187.659 96.9595 187.749 97.113 187.887C97.113 187.911 96.865 187.783 96.545 187.711C96.225 187.639 95.961 187.655 95.957 187.627Z" fill="#263238"/>
<path d="M95.8633 188.126C96.0289 188.067 96.2097 188.067 96.3753 188.126C96.5498 188.152 96.7091 188.24 96.8233 188.374C96.8233 188.394 96.6193 188.27 96.3553 188.21C96.0913 188.15 95.8673 188.154 95.8633 188.126Z" fill="#263238"/>
<path d="M95.4805 188.749C95.5593 188.7 95.6474 188.669 95.7392 188.658C95.8309 188.646 95.924 188.654 96.0125 188.681C96.1039 188.694 96.1913 188.727 96.2686 188.777C96.346 188.828 96.4115 188.895 96.4605 188.973C96.3137 188.884 96.1565 188.814 95.9925 188.765C95.8231 188.738 95.6511 188.733 95.4805 188.749Z" fill="#263238"/>
<path d="M96.2852 187.419C96.2852 187.419 96.5012 187.363 96.8412 187.231C97.038 187.153 97.2292 187.06 97.4132 186.955C97.5132 186.895 97.6212 186.827 97.7252 186.755C97.8292 186.683 97.9292 186.579 97.9252 186.467C97.9212 186.355 97.7811 186.291 97.6731 186.319C97.5605 186.358 97.4599 186.426 97.3812 186.515C97.2052 186.679 97.0572 186.835 96.9372 186.971C96.6932 187.243 96.5612 187.423 96.5372 187.415C96.5575 187.367 96.5844 187.321 96.6172 187.279C96.6732 187.195 96.7612 187.075 96.8772 186.931C97.0142 186.766 97.1597 186.609 97.3132 186.459C97.4007 186.358 97.514 186.282 97.6412 186.239C97.6793 186.227 97.7196 186.224 97.7593 186.229C97.799 186.234 97.8371 186.248 97.871 186.269C97.9048 186.29 97.9336 186.319 97.9554 186.352C97.9772 186.386 97.9915 186.424 97.9972 186.463C97.9893 186.537 97.9642 186.608 97.9239 186.671C97.8836 186.733 97.8293 186.786 97.7652 186.823C97.6598 186.896 97.5503 186.963 97.4372 187.023C97.2494 187.129 97.0527 187.217 96.8492 187.287C96.7119 187.335 96.5716 187.374 96.4292 187.403C96.3412 187.423 96.2852 187.427 96.2852 187.419Z" fill="#263238"/>
<path d="M96.5341 187.362C96.4958 187.187 96.4664 187.011 96.4461 186.834C96.4159 186.645 96.3622 186.461 96.2861 186.286C96.2407 186.185 96.1814 186.091 96.1101 186.006C96.0381 185.926 95.9261 185.854 95.8381 185.906C95.7501 185.958 95.7381 186.09 95.7501 186.198C95.768 186.307 95.7989 186.413 95.8421 186.514C95.9207 186.687 96.0245 186.847 96.1501 186.99C96.3701 187.234 96.5501 187.35 96.5501 187.362C96.5501 187.374 96.5021 187.362 96.4261 187.29C96.3172 187.214 96.2155 187.128 96.1221 187.034C95.9843 186.891 95.8709 186.726 95.7861 186.546C95.7378 186.437 95.7029 186.323 95.6821 186.206C95.6655 186.138 95.6692 186.066 95.6926 186C95.7161 185.934 95.7583 185.876 95.8141 185.834C95.8801 185.808 95.9529 185.806 96.0205 185.827C96.0881 185.848 96.1465 185.891 96.1861 185.95C96.2633 186.041 96.3266 186.144 96.3741 186.254C96.4499 186.437 96.4998 186.629 96.5221 186.826C96.5421 186.99 96.5501 187.126 96.5541 187.226C96.5537 187.272 96.5469 187.318 96.5341 187.362Z" fill="#263238"/>
<path d="M123.601 186.292L123.621 182.428L116.401 182.34L116.301 188L116.749 188.036C118.749 188.172 126.905 188.58 128.245 188.192C129.741 187.752 123.601 186.292 123.601 186.292Z" fill="#B6B9C1"/>
<path d="M116.203 187.828H116.327L116.687 187.856L117.999 187.928C119.111 187.984 120.647 188.036 122.343 188.06C124.039 188.084 125.575 188.06 126.687 188.06L128.003 188.024H128.359H128.483H128.359H128.003H126.687C125.579 188.024 124.043 188.024 122.347 188.024C120.651 188.024 119.119 187.956 118.007 187.92L116.691 187.872H116.335L116.203 187.828Z" fill="#263238"/>
<path d="M125.951 188.147C126.013 187.931 126.097 187.722 126.203 187.523C126.336 187.342 126.489 187.175 126.659 187.027C126.433 187.105 126.244 187.265 126.131 187.475C125.99 187.669 125.925 187.909 125.951 188.147Z" fill="#263238"/>
<path d="M123.829 187.043C123.849 187.043 123.953 186.931 124.057 186.767C124.161 186.603 124.237 186.459 124.217 186.443C124.197 186.427 124.093 186.555 123.985 186.719C123.877 186.883 123.805 187.027 123.829 187.043Z" fill="#263238"/>
<path d="M123.244 186.72C123.244 186.74 123.376 186.664 123.5 186.556C123.624 186.448 123.716 186.339 123.7 186.319C123.684 186.299 123.568 186.379 123.444 186.488C123.32 186.596 123.228 186.704 123.244 186.72Z" fill="#263238"/>
<path d="M122.887 186.032C123.006 186.078 123.135 186.097 123.263 186.088C123.397 186.107 123.534 186.094 123.663 186.052C123.535 186.003 123.398 185.985 123.263 186C123.137 185.983 123.008 185.994 122.887 186.032Z" fill="#263238"/>
<path d="M122.762 185.555C122.887 185.636 123.033 185.68 123.182 185.683C123.329 185.71 123.482 185.69 123.618 185.627C123.48 185.607 123.341 185.599 123.202 185.603C123.057 185.572 122.91 185.556 122.762 185.555Z" fill="#263238"/>
<path d="M124.082 186.402C124.236 186.427 124.392 186.427 124.546 186.402C124.714 186.386 124.881 186.352 125.042 186.302C125.141 186.274 125.236 186.236 125.326 186.186C125.383 186.156 125.426 186.106 125.446 186.046C125.454 186.011 125.452 185.975 125.44 185.942C125.428 185.908 125.406 185.879 125.378 185.858C125.201 185.768 124.999 185.743 124.806 185.786C124.613 185.829 124.44 185.938 124.318 186.094C124.245 186.184 124.192 186.289 124.162 186.402C124.152 186.442 124.152 186.485 124.162 186.526C124.21 186.381 124.283 186.245 124.378 186.126C124.484 186.005 124.623 185.918 124.778 185.874C124.869 185.843 124.965 185.831 125.061 185.839C125.156 185.846 125.249 185.873 125.334 185.918C125.406 185.974 125.378 186.058 125.294 186.106C125.211 186.152 125.122 186.188 125.03 186.214C124.873 186.266 124.713 186.307 124.55 186.334C124.258 186.402 124.082 186.402 124.082 186.402Z" fill="#263238"/>
<path d="M124.2 186.435C124.259 186.338 124.279 186.223 124.256 186.111C124.245 185.99 124.203 185.873 124.136 185.771C124.096 185.699 124.039 185.639 123.968 185.596C123.898 185.553 123.818 185.53 123.736 185.527C123.689 185.538 123.647 185.566 123.62 185.606C123.592 185.646 123.581 185.695 123.588 185.743C123.599 185.817 123.625 185.888 123.664 185.951C123.724 186.055 123.796 186.15 123.88 186.235C123.952 186.319 124.042 186.385 124.144 186.427C124.144 186.427 124.052 186.343 123.928 186.191C123.854 186.106 123.789 186.012 123.736 185.911C123.672 185.811 123.632 185.635 123.736 185.615C123.84 185.595 123.972 185.723 124.04 185.815C124.104 185.906 124.148 186.01 124.168 186.119C124.187 186.224 124.198 186.329 124.2 186.435Z" fill="#263238"/>
<path d="M116.379 185.85C116.379 185.85 116.583 185.85 116.911 185.874C117.337 185.927 117.739 186.099 118.071 186.371C118.403 186.642 118.652 187.003 118.787 187.41C118.895 187.722 118.903 187.93 118.919 187.93C118.927 187.881 118.927 187.831 118.919 187.782C118.911 187.647 118.887 187.512 118.847 187.382C118.723 186.955 118.472 186.576 118.128 186.295C117.784 186.013 117.362 185.843 116.919 185.806C116.786 185.794 116.652 185.794 116.519 185.806C116.47 185.812 116.422 185.827 116.379 185.85Z" fill="#263238"/>
<path d="M117.164 182.848C117.106 183.34 117.078 183.836 117.08 184.332C117.051 184.827 117.051 185.324 117.08 185.82C117.136 185.326 117.163 184.829 117.16 184.332C117.19 183.837 117.191 183.342 117.164 182.848Z" fill="#263238"/>
<path d="M119.848 187.276C120.194 187.358 120.548 187.397 120.904 187.392C121.259 187.416 121.615 187.392 121.964 187.32C121.964 187.296 121.488 187.32 120.908 187.32C120.328 187.32 119.852 187.248 119.848 187.276Z" fill="#263238"/>
<path d="M118.43 187.258C118.41 187.258 118.466 187.358 118.514 187.466C118.562 187.574 118.586 187.67 118.61 187.67C118.634 187.67 118.65 187.558 118.61 187.43C118.57 187.302 118.446 187.238 118.43 187.258Z" fill="#263238"/>
<path d="M117.902 186.586C117.902 186.586 117.93 186.678 118.006 186.754C118.082 186.83 118.154 186.878 118.17 186.862C118.186 186.846 118.142 186.77 118.07 186.694C117.998 186.618 117.922 186.566 117.902 186.586Z" fill="#263238"/>
<path d="M117.141 186.267C117.141 186.291 117.241 186.291 117.349 186.331C117.457 186.371 117.529 186.427 117.549 186.411C117.569 186.395 117.509 186.295 117.377 186.247C117.245 186.199 117.133 186.247 117.141 186.267Z" fill="#263238"/>
<path d="M116.598 186.12C116.598 186.14 116.63 186.18 116.69 186.204C116.75 186.228 116.806 186.228 116.814 186.204C116.822 186.18 116.782 186.144 116.726 186.12C116.67 186.096 116.61 186.096 116.598 186.12Z" fill="#263238"/>
<path d="M128.494 112.305L125.718 184.829L114.446 185.065L116.318 122.229L103.646 185.545H92.9297L106.734 112.453L128.494 112.305Z" fill="#263238"/>
<path d="M118.913 114.945C118.904 115.348 118.861 115.75 118.785 116.145C118.681 116.877 118.521 117.893 118.333 119.005C118.261 119.537 118.154 120.064 118.013 120.581C117.885 121.016 117.628 121.403 117.277 121.689C117.04 121.881 116.758 122.006 116.457 122.053C116.349 122.081 116.236 122.081 116.129 122.053C116.517 121.997 116.882 121.835 117.185 121.585C117.5 121.304 117.726 120.937 117.837 120.529C117.966 120.018 118.066 119.5 118.137 118.977C118.325 117.861 118.505 116.853 118.645 116.125C118.703 115.725 118.792 115.331 118.913 114.945Z" fill="#B6B9C1"/>
<path d="M116.569 115.291C116.593 115.291 116.501 115.427 116.569 115.615C116.583 115.666 116.606 115.714 116.639 115.756C116.671 115.798 116.711 115.833 116.757 115.859C116.815 115.88 116.877 115.884 116.937 115.872C116.997 115.86 117.053 115.832 117.098 115.791C117.144 115.75 117.177 115.698 117.195 115.639C117.213 115.581 117.215 115.519 117.201 115.459C117.182 115.41 117.154 115.365 117.116 115.328C117.079 115.291 117.034 115.262 116.985 115.243C116.801 115.163 116.673 115.243 116.661 115.215C116.649 115.187 116.765 115.051 117.029 115.107C117.105 115.126 117.175 115.161 117.235 115.211C117.294 115.261 117.342 115.324 117.373 115.395C117.406 115.49 117.41 115.593 117.382 115.689C117.355 115.786 117.299 115.872 117.221 115.935C117.149 116.004 117.057 116.048 116.958 116.063C116.859 116.077 116.758 116.06 116.669 116.015C116.602 115.975 116.546 115.919 116.504 115.853C116.463 115.787 116.437 115.713 116.429 115.635C116.401 115.371 116.561 115.267 116.569 115.291Z" fill="#B6B9C1"/>
<path d="M110.519 116.328C110.387 116.003 110.338 115.65 110.376 115.301C110.413 114.952 110.537 114.618 110.735 114.328C110.787 114.352 110.623 114.78 110.571 115.328C110.519 115.876 110.575 116.312 110.519 116.328Z" fill="#B6B9C1"/>
<path d="M111.874 116.241C111.709 115.912 111.651 115.54 111.71 115.177C111.705 114.807 111.814 114.446 112.022 114.141C112.074 114.141 111.946 114.617 111.91 115.189C111.916 115.54 111.904 115.891 111.874 116.241Z" fill="#B6B9C1"/>
<path d="M123.522 116.535C123.511 116.172 123.533 115.808 123.586 115.447C123.573 115.083 123.589 114.718 123.634 114.355C123.785 114.701 123.836 115.082 123.782 115.455C123.796 115.832 123.706 116.206 123.522 116.535Z" fill="#B6B9C1"/>
<path d="M124.995 116.458C124.939 116.434 125.115 115.958 125.155 115.35C125.195 114.742 125.091 114.25 125.155 114.234C125.316 114.589 125.386 114.977 125.359 115.366C125.333 115.754 125.211 116.129 125.003 116.458H124.995Z" fill="#B6B9C1"/>
<path d="M112.8 82.1311L119.76 81.5751C119.804 80.7751 119.76 77.6231 119.76 77.6231C119.76 77.6231 122.656 77.1711 122.692 74.2791C122.728 71.3871 122.224 64.7391 122.224 64.7391C120.576 64.0251 118.767 63.7654 116.984 63.987C115.202 64.2086 113.511 64.9033 112.088 65.9991L111.66 66.3311L112.8 82.1311Z" fill="#FFBE9D"/>
<path d="M119.737 77.5993C118.401 77.6264 117.087 77.2531 115.965 76.5273C115.965 76.5273 116.857 78.6114 119.745 78.3514L119.737 77.5993Z" fill="#EB996E"/>
<path d="M121.07 69.2754C121.07 69.3815 121.028 69.4832 120.953 69.5582C120.878 69.6333 120.776 69.6754 120.67 69.6754C120.618 69.6792 120.565 69.6726 120.515 69.6559C120.465 69.6393 120.419 69.6129 120.379 69.5783C120.339 69.5438 120.307 69.5017 120.283 69.4545C120.26 69.4073 120.246 69.356 120.242 69.3034C120.242 69.1973 120.284 69.0956 120.359 69.0205C120.434 68.9455 120.536 68.9034 120.642 68.9034C120.695 68.8996 120.748 68.9062 120.798 68.9229C120.847 68.9395 120.894 68.9659 120.933 69.0004C120.973 69.035 121.006 69.0771 121.029 69.1243C121.053 69.1715 121.067 69.2228 121.07 69.2754Z" fill="#263238"/>
<path d="M121.65 68.7993C121.598 68.8513 121.286 68.6193 120.85 68.6193C120.414 68.6193 120.078 68.8433 120.03 68.7913C119.982 68.7393 120.058 68.6673 120.202 68.5633C120.396 68.432 120.624 68.3623 120.858 68.3633C121.089 68.3624 121.315 68.4353 121.502 68.5713C121.63 68.6873 121.674 68.7993 121.65 68.7993Z" fill="#263238"/>
<path d="M116.578 69.3809C116.578 69.4869 116.536 69.5887 116.461 69.6637C116.386 69.7387 116.284 69.7809 116.178 69.7809C116.125 69.7847 116.073 69.7781 116.023 69.7614C115.973 69.7447 115.926 69.7184 115.887 69.6838C115.847 69.6492 115.814 69.6072 115.791 69.56C115.767 69.5128 115.754 69.4614 115.75 69.4089C115.75 69.3028 115.792 69.201 115.867 69.126C115.942 69.051 116.044 69.0089 116.15 69.0089C116.203 69.0051 116.255 69.0117 116.305 69.0283C116.355 69.045 116.402 69.0713 116.441 69.1059C116.481 69.1405 116.514 69.1826 116.537 69.2297C116.561 69.2769 116.574 69.3283 116.578 69.3809Z" fill="#263238"/>
<path d="M117.279 68.8932C117.227 68.9492 116.915 68.7172 116.479 68.7172C116.043 68.7172 115.707 68.9412 115.659 68.8852C115.611 68.8292 115.687 68.7652 115.831 68.6612C116.023 68.5263 116.252 68.4562 116.487 68.4612C116.718 68.4603 116.944 68.5332 117.131 68.6692C117.259 68.7732 117.307 68.8692 117.279 68.8932Z" fill="#263238"/>
<path d="M118.895 72.1923C119.129 72.1196 119.371 72.0753 119.615 72.0603C119.731 72.0603 119.839 72.0283 119.855 71.9483C119.866 71.8311 119.839 71.7136 119.779 71.6123C119.675 71.3456 119.563 71.0576 119.443 70.7483C119.133 70.0163 118.881 69.2605 118.691 68.4883C119.061 69.1944 119.374 69.9287 119.627 70.6843C119.739 70.9843 119.843 71.2763 119.947 71.5523C120.018 71.6904 120.038 71.849 120.003 72.0003C119.987 72.0407 119.961 72.0768 119.929 72.1059C119.896 72.135 119.857 72.1564 119.815 72.1683C119.753 72.1863 119.688 72.1957 119.623 72.1963C119.382 72.2252 119.137 72.2238 118.895 72.1923Z" fill="#263238"/>
<path d="M117.602 72.5001C117.674 72.5001 117.674 72.9761 118.086 73.3201C118.498 73.6641 119.014 73.6121 119.018 73.6761C119.022 73.7401 118.902 73.7721 118.686 73.7761C118.403 73.7808 118.129 73.6859 117.91 73.5081C117.692 73.3374 117.549 73.0896 117.51 72.8161C117.498 72.6161 117.55 72.4961 117.602 72.5001Z" fill="#263238"/>
<path d="M117.393 67.1515C117.349 67.2715 116.905 67.2115 116.385 67.2755C115.865 67.3395 115.441 67.4835 115.369 67.3715C115.341 67.3195 115.413 67.2075 115.581 67.0915C115.809 66.9475 116.066 66.8571 116.333 66.8273C116.601 66.7975 116.872 66.829 117.125 66.9195C117.317 66.9955 117.413 67.0915 117.393 67.1515Z" fill="#263238"/>
<path d="M121.485 67.5237C121.409 67.6237 121.085 67.5237 120.733 67.5237C120.381 67.5237 120.053 67.5918 119.981 67.4837C119.909 67.3757 119.981 67.3317 120.137 67.2357C120.319 67.1177 120.533 67.0603 120.749 67.0717C120.965 67.0763 121.174 67.146 121.349 67.2717C121.477 67.3677 121.521 67.4717 121.485 67.5237Z" fill="#263238"/>
<path d="M112 69.3365C111.952 69.3165 110 68.7485 110.076 70.7285C110.152 72.7085 112.112 72.2365 112.116 72.1805C112.12 72.1245 112 69.3365 112 69.3365Z" fill="#FFBE9D"/>
<path d="M111.5 71.4496C111.5 71.4496 111.468 71.4736 111.412 71.5016C111.328 71.5356 111.235 71.5356 111.152 71.5016C111.025 71.4224 110.921 71.3112 110.851 71.1792C110.781 71.0472 110.747 70.899 110.752 70.7496C110.74 70.579 110.768 70.408 110.832 70.2496C110.848 70.1877 110.879 70.1307 110.923 70.0834C110.966 70.036 111.02 69.9998 111.08 69.9776C111.119 69.9663 111.161 69.9689 111.199 69.9849C111.237 70.0009 111.268 70.0294 111.288 70.0656C111.316 70.1216 111.288 70.1616 111.316 70.1656C111.344 70.1696 111.356 70.1296 111.34 70.0496C111.326 70.0002 111.297 69.9567 111.256 69.9256C111.199 69.8878 111.131 69.8721 111.064 69.8816C110.983 69.9004 110.909 69.9397 110.848 69.9958C110.787 70.0519 110.741 70.1228 110.716 70.2016C110.635 70.3753 110.599 70.5665 110.612 70.7576C110.607 70.934 110.656 71.1078 110.75 71.2567C110.845 71.4056 110.982 71.5229 111.144 71.5936C111.197 71.6075 111.253 71.6094 111.307 71.599C111.361 71.5886 111.412 71.5663 111.456 71.5336C111.5 71.4976 111.508 71.4536 111.5 71.4496Z" fill="#EB996E"/>
<path d="M123.304 62.2409C123.093 61.824 122.789 61.461 122.416 61.1796C122.044 60.8982 121.611 60.7059 121.152 60.6175C120.694 60.529 120.221 60.5468 119.77 60.6694C119.319 60.7921 118.903 61.0163 118.552 61.3249C118.332 60.8868 118.008 60.5092 117.609 60.2254C117.209 59.9415 116.746 59.76 116.26 59.6969C115.774 59.6337 115.28 59.6907 114.821 59.863C114.362 60.0353 113.952 60.3175 113.628 60.6849C113.072 61.3169 112.784 62.1689 112.136 62.6849C111.572 63.1449 110.812 63.2969 110.244 63.7489C109.93 64.0003 109.692 64.3333 109.556 64.7113C109.419 65.0892 109.39 65.4976 109.47 65.8913C109.551 66.2849 109.739 66.6488 110.013 66.9426C110.287 67.2365 110.637 67.4491 111.024 67.5569C110.881 67.8415 110.798 68.1521 110.78 68.4697C110.761 68.7874 110.807 69.1055 110.916 69.4048C111.024 69.7041 111.191 69.9783 111.409 70.2107C111.626 70.4431 111.888 70.629 112.18 70.7569L112.468 70.6369C113.007 70.0241 113.351 69.265 113.458 68.4561C113.565 67.6471 113.429 66.8246 113.068 66.0929C113.102 66.0949 113.137 66.0949 113.172 66.0929C113.669 66.3706 114.252 66.4539 114.808 66.3268C115.364 66.1998 115.852 65.8713 116.18 65.4049C116.581 65.6857 117.054 65.8458 117.543 65.8664C118.032 65.8869 118.517 65.7671 118.94 65.5209C119.058 65.4307 119.195 65.3667 119.34 65.3329C119.523 65.3359 119.702 65.3899 119.856 65.4889C120.285 65.721 120.774 65.8186 121.26 65.7689C121.484 65.7415 121.697 65.6583 121.88 65.5269C122.063 65.3954 122.21 65.2201 122.308 65.0169H122.344C122.62 64.9538 122.875 64.816 123.078 64.6185C123.282 64.421 123.428 64.1714 123.5 63.8969C123.644 63.3398 123.574 62.749 123.304 62.2409Z" fill="#263238"/>
<path d="M127.697 96.9783L127.953 83.9383C125.637 81.6623 124.401 80.9823 121.177 80.6023L120.301 80.5023L120.025 78.3543L112.121 77.9062L112.521 80.4583C111.377 80.5063 110.425 80.8583 109.453 81.0463C106.381 81.6343 104.169 83.8703 103.557 85.9383C103.049 87.6383 99.8045 100.242 99.8045 100.242L99.1445 104.046L106.401 101.414V104.154V114.218H128.401C128.477 111.818 127.697 96.9783 127.697 96.9783Z" fill="#721B65"/>
<g opacity="0.2">
<path opacity="0.2" d="M127.697 96.9783L127.953 83.9383C125.637 81.6623 124.401 80.9823 121.177 80.6023L120.301 80.5023L120.025 78.3543L112.121 77.9062L112.521 80.4583C111.377 80.5063 110.425 80.8583 109.453 81.0463C106.381 81.6343 104.169 83.8703 103.557 85.9383C103.049 87.6383 99.8045 100.242 99.8045 100.242L99.1445 104.046L106.401 101.414V104.154V114.218H128.401C128.477 111.818 127.697 96.9783 127.697 96.9783Z" fill="black"/>
</g>
<path d="M102.449 100.423L113.301 98.8828L115.365 102.579L105.277 107.127C104.714 107.385 104.104 107.521 103.485 107.527C102.619 107.525 101.773 107.264 101.055 106.779C100.338 106.294 99.7814 105.606 99.4569 104.803L99.1289 104.003L102.449 100.423Z" fill="#721B65"/>
<g opacity="0.2">
<path opacity="0.2" d="M102.449 100.423L113.301 98.8828L115.365 102.579L105.277 107.127C104.714 107.385 104.104 107.521 103.485 107.527C102.619 107.525 101.773 107.264 101.055 106.779C100.338 106.294 99.7814 105.606 99.4569 104.803L99.1289 104.003L102.449 100.423Z" fill="black"/>
</g>
<path d="M124.625 81.3984C124.625 81.3984 127.693 82.4424 128.981 85.3984C129.821 87.3264 131.057 96.5984 131.057 96.5984L132.613 99.6024C132.987 100.323 133.182 101.123 133.181 101.934V102.394C133.182 103.56 132.781 104.69 132.045 105.594C131.618 106.12 131.09 106.554 130.492 106.871C129.895 107.189 129.239 107.383 128.565 107.442C127.009 107.582 125.129 107.642 124.729 107.186C124.021 106.386 122.957 104.198 122.957 104.198L127.489 101.798L125.537 98.1984L124.625 81.3984Z" fill="#721B65"/>
<g opacity="0.2">
<path opacity="0.2" d="M124.625 81.3984C124.625 81.3984 127.693 82.4424 128.981 85.3984C129.821 87.3264 131.057 96.5984 131.057 96.5984L132.613 99.6024C132.987 100.323 133.182 101.123 133.181 101.934V102.394C133.182 103.56 132.781 104.69 132.045 105.594C131.618 106.12 131.09 106.554 130.492 106.871C129.895 107.189 129.239 107.383 128.565 107.442C127.009 107.582 125.129 107.642 124.729 107.186C124.021 106.386 122.957 104.198 122.957 104.198L127.489 101.798L125.537 98.1984L124.625 81.3984Z" fill="black"/>
</g>
<path d="M106.033 106.801C106.033 106.801 106.089 106.761 106.209 106.701L106.729 106.449L108.677 105.537L115.325 102.501L115.281 102.641L114.009 100.361L113.209 98.9448L113.305 98.9928L105.353 99.7728L102.993 99.9848L102.353 100.033C102.279 100.044 102.203 100.044 102.129 100.033C102.201 100.013 102.275 99.9996 102.349 99.9928L102.985 99.9128L105.341 99.6408L113.293 98.8008H113.357L113.389 98.8568L114.189 100.273L115.457 102.553L115.509 102.645L115.413 102.689L108.737 105.661L106.765 106.517L106.229 106.741C106.166 106.767 106.1 106.787 106.033 106.801Z" fill="#263238"/>
<path d="M107.963 99.3476C107.907 99.3476 107.863 97.4076 107.863 95.0156C107.863 92.6236 107.907 90.6836 107.963 90.6836C108.019 90.6836 108.063 92.6236 108.063 95.0156C108.063 97.4076 108.003 99.3476 107.963 99.3476Z" fill="#263238"/>
<path d="M126.64 102.249C126.64 102.249 126.756 102.213 126.968 102.197C127.274 102.168 127.583 102.186 127.884 102.249C128.104 102.296 128.304 102.411 128.456 102.577C128.615 102.776 128.718 103.013 128.756 103.265C128.805 103.542 128.781 103.828 128.684 104.093C128.575 104.376 128.384 104.621 128.136 104.797C127.656 105.09 127.121 105.281 126.564 105.357C126.12 105.443 125.669 105.487 125.216 105.489C124.798 105.525 124.378 105.452 123.996 105.277C124.4 105.339 124.808 105.363 125.216 105.349C125.657 105.328 126.096 105.27 126.528 105.177C127.056 105.097 127.563 104.913 128.02 104.637C128.229 104.488 128.391 104.283 128.49 104.046C128.588 103.81 128.618 103.55 128.576 103.297C128.547 103.075 128.463 102.863 128.332 102.681C128.203 102.537 128.035 102.434 127.848 102.385C127.56 102.313 127.265 102.275 126.968 102.273C126.858 102.278 126.748 102.27 126.64 102.249Z" fill="#263238"/>
<path d="M128.441 107.495C128.182 107.573 127.911 107.604 127.641 107.587C127.001 107.607 126.364 107.502 125.765 107.279C125.433 107.154 125.12 106.985 124.833 106.779C124.599 106.603 124.403 106.383 124.257 106.131C124.107 105.909 124.011 105.656 123.977 105.391C124.009 105.391 124.113 105.663 124.377 106.055C124.531 106.28 124.723 106.476 124.945 106.635C125.224 106.821 125.525 106.974 125.841 107.091C126.419 107.306 127.028 107.426 127.645 107.447C127.911 107.444 128.177 107.46 128.441 107.495Z" fill="#263238"/>
<path d="M130.609 98.0938C130.453 98.3262 130.273 98.542 130.073 98.7377C129.725 99.1177 129.233 99.6377 128.681 100.202C128.129 100.766 127.625 101.274 127.249 101.63C127.061 101.838 126.849 102.023 126.617 102.182C126.768 101.945 126.946 101.727 127.149 101.534C127.497 101.134 127.989 100.63 128.537 100.066C129.176 99.3563 129.869 98.6971 130.609 98.0938Z" fill="#263238"/>
<path d="M125.667 96.0693C125.567 95.248 125.534 94.42 125.567 93.5933C125.534 92.7653 125.567 91.9359 125.667 91.1133C125.767 91.9359 125.801 92.7653 125.767 93.5933C125.801 94.42 125.768 95.248 125.667 96.0693Z" fill="#263238"/>
<path d="M127.281 83.0767C127.281 83.1327 122.397 83.1807 116.373 83.1807C110.349 83.1807 105.465 83.1327 105.465 83.0767C105.465 83.0207 110.349 82.9727 116.373 82.9727C122.397 82.9727 127.281 83.0167 127.281 83.0767Z" fill="#FAFAFA"/>
<path d="M120.086 80.5762C118.834 80.6731 117.578 80.7011 116.322 80.6602C115.068 80.689 113.812 80.6463 112.562 80.5322C113.813 80.4379 115.069 80.4112 116.322 80.4522C117.578 80.4257 118.835 80.4671 120.086 80.5762Z" fill="#263238"/>
<path d="M129.652 87.483C129.652 87.539 123.724 87.587 116.408 87.587C109.092 87.587 103.16 87.539 103.16 87.483C103.16 87.427 109.092 87.375 116.408 87.375C123.724 87.375 129.652 87.423 129.652 87.483Z" fill="#FAFAFA"/>
<path d="M130.472 92.0024C130.472 92.0624 124.072 92.1064 116.156 92.1064C108.24 92.1064 101.84 92.0624 101.84 92.0024C101.84 91.9424 108.24 91.8984 116.156 91.8984C124.072 91.8984 130.472 91.9584 130.472 92.0024Z" fill="#FAFAFA"/>
<path d="M130.986 96.4204C130.986 96.4764 124.222 96.5244 115.878 96.5244C107.534 96.5244 100.77 96.4764 100.77 96.4204C100.77 96.3644 107.534 96.3164 115.878 96.3164C124.222 96.3164 130.986 96.3604 130.986 96.4204Z" fill="#FAFAFA"/>
<path d="M133.03 103.6C133.03 103.656 125.514 103.704 116.23 103.704C106.946 103.704 99.4297 103.656 99.4297 103.6C99.4297 103.544 106.946 103.496 116.23 103.496C125.514 103.496 133.03 103.536 133.03 103.6Z" fill="#FAFAFA"/>
<path d="M128.211 108.627C128.211 108.683 123.251 108.731 117.135 108.731C111.019 108.731 106.059 108.683 106.059 108.627C106.059 108.571 111.015 108.523 117.135 108.523C123.255 108.523 128.211 108.567 128.211 108.627Z" fill="#FAFAFA"/>
<path d="M123.083 97.1047L122.847 96.9287C122.243 96.4753 121.551 96.1532 120.815 95.983C120.079 95.8129 119.316 95.7985 118.575 95.9407C117.354 96.1746 116.211 96.711 115.251 97.5007L113.391 99.0327L115.367 102.577L116.715 100.693C116.715 100.693 117.971 102.397 118.195 102.217C118.394 102.004 118.56 101.763 118.687 101.501L117.791 100.245L119.943 100.693L123.083 99.2567L121.735 97.5527L123.083 98.0007V97.1047Z" fill="#FFBE9D"/>
<path d="M119.767 96.7797L112.859 105.144L113.391 105.716L124.599 104.008L130.159 95.6437L129.643 95.1797L119.767 96.7797Z" fill="#263238"/>
<path d="M127.093 98.9883C126.878 98.9875 126.668 99.0521 126.49 99.1735C126.312 99.295 126.175 99.4675 126.097 99.6683C125.976 100.086 125.741 100.461 125.417 100.752C124.917 101.024 124.057 101.24 123.605 101.02C123.153 100.8 121.341 99.1683 121.025 99.3483C120.709 99.5283 120.437 99.9363 120.753 100.3C121.069 100.664 122.753 101.748 122.429 102.112C122.105 102.476 118.577 100.88 118.029 101.02C117.481 101.16 117.169 101.492 117.485 101.712C117.801 101.932 120.201 102.836 120.337 103.152C120.337 103.152 116.713 102.2 116.578 102.428C116.442 102.656 116.218 103.016 116.578 103.152C116.937 103.288 120.065 104.104 120.337 104.24C120.787 104.425 121.255 104.559 121.733 104.64C122.228 104.769 122.715 104.922 123.193 105.1C123.926 105.357 124.728 105.336 125.445 105.04L125.813 104.892C126.092 104.778 126.328 104.58 126.487 104.326C126.647 104.071 126.724 103.772 126.705 103.472L126.633 102.24L127.033 101.22L127.093 98.9883Z" fill="#FFBE9D"/>
<path d="M130.178 95.7223C130.111 95.7481 130.041 95.7655 129.97 95.7742L129.37 95.8783L127.162 96.2343L123.882 96.7343L121.946 97.0263C121.262 97.1013 120.613 97.3644 120.07 97.7863C119.572 98.2708 119.115 98.7967 118.706 99.3583C118.278 99.8863 117.87 100.398 117.478 100.886L115.394 103.466L113.974 105.202L113.574 105.666C113.53 105.722 113.481 105.773 113.426 105.818C113.426 105.818 113.458 105.754 113.542 105.642L113.906 105.154L115.274 103.386L117.326 100.774L118.526 99.2383C118.943 98.6663 119.409 98.131 119.918 97.6383C120.488 97.1943 121.171 96.9174 121.89 96.8382L123.83 96.5583L127.118 96.0983L129.338 95.8062L129.942 95.7382C130.019 95.7198 130.099 95.7144 130.178 95.7223Z" fill="#B6B9C1"/>
<path d="M124.935 97.5547C124.815 97.6169 124.709 97.7026 124.623 97.8067C124.584 97.8616 124.562 97.9273 124.562 97.9947C124.562 98.0621 124.584 98.1278 124.623 98.1827C124.687 98.2389 124.769 98.2699 124.855 98.2699C124.94 98.2699 125.022 98.2389 125.087 98.1827C125.177 98.1187 125.24 98.023 125.263 97.9147C125.274 97.861 125.272 97.8052 125.256 97.7526C125.24 97.7001 125.21 97.6526 125.171 97.6147C125.127 97.581 125.074 97.5626 125.019 97.5626C124.964 97.5626 124.91 97.581 124.867 97.6147" fill="#FAFAFA"/>
<path d="M92.2127 78.7454L90.1807 75.1455C91.4374 73.1046 91.8853 70.6674 91.4362 68.3131C90.9872 65.9588 89.6737 63.8576 87.754 62.4226C85.8343 60.9876 83.4472 60.3226 81.062 60.5583C78.6769 60.794 76.4662 61.9134 74.8645 63.6965C73.2629 65.4795 72.3861 67.7972 72.4066 70.1939C72.4271 72.5906 73.3434 74.8929 74.9753 76.6483C76.6073 78.4036 78.8368 79.4851 81.2256 79.6799C83.6145 79.8748 85.9898 79.1691 87.8847 77.7015L92.2127 78.7454Z" fill="#721B65"/>
<path d="M78.6914 68.9862C78.6914 68.1222 79.2114 67.5742 79.9514 67.5742C80.6914 67.5742 81.2034 68.1142 81.2034 68.9862C81.2034 69.8582 80.6874 70.4022 79.9514 70.4022C79.2154 70.4022 78.6914 69.8542 78.6914 68.9862ZM80.4794 68.9862C80.4794 68.4382 80.2674 68.1862 79.9514 68.1862C79.6354 68.1862 79.4234 68.4582 79.4234 68.9862C79.4234 69.5142 79.6394 69.7862 79.9514 69.7862C80.2634 69.7862 80.4794 69.5382 80.4794 68.9862ZM82.9674 67.6302H83.8274L80.3714 72.7622H79.5114L82.9674 67.6302ZM82.1354 71.4062C82.1354 70.5422 82.6554 69.9902 83.3874 69.9902C84.1194 69.9902 84.6434 70.5422 84.6434 71.4062C84.6434 72.2702 84.1234 72.8222 83.3874 72.8222C82.6514 72.8222 82.1354 72.2702 82.1354 71.4062ZM83.9154 71.4062C83.9154 70.8622 83.7034 70.6062 83.3874 70.6062C83.0714 70.6062 82.8594 70.8702 82.8594 71.4062C82.8594 71.9422 83.0754 72.2062 83.3874 72.2062C83.6994 72.2062 83.9154 71.9502 83.9154 71.4062Z" fill="white"/>
</svg>
