<svg width="300" height="300" viewBox="0 0 300 300" fill="none" xmlns="http://www.w3.org/2000/svg">
<path d="M300 229.441H0V229.591H300V229.441Z" fill="#B6B9C1"/>
<path d="M198.734 240.727H193.52V240.877H198.734V240.727Z" fill="#B6B9C1"/>
<path d="M103.931 233.27H90.0234V233.42H103.931V233.27Z" fill="#B6B9C1"/>
<path d="M275.264 236.484H241.262V236.634H275.264V236.484Z" fill="#B6B9C1"/>
<path d="M59.6348 236.484H25.6328V236.634H59.6348V236.484Z" fill="#B6B9C1"/>
<path d="M142.2 202.68H26.3458C25.4382 202.678 24.5683 202.317 23.9271 201.674C23.2859 201.032 22.9258 200.162 22.9258 199.254V36.396C22.9337 35.4936 23.2973 34.6308 23.9376 33.9949C24.578 33.3591 25.4434 33.0015 26.3458 33H142.2C143.108 33 143.98 33.361 144.622 34.0035C145.265 34.646 145.626 35.5174 145.626 36.426V199.254C145.626 200.163 145.265 201.034 144.622 201.677C143.98 202.319 143.108 202.68 142.2 202.68ZM26.3458 33.12C25.478 33.1216 24.6463 33.4674 24.0332 34.0816C23.4201 34.6958 23.0758 35.5282 23.0758 36.396V199.254C23.0758 200.122 23.4201 200.954 24.0332 201.568C24.6463 202.183 25.478 202.528 26.3458 202.53H142.2C143.068 202.528 143.9 202.183 144.515 201.569C145.129 200.955 145.474 200.122 145.476 199.254V36.396C145.474 35.5276 145.129 34.6953 144.515 34.0813C143.9 33.4672 143.068 33.1216 142.2 33.12H26.3458Z" fill="#B6B9C1"/>
<path d="M271.985 202.68H156.125C155.217 202.678 154.347 202.317 153.704 201.675C153.062 201.033 152.701 200.162 152.699 199.254V36.396C152.709 35.4931 153.074 34.6302 153.715 33.9946C154.356 33.3589 155.222 33.0015 156.125 33H271.985C272.887 33.0031 273.75 33.3613 274.389 33.997C275.029 34.6327 275.391 35.4947 275.399 36.396V199.254C275.399 200.161 275.04 201.03 274.4 201.672C273.76 202.314 272.892 202.677 271.985 202.68ZM156.125 33.12C155.257 33.1216 154.425 33.4672 153.81 34.0813C153.196 34.6953 152.851 35.5276 152.849 36.396V199.254C152.851 200.122 153.196 200.955 153.81 201.569C154.425 202.183 155.257 202.528 156.125 202.53H271.985C272.854 202.528 273.686 202.183 274.3 201.569C274.914 200.955 275.26 200.122 275.261 199.254V36.396C275.26 35.5276 274.914 34.6953 274.3 34.0813C273.686 33.4672 272.854 33.1216 271.985 33.12H156.125Z" fill="#B6B9C1"/>
<path d="M67.981 141.816L227.293 141.816V55.2784L67.981 55.2784V141.816Z" fill="#E6E6E6"/>
<path d="M66.1685 141.816L225.48 141.816V55.2784L66.1685 55.2784V141.816Z" fill="#BFBFBF"/>
<path d="M222.234 138.168V58.9258L69.4204 58.9258V138.168H222.234Z" fill="white"/>
<path d="M70.7891 138.176V58.9336H69.4211V138.176H70.7891Z" fill="#E6E6E6"/>
<path d="M67.5127 124.297L224.137 124.297V119.401L67.5127 119.401V124.297Z" fill="#BFBFBF"/>
<path d="M67.5127 82.6914L224.137 82.6914V77.7954L67.5127 77.7954V82.6914Z" fill="#BFBFBF"/>
<path d="M62.6329 49.2422H230.831C230.964 49.2438 231.09 49.2976 231.183 49.3919C231.277 49.4863 231.329 49.6136 231.329 49.7462C231.329 49.8783 231.276 50.0049 231.183 50.0983C231.09 50.1917 230.963 50.2442 230.831 50.2442H62.6329C62.5003 50.2442 62.373 50.1919 62.2786 50.0987C62.1843 50.0055 62.1305 49.8788 62.1289 49.7462C62.1305 49.613 62.1841 49.4857 62.2782 49.3915C62.3724 49.2973 62.4997 49.2437 62.6329 49.2422Z" fill="#E6E6E6"/>
<path d="M59.6328 49.7442C59.6328 50.2393 59.7797 50.7233 60.0549 51.1349C60.3301 51.5464 60.7212 51.8671 61.1787 52.0563C61.6363 52.2455 62.1396 52.2947 62.6251 52.1977C63.1106 52.1006 63.5565 51.8618 63.9061 51.5112C64.2558 51.1607 64.4936 50.7144 64.5895 50.2286C64.6853 49.7429 64.6349 49.2396 64.4446 48.7826C64.2543 48.3255 63.9327 47.9351 63.5205 47.6609C63.1082 47.3867 62.6239 47.241 62.1288 47.2422C61.8005 47.2422 61.4755 47.307 61.1723 47.4328C60.869 47.5586 60.5936 47.743 60.3618 47.9754C60.1299 48.2078 59.9462 48.4837 59.8211 48.7872C59.696 49.0907 59.632 49.4159 59.6328 49.7442Z" fill="#E6E6E6"/>
<path d="M226.62 52.5406C226.798 52.5406 226.969 52.4698 227.095 52.3437C227.221 52.2177 227.292 52.0468 227.292 51.8686V50.3986C227.292 50.2203 227.221 50.0494 227.095 49.9234C226.969 49.7974 226.798 49.7266 226.62 49.7266C226.441 49.7266 226.269 49.7972 226.142 49.923C226.015 50.0489 225.943 50.2198 225.942 50.3986V51.8506C225.94 51.9406 225.956 52.0301 225.99 52.1137C226.023 52.1974 226.073 52.2735 226.136 52.3378C226.199 52.402 226.274 52.453 226.357 52.4878C226.44 52.5226 226.529 52.5406 226.62 52.5406Z" fill="#E6E6E6"/>
<path d="M70.1984 52.5428C70.3771 52.5428 70.5487 52.4722 70.6757 52.3463C70.8026 52.2205 70.8748 52.0495 70.8764 51.8708V50.4008C70.8701 50.2251 70.796 50.0588 70.6695 49.9368C70.543 49.8148 70.3741 49.7467 70.1984 49.7468C70.1091 49.7428 70.02 49.7566 69.9361 49.7874C69.8523 49.8183 69.7754 49.8655 69.7101 49.9264C69.6447 49.9873 69.5921 50.0606 69.5554 50.1421C69.5187 50.2235 69.4987 50.3115 69.4964 50.4008V51.8528C69.4938 51.9451 69.5103 52.037 69.5448 52.1226C69.5793 52.2083 69.6312 52.286 69.697 52.3507C69.7629 52.4155 69.8414 52.4659 69.9277 52.499C70.0139 52.532 70.1061 52.5469 70.1984 52.5428Z" fill="#E6E6E6"/>
<path opacity="0.5" d="M62.7946 67.9141L224.141 67.9141V49.7461L62.7946 49.7461V67.9141Z" fill="#B6B9C1"/>
<path d="M218.576 52.2462C219.958 52.2462 221.078 51.126 221.078 49.7442C221.078 48.3624 219.958 47.2422 218.576 47.2422C217.194 47.2422 216.074 48.3624 216.074 49.7442C216.074 51.126 217.194 52.2462 218.576 52.2462Z" fill="#E6E6E6"/>
<path d="M177.534 229.441H187.77V161.017H177.534V229.441Z" fill="#E6E6E6"/>
<path d="M180.229 229.439H177.535V220.121H183.049L180.229 229.439Z" fill="#F0F0F0"/>
<path d="M260.659 229.441H270.895V161.017H260.659V229.441Z" fill="#E6E6E6"/>
<path d="M177.534 223.723H263.004V161.017H177.534V223.723Z" fill="#F0F0F0"/>
<path d="M179.624 180.984H260.918V163.788H179.624V180.984Z" fill="#E6E6E6"/>
<path d="M195.751 169.134H243.001C245.623 169.134 248.137 167.016 249.943 163.266H188.809C190.615 167.016 193.123 169.134 195.751 169.134Z" fill="#F0F0F0"/>
<path d="M260.314 229.439H263.002V220.121H257.488L260.314 229.439Z" fill="#F0F0F0"/>
<path d="M179.624 200.965H260.918V183.769H179.624V200.965Z" fill="#E6E6E6"/>
<path d="M195.751 189.114H243.001C245.623 189.114 248.137 186.99 249.943 183.246H188.809C190.615 186.99 193.123 189.114 195.751 189.114Z" fill="#F0F0F0"/>
<path d="M179.624 220.945H260.918V203.749H179.624V220.945Z" fill="#E6E6E6"/>
<path d="M195.751 209.087H243.001C245.623 209.087 248.137 206.963 249.943 203.219H188.809C190.615 206.963 193.123 209.087 195.751 209.087Z" fill="#F0F0F0"/>
<path d="M239.533 126.71C237.913 121.256 258.091 93.9676 266.947 94.7836C275.803 95.5996 260.233 128.702 255.451 131.63C250.057 134.936 241.297 132.644 239.533 126.71Z" fill="#BFBFBF"/>
<path d="M238.375 134.573C237.595 131.789 251.701 127.259 257.305 130.541C262.909 133.823 251.467 142.277 248.305 141.893C244.699 141.461 239.227 137.603 238.375 134.573Z" fill="#BFBFBF"/>
<path d="M255.512 132.079C257.462 128.419 243.098 107.041 235.442 106.645C227.786 106.249 237.62 131.245 241.394 133.807C245.66 136.717 253.382 136.057 255.512 132.079Z" fill="#BFBFBF"/>
<path d="M248.148 120.703H248.118C247.754 120.698 247.401 120.824 247.123 121.059C246.845 121.294 246.661 121.622 246.606 121.981C244.943 133.26 244.741 144.707 246.006 156.037C246.048 156.398 246.22 156.731 246.489 156.975C246.758 157.219 247.107 157.357 247.47 157.363H247.5C247.712 157.366 247.923 157.324 248.117 157.24C248.312 157.155 248.486 157.03 248.629 156.873C248.771 156.715 248.879 156.53 248.944 156.328C249.009 156.126 249.03 155.912 249.006 155.701C247.801 144.621 248 133.432 249.6 122.401C249.63 122.192 249.615 121.979 249.556 121.776C249.497 121.573 249.395 121.385 249.258 121.224C249.121 121.063 248.951 120.934 248.759 120.844C248.568 120.754 248.359 120.706 248.148 120.703Z" fill="#B6B9C1"/>
<path d="M247.051 161.009C252.355 161.009 256.825 157.889 257.911 153.659C258.177 152.53 258.557 151.43 259.045 150.377L259.129 150.203H234.973L235.057 150.377C235.545 151.43 235.925 152.53 236.191 153.659C237.277 157.889 241.753 161.009 247.051 161.009Z" fill="#FAFAFA"/>
<path d="M234.922 151.267H259.199C259.877 151.267 260.465 150.607 260.633 149.659C260.873 148.297 260.165 146.977 259.199 146.977H234.922C233.956 146.977 233.248 148.297 233.494 149.659C233.662 150.601 234.25 151.267 234.922 151.267Z" fill="#F0F0F0"/>
<path d="M160.148 186.336H130.262V229.44H160.148V186.336Z" fill="#F0F0F0"/>
<path d="M41.3816 229.441H130.266V186.337H41.3816V229.441Z" fill="#BFBFBF"/>
<path d="M49.1885 219.895H67.9805V200.761H49.1885V219.895Z" fill="#FAFAFA"/>
<path d="M74.7002 219.895H93.4922V200.761H74.7002V219.895Z" fill="#FAFAFA"/>
<g style="mix-blend-mode:multiply" opacity="0.7">
<path d="M160.145 190.922H41.0625V193.376H160.145V190.922Z" fill="#E6E6E6"/>
</g>
<path d="M161.798 184.848H130.262V191.958H161.798V184.848Z" fill="#F0F0F0"/>
<path d="M39.7316 191.953H130.266V184.843H39.7316V191.953Z" fill="#BFBFBF"/>
<path d="M65.3398 172.746C65.3398 172.746 65.9098 184.848 87.7198 184.848C109.53 184.848 110.1 172.746 110.1 172.746H65.3398Z" fill="#F0F0F0"/>
<path d="M65.3398 164.73C65.3398 164.73 65.9098 176.832 87.7198 176.832C109.53 176.832 110.1 164.73 110.1 164.73H65.3398Z" fill="#F0F0F0"/>
<path d="M150.002 256.537C214.251 256.537 266.336 253.496 266.336 249.745C266.336 245.994 214.251 242.953 150.002 242.953C85.7525 242.953 33.668 245.994 33.668 249.745C33.668 253.496 85.7525 256.537 150.002 256.537Z" fill="#B6B9C1"/>
<path d="M114.805 236.676H55.8906V247.764H114.805V236.676Z" fill="#721B65"/>
<path opacity="0.2" d="M114.805 236.676H55.8906V237.936H114.805V236.676Z" fill="black"/>
<path opacity="0.2" d="M62.5251 236.676H60.2031V247.764H62.5251V236.676Z" fill="black"/>
<path opacity="0.2" d="M67.8532 236.676H65.5312V247.764H67.8532V236.676Z" fill="black"/>
<path opacity="0.2" d="M73.1853 236.676H70.8633V247.764H73.1853V236.676Z" fill="black"/>
<path opacity="0.2" d="M78.5134 236.676H76.1914V247.764H78.5134V236.676Z" fill="black"/>
<path opacity="0.2" d="M83.8415 236.676H81.5195V247.764H83.8415V236.676Z" fill="black"/>
<path opacity="0.2" d="M89.1775 236.676H86.8555V247.764H89.1775V236.676Z" fill="black"/>
<path opacity="0.2" d="M94.5056 236.676H92.1836V247.764H94.5056V236.676Z" fill="black"/>
<path opacity="0.2" d="M99.8337 236.676H97.5117V247.764H99.8337V236.676Z" fill="black"/>
<path opacity="0.2" d="M105.166 236.676H102.844V247.764H105.166V236.676Z" fill="black"/>
<path opacity="0.2" d="M110.494 236.676H108.172V247.764H110.494V236.676Z" fill="black"/>
<path d="M112.41 225.59H53.4961V236.678H112.41V225.59Z" fill="#721B65"/>
<path opacity="0.2" d="M112.41 225.59H53.4961V226.85H112.41V225.59Z" fill="black"/>
<path opacity="0.2" d="M60.1267 225.59H57.8047V236.678H60.1267V225.59Z" fill="black"/>
<path opacity="0.2" d="M65.4587 225.59H63.1367V236.678H65.4587V225.59Z" fill="black"/>
<path opacity="0.2" d="M70.7868 225.59H68.4648V236.678H70.7868V225.59Z" fill="black"/>
<path opacity="0.2" d="M76.115 225.59H73.793V236.678H76.115V225.59Z" fill="black"/>
<path opacity="0.2" d="M81.447 225.59H79.125V236.678H81.447V225.59Z" fill="black"/>
<path opacity="0.2" d="M86.7751 225.59H84.4531V236.678H86.7751V225.59Z" fill="black"/>
<path opacity="0.2" d="M92.1032 225.59H89.7812V236.678H92.1032V225.59Z" fill="black"/>
<path opacity="0.2" d="M97.4392 225.59H95.1172V236.678H97.4392V225.59Z" fill="black"/>
<path opacity="0.2" d="M102.767 225.59H100.445V236.678H102.767V225.59Z" fill="black"/>
<path opacity="0.2" d="M108.095 225.59H105.773V236.678H108.095V225.59Z" fill="black"/>
<path d="M110.711 214.5H51.7969V225.588H110.711V214.5Z" fill="#721B65"/>
<path opacity="0.2" d="M110.711 214.5H51.7969V215.76H110.711V214.5Z" fill="black"/>
<path opacity="0.2" d="M58.4314 214.5H56.1094V225.588H58.4314V214.5Z" fill="black"/>
<path opacity="0.2" d="M63.7595 214.5H61.4375V225.588H63.7595V214.5Z" fill="black"/>
<path opacity="0.2" d="M69.0954 214.5H66.7734V225.588H69.0954V214.5Z" fill="black"/>
<path opacity="0.2" d="M74.4236 214.5H72.1016V225.588H74.4236V214.5Z" fill="black"/>
<path opacity="0.2" d="M79.7517 214.5H77.4297V225.588H79.7517V214.5Z" fill="black"/>
<path opacity="0.2" d="M85.0837 214.5H82.7617V225.588H85.0837V214.5Z" fill="black"/>
<path opacity="0.2" d="M90.4118 214.5H88.0898V225.588H90.4118V214.5Z" fill="black"/>
<path opacity="0.2" d="M95.74 214.5H93.418V225.588H95.74V214.5Z" fill="black"/>
<path opacity="0.2" d="M101.076 214.5H98.7539V225.588H101.076V214.5Z" fill="black"/>
<path opacity="0.2" d="M106.404 214.5H104.082V225.588H106.404V214.5Z" fill="black"/>
<path d="M113.383 203.418H54.4688V214.506H113.383V203.418Z" fill="#721B65"/>
<path opacity="0.2" d="M113.383 203.418H54.4688V204.678H113.383V203.418Z" fill="black"/>
<path opacity="0.2" d="M61.0954 203.418H58.7734V214.506H61.0954V203.418Z" fill="black"/>
<path opacity="0.2" d="M66.4314 203.418H64.1094V214.506H66.4314V203.418Z" fill="black"/>
<path opacity="0.2" d="M71.7595 203.418H69.4375V214.506H71.7595V203.418Z" fill="black"/>
<path opacity="0.2" d="M77.0876 203.418H74.7656V214.506H77.0876V203.418Z" fill="black"/>
<path opacity="0.2" d="M82.4197 203.418H80.0977V214.506H82.4197V203.418Z" fill="black"/>
<path opacity="0.2" d="M87.7478 203.418H85.4258V214.506H87.7478V203.418Z" fill="black"/>
<path opacity="0.2" d="M93.0759 203.418H90.7539V214.506H93.0759V203.418Z" fill="black"/>
<path opacity="0.2" d="M98.4118 203.418H96.0898V214.506H98.4118V203.418Z" fill="black"/>
<path opacity="0.2" d="M103.74 203.418H101.418V214.506H103.74V203.418Z" fill="black"/>
<path opacity="0.2" d="M109.068 203.418H106.746V214.506H109.068V203.418Z" fill="black"/>
<path d="M51.879 203.414H110.793V192.326H51.879V203.414Z" fill="#721B65"/>
<path opacity="0.2" d="M51.879 193.586H110.793V192.326H51.879V193.586Z" fill="black"/>
<path opacity="0.2" d="M104.158 203.414H106.48V192.326H104.158V203.414Z" fill="black"/>
<path opacity="0.2" d="M98.8264 203.414H101.148V192.326H98.8264V203.414Z" fill="black"/>
<path opacity="0.2" d="M93.4983 203.414H95.8203V192.326H93.4983V203.414Z" fill="black"/>
<path opacity="0.2" d="M88.1702 203.414H90.4922V192.326H88.1702V203.414Z" fill="black"/>
<path opacity="0.2" d="M82.8343 203.414H85.1562V192.326H82.8343V203.414Z" fill="black"/>
<path opacity="0.2" d="M77.5061 203.414H79.8281V192.326H77.5061V203.414Z" fill="black"/>
<path opacity="0.2" d="M72.178 203.414H74.5V192.326H72.178V203.414Z" fill="black"/>
<path opacity="0.2" d="M66.846 203.414H69.168V192.326H66.846V203.414Z" fill="black"/>
<path opacity="0.2" d="M61.5178 203.414H63.8398V192.326H61.5178V203.414Z" fill="black"/>
<path opacity="0.2" d="M56.1897 203.414H58.5117V192.326H56.1897V203.414Z" fill="black"/>
<path d="M54.2735 192.332H113.188V181.244H54.2735V192.332Z" fill="#721B65"/>
<path opacity="0.2" d="M54.2735 182.504H113.188V181.244H54.2735V182.504Z" fill="black"/>
<path opacity="0.2" d="M106.553 192.332H108.875V181.244H106.553V192.332Z" fill="black"/>
<path opacity="0.2" d="M101.233 192.332H103.555V181.244H101.233V192.332Z" fill="black"/>
<path opacity="0.2" d="M95.8968 192.332H98.2188V181.244H95.8968V192.332Z" fill="black"/>
<path opacity="0.2" d="M90.5608 192.332H92.8828V181.244H90.5608V192.332Z" fill="black"/>
<path opacity="0.2" d="M85.2405 192.332H87.5625V181.244H85.2405V192.332Z" fill="black"/>
<path opacity="0.2" d="M79.9085 192.332H82.2305V181.244H79.9085V192.332Z" fill="black"/>
<path opacity="0.2" d="M74.5725 192.332H76.8945V181.244H74.5725V192.332Z" fill="black"/>
<path opacity="0.2" d="M69.2522 192.332H71.5742V181.244H69.2522V192.332Z" fill="black"/>
<path opacity="0.2" d="M63.9163 192.332H66.2383V181.244H63.9163V192.332Z" fill="black"/>
<path opacity="0.2" d="M58.5843 192.332H60.9062V181.244H58.5843V192.332Z" fill="black"/>
<path d="M55.9727 181.242H114.887V170.154H55.9727V181.242Z" fill="#721B65"/>
<path opacity="0.2" d="M55.9727 171.414H114.887V170.154H55.9727V171.414Z" fill="black"/>
<path opacity="0.2" d="M108.252 181.242H110.574V170.154H108.252V181.242Z" fill="black"/>
<path opacity="0.2" d="M102.916 181.242H105.238V170.154H102.916V181.242Z" fill="black"/>
<path opacity="0.2" d="M97.5882 181.242H99.9102V170.154H97.5882V181.242Z" fill="black"/>
<path opacity="0.2" d="M92.26 181.242H94.582V170.154H92.26V181.242Z" fill="black"/>
<path opacity="0.2" d="M86.928 181.242H89.25V170.154H86.928V181.242Z" fill="black"/>
<path opacity="0.2" d="M81.5999 181.242H83.9219V170.154H81.5999V181.242Z" fill="black"/>
<path opacity="0.2" d="M76.2718 181.242H78.5938V170.154H76.2718V181.242Z" fill="black"/>
<path opacity="0.2" d="M70.9358 181.242H73.2578V170.154H70.9358V181.242Z" fill="black"/>
<path opacity="0.2" d="M65.6077 181.242H67.9297V170.154H65.6077V181.242Z" fill="black"/>
<path opacity="0.2" d="M60.2796 181.242H62.6016V170.154H60.2796V181.242Z" fill="black"/>
<path d="M53.3047 170.156H112.219V159.068H53.3047V170.156Z" fill="#721B65"/>
<path opacity="0.2" d="M53.3047 160.328H112.219V159.068H53.3047V160.328Z" fill="black"/>
<path opacity="0.2" d="M105.58 170.156H107.902V159.068H105.58V170.156Z" fill="black"/>
<path opacity="0.2" d="M100.26 170.156H102.582V159.068H100.26V170.156Z" fill="black"/>
<path opacity="0.2" d="M94.9241 170.156H97.2461V159.068H94.9241V170.156Z" fill="black"/>
<path opacity="0.2" d="M89.5921 170.156H91.9141V159.068H89.5921V170.156Z" fill="black"/>
<path opacity="0.2" d="M84.2678 170.156H86.5898V159.068H84.2678V170.156Z" fill="black"/>
<path opacity="0.2" d="M78.9358 170.156H81.2578V159.068H78.9358V170.156Z" fill="black"/>
<path opacity="0.2" d="M73.5999 170.156H75.9219V159.068H73.5999V170.156Z" fill="black"/>
<path opacity="0.2" d="M68.2796 170.156H70.6016V159.068H68.2796V170.156Z" fill="black"/>
<path opacity="0.2" d="M62.9436 170.156H65.2656V159.068H62.9436V170.156Z" fill="black"/>
<path opacity="0.2" d="M57.6116 170.156H59.9336V159.068H57.6116V170.156Z" fill="black"/>
<path d="M240.395 115.199L216.899 119.225C216.447 119.301 216.028 119.51 215.695 119.825C215.362 120.14 215.13 120.547 215.029 120.994C214.928 121.441 214.962 121.908 215.128 122.336C215.293 122.764 215.581 123.132 215.957 123.395L220.289 126.461L193.727 164.009C193.554 164.253 193.335 164.461 193.082 164.62C192.829 164.78 192.547 164.888 192.252 164.938C191.957 164.988 191.655 164.979 191.364 164.913C191.072 164.846 190.797 164.723 190.553 164.549L151.511 136.949C151.016 136.601 150.404 136.463 149.808 136.566C149.212 136.668 148.681 137.002 148.331 137.495L69.6289 248.735H97.9129L153.851 169.661C154.024 169.417 154.243 169.209 154.496 169.05C154.749 168.891 155.031 168.783 155.326 168.733C155.621 168.683 155.923 168.691 156.214 168.758C156.506 168.825 156.781 168.948 157.025 169.121L196.067 196.721C196.311 196.894 196.588 197.018 196.88 197.084C197.172 197.15 197.475 197.158 197.77 197.108C198.065 197.057 198.348 196.948 198.601 196.788C198.855 196.628 199.074 196.42 199.247 196.175L239.141 139.775L243.479 142.841C243.853 143.099 244.294 143.241 244.748 143.25C245.202 143.259 245.649 143.134 246.032 142.891C246.416 142.648 246.72 142.298 246.906 141.883C247.092 141.469 247.152 141.009 247.079 140.561L243.047 117.065C242.938 116.468 242.6 115.938 242.103 115.589C241.607 115.24 240.993 115.1 240.395 115.199Z" fill="#721B65"/>
<path opacity="0.2" d="M240.395 115.199L216.899 119.225C216.447 119.301 216.028 119.51 215.695 119.825C215.362 120.14 215.13 120.547 215.029 120.994C214.928 121.441 214.962 121.908 215.128 122.336C215.293 122.764 215.581 123.132 215.957 123.395L220.289 126.461L193.727 164.009C193.554 164.253 193.335 164.461 193.082 164.62C192.829 164.78 192.547 164.888 192.252 164.938C191.957 164.988 191.655 164.979 191.364 164.913C191.072 164.846 190.797 164.723 190.553 164.549L151.511 136.949C151.016 136.601 150.404 136.463 149.808 136.566C149.212 136.668 148.681 137.002 148.331 137.495L69.6289 248.735H97.9129L153.851 169.661C154.024 169.417 154.243 169.209 154.496 169.05C154.749 168.891 155.031 168.783 155.326 168.733C155.621 168.683 155.923 168.691 156.214 168.758C156.506 168.825 156.781 168.948 157.025 169.121L196.067 196.721C196.311 196.894 196.588 197.018 196.88 197.084C197.172 197.15 197.475 197.158 197.77 197.108C198.065 197.057 198.348 196.948 198.601 196.788C198.855 196.628 199.074 196.42 199.247 196.175L239.141 139.775L243.479 142.841C243.853 143.099 244.294 143.241 244.748 143.25C245.202 143.259 245.649 143.134 246.032 142.891C246.416 142.648 246.72 142.298 246.906 141.883C247.092 141.469 247.152 141.009 247.079 140.561L243.047 117.065C242.938 116.468 242.6 115.938 242.103 115.589C241.607 115.24 240.993 115.1 240.395 115.199Z" fill="black"/>
<path opacity="0.2" d="M96.1439 245.465H76.2359C76.2085 245.464 76.1818 245.456 76.1586 245.441C76.1354 245.426 76.1166 245.405 76.1039 245.381C76.0896 245.358 76.082 245.331 76.082 245.303C76.082 245.276 76.0896 245.249 76.1039 245.225L149.016 142.145C149.199 141.883 149.432 141.659 149.701 141.487C149.971 141.314 150.271 141.197 150.586 141.141C150.901 141.085 151.224 141.092 151.536 141.162C151.849 141.231 152.144 141.361 152.406 141.545L191.442 169.145C191.671 169.311 191.932 169.43 192.208 169.495C192.484 169.559 192.77 169.568 193.049 169.52C193.328 169.473 193.596 169.37 193.835 169.218C194.074 169.066 194.28 168.868 194.442 168.635L224.868 125.627L220.068 122.213C220.042 122.197 220.022 122.173 220.012 122.145C220.001 122.117 219.999 122.086 220.008 122.057C220.015 122.028 220.029 122.002 220.051 121.982C220.072 121.962 220.099 121.948 220.128 121.943L239.928 118.553C239.947 118.55 239.966 118.55 239.985 118.554C240.004 118.558 240.022 118.566 240.037 118.578C240.053 118.589 240.066 118.603 240.076 118.619C240.086 118.636 240.093 118.654 240.096 118.673L243.486 138.473C243.49 138.503 243.487 138.533 243.475 138.56C243.463 138.588 243.444 138.612 243.42 138.629C243.395 138.645 243.366 138.654 243.336 138.654C243.306 138.654 243.277 138.645 243.252 138.629L238.452 135.215L198.642 191.495C198.459 191.757 198.227 191.98 197.958 192.151C197.689 192.323 197.388 192.44 197.074 192.496C196.76 192.552 196.438 192.545 196.126 192.476C195.815 192.407 195.519 192.278 195.258 192.095L156.216 164.495C155.987 164.333 155.729 164.218 155.456 164.157C155.183 164.095 154.901 164.087 154.625 164.135C154.349 164.182 154.086 164.283 153.849 164.433C153.612 164.582 153.407 164.777 153.246 165.005L96.2699 245.399C96.2556 245.419 96.2368 245.436 96.2149 245.447C96.193 245.459 96.1686 245.465 96.1439 245.465ZM76.5239 245.165H96.0659L152.91 164.807C153.28 164.278 153.845 163.918 154.481 163.806C155.116 163.693 155.771 163.838 156.3 164.207L195.342 191.807C195.57 191.969 195.828 192.084 196.101 192.146C196.374 192.207 196.657 192.215 196.933 192.168C197.208 192.12 197.472 192.019 197.709 191.87C197.946 191.72 198.15 191.526 198.312 191.297L238.206 134.897C238.216 134.88 238.23 134.866 238.247 134.856C238.263 134.845 238.282 134.839 238.302 134.837C238.32 134.829 238.339 134.824 238.359 134.824C238.379 134.824 238.398 134.829 238.416 134.837L243.066 138.125L239.76 118.919L220.494 122.219L225.144 125.507C225.175 125.531 225.196 125.565 225.204 125.603C225.219 125.64 225.219 125.681 225.204 125.717L194.694 168.851C194.511 169.112 194.277 169.334 194.008 169.504C193.738 169.674 193.437 169.789 193.122 169.841C192.492 169.946 191.845 169.799 191.322 169.433L152.286 141.833C152.056 141.667 151.796 141.548 151.52 141.483C151.244 141.419 150.958 141.41 150.679 141.458C150.399 141.505 150.132 141.608 149.893 141.76C149.654 141.912 149.447 142.11 149.286 142.343L76.5239 245.165Z" fill="white"/>
<path d="M208.829 211.074H206.363V247.764H208.829V211.074Z" fill="#263238"/>
<path d="M230.407 191.082H227.941V247.764H230.407V191.082Z" fill="#263238"/>
<path d="M252.376 204.68H249.91V247.766H252.376V204.68Z" fill="#263238"/>
<path d="M206.37 211.074H189.078V247.764H206.37V211.074Z" fill="#721B65"/>
<path opacity="0.2" d="M189.078 211.074V232.83L197.718 211.074H189.078Z" fill="white"/>
<path d="M227.94 191.082H210.648V247.764H227.94V191.082Z" fill="#721B65"/>
<path opacity="0.2" d="M210.648 191.082V212.838L219.294 191.082H210.648Z" fill="white"/>
<path d="M249.917 204.68H232.625V247.766H249.917V204.68Z" fill="#721B65"/>
<path opacity="0.2" d="M232.625 204.68V224.042L241.271 204.68H232.625Z" fill="white"/>
<path d="M148.849 244.766L144.211 243.896L144.997 232.922L149.635 233.798L148.849 244.766Z" fill="#7F3E3B"/>
<path d="M180.06 244.637H175.338L174.168 233.711H178.884L180.06 244.637Z" fill="#7F3E3B"/>
<path d="M174.953 244.094H180.701C180.795 244.094 180.886 244.127 180.959 244.185C181.032 244.244 181.082 244.326 181.103 244.418L182.039 248.618C182.06 248.72 182.059 248.826 182.034 248.927C182.009 249.028 181.962 249.123 181.896 249.204C181.83 249.284 181.746 249.349 181.651 249.393C181.557 249.437 181.453 249.459 181.349 249.458C179.495 249.428 178.145 249.314 175.817 249.314C174.383 249.314 170.057 249.464 168.077 249.464C166.097 249.464 165.839 247.508 166.649 247.328C170.285 246.536 173.021 245.438 174.185 244.394C174.394 244.201 174.668 244.094 174.953 244.094Z" fill="#263238"/>
<path d="M144.306 242.876L149.388 243.752C149.48 243.768 149.564 243.814 149.626 243.884C149.688 243.954 149.725 244.043 149.73 244.136L149.934 248.426C149.939 248.529 149.921 248.633 149.881 248.728C149.84 248.824 149.779 248.909 149.701 248.978C149.623 249.047 149.531 249.097 149.431 249.125C149.331 249.153 149.226 249.158 149.124 249.14C147.324 248.792 144.666 248.228 142.368 247.832C139.674 247.37 138.36 247.034 135.204 246.488C133.296 246.158 133.71 244.088 134.544 244.034C138.318 243.866 139.65 244.442 143.124 243.044C143.495 242.879 143.904 242.821 144.306 242.876Z" fill="#263238"/>
<path d="M160.464 100.256C160.302 100.736 160.176 101.084 160.026 101.456C159.876 101.828 159.726 102.224 159.57 102.602C159.258 103.364 158.928 104.108 158.58 104.852C157.885 106.345 157.106 107.797 156.246 109.202C154.487 112.206 152.195 114.866 149.484 117.05C148.729 117.625 147.926 118.135 147.084 118.574C146.868 118.694 146.646 118.796 146.418 118.898C146.19 119 145.986 119.096 145.716 119.198C145.184 119.393 144.636 119.542 144.078 119.642C143.172 119.794 142.255 119.873 141.336 119.876C140.472 119.876 139.644 119.876 138.828 119.798C135.645 119.544 132.495 118.973 129.426 118.094L129.9 114.584C132.9 114.47 135.942 114.374 138.798 114.122C139.512 114.056 140.214 113.972 140.88 113.87C141.49 113.787 142.092 113.654 142.68 113.474C142.872 113.419 143.057 113.342 143.232 113.246C143.43 113.126 143.7 113.012 143.922 112.856C144.411 112.547 144.874 112.2 145.308 111.818C146.265 110.969 147.128 110.019 147.882 108.986C148.703 107.889 149.453 106.741 150.126 105.548C150.828 104.348 151.458 103.07 152.076 101.786C152.376 101.144 152.676 100.49 152.94 99.8356L153.342 98.8576L153.708 97.9336L160.464 100.256Z" fill="#7F3E3B"/>
<path d="M158.19 94.7231C166.8 94.7231 157.338 113.323 157.338 113.323L146.352 108.877C146.352 108.877 149.352 102.409 151.326 98.7071C151.965 97.4529 152.953 96.4099 154.17 95.7032C155.388 94.9965 156.783 94.6562 158.19 94.7231Z" fill="#721B65"/>
<g opacity="0.3">
<path opacity="0.3" d="M158.19 94.7231C166.8 94.7231 157.338 113.323 157.338 113.323L146.352 108.877C146.352 108.877 149.352 102.409 151.326 98.7071C151.965 97.4529 152.953 96.4099 154.17 95.7032C155.388 94.9965 156.783 94.6562 158.19 94.7231Z" fill="white"/>
</g>
<path opacity="0.2" d="M156.085 100.734C152.935 102.948 150.745 107.058 150.121 110.394L156.397 112.938C157.537 111.234 158.647 109.224 159.871 107.46C160.207 106.542 160.537 105.576 160.825 104.598L156.085 100.734Z" fill="black"/>
<path d="M132.6 115.032L128.826 112.902L125.934 118.302C127.604 118.585 129.313 118.542 130.968 118.176L132.6 115.032Z" fill="#7F3E3B"/>
<path d="M125.213 112.902L123.113 117.666L125.909 118.32L128.801 112.902H125.213Z" fill="#7F3E3B"/>
<path opacity="0.2" d="M144.996 232.926L144.594 238.578L149.232 239.448L149.634 233.796L144.996 232.926Z" fill="black"/>
<path opacity="0.2" d="M178.882 233.719H174.16L174.772 239.353H179.488L178.882 233.719Z" fill="black"/>
<path d="M181.669 96.7804C180.285 101.873 179.282 107.061 178.669 112.302C178.219 115.956 177.955 119.442 177.787 122.61C177.391 130.026 177.559 135.678 177.337 137.61C173.647 137.358 159.745 136.41 152.137 135.858C148.711 109.02 155.257 95.1964 155.257 95.1964C157.239 94.8237 159.243 94.5733 161.257 94.4464C161.683 94.4464 162.121 94.4044 162.559 94.3984C166.138 94.4404 169.712 94.6888 173.263 95.1424C173.935 95.2204 174.619 95.3224 175.279 95.4304C178.705 95.9584 181.669 96.7804 181.669 96.7804Z" fill="#721B65"/>
<g opacity="0.3">
<path opacity="0.3" d="M181.669 96.7804C180.285 101.873 179.282 107.061 178.669 112.302C178.219 115.956 177.955 119.442 177.787 122.61C177.391 130.026 177.559 135.678 177.337 137.61C173.647 137.358 159.745 136.41 152.137 135.858C148.711 109.02 155.257 95.1964 155.257 95.1964C157.239 94.8237 159.243 94.5733 161.257 94.4464C161.683 94.4464 162.121 94.4044 162.559 94.3984C166.138 94.4404 169.712 94.6888 173.263 95.1424C173.935 95.2204 174.619 95.3224 175.279 95.4304C178.705 95.9584 181.669 96.7804 181.669 96.7804Z" fill="white"/>
</g>
<path opacity="0.2" d="M175.314 103.57C175.266 107.432 176.348 111.224 178.428 114.478C178.5 113.758 178.584 113.032 178.674 112.3C179.01 109.552 179.442 106.708 180.012 103.834L175.314 103.57Z" fill="black"/>
<path d="M173.095 83C172.183 86.402 171.067 92.66 173.317 95.126C172.179 96.1582 170.833 96.934 169.369 97.4009C167.905 97.8677 166.358 98.0147 164.833 97.832C161.875 97.562 161.875 95.48 162.613 94.382C166.519 93.734 166.615 90.878 166.135 88.154L173.095 83Z" fill="#7F3E3B"/>
<path d="M162.664 98.9526C162.734 99.4822 162.858 100.003 163.036 100.507C163.087 100.667 163.188 100.807 163.324 100.906C163.46 101.006 163.624 101.059 163.792 101.059C164.285 101.051 164.778 101.094 165.262 101.185C165.364 101.209 165.47 101.211 165.573 101.193C165.676 101.174 165.775 101.135 165.862 101.077C166.462 100.699 167.23 100.141 167.032 99.4446C166.798 98.6286 165.394 97.8906 165.394 97.8906C165.394 97.8906 162.982 98.4846 162.664 98.9526Z" fill="#263238"/>
<path d="M163.932 100.508C162.966 102.62 160.734 116.144 160.458 118.19C160.182 120.236 161.124 123.536 162.432 126.158C163.936 124.096 164.792 121.634 164.892 119.084C165.066 116.288 165.234 100.844 165.234 100.844L163.932 100.508Z" fill="#263238"/>
<path d="M165.379 97.8911C166.272 98.6361 167.01 99.5495 167.551 100.579C169.069 100.459 175.771 97.5191 174.817 95.2511C173.983 95.0171 173.251 94.5371 173.017 94.7831C172.699 95.2691 169.855 96.9851 165.379 97.8911Z" fill="white"/>
<path d="M165.376 97.8899C165.376 97.8899 162.802 98.7599 162.202 100.224C160.648 99.5339 159.802 96.4199 161.176 94.3739C162.034 94.3019 162.856 93.8759 163.012 94.1579C163.252 94.6919 162.598 96.1259 165.376 97.8899Z" fill="white"/>
<path opacity="0.2" d="M170.255 85.1055L166.133 88.1475C166.257 88.7821 166.323 89.4268 166.331 90.0735C167.813 89.9655 169.931 88.4955 170.207 86.9715C170.337 86.3577 170.354 85.7251 170.255 85.1055Z" fill="black"/>
<path d="M163.095 72.0727C161.295 72.7807 160.629 79.7467 164.295 79.0627C167.961 78.3787 166.719 70.6507 163.095 72.0727Z" fill="#263238"/>
<path d="M174.983 79.0397C173.513 83.4857 172.883 86.1617 169.991 87.8837C165.635 90.4697 160.601 86.9297 160.709 82.1357C160.805 77.8217 163.187 71.2697 168.089 70.6397C169.168 70.4936 170.267 70.6261 171.28 71.0245C172.294 71.423 173.189 72.0741 173.88 72.916C174.571 73.7578 175.035 74.7625 175.228 75.8344C175.421 76.9062 175.337 78.0096 174.983 79.0397Z" fill="#7F3E3B"/>
<path d="M173.317 82.0982C171.451 82.1342 169.921 76.4822 173.683 74.8982C170.719 74.5562 161.617 75.0542 159.985 70.9862C158.353 66.9182 164.683 66.2882 166.837 67.8242C166.153 65.5862 168.937 62.2862 173.941 65.2862C178.945 68.2862 178.885 71.9882 178.417 73.0862C180.649 73.6862 181.087 78.6542 178.621 79.3202C180.067 81.3242 178.819 85.5362 174.919 84.6362C174.787 87.0902 172.051 86.0162 172.219 84.1322C172.387 82.2482 173.317 82.0982 173.317 82.0982Z" fill="#263238"/>
<path d="M165 83.1833C165.528 83.3376 166.084 83.3636 166.624 83.2593C167.163 83.1549 167.67 82.9232 168.102 82.5833C168.125 82.5599 168.137 82.5287 168.137 82.4963C168.137 82.4639 168.125 82.4327 168.102 82.4093C168.08 82.3873 168.05 82.375 168.018 82.375C167.987 82.375 167.957 82.3873 167.934 82.4093C167.535 82.729 167.066 82.95 166.566 83.0543C166.066 83.1586 165.548 83.1432 165.054 83.0093C165.039 83.0048 165.023 83.0034 165.008 83.0053C164.992 83.0071 164.977 83.0121 164.964 83.02C164.95 83.0279 164.939 83.0385 164.929 83.0511C164.92 83.0637 164.914 83.0781 164.91 83.0933C164.915 83.1156 164.925 83.136 164.941 83.152C164.957 83.1681 164.978 83.179 165 83.1833Z" fill="#263238"/>
<path d="M175.912 83.7536C175.05 84.5582 173.905 84.9895 172.726 84.9536C171.166 84.8876 170.866 83.3756 171.7 82.1576C172.456 81.0596 174.172 79.7576 175.54 80.4236C175.838 80.5729 176.093 80.7941 176.283 81.0673C176.474 81.3404 176.593 81.6568 176.63 81.9876C176.667 82.3185 176.62 82.6533 176.495 82.9617C176.37 83.2701 176.169 83.5423 175.912 83.7536Z" fill="#7F3E3B"/>
<path d="M143.028 236.748L150.828 238.59C150.828 238.59 153.588 208.2 155.958 191.502C156.588 187.074 157.56 180.846 159.042 174.21C160.908 165.852 163.242 156.81 165.174 149.73C167.196 142.272 168.738 136.998 168.738 136.998L152.19 135.84C152.19 135.84 143.232 174.9 142.284 189.24C141.27 204.204 143.028 236.748 143.028 236.748Z" fill="#263238"/>
<path opacity="0.2" d="M158.999 174.209C160.865 165.851 163.199 156.809 165.131 149.729L163.409 146.027C159.323 150.905 158.219 166.007 158.999 174.209Z" fill="black"/>
<path d="M161.094 136.465C161.094 136.465 162.894 176.857 164.874 190.537C167.052 205.537 172.59 238.261 172.59 238.261H181.236C181.236 238.261 178.836 207.139 177.21 192.469C175.356 175.759 177.336 137.599 177.336 137.599L161.094 136.465Z" fill="#263238"/>
<path d="M171.555 238.447H181.731L182.181 235.405L170.949 235.207L171.555 238.447Z" fill="#721B65"/>
<path d="M142.529 237.27L151.391 238.938L152.393 235.848L142.289 233.934L142.529 237.27Z" fill="#721B65"/>
<path d="M168.15 78.6847C168.048 79.0507 167.778 79.2847 167.55 79.2367C167.322 79.1887 167.19 78.8227 167.286 78.4567C167.382 78.0907 167.658 77.8567 167.886 77.9047C168.114 77.9527 168.246 78.3187 168.15 78.6847Z" fill="#263238"/>
<path d="M163.984 77.5931C163.888 77.9591 163.612 78.1931 163.384 78.1391C163.156 78.0851 163.03 77.7311 163.126 77.3591C163.222 76.9871 163.498 76.7591 163.726 76.8071C163.954 76.8551 164.08 77.2211 163.984 77.5931Z" fill="#263238"/>
<path d="M164.91 77.9336C164.174 78.9425 163.304 79.8467 162.324 80.6216C162.81 81.3956 164.064 81.3296 164.064 81.3296L164.91 77.9336Z" fill="#630F0F"/>
<path d="M169.44 77.4902C169.398 77.4876 169.358 77.4733 169.324 77.4489C169.29 77.4245 169.264 77.391 169.248 77.3522C169.147 77.0901 168.985 76.8553 168.777 76.6667C168.569 76.4782 168.319 76.341 168.048 76.2662C168.019 76.2607 167.992 76.2496 167.968 76.2335C167.943 76.2174 167.922 76.1966 167.906 76.1724C167.889 76.1481 167.878 76.1209 167.872 76.0922C167.866 76.0635 167.866 76.034 167.871 76.0052C167.877 75.9765 167.888 75.9491 167.904 75.9246C167.92 75.9001 167.941 75.8791 167.965 75.8627C167.989 75.8462 168.016 75.8347 168.045 75.8288C168.074 75.8229 168.103 75.8227 168.132 75.8282C168.476 75.9159 168.794 76.0849 169.059 76.3208C169.324 76.5567 169.529 76.8528 169.656 77.1842C169.668 77.2114 169.674 77.2406 169.675 77.2702C169.675 77.2997 169.669 77.3291 169.658 77.3565C169.647 77.3839 169.63 77.4087 169.609 77.4297C169.588 77.4506 169.564 77.4671 169.536 77.4782C169.506 77.4896 169.473 77.4937 169.44 77.4902Z" fill="#263238"/>
<path d="M162.228 75.5037C162.182 75.4983 162.138 75.4796 162.102 75.4497C162.081 75.429 162.064 75.4043 162.053 75.377C162.041 75.3497 162.035 75.3203 162.035 75.2907C162.035 75.261 162.041 75.2317 162.053 75.2044C162.064 75.1771 162.081 75.1524 162.102 75.1317C162.327 74.8569 162.614 74.6399 162.94 74.499C163.265 74.358 163.62 74.2972 163.974 74.3217C164.032 74.332 164.084 74.3636 164.119 74.4102C164.155 74.4569 164.172 74.5153 164.166 74.5737C164.157 74.6321 164.126 74.6848 164.079 74.7206C164.032 74.7564 163.973 74.7726 163.914 74.7657C163.634 74.753 163.354 74.806 163.098 74.9206C162.842 75.0352 162.616 75.2082 162.438 75.4257C162.413 75.4557 162.38 75.4786 162.343 75.4923C162.307 75.5059 162.267 75.5099 162.228 75.5037Z" fill="#263238"/>
<path d="M173.4 244.919C173.078 244.944 172.756 244.86 172.488 244.679C172.403 244.606 172.338 244.513 172.298 244.408C172.258 244.304 172.245 244.191 172.26 244.079C172.258 244.014 172.276 243.95 172.31 243.895C172.344 243.84 172.393 243.795 172.452 243.767C172.974 243.497 174.492 244.433 174.666 244.541C174.684 244.552 174.699 244.568 174.707 244.588C174.716 244.607 174.718 244.629 174.714 244.649C174.712 244.672 174.703 244.694 174.688 244.711C174.673 244.728 174.652 244.74 174.63 244.745C174.228 244.849 173.815 244.907 173.4 244.919ZM172.698 243.941C172.648 243.937 172.598 243.948 172.554 243.971C172.524 243.971 172.488 244.013 172.482 244.103C172.472 244.178 172.48 244.253 172.506 244.323C172.532 244.394 172.576 244.456 172.632 244.505C173.159 244.746 173.758 244.776 174.306 244.589C173.815 244.271 173.267 244.051 172.692 243.941H172.698Z" fill="#721B65"/>
<path d="M174.601 244.752H174.547C174.061 244.488 173.113 243.45 173.215 242.952C173.231 242.87 173.275 242.796 173.34 242.743C173.404 242.689 173.485 242.659 173.569 242.658C173.654 242.646 173.742 242.653 173.824 242.678C173.907 242.703 173.984 242.745 174.049 242.802C174.595 243.246 174.709 244.602 174.715 244.668C174.715 244.688 174.71 244.708 174.701 244.726C174.691 244.744 174.677 244.759 174.661 244.77C174.639 244.771 174.618 244.764 174.601 244.752ZM173.647 242.838H173.599C173.455 242.838 173.443 242.922 173.437 242.952C173.377 243.258 173.977 244.044 174.463 244.41C174.431 243.873 174.236 243.358 173.905 242.934C173.833 242.872 173.741 242.838 173.647 242.838Z" fill="#721B65"/>
<path d="M143.741 243.438C142.967 243.438 141.605 243.408 141.173 242.874C141.105 242.792 141.058 242.693 141.038 242.588C141.018 242.484 141.026 242.375 141.059 242.274C141.072 242.215 141.1 242.16 141.14 242.115C141.179 242.07 141.23 242.036 141.287 242.016C141.887 241.806 143.615 243.066 143.807 243.216C143.825 243.229 143.839 243.248 143.846 243.27C143.852 243.291 143.851 243.315 143.843 243.336C143.84 243.362 143.829 243.386 143.81 243.405C143.792 243.424 143.767 243.435 143.741 243.438ZM141.377 242.238C141.353 242.245 141.332 242.26 141.316 242.279C141.3 242.298 141.29 242.321 141.287 242.346C141.267 242.409 141.264 242.476 141.276 242.541C141.289 242.606 141.317 242.666 141.359 242.718C141.599 243.024 142.355 243.198 143.411 243.204C142.697 242.736 141.737 242.166 141.377 242.244V242.238Z" fill="#721B65"/>
<path d="M143.743 243.436C143.716 243.447 143.686 243.447 143.659 243.436C143.143 243.088 142.207 241.888 142.381 241.378C142.423 241.258 142.537 241.12 142.843 241.138C142.958 241.143 143.07 241.172 143.173 241.223C143.277 241.273 143.368 241.345 143.443 241.432C143.953 242.032 143.863 243.298 143.857 243.352C143.855 243.371 143.849 243.39 143.839 243.405C143.828 243.421 143.814 243.434 143.797 243.442L143.743 243.436ZM142.699 241.354C142.615 241.354 142.597 241.414 142.591 241.432C142.489 241.738 143.107 242.662 143.617 243.1C143.659 242.563 143.531 242.025 143.251 241.564C143.199 241.502 143.135 241.45 143.063 241.413C142.991 241.376 142.912 241.354 142.831 241.348C142.787 241.34 142.742 241.342 142.699 241.354Z" fill="#721B65"/>
<path d="M160.267 117.852L158.353 116.484L126.973 160.41L128.887 161.778C134.719 165.73 141.864 167.245 148.798 166.001C155.732 164.757 161.905 160.852 166 155.12C170.095 149.388 171.788 142.282 170.717 135.32C169.645 128.357 165.895 122.089 160.267 117.852Z" fill="#721B65"/>
<path opacity="0.1" d="M160.267 117.852L158.353 116.484L126.973 160.41L128.887 161.778C134.719 165.73 141.864 167.245 148.798 166.001C155.732 164.757 161.905 160.852 166 155.12C170.095 149.388 171.788 142.282 170.717 135.32C169.645 128.357 165.895 122.089 160.267 117.852Z" fill="black"/>
<path d="M113.79 141.883C113.343 138.171 113.618 134.408 114.6 130.801L115.2 130.957C114.236 134.491 113.967 138.18 114.408 141.817L113.79 141.883Z" fill="#721B65"/>
<path d="M115.606 149.125C115.071 147.759 114.64 146.355 114.316 144.925L114.916 144.793C115.236 146.19 115.659 147.562 116.182 148.897L115.606 149.125Z" fill="#721B65"/>
<path d="M148.116 164.874C162.715 161.867 172.111 147.594 169.104 132.996C166.097 118.397 151.824 109.001 137.226 112.008C122.627 115.015 113.231 129.288 116.238 143.886C119.245 158.485 133.518 167.881 148.116 164.874Z" fill="#721B65"/>
<path d="M136.288 145.272L140.524 139.35C139.052 137.502 138.266 135.734 138.166 134.046C138.09 132.32 138.619 130.623 139.66 129.246C140.65 127.778 142.175 126.755 143.908 126.396C145.7 126.055 147.555 126.399 149.104 127.362L150.124 125.934L152.176 127.398L151.15 128.826C152.406 129.88 153.279 131.318 153.634 132.918C153.903 134.489 153.65 136.105 152.914 137.52L149.002 135.432C149.288 134.893 149.43 134.29 149.415 133.681C149.4 133.071 149.229 132.476 148.918 131.952L144.97 137.484C146.794 139.716 147.768 141.612 147.892 143.172C147.983 144.84 147.467 146.485 146.44 147.804C145.356 149.419 143.702 150.565 141.808 151.014C139.813 151.425 137.736 151.096 135.964 150.09L134.944 151.518L132.892 150.054L133.864 148.692C132.465 147.49 131.523 145.844 131.194 144.03C130.944 142.054 131.339 140.05 132.322 138.318L136.3 140.562C135.925 141.361 135.738 142.235 135.754 143.118C135.762 143.867 135.945 144.605 136.288 145.272ZM146.896 130.422C146.241 130.208 145.536 130.208 144.88 130.422C144.248 130.623 143.698 131.026 143.314 131.568C142.96 132.069 142.771 132.669 142.774 133.284C142.781 134 142.989 134.701 143.374 135.306L146.896 130.422ZM138.196 146.94C138.943 147.301 139.792 147.388 140.596 147.186C141.403 146.987 142.11 146.501 142.582 145.818C143.016 145.232 143.229 144.511 143.182 143.784C143.068 142.905 142.691 142.081 142.102 141.42L138.196 146.94Z" fill="white"/>
<path opacity="0.1" d="M164.527 136.199C163.271 130.745 159.982 125.976 155.331 122.864C150.68 119.751 145.017 118.529 139.497 119.447C133.976 120.366 129.014 123.355 125.621 127.805C122.228 132.256 120.66 137.832 121.237 143.399C120.563 140.475 120.495 137.443 121.038 134.492C121.58 131.54 122.721 128.731 124.39 126.237C126.059 123.743 128.221 121.617 130.743 119.991C133.265 118.364 136.093 117.271 139.053 116.778C142.013 116.286 145.043 116.405 147.955 117.128C150.868 117.851 153.602 119.162 155.988 120.982C158.375 122.801 160.363 125.09 161.832 127.707C163.3 130.324 164.217 133.214 164.527 136.199Z" fill="black"/>
<path d="M182.274 99.3594C182.874 100.121 183.372 100.805 183.876 101.549C184.38 102.293 184.872 103.007 185.352 103.751C186.306 105.239 187.212 106.751 188.052 108.329C188.892 109.907 189.672 111.521 190.38 113.189L190.896 114.455L191.364 115.757C191.52 116.183 191.652 116.639 191.79 117.083L191.988 117.755L192.042 117.923L192.132 118.289C192.189 118.538 192.229 118.791 192.252 119.045C192.308 119.891 192.196 120.74 191.922 121.541C191.714 122.145 191.443 122.724 191.112 123.269C190.564 124.162 189.929 124.998 189.216 125.765C187.95 127.111 186.575 128.349 185.106 129.467C182.311 131.601 179.336 133.486 176.214 135.101L174.27 132.137C176.784 129.995 179.298 127.739 181.572 125.453C182.677 124.359 183.703 123.188 184.644 121.949C185.043 121.432 185.389 120.875 185.676 120.287C185.764 120.095 185.833 119.894 185.88 119.687C185.88 119.555 185.88 119.531 185.88 119.687C185.871 119.731 185.871 119.776 185.88 119.819C185.878 119.837 185.878 119.855 185.88 119.873L185.826 119.741L185.616 119.213C185.472 118.853 185.346 118.499 185.178 118.145L184.698 117.083L184.188 116.021C183.474 114.611 182.712 113.207 181.884 111.821C181.056 110.435 180.198 109.055 179.304 107.699C178.866 107.015 178.41 106.337 177.954 105.671L176.586 103.721L182.274 99.3594Z" fill="#7F3E3B"/>
<path d="M181.666 96.7799C186.088 97.6739 189.97 108.486 189.97 108.486L180.742 116.004C180.742 116.004 177.742 110.508 175.294 105.204C172.66 99.4259 176.308 95.6999 181.666 96.7799Z" fill="#721B65"/>
<g opacity="0.3">
<path opacity="0.3" d="M181.666 96.7799C186.088 97.6739 189.97 108.486 189.97 108.486L180.742 116.004C180.742 116.004 177.742 110.508 175.294 105.204C172.66 99.4259 176.308 95.6999 181.666 96.7799Z" fill="white"/>
</g>
<path d="M175.362 131.723L170.598 132.245L173.688 137.417C173.688 137.417 177.648 136.073 177.168 133.901L175.362 131.723Z" fill="#7F3E3B"/>
<path d="M167.758 134.976L170.512 139.134L173.686 137.418L170.596 132.246L167.758 134.976Z" fill="#7F3E3B"/>
</svg>
