<svg width="435" height="221" viewBox="0 0 435 221" fill="none" xmlns="http://www.w3.org/2000/svg">
<path d="M7.512 136.8C6.184 136.8 4.896 136.624 3.648 136.272C2.416 135.904 1.424 135.432 0.672 134.856L1.992 131.928C2.712 132.456 3.568 132.88 4.56 133.2C5.552 133.52 6.544 133.68 7.536 133.68C8.64 133.68 9.456 133.52 9.984 133.2C10.512 132.864 10.776 132.424 10.776 131.88C10.776 131.48 10.616 131.152 10.296 130.896C9.992 130.624 9.592 130.408 9.096 130.248C8.616 130.088 7.96 129.912 7.128 129.72C5.848 129.416 4.8 129.112 3.984 128.808C3.168 128.504 2.464 128.016 1.872 127.344C1.296 126.672 1.008 125.776 1.008 124.656C1.008 123.68 1.272 122.8 1.8 122.016C2.328 121.216 3.12 120.584 4.176 120.12C5.248 119.656 6.552 119.424 8.088 119.424C9.16 119.424 10.208 119.552 11.232 119.808C12.256 120.064 13.152 120.432 13.92 120.912L12.72 123.864C11.168 122.984 9.616 122.544 8.064 122.544C6.976 122.544 6.168 122.72 5.64 123.072C5.128 123.424 4.872 123.888 4.872 124.464C4.872 125.04 5.168 125.472 5.76 125.76C6.368 126.032 7.288 126.304 8.52 126.576C9.8 126.88 10.848 127.184 11.664 127.488C12.48 127.792 13.176 128.272 13.752 128.928C14.344 129.584 14.64 130.472 14.64 131.592C14.64 132.552 14.368 133.432 13.824 134.232C13.296 135.016 12.496 135.64 11.424 136.104C10.352 136.568 9.048 136.8 7.512 136.8ZM29.6807 130.104C29.6807 130.152 29.6567 130.488 29.6087 131.112H19.8407C20.0167 131.912 20.4327 132.544 21.0887 133.008C21.7447 133.472 22.5607 133.704 23.5367 133.704C24.2087 133.704 24.8007 133.608 25.3127 133.416C25.8407 133.208 26.3287 132.888 26.7767 132.456L28.7687 134.616C27.5527 136.008 25.7767 136.704 23.4407 136.704C21.9847 136.704 20.6967 136.424 19.5767 135.864C18.4567 135.288 17.5927 134.496 16.9847 133.488C16.3767 132.48 16.0727 131.336 16.0727 130.056C16.0727 128.792 16.3687 127.656 16.9607 126.648C17.5687 125.624 18.3927 124.832 19.4327 124.272C20.4887 123.696 21.6647 123.408 22.9607 123.408C24.2247 123.408 25.3687 123.68 26.3927 124.224C27.4167 124.768 28.2167 125.552 28.7927 126.576C29.3847 127.584 29.6807 128.76 29.6807 130.104ZM22.9847 126.24C22.1367 126.24 21.4247 126.48 20.8487 126.96C20.2727 127.44 19.9207 128.096 19.7927 128.928H26.1527C26.0247 128.112 25.6727 127.464 25.0967 126.984C24.5207 126.488 23.8167 126.24 22.9847 126.24ZM38.4133 136.704C37.0373 136.704 35.7973 136.424 34.6933 135.864C33.6053 135.288 32.7493 134.496 32.1253 133.488C31.5173 132.48 31.2133 131.336 31.2133 130.056C31.2133 128.776 31.5173 127.632 32.1253 126.624C32.7493 125.616 33.6053 124.832 34.6933 124.272C35.7973 123.696 37.0373 123.408 38.4133 123.408C39.7733 123.408 40.9573 123.696 41.9653 124.272C42.9893 124.832 43.7333 125.64 44.1973 126.696L41.2933 128.256C40.6213 127.072 39.6533 126.48 38.3893 126.48C37.4133 126.48 36.6053 126.8 35.9653 127.44C35.3253 128.08 35.0053 128.952 35.0053 130.056C35.0053 131.16 35.3253 132.032 35.9653 132.672C36.6053 133.312 37.4133 133.632 38.3893 133.632C39.6693 133.632 40.6373 133.04 41.2933 131.856L44.1973 133.44C43.7333 134.464 42.9893 135.264 41.9653 135.84C40.9573 136.416 39.7733 136.704 38.4133 136.704ZM59.361 123.6V136.512H55.809V134.976C55.313 135.536 54.721 135.968 54.033 136.272C53.345 136.56 52.601 136.704 51.801 136.704C50.105 136.704 48.761 136.216 47.769 135.24C46.777 134.264 46.281 132.816 46.281 130.896V123.6H50.025V130.344C50.025 132.424 50.897 133.464 52.641 133.464C53.537 133.464 54.257 133.176 54.801 132.6C55.345 132.008 55.617 131.136 55.617 129.984V123.6H59.361ZM66.4056 125.304C66.8536 124.68 67.4536 124.208 68.2056 123.888C68.9736 123.568 69.8536 123.408 70.8456 123.408V126.864C70.4296 126.832 70.1496 126.816 70.0056 126.816C68.9336 126.816 68.0936 127.12 67.4856 127.728C66.8776 128.32 66.5736 129.216 66.5736 130.416V136.512H62.8296V123.6H66.4056V125.304ZM73.0718 123.6H76.8158V136.512H73.0718V123.6ZM74.9438 121.8C74.2558 121.8 73.6958 121.6 73.2638 121.2C72.8318 120.8 72.6158 120.304 72.6158 119.712C72.6158 119.12 72.8318 118.624 73.2638 118.224C73.6958 117.824 74.2558 117.624 74.9438 117.624C75.6318 117.624 76.1918 117.816 76.6238 118.2C77.0558 118.584 77.2718 119.064 77.2718 119.64C77.2718 120.264 77.0558 120.784 76.6238 121.2C76.1918 121.6 75.6318 121.8 74.9438 121.8ZM88.6185 135.888C88.2505 136.16 87.7945 136.368 87.2505 136.512C86.7225 136.64 86.1625 136.704 85.5705 136.704C84.0345 136.704 82.8425 136.312 81.9945 135.528C81.1625 134.744 80.7465 133.592 80.7465 132.072V126.768H78.7545V123.888H80.7465V120.744H84.4905V123.888H87.7065V126.768H84.4905V132.024C84.4905 132.568 84.6265 132.992 84.8985 133.296C85.1865 133.584 85.5865 133.728 86.0985 133.728C86.6905 133.728 87.1945 133.568 87.6105 133.248L88.6185 135.888ZM103.302 123.6L97.4698 137.304C96.8778 138.792 96.1418 139.84 95.2618 140.448C94.3978 141.056 93.3498 141.36 92.1178 141.36C91.4458 141.36 90.7818 141.256 90.1258 141.048C89.4698 140.84 88.9338 140.552 88.5178 140.184L89.8858 137.52C90.1738 137.776 90.5018 137.976 90.8698 138.12C91.2538 138.264 91.6298 138.336 91.9978 138.336C92.5098 138.336 92.9258 138.208 93.2458 137.952C93.5658 137.712 93.8538 137.304 94.1098 136.728L94.1578 136.608L88.5658 123.6H92.4298L96.0538 132.36L99.7018 123.6H103.302ZM130.058 138.312C129.514 138.984 128.85 139.496 128.066 139.848C127.298 140.2 126.45 140.376 125.522 140.376C124.274 140.376 123.146 140.104 122.138 139.56C121.13 139.032 119.978 138.088 118.682 136.728C117.162 136.536 115.802 136.048 114.602 135.264C113.418 134.48 112.49 133.472 111.818 132.24C111.162 130.992 110.834 129.616 110.834 128.112C110.834 126.464 111.226 124.984 112.01 123.672C112.81 122.344 113.906 121.304 115.298 120.552C116.706 119.8 118.282 119.424 120.026 119.424C121.77 119.424 123.338 119.8 124.73 120.552C126.122 121.304 127.218 122.344 128.018 123.672C128.818 124.984 129.218 126.464 129.218 128.112C129.218 130.064 128.666 131.776 127.562 133.248C126.474 134.72 125.026 135.744 123.218 136.32C123.618 136.736 124.002 137.032 124.37 137.208C124.754 137.4 125.162 137.496 125.594 137.496C126.634 137.496 127.546 137.08 128.33 136.248L130.058 138.312ZM114.77 128.112C114.77 129.152 114.994 130.08 115.442 130.896C115.906 131.712 116.538 132.352 117.338 132.816C118.138 133.264 119.034 133.488 120.026 133.488C121.018 133.488 121.914 133.264 122.714 132.816C123.514 132.352 124.138 131.712 124.586 130.896C125.05 130.08 125.282 129.152 125.282 128.112C125.282 127.072 125.05 126.144 124.586 125.328C124.138 124.512 123.514 123.88 122.714 123.432C121.914 122.968 121.018 122.736 120.026 122.736C119.034 122.736 118.138 122.968 117.338 123.432C116.538 123.88 115.906 124.512 115.442 125.328C114.994 126.144 114.77 127.072 114.77 128.112ZM144.884 123.6V136.512H141.332V134.976C140.836 135.536 140.244 135.968 139.556 136.272C138.868 136.56 138.124 136.704 137.324 136.704C135.628 136.704 134.284 136.216 133.292 135.24C132.3 134.264 131.804 132.816 131.804 130.896V123.6H135.548V130.344C135.548 132.424 136.42 133.464 138.164 133.464C139.06 133.464 139.78 133.176 140.324 132.6C140.868 132.008 141.14 131.136 141.14 129.984V123.6H144.884ZM161.001 130.104C161.001 130.152 160.977 130.488 160.929 131.112H151.161C151.337 131.912 151.753 132.544 152.409 133.008C153.065 133.472 153.881 133.704 154.857 133.704C155.529 133.704 156.121 133.608 156.633 133.416C157.161 133.208 157.649 132.888 158.097 132.456L160.089 134.616C158.873 136.008 157.097 136.704 154.761 136.704C153.305 136.704 152.017 136.424 150.897 135.864C149.777 135.288 148.913 134.496 148.305 133.488C147.697 132.48 147.393 131.336 147.393 130.056C147.393 128.792 147.689 127.656 148.281 126.648C148.889 125.624 149.713 124.832 150.753 124.272C151.809 123.696 152.985 123.408 154.281 123.408C155.545 123.408 156.689 123.68 157.713 124.224C158.737 124.768 159.537 125.552 160.113 126.576C160.705 127.584 161.001 128.76 161.001 130.104ZM154.305 126.24C153.457 126.24 152.745 126.48 152.169 126.96C151.593 127.44 151.241 128.096 151.113 128.928H157.473C157.345 128.112 156.993 127.464 156.417 126.984C155.841 126.488 155.137 126.24 154.305 126.24ZM167.838 136.704C166.766 136.704 165.718 136.576 164.694 136.32C163.67 136.048 162.854 135.712 162.246 135.312L163.494 132.624C164.07 132.992 164.766 133.296 165.582 133.536C166.398 133.76 167.198 133.872 167.982 133.872C169.566 133.872 170.358 133.48 170.358 132.696C170.358 132.328 170.142 132.064 169.71 131.904C169.278 131.744 168.614 131.608 167.718 131.496C166.662 131.336 165.79 131.152 165.102 130.944C164.414 130.736 163.814 130.368 163.302 129.84C162.806 129.312 162.558 128.56 162.558 127.584C162.558 126.768 162.79 126.048 163.254 125.424C163.734 124.784 164.422 124.288 165.318 123.936C166.23 123.584 167.302 123.408 168.534 123.408C169.446 123.408 170.35 123.512 171.246 123.72C172.158 123.912 172.91 124.184 173.502 124.536L172.254 127.2C171.118 126.56 169.878 126.24 168.534 126.24C167.734 126.24 167.134 126.352 166.734 126.576C166.334 126.8 166.134 127.088 166.134 127.44C166.134 127.84 166.35 128.12 166.782 128.28C167.214 128.44 167.902 128.592 168.846 128.736C169.902 128.912 170.766 129.104 171.438 129.312C172.11 129.504 172.694 129.864 173.19 130.392C173.686 130.92 173.934 131.656 173.934 132.6C173.934 133.4 173.694 134.112 173.214 134.736C172.734 135.36 172.03 135.848 171.102 136.2C170.19 136.536 169.102 136.704 167.838 136.704ZM184.572 135.888C184.204 136.16 183.748 136.368 183.204 136.512C182.676 136.64 182.116 136.704 181.524 136.704C179.988 136.704 178.796 136.312 177.948 135.528C177.116 134.744 176.7 133.592 176.7 132.072V126.768H174.708V123.888H176.7V120.744H180.444V123.888H183.66V126.768H180.444V132.024C180.444 132.568 180.58 132.992 180.852 133.296C181.14 133.584 181.54 133.728 182.052 133.728C182.644 133.728 183.148 133.568 183.564 133.248L184.572 135.888ZM186.673 123.6H190.417V136.512H186.673V123.6ZM188.545 121.8C187.857 121.8 187.297 121.6 186.865 121.2C186.433 120.8 186.217 120.304 186.217 119.712C186.217 119.12 186.433 118.624 186.865 118.224C187.297 117.824 187.857 117.624 188.545 117.624C189.233 117.624 189.793 117.816 190.225 118.2C190.657 118.584 190.873 119.064 190.873 119.64C190.873 120.264 190.657 120.784 190.225 121.2C189.793 121.6 189.233 121.8 188.545 121.8ZM200.036 136.704C198.676 136.704 197.452 136.424 196.364 135.864C195.292 135.288 194.452 134.496 193.844 133.488C193.236 132.48 192.932 131.336 192.932 130.056C192.932 128.776 193.236 127.632 193.844 126.624C194.452 125.616 195.292 124.832 196.364 124.272C197.452 123.696 198.676 123.408 200.036 123.408C201.396 123.408 202.612 123.696 203.684 124.272C204.756 124.832 205.596 125.616 206.204 126.624C206.812 127.632 207.116 128.776 207.116 130.056C207.116 131.336 206.812 132.48 206.204 133.488C205.596 134.496 204.756 135.288 203.684 135.864C202.612 136.424 201.396 136.704 200.036 136.704ZM200.036 133.632C200.996 133.632 201.78 133.312 202.388 132.672C203.012 132.016 203.324 131.144 203.324 130.056C203.324 128.968 203.012 128.104 202.388 127.464C201.78 126.808 200.996 126.48 200.036 126.48C199.076 126.48 198.284 126.808 197.66 127.464C197.036 128.104 196.724 128.968 196.724 130.056C196.724 131.144 197.036 132.016 197.66 132.672C198.284 133.312 199.076 133.632 200.036 133.632ZM217.467 123.408C219.067 123.408 220.355 123.888 221.331 124.848C222.323 125.808 222.819 127.232 222.819 129.12V136.512H219.075V129.696C219.075 128.672 218.851 127.912 218.403 127.416C217.955 126.904 217.307 126.648 216.459 126.648C215.515 126.648 214.763 126.944 214.203 127.536C213.643 128.112 213.363 128.976 213.363 130.128V136.512H209.619V123.6H213.195V125.112C213.691 124.568 214.307 124.152 215.043 123.864C215.779 123.56 216.587 123.408 217.467 123.408ZM230.556 136.704C229.484 136.704 228.436 136.576 227.412 136.32C226.388 136.048 225.572 135.712 224.964 135.312L226.212 132.624C226.788 132.992 227.484 133.296 228.3 133.536C229.116 133.76 229.916 133.872 230.7 133.872C232.284 133.872 233.076 133.48 233.076 132.696C233.076 132.328 232.86 132.064 232.428 131.904C231.996 131.744 231.332 131.608 230.436 131.496C229.38 131.336 228.508 131.152 227.82 130.944C227.132 130.736 226.532 130.368 226.02 129.84C225.524 129.312 225.276 128.56 225.276 127.584C225.276 126.768 225.508 126.048 225.972 125.424C226.452 124.784 227.14 124.288 228.036 123.936C228.948 123.584 230.02 123.408 231.252 123.408C232.164 123.408 233.068 123.512 233.964 123.72C234.876 123.912 235.628 124.184 236.22 124.536L234.972 127.2C233.836 126.56 232.596 126.24 231.252 126.24C230.452 126.24 229.852 126.352 229.452 126.576C229.052 126.8 228.852 127.088 228.852 127.44C228.852 127.84 229.068 128.12 229.5 128.28C229.932 128.44 230.62 128.592 231.564 128.736C232.62 128.912 233.484 129.104 234.156 129.312C234.828 129.504 235.412 129.864 235.908 130.392C236.404 130.92 236.652 131.656 236.652 132.6C236.652 133.4 236.412 134.112 235.932 134.736C235.452 135.36 234.748 135.848 233.82 136.2C232.908 136.536 231.82 136.704 230.556 136.704Z" fill="#2E384D"/>
<path d="M1.68 156.312H3.28V166.12H9.344V167.512H1.68V156.312ZM14.7986 167.608C13.956 167.608 13.1986 167.421 12.5266 167.048C11.8546 166.674 11.3266 166.162 10.9426 165.512C10.5693 164.85 10.3826 164.104 10.3826 163.272C10.3826 162.44 10.5693 161.698 10.9426 161.048C11.3266 160.386 11.8546 159.874 12.5266 159.512C13.1986 159.138 13.956 158.952 14.7986 158.952C15.6413 158.952 16.3933 159.138 17.0546 159.512C17.7266 159.874 18.2493 160.386 18.6226 161.048C19.0066 161.698 19.1986 162.44 19.1986 163.272C19.1986 164.104 19.0066 164.85 18.6226 165.512C18.2493 166.162 17.7266 166.674 17.0546 167.048C16.3933 167.421 15.6413 167.608 14.7986 167.608ZM14.7986 166.264C15.3426 166.264 15.828 166.141 16.2546 165.896C16.692 165.64 17.0333 165.288 17.2786 164.84C17.524 164.381 17.6466 163.858 17.6466 163.272C17.6466 162.685 17.524 162.168 17.2786 161.72C17.0333 161.261 16.692 160.909 16.2546 160.664C15.828 160.418 15.3426 160.296 14.7986 160.296C14.2546 160.296 13.764 160.418 13.3266 160.664C12.9 160.909 12.5586 161.261 12.3026 161.72C12.0573 162.168 11.9346 162.685 11.9346 163.272C11.9346 163.858 12.0573 164.381 12.3026 164.84C12.5586 165.288 12.9 165.64 13.3266 165.896C13.764 166.141 14.2546 166.264 14.7986 166.264ZM23.1149 160.456C23.3815 159.965 23.7762 159.592 24.2989 159.336C24.8215 159.08 25.4562 158.952 26.2029 158.952V160.44C26.1175 160.429 26.0002 160.424 25.8509 160.424C25.0189 160.424 24.3629 160.674 23.8829 161.176C23.4135 161.666 23.1789 162.37 23.1789 163.288V167.512H21.6429V159.032H23.1149V160.456ZM36.0019 163.32C36.0019 163.437 35.9912 163.592 35.9699 163.784H29.0899C29.1859 164.53 29.5112 165.133 30.0659 165.592C30.6312 166.04 31.3299 166.264 32.1619 166.264C33.1752 166.264 33.9912 165.922 34.6099 165.24L35.4579 166.232C35.0739 166.68 34.5939 167.021 34.0179 167.256C33.4525 167.49 32.8179 167.608 32.1139 167.608C31.2179 167.608 30.4232 167.426 29.7299 167.064C29.0365 166.69 28.4979 166.173 28.1139 165.512C27.7405 164.85 27.5539 164.104 27.5539 163.272C27.5539 162.45 27.7352 161.709 28.0979 161.048C28.4712 160.386 28.9779 159.874 29.6179 159.512C30.2685 159.138 30.9992 158.952 31.8099 158.952C32.6205 158.952 33.3405 159.138 33.9699 159.512C34.6099 159.874 35.1059 160.386 35.4579 161.048C35.8205 161.709 36.0019 162.466 36.0019 163.32ZM31.8099 160.248C31.0739 160.248 30.4552 160.472 29.9539 160.92C29.4632 161.368 29.1752 161.954 29.0899 162.68H34.5299C34.4445 161.965 34.1512 161.384 33.6499 160.936C33.1592 160.477 32.5459 160.248 31.8099 160.248ZM49.0627 158.952C50.1294 158.952 50.9721 159.261 51.5907 159.88C52.2201 160.498 52.5347 161.416 52.5347 162.632V167.512H50.9987V162.808C50.9987 161.986 50.8067 161.368 50.4227 160.952C50.0494 160.536 49.5107 160.328 48.8067 160.328C48.0281 160.328 47.4094 160.573 46.9507 161.064C46.4921 161.544 46.2627 162.237 46.2627 163.144V167.512H44.7267V162.808C44.7267 161.986 44.5347 161.368 44.1507 160.952C43.7774 160.536 43.2387 160.328 42.5347 160.328C41.7561 160.328 41.1374 160.573 40.6787 161.064C40.2201 161.544 39.9907 162.237 39.9907 163.144V167.512H38.4547V159.032H39.9267V160.296C40.2361 159.858 40.6414 159.528 41.1427 159.304C41.6441 159.069 42.2147 158.952 42.8547 158.952C43.5161 158.952 44.1027 159.085 44.6147 159.352C45.1267 159.618 45.5214 160.008 45.7987 160.52C46.1187 160.029 46.5614 159.645 47.1267 159.368C47.7027 159.09 48.3481 158.952 49.0627 158.952ZM60.2979 159.032H61.8339V167.512H60.2979V159.032ZM61.0659 157.4C60.7672 157.4 60.5165 157.304 60.3139 157.112C60.1219 156.92 60.0259 156.685 60.0259 156.408C60.0259 156.13 60.1219 155.896 60.3139 155.704C60.5165 155.501 60.7672 155.4 61.0659 155.4C61.3645 155.4 61.6099 155.496 61.8019 155.688C62.0045 155.869 62.1059 156.098 62.1059 156.376C62.1059 156.664 62.0045 156.909 61.8019 157.112C61.6099 157.304 61.3645 157.4 61.0659 157.4ZM69.5826 158.952C70.404 158.952 71.14 159.133 71.7906 159.496C72.4413 159.858 72.948 160.365 73.3106 161.016C73.684 161.666 73.8706 162.418 73.8706 163.272C73.8706 164.125 73.684 164.882 73.3106 165.544C72.948 166.194 72.4413 166.701 71.7906 167.064C71.14 167.426 70.404 167.608 69.5826 167.608C68.9746 167.608 68.4146 167.49 67.9026 167.256C67.4013 167.021 66.9746 166.68 66.6226 166.232V170.616H65.0866V159.032H66.5586V160.376C66.9 159.906 67.332 159.554 67.8546 159.32C68.3773 159.074 68.9533 158.952 69.5826 158.952ZM69.4546 166.264C69.9986 166.264 70.484 166.141 70.9106 165.896C71.348 165.64 71.6893 165.288 71.9346 164.84C72.1906 164.381 72.3186 163.858 72.3186 163.272C72.3186 162.685 72.1906 162.168 71.9346 161.72C71.6893 161.261 71.348 160.909 70.9106 160.664C70.484 160.418 69.9986 160.296 69.4546 160.296C68.9213 160.296 68.436 160.424 67.9986 160.68C67.572 160.925 67.2306 161.272 66.9746 161.72C66.7293 162.168 66.6066 162.685 66.6066 163.272C66.6066 163.858 66.7293 164.381 66.9746 164.84C67.22 165.288 67.5613 165.64 67.9986 165.896C68.436 166.141 68.9213 166.264 69.4546 166.264ZM78.7449 167.608C78.0515 167.608 77.3849 167.517 76.7449 167.336C76.1049 167.144 75.6035 166.904 75.2409 166.616L75.8809 165.4C76.2542 165.666 76.7075 165.88 77.2409 166.04C77.7742 166.2 78.3129 166.28 78.8569 166.28C80.2009 166.28 80.8729 165.896 80.8729 165.128C80.8729 164.872 80.7822 164.669 80.6009 164.52C80.4195 164.37 80.1902 164.264 79.9129 164.2C79.6462 164.125 79.2622 164.045 78.7609 163.96C78.0782 163.853 77.5182 163.73 77.0809 163.592C76.6542 163.453 76.2862 163.218 75.9769 162.888C75.6675 162.557 75.5129 162.093 75.5129 161.496C75.5129 160.728 75.8329 160.114 76.4729 159.656C77.1129 159.186 77.9715 158.952 79.0489 158.952C79.6142 158.952 80.1795 159.021 80.7449 159.16C81.3102 159.298 81.7742 159.485 82.1369 159.72L81.4809 160.936C80.7875 160.488 79.9715 160.264 79.0329 160.264C78.3822 160.264 77.8862 160.37 77.5449 160.584C77.2035 160.797 77.0329 161.08 77.0329 161.432C77.0329 161.709 77.1289 161.928 77.3209 162.088C77.5129 162.248 77.7475 162.365 78.0249 162.44C78.3129 162.514 78.7129 162.6 79.2249 162.696C79.9075 162.813 80.4569 162.941 80.8729 163.08C81.2995 163.208 81.6622 163.432 81.9609 163.752C82.2595 164.072 82.4089 164.52 82.4089 165.096C82.4089 165.864 82.0782 166.477 81.4169 166.936C80.7662 167.384 79.8755 167.608 78.7449 167.608ZM92.5525 159.032V167.512H91.0965V166.232C90.7872 166.669 90.3765 167.01 89.8645 167.256C89.3632 167.49 88.8138 167.608 88.2165 167.608C87.0858 167.608 86.1952 167.298 85.5445 166.68C84.8938 166.05 84.5685 165.128 84.5685 163.912V159.032H86.1045V163.736C86.1045 164.557 86.3018 165.181 86.6965 165.608C87.0912 166.024 87.6565 166.232 88.3925 166.232C89.2032 166.232 89.8432 165.986 90.3125 165.496C90.7818 165.005 91.0165 164.312 91.0165 163.416V159.032H92.5525ZM106.405 158.952C107.471 158.952 108.314 159.261 108.933 159.88C109.562 160.498 109.877 161.416 109.877 162.632V167.512H108.341V162.808C108.341 161.986 108.149 161.368 107.765 160.952C107.391 160.536 106.853 160.328 106.149 160.328C105.37 160.328 104.751 160.573 104.293 161.064C103.834 161.544 103.605 162.237 103.605 163.144V167.512H102.069V162.808C102.069 161.986 101.877 161.368 101.493 160.952C101.119 160.536 100.581 160.328 99.8766 160.328C99.098 160.328 98.4793 160.573 98.0206 161.064C97.562 161.544 97.3326 162.237 97.3326 163.144V167.512H95.7966V159.032H97.2686V160.296C97.578 159.858 97.9833 159.528 98.4846 159.304C98.986 159.069 99.5566 158.952 100.197 158.952C100.858 158.952 101.445 159.085 101.957 159.352C102.469 159.618 102.863 160.008 103.141 160.52C103.461 160.029 103.903 159.645 104.469 159.368C105.045 159.09 105.69 158.952 106.405 158.952ZM125.64 155.64V167.512H124.168V166.168C123.826 166.637 123.394 166.994 122.872 167.24C122.349 167.485 121.773 167.608 121.144 167.608C120.322 167.608 119.586 167.426 118.936 167.064C118.285 166.701 117.773 166.194 117.4 165.544C117.037 164.882 116.856 164.125 116.856 163.272C116.856 162.418 117.037 161.666 117.4 161.016C117.773 160.365 118.285 159.858 118.936 159.496C119.586 159.133 120.322 158.952 121.144 158.952C121.752 158.952 122.312 159.069 122.824 159.304C123.336 159.528 123.762 159.864 124.104 160.312V155.64H125.64ZM121.272 166.264C121.805 166.264 122.29 166.141 122.728 165.896C123.165 165.64 123.506 165.288 123.752 164.84C123.997 164.381 124.12 163.858 124.12 163.272C124.12 162.685 123.997 162.168 123.752 161.72C123.506 161.261 123.165 160.909 122.728 160.664C122.29 160.418 121.805 160.296 121.272 160.296C120.728 160.296 120.237 160.418 119.8 160.664C119.373 160.909 119.032 161.261 118.776 161.72C118.53 162.168 118.408 162.685 118.408 163.272C118.408 163.858 118.53 164.381 118.776 164.84C119.032 165.288 119.373 165.64 119.8 165.896C120.237 166.141 120.728 166.264 121.272 166.264ZM132.498 167.608C131.655 167.608 130.898 167.421 130.226 167.048C129.554 166.674 129.026 166.162 128.642 165.512C128.269 164.85 128.082 164.104 128.082 163.272C128.082 162.44 128.269 161.698 128.642 161.048C129.026 160.386 129.554 159.874 130.226 159.512C130.898 159.138 131.655 158.952 132.498 158.952C133.341 158.952 134.093 159.138 134.754 159.512C135.426 159.874 135.949 160.386 136.322 161.048C136.706 161.698 136.898 162.44 136.898 163.272C136.898 164.104 136.706 164.85 136.322 165.512C135.949 166.162 135.426 166.674 134.754 167.048C134.093 167.421 133.341 167.608 132.498 167.608ZM132.498 166.264C133.042 166.264 133.527 166.141 133.954 165.896C134.391 165.64 134.733 165.288 134.978 164.84C135.223 164.381 135.346 163.858 135.346 163.272C135.346 162.685 135.223 162.168 134.978 161.72C134.733 161.261 134.391 160.909 133.954 160.664C133.527 160.418 133.042 160.296 132.498 160.296C131.954 160.296 131.463 160.418 131.026 160.664C130.599 160.909 130.258 161.261 130.002 161.72C129.757 162.168 129.634 162.685 129.634 163.272C129.634 163.858 129.757 164.381 130.002 164.84C130.258 165.288 130.599 165.64 131.026 165.896C131.463 166.141 131.954 166.264 132.498 166.264ZM139.342 155.64H140.878V167.512H139.342V155.64ZM147.763 167.608C146.92 167.608 146.163 167.421 145.491 167.048C144.819 166.674 144.291 166.162 143.907 165.512C143.534 164.85 143.347 164.104 143.347 163.272C143.347 162.44 143.534 161.698 143.907 161.048C144.291 160.386 144.819 159.874 145.491 159.512C146.163 159.138 146.92 158.952 147.763 158.952C148.606 158.952 149.358 159.138 150.019 159.512C150.691 159.874 151.214 160.386 151.587 161.048C151.971 161.698 152.163 162.44 152.163 163.272C152.163 164.104 151.971 164.85 151.587 165.512C151.214 166.162 150.691 166.674 150.019 167.048C149.358 167.421 148.606 167.608 147.763 167.608ZM147.763 166.264C148.307 166.264 148.792 166.141 149.219 165.896C149.656 165.64 149.998 165.288 150.243 164.84C150.488 164.381 150.611 163.858 150.611 163.272C150.611 162.685 150.488 162.168 150.243 161.72C149.998 161.261 149.656 160.909 149.219 160.664C148.792 160.418 148.307 160.296 147.763 160.296C147.219 160.296 146.728 160.418 146.291 160.664C145.864 160.909 145.523 161.261 145.267 161.72C145.022 162.168 144.899 162.685 144.899 163.272C144.899 163.858 145.022 164.381 145.267 164.84C145.523 165.288 145.864 165.64 146.291 165.896C146.728 166.141 147.219 166.264 147.763 166.264ZM156.079 160.456C156.346 159.965 156.741 159.592 157.263 159.336C157.786 159.08 158.421 158.952 159.167 158.952V160.44C159.082 160.429 158.965 160.424 158.815 160.424C157.983 160.424 157.327 160.674 156.847 161.176C156.378 161.666 156.143 162.37 156.143 163.288V167.512H154.607V159.032H156.079V160.456ZM168.539 167.608C167.845 167.608 167.179 167.517 166.539 167.336C165.899 167.144 165.397 166.904 165.035 166.616L165.675 165.4C166.048 165.666 166.501 165.88 167.035 166.04C167.568 166.2 168.107 166.28 168.651 166.28C169.995 166.28 170.667 165.896 170.667 165.128C170.667 164.872 170.576 164.669 170.395 164.52C170.213 164.37 169.984 164.264 169.707 164.2C169.44 164.125 169.056 164.045 168.555 163.96C167.872 163.853 167.312 163.73 166.875 163.592C166.448 163.453 166.08 163.218 165.771 162.888C165.461 162.557 165.307 162.093 165.307 161.496C165.307 160.728 165.627 160.114 166.267 159.656C166.907 159.186 167.765 158.952 168.843 158.952C169.408 158.952 169.973 159.021 170.539 159.16C171.104 159.298 171.568 159.485 171.931 159.72L171.275 160.936C170.581 160.488 169.765 160.264 168.827 160.264C168.176 160.264 167.68 160.37 167.339 160.584C166.997 160.797 166.827 161.08 166.827 161.432C166.827 161.709 166.923 161.928 167.115 162.088C167.307 162.248 167.541 162.365 167.819 162.44C168.107 162.514 168.507 162.6 169.019 162.696C169.701 162.813 170.251 162.941 170.667 163.08C171.093 163.208 171.456 163.432 171.755 163.752C172.053 164.072 172.203 164.52 172.203 165.096C172.203 165.864 171.872 166.477 171.211 166.936C170.56 167.384 169.669 167.608 168.539 167.608ZM174.442 159.032H175.978V167.512H174.442V159.032ZM175.21 157.4C174.912 157.4 174.661 157.304 174.458 157.112C174.266 156.92 174.17 156.685 174.17 156.408C174.17 156.13 174.266 155.896 174.458 155.704C174.661 155.501 174.912 155.4 175.21 155.4C175.509 155.4 175.754 155.496 175.946 155.688C176.149 155.869 176.25 156.098 176.25 156.376C176.25 156.664 176.149 156.909 175.946 157.112C175.754 157.304 175.509 157.4 175.21 157.4ZM183.999 167.016C183.775 167.208 183.498 167.357 183.167 167.464C182.836 167.56 182.495 167.608 182.143 167.608C181.29 167.608 180.628 167.378 180.159 166.92C179.69 166.461 179.455 165.805 179.455 164.952V160.296H178.015V159.032H179.455V157.176H180.991V159.032H183.423V160.296H180.991V164.888C180.991 165.346 181.103 165.698 181.327 165.944C181.562 166.189 181.892 166.312 182.319 166.312C182.788 166.312 183.188 166.178 183.519 165.912L183.999 167.016ZM193.881 158.952C195.054 158.952 195.95 159.24 196.569 159.816C197.198 160.392 197.513 161.25 197.513 162.392V167.512H196.057V166.392C195.801 166.786 195.433 167.09 194.953 167.304C194.484 167.506 193.924 167.608 193.273 167.608C192.324 167.608 191.561 167.378 190.985 166.92C190.42 166.461 190.137 165.858 190.137 165.112C190.137 164.365 190.409 163.768 190.953 163.32C191.497 162.861 192.361 162.632 193.545 162.632H195.977V162.328C195.977 161.666 195.785 161.16 195.401 160.808C195.017 160.456 194.452 160.28 193.705 160.28C193.204 160.28 192.713 160.365 192.233 160.536C191.753 160.696 191.348 160.914 191.017 161.192L190.377 160.04C190.814 159.688 191.337 159.421 191.945 159.24C192.553 159.048 193.198 158.952 193.881 158.952ZM193.529 166.424C194.116 166.424 194.622 166.296 195.049 166.04C195.476 165.773 195.785 165.4 195.977 164.92V163.736H193.609C192.308 163.736 191.657 164.173 191.657 165.048C191.657 165.474 191.822 165.81 192.153 166.056C192.484 166.301 192.942 166.424 193.529 166.424ZM211.283 158.952C212.35 158.952 213.193 159.261 213.811 159.88C214.441 160.498 214.755 161.416 214.755 162.632V167.512H213.219V162.808C213.219 161.986 213.027 161.368 212.643 160.952C212.27 160.536 211.731 160.328 211.027 160.328C210.249 160.328 209.63 160.573 209.171 161.064C208.713 161.544 208.483 162.237 208.483 163.144V167.512H206.947V162.808C206.947 161.986 206.755 161.368 206.371 160.952C205.998 160.536 205.459 160.328 204.755 160.328C203.977 160.328 203.358 160.573 202.899 161.064C202.441 161.544 202.211 162.237 202.211 163.144V167.512H200.675V159.032H202.147V160.296C202.457 159.858 202.862 159.528 203.363 159.304C203.865 159.069 204.435 158.952 205.075 158.952C205.737 158.952 206.323 159.085 206.835 159.352C207.347 159.618 207.742 160.008 208.019 160.52C208.339 160.029 208.782 159.645 209.347 159.368C209.923 159.09 210.569 158.952 211.283 158.952ZM225.612 163.32C225.612 163.437 225.602 163.592 225.58 163.784H218.7C218.796 164.53 219.122 165.133 219.676 165.592C220.242 166.04 220.94 166.264 221.772 166.264C222.786 166.264 223.602 165.922 224.22 165.24L225.068 166.232C224.684 166.68 224.204 167.021 223.628 167.256C223.063 167.49 222.428 167.608 221.724 167.608C220.828 167.608 220.034 167.426 219.34 167.064C218.647 166.69 218.108 166.173 217.724 165.512C217.351 164.85 217.164 164.104 217.164 163.272C217.164 162.45 217.346 161.709 217.708 161.048C218.082 160.386 218.588 159.874 219.228 159.512C219.879 159.138 220.61 158.952 221.42 158.952C222.231 158.952 222.951 159.138 223.58 159.512C224.22 159.874 224.716 160.386 225.068 161.048C225.431 161.709 225.612 162.466 225.612 163.32ZM221.42 160.248C220.684 160.248 220.066 160.472 219.564 160.92C219.074 161.368 218.786 161.954 218.7 162.68H224.14C224.055 161.965 223.762 161.384 223.26 160.936C222.77 160.477 222.156 160.248 221.42 160.248ZM232.833 167.016C232.609 167.208 232.332 167.357 232.001 167.464C231.671 167.56 231.329 167.608 230.977 167.608C230.124 167.608 229.463 167.378 228.993 166.92C228.524 166.461 228.289 165.805 228.289 164.952V160.296H226.849V159.032H228.289V157.176H229.825V159.032H232.257V160.296H229.825V164.888C229.825 165.346 229.937 165.698 230.161 165.944C230.396 166.189 230.727 166.312 231.153 166.312C231.623 166.312 232.023 166.178 232.353 165.912L232.833 167.016ZM235.551 165.416C235.849 165.416 236.095 165.522 236.287 165.736C236.489 165.938 236.591 166.194 236.591 166.504C236.591 166.664 236.569 166.818 236.527 166.968C236.495 167.117 236.425 167.346 236.319 167.656L235.567 169.88H234.559L235.151 167.496C234.948 167.421 234.783 167.298 234.655 167.128C234.537 166.946 234.479 166.738 234.479 166.504C234.479 166.184 234.58 165.922 234.783 165.72C234.985 165.517 235.241 165.416 235.551 165.416ZM247.425 167.608C246.561 167.608 245.787 167.421 245.105 167.048C244.433 166.674 243.905 166.162 243.521 165.512C243.137 164.85 242.945 164.104 242.945 163.272C242.945 162.44 243.137 161.698 243.521 161.048C243.905 160.386 244.433 159.874 245.105 159.512C245.787 159.138 246.561 158.952 247.425 158.952C248.193 158.952 248.875 159.106 249.473 159.416C250.081 159.725 250.55 160.173 250.881 160.76L249.713 161.512C249.446 161.106 249.115 160.802 248.721 160.6C248.326 160.397 247.889 160.296 247.409 160.296C246.854 160.296 246.353 160.418 245.905 160.664C245.467 160.909 245.121 161.261 244.865 161.72C244.619 162.168 244.497 162.685 244.497 163.272C244.497 163.869 244.619 164.397 244.865 164.856C245.121 165.304 245.467 165.65 245.905 165.896C246.353 166.141 246.854 166.264 247.409 166.264C247.889 166.264 248.326 166.162 248.721 165.96C249.115 165.757 249.446 165.453 249.713 165.048L250.881 165.784C250.55 166.37 250.081 166.824 249.473 167.144C248.875 167.453 248.193 167.608 247.425 167.608ZM256.696 167.608C255.853 167.608 255.096 167.421 254.424 167.048C253.752 166.674 253.224 166.162 252.84 165.512C252.467 164.85 252.28 164.104 252.28 163.272C252.28 162.44 252.467 161.698 252.84 161.048C253.224 160.386 253.752 159.874 254.424 159.512C255.096 159.138 255.853 158.952 256.696 158.952C257.539 158.952 258.291 159.138 258.952 159.512C259.624 159.874 260.147 160.386 260.52 161.048C260.904 161.698 261.096 162.44 261.096 163.272C261.096 164.104 260.904 164.85 260.52 165.512C260.147 166.162 259.624 166.674 258.952 167.048C258.291 167.421 257.539 167.608 256.696 167.608ZM256.696 166.264C257.24 166.264 257.725 166.141 258.152 165.896C258.589 165.64 258.931 165.288 259.176 164.84C259.421 164.381 259.544 163.858 259.544 163.272C259.544 162.685 259.421 162.168 259.176 161.72C258.931 161.261 258.589 160.909 258.152 160.664C257.725 160.418 257.24 160.296 256.696 160.296C256.152 160.296 255.661 160.418 255.224 160.664C254.797 160.909 254.456 161.261 254.2 161.72C253.955 162.168 253.832 162.685 253.832 163.272C253.832 163.858 253.955 164.381 254.2 164.84C254.456 165.288 254.797 165.64 255.224 165.896C255.661 166.141 256.152 166.264 256.696 166.264ZM268.068 158.952C269.146 158.952 269.999 159.266 270.628 159.896C271.268 160.514 271.588 161.426 271.588 162.632V167.512H270.052V162.808C270.052 161.986 269.855 161.368 269.46 160.952C269.066 160.536 268.5 160.328 267.764 160.328C266.932 160.328 266.276 160.573 265.796 161.064C265.316 161.544 265.076 162.237 265.076 163.144V167.512H263.54V159.032H265.012V160.312C265.322 159.874 265.738 159.538 266.26 159.304C266.794 159.069 267.396 158.952 268.068 158.952ZM277.183 167.608C276.49 167.608 275.823 167.517 275.183 167.336C274.543 167.144 274.042 166.904 273.679 166.616L274.319 165.4C274.692 165.666 275.146 165.88 275.679 166.04C276.212 166.2 276.751 166.28 277.295 166.28C278.639 166.28 279.311 165.896 279.311 165.128C279.311 164.872 279.22 164.669 279.039 164.52C278.858 164.37 278.628 164.264 278.351 164.2C278.084 164.125 277.7 164.045 277.199 163.96C276.516 163.853 275.956 163.73 275.519 163.592C275.092 163.453 274.724 163.218 274.415 162.888C274.106 162.557 273.951 162.093 273.951 161.496C273.951 160.728 274.271 160.114 274.911 159.656C275.551 159.186 276.41 158.952 277.487 158.952C278.052 158.952 278.618 159.021 279.183 159.16C279.748 159.298 280.212 159.485 280.575 159.72L279.919 160.936C279.226 160.488 278.41 160.264 277.471 160.264C276.82 160.264 276.324 160.37 275.983 160.584C275.642 160.797 275.471 161.08 275.471 161.432C275.471 161.709 275.567 161.928 275.759 162.088C275.951 162.248 276.186 162.365 276.463 162.44C276.751 162.514 277.151 162.6 277.663 162.696C278.346 162.813 278.895 162.941 279.311 163.08C279.738 163.208 280.1 163.432 280.399 163.752C280.698 164.072 280.847 164.52 280.847 165.096C280.847 165.864 280.516 166.477 279.855 166.936C279.204 167.384 278.314 167.608 277.183 167.608ZM290.751 163.32C290.751 163.437 290.74 163.592 290.719 163.784H283.839C283.935 164.53 284.26 165.133 284.815 165.592C285.38 166.04 286.079 166.264 286.911 166.264C287.924 166.264 288.74 165.922 289.359 165.24L290.207 166.232C289.823 166.68 289.343 167.021 288.767 167.256C288.201 167.49 287.567 167.608 286.863 167.608C285.967 167.608 285.172 167.426 284.479 167.064C283.785 166.69 283.247 166.173 282.863 165.512C282.489 164.85 282.303 164.104 282.303 163.272C282.303 162.45 282.484 161.709 282.847 161.048C283.22 160.386 283.727 159.874 284.367 159.512C285.017 159.138 285.748 158.952 286.559 158.952C287.369 158.952 288.089 159.138 288.719 159.512C289.359 159.874 289.855 160.386 290.207 161.048C290.569 161.709 290.751 162.466 290.751 163.32ZM286.559 160.248C285.823 160.248 285.204 160.472 284.703 160.92C284.212 161.368 283.924 161.954 283.839 162.68H289.279C289.193 161.965 288.9 161.384 288.399 160.936C287.908 160.477 287.295 160.248 286.559 160.248ZM296.899 167.608C296.035 167.608 295.262 167.421 294.579 167.048C293.907 166.674 293.379 166.162 292.995 165.512C292.611 164.85 292.419 164.104 292.419 163.272C292.419 162.44 292.611 161.698 292.995 161.048C293.379 160.386 293.907 159.874 294.579 159.512C295.262 159.138 296.035 158.952 296.899 158.952C297.667 158.952 298.35 159.106 298.947 159.416C299.555 159.725 300.025 160.173 300.355 160.76L299.187 161.512C298.921 161.106 298.59 160.802 298.195 160.6C297.801 160.397 297.363 160.296 296.883 160.296C296.329 160.296 295.827 160.418 295.379 160.664C294.942 160.909 294.595 161.261 294.339 161.72C294.094 162.168 293.971 162.685 293.971 163.272C293.971 163.869 294.094 164.397 294.339 164.856C294.595 165.304 294.942 165.65 295.379 165.896C295.827 166.141 296.329 166.264 296.883 166.264C297.363 166.264 297.801 166.162 298.195 165.96C298.59 165.757 298.921 165.453 299.187 165.048L300.355 165.784C300.025 166.37 299.555 166.824 298.947 167.144C298.35 167.453 297.667 167.608 296.899 167.608ZM307.542 167.016C307.318 167.208 307.04 167.357 306.71 167.464C306.379 167.56 306.038 167.608 305.686 167.608C304.832 167.608 304.171 167.378 303.702 166.92C303.232 166.461 302.998 165.805 302.998 164.952V160.296H301.558V159.032H302.998V157.176H304.534V159.032H306.966V160.296H304.534V164.888C304.534 165.346 304.646 165.698 304.87 165.944C305.104 166.189 305.435 166.312 305.862 166.312C306.331 166.312 306.731 166.178 307.062 165.912L307.542 167.016ZM317.101 163.32C317.101 163.437 317.091 163.592 317.069 163.784H310.189C310.285 164.53 310.611 165.133 311.165 165.592C311.731 166.04 312.429 166.264 313.261 166.264C314.275 166.264 315.091 165.922 315.709 165.24L316.557 166.232C316.173 166.68 315.693 167.021 315.117 167.256C314.552 167.49 313.917 167.608 313.213 167.608C312.317 167.608 311.523 167.426 310.829 167.064C310.136 166.69 309.597 166.173 309.213 165.512C308.84 164.85 308.653 164.104 308.653 163.272C308.653 162.45 308.835 161.709 309.197 161.048C309.571 160.386 310.077 159.874 310.717 159.512C311.368 159.138 312.099 158.952 312.909 158.952C313.72 158.952 314.44 159.138 315.069 159.512C315.709 159.874 316.205 160.386 316.557 161.048C316.92 161.709 317.101 162.466 317.101 163.32ZM312.909 160.248C312.173 160.248 311.555 160.472 311.053 160.92C310.563 161.368 310.275 161.954 310.189 162.68H315.629C315.544 161.965 315.251 161.384 314.749 160.936C314.259 160.477 313.645 160.248 312.909 160.248ZM324.322 167.016C324.098 167.208 323.821 167.357 323.49 167.464C323.159 167.56 322.818 167.608 322.466 167.608C321.613 167.608 320.951 167.378 320.482 166.92C320.013 166.461 319.778 165.805 319.778 164.952V160.296H318.338V159.032H319.778V157.176H321.314V159.032H323.746V160.296H321.314V164.888C321.314 165.346 321.426 165.698 321.65 165.944C321.885 166.189 322.215 166.312 322.642 166.312C323.111 166.312 323.511 166.178 323.842 165.912L324.322 167.016ZM334.403 159.032V167.512H332.947V166.232C332.638 166.669 332.227 167.01 331.715 167.256C331.214 167.49 330.664 167.608 330.067 167.608C328.936 167.608 328.046 167.298 327.395 166.68C326.744 166.05 326.419 165.128 326.419 163.912V159.032H327.955V163.736C327.955 164.557 328.152 165.181 328.547 165.608C328.942 166.024 329.507 166.232 330.243 166.232C331.054 166.232 331.694 165.986 332.163 165.496C332.632 165.005 332.867 164.312 332.867 163.416V159.032H334.403ZM339.119 160.456C339.386 159.965 339.781 159.592 340.303 159.336C340.826 159.08 341.461 158.952 342.207 158.952V160.44C342.122 160.429 342.005 160.424 341.855 160.424C341.023 160.424 340.367 160.674 339.887 161.176C339.418 161.666 339.183 162.37 339.183 163.288V167.512H337.647V159.032H339.119V160.456ZM352.235 158.952C353.408 158.952 354.304 159.24 354.923 159.816C355.552 160.392 355.867 161.25 355.867 162.392V167.512H354.411V166.392C354.155 166.786 353.787 167.09 353.307 167.304C352.837 167.506 352.277 167.608 351.627 167.608C350.677 167.608 349.915 167.378 349.339 166.92C348.773 166.461 348.491 165.858 348.491 165.112C348.491 164.365 348.763 163.768 349.307 163.32C349.851 162.861 350.715 162.632 351.899 162.632H354.331V162.328C354.331 161.666 354.139 161.16 353.755 160.808C353.371 160.456 352.805 160.28 352.059 160.28C351.557 160.28 351.067 160.365 350.587 160.536C350.107 160.696 349.701 160.914 349.371 161.192L348.731 160.04C349.168 159.688 349.691 159.421 350.299 159.24C350.907 159.048 351.552 158.952 352.235 158.952ZM351.883 166.424C352.469 166.424 352.976 166.296 353.403 166.04C353.829 165.773 354.139 165.4 354.331 164.92V163.736H351.963C350.661 163.736 350.011 164.173 350.011 165.048C350.011 165.474 350.176 165.81 350.507 166.056C350.837 166.301 351.296 166.424 351.883 166.424ZM367.076 155.64V167.512H365.604V166.168C365.263 166.637 364.831 166.994 364.308 167.24C363.785 167.485 363.209 167.608 362.58 167.608C361.759 167.608 361.023 167.426 360.372 167.064C359.721 166.701 359.209 166.194 358.836 165.544C358.473 164.882 358.292 164.125 358.292 163.272C358.292 162.418 358.473 161.666 358.836 161.016C359.209 160.365 359.721 159.858 360.372 159.496C361.023 159.133 361.759 158.952 362.58 158.952C363.188 158.952 363.748 159.069 364.26 159.304C364.772 159.528 365.199 159.864 365.54 160.312V155.64H367.076ZM362.708 166.264C363.241 166.264 363.727 166.141 364.164 165.896C364.601 165.64 364.943 165.288 365.188 164.84C365.433 164.381 365.556 163.858 365.556 163.272C365.556 162.685 365.433 162.168 365.188 161.72C364.943 161.261 364.601 160.909 364.164 160.664C363.727 160.418 363.241 160.296 362.708 160.296C362.164 160.296 361.673 160.418 361.236 160.664C360.809 160.909 360.468 161.261 360.212 161.72C359.967 162.168 359.844 162.685 359.844 163.272C359.844 163.858 359.967 164.381 360.212 164.84C360.468 165.288 360.809 165.64 361.236 165.896C361.673 166.141 362.164 166.264 362.708 166.264ZM370.302 159.032H371.838V167.512H370.302V159.032ZM371.07 157.4C370.772 157.4 370.521 157.304 370.318 157.112C370.126 156.92 370.03 156.685 370.03 156.408C370.03 156.13 370.126 155.896 370.318 155.704C370.521 155.501 370.772 155.4 371.07 155.4C371.369 155.4 371.614 155.496 371.806 155.688C372.009 155.869 372.11 156.098 372.11 156.376C372.11 156.664 372.009 156.909 371.806 157.112C371.614 157.304 371.369 157.4 371.07 157.4ZM379.587 158.952C380.408 158.952 381.144 159.133 381.795 159.496C382.446 159.858 382.952 160.365 383.315 161.016C383.688 161.666 383.875 162.418 383.875 163.272C383.875 164.125 383.688 164.882 383.315 165.544C382.952 166.194 382.446 166.701 381.795 167.064C381.144 167.426 380.408 167.608 379.587 167.608C378.979 167.608 378.419 167.49 377.907 167.256C377.406 167.021 376.979 166.68 376.627 166.232V170.616H375.091V159.032H376.563V160.376C376.904 159.906 377.336 159.554 377.859 159.32C378.382 159.074 378.958 158.952 379.587 158.952ZM379.459 166.264C380.003 166.264 380.488 166.141 380.915 165.896C381.352 165.64 381.694 165.288 381.939 164.84C382.195 164.381 382.323 163.858 382.323 163.272C382.323 162.685 382.195 162.168 381.939 161.72C381.694 161.261 381.352 160.909 380.915 160.664C380.488 160.418 380.003 160.296 379.459 160.296C378.926 160.296 378.44 160.424 378.003 160.68C377.576 160.925 377.235 161.272 376.979 161.72C376.734 162.168 376.611 162.685 376.611 163.272C376.611 163.858 376.734 164.381 376.979 164.84C377.224 165.288 377.566 165.64 378.003 165.896C378.44 166.141 378.926 166.264 379.459 166.264ZM386.317 159.032H387.853V167.512H386.317V159.032ZM387.085 157.4C386.787 157.4 386.536 157.304 386.333 157.112C386.141 156.92 386.045 156.685 386.045 156.408C386.045 156.13 386.141 155.896 386.333 155.704C386.536 155.501 386.787 155.4 387.085 155.4C387.384 155.4 387.629 155.496 387.821 155.688C388.024 155.869 388.125 156.098 388.125 156.376C388.125 156.664 388.024 156.909 387.821 157.112C387.629 157.304 387.384 157.4 387.085 157.4ZM393.538 167.608C392.845 167.608 392.178 167.517 391.538 167.336C390.898 167.144 390.397 166.904 390.034 166.616L390.674 165.4C391.047 165.666 391.501 165.88 392.034 166.04C392.567 166.2 393.106 166.28 393.65 166.28C394.994 166.28 395.666 165.896 395.666 165.128C395.666 164.872 395.575 164.669 395.394 164.52C395.213 164.37 394.983 164.264 394.706 164.2C394.439 164.125 394.055 164.045 393.554 163.96C392.871 163.853 392.311 163.73 391.874 163.592C391.447 163.453 391.079 163.218 390.77 162.888C390.461 162.557 390.306 162.093 390.306 161.496C390.306 160.728 390.626 160.114 391.266 159.656C391.906 159.186 392.765 158.952 393.842 158.952C394.407 158.952 394.973 159.021 395.538 159.16C396.103 159.298 396.567 159.485 396.93 159.72L396.274 160.936C395.581 160.488 394.765 160.264 393.826 160.264C393.175 160.264 392.679 160.37 392.338 160.584C391.997 160.797 391.826 161.08 391.826 161.432C391.826 161.709 391.922 161.928 392.114 162.088C392.306 162.248 392.541 162.365 392.818 162.44C393.106 162.514 393.506 162.6 394.018 162.696C394.701 162.813 395.25 162.941 395.666 163.08C396.093 163.208 396.455 163.432 396.754 163.752C397.053 164.072 397.202 164.52 397.202 165.096C397.202 165.864 396.871 166.477 396.21 166.936C395.559 167.384 394.669 167.608 393.538 167.608ZM403.138 167.608C402.274 167.608 401.5 167.421 400.818 167.048C400.146 166.674 399.618 166.162 399.234 165.512C398.85 164.85 398.658 164.104 398.658 163.272C398.658 162.44 398.85 161.698 399.234 161.048C399.618 160.386 400.146 159.874 400.818 159.512C401.5 159.138 402.274 158.952 403.138 158.952C403.906 158.952 404.588 159.106 405.186 159.416C405.794 159.725 406.263 160.173 406.594 160.76L405.426 161.512C405.159 161.106 404.828 160.802 404.434 160.6C404.039 160.397 403.602 160.296 403.122 160.296C402.567 160.296 402.066 160.418 401.618 160.664C401.18 160.909 400.834 161.261 400.578 161.72C400.332 162.168 400.21 162.685 400.21 163.272C400.21 163.869 400.332 164.397 400.578 164.856C400.834 165.304 401.18 165.65 401.618 165.896C402.066 166.141 402.567 166.264 403.122 166.264C403.602 166.264 404.039 166.162 404.434 165.96C404.828 165.757 405.159 165.453 405.426 165.048L406.594 165.784C406.263 166.37 405.794 166.824 405.186 167.144C404.588 167.453 403.906 167.608 403.138 167.608ZM408.902 159.032H410.438V167.512H408.902V159.032ZM409.67 157.4C409.372 157.4 409.121 157.304 408.918 157.112C408.726 156.92 408.63 156.685 408.63 156.408C408.63 156.13 408.726 155.896 408.918 155.704C409.121 155.501 409.372 155.4 409.67 155.4C409.969 155.4 410.214 155.496 410.406 155.688C410.609 155.869 410.71 156.098 410.71 156.376C410.71 156.664 410.609 156.909 410.406 157.112C410.214 157.304 409.969 157.4 409.67 157.4ZM418.219 158.952C419.296 158.952 420.15 159.266 420.779 159.896C421.419 160.514 421.739 161.426 421.739 162.632V167.512H420.203V162.808C420.203 161.986 420.006 161.368 419.611 160.952C419.216 160.536 418.651 160.328 417.915 160.328C417.083 160.328 416.427 160.573 415.947 161.064C415.467 161.544 415.227 162.237 415.227 163.144V167.512H413.691V159.032H415.163V160.312C415.472 159.874 415.888 159.538 416.411 159.304C416.944 159.069 417.547 158.952 418.219 158.952ZM433.06 159.032V166.36C433.06 167.842 432.692 168.936 431.956 169.64C431.22 170.354 430.122 170.712 428.66 170.712C427.86 170.712 427.098 170.6 426.372 170.376C425.647 170.162 425.06 169.853 424.612 169.448L425.348 168.264C425.743 168.605 426.228 168.872 426.804 169.064C427.391 169.266 427.994 169.368 428.612 169.368C429.604 169.368 430.335 169.133 430.804 168.664C431.284 168.194 431.524 167.48 431.524 166.52V165.848C431.162 166.285 430.714 166.616 430.18 166.84C429.658 167.053 429.087 167.16 428.468 167.16C427.658 167.16 426.922 166.989 426.26 166.648C425.61 166.296 425.098 165.81 424.724 165.192C424.351 164.562 424.164 163.848 424.164 163.048C424.164 162.248 424.351 161.538 424.724 160.92C425.098 160.29 425.61 159.805 426.26 159.464C426.922 159.122 427.658 158.952 428.468 158.952C429.108 158.952 429.7 159.069 430.244 159.304C430.799 159.538 431.252 159.885 431.604 160.344V159.032H433.06ZM428.644 165.816C429.199 165.816 429.695 165.698 430.132 165.464C430.58 165.229 430.927 164.904 431.172 164.488C431.428 164.061 431.556 163.581 431.556 163.048C431.556 162.226 431.284 161.565 430.74 161.064C430.196 160.552 429.498 160.296 428.644 160.296C427.78 160.296 427.076 160.552 426.532 161.064C425.988 161.565 425.716 162.226 425.716 163.048C425.716 163.581 425.839 164.061 426.084 164.488C426.34 164.904 426.687 165.229 427.124 165.464C427.572 165.698 428.079 165.816 428.644 165.816ZM9.12 186.32C9.12 186.437 9.10933 186.592 9.088 186.784H2.208C2.304 187.53 2.62933 188.133 3.184 188.592C3.74933 189.04 4.448 189.264 5.28 189.264C6.29333 189.264 7.10933 188.922 7.728 188.24L8.576 189.232C8.192 189.68 7.712 190.021 7.136 190.256C6.57067 190.49 5.936 190.608 5.232 190.608C4.336 190.608 3.54133 190.426 2.848 190.064C2.15467 189.69 1.616 189.173 1.232 188.512C0.858667 187.85 0.672 187.104 0.672 186.272C0.672 185.45 0.853333 184.709 1.216 184.048C1.58933 183.386 2.096 182.874 2.736 182.512C3.38667 182.138 4.11733 181.952 4.928 181.952C5.73867 181.952 6.45867 182.138 7.088 182.512C7.728 182.874 8.224 183.386 8.576 184.048C8.93867 184.709 9.12 185.466 9.12 186.32ZM4.928 183.248C4.192 183.248 3.57333 183.472 3.072 183.92C2.58133 184.368 2.29333 184.954 2.208 185.68H7.648C7.56267 184.965 7.26933 184.384 6.768 183.936C6.27733 183.477 5.664 183.248 4.928 183.248ZM11.5729 178.64H13.1089V190.512H11.5729V178.64ZM16.3616 182.032H17.8976V190.512H16.3616V182.032ZM17.1296 180.4C16.831 180.4 16.5803 180.304 16.3776 180.112C16.1856 179.92 16.0896 179.685 16.0896 179.408C16.0896 179.13 16.1856 178.896 16.3776 178.704C16.5803 178.501 16.831 178.4 17.1296 178.4C17.4283 178.4 17.6736 178.496 17.8656 178.688C18.0683 178.869 18.1696 179.098 18.1696 179.376C18.1696 179.664 18.0683 179.909 17.8656 180.112C17.6736 180.304 17.4283 180.4 17.1296 180.4ZM25.9184 190.016C25.6944 190.208 25.417 190.357 25.0864 190.464C24.7557 190.56 24.4144 190.608 24.0624 190.608C23.209 190.608 22.5477 190.378 22.0784 189.92C21.609 189.461 21.3744 188.805 21.3744 187.952V183.296H19.9344V182.032H21.3744V180.176H22.9104V182.032H25.3424V183.296H22.9104V187.888C22.9104 188.346 23.0224 188.698 23.2464 188.944C23.481 189.189 23.8117 189.312 24.2384 189.312C24.7077 189.312 25.1077 189.178 25.4384 188.912L25.9184 190.016ZM28.6356 188.416C28.9343 188.416 29.1796 188.522 29.3716 188.736C29.5743 188.938 29.6756 189.194 29.6756 189.504C29.6756 189.664 29.6543 189.818 29.6116 189.968C29.5796 190.117 29.5103 190.346 29.4036 190.656L28.6516 192.88H27.6436L28.2356 190.496C28.033 190.421 27.8676 190.298 27.7396 190.128C27.6223 189.946 27.5636 189.738 27.5636 189.504C27.5636 189.184 27.665 188.922 27.8676 188.72C28.0703 188.517 28.3263 188.416 28.6356 188.416ZM39.2455 190.608C38.5522 190.608 37.8855 190.517 37.2455 190.336C36.6055 190.144 36.1042 189.904 35.7415 189.616L36.3815 188.4C36.7548 188.666 37.2082 188.88 37.7415 189.04C38.2748 189.2 38.8135 189.28 39.3575 189.28C40.7015 189.28 41.3735 188.896 41.3735 188.128C41.3735 187.872 41.2828 187.669 41.1015 187.52C40.9202 187.37 40.6908 187.264 40.4135 187.2C40.1468 187.125 39.7628 187.045 39.2615 186.96C38.5788 186.853 38.0188 186.73 37.5815 186.592C37.1548 186.453 36.7868 186.218 36.4775 185.888C36.1682 185.557 36.0135 185.093 36.0135 184.496C36.0135 183.728 36.3335 183.114 36.9735 182.656C37.6135 182.186 38.4722 181.952 39.5495 181.952C40.1148 181.952 40.6802 182.021 41.2455 182.16C41.8108 182.298 42.2748 182.485 42.6375 182.72L41.9815 183.936C41.2882 183.488 40.4722 183.264 39.5335 183.264C38.8828 183.264 38.3868 183.37 38.0455 183.584C37.7042 183.797 37.5335 184.08 37.5335 184.432C37.5335 184.709 37.6295 184.928 37.8215 185.088C38.0135 185.248 38.2482 185.365 38.5255 185.44C38.8135 185.514 39.2135 185.6 39.7255 185.696C40.4082 185.813 40.9575 185.941 41.3735 186.08C41.8002 186.208 42.1628 186.432 42.4615 186.752C42.7602 187.072 42.9095 187.52 42.9095 188.096C42.9095 188.864 42.5788 189.477 41.9175 189.936C41.2668 190.384 40.3762 190.608 39.2455 190.608ZM52.8131 186.32C52.8131 186.437 52.8025 186.592 52.7811 186.784H45.9011C45.9971 187.53 46.3225 188.133 46.8771 188.592C47.4425 189.04 48.1411 189.264 48.9731 189.264C49.9865 189.264 50.8025 188.922 51.4211 188.24L52.2691 189.232C51.8851 189.68 51.4051 190.021 50.8291 190.256C50.2638 190.49 49.6291 190.608 48.9251 190.608C48.0291 190.608 47.2345 190.426 46.5411 190.064C45.8478 189.69 45.3091 189.173 44.9251 188.512C44.5518 187.85 44.3651 187.104 44.3651 186.272C44.3651 185.45 44.5465 184.709 44.9091 184.048C45.2825 183.386 45.7891 182.874 46.4291 182.512C47.0798 182.138 47.8105 181.952 48.6211 181.952C49.4318 181.952 50.1518 182.138 50.7811 182.512C51.4211 182.874 51.9171 183.386 52.2691 184.048C52.6318 184.709 52.8131 185.466 52.8131 186.32ZM48.6211 183.248C47.8851 183.248 47.2665 183.472 46.7651 183.92C46.2745 184.368 45.9865 184.954 45.9011 185.68H51.3411C51.2558 184.965 50.9625 184.384 50.4611 183.936C49.9705 183.477 49.3571 183.248 48.6211 183.248ZM63.266 178.64V190.512H61.794V189.168C61.4527 189.637 61.0207 189.994 60.498 190.24C59.9753 190.485 59.3993 190.608 58.77 190.608C57.9487 190.608 57.2127 190.426 56.562 190.064C55.9113 189.701 55.3993 189.194 55.026 188.544C54.6633 187.882 54.482 187.125 54.482 186.272C54.482 185.418 54.6633 184.666 55.026 184.016C55.3993 183.365 55.9113 182.858 56.562 182.496C57.2127 182.133 57.9487 181.952 58.77 181.952C59.378 181.952 59.938 182.069 60.45 182.304C60.962 182.528 61.3887 182.864 61.73 183.312V178.64H63.266ZM58.898 189.264C59.4313 189.264 59.9167 189.141 60.354 188.896C60.7913 188.64 61.1327 188.288 61.378 187.84C61.6233 187.381 61.746 186.858 61.746 186.272C61.746 185.685 61.6233 185.168 61.378 184.72C61.1327 184.261 60.7913 183.909 60.354 183.664C59.9167 183.418 59.4313 183.296 58.898 183.296C58.354 183.296 57.8633 183.418 57.426 183.664C56.9993 183.909 56.658 184.261 56.402 184.72C56.1567 185.168 56.034 185.685 56.034 186.272C56.034 186.858 56.1567 187.381 56.402 187.84C56.658 188.288 56.9993 188.64 57.426 188.896C57.8633 189.141 58.354 189.264 58.898 189.264ZM79.1091 178.64V190.512H77.6371V189.168C77.2958 189.637 76.8638 189.994 76.3411 190.24C75.8185 190.485 75.2425 190.608 74.6131 190.608C73.7918 190.608 73.0558 190.426 72.4051 190.064C71.7545 189.701 71.2425 189.194 70.8691 188.544C70.5065 187.882 70.3251 187.125 70.3251 186.272C70.3251 185.418 70.5065 184.666 70.8691 184.016C71.2425 183.365 71.7545 182.858 72.4051 182.496C73.0558 182.133 73.7918 181.952 74.6131 181.952C75.2211 181.952 75.7811 182.069 76.2931 182.304C76.8051 182.528 77.2318 182.864 77.5731 183.312V178.64H79.1091ZM74.7411 189.264C75.2745 189.264 75.7598 189.141 76.1971 188.896C76.6345 188.64 76.9758 188.288 77.2211 187.84C77.4665 187.381 77.5891 186.858 77.5891 186.272C77.5891 185.685 77.4665 185.168 77.2211 184.72C76.9758 184.261 76.6345 183.909 76.1971 183.664C75.7598 183.418 75.2745 183.296 74.7411 183.296C74.1971 183.296 73.7065 183.418 73.2691 183.664C72.8425 183.909 72.5011 184.261 72.2451 184.72C71.9998 185.168 71.8771 185.685 71.8771 186.272C71.8771 186.858 71.9998 187.381 72.2451 187.84C72.5011 188.288 72.8425 188.64 73.2691 188.896C73.7065 189.141 74.1971 189.264 74.7411 189.264ZM85.9674 190.608C85.1247 190.608 84.3674 190.421 83.6954 190.048C83.0234 189.674 82.4954 189.162 82.1114 188.512C81.738 187.85 81.5514 187.104 81.5514 186.272C81.5514 185.44 81.738 184.698 82.1114 184.048C82.4954 183.386 83.0234 182.874 83.6954 182.512C84.3674 182.138 85.1247 181.952 85.9674 181.952C86.81 181.952 87.562 182.138 88.2234 182.512C88.8954 182.874 89.418 183.386 89.7914 184.048C90.1754 184.698 90.3674 185.44 90.3674 186.272C90.3674 187.104 90.1754 187.85 89.7914 188.512C89.418 189.162 88.8954 189.674 88.2234 190.048C87.562 190.421 86.81 190.608 85.9674 190.608ZM85.9674 189.264C86.5114 189.264 86.9967 189.141 87.4234 188.896C87.8607 188.64 88.202 188.288 88.4474 187.84C88.6927 187.381 88.8154 186.858 88.8154 186.272C88.8154 185.685 88.6927 185.168 88.4474 184.72C88.202 184.261 87.8607 183.909 87.4234 183.664C86.9967 183.418 86.5114 183.296 85.9674 183.296C85.4234 183.296 84.9327 183.418 84.4954 183.664C84.0687 183.909 83.7274 184.261 83.4714 184.72C83.226 185.168 83.1034 185.685 83.1034 186.272C83.1034 186.858 83.226 187.381 83.4714 187.84C83.7274 188.288 84.0687 188.64 84.4954 188.896C84.9327 189.141 85.4234 189.264 85.9674 189.264ZM105.093 186.32C105.093 186.437 105.082 186.592 105.061 186.784H98.1805C98.2765 187.53 98.6018 188.133 99.1565 188.592C99.7218 189.04 100.421 189.264 101.253 189.264C102.266 189.264 103.082 188.922 103.701 188.24L104.549 189.232C104.165 189.68 103.685 190.021 103.109 190.256C102.543 190.49 101.909 190.608 101.205 190.608C100.309 190.608 99.5138 190.426 98.8205 190.064C98.1272 189.69 97.5885 189.173 97.2045 188.512C96.8312 187.85 96.6445 187.104 96.6445 186.272C96.6445 185.45 96.8258 184.709 97.1885 184.048C97.5618 183.386 98.0685 182.874 98.7085 182.512C99.3592 182.138 100.09 181.952 100.901 181.952C101.711 181.952 102.431 182.138 103.061 182.512C103.701 182.874 104.197 183.386 104.549 184.048C104.911 184.709 105.093 185.466 105.093 186.32ZM100.901 183.248C100.165 183.248 99.5458 183.472 99.0445 183.92C98.5538 184.368 98.2658 184.954 98.1805 185.68H103.621C103.535 184.965 103.242 184.384 102.741 183.936C102.25 183.477 101.637 183.248 100.901 183.248ZM107.545 182.032H109.081V190.512H107.545V182.032ZM108.313 180.4C108.015 180.4 107.764 180.304 107.561 180.112C107.369 179.92 107.273 179.685 107.273 179.408C107.273 179.13 107.369 178.896 107.561 178.704C107.764 178.501 108.015 178.4 108.313 178.4C108.612 178.4 108.857 178.496 109.049 178.688C109.252 178.869 109.353 179.098 109.353 179.376C109.353 179.664 109.252 179.909 109.049 180.112C108.857 180.304 108.612 180.4 108.313 180.4ZM120.238 182.032V190.512H118.782V189.232C118.473 189.669 118.062 190.01 117.55 190.256C117.049 190.49 116.499 190.608 115.902 190.608C114.771 190.608 113.881 190.298 113.23 189.68C112.579 189.05 112.254 188.128 112.254 186.912V182.032H113.79V186.736C113.79 187.557 113.987 188.181 114.382 188.608C114.777 189.024 115.342 189.232 116.078 189.232C116.889 189.232 117.529 188.986 117.998 188.496C118.467 188.005 118.702 187.312 118.702 186.416V182.032H120.238ZM125.914 190.608C125.221 190.608 124.554 190.517 123.914 190.336C123.274 190.144 122.773 189.904 122.41 189.616L123.05 188.4C123.424 188.666 123.877 188.88 124.41 189.04C124.944 189.2 125.482 189.28 126.026 189.28C127.37 189.28 128.042 188.896 128.042 188.128C128.042 187.872 127.952 187.669 127.77 187.52C127.589 187.37 127.36 187.264 127.082 187.2C126.816 187.125 126.432 187.045 125.93 186.96C125.248 186.853 124.688 186.73 124.25 186.592C123.824 186.453 123.456 186.218 123.146 185.888C122.837 185.557 122.682 185.093 122.682 184.496C122.682 183.728 123.002 183.114 123.642 182.656C124.282 182.186 125.141 181.952 126.218 181.952C126.784 181.952 127.349 182.021 127.914 182.16C128.48 182.298 128.944 182.485 129.306 182.72L128.65 183.936C127.957 183.488 127.141 183.264 126.202 183.264C125.552 183.264 125.056 183.37 124.714 183.584C124.373 183.797 124.202 184.08 124.202 184.432C124.202 184.709 124.298 184.928 124.49 185.088C124.682 185.248 124.917 185.365 125.194 185.44C125.482 185.514 125.882 185.6 126.394 185.696C127.077 185.813 127.626 185.941 128.042 186.08C128.469 186.208 128.832 186.432 129.13 186.752C129.429 187.072 129.578 187.52 129.578 188.096C129.578 188.864 129.248 189.477 128.586 189.936C127.936 190.384 127.045 190.608 125.914 190.608ZM142.426 181.952C143.493 181.952 144.335 182.261 144.954 182.88C145.583 183.498 145.898 184.416 145.898 185.632V190.512H144.362V185.808C144.362 184.986 144.17 184.368 143.786 183.952C143.413 183.536 142.874 183.328 142.17 183.328C141.391 183.328 140.773 183.573 140.314 184.064C139.855 184.544 139.626 185.237 139.626 186.144V190.512H138.09V185.808C138.09 184.986 137.898 184.368 137.514 183.952C137.141 183.536 136.602 183.328 135.898 183.328C135.119 183.328 134.501 183.573 134.042 184.064C133.583 184.544 133.354 185.237 133.354 186.144V190.512H131.818V182.032H133.29V183.296C133.599 182.858 134.005 182.528 134.506 182.304C135.007 182.069 135.578 181.952 136.218 181.952C136.879 181.952 137.466 182.085 137.978 182.352C138.49 182.618 138.885 183.008 139.162 183.52C139.482 183.029 139.925 182.645 140.49 182.368C141.066 182.09 141.711 181.952 142.426 181.952ZM152.723 190.608C151.88 190.608 151.123 190.421 150.451 190.048C149.779 189.674 149.251 189.162 148.867 188.512C148.494 187.85 148.307 187.104 148.307 186.272C148.307 185.44 148.494 184.698 148.867 184.048C149.251 183.386 149.779 182.874 150.451 182.512C151.123 182.138 151.88 181.952 152.723 181.952C153.566 181.952 154.318 182.138 154.979 182.512C155.651 182.874 156.174 183.386 156.547 184.048C156.931 184.698 157.123 185.44 157.123 186.272C157.123 187.104 156.931 187.85 156.547 188.512C156.174 189.162 155.651 189.674 154.979 190.048C154.318 190.421 153.566 190.608 152.723 190.608ZM152.723 189.264C153.267 189.264 153.752 189.141 154.179 188.896C154.616 188.64 154.958 188.288 155.203 187.84C155.448 187.381 155.571 186.858 155.571 186.272C155.571 185.685 155.448 185.168 155.203 184.72C154.958 184.261 154.616 183.909 154.179 183.664C153.752 183.418 153.267 183.296 152.723 183.296C152.179 183.296 151.688 183.418 151.251 183.664C150.824 183.909 150.483 184.261 150.227 184.72C149.982 185.168 149.859 185.685 149.859 186.272C149.859 186.858 149.982 187.381 150.227 187.84C150.483 188.288 150.824 188.64 151.251 188.896C151.688 189.141 152.179 189.264 152.723 189.264ZM167.567 178.64V190.512H166.095V189.168C165.754 189.637 165.322 189.994 164.799 190.24C164.277 190.485 163.701 190.608 163.071 190.608C162.25 190.608 161.514 190.426 160.863 190.064C160.213 189.701 159.701 189.194 159.327 188.544C158.965 187.882 158.783 187.125 158.783 186.272C158.783 185.418 158.965 184.666 159.327 184.016C159.701 183.365 160.213 182.858 160.863 182.496C161.514 182.133 162.25 181.952 163.071 181.952C163.679 181.952 164.239 182.069 164.751 182.304C165.263 182.528 165.69 182.864 166.031 183.312V178.64H167.567ZM163.199 189.264C163.733 189.264 164.218 189.141 164.655 188.896C165.093 188.64 165.434 188.288 165.679 187.84C165.925 187.381 166.047 186.858 166.047 186.272C166.047 185.685 165.925 185.168 165.679 184.72C165.434 184.261 165.093 183.909 164.655 183.664C164.218 183.418 163.733 183.296 163.199 183.296C162.655 183.296 162.165 183.418 161.727 183.664C161.301 183.909 160.959 184.261 160.703 184.72C160.458 185.168 160.335 185.685 160.335 186.272C160.335 186.858 160.458 187.381 160.703 187.84C160.959 188.288 161.301 188.64 161.727 188.896C162.165 189.141 162.655 189.264 163.199 189.264ZM180.178 190.016C179.954 190.208 179.677 190.357 179.346 190.464C179.016 190.56 178.674 190.608 178.322 190.608C177.469 190.608 176.808 190.378 176.338 189.92C175.869 189.461 175.634 188.805 175.634 187.952V183.296H174.194V182.032H175.634V180.176H177.17V182.032H179.602V183.296H177.17V187.888C177.17 188.346 177.282 188.698 177.506 188.944C177.741 189.189 178.072 189.312 178.498 189.312C178.968 189.312 179.368 189.178 179.698 188.912L180.178 190.016ZM189.738 186.32C189.738 186.437 189.727 186.592 189.706 186.784H182.826C182.922 187.53 183.247 188.133 183.802 188.592C184.367 189.04 185.066 189.264 185.898 189.264C186.911 189.264 187.727 188.922 188.346 188.24L189.194 189.232C188.81 189.68 188.33 190.021 187.754 190.256C187.189 190.49 186.554 190.608 185.85 190.608C184.954 190.608 184.159 190.426 183.466 190.064C182.773 189.69 182.234 189.173 181.85 188.512C181.477 187.85 181.29 187.104 181.29 186.272C181.29 185.45 181.471 184.709 181.834 184.048C182.207 183.386 182.714 182.874 183.354 182.512C184.005 182.138 184.735 181.952 185.546 181.952C186.357 181.952 187.077 182.138 187.706 182.512C188.346 182.874 188.842 183.386 189.194 184.048C189.557 184.709 189.738 185.466 189.738 186.32ZM185.546 183.248C184.81 183.248 184.191 183.472 183.69 183.92C183.199 184.368 182.911 184.954 182.826 185.68H188.266C188.181 184.965 187.887 184.384 187.386 183.936C186.895 183.477 186.282 183.248 185.546 183.248ZM202.799 181.952C203.866 181.952 204.708 182.261 205.327 182.88C205.956 183.498 206.271 184.416 206.271 185.632V190.512H204.735V185.808C204.735 184.986 204.543 184.368 204.159 183.952C203.786 183.536 203.247 183.328 202.543 183.328C201.764 183.328 201.146 183.573 200.687 184.064C200.228 184.544 199.999 185.237 199.999 186.144V190.512H198.463V185.808C198.463 184.986 198.271 184.368 197.887 183.952C197.514 183.536 196.975 183.328 196.271 183.328C195.492 183.328 194.874 183.573 194.415 184.064C193.956 184.544 193.727 185.237 193.727 186.144V190.512H192.191V182.032H193.663V183.296C193.972 182.858 194.378 182.528 194.879 182.304C195.38 182.069 195.951 181.952 196.591 181.952C197.252 181.952 197.839 182.085 198.351 182.352C198.863 182.618 199.258 183.008 199.535 183.52C199.855 183.029 200.298 182.645 200.863 182.368C201.439 182.09 202.084 181.952 202.799 181.952ZM213.913 181.952C214.735 181.952 215.471 182.133 216.121 182.496C216.772 182.858 217.279 183.365 217.641 184.016C218.015 184.666 218.201 185.418 218.201 186.272C218.201 187.125 218.015 187.882 217.641 188.544C217.279 189.194 216.772 189.701 216.121 190.064C215.471 190.426 214.735 190.608 213.913 190.608C213.305 190.608 212.745 190.49 212.233 190.256C211.732 190.021 211.305 189.68 210.953 189.232V193.616H209.417V182.032H210.889V183.376C211.231 182.906 211.663 182.554 212.185 182.32C212.708 182.074 213.284 181.952 213.913 181.952ZM213.785 189.264C214.329 189.264 214.815 189.141 215.241 188.896C215.679 188.64 216.02 188.288 216.265 187.84C216.521 187.381 216.649 186.858 216.649 186.272C216.649 185.685 216.521 185.168 216.265 184.72C216.02 184.261 215.679 183.909 215.241 183.664C214.815 183.418 214.329 183.296 213.785 183.296C213.252 183.296 212.767 183.424 212.329 183.68C211.903 183.925 211.561 184.272 211.305 184.72C211.06 185.168 210.937 185.685 210.937 186.272C210.937 186.858 211.06 187.381 211.305 187.84C211.551 188.288 211.892 188.64 212.329 188.896C212.767 189.141 213.252 189.264 213.785 189.264ZM224.276 190.608C223.433 190.608 222.676 190.421 222.004 190.048C221.332 189.674 220.804 189.162 220.42 188.512C220.046 187.85 219.86 187.104 219.86 186.272C219.86 185.44 220.046 184.698 220.42 184.048C220.804 183.386 221.332 182.874 222.004 182.512C222.676 182.138 223.433 181.952 224.276 181.952C225.118 181.952 225.87 182.138 226.532 182.512C227.204 182.874 227.726 183.386 228.1 184.048C228.484 184.698 228.676 185.44 228.676 186.272C228.676 187.104 228.484 187.85 228.1 188.512C227.726 189.162 227.204 189.674 226.532 190.048C225.87 190.421 225.118 190.608 224.276 190.608ZM224.276 189.264C224.82 189.264 225.305 189.141 225.732 188.896C226.169 188.64 226.51 188.288 226.756 187.84C227.001 187.381 227.124 186.858 227.124 186.272C227.124 185.685 227.001 185.168 226.756 184.72C226.51 184.261 226.169 183.909 225.732 183.664C225.305 183.418 224.82 183.296 224.276 183.296C223.732 183.296 223.241 183.418 222.804 183.664C222.377 183.909 222.036 184.261 221.78 184.72C221.534 185.168 221.412 185.685 221.412 186.272C221.412 186.858 221.534 187.381 221.78 187.84C222.036 188.288 222.377 188.64 222.804 188.896C223.241 189.141 223.732 189.264 224.276 189.264ZM232.592 183.456C232.858 182.965 233.253 182.592 233.776 182.336C234.298 182.08 234.933 181.952 235.68 181.952V183.44C235.594 183.429 235.477 183.424 235.328 183.424C234.496 183.424 233.84 183.674 233.36 184.176C232.89 184.666 232.656 185.37 232.656 186.288V190.512H231.12V182.032H232.592V183.456ZM242.619 182.032H244.155V190.512H242.619V182.032ZM243.387 180.4C243.088 180.4 242.838 180.304 242.635 180.112C242.443 179.92 242.347 179.685 242.347 179.408C242.347 179.13 242.443 178.896 242.635 178.704C242.838 178.501 243.088 178.4 243.387 178.4C243.686 178.4 243.931 178.496 244.123 178.688C244.326 178.869 244.427 179.098 244.427 179.376C244.427 179.664 244.326 179.909 244.123 180.112C243.931 180.304 243.686 180.4 243.387 180.4ZM251.936 181.952C253.013 181.952 253.867 182.266 254.496 182.896C255.136 183.514 255.456 184.426 255.456 185.632V190.512H253.92V185.808C253.92 184.986 253.723 184.368 253.328 183.952C252.933 183.536 252.368 183.328 251.632 183.328C250.8 183.328 250.144 183.573 249.664 184.064C249.184 184.544 248.944 185.237 248.944 186.144V190.512H247.408V182.032H248.88V183.312C249.189 182.874 249.605 182.538 250.128 182.304C250.661 182.069 251.264 181.952 251.936 181.952ZM262.361 190.608C261.497 190.608 260.724 190.421 260.041 190.048C259.369 189.674 258.841 189.162 258.457 188.512C258.073 187.85 257.881 187.104 257.881 186.272C257.881 185.44 258.073 184.698 258.457 184.048C258.841 183.386 259.369 182.874 260.041 182.512C260.724 182.138 261.497 181.952 262.361 181.952C263.129 181.952 263.812 182.106 264.409 182.416C265.017 182.725 265.487 183.173 265.817 183.76L264.649 184.512C264.383 184.106 264.052 183.802 263.657 183.6C263.263 183.397 262.825 183.296 262.345 183.296C261.791 183.296 261.289 183.418 260.841 183.664C260.404 183.909 260.057 184.261 259.801 184.72C259.556 185.168 259.433 185.685 259.433 186.272C259.433 186.869 259.556 187.397 259.801 187.856C260.057 188.304 260.404 188.65 260.841 188.896C261.289 189.141 261.791 189.264 262.345 189.264C262.825 189.264 263.263 189.162 263.657 188.96C264.052 188.757 264.383 188.453 264.649 188.048L265.817 188.784C265.487 189.37 265.017 189.824 264.409 190.144C263.812 190.453 263.129 190.608 262.361 190.608ZM268.126 182.032H269.662V190.512H268.126V182.032ZM268.894 180.4C268.595 180.4 268.345 180.304 268.142 180.112C267.95 179.92 267.854 179.685 267.854 179.408C267.854 179.13 267.95 178.896 268.142 178.704C268.345 178.501 268.595 178.4 268.894 178.4C269.193 178.4 269.438 178.496 269.63 178.688C269.833 178.869 269.934 179.098 269.934 179.376C269.934 179.664 269.833 179.909 269.63 180.112C269.438 180.304 269.193 180.4 268.894 180.4ZM280.915 178.64V190.512H279.443V189.168C279.101 189.637 278.669 189.994 278.147 190.24C277.624 190.485 277.048 190.608 276.419 190.608C275.597 190.608 274.861 190.426 274.211 190.064C273.56 189.701 273.048 189.194 272.675 188.544C272.312 187.882 272.131 187.125 272.131 186.272C272.131 185.418 272.312 184.666 272.675 184.016C273.048 183.365 273.56 182.858 274.211 182.496C274.861 182.133 275.597 181.952 276.419 181.952C277.027 181.952 277.587 182.069 278.099 182.304C278.611 182.528 279.037 182.864 279.379 183.312V178.64H280.915ZM276.547 189.264C277.08 189.264 277.565 189.141 278.003 188.896C278.44 188.64 278.781 188.288 279.027 187.84C279.272 187.381 279.395 186.858 279.395 186.272C279.395 185.685 279.272 185.168 279.027 184.72C278.781 184.261 278.44 183.909 278.003 183.664C277.565 183.418 277.08 183.296 276.547 183.296C276.003 183.296 275.512 183.418 275.075 183.664C274.648 183.909 274.307 184.261 274.051 184.72C273.805 185.168 273.683 185.685 273.683 186.272C273.683 186.858 273.805 187.381 274.051 187.84C274.307 188.288 274.648 188.64 275.075 188.896C275.512 189.141 276.003 189.264 276.547 189.264ZM284.141 182.032H285.677V190.512H284.141V182.032ZM284.909 180.4C284.61 180.4 284.36 180.304 284.157 180.112C283.965 179.92 283.869 179.685 283.869 179.408C283.869 179.13 283.965 178.896 284.157 178.704C284.36 178.501 284.61 178.4 284.909 178.4C285.208 178.4 285.453 178.496 285.645 178.688C285.848 178.869 285.949 179.098 285.949 179.376C285.949 179.664 285.848 179.909 285.645 180.112C285.453 180.304 285.208 180.4 284.909 180.4ZM296.93 178.64V190.512H295.458V189.168C295.116 189.637 294.684 189.994 294.162 190.24C293.639 190.485 293.063 190.608 292.434 190.608C291.612 190.608 290.876 190.426 290.226 190.064C289.575 189.701 289.063 189.194 288.69 188.544C288.327 187.882 288.146 187.125 288.146 186.272C288.146 185.418 288.327 184.666 288.69 184.016C289.063 183.365 289.575 182.858 290.226 182.496C290.876 182.133 291.612 181.952 292.434 181.952C293.042 181.952 293.602 182.069 294.114 182.304C294.626 182.528 295.052 182.864 295.394 183.312V178.64H296.93ZM292.562 189.264C293.095 189.264 293.58 189.141 294.018 188.896C294.455 188.64 294.796 188.288 295.042 187.84C295.287 187.381 295.41 186.858 295.41 186.272C295.41 185.685 295.287 185.168 295.042 184.72C294.796 184.261 294.455 183.909 294.018 183.664C293.58 183.418 293.095 183.296 292.562 183.296C292.018 183.296 291.527 183.418 291.09 183.664C290.663 183.909 290.322 184.261 290.066 184.72C289.82 185.168 289.698 185.685 289.698 186.272C289.698 186.858 289.82 187.381 290.066 187.84C290.322 188.288 290.663 188.64 291.09 188.896C291.527 189.141 292.018 189.264 292.562 189.264ZM308.06 182.032V190.512H306.604V189.232C306.295 189.669 305.884 190.01 305.372 190.256C304.871 190.49 304.321 190.608 303.724 190.608C302.593 190.608 301.703 190.298 301.052 189.68C300.401 189.05 300.076 188.128 300.076 186.912V182.032H301.612V186.736C301.612 187.557 301.809 188.181 302.204 188.608C302.599 189.024 303.164 189.232 303.9 189.232C304.711 189.232 305.351 188.986 305.82 188.496C306.289 188.005 306.524 187.312 306.524 186.416V182.032H308.06ZM315.832 181.952C316.909 181.952 317.763 182.266 318.392 182.896C319.032 183.514 319.352 184.426 319.352 185.632V190.512H317.816V185.808C317.816 184.986 317.619 184.368 317.224 183.952C316.829 183.536 316.264 183.328 315.528 183.328C314.696 183.328 314.04 183.573 313.56 184.064C313.08 184.544 312.84 185.237 312.84 186.144V190.512H311.304V182.032H312.776V183.312C313.085 182.874 313.501 182.538 314.024 182.304C314.557 182.069 315.16 181.952 315.832 181.952ZM327.283 190.016C327.059 190.208 326.781 190.357 326.451 190.464C326.12 190.56 325.779 190.608 325.427 190.608C324.573 190.608 323.912 190.378 323.443 189.92C322.973 189.461 322.739 188.805 322.739 187.952V183.296H321.299V182.032H322.739V180.176H324.275V182.032H326.707V183.296H324.275V187.888C324.275 188.346 324.387 188.698 324.611 188.944C324.845 189.189 325.176 189.312 325.603 189.312C326.072 189.312 326.472 189.178 326.803 188.912L327.283 190.016ZM9.36 204.032V212.512H7.904V211.232C7.59467 211.669 7.184 212.01 6.672 212.256C6.17067 212.49 5.62133 212.608 5.024 212.608C3.89333 212.608 3.00267 212.298 2.352 211.68C1.70133 211.05 1.376 210.128 1.376 208.912V204.032H2.912V208.736C2.912 209.557 3.10933 210.181 3.504 210.608C3.89867 211.024 4.464 211.232 5.2 211.232C6.01067 211.232 6.65067 210.986 7.12 210.496C7.58933 210.005 7.824 209.312 7.824 208.416V204.032H9.36ZM17.3721 212.016C17.1481 212.208 16.8708 212.357 16.5401 212.464C16.2095 212.56 15.8681 212.608 15.5161 212.608C14.6628 212.608 14.0015 212.378 13.5321 211.92C13.0628 211.461 12.8281 210.805 12.8281 209.952V205.296H11.3881V204.032H12.8281V202.176H14.3641V204.032H16.7961V205.296H14.3641V209.888C14.3641 210.346 14.4761 210.698 14.7001 210.944C14.9348 211.189 15.2655 211.312 15.6921 211.312C16.1615 211.312 16.5615 211.178 16.8921 210.912L17.3721 212.016ZM24.166 200.64H25.702V212.512H24.166V200.64ZM32.0428 203.952C33.2161 203.952 34.1121 204.24 34.7308 204.816C35.3601 205.392 35.6748 206.25 35.6748 207.392V212.512H34.2188V211.392C33.9628 211.786 33.5948 212.09 33.1148 212.304C32.6454 212.506 32.0854 212.608 31.4348 212.608C30.4854 212.608 29.7228 212.378 29.1468 211.92C28.5814 211.461 28.2988 210.858 28.2988 210.112C28.2988 209.365 28.5708 208.768 29.1148 208.32C29.6588 207.861 30.5228 207.632 31.7068 207.632H34.1388V207.328C34.1388 206.666 33.9468 206.16 33.5628 205.808C33.1788 205.456 32.6134 205.28 31.8668 205.28C31.3654 205.28 30.8748 205.365 30.3948 205.536C29.9148 205.696 29.5094 205.914 29.1788 206.192L28.5388 205.04C28.9761 204.688 29.4988 204.421 30.1068 204.24C30.7148 204.048 31.3601 203.952 32.0428 203.952ZM31.6908 211.424C32.2774 211.424 32.7841 211.296 33.2108 211.04C33.6374 210.773 33.9468 210.4 34.1388 209.92V208.736H31.7708C30.4694 208.736 29.8188 209.173 29.8188 210.048C29.8188 210.474 29.9841 210.81 30.3148 211.056C30.6454 211.301 31.1041 211.424 31.6908 211.424ZM43.3332 203.952C44.1546 203.952 44.8906 204.133 45.5412 204.496C46.1919 204.858 46.6986 205.365 47.0612 206.016C47.4346 206.666 47.6212 207.418 47.6212 208.272C47.6212 209.125 47.4346 209.882 47.0612 210.544C46.6986 211.194 46.1919 211.701 45.5412 212.064C44.8906 212.426 44.1546 212.608 43.3332 212.608C42.7039 212.608 42.1279 212.485 41.6052 212.24C41.0826 211.994 40.6506 211.637 40.3092 211.168V212.512H38.8372V200.64H40.3732V205.312C40.7146 204.864 41.1412 204.528 41.6532 204.304C42.1652 204.069 42.7252 203.952 43.3332 203.952ZM43.2052 211.264C43.7492 211.264 44.2346 211.141 44.6612 210.896C45.0986 210.64 45.4399 210.288 45.6852 209.84C45.9412 209.381 46.0692 208.858 46.0692 208.272C46.0692 207.685 45.9412 207.168 45.6852 206.72C45.4399 206.261 45.0986 205.909 44.6612 205.664C44.2346 205.418 43.7492 205.296 43.2052 205.296C42.6719 205.296 42.1866 205.418 41.7492 205.664C41.3119 205.909 40.9706 206.261 40.7252 206.72C40.4799 207.168 40.3572 207.685 40.3572 208.272C40.3572 208.858 40.4799 209.381 40.7252 209.84C40.9706 210.288 41.3119 210.64 41.7492 210.896C42.1866 211.141 42.6719 211.264 43.2052 211.264ZM53.6955 212.608C52.8528 212.608 52.0955 212.421 51.4235 212.048C50.7515 211.674 50.2235 211.162 49.8395 210.512C49.4662 209.85 49.2795 209.104 49.2795 208.272C49.2795 207.44 49.4662 206.698 49.8395 206.048C50.2235 205.386 50.7515 204.874 51.4235 204.512C52.0955 204.138 52.8528 203.952 53.6955 203.952C54.5382 203.952 55.2902 204.138 55.9515 204.512C56.6235 204.874 57.1462 205.386 57.5195 206.048C57.9035 206.698 58.0955 207.44 58.0955 208.272C58.0955 209.104 57.9035 209.85 57.5195 210.512C57.1462 211.162 56.6235 211.674 55.9515 212.048C55.2902 212.421 54.5382 212.608 53.6955 212.608ZM53.6955 211.264C54.2395 211.264 54.7248 211.141 55.1515 210.896C55.5888 210.64 55.9302 210.288 56.1755 209.84C56.4208 209.381 56.5435 208.858 56.5435 208.272C56.5435 207.685 56.4208 207.168 56.1755 206.72C55.9302 206.261 55.5888 205.909 55.1515 205.664C54.7248 205.418 54.2395 205.296 53.6955 205.296C53.1515 205.296 52.6608 205.418 52.2235 205.664C51.7968 205.909 51.4555 206.261 51.1995 206.72C50.9542 207.168 50.8315 207.685 50.8315 208.272C50.8315 208.858 50.9542 209.381 51.1995 209.84C51.4555 210.288 51.7968 210.64 52.2235 210.896C52.6608 211.141 53.1515 211.264 53.6955 211.264ZM62.0118 205.456C62.2784 204.965 62.6731 204.592 63.1958 204.336C63.7184 204.08 64.3531 203.952 65.0998 203.952V205.44C65.0144 205.429 64.8971 205.424 64.7478 205.424C63.9158 205.424 63.2598 205.674 62.7798 206.176C62.3104 206.666 62.0758 207.37 62.0758 208.288V212.512H60.5398V204.032H62.0118V205.456ZM74.8987 208.32C74.8987 208.437 74.8881 208.592 74.8667 208.784H67.9867C68.0827 209.53 68.4081 210.133 68.9627 210.592C69.5281 211.04 70.2267 211.264 71.0587 211.264C72.0721 211.264 72.8881 210.922 73.5067 210.24L74.3547 211.232C73.9707 211.68 73.4907 212.021 72.9147 212.256C72.3494 212.49 71.7147 212.608 71.0107 212.608C70.1147 212.608 69.3201 212.426 68.6267 212.064C67.9334 211.69 67.3947 211.173 67.0107 210.512C66.6374 209.85 66.4507 209.104 66.4507 208.272C66.4507 207.45 66.6321 206.709 66.9947 206.048C67.3681 205.386 67.8747 204.874 68.5147 204.512C69.1654 204.138 69.8961 203.952 70.7067 203.952C71.5174 203.952 72.2374 204.138 72.8667 204.512C73.5067 204.874 74.0027 205.386 74.3547 206.048C74.7174 206.709 74.8987 207.466 74.8987 208.32ZM70.7067 205.248C69.9707 205.248 69.3521 205.472 68.8507 205.92C68.3601 206.368 68.0721 206.954 67.9867 207.68H73.4267C73.3414 206.965 73.0481 206.384 72.5467 205.936C72.0561 205.477 71.4427 205.248 70.7067 205.248ZM89.6325 208.32C89.6325 208.437 89.6218 208.592 89.6005 208.784H82.7205C82.8165 209.53 83.1418 210.133 83.6965 210.592C84.2618 211.04 84.9605 211.264 85.7925 211.264C86.8058 211.264 87.6218 210.922 88.2405 210.24L89.0885 211.232C88.7045 211.68 88.2245 212.021 87.6485 212.256C87.0832 212.49 86.4485 212.608 85.7445 212.608C84.8485 212.608 84.0538 212.426 83.3605 212.064C82.6672 211.69 82.1285 211.173 81.7445 210.512C81.3712 209.85 81.1845 209.104 81.1845 208.272C81.1845 207.45 81.3658 206.709 81.7285 206.048C82.1018 205.386 82.6085 204.874 83.2485 204.512C83.8992 204.138 84.6298 203.952 85.4405 203.952C86.2512 203.952 86.9712 204.138 87.6005 204.512C88.2405 204.874 88.7365 205.386 89.0885 206.048C89.4512 206.709 89.6325 207.466 89.6325 208.32ZM85.4405 205.248C84.7045 205.248 84.0858 205.472 83.5845 205.92C83.0938 206.368 82.8058 206.954 82.7205 207.68H88.1605C88.0752 206.965 87.7818 206.384 87.2805 205.936C86.7898 205.477 86.1765 205.248 85.4405 205.248ZM96.8534 212.016C96.6294 212.208 96.352 212.357 96.0214 212.464C95.6907 212.56 95.3494 212.608 94.9974 212.608C94.144 212.608 93.4827 212.378 93.0134 211.92C92.544 211.461 92.3094 210.805 92.3094 209.952V205.296H90.8694V204.032H92.3094V202.176H93.8454V204.032H96.2774V205.296H93.8454V209.888C93.8454 210.346 93.9574 210.698 94.1814 210.944C94.416 211.189 94.7467 211.312 95.1734 211.312C95.6427 211.312 96.0427 211.178 96.3734 210.912L96.8534 212.016ZM111.647 200.64V212.512H110.175V211.168C109.834 211.637 109.402 211.994 108.879 212.24C108.357 212.485 107.781 212.608 107.151 212.608C106.33 212.608 105.594 212.426 104.943 212.064C104.293 211.701 103.781 211.194 103.407 210.544C103.045 209.882 102.863 209.125 102.863 208.272C102.863 207.418 103.045 206.666 103.407 206.016C103.781 205.365 104.293 204.858 104.943 204.496C105.594 204.133 106.33 203.952 107.151 203.952C107.759 203.952 108.319 204.069 108.831 204.304C109.343 204.528 109.77 204.864 110.111 205.312V200.64H111.647ZM107.279 211.264C107.813 211.264 108.298 211.141 108.735 210.896C109.173 210.64 109.514 210.288 109.759 209.84C110.005 209.381 110.127 208.858 110.127 208.272C110.127 207.685 110.005 207.168 109.759 206.72C109.514 206.261 109.173 205.909 108.735 205.664C108.298 205.418 107.813 205.296 107.279 205.296C106.735 205.296 106.245 205.418 105.807 205.664C105.381 205.909 105.039 206.261 104.783 206.72C104.538 207.168 104.415 207.685 104.415 208.272C104.415 208.858 104.538 209.381 104.783 209.84C105.039 210.288 105.381 210.64 105.807 210.896C106.245 211.141 106.735 211.264 107.279 211.264ZM118.506 212.608C117.663 212.608 116.906 212.421 116.234 212.048C115.562 211.674 115.034 211.162 114.65 210.512C114.276 209.85 114.09 209.104 114.09 208.272C114.09 207.44 114.276 206.698 114.65 206.048C115.034 205.386 115.562 204.874 116.234 204.512C116.906 204.138 117.663 203.952 118.506 203.952C119.348 203.952 120.1 204.138 120.762 204.512C121.434 204.874 121.956 205.386 122.33 206.048C122.714 206.698 122.906 207.44 122.906 208.272C122.906 209.104 122.714 209.85 122.33 210.512C121.956 211.162 121.434 211.674 120.762 212.048C120.1 212.421 119.348 212.608 118.506 212.608ZM118.506 211.264C119.05 211.264 119.535 211.141 119.962 210.896C120.399 210.64 120.74 210.288 120.986 209.84C121.231 209.381 121.354 208.858 121.354 208.272C121.354 207.685 121.231 207.168 120.986 206.72C120.74 206.261 120.399 205.909 119.962 205.664C119.535 205.418 119.05 205.296 118.506 205.296C117.962 205.296 117.471 205.418 117.034 205.664C116.607 205.909 116.266 206.261 116.01 206.72C115.764 207.168 115.642 207.685 115.642 208.272C115.642 208.858 115.764 209.381 116.01 209.84C116.266 210.288 116.607 210.64 117.034 210.896C117.471 211.141 117.962 211.264 118.506 211.264ZM125.35 200.64H126.886V212.512H125.35V200.64ZM133.77 212.608C132.928 212.608 132.17 212.421 131.498 212.048C130.826 211.674 130.298 211.162 129.914 210.512C129.541 209.85 129.354 209.104 129.354 208.272C129.354 207.44 129.541 206.698 129.914 206.048C130.298 205.386 130.826 204.874 131.498 204.512C132.17 204.138 132.928 203.952 133.77 203.952C134.613 203.952 135.365 204.138 136.026 204.512C136.698 204.874 137.221 205.386 137.594 206.048C137.978 206.698 138.17 207.44 138.17 208.272C138.17 209.104 137.978 209.85 137.594 210.512C137.221 211.162 136.698 211.674 136.026 212.048C135.365 212.421 134.613 212.608 133.77 212.608ZM133.77 211.264C134.314 211.264 134.8 211.141 135.226 210.896C135.664 210.64 136.005 210.288 136.25 209.84C136.496 209.381 136.618 208.858 136.618 208.272C136.618 207.685 136.496 207.168 136.25 206.72C136.005 206.261 135.664 205.909 135.226 205.664C134.8 205.418 134.314 205.296 133.77 205.296C133.226 205.296 132.736 205.418 132.298 205.664C131.872 205.909 131.53 206.261 131.274 206.72C131.029 207.168 130.906 207.685 130.906 208.272C130.906 208.858 131.029 209.381 131.274 209.84C131.53 210.288 131.872 210.64 132.298 210.896C132.736 211.141 133.226 211.264 133.77 211.264ZM142.087 205.456C142.353 204.965 142.748 204.592 143.271 204.336C143.793 204.08 144.428 203.952 145.175 203.952V205.44C145.089 205.429 144.972 205.424 144.823 205.424C143.991 205.424 143.335 205.674 142.855 206.176C142.385 206.666 142.151 207.37 142.151 208.288V212.512H140.615V204.032H142.087V205.456ZM154.974 208.32C154.974 208.437 154.963 208.592 154.942 208.784H148.062C148.158 209.53 148.483 210.133 149.038 210.592C149.603 211.04 150.302 211.264 151.134 211.264C152.147 211.264 152.963 210.922 153.582 210.24L154.43 211.232C154.046 211.68 153.566 212.021 152.99 212.256C152.424 212.49 151.79 212.608 151.086 212.608C150.19 212.608 149.395 212.426 148.702 212.064C148.008 211.69 147.47 211.173 147.086 210.512C146.712 209.85 146.526 209.104 146.526 208.272C146.526 207.45 146.707 206.709 147.07 206.048C147.443 205.386 147.95 204.874 148.59 204.512C149.24 204.138 149.971 203.952 150.782 203.952C151.592 203.952 152.312 204.138 152.942 204.512C153.582 204.874 154.078 205.386 154.43 206.048C154.792 206.709 154.974 207.466 154.974 208.32ZM150.782 205.248C150.046 205.248 149.427 205.472 148.926 205.92C148.435 206.368 148.147 206.954 148.062 207.68H153.502C153.416 206.965 153.123 206.384 152.622 205.936C152.131 205.477 151.518 205.248 150.782 205.248ZM172.651 203.952C173.718 203.952 174.561 204.261 175.179 204.88C175.809 205.498 176.123 206.416 176.123 207.632V212.512H174.587V207.808C174.587 206.986 174.395 206.368 174.011 205.952C173.638 205.536 173.099 205.328 172.395 205.328C171.617 205.328 170.998 205.573 170.539 206.064C170.081 206.544 169.851 207.237 169.851 208.144V212.512H168.315V207.808C168.315 206.986 168.123 206.368 167.739 205.952C167.366 205.536 166.827 205.328 166.123 205.328C165.345 205.328 164.726 205.573 164.267 206.064C163.809 206.544 163.579 207.237 163.579 208.144V212.512H162.043V204.032H163.515V205.296C163.825 204.858 164.23 204.528 164.731 204.304C165.233 204.069 165.803 203.952 166.443 203.952C167.105 203.952 167.691 204.085 168.203 204.352C168.715 204.618 169.11 205.008 169.387 205.52C169.707 205.029 170.15 204.645 170.715 204.368C171.291 204.09 171.937 203.952 172.651 203.952ZM182.358 203.952C183.531 203.952 184.427 204.24 185.046 204.816C185.675 205.392 185.99 206.25 185.99 207.392V212.512H184.534V211.392C184.278 211.786 183.91 212.09 183.43 212.304C182.96 212.506 182.4 212.608 181.75 212.608C180.8 212.608 180.038 212.378 179.462 211.92C178.896 211.461 178.614 210.858 178.614 210.112C178.614 209.365 178.886 208.768 179.43 208.32C179.974 207.861 180.838 207.632 182.022 207.632H184.454V207.328C184.454 206.666 184.262 206.16 183.878 205.808C183.494 205.456 182.928 205.28 182.182 205.28C181.68 205.28 181.19 205.365 180.71 205.536C180.23 205.696 179.824 205.914 179.494 206.192L178.854 205.04C179.291 204.688 179.814 204.421 180.422 204.24C181.03 204.048 181.675 203.952 182.358 203.952ZM182.006 211.424C182.592 211.424 183.099 211.296 183.526 211.04C183.952 210.773 184.262 210.4 184.454 209.92V208.736H182.086C180.784 208.736 180.134 209.173 180.134 210.048C180.134 210.474 180.299 210.81 180.63 211.056C180.96 211.301 181.419 211.424 182.006 211.424ZM197.311 204.032V211.36C197.311 212.842 196.943 213.936 196.207 214.64C195.471 215.354 194.372 215.712 192.911 215.712C192.111 215.712 191.348 215.6 190.623 215.376C189.898 215.162 189.311 214.853 188.863 214.448L189.599 213.264C189.994 213.605 190.479 213.872 191.055 214.064C191.642 214.266 192.244 214.368 192.863 214.368C193.855 214.368 194.586 214.133 195.055 213.664C195.535 213.194 195.775 212.48 195.775 211.52V210.848C195.412 211.285 194.964 211.616 194.431 211.84C193.908 212.053 193.338 212.16 192.719 212.16C191.908 212.16 191.172 211.989 190.511 211.648C189.86 211.296 189.348 210.81 188.975 210.192C188.602 209.562 188.415 208.848 188.415 208.048C188.415 207.248 188.602 206.538 188.975 205.92C189.348 205.29 189.86 204.805 190.511 204.464C191.172 204.122 191.908 203.952 192.719 203.952C193.359 203.952 193.951 204.069 194.495 204.304C195.05 204.538 195.503 204.885 195.855 205.344V204.032H197.311ZM192.895 210.816C193.45 210.816 193.946 210.698 194.383 210.464C194.831 210.229 195.178 209.904 195.423 209.488C195.679 209.061 195.807 208.581 195.807 208.048C195.807 207.226 195.535 206.565 194.991 206.064C194.447 205.552 193.748 205.296 192.895 205.296C192.031 205.296 191.327 205.552 190.783 206.064C190.239 206.565 189.967 207.226 189.967 208.048C189.967 208.581 190.09 209.061 190.335 209.488C190.591 209.904 190.938 210.229 191.375 210.464C191.823 210.698 192.33 210.816 192.895 210.816ZM205.094 203.952C206.171 203.952 207.025 204.266 207.654 204.896C208.294 205.514 208.614 206.426 208.614 207.632V212.512H207.078V207.808C207.078 206.986 206.881 206.368 206.486 205.952C206.091 205.536 205.526 205.328 204.79 205.328C203.958 205.328 203.302 205.573 202.822 206.064C202.342 206.544 202.102 207.237 202.102 208.144V212.512H200.566V204.032H202.038V205.312C202.347 204.874 202.763 204.538 203.286 204.304C203.819 204.069 204.422 203.952 205.094 203.952ZM214.865 203.952C216.038 203.952 216.934 204.24 217.553 204.816C218.182 205.392 218.497 206.25 218.497 207.392V212.512H217.041V211.392C216.785 211.786 216.417 212.09 215.937 212.304C215.467 212.506 214.907 212.608 214.257 212.608C213.307 212.608 212.545 212.378 211.969 211.92C211.403 211.461 211.121 210.858 211.121 210.112C211.121 209.365 211.393 208.768 211.937 208.32C212.481 207.861 213.345 207.632 214.529 207.632H216.961V207.328C216.961 206.666 216.769 206.16 216.385 205.808C216.001 205.456 215.435 205.28 214.689 205.28C214.187 205.28 213.697 205.365 213.217 205.536C212.737 205.696 212.331 205.914 212.001 206.192L211.361 205.04C211.798 204.688 212.321 204.421 212.929 204.24C213.537 204.048 214.182 203.952 214.865 203.952ZM214.513 211.424C215.099 211.424 215.606 211.296 216.033 211.04C216.459 210.773 216.769 210.4 216.961 209.92V208.736H214.593C213.291 208.736 212.641 209.173 212.641 210.048C212.641 210.474 212.806 210.81 213.137 211.056C213.467 211.301 213.926 211.424 214.513 211.424ZM229.364 203.952C230.537 203.952 231.433 204.24 232.052 204.816C232.681 205.392 232.996 206.25 232.996 207.392V212.512H231.54V211.392C231.284 211.786 230.916 212.09 230.436 212.304C229.967 212.506 229.407 212.608 228.756 212.608C227.807 212.608 227.044 212.378 226.468 211.92C225.903 211.461 225.62 210.858 225.62 210.112C225.62 209.365 225.892 208.768 226.436 208.32C226.98 207.861 227.844 207.632 229.028 207.632H231.46V207.328C231.46 206.666 231.268 206.16 230.884 205.808C230.5 205.456 229.935 205.28 229.188 205.28C228.687 205.28 228.196 205.365 227.716 205.536C227.236 205.696 226.831 205.914 226.5 206.192L225.86 205.04C226.297 204.688 226.82 204.421 227.428 204.24C228.036 204.048 228.681 203.952 229.364 203.952ZM229.012 211.424C229.599 211.424 230.105 211.296 230.532 211.04C230.959 210.773 231.268 210.4 231.46 209.92V208.736H229.092C227.791 208.736 227.14 209.173 227.14 210.048C227.14 210.474 227.305 210.81 227.636 211.056C227.967 211.301 228.425 211.424 229.012 211.424ZM236.158 200.64H237.694V212.512H236.158V200.64ZM240.947 204.032H242.483V212.512H240.947V204.032ZM241.715 202.4C241.417 202.4 241.166 202.304 240.963 202.112C240.771 201.92 240.675 201.685 240.675 201.408C240.675 201.13 240.771 200.896 240.963 200.704C241.166 200.501 241.417 200.4 241.715 200.4C242.014 200.4 242.259 200.496 242.451 200.688C242.654 200.869 242.755 201.098 242.755 201.376C242.755 201.664 242.654 201.909 242.451 202.112C242.259 202.304 242.014 202.4 241.715 202.4ZM253.736 204.032V215.616H252.2V211.232C251.848 211.68 251.416 212.021 250.904 212.256C250.403 212.49 249.848 212.608 249.24 212.608C248.419 212.608 247.683 212.426 247.032 212.064C246.381 211.701 245.869 211.194 245.496 210.544C245.133 209.882 244.952 209.125 244.952 208.272C244.952 207.418 245.133 206.666 245.496 206.016C245.869 205.365 246.381 204.858 247.032 204.496C247.683 204.133 248.419 203.952 249.24 203.952C249.869 203.952 250.445 204.074 250.968 204.32C251.491 204.554 251.923 204.906 252.264 205.376V204.032H253.736ZM249.368 211.264C249.901 211.264 250.387 211.141 250.824 210.896C251.261 210.64 251.603 210.288 251.848 209.84C252.093 209.381 252.216 208.858 252.216 208.272C252.216 207.685 252.088 207.168 251.832 206.72C251.587 206.272 251.245 205.925 250.808 205.68C250.381 205.424 249.901 205.296 249.368 205.296C248.824 205.296 248.333 205.418 247.896 205.664C247.469 205.909 247.128 206.261 246.872 206.72C246.627 207.168 246.504 207.685 246.504 208.272C246.504 208.858 246.627 209.381 246.872 209.84C247.128 210.288 247.469 210.64 247.896 210.896C248.333 211.141 248.824 211.264 249.368 211.264ZM264.866 204.032V212.512H263.41V211.232C263.101 211.669 262.69 212.01 262.178 212.256C261.677 212.49 261.128 212.608 260.53 212.608C259.4 212.608 258.509 212.298 257.858 211.68C257.208 211.05 256.882 210.128 256.882 208.912V204.032H258.418V208.736C258.418 209.557 258.616 210.181 259.01 210.608C259.405 211.024 259.97 211.232 260.706 211.232C261.517 211.232 262.157 210.986 262.626 210.496C263.096 210.005 263.33 209.312 263.33 208.416V204.032H264.866ZM271.198 203.952C272.372 203.952 273.268 204.24 273.886 204.816C274.516 205.392 274.83 206.25 274.83 207.392V212.512H273.374V211.392C273.118 211.786 272.75 212.09 272.27 212.304C271.801 212.506 271.241 212.608 270.59 212.608C269.641 212.608 268.878 212.378 268.302 211.92C267.737 211.461 267.454 210.858 267.454 210.112C267.454 209.365 267.726 208.768 268.27 208.32C268.814 207.861 269.678 207.632 270.862 207.632H273.294V207.328C273.294 206.666 273.102 206.16 272.718 205.808C272.334 205.456 271.769 205.28 271.022 205.28C270.521 205.28 270.03 205.365 269.55 205.536C269.07 205.696 268.665 205.914 268.334 206.192L267.694 205.04C268.132 204.688 268.654 204.421 269.262 204.24C269.87 204.048 270.516 203.952 271.198 203.952ZM270.846 211.424C271.433 211.424 271.94 211.296 272.366 211.04C272.793 210.773 273.102 210.4 273.294 209.92V208.736H270.926C269.625 208.736 268.974 209.173 268.974 210.048C268.974 210.474 269.14 210.81 269.47 211.056C269.801 211.301 270.26 211.424 270.846 211.424ZM278.361 212.608C278.062 212.608 277.806 212.506 277.593 212.304C277.38 212.09 277.273 211.824 277.273 211.504C277.273 211.194 277.38 210.938 277.593 210.736C277.806 210.522 278.062 210.416 278.361 210.416C278.66 210.416 278.91 210.517 279.113 210.72C279.316 210.922 279.417 211.184 279.417 211.504C279.417 211.824 279.31 212.09 279.097 212.304C278.894 212.506 278.649 212.608 278.361 212.608Z" fill="#2E384D"/>
<g clip-path="url(#clip0)">
<path d="M53.4858 62.302V51.5663L67.1868 44.0334L62.9108 41.7432L47.9805 49.956V60.6916C47.9805 69.2086 53.0048 76.9204 60.7906 80.3379L62.8574 81.2504L63.9976 80.7494C57.4767 76.9025 53.4858 69.8885 53.4858 62.302Z" fill="#F1E8F0"/>
<path d="M22.0042 22.473C22.0042 13.0256 29.6297 5.34959 39.0547 5.34959C39.607 5.34959 40.1415 5.38538 40.676 5.42116C34.9569 0.912176 27.0285 0.554321 20.9352 4.49074C14.8241 8.44504 11.8843 15.8348 13.5947 22.9203C15.3051 30.0059 21.3093 35.2306 28.5429 35.9284C24.4094 32.7077 22.0042 27.7335 22.0042 22.473Z" fill="#F1E8F0"/>
<path d="M39.0359 47.4332C41.0492 47.4332 43.0446 47.6479 45.0223 48.0595C40.5503 45.2861 35.3835 43.8368 30.1276 43.8547C14.449 43.8904 1.74569 56.4691 1.78132 73.5746L10.8678 73.5567C12.4891 58.312 24.4619 47.469 39.0359 47.4332Z" fill="#F1E8F0"/>
<path d="M30.1464 37.8075C40.5335 37.8075 48.9786 29.3442 48.9786 18.8948C48.9786 8.46329 40.5513 0 30.1464 0C19.7415 0 11.332 8.46329 11.332 18.9127C11.332 29.3442 19.7593 37.8075 30.1464 37.8075ZM30.1464 3.57856C38.5737 3.57856 45.4152 10.4494 45.4152 18.9127C45.4152 27.376 38.5737 34.2468 30.1464 34.2468C21.7191 34.2468 14.8954 27.376 14.8954 18.9127C14.8954 10.4494 21.7191 3.57856 30.1464 3.57856Z" fill="#721B65"/>
<path d="M3.61685 71.7681C3.991 64.7362 6.71695 58.3127 11.3493 53.5353C16.2845 48.4359 22.9657 45.6267 30.1458 45.6267H30.1993C36.15 45.5909 41.9226 47.5949 46.5906 51.2987C46.8578 51.5135 47.1251 51.7461 47.3923 51.9608L49.7085 49.259C49.4056 48.9906 49.1027 48.7401 48.7998 48.4896C43.4905 44.249 37.0408 42.0303 30.1458 42.0303C21.9858 42.0482 14.4137 45.2331 8.81931 51.0304C3.10017 56.9171 -0.0177407 64.8973 7.59354e-05 73.5753C7.59354e-05 74.5594 0.801824 75.3646 1.78174 75.3646L51.8287 75.2751V71.6965L3.61685 71.7681Z" fill="#721B65"/>
<path d="M68.9866 56.3798L60.9334 62.9644L58.0293 59.5469C57.3879 58.7954 56.2655 58.7059 55.5172 59.35C54.7689 59.9942 54.6798 61.1214 55.3212 61.8729L59.3656 66.6145C59.7041 67.0082 60.2029 67.2408 60.7196 67.2408C61.1294 67.2408 61.5214 67.0976 61.8421 66.8471L71.2493 59.1711C72.0154 58.5449 72.1223 57.4176 71.4987 56.6482C70.8929 55.8609 69.7527 55.7536 68.9866 56.3798Z" fill="#721B65"/>
<path d="M79.0694 48.3823L63.7115 40.1696C63.177 39.8833 62.5356 39.8833 62.0189 40.1875L47.0886 48.4002C46.5184 48.7223 46.1621 49.3128 46.1621 49.9748V60.7105C46.1799 69.9432 51.614 78.2812 60.0413 81.985L62.108 82.8975C62.3396 83.0049 62.5712 83.0407 62.8207 83.0407C63.0701 83.0407 63.3017 82.987 63.5333 82.8975L65.8673 81.8777C74.4371 78.2633 80.0137 69.8358 80.0137 60.5137V49.9927C80.0137 49.3128 79.6574 48.6865 79.0694 48.3823ZM76.4504 60.4958C76.4504 68.4044 71.729 75.5257 64.4598 78.5854H64.442L62.8207 79.2832L61.4666 78.6927C54.3399 75.5615 49.7433 68.5117 49.7254 60.6926V51.0126L62.8919 43.766L76.4504 51.0305V60.4958Z" fill="#721B65"/>
</g>
<defs>
<clipPath id="clip0">
<rect width="80.0145" height="83.0226" fill="white"/>
</clipPath>
</defs>
</svg>

