<svg width="15" height="10" viewBox="0 0 15 10" fill="none" xmlns="http://www.w3.org/2000/svg">
<path d="M14.2573 4.84545C13.6973 3.46257 12.7249 2.26664 11.4605 1.40549C10.1961 0.544343 8.69504 0.055715 7.14286 0C5.59068 0.055715 4.08962 0.544343 2.82521 1.40549C1.5608 2.26664 0.588462 3.46257 0.0283696 4.84545C-0.00945655 4.94532 -0.00945655 5.05468 0.0283696 5.15455C0.588462 6.53743 1.5608 7.73336 2.82521 8.59451C4.08962 9.45566 5.59068 9.94429 7.14286 10C8.69504 9.94429 10.1961 9.45566 11.4605 8.59451C12.7249 7.73336 13.6973 6.53743 14.2573 5.15455C14.2952 5.05468 14.2952 4.94532 14.2573 4.84545ZM7.14286 9.09091C4.61898 9.09091 1.95223 7.30455 0.98554 5C1.95223 2.69545 4.61898 0.909091 7.14286 0.909091C9.66674 0.909091 12.3335 2.69545 13.3002 5C12.3335 7.30455 9.66674 9.09091 7.14286 9.09091Z" fill="#2E384D"/>
<path d="M7.14621 2.14453C6.58112 2.14453 6.02872 2.3121 5.55886 2.62605C5.08901 2.93999 4.7228 3.38622 4.50655 3.90829C4.2903 4.43037 4.23372 5.00484 4.34396 5.55907C4.45421 6.11331 4.72632 6.6224 5.1259 7.02198C5.52548 7.42156 6.03457 7.69367 6.58881 7.80392C7.14304 7.91416 7.71751 7.85758 8.23959 7.64133C8.76166 7.42508 9.20789 7.05887 9.52183 6.58902C9.83578 6.11916 10.0033 5.56676 10.0033 5.00167C10.0033 4.24391 9.70233 3.51719 9.16651 2.98137C8.63069 2.44555 7.90397 2.14453 7.14621 2.14453ZM7.14621 6.90644C6.76948 6.90644 6.40121 6.79472 6.08798 6.58542C5.77474 6.37613 5.5306 6.07864 5.38644 5.73059C5.24227 5.38254 5.20455 4.99956 5.27804 4.63007C5.35154 4.26059 5.53295 3.92119 5.79934 3.6548C6.06572 3.38842 6.40512 3.20701 6.77461 3.13351C7.14409 3.06002 7.52708 3.09774 7.87513 3.2419C8.22318 3.38607 8.52066 3.63021 8.72996 3.94345C8.93926 4.25668 9.05097 4.62495 9.05097 5.00167C9.05097 5.50685 8.85029 5.99133 8.49308 6.34854C8.13586 6.70576 7.65138 6.90644 7.14621 6.90644Z" fill="#2E384D"/>
</svg>
