<svg width="32" height="26" viewBox="0 0 32 26" fill="none" xmlns="http://www.w3.org/2000/svg">
<path d="M2.09922 15.6012H4.89922L4.59922 14.2012H1.19922L2.49922 24.8012H3.79922L2.09922 15.6012Z" fill-opacity="0.1"/>
<path d="M21.9992 17.4012L19.4992 17.3012C18.7992 17.3012 18.0992 17.3012 17.3992 17.3012C17.1992 17.3012 16.9992 17.3012 16.7992 17.4012C16.7992 17.4012 16.7992 17.4012 16.6992 17.4012C16.6992 17.4012 16.6992 17.4012 16.5992 17.4012C16.2992 17.4012 16.1992 17.7012 16.1992 18.0012C16.1992 18.3012 16.4992 18.5012 16.6992 18.4012C17.5992 18.3012 18.4992 18.2012 19.2992 18.3012L22.2992 18.4012C22.5992 18.4012 22.7992 18.2012 22.7992 17.9012C22.7992 17.8012 22.7992 17.8012 22.7992 17.7012L23.1992 17.5012L27.5992 15.0012C27.9992 14.8012 28.3992 14.7012 28.7992 14.8012L29.5992 14.2012C29.0992 13.7012 28.2992 13.6012 27.6992 13.9012L23.2992 16.4012L22.9992 16.7012C22.9992 16.8012 22.9992 16.8012 22.9992 16.9012C22.9992 17.2012 22.7992 17.4012 22.4992 17.4012H21.9992Z" fill-opacity="0.1"/>
<path d="M7.59961 17.2011L8.49961 16.4011C10.0996 15.2011 12.2996 15.0011 14.0996 15.9011L14.4996 16.1011C15.0996 16.4011 15.7996 16.6011 16.4996 16.6011H19.9996C20.5996 16.6011 21.1996 16.8011 21.5996 17.3011L22.0996 16.3011C21.8996 15.3011 20.9996 14.6011 19.9996 14.7011H16.4996C15.7996 14.7011 15.0996 14.5011 14.4996 14.2011L13.9996 13.9011C12.1996 13.0011 9.99961 13.2011 8.39961 14.4011L7.49961 15.2011C7.09961 15.6011 6.59961 15.8011 6.09961 16.0011L6.39961 17.8011C6.79961 17.7011 7.19961 17.5011 7.59961 17.2011Z" fill-opacity="0.1"/>
<path d="M12.6992 5.8C12.6992 3.5 14.2992 1.5 16.4992 1.1C16.1992 1 15.7992 1 15.4992 1C12.7992 1 10.6992 3.2 10.6992 5.8C10.6992 8.4 12.8992 10.6 15.4992 10.6C15.7992 10.6 16.1992 10.6 16.4992 10.5C14.3992 10 12.6992 8.1 12.6992 5.8Z" fill-opacity="0.1"/>
<path d="M3.80078 22.2996C3.80078 22.9996 4.30078 23.4996 5.00078 23.4996C5.70078 23.4996 6.20078 22.9996 6.20078 22.2996C6.20078 21.5996 5.70078 21.0996 5.00078 21.0996C4.30078 21.1996 3.80078 21.6996 3.80078 22.2996Z" />
<path d="M31 14.0002C30.2 12.7002 28.6 12.3002 27.3 12.9002C26.5 12.2002 25.4 11.9002 24.5 12.4002L24.3 12.5002C23.3 11.8002 22 11.7002 20.9 12.3002L19 13.4002H16.4C15.9 13.4002 15.3 13.3002 14.9 13.0002L14.5 12.8002C12.3 11.7002 9.7 12.0002 7.6 13.5002L6.7 14.3002C6.5 14.5002 6.2 14.7002 6 14.8002L5.6 13.5002C5.5 13.2002 5.3 13.0002 5 13.0002H0.8C0.6 13.0002 0.4 13.0002 0.3 13.2002C0.2 13.4002 0 13.5002 0 13.7002V13.8002L1.4 25.4002C1.4 25.8002 1.8 26.0002 2.1 26.0002H8.5C8.9 26.0002 9.2 25.7002 9.2 25.3002C9.2 25.2002 9.2 25.1002 9.2 25.1002L8.4 22.6002L10.8 21.1002C11.1 20.9002 11.4 20.9002 11.8 21.0002L17.1 22.0002C18.6 22.3002 20.2 22.1002 21.5 21.4002C21.5 21.4002 21.6 21.4002 21.6 21.3002L30.8 15.0002C31.1 14.8002 31.2 14.3002 31 14.0002ZM17.3 20.6002L12 19.6002C11.3 19.4002 10.6 19.5002 10 19.9002L8 21.2002L6.5 16.2002C7 16.0002 7.4 15.8002 7.8 15.4002L8.7 14.6002C10.3 13.4002 12.3 13.2002 14 14.1002L14.4 14.3002C15.1 14.6002 15.8 14.8002 16.5 14.8002H20C20.8 14.8002 21.5 15.3002 21.8 16.0002L19.7 15.9002C18.8 15.9002 17.8 15.9002 16.9 16.0002C16.7 16.0002 16.5 16.1002 16.4 16.3002C16.3 16.4002 16.2 16.6002 16.3 16.8002C16.4 17.2002 16.7 17.4002 17.1 17.4002C18 17.3002 18.8 17.2002 19.7 17.3002L22.7 17.4002C23.1 17.4002 23.4 17.1002 23.4 16.7002L28 14.2002C28.5 14.0002 29 14.0002 29.4 14.2002L20.9 20.0002C19.7 20.6002 18.5 20.8002 17.3 20.6002ZM23 15.3002C22.9 15.2002 22.9 15.1002 22.8 15.0002L25.2 13.7002C25.4 13.6002 25.7 13.6002 25.9 13.7002L23 15.3002ZM21.4 13.7002L21.6 13.6002C22 13.4002 22.4 13.3002 22.8 13.4002L21.8 13.9002C21.6 13.8002 21.5 13.8002 21.4 13.7002ZM7.6 24.6002H2.7L1.5 14.4002H4.4L7.6 24.6002Z" />
<path d="M15.4992 11.5004C18.6992 11.5004 21.2992 8.90039 21.2992 5.70039C21.2992 2.50039 18.6992 -0.0996094 15.4992 -0.0996094C12.2992 -0.0996094 9.69922 2.50039 9.69922 5.70039C9.69922 8.90039 12.3992 11.5004 15.4992 11.5004ZM15.4992 1.40039C17.8992 1.40039 19.7992 3.30039 19.7992 5.70039C19.7992 8.10039 17.7992 10.0004 15.4992 10.0004C13.0992 10.0004 11.1992 8.00039 11.1992 5.70039C11.1992 3.40039 13.0992 1.40039 15.4992 1.40039Z" />
<path d="M17.2008 4.70078H16.7008C16.7008 4.60078 16.6008 4.40078 16.5008 4.30078H17.1008C17.4008 4.30078 17.6008 4.10078 17.6008 3.80078C17.6008 3.50078 17.4008 3.30078 17.1008 3.30078H13.9008C13.6008 3.30078 13.4008 3.50078 13.4008 3.80078C13.4008 4.10078 13.6008 4.30078 13.9008 4.30078H14.8008C15.1008 4.30078 15.4008 4.50078 15.6008 4.70078H13.9008C13.6008 4.70078 13.4008 4.90078 13.4008 5.20078C13.4008 5.30078 13.5008 5.40078 13.5008 5.50078C13.6008 5.60078 13.7008 5.60078 13.8008 5.60078H15.5008C15.3008 5.90078 15.0008 6.00078 14.7008 6.00078H13.8008C13.5008 6.00078 13.3008 6.20078 13.3008 6.50078C13.3008 6.60078 13.4008 6.70078 13.4008 6.80078L15.7008 9.00078C15.8008 9.10078 15.9008 9.10078 16.0008 9.10078C16.2008 9.10078 16.3008 9.00078 16.4008 8.90078C16.5008 8.80078 16.5008 8.70078 16.5008 8.60078C16.5008 8.50078 16.5008 8.30078 16.4008 8.20078L15.1008 7.00078C15.8008 6.90078 16.4008 6.40078 16.6008 5.70078H17.1008C17.4008 5.70078 17.6008 5.50078 17.6008 5.20078C17.6008 4.90078 17.4008 4.70078 17.2008 4.70078Z" />
</svg>
