<svg width="48" height="32" viewBox="0 0 48 32" fill="none" xmlns="http://www.w3.org/2000/svg">
<rect x="0.75" y="0.75" width="46.5" height="30.5" rx="3.25" stroke="#2E384D" stroke-width="1.5"/>
<path d="M14.5 19C15.8807 19 17 17.8807 17 16.5C17 15.1193 15.8807 14 14.5 14C13.1193 14 12 15.1193 12 16.5C12 17.8807 13.1193 19 14.5 19Z" fill="#2E384D"/>
<path d="M24.5 19C25.8807 19 27 17.8807 27 16.5C27 15.1193 25.8807 14 24.5 14C23.1193 14 22 15.1193 22 16.5C22 17.8807 23.1193 19 24.5 19Z" fill="#2E384D"/>
<path d="M34.5 19C35.8807 19 37 17.8807 37 16.5C37 15.1193 35.8807 14 34.5 14C33.1193 14 32 15.1193 32 16.5C32 17.8807 33.1193 19 34.5 19Z" fill="#2E384D"/>
</svg>
