<svg width="36" height="44" viewBox="0 0 36 44" fill="none" xmlns="http://www.w3.org/2000/svg">
<path d="M4.39062 0C4.9192 1.07715 5.80762 1.90123 6.78197 2.5366C8.0568 3.37474 9.46338 3.96739 10.8882 4.46757C12.0016 4.84608 13.1754 5.12186 14.145 5.83725C15.6724 6.90305 16.5723 8.7302 16.8301 10.5892C16.9311 11.3847 17.0467 12.2071 16.8723 12.9999C16.5598 11.8102 16.1734 10.6098 15.4225 9.63485C14.5169 8.39548 13.1447 7.65521 11.7688 7.12204C10.5559 6.64079 9.26914 6.33743 8.13804 5.65881C6.13206 4.52434 4.63955 2.37492 4.39062 0Z" fill="#008FCB"/>
<path d="M20.8419 4.46882C21.8516 4.20711 22.8239 3.73667 23.5665 2.96558C23.3044 3.87337 22.7251 4.64673 21.9423 5.13393C20.7226 5.9207 19.1379 5.70333 17.9621 6.59392C17.3418 7.0211 17.0195 7.73542 16.6602 8.3843C16.6789 7.1617 17.22 5.88664 18.2433 5.2264C19.0291 4.72459 19.9805 4.73433 20.8419 4.46882Z" fill="#008FCB"/>
<path d="M14.7636 3.38838C15.4927 3.18128 16.0978 3.97779 16.1968 4.65857C16.3009 5.06088 16.0832 5.60757 15.6312 5.61189C15.0063 5.58594 14.5527 4.97977 14.4199 4.38983C14.3486 4.03348 14.3876 3.53871 14.7636 3.38838Z" fill="#008FCB"/>
<path d="M19.9106 8.38079C19.9726 8.09852 20.2981 8.09257 20.5137 8.16016C21.2745 8.38781 21.927 8.88151 22.5446 9.37953C23.6554 10.322 24.6438 11.536 24.9875 13.0133C25.2146 13.8979 25.2375 14.8193 25.2125 15.7289C26.0916 13.9504 25.3271 11.8415 24.2069 10.3875C23.808 9.95487 23.5914 9.31247 23.8012 8.73551C23.8793 8.49272 24.1554 8.45216 24.3506 8.56247C25.9416 9.36168 26.9597 11.0839 27.2148 12.8673C27.5065 14.4354 27.3008 16.0419 26.9628 17.5798C26.7545 18.5185 26.7081 19.5351 26.1869 20.3651C25.8062 21.0319 25.1802 21.4801 24.5761 21.9089C23.1841 22.9066 21.5557 23.629 20.4824 25.0382C19.9517 25.693 19.7096 26.5582 19.7752 27.4082C21.9041 27.6105 24.0257 27.9917 26.064 28.6714C20.648 27.6981 15.0899 27.8965 9.67188 28.7666C10.8092 28.2496 12.0346 27.9798 13.2485 27.7392C14.716 27.5229 16.1924 27.3169 17.675 27.3309C18.0916 27.3428 18.5082 27.3536 18.9248 27.3515C19.147 26.348 19.251 25.3203 19.2347 24.2909C19.1555 22.5924 18.4447 20.9794 17.3912 19.6946C17.9359 19.2258 18.7108 19.0046 19.0477 18.3141C19.4237 17.5533 19.3815 16.6724 19.357 15.844C19.3138 15.4012 19.3159 14.9248 19.0857 14.5349C18.754 13.9401 18.2587 13.4648 17.9244 12.8743C17.8497 12.702 17.8098 12.5156 17.807 12.3267C17.8042 12.1377 17.8387 11.9501 17.9083 11.7755C18.0228 11.4646 18.4493 11.3943 18.6728 11.6182C19.2737 12.1789 19.8398 12.7813 20.3876 13.3994C20.6259 13.6534 20.8042 13.9614 20.9084 14.2992C21.15 15.1103 21.2615 15.9581 21.3391 16.8033C21.6406 15.8181 21.4458 14.7323 21.0172 13.8206C20.5652 12.8473 19.8262 12.0529 19.018 11.3873C18.6832 11.1277 18.4342 10.7065 18.4858 10.2598C18.5514 9.8305 19.0956 9.68991 19.4305 9.86727C19.9512 10.1349 20.4038 10.5232 20.8542 10.9017C21.6088 11.5906 22.4467 12.3325 22.6998 13.3891C22.9925 14.3532 23.0987 15.3628 23.3534 16.335C23.6583 15.0104 23.4673 13.6149 22.8191 12.4309C22.1749 11.1996 21.0651 10.3545 20.0918 9.42603C19.8773 9.13782 19.845 8.72469 19.9106 8.38079Z" fill="#008FCB"/>
<path d="M27.1787 9.63013C27.8078 9.95457 28.3546 10.4228 28.8972 10.8798C31.4104 12.9773 33.3237 15.827 34.4001 18.9789C35.0938 21.0267 35.3812 23.1999 35.4067 25.3639C35.362 29.791 33.7111 34.1855 30.824 37.4462C28.7045 39.8841 25.9939 41.6869 22.9748 42.6665C19.9558 43.6462 16.7389 43.7668 13.6597 43.0158C10.7569 42.322 8.04218 40.8301 5.83206 38.7591C1.92685 35.1286 -0.329093 29.6174 0.0390866 24.1738C0.194144 20.4378 1.4606 16.8435 3.66412 13.8857C3.99845 13.4429 4.33122 12.9892 4.75304 12.6307C4.68169 13.113 4.30831 13.438 4.04584 13.8143C2.45335 15.9816 1.37328 18.5398 0.836896 21.2041C0.19167 24.7659 0.53902 28.5327 1.92269 31.8679C2.92203 34.2904 4.42652 36.4999 6.33147 38.2411C8.7918 40.5323 11.8417 42.0297 15.1084 42.5502C19.1766 43.211 23.4667 42.2728 26.9183 39.9384C30.3262 37.683 32.9024 34.132 34.0897 30.1257C34.7641 27.8805 34.9886 25.5008 34.8188 23.1583C34.3923 17.9591 31.6869 12.9951 27.562 9.99783C27.4226 9.889 27.2942 9.7658 27.1787 9.63013Z" fill="#008FCB"/>
<path d="M27.3369 18.9163C27.4551 18.9876 27.589 19.0541 27.6494 19.1937C28.8815 21.4848 29.3929 24.1879 29.0492 26.7905C28.7268 29.0075 27.827 31.1493 26.3933 32.8348C23.7311 36.1679 19.2068 37.7198 15.1531 36.706C12.7769 36.1414 10.5782 34.7799 9.01073 32.8419C6.49232 29.8721 5.58515 25.5165 6.74437 21.7443L6.91049 21.6632C6.89695 22.2705 6.72041 22.8528 6.6574 23.4547C6.3892 26.0021 6.90164 28.6457 8.17282 30.8482C9.59041 33.344 11.8599 35.1952 14.5308 36.0344C16.5018 36.6569 18.6027 36.6847 20.5883 36.1144C23.0828 35.425 25.3059 33.773 26.7766 31.5754C28.8919 28.4543 29.4179 24.2301 28.0785 20.6682C27.8999 20.0529 27.503 19.5349 27.3369 18.9163Z" fill="#008FCB"/>
<path d="M12.0317 8.28815C12.3114 8.14269 12.6254 8.12593 12.9301 8.16324C13.0462 8.53418 13.0701 8.95109 12.8946 9.30798C12.6863 9.60592 12.3859 9.8114 12.1281 10.0591C11.3011 10.8258 10.4439 11.6175 9.96327 12.6779C9.44251 13.7253 9.26545 14.9516 9.51073 16.105C9.58819 16.0337 9.64559 15.942 9.67685 15.8395C9.86849 14.9408 9.9992 14.0243 10.2835 13.1494C10.5205 12.4021 11.0824 11.8424 11.6099 11.3065C12.1541 10.7961 12.7238 10.3035 13.3623 9.92334C13.6503 9.74273 14.031 9.77463 14.3137 9.95091C14.5694 10.4316 14.3413 11.0351 13.9393 11.3439C12.9233 12.1723 12.0125 13.2197 11.6198 14.5207C11.4115 15.2193 11.3324 15.9882 11.5422 16.6966C11.6542 15.8704 11.7505 15.0328 12.0177 14.2411C12.2182 13.6328 12.6978 13.1991 13.1113 12.7481C13.4831 12.3783 13.8268 11.9781 14.2221 11.6342C14.4424 11.4179 14.847 11.4569 14.9855 11.7521C15.0707 11.9464 15.1101 12.159 15.1004 12.3723C15.0907 12.5856 15.0322 12.7934 14.9298 12.9785C14.5512 13.6047 13.9976 14.1178 13.7237 14.8105C13.5118 15.8341 13.4472 16.9194 13.7305 17.9365C13.8718 18.411 14.1838 18.8105 14.6017 19.0521C15.6391 19.6766 16.5692 20.5396 17.1675 21.6276C17.707 22.6588 17.9445 23.837 17.9757 25.0034C17.9721 25.7891 17.8195 26.564 17.6716 27.3318C16.1869 27.3178 14.7106 27.5259 13.2451 27.7401C13.205 27.2199 13.2222 26.6759 13.0045 26.193C12.7441 25.5236 12.2906 24.9645 11.7943 24.4713C10.5174 23.2525 8.903 22.5057 7.58234 21.3448C7.08605 20.8938 6.60122 20.3715 6.40177 19.7036C6.11743 18.7941 6.01745 17.8381 5.81018 16.9097C5.55345 15.786 5.53834 14.6207 5.60188 13.4744C5.76383 11.4899 6.76005 9.4556 8.54627 8.56771C8.59703 8.53593 8.65396 8.51627 8.71294 8.51014C8.77192 8.50401 8.83147 8.51157 8.88729 8.53227C8.94311 8.55297 8.9938 8.58629 9.03569 8.62983C9.07759 8.67337 9.10964 8.72603 9.12953 8.784C9.22014 9.24201 9.19931 9.77518 8.88217 10.1407C8.18382 11.0464 7.57609 12.0717 7.38497 13.2321C7.22874 14.0335 7.30894 14.8868 7.66097 15.6222C7.68753 14.6342 7.70003 13.6274 8.0177 12.6833C8.24683 11.8722 8.69469 11.1432 9.22014 10.5014C10.0263 9.60809 10.947 8.79157 12.0317 8.28815Z" fill="#EDA34C"/>
<path d="M17.1985 32.1046C17.3693 31.5904 17.5083 31.0642 17.7078 30.5608C17.9104 31.0621 18.0536 31.5833 18.2109 32.1013C18.7196 32.1122 19.231 32.0905 19.7403 32.136C19.3857 32.5237 18.9332 32.7881 18.5363 33.1212C18.6889 33.6343 18.8722 34.1378 18.9847 34.6639C18.54 34.3833 18.1374 34.0356 17.7005 33.7414C17.2766 34.0496 16.8751 34.3941 16.4283 34.6688C16.5475 34.1437 16.7298 33.6381 16.8824 33.1239C16.4835 32.787 16.0351 32.5129 15.668 32.136C16.1773 32.0943 16.6887 32.1073 17.1985 32.1046Z" fill="#C93636"/>
<path d="M11.7168 31.5048C11.8065 31.2314 11.913 30.9643 12.0355 30.7051C12.1282 30.9679 12.2157 31.2334 12.3027 31.5C12.6052 31.507 12.9078 31.5059 13.2104 31.494C12.9698 31.6761 12.7306 31.8606 12.4928 32.0477C12.5573 32.3213 12.6235 32.5939 12.6854 32.8702C12.4537 32.7247 12.2282 32.5739 11.9991 32.4273C11.7908 32.582 11.5747 32.7323 11.357 32.8761C11.4091 32.6058 11.4611 32.3322 11.5163 32.0596C11.3247 31.8952 11.1409 31.7222 10.9648 31.5405C11.2148 31.5178 11.4658 31.5097 11.7168 31.5048Z" fill="#C93636"/>
<path d="M23.0311 30.7051C23.1535 30.9643 23.2615 31.2306 23.3545 31.5027C23.6149 31.5086 23.8794 31.5189 24.1419 31.5384C23.945 31.72 23.7419 31.8942 23.5357 32.0629C23.5998 32.3413 23.6722 32.6177 23.744 32.894C23.5139 32.7426 23.2889 32.582 23.0634 32.4235C22.8363 32.5728 22.6124 32.7274 22.3833 32.8723C22.4442 32.602 22.5129 32.3316 22.5838 32.0656C22.3802 31.899 22.1828 31.726 21.9922 31.5443C22.2552 31.5167 22.5197 31.501 22.7832 31.4859C22.861 31.2235 22.9436 30.9632 23.0311 30.7051Z" fill="#C93636"/>
<path d="M1.877 22.2109C1.86155 22.0994 1.86436 21.9861 1.88533 21.8756C1.90276 21.7642 1.93796 21.6565 1.98948 21.5571C2.02802 21.4774 2.08405 21.4081 2.15306 21.355C2.22208 21.3018 2.30215 21.2662 2.38683 21.2511C2.47964 21.2314 2.57445 21.2238 2.66908 21.2283C2.7816 21.2349 2.89361 21.2488 3.00445 21.27L4.88284 21.6133L4.81671 22.0081L2.91957 21.6609C2.83833 21.6463 2.76802 21.6355 2.70814 21.6296C2.64699 21.6236 2.58545 21.6236 2.52431 21.6296C2.47028 21.6327 2.4173 21.6463 2.36808 21.6696C2.3246 21.6926 2.28709 21.7262 2.25872 21.7675C2.22504 21.8174 2.20294 21.8748 2.19414 21.9351C2.18247 21.9946 2.18443 22.0561 2.19987 22.1146C2.21322 22.1634 2.23769 22.2081 2.27122 22.2449C2.31002 22.2839 2.35516 22.3153 2.40453 22.3379C2.45987 22.3646 2.51738 22.3862 2.57638 22.4023C2.63506 22.4174 2.70449 22.4326 2.78469 22.4477L4.68443 22.7921L4.6183 23.1826L2.74042 22.8387C2.62914 22.8195 2.51919 22.7928 2.4113 22.7586C2.32004 22.7295 2.23258 22.6888 2.15092 22.6375C2.07633 22.5934 2.01264 22.5319 1.96492 22.4579C1.91719 22.3838 1.88673 22.2993 1.87596 22.2109H1.877Z" fill="#C93636"/>
<path d="M1.73358 23.2661L3.78383 23.4002L3.75987 23.7944L3.5573 23.7809C3.70068 23.959 3.76699 24.1372 3.75623 24.3157C3.75429 24.37 3.73847 24.4228 3.7104 24.4687C3.68483 24.5094 3.64873 24.5418 3.60625 24.5623C3.56307 24.5818 3.51751 24.5951 3.47085 24.6017C3.4206 24.6083 3.36986 24.61 3.31931 24.6066L1.66016 24.4985L1.68411 24.1048L3.23234 24.2065C3.29239 24.2142 3.35336 24.2058 3.4094 24.1821C3.43044 24.1686 3.44759 24.1495 3.45904 24.1268C3.4705 24.104 3.47584 24.0785 3.4745 24.0529C3.4797 23.9734 3.44273 23.8788 3.36514 23.769L1.71119 23.6609L1.73358 23.2661Z" fill="#C93636"/>
<path d="M1.67188 25.0696L4.54805 24.989L4.55847 25.3854L1.68229 25.4686L1.67188 25.0696Z" fill="#C93636"/>
<path d="M1.71094 25.9966L3.75858 25.8192L3.78983 26.2123L1.7427 26.3897L1.71094 25.9966ZM4.05958 25.7916L4.45745 25.7576L4.48921 26.1523L4.09135 26.1869L4.05958 25.7916Z" fill="#C93636"/>
<path d="M1.84269 27.4315C1.82793 27.3557 1.82851 27.2775 1.84437 27.2019C1.86024 27.1263 1.89105 27.055 1.93486 26.9924C2.03127 26.864 2.16867 26.7756 2.32231 26.7431L2.46656 27.053C2.36401 27.076 2.26807 27.1236 2.18639 27.192C2.15898 27.2181 2.13854 27.2512 2.12704 27.2879C2.11554 27.3247 2.11339 27.3639 2.12077 27.4018C2.12436 27.434 2.13441 27.4651 2.15029 27.493C2.16617 27.521 2.18751 27.5451 2.21295 27.564C2.23849 27.5821 2.26741 27.5944 2.29783 27.6C2.32825 27.6057 2.35948 27.6047 2.38949 27.597C2.48895 27.5743 2.5754 27.5013 2.64987 27.3807L2.89098 26.9724C2.94031 26.8843 3.00411 26.8058 3.0795 26.7404C3.15738 26.6798 3.24977 26.6424 3.34665 26.6323C3.41441 26.6189 3.48408 26.6201 3.55141 26.6356C3.61874 26.6511 3.68232 26.6807 3.73826 26.7226C3.84531 26.8151 3.91363 26.9471 3.92886 27.0908C3.94273 27.1606 3.94167 27.2328 3.92574 27.3021C3.90981 27.3714 3.87941 27.4363 3.83669 27.4921C3.7436 27.6049 3.61764 27.6831 3.47788 27.7149L3.34353 27.4667C3.43423 27.4431 3.51908 27.3998 3.59245 27.3396C3.61861 27.3167 3.63829 27.2868 3.64939 27.2532C3.66048 27.2196 3.66258 27.1835 3.65546 27.1487C3.65223 27.12 3.64312 27.0924 3.62875 27.0677C3.61438 27.043 3.59508 27.0217 3.57214 27.0054C3.54954 26.9894 3.52405 26.9782 3.49721 26.9727C3.47037 26.9671 3.44272 26.9672 3.41591 26.973C3.37668 26.9804 3.3395 26.9967 3.30701 27.0207C3.27452 27.0447 3.24752 27.0759 3.22792 27.1119L2.95608 27.5397C2.89922 27.6375 2.82787 27.7255 2.74465 27.8003C2.66089 27.8703 2.56017 27.915 2.45354 27.9295C2.28481 27.9576 2.14803 27.9265 2.04318 27.836C1.93044 27.7316 1.85901 27.5874 1.84269 27.4315Z" fill="#C93636"/>
<path d="M2.15766 28.9942C2.12017 28.8367 2.13301 28.713 2.1962 28.6233C2.25939 28.5335 2.36996 28.4672 2.52793 28.4243L3.82984 28.0901L3.77776 27.8738L4.02356 27.8105L4.07564 28.0268L4.65681 27.8776L4.74846 28.2604L4.16625 28.4097L4.24592 28.7422L4.00012 28.8055L3.92045 28.4729L2.64562 28.8006C2.58548 28.8102 2.52975 28.8392 2.48627 28.8834C2.4724 28.9076 2.46401 28.9348 2.46176 28.9629C2.4595 28.991 2.46343 29.0193 2.47325 29.0456C2.48394 29.0931 2.49804 29.1398 2.51543 29.1851L2.23942 29.2527C2.20745 29.1682 2.18015 29.0819 2.15766 28.9942Z" fill="#C93636"/>
<path d="M2.52654 30.2532C2.49018 30.1537 2.47336 30.0476 2.47706 29.9412C2.48211 29.8543 2.51345 29.7712 2.56663 29.7038C2.62499 29.6318 2.6956 29.5715 2.77494 29.5259C2.87988 29.4667 2.98967 29.4173 3.10302 29.3783L3.54775 29.2161C3.66109 29.1733 3.7781 29.1418 3.89719 29.122C3.98715 29.1071 4.079 29.1098 4.16798 29.1301C4.24879 29.1496 4.32165 29.195 4.37629 29.2599C4.44108 29.3391 4.48995 29.4311 4.52002 29.5302C4.54221 29.5942 4.55707 29.6606 4.56428 29.7281C4.56962 29.7823 4.56752 29.8369 4.55803 29.8904C4.54825 29.9396 4.52836 29.9861 4.49971 30.0266C4.4708 30.0683 4.43724 30.1062 4.39972 30.1397C4.35524 30.1776 4.30706 30.2105 4.25599 30.2381C4.19844 30.2704 4.13915 30.2993 4.07841 30.3246C4.01852 30.3505 3.94718 30.3787 3.86542 30.4073L3.70919 30.4614L3.44464 29.6681L3.18426 29.7611L3.16291 29.7687C3.11083 29.7882 3.06813 29.8033 3.04209 29.813C3.01605 29.8228 2.9822 29.8379 2.94158 29.8568C2.9101 29.8705 2.88064 29.8887 2.8541 29.9109C2.83497 29.9296 2.81754 29.95 2.80202 29.972C2.78478 29.9947 2.77509 30.0226 2.77442 30.0515C2.77421 30.0849 2.77985 30.1181 2.79108 30.1494C2.79854 30.183 2.81518 30.2137 2.83901 30.2378C2.86284 30.2619 2.89285 30.2783 2.92544 30.2851C3.01241 30.2914 3.09959 30.2766 3.18009 30.2418L3.29831 30.1997L3.41965 30.5641L3.34413 30.5912C2.92544 30.7444 2.65291 30.6317 2.52654 30.2532ZM3.63941 29.6043L3.7821 30.0315L3.95811 29.9677C4.01019 29.9493 4.05237 29.932 4.08622 29.9169C4.11947 29.9015 4.1515 29.8834 4.18204 29.8628C4.20781 29.8468 4.23013 29.8254 4.24766 29.8001C4.26166 29.7771 4.2699 29.7509 4.27161 29.7238C4.27371 29.6901 4.26874 29.6564 4.25703 29.6249C4.22735 29.5367 4.17736 29.4891 4.10653 29.4827C4.03571 29.4762 3.91541 29.5037 3.74512 29.5648L3.63941 29.6043Z" fill="#C93636"/>
<path d="M3.11854 31.777C3.04146 31.6101 3.0439 31.4592 3.12583 31.3244C3.20776 31.1895 3.3843 31.0556 3.65544 30.9226L4.01633 30.7463C4.10851 30.7009 4.19183 30.6641 4.26734 30.6382C4.34327 30.6099 4.42154 30.5889 4.50116 30.5754C4.57151 30.5623 4.64346 30.5612 4.71416 30.5722C4.77778 30.5838 4.83769 30.6115 4.88861 30.6528C4.94662 30.7001 4.99272 30.7613 5.02297 30.8312C5.04896 30.893 5.06238 30.9598 5.06238 31.0272C5.06238 31.0947 5.04896 31.1614 5.02297 31.2233L5.88639 30.8004L6.04835 31.1578L3.44454 32.4313L3.28258 32.0744L3.40183 32.0154C3.34091 31.9991 3.28409 31.9693 3.23521 31.9282C3.18633 31.887 3.14654 31.8355 3.11854 31.777ZM3.431 31.7337C3.46904 31.8105 3.52739 31.8745 3.5992 31.9181L4.81727 31.3233C4.83744 31.2349 4.83034 31.1422 4.79696 31.0583C4.73342 30.9181 4.57233 30.9112 4.31369 31.0378L3.78824 31.2952C3.72939 31.3238 3.68044 31.3492 3.64086 31.3725C3.60065 31.3955 3.56202 31.4213 3.52525 31.4498C3.49322 31.4728 3.46521 31.5014 3.44245 31.5342C3.42455 31.5619 3.41363 31.5939 3.41069 31.6272C3.40802 31.6639 3.41486 31.7007 3.43047 31.7337H3.431Z" fill="#C93636"/>
<path d="M4.56332 34.3797C4.42445 34.1739 4.38001 33.9727 4.43001 33.7763C4.48 33.5798 4.60689 33.3981 4.81068 33.2312L5.09502 33.4772C4.77215 33.7436 4.68119 33.9819 4.82214 34.1921C4.8442 34.2305 4.87384 34.2636 4.90912 34.2892C4.9444 34.3148 4.9845 34.3324 5.0268 34.3408C5.11825 34.3487 5.20912 34.3197 5.28041 34.2597C5.32737 34.2265 5.36962 34.1866 5.40592 34.1413C5.43986 34.0971 5.46644 34.0474 5.48455 33.9942C5.50173 33.9457 5.51548 33.896 5.52569 33.8455C5.53402 33.8022 5.5434 33.7422 5.55381 33.6659L5.62932 33.0003C5.63904 32.875 5.67713 32.7539 5.74047 32.6467C5.80382 32.5396 5.89064 32.4495 5.99386 32.3839C6.16467 32.2602 6.33236 32.2153 6.49692 32.2492C6.66148 32.2831 6.80469 32.3884 6.92655 32.565C7.0609 32.7586 7.1109 32.9406 7.07653 33.1111C7.04216 33.2817 6.92672 33.4524 6.73022 33.6232L6.45786 33.3913C6.50629 33.3502 6.54795 33.3118 6.58336 33.2755C6.61959 33.2386 6.65221 33.198 6.68075 33.1544C6.70784 33.1156 6.72795 33.072 6.74011 33.0257C6.75026 32.982 6.75026 32.9364 6.74011 32.8927C6.72743 32.8401 6.70359 32.7912 6.67033 32.7494C6.53702 32.5785 6.39016 32.5509 6.22976 32.6667C6.16864 32.708 6.11764 32.7635 6.08083 32.8289C6.04729 32.9014 6.02598 32.9793 6.01781 33.0592L5.94491 33.7276C5.92714 33.8913 5.88443 34.051 5.81836 34.2007C5.75162 34.3452 5.64898 34.4686 5.52101 34.5582C5.34742 34.6829 5.17383 34.7279 5.00024 34.6933C4.91097 34.6739 4.82633 34.6362 4.75131 34.5823C4.67628 34.5285 4.61236 34.4596 4.56332 34.3797Z" fill="#C93636"/>
<path d="M5.62922 35.7842C5.55934 35.706 5.50517 35.614 5.46987 35.5138C5.44325 35.4311 5.44234 35.3419 5.46727 35.2586C5.49531 35.169 5.5389 35.0854 5.59589 35.012C5.67189 34.9164 5.75588 34.8279 5.8469 34.7476L6.2005 34.4232C6.29022 34.3393 6.38714 34.2642 6.49004 34.1988C6.56817 34.15 6.65435 34.1168 6.74418 34.1009C6.82644 34.0873 6.91074 34.1007 6.98529 34.1393C7.0743 34.1876 7.1531 34.254 7.21703 34.3345C7.26065 34.3851 7.2984 34.4408 7.32952 34.5005C7.35402 34.5487 7.37157 34.6005 7.38159 34.6541C7.39034 34.7036 7.38892 34.7544 7.37743 34.8033C7.36587 34.8533 7.34838 34.9016 7.32535 34.9471C7.29834 34.9998 7.26567 35.0492 7.22797 35.0942C7.18616 35.1466 7.14184 35.1968 7.09517 35.2445C7.04882 35.291 6.99102 35.3446 6.92749 35.4041L6.80094 35.5165L6.26976 34.8887L6.06146 35.0764L6.04479 35.0915C6.00105 35.131 5.96928 35.1607 5.94845 35.1802C5.92762 35.1997 5.90262 35.2262 5.87138 35.2597C5.84712 35.2844 5.82642 35.3126 5.80993 35.3435C5.79827 35.3682 5.78902 35.3942 5.78233 35.4208C5.77487 35.4486 5.77615 35.4782 5.78597 35.5052C5.79828 35.5362 5.81593 35.5646 5.83805 35.589C5.85701 35.6173 5.88348 35.6394 5.91426 35.6524C5.94504 35.6655 5.9788 35.669 6.01146 35.6625C6.09454 35.6345 6.17015 35.5868 6.23227 35.523L6.326 35.4376L6.57076 35.728L6.51088 35.782C6.17793 36.0852 5.88405 36.0859 5.62922 35.7842ZM6.42495 34.7471L6.71137 35.0877L6.85145 34.9606C6.89277 34.9246 6.9261 34.8922 6.95144 34.8633C6.97699 34.8364 7.00034 34.8072 7.02122 34.7763C7.03899 34.7511 7.0519 34.7227 7.05924 34.6924C7.064 34.6657 7.06203 34.6381 7.05351 34.6124C7.04295 34.5806 7.02629 34.5514 7.00456 34.5264C6.94519 34.4561 6.88166 34.4318 6.81396 34.4534C6.74574 34.4756 6.64419 34.5481 6.50827 34.6697L6.42495 34.7471Z" fill="#C93636"/>
<path d="M6.78115 37.0169C6.71618 36.9567 6.66173 36.8854 6.62023 36.806C6.58708 36.7438 6.56869 36.6744 6.56661 36.6033C6.56452 36.5323 6.5788 36.4618 6.60826 36.3977C6.63853 36.3247 6.6768 36.2556 6.7223 36.1917C6.77709 36.1148 6.8364 36.0415 6.89988 35.9722L7.2238 35.6104C7.3018 35.521 7.387 35.4387 7.47845 35.3644C7.54922 35.3069 7.62928 35.2629 7.71488 35.2346C7.79578 35.2082 7.88276 35.2097 7.96276 35.2389C8.05928 35.2772 8.14693 35.3361 8.22002 35.412C8.29055 35.476 8.34976 35.5523 8.395 35.6374C8.42979 35.7034 8.44415 35.779 8.43614 35.8537C8.42635 35.9292 8.40171 36.0017 8.36375 36.0668C8.31425 36.1503 8.2561 36.2279 8.19034 36.2982L8.10649 36.3912L7.85548 36.1484L7.94037 36.0533C8.03237 35.9505 8.08584 35.868 8.10076 35.8056C8.10692 35.7722 8.10388 35.7377 8.09199 35.7061C8.08011 35.6744 8.05986 35.6469 8.03359 35.6266C7.96415 35.561 7.89801 35.543 7.83518 35.5725C7.77234 35.6021 7.67912 35.6847 7.55553 35.8202L7.11444 36.3123C6.99623 36.4437 6.92801 36.5442 6.90978 36.6129C6.90159 36.6488 6.90368 36.6864 6.9158 36.7211C6.92792 36.7558 6.94954 36.786 6.978 36.8081C7.00111 36.8322 7.02902 36.8506 7.05976 36.8622C7.0843 36.8711 7.11053 36.8739 7.13631 36.8703C7.16432 36.8646 7.19091 36.853 7.21443 36.8362C7.24184 36.8177 7.26763 36.7967 7.2915 36.7735C7.31493 36.7514 7.34357 36.7222 7.37534 36.6859L7.48887 36.5594L7.73988 36.8022L7.64301 36.9103C7.58076 36.9832 7.5109 37.0487 7.43471 37.1055C7.37319 37.1507 7.30361 37.1827 7.23005 37.1996C7.15721 37.2153 7.08153 37.2077 7.01289 37.178C6.9266 37.1398 6.84799 37.0852 6.78115 37.0169Z" fill="#C93636"/>
<path d="M7.82159 37.9377C7.77911 37.9058 7.74537 37.8629 7.72369 37.8133C7.7046 37.7685 7.69862 37.7189 7.7065 37.6706C7.71431 37.6224 7.72869 37.5756 7.7492 37.5316C7.77128 37.4842 7.79798 37.4392 7.82888 37.3975L8.82823 36.0181L9.13183 36.2555L8.19914 37.5424C8.15975 37.5902 8.13301 37.6477 8.12155 37.7095C8.12087 37.7352 8.12684 37.7605 8.13884 37.783C8.15084 37.8054 8.16843 37.8241 8.18977 37.8371C8.2507 37.8847 8.346 37.9052 8.47827 37.8977L9.4771 36.5231L9.78071 36.7605L8.54545 38.4649L8.23924 38.2297L8.3611 38.0615C8.13926 38.0867 7.95942 38.0455 7.82159 37.9377Z" fill="#C93636"/>
<path d="M9.00391 38.7779L10.0798 36.9604L10.4032 37.167L10.2501 37.4266C10.3456 37.3689 10.4524 37.3343 10.5625 37.3254C10.6467 37.323 10.7297 37.3459 10.8016 37.3914C10.8196 37.4026 10.837 37.4148 10.8537 37.4282L10.6339 37.7997C10.5909 37.7408 10.538 37.6906 10.4777 37.6515C10.4285 37.6184 10.3717 37.5997 10.3131 37.5974C10.2426 37.6004 10.1737 37.6206 10.1121 37.6564L9.32782 38.9855L9.00391 38.7779Z" fill="#C93636"/>
<path d="M10.1016 39.4486L11.0551 37.5593L11.392 37.7426L10.438 39.6319L10.1016 39.4486ZM11.1952 37.2797L11.38 36.9131L11.7159 37.0948L11.5311 37.4619L11.1952 37.2797Z" fill="#C93636"/>
<path d="M11.3848 40.1253C11.2421 40.0593 11.1561 39.9733 11.1244 39.8663C11.0926 39.7592 11.1119 39.6283 11.1765 39.4726L11.7181 38.2003L11.5212 38.11L11.6254 37.8693L11.8196 37.958L12.0618 37.3892L12.4096 37.5514L12.169 38.1202L12.4706 38.2587L12.3664 38.4993L12.0649 38.3609L11.5337 39.6083C11.5041 39.6634 11.4921 39.7269 11.4993 39.7895C11.5097 39.8322 11.5478 39.869 11.6144 39.8976C11.6572 39.9181 11.7014 39.9351 11.7467 39.9485L11.6332 40.2156C11.5488 40.1904 11.4658 40.1603 11.3848 40.1253Z" fill="#C93636"/>
<path d="M12.0273 40.3615L12.7309 38.3575L13.0881 38.4927L12.3846 40.4967L12.0273 40.3615ZM12.835 38.0612L12.9715 37.6719L13.3303 37.8076L13.1938 38.1969L12.835 38.0612Z" fill="#C93636"/>
<path d="M13.4366 40.8686C13.3369 40.8436 13.243 40.798 13.1606 40.7345C13.0943 40.6812 13.0461 40.6073 13.0231 40.5236C12.9986 40.4327 12.9907 40.3379 12.9997 40.244C13.012 40.1206 13.035 39.9987 13.0684 39.8796L13.1934 39.4086C13.2239 39.2874 13.265 39.1694 13.3163 39.056C13.3559 38.9707 13.4102 38.8937 13.4767 38.8289C13.5378 38.7697 13.6152 38.7319 13.6981 38.7208C13.798 38.7103 13.8989 38.7206 13.9949 38.751C14.0582 38.7684 14.1194 38.7935 14.1772 38.8257C14.2233 38.8519 14.2657 38.8847 14.3032 38.923C14.3367 38.9594 14.3623 39.003 14.3782 39.0506C14.3951 39.0989 14.4063 39.1492 14.4115 39.2004C14.4166 39.2598 14.4155 39.3196 14.4084 39.3788C14.4013 39.4463 14.3907 39.5132 14.3766 39.5794C14.3631 39.6454 14.3443 39.7222 14.3214 39.8087L14.2756 39.9753L13.4944 39.7519L13.4215 40.0266C13.4215 40.0315 13.4184 40.0385 13.4158 40.0493C13.4002 40.1072 13.3892 40.1499 13.3825 40.178C13.3757 40.2062 13.3679 40.2429 13.3601 40.2862C13.3526 40.3217 13.3501 40.3581 13.3528 40.3943C13.3565 40.4216 13.3628 40.4484 13.3715 40.4744C13.3797 40.502 13.3964 40.5261 13.4189 40.543C13.4453 40.5621 13.4747 40.576 13.5059 40.5841C13.5368 40.597 13.5707 40.6003 13.6033 40.5935C13.636 40.5867 13.666 40.5701 13.6897 40.5457C13.7439 40.4749 13.7817 40.392 13.8001 40.3035L13.8329 40.1786L14.1928 40.2835L14.1714 40.3635C14.0537 40.8066 13.8088 40.9749 13.4366 40.8686ZM13.5507 39.5481L13.9704 39.6681L14.0199 39.4821C14.0345 39.428 14.0449 39.3815 14.0522 39.3437C14.0591 39.3066 14.0629 39.269 14.0636 39.2312C14.0655 39.2002 14.0613 39.1691 14.0511 39.1398C14.0409 39.1148 14.0248 39.0929 14.0043 39.076C13.9786 39.0557 13.9491 39.041 13.9178 39.0328C13.8308 39.0079 13.7647 39.0236 13.7194 39.0809C13.6741 39.1382 13.6277 39.2566 13.5798 39.4372L13.5507 39.5481Z" fill="#C93636"/>
<path d="M14.9643 41.2218C14.8904 41.212 14.8193 41.1863 14.7555 41.1465C14.6917 41.1067 14.6365 41.0535 14.5935 40.9904C14.507 40.8542 14.4701 40.6905 14.4894 40.5286L14.8185 40.4864C14.8067 40.5941 14.8194 40.7032 14.8555 40.8049C14.8706 40.8402 14.8941 40.8709 14.924 40.894C14.9538 40.9172 14.9889 40.9319 15.0258 40.9369C15.0558 40.9434 15.0869 40.9432 15.1169 40.9364C15.1469 40.9295 15.1751 40.9161 15.1998 40.897C15.2244 40.8779 15.2448 40.8536 15.2597 40.8257C15.2746 40.7978 15.2836 40.767 15.2861 40.7352C15.2976 40.6295 15.2591 40.5214 15.1705 40.4107L14.8763 40.0419C14.8118 39.965 14.7607 39.877 14.7253 39.7818C14.6945 39.6859 14.6897 39.583 14.7112 39.4844C14.7209 39.4136 14.7443 39.3454 14.7801 39.2843C14.8159 39.2231 14.8634 39.1701 14.9195 39.1286C15.0392 39.0527 15.1828 39.0284 15.3195 39.061C15.3877 39.0696 15.4533 39.0938 15.5115 39.1318C15.5697 39.1699 15.619 39.2209 15.6559 39.2811C15.7286 39.4088 15.7591 39.5577 15.7429 39.7051L15.4736 39.7591C15.4815 39.6628 15.4702 39.5658 15.4403 39.4742C15.4274 39.4409 15.4061 39.4118 15.3786 39.3901C15.3511 39.3684 15.3184 39.3548 15.2841 39.3509C15.2571 39.3451 15.2292 39.3452 15.2023 39.3514C15.1754 39.3575 15.15 39.3695 15.1278 39.3866C15.1059 39.4036 15.0875 39.4251 15.0737 39.4497C15.0599 39.4744 15.051 39.5016 15.0476 39.5299C15.0413 39.571 15.0439 39.6131 15.0553 39.653C15.0666 39.693 15.0864 39.7298 15.1132 39.7608L15.4158 40.1658C15.4864 40.2534 15.5435 40.3519 15.5851 40.4578C15.6221 40.5626 15.6304 40.676 15.609 40.7854C15.5804 40.9606 15.5075 41.085 15.3913 41.1591C15.2611 41.2334 15.1093 41.2557 14.9643 41.2218Z" fill="#C93636"/>
<path d="M16.9414 41.4427L16.9628 38.4552L17.3549 38.4503L17.8897 40.8679L18.3751 38.4384L18.7672 38.4341L18.8536 41.419L18.5292 41.4227L18.4745 39.256L18.01 41.4325H17.7845L17.2768 39.2695L17.2695 41.4406L16.9414 41.4427Z" fill="#C93636"/>
<path d="M19.8477 41.3182C19.7914 41.3274 19.7338 41.3228 19.6795 41.3046C19.6252 41.2865 19.5758 41.2554 19.5352 41.2139C19.4442 41.1299 19.3854 41.0147 19.3696 40.8894C19.3549 40.7967 19.3579 40.7019 19.3785 40.6104C19.3941 40.5369 19.4184 40.4657 19.4508 40.3984C19.4932 40.3268 19.5486 40.2643 19.6138 40.2146C19.6736 40.1625 19.736 40.1137 19.8008 40.0686C19.8456 40.0383 19.9247 39.9891 20.0377 39.9199C20.0423 39.9161 20.0471 39.9128 20.0523 39.9101L20.031 39.7587C20.0231 39.6587 19.9952 39.5615 19.9492 39.4732C19.9143 39.4192 19.8555 39.3991 19.7732 39.4116C19.6316 39.4332 19.5748 39.5435 19.6024 39.7436L19.6175 39.8485L19.2431 39.8912C19.2399 39.8696 19.2373 39.8431 19.2352 39.8117C19.2168 39.5998 19.2516 39.4375 19.3394 39.3251C19.4274 39.2131 19.567 39.1434 19.756 39.1142C19.9451 39.085 20.1008 39.1185 20.2033 39.2164C20.3059 39.3143 20.3731 39.4754 20.4044 39.6987L20.5429 40.6629C20.5669 40.8321 20.6017 40.9996 20.647 41.1641L20.3039 41.2182C20.2677 41.1184 20.2364 41.0168 20.2101 40.9138C20.1956 41.0107 20.1566 41.1019 20.0971 41.1782C20.0346 41.2567 19.9452 41.3069 19.8477 41.3182ZM19.9492 40.957C20.001 40.9479 20.0482 40.9204 20.0825 40.8792C20.1185 40.8407 20.148 40.7963 20.17 40.7478L20.0862 40.1529C20.0021 40.2166 19.9228 40.2869 19.8492 40.3633C19.8042 40.4087 19.7701 40.4645 19.7496 40.5261C19.729 40.5877 19.7227 40.6534 19.731 40.718C19.7366 40.7887 19.7626 40.8559 19.8055 40.9111C19.8238 40.9307 19.8466 40.9451 19.8717 40.9532C19.8968 40.9612 19.9235 40.9625 19.9492 40.957Z" fill="#C93636"/>
<path d="M21.1294 41.0574L20.6445 38.9869L21.0143 38.8939L21.083 39.1897C21.1111 39.0776 21.1635 38.9736 21.2361 38.8858C21.2937 38.8221 21.3679 38.7772 21.4496 38.7565C21.4698 38.7511 21.4904 38.7471 21.5111 38.7446L21.61 39.168C21.5395 39.1584 21.4679 39.1621 21.3986 39.1788C21.3413 39.192 21.2884 39.221 21.2455 39.2627C21.1982 39.317 21.1637 39.382 21.1445 39.4525L21.4986 40.9665L21.1294 41.0574Z" fill="#C93636"/>
<path d="M22.3788 40.7176L21.4414 37.8928L21.8007 37.7646L22.3595 39.4512L22.5985 38.3924L22.974 38.2562L22.7782 39.2106L23.6276 40.2791L23.2698 40.4067L22.5647 39.502L22.4835 39.8227L22.7381 40.5911L22.3788 40.7176Z" fill="#C93636"/>
<path d="M24.4978 39.8987C24.4063 39.947 24.3064 39.9755 24.2041 39.9826C24.1203 39.9866 24.0374 39.9627 23.9676 39.9144C23.8923 39.8616 23.8271 39.7947 23.7755 39.7171C23.7077 39.6147 23.6491 39.5061 23.6005 39.3926L23.4016 38.9503C23.3488 38.8375 23.3063 38.7198 23.2745 38.5988C23.2511 38.5074 23.2444 38.4122 23.2547 38.3182C23.2656 38.2322 23.302 38.1518 23.3589 38.0883C23.4285 38.0132 23.5119 37.9532 23.6042 37.9121C23.663 37.8824 23.725 37.8602 23.789 37.8461C23.8403 37.8346 23.8929 37.8309 23.9453 37.8353C23.9934 37.8406 24.0399 37.8564 24.0817 37.8818C24.1248 37.9069 24.1647 37.9376 24.2004 37.9732C24.2413 38.015 24.2777 38.0612 24.3093 38.1111C24.346 38.1674 24.3798 38.2257 24.4108 38.2857C24.4415 38.3452 24.4749 38.4155 24.5118 38.4971L24.5806 38.655L23.8479 39.0114L23.964 39.2693L23.9739 39.2904L24.026 39.4104C24.0385 39.4364 24.0557 39.4694 24.078 39.5099C24.094 39.5411 24.1142 39.5697 24.1379 39.5948C24.1577 39.6132 24.1792 39.6295 24.202 39.6435C24.2257 39.6587 24.2534 39.6657 24.2811 39.6635C24.3132 39.6601 24.3444 39.6507 24.3733 39.6359C24.4048 39.6248 24.4325 39.6045 24.4531 39.5775C24.4737 39.5504 24.4863 39.5178 24.4894 39.4835C24.4862 39.3929 24.463 39.3043 24.4217 39.2244L24.3697 39.1071L24.7061 38.9449L24.7399 39.02C24.9284 39.4364 24.8477 39.7293 24.4978 39.8987ZM23.7604 38.8173L24.1546 38.6258L24.076 38.4512C24.053 38.4003 24.0327 38.3576 24.0145 38.3241C23.996 38.2906 23.9751 38.2586 23.952 38.2284C23.9339 38.2036 23.9113 38.1828 23.8854 38.1673C23.8618 38.1551 23.8356 38.1494 23.8093 38.1505C23.7771 38.1523 23.7456 38.1607 23.7166 38.1754C23.6349 38.2154 23.5943 38.2722 23.5958 38.3457C23.5974 38.4193 23.6359 38.5409 23.712 38.7107L23.7604 38.8173Z" fill="#C93636"/>
<path d="M25.9323 39.1117C25.7975 39.1928 25.6792 39.215 25.5787 39.1771C25.4782 39.1393 25.3855 39.0479 25.3012 38.903L24.6304 37.7004L24.444 37.8128L24.3169 37.5857L24.5002 37.4732L24.1992 36.9358L24.5278 36.7373L24.8283 37.2748L25.1137 37.1023L25.2408 37.33L24.9559 37.5019L25.6167 38.6813C25.6426 38.7382 25.6848 38.7855 25.7376 38.8164C25.7639 38.8236 25.7914 38.8244 25.818 38.8188C25.8446 38.8131 25.8697 38.8012 25.8912 38.784C25.9319 38.7596 25.971 38.7325 26.0084 38.7029L26.15 38.9549C26.0804 39.0115 26.0078 39.0638 25.9323 39.1117Z" fill="#C93636"/>
<path d="M27.6281 37.8795L25.3945 35.9328L25.6497 35.7046L27.2318 37.1241L26.183 35.2401L26.3986 35.0471L28.0436 36.4108L26.9162 34.5723L27.1651 34.3501L28.6941 36.9316L28.4727 37.1289L26.7792 35.723L27.8609 37.6724L27.6281 37.8795Z" fill="#C93636"/>
<path d="M29.7726 35.789C29.7073 35.871 29.6267 35.9385 29.5357 35.9874C29.4603 36.0258 29.3752 36.0385 29.2925 36.0237C29.2032 36.0062 29.1178 35.9719 29.0404 35.9225C28.939 35.8572 28.8435 35.7824 28.7551 35.6992L28.402 35.3748C28.3103 35.293 28.2263 35.2025 28.151 35.1044C28.0942 35.0304 28.0513 34.9461 28.0244 34.8557C28.0006 34.7726 28.0024 34.684 28.0296 34.6021C28.0646 34.5045 28.1177 34.415 28.1859 34.3387C28.2283 34.2871 28.2765 34.2409 28.3296 34.2014C28.3726 34.1695 28.4198 34.1442 28.4697 34.1262C28.5159 34.111 28.5647 34.106 28.6129 34.1116C28.6619 34.1173 28.7102 34.1289 28.7566 34.1462C28.8103 34.1676 28.8616 34.1948 28.9097 34.2273C28.9652 34.2636 29.0188 34.3029 29.0701 34.3452C29.1212 34.3867 29.1791 34.4373 29.2441 34.4972L29.368 34.6129L28.8342 35.2455L29.0425 35.4337L29.0592 35.4494L29.156 35.537C29.1774 35.5554 29.2081 35.5786 29.242 35.6057C29.2688 35.628 29.2987 35.6462 29.3305 35.6597C29.3556 35.6682 29.3814 35.6742 29.4076 35.6776C29.4351 35.6821 29.4632 35.6772 29.4878 35.6635C29.5158 35.6471 29.5407 35.6254 29.5612 35.5997C29.586 35.5766 29.6037 35.5465 29.6122 35.513C29.6206 35.4796 29.6193 35.4443 29.6086 35.4115C29.5713 35.3297 29.516 35.258 29.4472 35.2023L29.3534 35.1168L29.5987 34.8275L29.6586 34.8816C29.9901 35.1852 30.0282 35.4876 29.7726 35.789ZM28.679 35.1039L28.9665 34.7648L28.8274 34.6372C28.7868 34.5999 28.7514 34.5696 28.7233 34.5464C28.6943 34.5236 28.6635 34.5035 28.6311 34.4863C28.6049 34.4711 28.5761 34.4613 28.5462 34.4577C28.52 34.4564 28.4938 34.4619 28.4702 34.4739C28.4413 34.4889 28.4156 34.5099 28.3947 34.5355C28.3353 34.6058 28.3204 34.6745 28.3499 34.7416C28.3791 34.8086 28.4614 34.9038 28.5973 35.0276L28.679 35.1039Z" fill="#C93636"/>
<path d="M30.4411 34.8932L28.1367 33.1045L28.3653 32.7876L30.6697 34.5758L30.4411 34.8932Z" fill="#C93636"/>
<path d="M31.0281 34.0458L29.5445 33.0384L29.4091 33.2547L29.1721 33.0924L29.3075 32.8761L29.219 32.8221C29.1492 32.775 29.0919 32.7323 29.0466 32.6945C29.0016 32.6571 28.9609 32.6144 28.9253 32.5674C28.893 32.5267 28.8699 32.479 28.8576 32.4279C28.8479 32.3762 28.8499 32.3229 28.8633 32.2721C28.8808 32.2058 28.9087 32.1429 28.9461 32.0861C28.9925 32.0154 29.0427 31.9475 29.0966 31.8828L29.3351 32.045C29.2747 32.1186 29.244 32.1564 29.2435 32.1575C29.2258 32.1788 29.2144 32.2049 29.2107 32.2327C29.207 32.2605 29.2112 32.2889 29.2226 32.3143C29.261 32.3727 29.3115 32.4213 29.3705 32.4565L29.5143 32.5539L29.6861 32.2808L29.9231 32.443L29.7512 32.7161L31.2349 33.7219L31.0281 34.0458Z" fill="#C93636"/>
<path d="M31.7892 32.8076C31.7629 32.86 31.7252 32.9053 31.679 32.9399C31.6327 32.9744 31.5794 32.9973 31.5231 33.0066C31.4042 33.0324 31.2802 33.0132 31.1737 32.9525C31.0933 32.9094 31.0217 32.8507 30.9628 32.7794C30.915 32.7227 30.8743 32.6601 30.8415 32.5929C30.8111 32.5151 30.7953 32.4319 30.7951 32.3479C30.7904 32.2398 30.7899 32.1598 30.7951 32.1046C30.8003 32.0494 30.8071 31.9537 30.8201 31.8186C30.8201 31.8103 30.8201 31.8043 30.8201 31.8007L30.6899 31.7288C30.6077 31.676 30.5159 31.6414 30.4202 31.6271C30.3582 31.6271 30.3071 31.6617 30.2681 31.738C30.1987 31.8692 30.2507 31.9824 30.4243 32.0776L30.5144 32.1279L30.3249 32.4658C30.3068 32.4557 30.2849 32.4422 30.2592 32.4253C30.0836 32.315 29.9794 32.1897 29.9468 32.0494C29.9141 31.9092 29.9421 31.7511 30.0306 31.5752C30.1237 31.395 30.2386 31.2904 30.3754 31.2616C30.5122 31.2328 30.6765 31.2721 30.8685 31.3795L31.6971 31.838C31.8428 31.9179 31.9935 31.9878 32.148 32.0473L31.985 32.3652C31.8726 32.3314 31.7754 32.2973 31.6934 32.263C31.7601 32.3324 31.8078 32.419 31.8314 32.5139C31.8549 32.6138 31.8398 32.7192 31.7892 32.8076ZM31.5695 32.5085C31.5931 32.4582 31.599 32.4007 31.5861 32.3463C31.5767 32.2935 31.5591 32.2425 31.5341 32.1954L31.0211 31.911C31.0208 32.0196 31.0284 32.1281 31.044 32.2355C31.0525 32.3 31.0754 32.3617 31.1109 32.4154C31.1465 32.4691 31.1937 32.5134 31.2487 32.5448C31.3067 32.5822 31.3741 32.6011 31.4424 32.5988C31.4693 32.5965 31.4951 32.5869 31.5174 32.5711C31.5397 32.5552 31.5576 32.5337 31.5695 32.5085Z" fill="#C93636"/>
<path d="M32.3443 31.578L30.4492 30.7534L30.5966 30.389L30.8669 30.5069C30.7965 30.417 30.747 30.3115 30.7221 30.1986C30.7069 30.1127 30.716 30.0241 30.7481 29.9434C30.7561 29.9234 30.7652 29.904 30.7752 29.885L31.1627 30.0537C31.1133 30.107 31.0736 30.1691 31.0455 30.237C31.0216 30.2926 31.0128 30.354 31.02 30.4144C31.0338 30.4863 31.0636 30.5539 31.1069 30.6118L32.4927 31.2152L32.3443 31.578Z" fill="#C93636"/>
<path d="M33.0239 29.7941C32.9961 29.8965 32.9488 29.9921 32.8849 30.0753C32.831 30.1421 32.758 30.1894 32.6766 30.2105C32.5883 30.2326 32.4968 30.2373 32.4068 30.2245C32.2885 30.2072 32.1719 30.179 32.0584 30.1402L31.608 29.9915C31.4923 29.956 31.3802 29.9091 31.2731 29.8514C31.1923 29.8075 31.12 29.7483 31.0601 29.6768C31.0064 29.6108 30.9737 29.5292 30.9664 29.4432C30.9599 29.339 30.9737 29.2345 31.007 29.136C31.0255 29.071 31.0516 29.0085 31.0846 28.95C31.1117 28.9029 31.145 28.8599 31.1836 28.8224C31.2197 28.789 31.2623 28.7641 31.3085 28.7494C31.3557 28.7339 31.4045 28.7241 31.4538 28.7202C31.5113 28.7174 31.5689 28.7207 31.6257 28.7299C31.6908 28.7402 31.7548 28.7537 31.8178 28.77C31.8809 28.7862 31.9538 28.8089 32.0366 28.8359L32.1928 28.89L31.9496 29.6908L32.21 29.7763L32.2313 29.7838L32.3542 29.8228C32.3808 29.8309 32.4157 29.8401 32.4584 29.8498C32.4916 29.8585 32.5257 29.8623 32.5599 29.8612C32.5862 29.8579 32.6121 29.8525 32.6375 29.8449C32.6643 29.8371 32.6881 29.8207 32.7052 29.7979C32.7243 29.7711 32.7387 29.7411 32.7479 29.7092C32.7614 29.6775 32.7657 29.6425 32.7603 29.6083C32.7549 29.5741 32.7401 29.5423 32.7177 29.5167C32.6515 29.458 32.5731 29.416 32.4886 29.394L32.3693 29.355L32.4808 28.9868L32.5568 29.0117C32.9842 29.1497 33.1399 29.4105 33.0239 29.7941ZM31.7569 29.6276L31.8876 29.195L31.7106 29.1371C31.6585 29.1198 31.6147 29.1074 31.5788 29.0987C31.5434 29.0898 31.5074 29.0842 31.471 29.082C31.4411 29.0789 31.411 29.0824 31.3825 29.0922C31.3579 29.1015 31.3362 29.1173 31.3195 29.1382C31.2985 29.1639 31.283 29.1939 31.2742 29.2263C31.2471 29.3161 31.2601 29.3853 31.3132 29.434C31.3663 29.4826 31.479 29.5351 31.6512 29.5913L31.7569 29.6276Z" fill="#C93636"/>
<path d="M33.5314 27.4329L30.9796 27.0425L30.9026 27.5832L30.6094 27.5383L30.8177 26.0659L31.1114 26.1108L31.0374 26.6304L33.5892 27.0214L33.5314 27.4329Z" fill="#C93636"/>
<path d="M33.6792 26.1359L31.6289 26.0018L31.6529 25.6076L31.9455 25.627C31.8508 25.5658 31.7709 25.483 31.7117 25.3848C31.6701 25.3089 31.6505 25.2221 31.6555 25.135C31.6566 25.1132 31.659 25.0915 31.6628 25.0701L32.082 25.0976C32.0521 25.1658 32.0344 25.2392 32.0299 25.3139C32.0252 25.3744 32.0362 25.4351 32.0617 25.4897C32.0972 25.553 32.1466 25.6067 32.2059 25.6465L33.7041 25.7449L33.6792 26.1359Z" fill="#C93636"/>
<path d="M33.7596 24.5203C33.7628 24.5746 33.7521 24.6287 33.7284 24.6772C33.7066 24.7206 33.6731 24.7564 33.632 24.7804C33.5909 24.8047 33.5468 24.8229 33.5008 24.8345C33.4514 24.8463 33.401 24.8529 33.3503 24.854L31.6891 24.9118L31.676 24.5176L33.2269 24.4636C33.2874 24.4656 33.3474 24.451 33.4008 24.4214C33.4202 24.4056 33.4352 24.3848 33.4444 24.3611C33.4535 24.3373 33.4565 24.3115 33.4529 24.2862C33.4505 24.2069 33.4051 24.1168 33.317 24.0158L31.6609 24.0721L31.6484 23.6779L33.7013 23.606L33.7143 24.0007L33.5112 24.0077C33.6713 24.1707 33.7541 24.3415 33.7596 24.5203Z" fill="#C93636"/>
<path d="M33.6164 22.5399C33.6295 22.616 33.6272 22.6942 33.6097 22.7694C33.5922 22.8446 33.5599 22.9152 33.5148 22.9768C33.415 23.1025 33.2755 23.1873 33.1211 23.2163L32.9842 22.9027C33.0865 22.8822 33.1829 22.837 33.2654 22.7708C33.2935 22.7454 33.3147 22.7128 33.3271 22.6763C33.3394 22.6398 33.3424 22.6006 33.3357 22.5626C33.333 22.5305 33.3238 22.4995 33.3086 22.4715C33.2934 22.4435 33.2725 22.4192 33.2475 22.4002C33.2225 22.3813 33.1938 22.3682 33.1635 22.3618C33.1331 22.3554 33.1018 22.3558 33.0716 22.3631C32.9717 22.3836 32.884 22.4541 32.8087 22.5745L32.5576 22.9768C32.5065 23.0638 32.4409 23.1407 32.3639 23.2039C32.2849 23.2632 32.1918 23.2989 32.0947 23.3072C32.0266 23.3188 31.957 23.3159 31.89 23.2987C31.8231 23.2815 31.7602 23.2504 31.7052 23.2071C31.5991 23.1106 31.5339 22.9747 31.5234 22.8286C31.5109 22.7584 31.5135 22.6863 31.5311 22.6173C31.5486 22.5483 31.5807 22.4842 31.625 22.4296C31.7207 22.3189 31.8488 22.2441 31.9895 22.2165L32.1186 22.4669C32.0275 22.4879 31.9416 22.5286 31.8666 22.5864C31.84 22.6087 31.8198 22.6381 31.808 22.6714C31.7961 22.7047 31.7932 22.7407 31.7994 22.7756C31.8021 22.8043 31.8107 22.8321 31.8245 22.857C31.8383 22.882 31.8571 22.9037 31.8796 22.9206C31.9019 22.9374 31.9272 22.9494 31.9541 22.9557C31.9809 22.962 32.0088 22.9626 32.0358 22.9573C32.0755 22.951 32.1134 22.9357 32.1467 22.9124C32.18 22.8892 32.208 22.8585 32.2285 22.8227L32.5103 22.4014C32.5694 22.3053 32.6427 22.2194 32.7274 22.1468C32.8129 22.0788 32.9146 22.0365 33.0216 22.0246C33.1914 22.0008 33.3273 22.0359 33.4299 22.1284C33.5392 22.2367 33.6056 22.3834 33.6164 22.5399Z" fill="#C93636"/>
<path d="M33.3392 20.9706C33.374 21.1293 33.3583 21.2526 33.2924 21.3405C33.2273 21.4287 33.1148 21.4925 32.9565 21.5314L31.6488 21.8326L31.6952 22.0489L31.4478 22.1057L31.4015 21.8894L30.8167 22.024L30.7344 21.6385L31.3187 21.5038L31.2473 21.1696L31.4947 21.1156L31.566 21.4497L32.8487 21.154C32.9089 21.146 32.9652 21.1186 33.0096 21.0756C33.0241 21.0516 33.0331 21.0246 33.036 20.9964C33.0389 20.9683 33.0356 20.9399 33.0263 20.9133C33.0168 20.8655 33.0039 20.8185 32.9877 20.7727L33.2616 20.7095C33.2929 20.7947 33.3188 20.882 33.3392 20.9706Z" fill="#C93636"/>
</svg>
