<svg width="122" height="15" viewBox="0 0 122 15" fill="none" xmlns="http://www.w3.org/2000/svg">
<path d="M23.708 12.096C25.928 12.096 26.96 10.992 26.96 9.708C26.96 6.624 21.872 7.908 21.872 5.856C21.872 5.124 22.484 4.524 23.912 4.524C24.656 4.524 25.484 4.74 26.216 5.208L26.612 4.248C25.916 3.768 24.896 3.504 23.912 3.504C21.704 3.504 20.696 4.608 20.696 5.904C20.696 9.024 25.784 7.728 25.784 9.78C25.784 10.512 25.16 11.076 23.708 11.076C22.628 11.076 21.56 10.668 20.936 10.104L20.492 11.04C21.164 11.664 22.424 12.096 23.708 12.096ZM34.2931 8.856C34.2931 6.9 32.9851 5.58 31.1491 5.58C29.3131 5.58 27.9571 6.936 27.9571 8.82C27.9571 10.716 29.3251 12.072 31.3771 12.072C32.4331 12.072 33.3091 11.712 33.8851 11.04L33.2491 10.296C32.7811 10.812 32.1571 11.064 31.4131 11.064C30.1531 11.064 29.2531 10.32 29.1091 9.204H34.2691C34.2811 9.096 34.2931 8.952 34.2931 8.856ZM31.1491 6.552C32.2651 6.552 33.0691 7.308 33.1891 8.376H29.1091C29.2291 7.296 30.0451 6.552 31.1491 6.552ZM41.6408 8.856C41.6408 6.9 40.3328 5.58 38.4968 5.58C36.6608 5.58 35.3048 6.936 35.3048 8.82C35.3048 10.716 36.6728 12.072 38.7248 12.072C39.7808 12.072 40.6568 11.712 41.2328 11.04L40.5968 10.296C40.1288 10.812 39.5048 11.064 38.7608 11.064C37.5008 11.064 36.6008 10.32 36.4568 9.204H41.6168C41.6288 9.096 41.6408 8.952 41.6408 8.856ZM38.4968 6.552C39.6128 6.552 40.4168 7.308 40.5368 8.376H36.4568C36.5768 7.296 37.3928 6.552 38.4968 6.552ZM55.5711 12L55.5591 3.6H54.5751L51.1191 9.504L47.6151 3.6H46.6311V12H47.7831V5.916L50.8191 10.98H51.3711L54.4071 5.88L54.4191 12H55.5711ZM60.648 12.072C62.556 12.072 63.948 10.716 63.948 8.82C63.948 6.924 62.556 5.58 60.648 5.58C58.74 5.58 57.336 6.924 57.336 8.82C57.336 10.716 58.74 12.072 60.648 12.072ZM60.648 11.064C59.424 11.064 58.5 10.176 58.5 8.82C58.5 7.464 59.424 6.588 60.648 6.588C61.872 6.588 62.784 7.464 62.784 8.82C62.784 10.176 61.872 11.064 60.648 11.064ZM66.6452 6.708V5.64H65.5412V12H66.6932V8.832C66.6932 7.44 67.4612 6.684 68.6972 6.684C68.7812 6.684 68.8652 6.684 68.9612 6.696V5.58C67.8452 5.58 67.0532 5.964 66.6452 6.708ZM76.0705 8.856C76.0705 6.9 74.7625 5.58 72.9265 5.58C71.0905 5.58 69.7345 6.936 69.7345 8.82C69.7345 10.716 71.1025 12.072 73.1545 12.072C74.2105 12.072 75.0865 11.712 75.6625 11.04L75.0265 10.296C74.5585 10.812 73.9345 11.064 73.1905 11.064C71.9305 11.064 71.0305 10.32 70.8865 9.204H76.0465C76.0585 9.096 76.0705 8.952 76.0705 8.856ZM72.9265 6.552C74.0425 6.552 74.8465 7.308 74.9665 8.376H70.8865C71.0065 7.296 71.8225 6.552 72.9265 6.552ZM81.0608 12H84.6008C87.3008 12 89.1368 10.296 89.1368 7.8C89.1368 5.304 87.3008 3.6 84.6008 3.6H81.0608V12ZM82.2608 10.956V4.644H84.5288C86.6048 4.644 87.9368 5.916 87.9368 7.8C87.9368 9.684 86.6048 10.956 84.5288 10.956H82.2608ZM96.5548 8.856C96.5548 6.9 95.2468 5.58 93.4108 5.58C91.5748 5.58 90.2188 6.936 90.2188 8.82C90.2188 10.716 91.5868 12.072 93.6388 12.072C94.6948 12.072 95.5708 11.712 96.1468 11.04L95.5108 10.296C95.0428 10.812 94.4188 11.064 93.6748 11.064C92.4148 11.064 91.5148 10.32 91.3708 9.204H96.5308C96.5428 9.096 96.5548 8.952 96.5548 8.856ZM93.4108 6.552C94.5268 6.552 95.3308 7.308 95.4508 8.376H91.3708C91.4908 7.296 92.3068 6.552 93.4108 6.552ZM101.371 10.8C101.131 10.992 100.807 11.1 100.471 11.1C99.8345 11.1 99.4745 10.716 99.4745 10.032V6.588H101.299V5.64H99.4745V4.248H98.3225V5.64H97.2425V6.588H98.3225V10.08C98.3225 11.364 99.0545 12.072 100.339 12.072C100.855 12.072 101.383 11.928 101.731 11.628L101.371 10.8ZM105.439 5.58C104.419 5.58 103.471 5.868 102.811 6.396L103.291 7.26C103.783 6.84 104.551 6.576 105.307 6.576C106.447 6.576 107.011 7.14 107.011 8.112V8.34H105.187C103.291 8.34 102.631 9.18 102.631 10.2C102.631 11.304 103.543 12.072 104.983 12.072C105.979 12.072 106.687 11.736 107.071 11.16V12H108.163V8.16C108.163 6.42 107.179 5.58 105.439 5.58ZM105.175 11.184C104.299 11.184 103.771 10.788 103.771 10.152C103.771 9.612 104.095 9.168 105.235 9.168H107.011V10.056C106.723 10.788 106.039 11.184 105.175 11.184ZM110.871 4.416C111.327 4.416 111.651 4.08 111.651 3.648C111.651 3.24 111.315 2.916 110.871 2.916C110.427 2.916 110.091 3.252 110.091 3.672C110.091 4.092 110.427 4.416 110.871 4.416ZM110.295 12H111.447V5.64H110.295V12ZM113.647 12H114.799V3.096H113.647V12ZM118.822 12.072C120.514 12.072 121.57 11.34 121.57 10.188C121.57 7.716 117.538 8.94 117.538 7.44C117.538 6.936 118.03 6.564 119.038 6.564C119.662 6.564 120.298 6.696 120.874 7.068L121.366 6.156C120.814 5.796 119.878 5.58 119.05 5.58C117.418 5.58 116.398 6.348 116.398 7.488C116.398 10.02 120.418 8.784 120.418 10.212C120.418 10.752 119.974 11.076 118.906 11.076C118.078 11.076 117.214 10.8 116.674 10.416L116.194 11.328C116.722 11.748 117.766 12.072 118.822 12.072Z" fill="#721B65"/>
<g clip-path="url(#clip0)">
<path d="M11.1 4.3C10.9 4.1 10.6 4 10.3 4C10 4 9.7 4.1 9.5 4.3L5.7 8.3L5.5 8.1L1.8 4.3C1.7 4.1 1.4 4 1.1 4C0.8 4 0.5 4.1 0.3 4.3C-0.1 4.7 -0.1 5.5 0.3 5.9L4.9 10.7C5.3 11.1 6 11.1 6.4 10.7L11 5.9C11.5 5.5 11.5 4.8 11.1 4.3Z" fill="#721B65"/>
</g>
<defs>
<clipPath id="clip0">
<rect width="11.4" height="7" fill="white" transform="translate(0 4)"/>
</clipPath>
</defs>
</svg>
