<svg width="62" height="69" viewBox="0 0 62 69" fill="none" xmlns="http://www.w3.org/2000/svg">
<g filter="url(#filter0_d)">
<path d="M9.64994 29.1211H9.91161V39.5491H9.64994C7.78946 39.5491 6.28125 37.9988 6.28125 36.0864V32.5838C6.28125 30.6714 7.78946 29.1211 9.64994 29.1211Z" fill="#8F4F86"/>
<path d="M9.77166 29.1172V39.5452C9.77166 39.5452 7.24274 37.4879 7.96601 36.1868C8.19807 35.7694 8.29825 35.3458 8.31114 34.9364C8.36863 33.1105 8.07311 30.9683 9.29255 29.6393L9.77166 29.1172Z" fill="#A1709A"/>
<path d="M9.64844 30.2513C9.64844 24.5142 14.1731 19.8633 19.7545 19.8633H41.5321C47.1135 19.8633 51.6382 24.5142 51.6382 30.2513V40.2952C51.6382 46.0324 47.1135 50.6832 41.5321 50.6832H31.4555C30.9197 50.6832 30.3896 50.7959 29.8976 51.0142L14.3524 57.9132C12.1285 58.9002 9.64844 57.2241 9.64844 54.7342V30.2513Z" fill="#721B65"/>
<path d="M12.457 35.1849C12.457 29.4478 16.9817 24.7969 22.5631 24.7969H27.6161C33.1975 24.7969 37.7222 29.4478 37.7222 35.1849V36.8832C37.7222 40.8668 35.5059 44.4996 32.0172 46.2345L17.2927 53.5564C15.0557 54.6688 12.457 52.9937 12.457 50.4393V35.1849Z" fill="#853779"/>
<path d="M51.7617 29.1172H51.5V39.5452H51.7617C53.6221 39.5452 55.1304 37.9949 55.1304 36.0825V32.5799C55.1304 30.6675 53.6221 29.1172 51.7617 29.1172Z" fill="#8F4F86"/>
<path d="M51.4785 39.8342V29.4062C51.4785 29.4062 54.0074 31.4636 53.2842 32.7646C53.0521 33.182 52.9519 33.6056 52.939 34.015C52.8816 35.8409 53.1771 37.9832 51.9576 39.3121L51.4785 39.8342Z" fill="#A1709A"/>
<path d="M22.7168 19.8623C22.7168 18.2168 24.0145 16.8828 25.6153 16.8828H35.7918C37.3927 16.8828 38.6904 18.2168 38.6904 19.8623H22.7168Z" fill="#B287AC"/>
<path d="M22.7168 19.8622C22.7168 18.2167 24.0145 16.8828 25.6153 16.8828H33.1857C33.9861 16.8828 34.635 17.5498 34.635 18.3725C34.635 19.1953 33.9861 19.8622 33.1857 19.8622H22.7168Z" fill="#8F4F86"/>
<path d="M23.9668 19.891V19.2778C23.9668 18.5009 24.5795 17.8711 25.3353 17.8711L26.6337 17.8711C27.1763 17.8711 27.6162 18.3233 27.6162 18.881C27.6162 19.4388 27.1763 19.891 26.6337 19.891H23.9668Z" fill="#A1709A"/>
<path d="M14.5488 28.621C14.5488 27.346 15.5543 26.3125 16.7946 26.3125H44.4952C45.7355 26.3125 46.741 27.346 46.741 28.621V43.3561C46.741 44.631 45.7355 45.6646 44.4952 45.6646H16.7946C15.5543 45.6646 14.5488 44.631 14.5488 43.3561V28.621Z" fill="#8F4F86"/>
<path d="M14.5488 28.621C14.5488 27.346 15.5543 26.3125 16.7946 26.3125H29.4748C30.3161 26.3125 31.0869 26.7959 31.4718 27.565L38.8462 42.3001C39.615 43.8364 38.5299 45.6646 36.8491 45.6646H16.7946C15.5543 45.6646 14.5488 44.631 14.5488 43.3561V28.621Z" fill="#A2709A"/>
<path d="M14.5469 27.2147C14.5469 25.9398 15.5523 24.9062 16.7927 24.9062H44.4932C45.7335 24.9062 46.739 25.9398 46.739 27.2147V40.5164C46.739 41.7913 45.7335 42.8248 44.4932 42.8248H16.7927C15.5523 42.8248 14.5469 41.7913 14.5469 40.5164V27.2147Z" fill="white"/>
<g filter="url(#filter1_i)">
<path d="M29.2424 32.7634C29.2424 34.7426 27.6758 36.3471 25.7433 36.3471C23.8108 36.3471 22.2441 34.7426 22.2441 32.7634C22.2441 30.7842 23.8108 29.1797 25.7433 29.1797C27.6758 29.1797 29.2424 30.7842 29.2424 32.7634Z" fill="#141851"/>
</g>
<path d="M27.2817 32.3358C27.2817 33.1275 26.6551 33.7693 25.8821 33.7693C25.1091 33.7693 24.4824 33.1275 24.4824 32.3358C24.4824 31.5441 25.1091 30.9023 25.8821 30.9023C26.6551 30.9023 27.2817 31.5441 27.2817 32.3358Z" fill="#E4F2FF"/>
<g filter="url(#filter2_i)">
<path d="M39.0432 32.7634C39.0432 34.7426 37.4766 36.3471 35.5441 36.3471C33.6115 36.3471 32.0449 34.7426 32.0449 32.7634C32.0449 30.7842 33.6115 29.1797 35.5441 29.1797C37.4766 29.1797 39.0432 30.7842 39.0432 32.7634Z" fill="#141851"/>
</g>
<path fill-rule="evenodd" clip-rule="evenodd" d="M32.108 10.1914V16.8951H29.3008V10.1914H32.108Z" fill="#721B65"/>
<path d="M34.8901 6.87858C34.8901 9.25366 33.0102 11.179 30.6912 11.179C28.3721 11.179 26.4922 9.25366 26.4922 6.87858C26.4922 4.50351 28.3721 2.57812 30.6912 2.57812C33.0102 2.57812 34.8901 4.50351 34.8901 6.87858Z" fill="#B255A4"/>
<path d="M28.496 4.81978C27.2901 6.05936 29.4292 5.3709 30.5803 6.55413C31.7314 7.73736 30.7788 8.39049 32.6645 9.10464C33.8705 7.86506 33.9149 5.90099 32.7638 4.71776C31.6127 3.53453 29.7019 3.58021 28.496 4.81978Z" fill="#E4F2FF"/>
<path d="M37.0786 32.3358C37.0786 33.1275 36.452 33.7693 35.6789 33.7693C34.9059 33.7693 34.2793 33.1275 34.2793 32.3358C34.2793 31.5441 34.9059 30.9023 35.6789 30.9023C36.452 30.9023 37.0786 31.5441 37.0786 32.3358Z" fill="#E4F2FF"/>
</g>
<defs>
<filter id="filter0_d" x="0" y="0" width="61.4074" height="70" filterUnits="userSpaceOnUse" color-interpolation-filters="sRGB">
<feFlood flood-opacity="0" result="BackgroundImageFix"/>
<feColorMatrix in="SourceAlpha" type="matrix" values="0 0 0 0 0 0 0 0 0 0 0 0 0 0 0 0 0 0 127 0"/>
<feOffset dy="4"/>
<feGaussianBlur stdDeviation="3"/>
<feColorMatrix type="matrix" values="0 0 0 0 0 0 0 0 0 0 0 0 0 0 0 0 0 0 0.1 0"/>
<feBlend mode="normal" in2="BackgroundImageFix" result="effect1_dropShadow"/>
<feBlend mode="normal" in="SourceGraphic" in2="effect1_dropShadow" result="shape"/>
</filter>
<filter id="filter1_i" x="22.2441" y="29.1797" width="6.99829" height="7.16743" filterUnits="userSpaceOnUse" color-interpolation-filters="sRGB">
<feFlood flood-opacity="0" result="BackgroundImageFix"/>
<feBlend mode="normal" in="SourceGraphic" in2="BackgroundImageFix" result="shape"/>
<feColorMatrix in="SourceAlpha" type="matrix" values="0 0 0 0 0 0 0 0 0 0 0 0 0 0 0 0 0 0 127 0" result="hardAlpha"/>
<feOffset dx="2" dy="-3"/>
<feComposite in2="hardAlpha" operator="arithmetic" k2="-1" k3="1"/>
<feColorMatrix type="matrix" values="0 0 0 0 0.059809 0 0 0 0 0.0736467 0 0 0 0 0.270833 0 0 0 1 0"/>
<feBlend mode="normal" in2="shape" result="effect1_innerShadow"/>
</filter>
<filter id="filter2_i" x="32.0449" y="26.1797" width="8.99831" height="10.1674" filterUnits="userSpaceOnUse" color-interpolation-filters="sRGB">
<feFlood flood-opacity="0" result="BackgroundImageFix"/>
<feBlend mode="normal" in="SourceGraphic" in2="BackgroundImageFix" result="shape"/>
<feColorMatrix in="SourceAlpha" type="matrix" values="0 0 0 0 0 0 0 0 0 0 0 0 0 0 0 0 0 0 127 0" result="hardAlpha"/>
<feOffset dx="2" dy="-3"/>
<feGaussianBlur stdDeviation="2"/>
<feComposite in2="hardAlpha" operator="arithmetic" k2="-1" k3="1"/>
<feColorMatrix type="matrix" values="0 0 0 0 0.0588235 0 0 0 0 0.0745098 0 0 0 0 0.270588 0 0 0 1 0"/>
<feBlend mode="normal" in2="shape" result="effect1_innerShadow"/>
</filter>
</defs>
</svg>
