<svg width="346" height="200" viewBox="0 0 346 200" fill="none" xmlns="http://www.w3.org/2000/svg">
<path opacity="0.52" d="M172.939 199.999C268.451 199.999 345.878 191.551 345.878 181.129C345.878 170.707 268.451 162.258 172.939 162.258C77.4275 162.258 0 170.707 0 181.129C0 191.551 77.4275 199.999 172.939 199.999Z" fill="#F1E8F0"/>
<path d="M320.667 0H123.936V133.135H320.667V0Z" fill="#F1E8F0"/>
<path opacity="0.5" d="M267.769 17.5312H137.902V101.93H267.769V17.5312Z" fill="#721B65"/>
<path d="M261.528 11.5898H131.662V95.9882H261.528V11.5898Z" fill="#721B65"/>
<path d="M313.534 16.9375H276.387V25.5556H313.534V16.9375Z" fill="#B6B9C1"/>
<path d="M313.534 30.9062H276.387V39.5243H313.534V30.9062Z" fill="#B6B9C1"/>
<path d="M313.534 44.875H276.387V53.493H313.534V44.875Z" fill="#B6B9C1"/>
<path d="M313.534 72.8086H276.387V81.4267H313.534V72.8086Z" fill="#B6B9C1"/>
<path d="M265.392 116.492H156.328V121.544H265.392V116.492Z" fill="#B6B9C1"/>
<path d="M196.594 79.345C210.709 79.345 222.152 67.9026 222.152 53.7877C222.152 39.6728 210.709 28.2305 196.594 28.2305C182.479 28.2305 171.037 39.6728 171.037 53.7877C171.037 67.9026 182.479 79.345 196.594 79.345Z" fill="white"/>
<path d="M182.775 51.9086L195.354 64.4869L223.786 36.0547" stroke="#2DBE60" stroke-width="8" stroke-miterlimit="10"/>
<path d="M26.1641 94.2045L85.3023 92.7188C85.3023 92.7188 87.0853 147.399 107.293 146.508C127.501 145.616 132.553 135.809 132.553 135.809L136.714 147.399C136.714 147.399 116.506 180.386 83.2222 170.876C49.9383 161.366 42.2118 151.857 26.1641 94.2045Z" fill="#721B65"/>
<path d="M215.91 177.02C216.315 179.529 216.347 182.117 215.807 184.497C218.19 185.396 220.313 186.06 221.07 185.911C223.132 185.507 223.398 167.639 222.697 165.592C222.043 163.685 217.689 175.149 215.91 177.02Z" fill="#0B4870"/>
<path d="M215.91 177.019C215.781 177.156 215.664 177.243 215.564 177.268C214.096 177.642 207.1 172.762 207.1 172.762L206.814 180.697C206.814 180.697 211.698 182.947 215.807 184.496C216.347 182.116 216.315 179.529 215.91 177.019Z" fill="#FFE3CA"/>
<path d="M86.7882 107.575C86.7882 107.575 101.35 133.132 103.727 137.293C106.105 141.453 100.756 142.345 100.756 142.345L95.1091 142.048L85.8965 118.571L86.788 106.684" fill="#FFE3CA"/>
<path d="M69.5511 95.3932C70.27 96.256 71.268 96.6295 72.3417 96.7875C82.7339 94.2668 76.9805 73.6992 76.9805 73.6992L59.7441 76.0767L60.6356 91.2327C60.6356 91.2327 61.2388 93.3844 63.2449 95.0931L62.4188 98.9593L74.3058 105.497L72.607 98.1305C71.4327 97.4695 70.3957 96.5757 69.5511 95.3932Z" fill="#FFE3CA"/>
<path d="M72.3432 96.7862C71.2695 96.6283 68.4885 95.0659 67.7695 94.2031C68.9582 96.5806 70.4442 98.0664 72.6085 98.129L72.3014 96.7976C72.3158 96.794 72.3288 96.7896 72.3432 96.7862Z" fill="#FCD2B1"/>
<path d="M63.0149 98.3633C63.0149 98.3633 54.0997 102.227 52.9108 107.873C51.7222 113.519 60.0431 130.161 68.0668 137.294C76.0906 144.426 76.6849 150.964 76.6849 150.964L96.2985 139.374C96.2985 139.374 90.6521 126.298 88.5719 119.76C86.4916 113.222 90.9494 104.604 72.8216 98.9578C72.8216 98.9578 73.8236 102.615 72.8216 102.524C65.5029 101.862 63.0149 98.3633 63.0149 98.3633Z" fill="#2A94F4"/>
<path d="M98.9726 140.266C98.9726 140.266 160.488 146.506 176.536 153.639C192.583 160.771 212.197 173.847 212.197 173.847L207.74 181.573C207.74 181.573 169.404 164.931 164.946 164.337C160.488 163.743 100.756 164.634 94.8122 162.851C88.8686 161.068 98.9726 140.266 98.9726 140.266Z" fill="#0B4870"/>
<path d="M74.25 99.825C74.25 99.825 78.7646 96.8785 83.2222 100.742C87.6798 104.605 89.463 109.063 89.463 109.063L83.5193 112.035L74.25 99.825Z" fill="#2A94F4"/>
<path d="M54.9902 121.543C54.9902 121.543 71.0008 147.82 78.4671 145.02C92.7317 139.671 116.209 121.543 116.209 121.543L112.048 117.383C112.048 117.383 81.7361 135.51 78.7643 135.213C75.7925 134.916 62.1223 113.816 62.1223 113.816L54.9902 121.543Z" fill="#FFE3CA"/>
<path d="M120.303 184.607C117.776 184.882 115.191 184.78 112.841 184.117C111.82 186.451 111.048 188.537 111.157 189.301C111.454 191.381 129.285 192.57 131.365 191.975C133.304 191.422 122.08 186.48 120.303 184.607Z" fill="#0B4870"/>
<path d="M120.304 184.606C120.174 184.469 120.093 184.348 120.073 184.247C119.775 182.762 125.011 176.028 125.011 176.028L117.101 175.332C117.101 175.332 114.602 180.093 112.842 184.116C115.191 184.779 117.777 184.881 120.304 184.606Z" fill="#FFE3CA"/>
<path d="M50.2366 112.926C50.2366 112.926 49.9458 105.231 53.3601 103.581C56.7744 101.931 61.5293 106.983 65.987 115.304C65.987 115.304 55.2886 122.733 54.6942 122.733C54.0999 122.733 50.2366 117.087 50.2366 112.926Z" fill="#2A94F4"/>
<path d="M113.237 106.535L106.301 129.886L133.742 126.446L141.469 106.832L113.237 106.535Z" fill="#721B65"/>
<path d="M76.6836 150.963C76.6836 150.963 87.9763 169.091 98.9719 162.851C109.967 156.61 131.959 139.968 131.959 139.968L114.128 177.115L123.935 178.304C123.935 178.304 162.865 123.623 148.303 119.165C133.742 114.708 95.4692 139.696 92.7629 139.683C90.0566 139.671 76.6836 150.963 76.6836 150.963Z" fill="#0E538C"/>
<path d="M110.974 115.1L109.457 119.197C109.457 119.197 113.535 117.977 115.318 116.491C117.101 115.005 119.181 112.33 120.073 112.925C120.964 113.519 119.478 117.085 118.884 119.165C118.29 121.246 105.359 129.516 105.359 129.516C105.359 129.516 106.333 116.681 110.974 115.1Z" fill="#FFE3CA"/>
<path d="M64.2413 76.8539C64.2413 76.8539 65.6893 84.6944 64.2033 83.5055C62.9537 82.5058 59.9986 82.4179 61.358 84.7448C62.7175 87.0716 63.609 86.4773 63.609 86.4773C63.609 86.4773 66.5808 95.3925 64.3931 100.072C62.8411 103.391 66.2836 107.577 63.0147 107.577C59.7457 107.577 55.1362 103.562 55.1362 103.562C55.1362 103.562 51.0201 106.711 51.7219 113.223C52.4238 119.736 41.915 119.167 43.6982 114.412C45.4812 109.657 46.0757 109.063 44.8868 102.822C43.6982 96.5812 49.3445 96.284 51.1276 91.5292C52.9106 86.7745 50.8305 86.1801 51.1276 81.7223C51.4248 77.2647 56.1796 73.4014 59.4485 74.2929C59.4485 74.2929 64.2033 66.2692 70.1469 66.8635C76.0905 67.4578 80.5481 71.6183 80.5481 74.2929C80.5481 77.5075 69.0342 79.4146 64.2413 76.8539Z" fill="#0B4870"/>
<path d="M53.5404 154.138L40.166 172.859L40.6808 173.227L54.0552 154.506L53.5404 154.138Z" fill="#721B65" stroke="#721B65" stroke-width="7" stroke-miterlimit="10"/>
<g opacity="0.5">
<path opacity="0.5" d="M289.915 141.792C282.658 141.342 276.507 135.131 276.459 129.894C276.42 125.568 280.567 124.444 280.708 118.987C280.83 114.274 277.785 113.228 278.301 109.214C278.842 104.999 282.97 100.158 287.932 100.148C293.635 100.137 297.517 106.513 297.847 111.622C298.072 115.094 295.948 115.574 296.006 118.845C296.124 125.538 304.479 127.444 304.363 132.443C304.257 137.032 297.059 142.234 289.915 141.792Z" fill="#721B65"/>
</g>
<path d="M289.85 107.23H289.428V145.332H289.85V107.23Z" fill="#B6B9C1"/>
<path d="M289.583 120.456C286.057 120.219 285.568 115.046 285.549 114.826L285.969 114.789C285.973 114.839 286.446 119.822 289.611 120.035L289.583 120.456Z" fill="#B6B9C1"/>
<path d="M284.513 145.051H294.611C295.601 145.051 296.388 145.881 296.334 146.869L294.959 172.377C294.911 173.267 294.194 173.973 293.305 174.009L285.953 174.303C285.01 174.34 284.211 173.613 284.161 172.67L282.79 146.868C282.737 145.88 283.524 145.051 284.513 145.051Z" fill="#721B65"/>
<path d="M289.581 133.773C287.059 133.603 286.711 129.928 286.697 129.771L287.117 129.734C287.121 129.769 287.447 133.206 289.61 133.352L289.581 133.773Z" fill="#B6B9C1"/>
<path d="M289.452 128.247L289.432 127.826C292.388 127.683 292.819 124.377 292.823 124.344L293.242 124.394C293.238 124.431 292.76 128.087 289.452 128.247Z" fill="#B6B9C1"/>
<path d="M289.593 138.02L289.572 137.599C291.657 137.498 291.961 135.226 291.972 135.129L292.391 135.18C292.388 135.207 292.036 137.902 289.593 138.02Z" fill="#B6B9C1"/>
</svg>
