<svg width="34" height="34" viewBox="0 0 34 34" fill="none" xmlns="http://www.w3.org/2000/svg">
<path d="M16.9852 33.4187C25.8733 33.4187 33.0758 26.2166 33.0758 17.329C33.0758 8.44132 25.8733 1.23926 16.9852 1.23926C8.097 1.23926 0.894531 8.44132 0.894531 17.329C0.894531 26.2166 8.097 33.4187 16.9852 33.4187Z" stroke="white" stroke-width="0.75" stroke-miterlimit="10"/>
<path d="M23.6 14.6318C23.6 14.023 23.4466 13.5664 23.2165 12.9577C23.0631 12.5011 22.7562 12.1206 22.3727 11.8162C21.9892 11.5118 21.6823 11.2074 21.2221 10.9791C20.7618 10.7508 20.1482 10.5986 19.5345 10.5986C18.8442 10.5986 18.614 10.5986 16.9265 10.5986C15.1622 10.5986 15.0088 10.5986 14.3184 10.5986C13.7048 10.5986 13.2445 10.7508 12.6309 10.9791C12.1706 11.1313 11.7871 11.4357 11.4803 11.8162C11.0967 12.1967 10.8666 12.5011 10.6365 12.9577C10.4063 13.4142 10.2529 14.023 10.2529 14.6318C10.2529 15.3167 10.2529 15.545 10.2529 17.2191C10.2529 18.8933 10.2529 19.1216 10.2529 19.8064C10.2529 20.4152 10.4063 20.8718 10.6365 21.4806C11.02 22.3938 11.7104 23.1547 12.6309 23.4591C13.0911 23.6874 13.7048 23.8396 14.3184 23.8396C15.0088 23.8396 15.2389 23.8396 16.9265 23.8396C18.614 23.8396 18.8442 23.8396 19.5345 23.8396C20.1482 23.8396 20.6084 23.6874 21.2221 23.4591C22.1426 23.0786 22.9096 22.3938 23.2165 21.4806C23.4466 21.024 23.6 20.4152 23.6 19.8064C23.6 19.1216 23.6 18.8933 23.6 17.2191C23.6 15.4689 23.6 15.3167 23.6 14.6318ZM21.9124 17.2191C21.9124 18.9694 21.9124 19.1216 21.9124 19.8064C21.9124 20.1869 21.759 20.4913 21.6823 20.8718C21.4522 21.3284 21.0687 21.7089 20.6084 21.9372C20.2249 22.0894 19.9181 22.1655 19.5345 22.1655C18.8442 22.1655 18.6907 22.1655 16.9265 22.1655C15.1622 22.1655 15.0088 22.1655 14.3184 22.1655C13.9349 22.1655 13.6281 22.0133 13.2445 21.9372C12.7843 21.7089 12.4007 21.3284 12.1706 20.8718C12.0172 20.4913 11.9405 20.1869 11.9405 19.8064C11.9405 19.1216 11.9405 18.9694 11.9405 17.2191C11.9405 15.545 11.9405 15.3167 11.9405 14.6318C11.9405 14.2513 12.0939 13.9469 12.1706 13.5664C12.4007 13.1099 12.7843 12.7294 13.2445 12.5011C13.6281 12.3489 13.9349 12.2728 14.3184 12.2728C14.9321 12.2728 15.1622 12.2728 16.9265 12.2728C18.614 12.2728 18.8442 12.2728 19.5345 12.2728C19.9181 12.2728 20.2249 12.425 20.6084 12.5011C21.0687 12.7294 21.4522 13.1099 21.6823 13.5664C21.8357 13.9469 21.9124 14.2513 21.9124 14.6318C21.9124 15.3167 21.9124 15.545 21.9124 17.2191Z" fill="white"/>
<path d="M17.0032 14.4033C15.4691 14.4033 14.165 15.697 14.165 17.2189C14.165 18.7409 15.4691 20.0345 17.0032 20.0345C18.5374 20.0345 19.8414 18.7409 19.8414 17.2189C19.8414 15.697 18.5374 14.4033 17.0032 14.4033ZM17.0032 18.5887C16.3128 18.5887 15.6225 17.9799 15.6225 17.2189C15.6225 16.4579 16.2361 15.8492 17.0032 15.8492C17.847 15.8492 18.3839 16.4579 18.3839 17.2189C18.3839 17.9038 17.6936 18.5887 17.0032 18.5887Z" fill="white"/>
<path d="M20.3014 13.1099C19.8411 13.1099 19.3809 13.4903 19.3809 14.023C19.3809 14.4796 19.7644 14.9362 20.3014 14.9362C20.915 14.9362 21.2218 14.5557 21.2218 14.023C21.0684 13.4143 20.7616 13.1099 20.3014 13.1099Z" fill="white"/>
</svg>
