<svg width="205" height="43" viewBox="0 0 205 43" fill="none" xmlns="http://www.w3.org/2000/svg">
<path d="M4.77193 0H11.691V30.6972H11.5722C10.3792 30.6972 9.30526 30.2196 8.35088 29.3835C7.51579 28.4279 7.0379 27.4722 7.0379 26.2778V4.65822H4.65193V26.7554C4.77123 28.5471 5.48725 29.9807 6.68024 31.1751C7.99252 32.489 9.66339 33.2056 11.5722 33.2056C13.4809 33.2056 15.0313 32.489 16.4629 31.1751C17.7752 29.8612 18.4912 28.1889 18.4912 26.2778V0H27.6774C28.9897 0 29.9434 1.07488 29.9434 2.26933V28.0694C29.9434 30.1 29.5855 32.0112 28.7504 33.8028C28.0346 35.5945 26.8414 37.1473 25.5291 38.5806C24.2168 39.8945 22.5467 41.0889 20.7572 41.8056C17.059 43.3583 12.8844 43.3583 9.1862 41.8056C7.39672 41.0889 5.72655 39.8945 4.41427 38.5806C3.81778 37.9834 3.22082 37.3861 2.74363 36.6694L2.86246 36.789H2.98246C11.4526 43.8362 25.2915 38.3418 25.2915 25.8001V6.56945H27.1998L24.2173 1.79167L21.2349 6.56945H23.1432V26.2778C23.1432 27.8306 22.9048 29.2638 22.189 30.6972C21.5925 32.0111 20.7579 33.3251 19.6842 34.4001C16.3439 37.7445 11.4526 38.6999 7.15789 36.9082C5.84561 36.311 4.53263 35.4751 3.45895 34.4001C2.38527 33.3251 1.55064 32.1305 0.954153 30.6972C0.357662 29.2638 0 27.8306 0 26.2778V2.26933C0 0.955439 1.07299 0 2.26597 0H4.77193Z" fill="white"/>
<path d="M47.0512 21.2403C47.8863 22.3153 49.1985 22.9125 50.5108 22.7931C51.8231 22.7931 53.1354 22.1958 53.9705 21.2403C54.8056 20.1653 55.2827 18.7319 55.2827 16.9403V4.27917H60.4126V17.0597C60.4126 20.4042 59.4582 22.9125 57.6687 24.7042C55.8792 26.4958 53.4933 27.3319 50.6301 27.3319C47.767 27.3319 45.381 26.4958 43.5915 24.7042C41.802 22.9125 40.8477 20.4042 40.8477 17.0597V4.27917H45.9775V16.9403C45.7389 18.7319 46.0968 20.1653 47.0512 21.2403ZM81.4091 4.27917H86.5389V27.0931H81.4091L70.5529 12.7597V27.0931H65.4231V4.27917H70.195L81.4091 18.9708V4.27917ZM92.1459 27.0931V4.27917H97.2757V22.5542H107.058V27.0931H92.1459ZM110.756 4.27917H115.886V27.0931H110.756V4.27917ZM128.77 8.22083C128.055 8.22083 127.339 8.34028 126.742 8.81806C126.265 9.17639 126.027 9.77361 126.027 10.3708C126.027 10.9681 126.384 11.6847 126.981 11.9236C127.577 12.2819 129.009 12.7597 131.156 13.3569C133.304 13.8347 134.974 14.6708 136.167 15.7458C137.36 16.8208 137.956 18.3736 137.956 20.4042C137.956 22.3153 137.121 24.2264 135.69 25.4208C134.139 26.7347 132.111 27.3319 129.606 27.3319C126.027 27.3319 122.686 26.0181 119.823 23.2708L122.806 19.5681C125.311 21.7181 127.577 22.7931 129.606 22.7931C130.56 22.7931 131.276 22.5542 131.753 22.1958C132.23 21.8375 132.588 21.2403 132.588 20.5236C132.588 19.9264 132.23 19.2097 131.753 18.8514C131.156 18.4931 130.083 18.0153 128.413 17.6569C125.788 17.0597 123.76 16.2236 122.567 15.1486C121.374 14.0736 120.777 12.5208 120.777 10.3708C120.777 8.22083 121.613 6.54861 123.163 5.35417C124.714 4.15972 126.623 3.5625 129.009 3.5625C130.56 3.5625 132.111 3.80139 133.542 4.39861C134.974 4.87639 136.406 5.59306 137.479 6.66806L134.855 10.3708C132.946 8.9375 130.918 8.22083 128.77 8.22083ZM151.795 8.69861V27.0931H146.665V8.69861H140.223V4.27917H158.237V8.69861H151.795ZM178.399 4.27917V8.81806H167.065V13.4764H177.325V17.7764H167.065V22.5542H178.756V27.0931H161.935V4.27917H178.399ZM191.402 4.27917C195.458 4.27917 198.56 5.23472 200.827 7.26528C202.974 9.29583 204.048 12.0431 204.048 15.6264C204.048 19.2097 202.974 21.9569 200.827 24.1069C198.679 26.1375 195.458 27.2125 191.163 27.2125H183.409V4.39861L191.402 4.27917ZM191.641 22.6736C194.027 22.6736 195.816 22.0764 197.009 20.8819C198.202 19.6875 198.918 18.0153 198.918 15.7458C198.918 13.4764 198.321 11.8042 197.009 10.6097C195.816 9.41528 193.788 8.81806 191.283 8.81806H188.42V22.6736H191.641Z" fill="white"/>
<path d="M127.577 38.9966L128.173 37.4438H132.349L132.945 38.9966H134.614L131.394 31.2327H129.008L125.787 38.9966H127.577ZM128.77 36.0105L130.201 32.5466H130.32L131.752 36.0105H128.77ZM144.278 37.8021C142.966 37.8021 142.131 37.3243 142.131 36.7271H140.579C140.579 38.2799 142.131 39.2354 144.278 39.2354C146.664 39.2354 147.976 38.3993 147.976 36.7271C147.976 35.1743 146.903 34.4576 144.278 34.4576C142.847 34.4576 142.131 34.2188 142.131 33.6216C142.131 32.9049 142.846 32.5466 144.158 32.5466C145.351 32.5466 146.187 33.0244 146.187 33.6216H147.737C147.737 32.0688 146.306 31.1133 144.158 31.1133C141.772 31.1133 140.579 31.9494 140.579 33.6216C140.579 35.1744 141.653 35.8911 144.158 35.8911C145.709 35.8911 146.425 36.1299 146.425 36.7271C146.545 37.3243 145.71 37.8021 144.278 37.8021ZM158.116 37.8021C156.804 37.8021 155.969 37.3243 155.969 36.7271H154.419C154.419 38.2799 155.969 39.2354 158.116 39.2354C160.502 39.2354 161.815 38.3993 161.815 36.7271C161.815 35.1743 160.741 34.4576 158.116 34.4576C156.685 34.4576 155.969 34.2188 155.969 33.6216C155.969 32.9049 156.685 32.5466 157.998 32.5466C159.191 32.5466 160.026 33.0244 160.026 33.6216H161.577C161.577 32.0688 160.145 31.1133 157.998 31.1133C155.612 31.1133 154.419 31.9494 154.419 33.6216C154.419 35.1744 155.492 35.8911 157.998 35.8911C159.549 35.8911 160.264 36.1299 160.264 36.7271C160.383 37.3243 159.548 37.8021 158.116 37.8021ZM176.369 32.5466V31.1133H168.734V38.8772H176.369V37.4438H170.285V35.6521H174.818V34.2188H170.285V32.4271L176.369 32.5466ZM182.693 32.5466H185.794V38.9966H187.345V32.5466H190.447V31.1133H182.693V32.5466ZM200.229 37.8021C198.916 37.8021 198.081 37.3243 198.081 36.7271H196.531C196.531 38.2799 198.081 39.2354 200.229 39.2354C202.614 39.2354 203.927 38.3993 203.927 36.7271C203.927 35.1743 202.853 34.4576 200.229 34.4576C198.797 34.4576 198.081 34.2188 198.081 33.6216C198.081 32.9049 198.797 32.5466 200.11 32.5466C201.303 32.5466 202.138 33.0244 202.138 33.6216H203.689C203.689 32.0688 202.257 31.1133 200.11 31.1133C197.724 31.1133 196.531 31.9494 196.531 33.6216C196.531 35.1744 197.604 35.8911 200.11 35.8911C201.661 35.8911 202.377 36.1299 202.377 36.7271C202.496 37.3243 201.66 37.8021 200.229 37.8021Z" fill="white"/>
<path d="M40.6074 34.3398H123.877L123.281 35.8927H40.6074V34.3398Z" fill="white"/>
</svg>
