<svg width="34" height="34" viewBox="0 0 34 34" fill="none" xmlns="http://www.w3.org/2000/svg">
<path d="M16.5808 1.16357C7.6927 1.16357 0.490234 8.36564 0.490234 17.2533C0.490234 26.1409 7.6927 33.343 16.5808 33.343C25.469 33.343 32.6715 26.0643 32.6715 17.2533C32.6715 8.44226 25.3924 1.16357 16.5808 1.16357Z" stroke="white" stroke-width="0.75" stroke-miterlimit="10"/>
<path d="M22.3522 14.253C22.3522 14.3291 22.3522 14.4813 22.3522 14.7096C22.3522 18.5906 19.3606 23.0803 13.9144 23.0803C12.1501 23.0803 10.6927 22.5476 9.38867 21.7867C9.61879 21.7867 9.84892 21.7867 10.1557 21.7867C11.5365 21.7867 12.8405 21.3301 13.8377 20.493C12.5337 20.493 11.4598 19.6559 10.9995 18.4384C11.2296 18.4384 11.3064 18.4384 11.5365 18.4384C11.8433 18.4384 12.0734 18.4384 12.3036 18.3623C10.9228 18.134 9.92562 16.8403 9.92562 15.4706C10.3859 15.6989 10.7694 15.775 11.2296 15.775C10.4626 15.2423 9.92562 14.4052 9.92562 13.3399C9.92562 12.8072 10.0023 12.2745 10.3859 11.8179C11.7666 13.6443 14.0678 14.7857 16.4458 14.9379C16.4458 14.7096 16.4458 14.4813 16.4458 14.3291C16.4458 12.7311 17.7498 11.3613 19.4373 11.3613C20.2811 11.3613 21.0482 11.6657 21.5851 12.3506C22.1988 12.2745 22.8892 11.894 23.4261 11.5896C23.196 12.1984 22.8125 12.8833 22.1221 13.1877C22.7358 13.1116 23.2727 12.9594 23.8864 12.7311C23.4261 13.2638 22.8892 13.8725 22.3522 14.253Z" fill="white"/>
</svg>
