<svg width="34" height="34" viewBox="0 0 34 34" fill="none" xmlns="http://www.w3.org/2000/svg">
<path d="M16.8787 1.08691C7.99055 1.08691 0.788086 8.28897 0.788086 17.1766C0.788086 26.0643 7.99055 33.2663 16.8787 33.2663C25.6902 33.2663 32.9693 25.9877 32.9693 17.1766C32.9693 8.36559 25.6902 1.08691 16.8787 1.08691Z" stroke="white" stroke-width="0.75" stroke-miterlimit="10"/>
<path d="M23.5705 20.3402C23.4171 21.0251 22.8801 21.6338 22.0363 21.7099C20.2721 21.8621 18.5845 21.9382 16.8202 21.9382C15.056 21.9382 13.3684 21.9382 11.6041 21.7099C10.9137 21.5577 10.3001 21.1012 10.07 20.3402C9.83983 19.2748 9.83984 18.2095 9.83984 17.068C9.83984 16.0026 9.83983 14.8612 10.07 13.7958C10.2234 13.1109 10.7603 12.5021 11.6041 12.426C13.3684 12.2739 15.056 12.1978 16.8202 12.1978C18.5845 12.1978 20.2721 12.1978 22.0363 12.426C22.7267 12.5782 23.3404 13.0348 23.5705 13.7958C23.8006 14.8612 23.8006 15.9265 23.8006 17.068C23.8773 18.1334 23.8006 19.2748 23.5705 20.3402Z" fill="white"/>
<path d="M15.7461 18.8181L19.428 16.6874L15.7461 14.5566V18.8181Z" fill="#2E384D"/>
</svg>
