<svg width="40" height="40" viewBox="0 0 40 40" fill="none" xmlns="http://www.w3.org/2000/svg">
<path d="M3.23077 24C3.84615 26.4615 4.92308 28.7692 6.46154 30.7692C10.3077 27.8462 15.0769 26.3077 20 26.3077C24.9231 26.3077 29.6923 27.8462 33.5385 30.7692C35.0769 28.7692 36.3077 26.6154 36.7692 24C37.0769 22.6154 37.2308 21.3846 37.2308 20C37.2308 10.4615 29.5385 2.76923 20 2.76923C10.4615 2.76923 2.76923 10.4615 2.76923 20C2.76923 21.3846 2.92308 22.7692 3.23077 24ZM31.5385 32.7692C28.3077 30.4615 24.3077 29.0769 20 29.0769C15.6923 29.0769 11.6923 30.4615 8.46154 32.7692C11.5385 35.5385 15.5385 37.2308 20 37.2308C24.4615 37.2308 28.4615 35.5385 31.5385 32.7692ZM20 40C8.92308 40 0 31.0769 0 20C0 8.92308 8.92308 0 20 0C31.0769 0 40 8.92308 40 20C40 31.0769 31.0769 40 20 40Z" fill="#721B65"/>
<path d="M20.0003 21.8462C22.4618 21.8462 24.6157 19.8462 24.6157 17.2308C24.6157 14.6154 22.6157 12.6154 20.0003 12.6154C17.3849 12.6154 15.3849 14.6154 15.3849 17.2308C15.3849 19.8462 17.5388 21.8462 20.0003 21.8462ZM20.0003 24.6154C16.0003 24.6154 12.7695 21.3846 12.7695 17.3846C12.7695 13.3846 16.0003 10 20.0003 10C24.0003 10 27.2311 13.2308 27.2311 17.2308C27.2311 21.2308 24.0003 24.6154 20.0003 24.6154Z" fill="#721B65"/>
</svg>
