<svg width="188" height="135" viewBox="0 0 188 135" fill="none" xmlns="http://www.w3.org/2000/svg">
<path d="M11 1H177C182.5 1 187 5.5 187 11V123.9C187 129.4 182.5 133.9 177 133.9H11C5.5 133.9 1 129.4 1 123.9V11C1 5.5 5.5 1 11 1Z" fill="white" stroke="#721B65" stroke-width="2"/>
<path d="M62.9004 77.1001H121.6C122.2 77.1001 122.6 77.6001 122.6 78.1001C122.6 78.7001 122.1 79.1001 121.6 79.1001H62.9004C62.3004 79.1001 61.9004 78.6001 61.9004 78.1001C61.9004 77.6001 62.4004 77.1001 62.9004 77.1001Z" fill="#CFCBCF"/>
<path d="M62.9004 49.3999H121.6C122.2 49.3999 122.6 49.8999 122.6 50.3999C122.6 50.9999 122.1 51.3999 121.6 51.3999H62.9004C62.3004 51.3999 61.9004 50.8999 61.9004 50.3999C61.9004 49.8999 62.4004 49.3999 62.9004 49.3999Z" fill="#CFCBCF"/>
<path d="M62.9004 68.8999H131.6C132.2 68.8999 132.6 69.3999 132.6 69.8999C132.6 70.4999 132.1 70.8999 131.6 70.8999H62.9004C62.3004 70.8999 61.9004 70.3999 61.9004 69.8999C61.9004 69.3999 62.4004 68.8999 62.9004 68.8999Z" fill="#CFCBCF"/>
<path d="M63.0996 88.3999H131.8C132.4 88.3999 132.8 88.8999 132.8 89.3999C132.8 89.9999 132.3 90.3999 131.8 90.3999H63.0996C62.4996 90.3999 62.0996 89.8999 62.0996 89.3999C62.0996 88.8999 62.5996 88.3999 63.0996 88.3999Z" fill="#CFCBCF"/>
<path d="M62.9004 59H109.6C110.2 59 110.6 59.5 110.6 60C110.6 60.6 110.1 61 109.6 61H62.9004C62.3004 61 61.9004 60.5 61.9004 60C61.9004 59.5 62.4004 59 62.9004 59Z" fill="#CFCBCF"/>
<path d="M32.7008 88.4001C44.2008 88.4001 53.6008 79.0001 53.6008 67.5001C53.6008 56.0001 44.2008 46.6001 32.7008 46.6001C21.2008 46.6001 11.8008 56.0001 11.8008 67.5001C11.8008 79.1001 21.2008 88.4001 32.7008 88.4001Z" fill="#DEE3ED"/>
<path d="M34.7016 77.4004H30.6016V79.8004H34.7016V77.4004Z" fill="#F8BB94"/>
<path d="M30.9012 79.3C31.4012 78.8 32.0012 78.6 32.7012 78.5C33.3012 78.5 34.3012 78.6 34.6012 78C34.6012 77.9 34.7012 77.8 34.8012 77.8V77.5H30.7012V79.6C30.7012 79.4 30.8012 79.3 30.9012 79.3Z" fill="#F0A778"/>
<path d="M41.1012 71.4003C42.1012 71.4003 43.0012 70.6003 43.0012 69.6003C43.0012 68.6003 42.1012 67.8003 41.1012 67.8003C40.1012 67.8003 39.2012 68.6003 39.2012 69.6003C39.2012 70.6003 40.0012 71.4003 41.1012 71.4003Z" fill="#F8BB94"/>
<path d="M41.3008 68.6001C41.3008 68.6001 41.3008 68.6001 41.4008 68.6001C41.5008 68.6001 41.6008 68.6001 41.7008 68.7001C41.8008 68.7001 42.0008 68.8001 42.1008 69.0001C42.1008 69.0001 42.1008 69.1001 42.2008 69.1001V69.2001V69.3001V69.4001C42.2008 69.5001 42.2008 69.6001 42.1008 69.7001C42.1008 69.8001 42.0008 69.9001 42.0008 69.9001C41.9008 70.1001 41.8008 70.2001 41.7008 70.2001C41.6008 70.2001 41.6008 70.3001 41.5008 70.3001C41.4008 70.3001 41.4008 70.3001 41.4008 70.3001C41.3008 70.3001 41.3008 70.3001 41.3008 70.3001C41.3008 70.3001 41.3008 70.3001 41.4008 70.3001C41.4008 70.3001 41.5008 70.3001 41.5008 70.2001L41.6008 70.1001L41.7008 70.0001C41.7008 69.9001 41.8008 69.9001 41.8008 69.8001C41.8008 69.7001 41.9008 69.7001 41.9008 69.6001C41.9008 69.5001 41.9008 69.5001 41.9008 69.4001V69.3001V69.2001V69.1001V69.0001C41.8008 68.9001 41.7008 68.8001 41.6008 68.7001C41.5008 68.7001 41.4008 68.7001 41.3008 68.6001C41.4008 68.6001 41.3008 68.6001 41.3008 68.6001Z" fill="#DADADA"/>
<path d="M41.2004 70.0004C41.4004 70.0004 41.5004 69.8004 41.5004 69.7004C41.5004 69.6004 41.4004 69.4004 41.2004 69.4004C41.0004 69.4004 40.9004 69.6004 40.9004 69.7004C40.9004 69.8004 41.1004 70.0004 41.2004 70.0004Z" fill="#DADADA"/>
<path d="M24.6012 71.4003C25.6012 71.4003 26.5012 70.6003 26.5012 69.6003C26.5012 68.6003 25.6012 67.8003 24.6012 67.8003C23.6012 67.8003 22.7012 68.6003 22.7012 69.6003C22.7012 70.6003 23.5012 71.4003 24.6012 71.4003Z" fill="#F8BB94"/>
<path d="M24.3004 68.6001C24.3004 68.6001 24.3004 68.6001 24.2004 68.6001C24.1004 68.6001 24.0004 68.6001 23.9004 68.7001C23.8004 68.7001 23.6004 68.8001 23.5004 69.0001C23.5004 69.0001 23.5004 69.1001 23.4004 69.1001V69.2001V69.3001V69.4001C23.4004 69.5001 23.4004 69.6001 23.5004 69.7001C23.5004 69.8001 23.6004 69.9001 23.6004 69.9001C23.7004 70.1001 23.8004 70.2001 23.9004 70.2001C24.0004 70.2001 24.0004 70.3001 24.1004 70.3001C24.2004 70.3001 24.2004 70.3001 24.2004 70.3001C24.3004 70.3001 24.3004 70.3001 24.3004 70.3001C24.3004 70.3001 24.3004 70.3001 24.2004 70.3001C24.2004 70.3001 24.1004 70.3001 24.1004 70.2001L24.0004 70.1001L23.9004 70.0001C23.9004 69.9001 23.8004 69.9001 23.8004 69.8001C23.8004 69.7001 23.7004 69.7001 23.7004 69.6001C23.7004 69.5001 23.7004 69.5001 23.7004 69.4001V69.3001V69.2001V69.1001V69.0001C23.8004 68.9001 23.9004 68.8001 24.0004 68.7001C24.1004 68.7001 24.2004 68.7001 24.3004 68.6001Z" fill="#DADADA"/>
<path d="M24.4016 70.0004C24.6016 70.0004 24.7016 69.8004 24.7016 69.7004C24.7016 69.6004 24.6016 69.4004 24.4016 69.4004C24.2016 69.4004 24.1016 69.6004 24.1016 69.7004C24.1016 69.8004 24.2016 70.0004 24.4016 70.0004Z" fill="#DADADA"/>
<path d="M41.1008 67.2C41.1008 73.4 38.2008 77.8 32.7008 77.8C27.2008 77.8 24.3008 73.5 24.3008 67.2C24.3008 61 27.3008 56 32.8008 56C38.3008 55.9 41.1008 61 41.1008 67.2Z" fill="#F8BB94"/>
<path d="M30.7004 79.7002C30.7004 79.7002 25.5004 80.4002 23.6004 82.0002C21.7004 83.7002 21.1004 85.1002 20.4004 88.3002H32.5004H32.7004H44.8004C44.1004 85.0002 43.6004 83.6002 41.6004 82.0002C39.7004 80.4002 34.5004 79.7002 34.5004 79.7002H30.7004Z" fill="#F8BB94"/>
<path d="M36.7 80.1001C36.7 80.1001 39.9 80.4001 41.8 82.1001C43.7 83.8001 44.3 85.2001 45 88.4001H32.8H32.6H20.5C21.2 85.1001 21.7 83.7001 23.7 82.1001C25.6 80.5001 28.8 80.1001 28.8 80.1001C28.8 80.1001 28.1 84.5001 32.9 84.5001C32.9 84.5001 36.9 84.7001 36.7 80.1001Z" fill="#721B65"/>
<path d="M29.4015 80C29.4015 80.1 29.4015 80.1 29.4015 80.2C29.4015 80.2 29.2015 81.8 30.1015 82.9C30.7015 83.6 31.6015 83.9 32.9015 83.9C32.9015 83.9 34.2015 83.9 35.2015 83C35.8015 82.4 36.1015 81.3 36.1015 80L37.4015 80.2C37.4015 81.8 37.0015 83 36.1015 83.9C34.9015 85.1 33.3015 85.2 32.9015 85.2C32.8015 85.2 32.8015 85.2 32.8015 85.2C31.1015 85.2 29.9015 84.7 29.1015 83.8C28.0015 82.5 28.0015 80.9 28.1015 80.3L29.4015 80Z" fill="#FFD868"/>
<path d="M24.3999 68.2002L25.2999 69.1002L25.4999 62.2002C25.4999 62.2002 25.5999 58.7002 29.2999 58.7002C29.2999 58.7002 32.3999 60.3002 36.2999 59.0002C36.2999 59.0002 39.7999 58.4002 40.2999 62.1002V69.2002L41.1999 68.1002V67.2002C41.1999 67.2002 41.6999 64.2002 41.1999 59.7002C41.1999 59.7002 40.4999 54.8002 36.0999 54.0002C36.0999 54.0002 28.8999 52.1002 25.7999 56.7002C25.7999 56.7002 23.4999 59.4002 24.0999 63.7002L24.3999 68.2002Z" fill="#732400"/>
<path d="M17.0996 124.6H170.8C171.4 124.6 171.8 125.1 171.8 125.6C171.8 126.2 171.3 126.6 170.8 126.6H17.0996C16.4996 126.6 16.0996 126.1 16.0996 125.6C16.0996 125.1 16.5996 124.6 17.0996 124.6Z" fill="#CFCBCF"/>
<path d="M155.8 72.6001H153.1V74.0001H155.8V72.6001Z" fill="#CFCBCF"/>
<path d="M158.5 72.6001H159.8V73.9001H162.5V75.3001H158.5V72.6001Z" fill="#CFCBCF"/>
<path d="M163.9 72.6001H165.2V87.4001H163.9V84.7001H162.5V86.1001H161.2V84.7001H159.8V83.4001H158.5V79.3001H157.1V76.6001H153.1V75.3001H155.8V73.9001H157.1V75.3001H158.5V76.6001H162.5V78.0001H159.8V82.0001H161.2V80.7001H162.5V83.4001H163.9V79.3001H162.5V78.0001H163.9V72.6001Z" fill="#CFCBCF"/>
<path d="M142.199 72.6V82H151.699V72.5H142.199V72.6ZM150.299 80.7H143.499V73.9H150.299V80.7Z" fill="#CFCBCF"/>
<path d="M166.6 72.6V82H176.1V72.5H166.6V72.6ZM174.7 80.7H167.9V73.9H174.7V80.7Z" fill="#CFCBCF"/>
<path d="M148.998 75.2998H144.898V79.3998H148.998V75.2998Z" fill="#CFCBCF"/>
<path d="M173.399 75.2998H169.299V79.3998H173.399V75.2998Z" fill="#CFCBCF"/>
<path d="M153.1 78H155.8V80.7H154.4V79.3H153.1V78Z" fill="#CFCBCF"/>
<path d="M153.1 80.7002H154.4V82.0002H155.8V80.7002H157.1V83.4002H158.5V84.7002H159.8V86.1002H158.5V87.4002H157.1V84.7002H155.8V83.4002H153.1V80.7002Z" fill="#CFCBCF"/>
<path d="M151.7 83.3999H149V84.7999H151.7V83.3999Z" fill="#CFCBCF"/>
<path d="M170.699 83.3999H169.299V84.7999H170.699V83.3999Z" fill="#CFCBCF"/>
<path d="M172 83.3999H173.3V86.0999H176V90.0999H173.3V87.3999H172V83.3999Z" fill="#CFCBCF"/>
<path d="M176.099 83.3999H174.699V84.7999H176.099V83.3999Z" fill="#CFCBCF"/>
<path d="M146.3 84.7002H143.6V86.1002H146.3V84.7002Z" fill="#CFCBCF"/>
<path d="M149 84.7002H147.6V86.1002H149V84.7002Z" fill="#CFCBCF"/>
<path d="M143.599 86.1001H142.199V87.5001H143.599V86.1001Z" fill="#CFCBCF"/>
<path d="M151.699 86.1001H150.299V87.5001H151.699V86.1001Z" fill="#CFCBCF"/>
<path d="M144.9 87.3999H147.6V90.0999H146.3V91.4999H144.9V90.0999H143.6V88.7999H144.9V87.3999Z" fill="#CFCBCF"/>
<path d="M150.4 87.3999H149V88.7999H150.4V87.3999Z" fill="#CFCBCF"/>
<path d="M163.9 87.3999H162.5V88.7999H163.9V87.3999Z" fill="#CFCBCF"/>
<path d="M151.699 88.7998H150.299V90.1998H151.699V88.7998Z" fill="#CFCBCF"/>
<path d="M143.599 90.1001H142.199V95.5001H143.599V90.1001Z" fill="#CFCBCF"/>
<path d="M149 90.1001H147.6V91.5001H149V90.1001Z" fill="#CFCBCF"/>
<path d="M147.699 91.5H146.299V92.9H147.699V91.5Z" fill="#CFCBCF"/>
<path d="M151.699 91.5H150.299V92.9H151.699V91.5Z" fill="#CFCBCF"/>
<path d="M153.1 91.5H154.4V92.8H155.8V95.5H154.4V96.9H153.1V91.5Z" fill="#CFCBCF"/>
<path d="M170.598 91.5H167.898V92.9H170.598V91.5Z" fill="#CFCBCF"/>
<path d="M175.999 91.5H173.299V92.9H175.999V91.5Z" fill="#CFCBCF"/>
<path d="M149 92.7998H147.6V94.1998H149V92.7998Z" fill="#CFCBCF"/>
<path d="M146.298 94.2002H144.898V95.6002H146.298V94.2002Z" fill="#CFCBCF"/>
<path d="M151.7 94.2002H149V95.6002H151.7V94.2002Z" fill="#CFCBCF"/>
<path d="M157.199 95.5H155.799V96.9H157.199V95.5Z" fill="#CFCBCF"/>
<path d="M175.999 95.5V94.1H173.299V92.7H170.599V94.1H165.199V92.7H166.599V91.3H167.999V89.9H170.699V91.3H172.099V87.2H170.699V85.8H169.299V87.2H167.899V85.8H169.299V84.4H167.899V83H166.499V87.1H165.099V91.2H162.399V88.5H160.999V91.2H159.599V87.1H158.199V89.8H156.799V87.1H152.699V88.5H154.099V91.2H155.499V92.6H156.899V91.2H158.299V92.6H156.899V95.3H158.299V96.7H159.699V94H161.099V96.7H162.499V95.3H163.899V96.7H162.499V98.1H161.099V102.2H158.399V103.6H161.099V105H158.399V106.4H165.199V105H163.799V103.6H162.399V99.5H163.799V100.9H165.199V102.3H166.599V101H170.699V102.4H172.099V101H173.499V99.6H171.999V96.9H170.599V95.5H175.999ZM163.899 94.2H162.499V92.8H163.899V94.2ZM169.299 99.6H165.199V95.5H169.299V99.6Z" fill="#CFCBCF"/>
<path d="M158.5 96.8999H157.1V99.5999H158.5V96.8999Z" fill="#CFCBCF"/>
<path d="M168 96.8999H166.6V98.2999H168V96.8999Z" fill="#CFCBCF"/>
<path d="M176.099 96.8999H174.699V99.5999H176.099V96.8999Z" fill="#CFCBCF"/>
<path d="M142.199 96.8999V106.4H151.699V96.8999H142.199ZM150.299 105H143.499V98.1999H150.299V105Z" fill="#CFCBCF"/>
<path d="M153.1 98.2998H155.8V101H157.1V102.3H155.8V103.7H154.4V99.5998H153.1V98.2998Z" fill="#CFCBCF"/>
<path d="M148.998 99.6001H144.898V103.7H148.998V99.6001Z" fill="#CFCBCF"/>
<path d="M159.9 99.6001H158.5V101H159.9V99.6001Z" fill="#CFCBCF"/>
<path d="M176.099 101H174.699V106.4H176.099V101Z" fill="#CFCBCF"/>
<path d="M165.298 102.3H163.898V103.7H165.298V102.3Z" fill="#CFCBCF"/>
<path d="M166.6 102.3H169.3V103.7H172V106.4H170.6V105H167.9V106.4H166.6V102.3Z" fill="#CFCBCF"/>
<path d="M173.4 102.3H172V103.7H173.4V102.3Z" fill="#CFCBCF"/>
<path d="M158.5 103.7H157.1V105.1H158.5V103.7Z" fill="#CFCBCF"/>
<path d="M155.798 105H154.398V106.4H155.798V105Z" fill="#CFCBCF"/>
<path d="M11.6004 1.7998H177.3C182.9 1.7998 187.5 6.3998 187.5 11.9998V34.7998H1.40039V11.9998C1.40039 6.3998 6.00039 1.7998 11.6004 1.7998Z" fill="#721B65"/>
<path d="M124.802 26.8001H63.2016C62.3016 26.8001 61.6016 26.1001 61.6016 25.2001C61.6016 24.3001 62.3016 23.6001 63.2016 23.6001H124.802C125.702 23.6001 126.402 24.3001 126.402 25.2001C126.402 26.1001 125.702 26.8001 124.802 26.8001Z" fill="white"/>
<path d="M145.101 17.8001H42.9008C42.0008 17.8001 41.3008 17.1001 41.3008 16.2001C41.3008 15.3001 42.0008 14.6001 42.9008 14.6001H145.101C146.001 14.6001 146.701 15.3001 146.701 16.2001C146.701 17.0001 146.001 17.8001 145.101 17.8001Z" fill="#FFD868"/>
</svg>

