<svg width="107" height="24" viewBox="0 0 107 24" fill="none" xmlns="http://www.w3.org/2000/svg">
<rect width="107" height="24" rx="12" fill="#D6E5DC"/>
<path d="M17.999 14.7991L15.199 11.9991L14.2656 12.9324L17.999 16.6658L25.999 8.66576L25.0656 7.73242L17.999 14.7991Z" fill="#106D31"/>
<path d="M36.598 15.61C37.863 15.61 38.941 15.159 39.656 14.323L38.732 13.443C38.171 14.059 37.478 14.356 36.675 14.356C35.08 14.356 33.925 13.234 33.925 11.65C33.925 10.066 35.08 8.944 36.675 8.944C37.478 8.944 38.171 9.241 38.732 9.846L39.656 8.977C38.941 8.141 37.863 7.69 36.609 7.69C34.244 7.69 32.484 9.351 32.484 11.65C32.484 13.949 34.244 15.61 36.598 15.61ZM43.3193 15.577C45.1453 15.577 46.4543 14.323 46.4543 12.563C46.4543 10.803 45.1453 9.56 43.3193 9.56C41.5153 9.56 40.1953 10.803 40.1953 12.563C40.1953 14.323 41.5153 15.577 43.3193 15.577ZM43.3193 14.4C42.3293 14.4 41.5813 13.685 41.5813 12.563C41.5813 11.441 42.3293 10.726 43.3193 10.726C44.3203 10.726 45.0683 11.441 45.0683 12.563C45.0683 13.685 44.3203 14.4 43.3193 14.4ZM55.1832 9.56C54.2482 9.56 53.4562 9.934 52.9832 10.539C52.5762 9.879 51.8612 9.56 51.0032 9.56C50.2002 9.56 49.5182 9.846 49.0782 10.374V9.626H47.7692V15.5H49.1442V12.519C49.1442 11.353 49.7602 10.759 50.6732 10.759C51.5092 10.759 51.9932 11.265 51.9932 12.31V15.5H53.3682V12.519C53.3682 11.353 53.9952 10.759 54.8972 10.759C55.7332 10.759 56.2172 11.265 56.2172 12.31V15.5H57.5922V12.134C57.5922 10.363 56.6022 9.56 55.1832 9.56ZM62.6053 9.56C61.8023 9.56 61.1203 9.835 60.6583 10.396V9.626H59.3493V17.634H60.7243V14.785C61.1973 15.324 61.8573 15.577 62.6053 15.577C64.3213 15.577 65.5863 14.389 65.5863 12.563C65.5863 10.748 64.3213 9.56 62.6053 9.56ZM62.4513 14.4C61.4613 14.4 60.7023 13.685 60.7023 12.563C60.7023 11.441 61.4613 10.726 62.4513 10.726C63.4413 10.726 64.1893 11.441 64.1893 12.563C64.1893 13.685 63.4413 14.4 62.4513 14.4ZM66.8903 15.5H68.2653V7.338H66.8903V15.5ZM75.592 12.596C75.592 10.759 74.338 9.56 72.622 9.56C70.873 9.56 69.586 10.814 69.586 12.563C69.586 14.312 70.862 15.577 72.831 15.577C73.843 15.577 74.668 15.247 75.196 14.62L74.459 13.773C74.041 14.202 73.524 14.411 72.864 14.411C71.841 14.411 71.126 13.861 70.961 13.003H75.57C75.581 12.871 75.592 12.706 75.592 12.596ZM72.622 10.66C73.524 10.66 74.173 11.243 74.283 12.09H70.95C71.082 11.232 71.731 10.66 72.622 10.66ZM80.0587 14.202C79.8497 14.367 79.5747 14.444 79.2887 14.444C78.7607 14.444 78.4747 14.136 78.4747 13.564V10.77H80.0477V9.67H78.4747V8.328H77.0997V9.67H76.1317V10.77H77.0997V13.597C77.0997 14.895 77.8367 15.577 79.1237 15.577C79.6187 15.577 80.1137 15.445 80.4437 15.181L80.0587 14.202ZM86.9035 12.596C86.9035 10.759 85.6495 9.56 83.9335 9.56C82.1845 9.56 80.8975 10.814 80.8975 12.563C80.8975 14.312 82.1735 15.577 84.1425 15.577C85.1545 15.577 85.9795 15.247 86.5075 14.62L85.7705 13.773C85.3525 14.202 84.8355 14.411 84.1755 14.411C83.1525 14.411 82.4375 13.861 82.2725 13.003H86.8815C86.8925 12.871 86.9035 12.706 86.9035 12.596ZM83.9335 10.66C84.8355 10.66 85.4845 11.243 85.5945 12.09H82.2615C82.3935 11.232 83.0425 10.66 83.9335 10.66ZM92.6023 7.338V10.352C92.1403 9.813 91.4693 9.56 90.7103 9.56C89.0053 9.56 87.7403 10.737 87.7403 12.563C87.7403 14.389 89.0053 15.577 90.7103 15.577C91.5133 15.577 92.1953 15.302 92.6573 14.741V15.5H93.9773V7.338H92.6023ZM90.8753 14.4C89.8853 14.4 89.1263 13.685 89.1263 12.563C89.1263 11.441 89.8853 10.726 90.8753 10.726C91.8653 10.726 92.6243 11.441 92.6243 12.563C92.6243 13.685 91.8653 14.4 90.8753 14.4Z" fill="#106D31"/>
<rect x="0.5" y="0.5" width="106" height="23" rx="11.5" stroke="black" stroke-opacity="0.1"/>
</svg>
