<svg width="22" height="22" viewBox="0 0 22 22" fill="none" xmlns="http://www.w3.org/2000/svg">
<path d="M4.16541 13.2707L7.22721 10.2089L9.7724 12.755L12.6137 9.9137L11 8.3H15.5V12.8L13.8863 11.1863L9.7724 15.3002L7.22721 12.755L4.99971 14.9816C6.01078 16.5034 7.56257 17.5839 9.34061 18.0041C11.1187 18.4244 12.99 18.1529 14.5754 17.2448C16.1607 16.3367 17.3416 14.8599 17.8786 13.1136C18.4157 11.3672 18.2688 9.48207 17.4676 7.84004C16.6665 6.19802 15.2711 4.92197 13.5641 4.27047C11.8572 3.61897 9.96644 3.64076 8.27497 4.33142C6.58351 5.02208 5.21787 6.32995 4.45479 7.99C3.6917 9.65005 3.58826 11.5381 4.16541 13.2716V13.2707ZM2.78121 14.6729L2.77221 14.6639L2.77581 14.6603C2.26274 13.5083 1.99839 12.2611 2.00001 11C2.00001 6.0293 6.02931 2 11 2C15.9707 2 20 6.0293 20 11C20 15.9707 15.9707 20 11 20C7.33701 20 4.18701 17.813 2.78121 14.6729Z" fill="#2E384D"/>
</svg>
