<svg width="18" height="18" viewBox="0 0 18 18" fill="none" xmlns="http://www.w3.org/2000/svg">
<path fill-rule="evenodd" clip-rule="evenodd" d="M9 16C12.866 16 16 12.866 16 9C16 5.13401 12.866 2 9 2C5.13401 2 2 5.13401 2 9C2 12.866 5.13401 16 9 16ZM9 18C13.9706 18 18 13.9706 18 9C18 4.02944 13.9706 0 9 0C4.02944 0 0 4.02944 0 9C0 13.9706 4.02944 18 9 18Z" fill="#2E384D"/>
<path d="M13 5H6V5.8H8.52747C9.41758 5.78857 10.011 6.08571 10.3077 6.58857H6V7.38857H10.5385V7.54857C10.5385 8.41714 9.98901 9.06857 8.62637 9.06857H6.64835V10.3257H8.71429H8.9011L10.5824 13H12.1209L10.2747 10.0743C11.3516 9.67429 11.978 8.82857 11.978 7.61714C11.978 7.53714 11.978 7.46857 11.967 7.38857H13V6.58857H11.8022C11.6813 6.29143 11.5165 6.02857 11.2747 5.8H13V5Z" fill="#2E384D"/>
</svg>
