<svg width="22" height="22" viewBox="0 0 22 22" fill="none" xmlns="http://www.w3.org/2000/svg">
<path fill-rule="evenodd" clip-rule="evenodd" d="M11 18C14.866 18 18 14.866 18 11C18 7.13401 14.866 4 11 4C7.13401 4 4 7.13401 4 11C4 14.866 7.13401 18 11 18ZM11 20C15.9706 20 20 15.9706 20 11C20 6.02944 15.9706 2 11 2C6.02944 2 2 6.02944 2 11C2 15.9706 6.02944 20 11 20Z" fill="#2E384D"/>
<path d="M15 7H8V7.8H10.5275C11.4176 7.78857 12.011 8.08571 12.3077 8.58857H8V9.38857H12.5385V9.54857C12.5385 10.4171 11.989 11.0686 10.6264 11.0686H8.64835V12.3257H10.7143H10.9011L12.5824 15H14.1209L12.2747 12.0743C13.3516 11.6743 13.978 10.8286 13.978 9.61714C13.978 9.53714 13.978 9.46857 13.967 9.38857H15V8.58857H13.8022C13.6813 8.29143 13.5165 8.02857 13.2747 7.8H15V7Z" fill="#2E384D"/>
</svg>
