<svg width="18" height="18" viewBox="0 0 18 18" fill="none" xmlns="http://www.w3.org/2000/svg">
<path d="M2.16541 11.2707L5.22721 8.2089L7.7724 10.755L10.6137 7.9137L9 6.3H13.5V10.8L11.8863 9.1863L7.7724 13.3002L5.22721 10.755L2.99971 12.9816C4.01078 14.5034 5.56257 15.5839 7.34061 16.0041C9.11866 16.4244 10.99 16.1529 12.5754 15.2448C14.1607 14.3367 15.3416 12.8599 15.8786 11.1136C16.4157 9.36725 16.2688 7.48207 15.4676 5.84004C14.6665 4.19802 13.2711 2.92197 11.5641 2.27047C9.85721 1.61897 7.96644 1.64076 6.27497 2.33142C4.58351 3.02208 3.21787 4.32995 2.45479 5.99C1.6917 7.65005 1.58826 9.53812 2.16541 11.2716V11.2707ZM0.781207 12.6729L0.772207 12.6639L0.775807 12.6603C0.262743 11.5083 -0.00160893 10.2611 7.36719e-06 9C7.36719e-06 4.0293 4.02931 0 9 0C13.9707 0 18 4.0293 18 9C18 13.9707 13.9707 18 9 18C5.33701 18 2.18701 15.813 0.781207 12.6729Z" fill="#A5A5A5"/>
</svg>
