<svg width="19" height="19" viewBox="0 0 19 19" fill="none" xmlns="http://www.w3.org/2000/svg">
<path d="M17.7262 3.1971H15.971V1.53339C15.971 1.2952 15.7812 1.12031 15.5401 1.12031C15.299 1.12031 15.1093 1.2952 15.1093 1.53339V3.1971H13.2524C13.0113 3.1971 12.8215 3.37199 12.8215 3.61018C12.8215 3.84837 13.0113 4.02326 13.2524 4.02326H15.1093V5.78356C15.1093 6.02175 15.299 6.19664 15.5401 6.19664C15.7812 6.19664 15.971 6.02175 15.971 5.78356V3.97496H17.7262C17.9673 3.97496 18.1571 3.80007 18.1571 3.56188C18.1571 3.36498 17.9595 3.1971 17.7262 3.1971Z" fill="#A5A5A5" stroke="#A5A5A5" stroke-width="0.15"/>
<path d="M12.7975 2.12715L12.8155 2.1186L12.83 2.10487C12.8865 2.05119 12.9395 1.98802 12.9682 1.91525C12.9959 1.84513 12.9997 1.76844 12.9687 1.69301C12.9596 1.61525 12.9179 1.54961 12.8748 1.50187C12.8245 1.4461 12.7598 1.40047 12.6958 1.37006L12.6881 1.36639L12.6799 1.36381C11.7564 1.07137 10.7774 0.875 9.7952 0.875C4.85268 0.875 0.875 4.64298 0.875 9.25884C0.875 10.2358 1.02892 11.2152 1.3895 12.1475C1.42768 12.2832 1.52183 12.3708 1.63708 12.4129C1.74921 12.4539 1.87713 12.4511 1.99483 12.4232C2.13572 12.3897 2.23179 12.3016 2.27881 12.1855C2.32356 12.075 2.32026 11.9493 2.29019 11.8351L2.29078 11.8349L2.28648 11.8234C1.98537 11.0129 1.78603 10.1105 1.78591 9.2596C1.83628 5.13106 5.33458 1.75287 9.74436 1.75287C10.6435 1.75287 11.4924 1.89478 12.3421 2.179C12.4257 2.21585 12.5169 2.21117 12.5893 2.19742C12.6665 2.18275 12.7405 2.15424 12.7975 2.12715Z" fill="#A5A5A5" stroke="#A5A5A5" stroke-width="0.25"/>
<path d="M17.2898 5.75423L17.2897 5.7539L17.2809 5.75668C17.0539 5.82855 16.9297 6.09638 16.9944 6.34233L16.997 6.35202L17.001 6.36117C17.4002 7.26194 17.6004 8.25882 17.6004 9.25666C17.6004 13.3835 14.0529 16.7626 9.69275 16.7626C7.9889 16.7626 6.28686 16.2388 4.9373 15.2416L4.93749 15.2413L4.9299 15.2365C4.73441 15.1127 4.46707 15.1112 4.26853 15.2998L4.24278 15.3243L4.23374 15.3586C4.20629 15.4629 4.18929 15.5783 4.20559 15.6867C4.22234 15.7981 4.27528 15.9051 4.38572 15.9766C5.93223 17.102 7.78718 17.6888 9.69275 17.6888C14.5854 17.6888 18.5621 13.9199 18.5621 9.25666C18.5621 8.13167 18.3563 7.05282 17.8921 6.02204C17.8513 5.91166 17.7586 5.83102 17.6548 5.78551C17.5478 5.7386 17.4184 5.72367 17.2898 5.75423Z" fill="#A5A5A5" stroke="#A5A5A5" stroke-width="0.25"/>
<path d="M3.31627 15.36L3.31601 15.36L3.31784 15.3661L4.02676 17.7233C4.03065 17.7925 4.06721 17.8536 4.10928 17.9002C4.15472 17.9505 4.21384 17.9924 4.27259 18.0203C4.3354 18.0501 4.40941 18.0632 4.48261 18.0695C4.55574 18.0759 4.63469 18.0759 4.70966 18.0759H4.71148V18.0772L4.72548 18.0745C4.87548 18.046 4.98349 17.959 5.04476 17.8426C5.10508 17.728 5.11829 17.5889 5.08991 17.4541L5.09027 17.4541L5.08804 17.447L4.5012 15.5887L6.45746 15.0311C6.60567 15.002 6.7125 14.9154 6.7733 14.7999C6.83361 14.6853 6.84683 14.5462 6.81845 14.4114C6.78768 14.2652 6.69427 14.1627 6.57388 14.1056C6.45526 14.0492 6.31152 14.0369 6.17182 14.0634L6.17178 14.0632L6.16618 14.0647L3.67775 14.7401C3.52928 14.7692 3.42229 14.8559 3.36142 14.9715C3.30111 15.0861 3.28789 15.2252 3.31627 15.36Z" fill="#A5A5A5" stroke="#A5A5A5" stroke-width="0.15"/>
<path d="M7.69038 5.78125H8.91795V11.0945H8.89686C8.68521 11.0945 8.49467 11.0118 8.32535 10.8671C8.17719 10.7017 8.0924 10.5363 8.0924 10.3296V6.58752H7.66909V10.4122C7.69025 10.7223 7.81729 10.9705 8.02895 11.1772C8.26177 11.4046 8.55821 11.5287 8.89686 11.5287C9.23551 11.5287 9.51059 11.4046 9.76457 11.1772C9.9974 10.9498 10.1244 10.6603 10.1244 10.3296V5.78125H11.7542C11.9871 5.78125 12.1563 5.9673 12.1563 6.17404V10.6397C12.1563 10.9911 12.0928 11.3219 11.9446 11.632C11.8176 11.9421 11.6059 12.2109 11.3731 12.459C11.1403 12.6864 10.8439 12.8931 10.5265 13.0172C9.87032 13.2859 9.12969 13.2859 8.47355 13.0172C8.15606 12.8931 7.85974 12.6864 7.62692 12.459C7.52109 12.3556 7.41518 12.2522 7.33052 12.1282L7.3516 12.1489H7.37289C8.87566 13.3687 11.3309 12.4177 11.3309 10.2469V6.91833H11.6695L11.1403 6.09136L10.6112 6.91833H10.9498V10.3296C10.9498 10.5983 10.9075 10.8464 10.7805 11.0945C10.6747 11.3219 10.5266 11.5493 10.3361 11.7354C9.74345 12.3143 8.87566 12.4796 8.11369 12.1695C7.88087 12.0662 7.64792 11.9215 7.45743 11.7354C7.26694 11.5493 7.11886 11.3426 7.01303 11.0945C6.90721 10.8464 6.84375 10.5983 6.84375 10.3296V6.17404C6.84375 5.94662 7.03412 5.78125 7.24577 5.78125H7.69038Z" fill="#A5A5A5"/>
</svg>
