<svg width="36" height="36" viewBox="0 0 36 36" fill="none" xmlns="http://www.w3.org/2000/svg">
<path d="M22.5996 10.6004C22.5996 10.2004 22.2996 9.90039 21.8996 9.90039H12.2996C11.8996 9.90039 11.5996 10.2004 11.5996 10.6004C11.5996 11.0004 11.8996 11.3004 12.2996 11.3004H14.9996C16.5996 11.3004 17.9996 12.5004 18.3996 14.1004H12.2996C11.8996 14.1004 11.5996 14.4004 11.5996 14.8004C11.5996 15.2004 11.8996 15.5004 12.2996 15.5004H18.3996C18.0996 17.1004 16.6996 18.3004 14.9996 18.3004H12.2996C11.9996 18.3004 11.7996 18.5004 11.6996 18.7004C11.5996 19.0004 11.6996 19.3004 11.8996 19.4004L18.7996 25.9004C18.9996 26.1004 19.1996 26.1004 19.4996 26.1004C19.6996 26.0004 19.8996 25.8004 19.9996 25.6004C20.0996 25.4004 19.9996 25.1004 19.7996 24.9004L14.1996 19.6004H15.1996C17.5996 19.6004 19.5996 17.8004 19.8996 15.5004H21.9996C22.3996 15.5004 22.6996 15.2004 22.6996 14.8004C22.6996 14.4004 22.3996 14.1004 21.9996 14.1004H19.8996C19.6996 13.1004 19.2996 12.1004 18.4996 11.3004H21.9996C22.2996 11.3004 22.5996 10.9004 22.5996 10.6004Z" fill="#721B65"/>
<path d="M19.7992 2C21.2992 2 21.3992 2.3 22.7992 2.6C20.5992 1.6 19.5992 1 17.0992 1C7.79922 1 0.199219 8.6 0.199219 17.9C0.199219 20.5 0.599219 21.2 1.69922 23.4C1.29922 21.9 1.29922 22.1 1.29922 20.5C1.29922 15.4 3.89922 11.5 7.19922 8.1C10.5992 4.8 14.6992 2 19.7992 2Z" fill="#F1E8F0"/>
<path d="M34.4004 4.3H30.8004V0.7C30.8004 0.3 30.5004 0 30.1004 0C29.7004 0 29.4004 0.3 29.4004 0.7V4.3H25.6004C25.2004 4.3 24.9004 4.6 24.9004 5C24.9004 5.4 25.2004 5.7 25.6004 5.7H29.4004V9.5C29.4004 9.9 29.7004 10.2 30.1004 10.2C30.5004 10.2 30.8004 9.9 30.8004 9.5V5.6H34.4004C34.8004 5.6 35.1004 5.3 35.1004 4.9C35.1004 4.6 34.8004 4.3 34.4004 4.3Z" fill="#721B65"/>
<path d="M17.2 2.10078C19 2.10078 20.7 2.40078 22.4 3.00078C22.6 3.10078 22.9 3.00078 23.1 2.90078C23.3 2.70078 23.4 2.50078 23.3 2.30078C23.3 2.10078 23.1 1.90078 22.9 1.80078C21.1 1.20078 19.2 0.800781 17.3 0.800781C7.7 0.800781 0 8.50078 0 17.9008C0 19.9008 0.3 21.9008 1 23.8008C1.1 24.2008 1.5 24.3008 1.9 24.2008C2.3 24.1008 2.4 23.7008 2.3 23.3008C1.7 21.6008 1.3 19.7008 1.3 17.9008C1.4 9.20078 8.4 2.10078 17.2 2.10078Z" fill="#721B65"/>
<path d="M6.80082 31.5991C9.80082 33.8991 13.4008 35.0991 17.1008 35.0991C26.6008 35.0991 34.3008 27.3991 34.3008 17.8991C34.3008 15.5991 33.9008 13.3991 33.0008 11.2991C32.9008 10.9991 32.5008 10.7991 32.1008 10.8991C31.8008 10.9991 31.6008 11.3991 31.7008 11.7991C32.5008 13.6991 32.9008 15.7991 32.9008 17.8991C32.9008 26.5991 25.8008 33.6991 17.1008 33.6991C13.7008 33.6991 10.3008 32.5991 7.60082 30.4991C7.30082 30.2991 6.90082 30.2991 6.60082 30.5991C6.50082 30.9991 6.50082 31.3991 6.80082 31.5991Z" fill="#721B65"/>
<path d="M6.50078 35.8996C6.30078 35.7996 6.10078 35.5996 6.10078 35.3996L4.70078 30.4996C4.60078 29.9996 4.80078 29.4996 5.30078 29.3996L10.2008 27.9996C10.7008 27.8996 11.2008 28.0996 11.3008 28.5996C11.4008 29.0996 11.2008 29.5996 10.7008 29.6996L6.70078 30.8996L7.90078 34.8996C8.00078 35.3996 7.80078 35.8996 7.30078 35.9996C7.00078 35.9996 6.70078 35.9996 6.50078 35.8996Z" fill="#721B65"/>
</svg>
