<svg width="160" height="153" viewBox="0 0 160 153" fill="none" xmlns="http://www.w3.org/2000/svg">
<g clip-path="url(#clip0)">
<path d="M7.21311 0H75.5809C79.5723 0 82.794 3.18105 82.794 7.12217V145.878C82.794 149.819 79.5723 153 75.5809 153H7.21311C3.22167 153 0 149.819 0 145.878V7.12217C0 3.18105 3.22167 0 7.21311 0Z" fill="#721B65"/>
<path d="M5.50195 14.3848H77.3195V132.309H5.50195V14.3848Z" fill="white"/>
<path d="M41.3963 147.426C44.2148 147.426 46.4997 145.17 46.4997 142.387C46.4997 139.604 44.2148 137.348 41.3963 137.348C38.5778 137.348 36.293 139.604 36.293 142.387C36.293 145.17 38.5778 147.426 41.3963 147.426Z" fill="white"/>
<path d="M47.8395 4.98242H34.9528C34.069 4.98242 33.3848 5.68619 33.3848 6.53072C33.3848 7.37525 34.0975 8.07902 34.9528 8.07902H47.8395C48.7233 8.07902 49.4076 7.37525 49.4076 6.53072C49.4076 5.68619 48.7233 4.98242 47.8395 4.98242Z" fill="white"/>
<path d="M65.2618 87.2239L64.8316 87.6485L64.8048 87.675C64.7779 87.7016 64.751 87.7281 64.7241 87.7546C64.6972 87.7546 64.6972 87.7812 64.6703 87.8077C61.0409 91.3635 57.9492 93.3802 54.8575 93.1944C48.4321 92.8229 39.1033 86.6401 31.0917 78.9183C23.2683 71.0372 17.0043 61.8028 16.601 55.4608C16.4397 52.4888 18.4023 49.4638 21.9241 45.9611C21.9779 45.908 22.0317 45.8549 22.0854 45.8019L22.7038 45.1915C23.6178 44.2893 25.3922 43.3075 26.6558 44.5547L35.8771 53.6299C36.845 54.5851 36.4955 56.3365 35.0706 57.6898L34.5329 58.2205C33.4844 59.1227 32.6779 60.2638 32.194 61.5375C30.8766 65.0932 34.2372 68.5694 37.9203 72.2048C41.5766 75.8136 45.0985 79.1571 48.7279 77.8569C50.0183 77.3527 51.1475 76.5831 52.0615 75.5483C52.0615 75.5483 52.1153 75.4952 52.1691 75.4421L52.2229 75.389L52.2497 75.3625C52.3842 75.2033 52.5723 75.0441 52.5723 75.0441C53.5133 73.7704 55.3146 73.3989 56.6857 74.248L65.907 83.3232C66.7135 84.5969 66.4447 86.2686 65.2618 87.2239Z" fill="#FFD868"/>
<path d="M71.0488 91.096L115.525 56.752L160.001 91.096H71.0488Z" fill="#721B65"/>
<path d="M160.001 91.0957H71.0488V152.971H160.001V91.0957Z" fill="#721B65"/>
<path d="M71.0488 152.943L115.525 122.034L71.0488 91.0957V152.943Z" fill="#FFD868"/>
<path d="M160.002 152.943L115.525 122.034L160.002 91.0957V152.943Z" fill="#FFD868"/>
<path d="M115.525 122.034L104.663 114.461L71.0488 152.943H160.001L126.387 114.461L115.525 122.034Z" fill="#F9C850"/>
<path d="M71.0488 91.0957L115.525 113.926L160.001 91.0957L115.525 122.034L71.0488 91.0957Z" fill="#410638"/>
<path d="M150.336 70.9688V98.4159L115.525 122.034V122.006V122.034L80.7422 98.4159V70.9688H150.336Z" fill="white"/>
<path d="M141.811 83.8886C141.811 84.5079 141.298 85.0427 140.642 85.0427H90.4072C89.78 85.0427 89.2383 84.536 89.2383 83.8886C89.2383 83.2692 89.7515 82.7344 90.4072 82.7344H140.642C141.298 82.7344 141.811 83.2692 141.811 83.8886Z" fill="#721B65"/>
<path d="M141.811 91.0956C141.811 91.7149 141.298 92.2498 140.642 92.2498H90.4072C89.78 92.2498 89.2383 91.7431 89.2383 91.0956C89.2383 90.4763 89.7515 89.9414 90.4072 89.9414H140.642C141.298 89.9414 141.811 90.4763 141.811 91.0956Z" fill="#721B65"/>
<path d="M141.811 98.3026C141.811 98.922 141.298 99.4568 140.642 99.4568H90.4072C89.78 99.4568 89.2383 98.9501 89.2383 98.3026C89.2383 97.6833 89.7515 97.1484 90.4072 97.1484H140.642C141.298 97.1484 141.811 97.6552 141.811 98.3026Z" fill="#721B65"/>
</g>
<defs>
<clipPath id="clip0">
<rect width="160" height="153" fill="white"/>
</clipPath>
</defs>
</svg>
