<svg width="26" height="26" viewBox="0 0 26 26" fill="none" xmlns="http://www.w3.org/2000/svg">
<g clip-path="url(#clip0)">
<path d="M3.49922 0.799805H0.699219V23.2998H3.49922V0.799805Z" fill="#2E384D" fill-opacity="0.2"/>
<path d="M14.6004 11.7002H11.9004V23.3002H14.6004V11.7002Z" fill="#2E384D" fill-opacity="0.2"/>
<path d="M20.8 11.4H13V0.8C13 0.4 12.7 0 12.2 0H0.8C0.4 0 0 0.4 0 0.8V23.6C0 24 0.4 24.4 0.8 24.4H20.8C21.2 24.4 21.6 24 21.6 23.6V12.2C21.6 11.8 21.2 11.4 20.8 11.4ZM1.6 1.6H11.4V22.8H9V19.5C9 19.1 8.6 18.7 8.2 18.7H4.9C4.5 18.7 4.1 19.1 4.1 19.5V22.8H1.6V1.6ZM5.7 22.8V20.4H7.3V22.8H5.7ZM20 22.8H13V13H20V22.8Z" fill="#2E384D"/>
<path d="M4.90078 3.2998H3.30078V4.8998H4.90078V3.2998Z" fill="#2E384D"/>
<path d="M7.30117 3.2998H5.70117V4.8998H7.30117V3.2998Z" fill="#2E384D"/>
<path d="M9.70156 3.2998H8.10156V4.8998H9.70156V3.2998Z" fill="#2E384D"/>
<path d="M4.90078 7.2998H3.30078V8.8998H4.90078V7.2998Z" fill="#2E384D"/>
<path d="M7.30117 7.2998H5.70117V8.8998H7.30117V7.2998Z" fill="#2E384D"/>
<path d="M9.70156 7.2998H8.10156V8.8998H9.70156V7.2998Z" fill="#2E384D"/>
<path d="M4.90078 11.3999H3.30078V12.9999H4.90078V11.3999Z" fill="#2E384D"/>
<path d="M7.30117 11.3999H5.70117V12.9999H7.30117V11.3999Z" fill="#2E384D"/>
<path d="M9.70156 11.3999H8.10156V12.9999H9.70156V11.3999Z" fill="#2E384D"/>
<path d="M4.90078 15.5H3.30078V17.1H4.90078V15.5Z" fill="#2E384D"/>
<path d="M7.30117 15.5H5.70117V17.1H7.30117V15.5Z" fill="#2E384D"/>
<path d="M9.70156 15.5H8.10156V17.1H9.70156V15.5Z" fill="#2E384D"/>
<path d="M16.2992 14.7002H14.6992V16.3002H16.2992V14.7002Z" fill="#2E384D"/>
<path d="M18.6996 14.7002H17.0996V16.3002H18.6996V14.7002Z" fill="#2E384D"/>
<path d="M16.2992 17.1001H14.6992V18.7001H16.2992V17.1001Z" fill="#2E384D"/>
<path d="M18.6996 17.1001H17.0996V18.7001H18.6996V17.1001Z" fill="#2E384D"/>
<path d="M16.2992 19.5H14.6992V21.1H16.2992V19.5Z" fill="#2E384D"/>
<path d="M18.6996 19.5H17.0996V21.1H18.6996V19.5Z" fill="#2E384D"/>
<path d="M19.6004 25.1002C22.4723 25.1002 24.8004 22.7721 24.8004 19.9002C24.8004 17.0283 22.4723 14.7002 19.6004 14.7002C16.7285 14.7002 14.4004 17.0283 14.4004 19.9002C14.4004 22.7721 16.7285 25.1002 19.6004 25.1002Z" fill="white"/>
<path d="M16.9008 20.9C16.9008 18 19.1008 15.6 21.8008 15.6C22.0008 15.6 22.1008 15.6 22.3008 15.6C20.7008 14.2 18.4008 14.1 16.6008 15.3C14.9008 16.5 14.0008 18.8 14.5008 21C15.0008 23.2 16.7008 24.8 18.8008 25C17.6008 24 16.9008 22.5 16.9008 20.9Z" fill="#2E384D" fill-opacity="0.2"/>
<path d="M22.0996 14.2998C21.8996 14.1998 21.5996 14.0998 21.3996 13.9998C20.8996 13.7998 20.2996 13.7998 19.6996 13.7998C16.2996 13.7998 13.5996 16.4998 13.5996 19.8998C13.5996 21.3998 14.0996 22.7998 15.0996 23.8998C15.2996 24.1998 15.5996 24.3998 15.7996 24.5998C16.8996 25.4998 18.1996 25.9998 19.6996 25.9998C23.0996 25.9998 25.7996 23.2998 25.7996 19.8998C25.7996 17.4998 24.3996 15.2998 22.0996 14.2998ZM19.6996 24.3998C18.8996 24.3998 18.1996 24.1998 17.4996 23.7998C17.1996 23.5998 16.8996 23.3998 16.6996 23.1998C15.7996 22.2998 15.1996 21.0998 15.1996 19.8998C15.1996 17.3998 17.1996 15.3998 19.6996 15.3998C20.1996 15.3998 20.6996 15.4998 21.0996 15.5998C21.2996 15.6998 21.4996 15.6998 21.6996 15.8998C23.1996 16.6998 24.1996 18.1998 24.1996 19.8998C24.1996 22.3998 22.1996 24.3998 19.6996 24.3998Z" fill="#2E384D"/>
<path d="M21.9996 19.0998H20.4996V17.5998C20.4996 17.1998 20.0996 16.7998 19.6996 16.7998C19.2996 16.7998 18.8996 17.1998 18.8996 17.5998V19.0998H17.3996C16.9996 19.0998 16.5996 19.4998 16.5996 19.8998C16.5996 20.2998 16.9996 20.6998 17.3996 20.6998H18.8996V22.1998C18.8996 22.5998 19.2996 22.9998 19.6996 22.9998C20.0996 22.9998 20.4996 22.5998 20.4996 22.1998V20.6998H21.9996C22.3996 20.6998 22.7996 20.2998 22.7996 19.8998C22.7996 19.4998 22.4996 19.0998 21.9996 19.0998Z" fill="#2E384D"/>
</g>
<defs>
<clipPath id="clip0">
<rect width="25.8" height="26" fill="white"/>
</clipPath>
</defs>
</svg>

