<svg width="26" height="26" viewBox="0 0 26 26" fill="none" xmlns="http://www.w3.org/2000/svg">
<path d="M4.00078 12.9998C4.00078 6.7998 8.60078 1.6998 14.6008 0.899805C14.0008 0.799805 13.5008 0.799805 13.0008 0.799805C6.20078 0.799805 0.800781 6.2998 0.800781 12.9998C0.800781 19.6998 6.20078 25.1998 13.0008 25.1998C13.5008 25.1998 14.1008 25.1998 14.6008 25.0998C8.60078 24.2998 4.00078 19.1998 4.00078 12.9998Z"  fill-opacity="0.1"/>
<path d="M9.40039 16.1C9.40039 13.6 11.3004 11.4 13.7004 11.1C13.5004 11 13.3004 11 13.0004 11C10.2004 11 7.90039 13.3 7.90039 16.1C7.90039 18.9 10.2004 21.2 13.0004 21.2C13.3004 21.2 13.5004 21.2 13.8004 21.1C11.3004 20.7 9.40039 18.6 9.40039 16.1Z"  fill-opacity="0.1"/>
<path d="M25.1 12.1C24.6 12.1 24.2 12.5 24.2 13C24.2 19.2 19.1 24.3 12.9 24.3C6.7 24.3 1.7 19.2 1.7 13C1.7 6.8 6.8 1.7 13 1.7C15.4 1.7 17.6 2.4 19.6 3.8L20.2 4.2H18C17.5 4.2 17.1 4.6 17.1 5.1C17.1 5.6 17.5 6 17.9 6H22.2C22.7 6 23.1 5.6 23.1 5.1V0.9C23.1 0.4 22.7 0 22.2 0C21.7 0 21.3 0.4 21.3 0.9V3L21 2.7C18.7 1 15.9 0 13 0C9.5 0 6.2 1.4 3.8 3.8C1.4 6.2 0 9.5 0 13C0 16.5 1.4 19.8 3.8 22.2C6.3 24.6 9.5 26 13 26C16.5 26 19.8 24.6 22.2 22.2C24.7 19.7 26 16.5 26 13C26 12.5 25.6 12.1 25.1 12.1Z" />
<path d="M13.0004 3.7002C10.3004 3.7002 8.20039 5.9002 8.20039 8.6002V12.3002C7.30039 13.4002 6.90039 14.7002 6.90039 16.1002C6.90039 19.5002 9.70039 22.3002 13.1004 22.3002C16.5004 22.3002 19.3004 19.5002 19.3004 16.2002C19.3004 14.8002 18.9004 13.5002 18.0004 12.4002V8.6002C17.9004 5.9002 15.7004 3.7002 13.0004 3.7002ZM13.0004 20.5002C10.6004 20.5002 8.60039 18.5002 8.60039 16.1002C8.60039 13.6002 10.6004 11.6002 13.0004 11.6002C15.5004 11.6002 17.5004 13.6002 17.5004 16.1002C17.5004 18.5002 15.5004 20.5002 13.0004 20.5002ZM13.0004 5.5002C14.7004 5.5002 16.1004 6.9002 16.1004 8.6002V10.8002L15.8004 10.6002C14.0004 9.7002 11.9004 9.7002 10.1004 10.6002L9.80039 10.8002V8.6002C9.90039 6.9002 11.3004 5.5002 13.0004 5.5002Z" />
<path d="M14.2004 15.0002C14.0004 14.5002 13.6004 14.2002 13.1004 14.2002C12.6004 14.2002 12.2004 14.5002 12.0004 15.0002C11.8004 15.5002 12.0004 16.0002 12.3004 16.3002V17.2002C12.3004 17.6002 12.6004 17.9002 13.0004 17.9002C13.4004 17.9002 13.7004 17.6002 13.7004 17.2002V16.3002C14.2004 16.0002 14.4004 15.5002 14.2004 15.0002Z" />
</svg>

