<svg width="21" height="26" viewBox="0 0 21 26" fill="none" xmlns="http://www.w3.org/2000/svg">
<g clip-path="url(#clip0)">
<path d="M15.201 10.1999C15.001 9.9999 14.801 9.8999 14.601 9.8999C14.401 9.8999 14.201 9.8999 14.001 10.0999L8.80095 14.2999L6.80095 11.9999C6.50095 11.5999 6.00095 11.5999 5.60095 11.8999C5.20095 12.1999 5.20095 12.6999 5.50095 13.0999L8.10095 15.9999C8.30095 16.1999 8.50095 16.2999 8.70095 16.2999C8.90095 16.2999 9.10095 16.1999 9.20095 16.0999L15.001 11.3999C15.401 11.0999 15.501 10.4999 15.201 10.1999Z" />
<path d="M20 5.1999L10.5 0.0999023C10.2 -9.76548e-05 9.9 -9.76548e-05 9.7 0.0999023L0.4 5.1999C0.2 5.2999 0 5.5999 0 5.8999V12.4999C0 18.0999 3.3 23.0999 8.4 25.3999L9.7 25.9999C9.8 25.9999 9.9 25.9999 10 25.9999C10.1 25.9999 10.2 25.9999 10.3 25.8999L11.7 25.2999C16.9 23.0999 20.3 17.9999 20.3 12.3999V5.8999C20.4 5.5999 20.2 5.2999 20 5.1999ZM18.7 6.3999V12.3999C18.7 17.3999 15.7 21.8999 11.1 23.7999L10 24.2999L9.1 23.8999C4.6 21.8999 1.7 17.4999 1.7 12.5999V6.3999L10.1 1.7999L18.7 6.3999Z" />
<path d="M13.3004 21.4001L12.0004 21.9001L11.0004 21.5001C6.40039 19.5001 3.40039 14.9001 3.40039 9.8001V5.1001L1.40039 6.2001V12.5001C1.40039 17.6001 4.40039 22.1001 9.00039 24.2001L10.1004 24.7001L11.4004 24.2001C14.0004 23.1001 16.2004 21.2001 17.6004 18.7001C16.3004 19.8001 14.9004 20.7001 13.3004 21.4001Z"  fill-opacity="0.2"/>
</g>
<defs>
<clipPath id="clip0">
<rect width="20.4" height="26" fill="white"/>
</clipPath>
</defs>
</svg>

