<svg width="29" height="26" viewBox="0 0 29 26" fill="none" xmlns="http://www.w3.org/2000/svg">
<g clip-path="url(#clip0)">
<path d="M10.0008 3.1002H23.4008V1.8002C23.4008 1.5002 23.1008 1.2002 22.8008 1.2002H7.00078C6.70078 1.2002 6.40078 1.5002 6.40078 1.8002V20.5002C6.40078 21.2002 6.20078 21.9002 5.80078 22.4002H8.90078V4.3002C8.80078 3.6002 9.40078 3.1002 10.0008 3.1002Z"  fill-opacity="0.1"/>
<path d="M9.99922 7.1C9.59922 7.1 9.19922 6.8 9.19922 6.3C9.19922 5.9 9.59922 5.5 9.99922 5.5H13.2992C13.6992 5.5 14.0992 5.9 14.0992 6.3C14.0992 6.7 13.6992 7.1 13.2992 7.1H9.99922Z" />
<path d="M9.99922 12.3002C9.59922 12.3002 9.19922 11.9002 9.19922 11.5002C9.19922 11.1002 9.59922 10.7002 9.99922 10.7002H15.8992C16.2992 10.7002 16.6992 11.1002 16.6992 11.5002C16.6992 11.9002 16.2992 12.3002 15.8992 12.3002H9.99922Z" />
<path d="M9.99922 16.8998C9.59922 16.8998 9.19922 16.4998 9.19922 16.0998C9.19922 15.6998 9.59922 15.2998 9.99922 15.2998H17.4992C17.8992 15.2998 18.2992 15.6998 18.2992 16.0998C18.2992 16.5998 17.8992 16.8998 17.3992 16.8998H9.99922Z" />
<path d="M23.1 26C21.4 26 19.6 25.1 18.7 23.7H3.3C1.5 23.7 0 22.2 0 20.4V16.2C0 14.4 1.5 12.9 3.3 12.9H5V2C5 0.9 6 0 7.1 0H22.7C23.8 0 24.7 0.9 24.7 2V15.4C27 16.1 28.5 18.2 28.4 20.6C28.5 23.6 26.1 26 23.1 26ZM23.2 16.9C21.1 16.9 19.4 18.6 19.4 20.7C19.4 21.2 19.5 21.7 19.7 22.2C19.9 22.6 20.2 22.9 20.4 23.3C21.2 24.1 22.1 24.5 23.2 24.5C25.3 24.5 27 22.8 27 20.7C27 19.1 25.9 17.6 24.4 17.1C24 17 23.7 16.9 23.2 16.9ZM7 1.7C6.9 1.7 6.7 1.9 6.7 2V20.3C6.7 20.9 6.6 21.4 6.4 21.8L17.9 22C17.8 21.5 17.8 21 17.8 20.5C17.8 17.6 20.1 15.3 23 15.2V2C23 1.8 22.8 1.7 22.7 1.7H7ZM3.3 14.6C2.4 14.6 1.8 15.3 1.8 16.1V20.3C1.8 21.2 2.5 21.9 3.4 21.9C4.3 21.9 5 21.3 5 20.4V14.7L3.3 14.6Z" />
<path d="M25.5 19.1998C25.3 18.9998 24.9 18.9998 24.6 19.1998L22.9 20.8998L22.2 20.2998C22.1 20.1998 22 20.0998 21.7 20.0998C21.4 20.0998 21.3 20.1998 21.2 20.2998C21.1 20.3998 21 20.4998 21 20.7998C21 20.8998 21.1 21.1998 21.2 21.2998L22.3 22.3998C22.4 22.4998 22.5 22.5998 22.8 22.5998C22.9 22.5998 23.2 22.4998 23.3 22.3998L25.5 20.1998C25.6 20.0998 25.7 19.9998 25.7 19.6998C25.7 19.5998 25.6 19.2998 25.5 19.1998Z" />
</g>
<defs>
<clipPath id="clip0">
<rect width="28.6" height="26" fill="white"/>
</clipPath>
</defs>
</svg>

