<svg width="26" height="26" viewBox="0 0 26 26" fill="none" xmlns="http://www.w3.org/2000/svg">
<path d="M4.19922 13.0999C4.19922 7.0999 8.69922 2.1999 14.5992 1.4999C14.1992 1.4999 13.7992 1.3999 13.2992 1.3999C6.89922 1.4999 1.69922 6.6999 1.69922 13.0999C1.69922 19.4999 6.89922 24.6999 13.2992 24.6999C13.6992 24.6999 14.0992 24.6999 14.5992 24.5999C8.69922 23.9999 4.19922 19.0999 4.19922 13.0999Z" fill-opacity="0.1"/>
<path d="M2.1 15.6C2.5 17.2 3.2 18.7 4.2 20C6.7 18.1 9.8 17.1 13 17.1C16.2 17.1 19.3 18.1 21.8 20C22.8 18.7 23.6 17.3 23.9 15.6C24.1 14.7 24.2 13.9 24.2 13C24.2 6.8 19.2 1.8 13 1.8C6.8 1.8 1.8 6.8 1.8 13C1.8 13.9 1.9 14.8 2.1 15.6ZM20.5 21.3C18.4 19.8 15.8 18.9 13 18.9C10.2 18.9 7.6 19.8 5.5 21.3C7.5 23.1 10.1 24.2 13 24.2C15.9 24.2 18.5 23.1 20.5 21.3ZM13 26C5.8 26 0 20.2 0 13C0 5.8 5.8 0 13 0C20.2 0 26 5.8 26 13C26 20.2 20.2 26 13 26Z"/>
<path d="M13.0008 14.2C14.6008 14.2 16.0008 12.9 16.0008 11.2C16.0008 9.5 14.7008 8.2 13.0008 8.2C11.3008 8.2 10.0008 9.5 10.0008 11.2C10.0008 12.9 11.4008 14.2 13.0008 14.2ZM13.0008 16C10.4008 16 8.30078 13.9 8.30078 11.3C8.30078 8.7 10.4008 6.5 13.0008 6.5C15.6008 6.5 17.7008 8.6 17.7008 11.2C17.7008 13.8 15.6008 16 13.0008 16Z"/>
</svg>

