<svg width="26" height="24" viewBox="0 0 26 24" fill="none" xmlns="http://www.w3.org/2000/svg">
<path fill-rule="evenodd" clip-rule="evenodd" d="M24.4489 16.2064H19.5575C17.2653 16.2064 15.3996 14.3419 15.3984 12.0509C15.3984 9.7575 17.2641 7.89183 19.5575 7.89062H24.4489C24.9491 7.89062 25.3551 8.29663 25.3551 8.79688C25.3551 9.29713 24.9491 9.70312 24.4489 9.70312H19.5575C18.2634 9.70433 17.2109 10.7568 17.2109 12.0497C17.2109 13.3414 18.2646 14.3939 19.5575 14.3939H24.4489C24.9491 14.3939 25.3551 14.7999 25.3551 15.3001C25.3551 15.8004 24.9491 16.2064 24.4489 16.2064Z" />
<path fill-rule="evenodd" clip-rule="evenodd" d="M20.1104 12.8828H19.7334C19.2331 12.8828 18.8271 12.4768 18.8271 11.9766C18.8271 11.4763 19.2331 11.0703 19.7334 11.0703H20.1104C20.6106 11.0703 21.0166 11.4763 21.0166 11.9766C21.0166 12.4768 20.6106 12.8828 20.1104 12.8828Z" />
<mask id="mask0" mask-type="alpha" maskUnits="userSpaceOnUse" x="0" y="0" width="26" height="24">
<path fill-rule="evenodd" clip-rule="evenodd" d="M0.416992 0.625H25.3553V23.7923H0.416992V0.625Z" fill="white"/>
</mask>
<g mask="url(#mask0)">
<path fill-rule="evenodd" clip-rule="evenodd" d="M7.66458 2.4375C4.66791 2.4375 2.22949 4.87592 2.22949 7.87258V16.5448C2.22949 19.5415 4.66791 21.9799 7.66458 21.9799H18.1094C21.1061 21.9799 23.5433 19.5415 23.5433 16.5448V7.87258C23.5433 4.87592 21.1061 2.4375 18.1094 2.4375H7.66458ZM18.1094 23.7924H7.66458C3.66862 23.7924 0.416992 20.5408 0.416992 16.5448V7.87258C0.416992 3.87542 3.66862 0.625 7.66458 0.625H18.1094C22.1054 0.625 25.3558 3.87542 25.3558 7.87258V16.5448C25.3558 20.5408 22.1054 23.7924 18.1094 23.7924Z" />
</g>
<path fill-rule="evenodd" clip-rule="evenodd" d="M13.3275 7.92188H6.80371C6.30346 7.92188 5.89746 7.51588 5.89746 7.01562C5.89746 6.51538 6.30346 6.10938 6.80371 6.10938H13.3275C13.8278 6.10938 14.2338 6.51538 14.2338 7.01562C14.2338 7.51588 13.8278 7.92188 13.3275 7.92188Z" />
</svg>

