<svg width="20" height="20" viewBox="0 0 20 20" fill="none" xmlns="http://www.w3.org/2000/svg">
<g id="Iconly/Light/Graph">
<g id="Graph">
<path id="Stroke 1" fill-rule="evenodd" clip-rule="evenodd" d="M14.3976 11.574C14.9599 11.574 15.4318 12.0381 15.3458 12.5933C14.8415 15.86 12.045 18.2854 8.67216 18.2854C4.94058 18.2854 1.91602 15.2609 1.91602 11.5302C1.91602 8.4565 4.2511 5.59334 6.88005 4.94597C7.44496 4.8065 8.02391 5.20387 8.02391 5.78545C8.02391 9.7258 8.15637 10.7451 8.90461 11.2995C9.65286 11.8539 10.5327 11.574 14.3976 11.574Z" stroke="white" stroke-width="1.5" stroke-linecap="round" stroke-linejoin="round"/>
<path id="Stroke 3" fill-rule="evenodd" clip-rule="evenodd" d="M18.0768 8.293C18.1215 5.76142 15.0119 1.68072 11.2224 1.75089C10.9277 1.75616 10.6917 2.00177 10.6785 2.29563C10.5829 4.37721 10.7119 7.07458 10.7838 8.29738C10.8057 8.67809 11.1049 8.97721 11.4847 8.99914C12.7417 9.07107 15.5373 9.16931 17.5891 8.85879C17.868 8.81668 18.0724 8.57458 18.0768 8.293Z" stroke="white" stroke-width="1.5" stroke-linecap="round" stroke-linejoin="round"/>
</g>
</g>
</svg>
