<svg width="20" height="20" viewBox="0 0 20 20" fill="none" xmlns="http://www.w3.org/2000/svg">
<path d="M12.969 6.5127H8.99542C8.6452 6.5127 8.36133 6.79654 8.36133 7.14679C8.36133 7.49701 8.64517 7.78088 8.99542 7.78088H12.969C13.3195 7.78088 13.6031 7.49704 13.6031 7.14679C13.6031 6.79654 13.3192 6.5127 12.969 6.5127Z" fill="white"/>
<path d="M14.4908 9.57715H8.99542C8.6452 9.57715 8.36133 9.86099 8.36133 10.2112C8.36133 10.5615 8.64517 10.8453 8.99542 10.8453H14.4908C14.841 10.8453 15.1249 10.5615 15.1249 10.2112C15.1249 9.86099 14.841 9.57715 14.4908 9.57715Z" fill="white"/>
<path d="M17.3659 3H6.14266C5.79244 3 5.50856 3.2663 5.50856 3.59491V9.2068H4.38838C3.07138 9.2068 2 10.2122 2 11.4476V14.7592C2 15.9948 3.07138 17 4.38838 17C4.49616 17 4.60228 16.9933 4.70606 16.9802H15.1678C16.7293 16.9802 18 15.7882 18 14.323V3.59491C18 3.2663 17.7162 3 17.3659 3ZM5.50859 14.7592C5.50859 15.269 5.11947 15.6954 4.60525 15.7904H4.38841V15.8102C3.77059 15.8102 3.26819 15.3386 3.26819 14.7592V11.4476C3.26819 10.8682 3.77081 10.3966 4.38841 10.3966H5.50863L5.50859 14.7592ZM16.7318 14.3229C16.7318 15.1183 16.0157 15.7904 15.1678 15.7904H6.50853C6.67994 15.4816 6.77675 15.1308 6.77675 14.7592V4.18979H16.7318V14.3229Z" fill="white"/>
<path d="M12.969 12.4521H8.99542C8.6452 12.4521 8.36133 12.736 8.36133 13.0862C8.36133 13.4365 8.64517 13.7203 8.99542 13.7203H12.969C13.3195 13.7203 13.6031 13.4365 13.6031 13.0862C13.6031 12.736 13.3192 12.4521 12.969 12.4521Z" fill="white"/>
</svg>
