<svg width="346" height="200" viewBox="0 0 346 200" fill="none" xmlns="http://www.w3.org/2000/svg">
<path opacity="0.52" d="M172.939 199.999C268.451 199.999 345.878 191.551 345.878 181.129C345.878 170.707 268.451 162.258 172.939 162.258C77.4275 162.258 0 170.707 0 181.129C0 191.551 77.4275 199.999 172.939 199.999Z" fill="#F1E8F0"/>
<path d="M320.665 0H123.934V133.135H320.665V0Z" fill="#F1E8F0"/>
<path opacity="0.5" d="M267.769 17.5312H137.902V101.93H267.769V17.5312Z" fill="#721B65"/>
<path d="M261.527 11.5898H131.66V95.9882H261.527V11.5898Z" fill="#721B65"/>
<path d="M313.53 16.9375H276.383V25.5556H313.53V16.9375Z" fill="#B6B9C1"/>
<path d="M313.53 30.9062H276.383V39.5243H313.53V30.9062Z" fill="#B6B9C1"/>
<path d="M313.53 44.875H276.383V53.493H313.53V44.875Z" fill="#B6B9C1"/>
<path d="M313.53 72.8086H276.383V81.4267H313.53V72.8086Z" fill="#B6B9C1"/>
<path d="M265.388 116.492H156.324V121.544H265.388V116.492Z" fill="#B6B9C1"/>
<path d="M196.592 79.345C210.707 79.345 222.15 67.9026 222.15 53.7877C222.15 39.6728 210.707 28.2305 196.592 28.2305C182.478 28.2305 171.035 39.6728 171.035 53.7877C171.035 67.9026 182.478 79.345 196.592 79.345Z" fill="white"/>
<path d="M182.773 51.9086L195.352 64.4869L223.784 36.0547" stroke="#2DBE60" stroke-width="8" stroke-miterlimit="10"/>
<path d="M26.1641 94.2045L85.3023 92.7188C85.3023 92.7188 87.0853 147.399 107.293 146.508C127.501 145.616 132.553 135.809 132.553 135.809L136.714 147.399C136.714 147.399 116.506 180.386 83.2222 170.876C49.9383 161.366 42.2118 151.857 26.1641 94.2045Z" fill="#721B65"/>
<path d="M215.908 177.02C216.313 179.529 216.345 182.117 215.805 184.497C218.188 185.396 220.311 186.06 221.068 185.911C223.131 185.507 223.396 167.639 222.695 165.592C222.041 163.685 217.687 175.149 215.908 177.02Z" fill="#0B4870"/>
<path d="M215.908 177.019C215.779 177.156 215.662 177.243 215.562 177.268C214.094 177.642 207.098 172.762 207.098 172.762L206.812 180.697C206.812 180.697 211.696 182.947 215.805 184.496C216.345 182.116 216.313 179.529 215.908 177.019Z" fill="#FFE3CA"/>
<path d="M86.7901 107.579C86.7901 107.579 101.352 133.136 103.729 137.297C106.107 141.457 100.757 142.349 100.757 142.349L95.111 142.051L85.8984 118.575L86.7899 106.688" fill="#FFE3CA"/>
<path d="M69.553 95.3932C70.272 96.256 71.27 96.6295 72.3437 96.7875C82.7358 94.2668 76.9824 73.6992 76.9824 73.6992L59.7461 76.0767L60.6376 91.2327C60.6376 91.2327 61.2408 93.3844 63.2468 95.0931L62.4207 98.9593L74.3078 105.497L72.609 98.1305C71.4347 97.4695 70.3977 96.5757 69.553 95.3932Z" fill="#FFE3CA"/>
<path d="M72.3432 96.7862C71.2695 96.6283 68.4885 95.0659 67.7695 94.2031C68.9582 96.5806 70.4442 98.0664 72.6085 98.129L72.3014 96.7976C72.3158 96.794 72.3288 96.7896 72.3432 96.7862Z" fill="#FCD2B1"/>
<path d="M63.0149 98.3633C63.0149 98.3633 54.0997 102.227 52.9108 107.873C51.7222 113.519 60.0431 130.161 68.0668 137.294C76.0906 144.426 76.6849 150.964 76.6849 150.964L96.2985 139.374C96.2985 139.374 90.6521 126.298 88.5719 119.76C86.4916 113.222 90.9494 104.604 72.8216 98.9578C72.8216 98.9578 73.8236 102.615 72.8216 102.524C65.5029 101.862 63.0149 98.3633 63.0149 98.3633Z" fill="#2A94F4"/>
<path d="M98.9746 140.266C98.9746 140.266 160.49 146.506 176.538 153.639C192.585 160.771 212.199 173.847 212.199 173.847L207.742 181.573C207.742 181.573 169.406 164.931 164.948 164.337C160.49 163.743 100.758 164.634 94.8142 162.851C88.8705 161.068 98.9746 140.266 98.9746 140.266Z" fill="#0B4870"/>
<path d="M74.25 99.825C74.25 99.825 78.7646 96.8785 83.2222 100.742C87.6798 104.605 89.463 109.063 89.463 109.063L83.5193 112.035L74.25 99.825Z" fill="#2A94F4"/>
<path d="M54.9922 121.543C54.9922 121.543 71.0028 147.82 78.4691 145.02C92.7336 139.671 116.211 121.543 116.211 121.543L112.05 117.383C112.05 117.383 81.7381 135.51 78.7663 135.213C75.7944 134.916 62.1242 113.816 62.1242 113.816L54.9922 121.543Z" fill="#FFE3CA"/>
<path d="M120.305 184.607C117.778 184.882 115.193 184.78 112.843 184.117C111.822 186.451 111.05 188.537 111.159 189.301C111.456 191.381 129.287 192.57 131.367 191.975C133.305 191.422 122.082 186.48 120.305 184.607Z" fill="#0B4870"/>
<path d="M120.305 184.606C120.176 184.469 120.095 184.348 120.075 184.247C119.777 182.762 125.013 176.028 125.013 176.028L117.103 175.332C117.103 175.332 114.604 180.093 112.844 184.116C115.193 184.779 117.779 184.881 120.305 184.606Z" fill="#FFE3CA"/>
<path d="M50.2366 112.926C50.2366 112.926 49.9458 105.231 53.3601 103.581C56.7744 101.931 61.5293 106.983 65.987 115.304C65.987 115.304 55.2886 122.733 54.6942 122.733C54.0999 122.733 50.2366 117.087 50.2366 112.926Z" fill="#2A94F4"/>
<path d="M113.237 106.535L106.301 129.886L133.742 126.446L141.469 106.832L113.237 106.535Z" fill="#721B65"/>
<path d="M76.6836 150.963C76.6836 150.963 87.9763 169.091 98.9719 162.851C109.967 156.61 131.959 139.968 131.959 139.968L114.128 177.115L123.935 178.304C123.935 178.304 162.865 123.623 148.303 119.165C133.742 114.708 95.4692 139.696 92.7629 139.683C90.0566 139.671 76.6836 150.963 76.6836 150.963Z" fill="#0E538C"/>
<path d="M110.974 115.1L109.457 119.197C109.457 119.197 113.535 117.977 115.318 116.491C117.101 115.005 119.181 112.33 120.073 112.925C120.964 113.519 119.478 117.085 118.884 119.165C118.29 121.246 105.359 129.516 105.359 129.516C105.359 129.516 106.333 116.681 110.974 115.1Z" fill="#FFE3CA"/>
<path d="M64.2393 76.8539C64.2393 76.8539 65.6874 84.6944 64.2013 83.5055C62.9517 82.5058 59.9966 82.4179 61.3561 84.7448C62.7155 87.0716 63.607 86.4773 63.607 86.4773C63.607 86.4773 66.5788 95.3925 64.3911 100.072C62.8391 103.391 66.2817 107.577 63.0127 107.577C59.7437 107.577 55.1343 103.562 55.1343 103.562C55.1343 103.562 51.0181 106.711 51.72 113.223C52.4219 119.736 41.9131 119.167 43.6963 114.412C45.4792 109.657 46.0737 109.063 44.8849 102.822C43.6963 96.5812 49.3425 96.284 51.1257 91.5292C52.9086 86.7745 50.8285 86.1801 51.1257 81.7223C51.4228 77.2647 56.1776 73.4014 59.4466 74.2929C59.4466 74.2929 64.2013 66.2692 70.145 66.8635C76.0886 67.4578 80.5462 71.6183 80.5462 74.2929C80.5462 77.5075 69.0322 79.4146 64.2393 76.8539Z" fill="#0B4870"/>
<path d="M53.5423 154.138L40.168 172.859L40.6828 173.227L54.0571 154.506L53.5423 154.138Z" fill="#721B65" stroke="#721B65" stroke-width="7" stroke-miterlimit="10"/>
<g opacity="0.5">
<path opacity="0.5" d="M289.913 141.792C282.656 141.342 276.505 135.131 276.457 129.894C276.418 125.568 280.565 124.444 280.707 118.987C280.828 114.274 277.783 113.228 278.299 109.214C278.84 104.999 282.968 100.158 287.93 100.148C293.634 100.137 297.515 106.513 297.845 111.622C298.07 115.094 295.946 115.574 296.004 118.845C296.122 125.538 304.477 127.444 304.361 132.443C304.255 137.032 297.057 142.234 289.913 141.792Z" fill="#721B65"/>
</g>
<path d="M289.848 107.23H289.426V145.332H289.848V107.23Z" fill="#B6B9C1"/>
<path d="M289.581 120.456C286.055 120.219 285.566 115.046 285.547 114.826L285.967 114.789C285.971 114.839 286.444 119.822 289.609 120.035L289.581 120.456Z" fill="#B6B9C1"/>
<path d="M284.511 145.051H294.609C295.599 145.051 296.386 145.881 296.332 146.869L294.957 172.377C294.909 173.267 294.192 173.973 293.303 174.009L285.951 174.303C285.008 174.34 284.209 173.613 284.159 172.67L282.788 146.868C282.735 145.88 283.522 145.051 284.511 145.051Z" fill="#721B65"/>
<path d="M289.58 133.773C287.057 133.603 286.709 129.928 286.695 129.771L287.115 129.734C287.119 129.769 287.445 133.206 289.608 133.352L289.58 133.773Z" fill="#B6B9C1"/>
<path d="M289.45 128.247L289.43 127.826C292.386 127.683 292.817 124.377 292.821 124.344L293.24 124.394C293.236 124.431 292.758 128.087 289.45 128.247Z" fill="#B6B9C1"/>
<path d="M289.591 138.02L289.57 137.599C291.655 137.498 291.959 135.226 291.97 135.129L292.389 135.18C292.386 135.207 292.034 137.902 289.591 138.02Z" fill="#B6B9C1"/>
</svg>
