<svg width="356" height="237" viewBox="0 0 356 237" fill="none" xmlns="http://www.w3.org/2000/svg">
<path d="M211.012 43.2243C211.591 47.1223 210.998 51.1041 209.309 54.6654C207.619 58.2267 204.91 61.2073 201.523 63.2297C198.136 65.2521 194.225 66.2253 190.284 66.0261C186.342 65.8268 182.549 64.4641 179.384 62.1105C176.219 59.7569 173.825 56.5183 172.505 52.8049C171.184 49.0914 170.997 45.0702 171.967 41.2505C172.937 37.4308 175.02 33.9844 177.953 31.3479C180.886 28.7114 184.536 27.0033 188.442 26.44C191.027 26.062 193.662 26.1964 196.196 26.8353C198.729 27.4743 201.112 28.6054 203.208 30.164C205.304 31.7225 207.072 33.6781 208.411 35.919C209.75 38.1599 210.634 40.6423 211.012 43.2243Z" fill="#B6B9C1"/>
<path d="M206.322 43.9082C206.76 46.8776 206.307 49.9101 205.018 52.622C203.73 55.3339 201.665 57.6031 199.085 59.1425C196.505 60.6818 193.525 61.4221 190.523 61.2696C187.521 61.1171 184.632 60.0786 182.222 58.2857C179.811 56.4928 177.987 54.026 176.981 51.1976C175.975 48.3692 175.832 45.3063 176.571 42.3967C177.309 39.4871 178.894 36.8615 181.128 34.8524C183.361 32.8433 186.14 31.541 189.115 31.1102C193.095 30.5338 197.142 31.5574 200.368 33.9567C203.594 36.3559 205.735 39.9347 206.322 43.9082Z" fill="#EBEBEB"/>
<path d="M206.252 43.436C206.162 43.436 206 42.8009 205.592 41.687C205.02 40.1232 204.21 38.657 203.19 37.3404C202.491 36.444 201.695 35.6269 200.817 34.904C199.801 34.0827 198.685 33.3945 197.494 32.8564C196.853 32.5635 196.192 32.3179 195.515 32.1217C194.078 31.7049 192.587 31.5068 191.091 31.5339C189.525 31.5641 187.973 31.8392 186.491 32.3492C185.774 32.5985 185.075 32.9012 184.403 33.2545C183.753 33.5945 183.131 33.9844 182.542 34.4206C181.973 34.8353 181.437 35.2933 180.938 35.7904C179.186 37.5027 177.882 39.6188 177.14 41.9524C176.636 43.5388 176.379 45.1937 176.381 46.8583C176.381 48.0481 176.457 48.7117 176.381 48.7259C176.305 48.7401 176.087 48.1002 175.944 46.8868C175.762 45.1552 175.904 43.4048 176.362 41.7249C176.671 40.5669 177.114 39.4487 177.682 38.3927C178.356 37.1789 179.193 36.0626 180.169 35.0747C180.695 34.5317 181.263 34.0308 181.868 33.5768C182.495 33.096 183.161 32.6664 183.857 32.2923C184.578 31.9014 185.329 31.5686 186.102 31.2969C186.9 31.0243 187.717 30.8104 188.547 30.657C189.38 30.5151 190.222 30.4359 191.067 30.42C191.887 30.4065 192.706 30.4604 193.517 30.5812C194.298 30.6917 195.07 30.8661 195.823 31.1026C196.547 31.3063 197.254 31.5679 197.936 31.8847C200.301 33.0063 202.338 34.717 203.85 36.8522C204.853 38.2729 205.584 39.8673 206.005 41.5543C206.309 42.744 206.318 43.4266 206.252 43.436Z" fill="#E0E0E0"/>
<path d="M194.297 54.7893L194.715 57.401L192.38 57.7708L191.976 55.2349C189.646 55.4624 187.31 55.0974 185.867 54.2869L186.698 51.239C188.184 51.9679 189.835 52.2947 191.487 52.187L190.861 48.3002C188.174 48.0869 185.141 47.684 184.61 44.3566C184.216 41.887 185.668 39.4791 189.285 38.4742L188.872 35.8862L191.203 35.5117L191.611 38.0524C193.294 37.8783 194.994 38.1057 196.571 38.716L195.864 41.7685C194.666 41.3066 193.388 41.0875 192.105 41.1239L192.741 45.0865C195.422 45.2761 198.408 45.6838 198.935 48.9686C199.324 51.386 197.886 53.7655 194.297 54.7893ZM190.339 44.8732L189.807 41.5552C188.616 42.0292 188.236 42.7876 188.359 43.5555C188.483 44.3234 189.233 44.7121 190.339 44.8732ZM195.247 49.8407C195.119 49.0255 194.369 48.6937 193.31 48.5041L193.828 51.7178C194.929 51.277 195.342 50.5897 195.223 49.8407H195.247Z" fill="#E0E0E0"/>
<path d="M315.031 128.93C315.031 128.93 310.612 126.38 306.041 136.841C301.47 147.302 299.87 153.27 299.87 153.27C299.87 153.27 298.627 155.479 297.084 154.18C295.541 152.881 293.287 149.051 290.852 149.914C288.317 150.805 287.643 153.73 288.388 157.92C289.133 162.11 290.429 171.363 290.543 172.197C290.657 173.031 290.258 174.264 289.062 173.543C287.866 172.823 280.817 165.878 277.713 169.415C274.608 172.951 278.61 184.293 279.028 185.531C279.445 186.768 279.222 187.336 278.638 187.687C278.055 188.038 275.904 185.478 273.82 183.582C271.737 181.686 268.984 179.857 267.365 182.047C265.746 184.236 265.708 192.949 274.808 206.496L279.436 212.506L287.03 211.629C303.126 208.785 309.373 202.708 309.814 200.025C310.256 197.343 307.042 196.632 304.232 196.447C301.422 196.262 298.062 196.489 297.929 195.826C297.796 195.162 298.028 194.622 299.215 194.053C300.402 193.484 311.357 188.498 311.756 183.81C312.155 179.122 302.262 178.876 300.905 178.515C299.547 178.155 300.179 177.003 300.848 176.515C301.517 176.027 309.102 170.533 312.643 168.163C316.184 165.793 317.827 163.276 316.711 160.835C315.639 158.465 311.324 159.522 309.316 159.314C307.308 159.105 308.034 156.678 308.034 156.678C308.034 156.678 311.224 151.379 315.601 140.837C319.977 130.295 314.946 128.878 314.946 128.878" fill="#EBEBEB"/>
<path d="M279.715 210.932C282.962 203.201 287.533 192.565 292.621 180.824C297.709 169.083 302.309 158.465 305.594 150.753L309.481 141.619L310.54 139.135L310.82 138.495C310.886 138.348 310.924 138.277 310.924 138.277C310.904 138.355 310.878 138.431 310.848 138.505L310.587 139.154C310.355 139.737 310.013 140.576 309.576 141.657C308.693 143.828 307.393 146.961 305.779 150.824C302.518 158.555 297.947 169.22 292.868 180.928C287.789 192.636 283.18 203.296 279.895 211.003" fill="#E0E0E0"/>
<path d="M293.766 155.367C293.861 155.525 293.937 155.694 293.993 155.87C294.122 156.197 294.297 156.675 294.511 157.292C294.929 158.481 295.46 160.136 296.016 161.979L297.44 166.696C297.61 167.255 297.753 167.729 297.871 168.118C297.937 168.289 297.982 168.467 298.004 168.649C297.908 168.493 297.832 168.326 297.777 168.151C297.644 167.819 297.468 167.34 297.264 166.729C296.856 165.534 296.348 163.885 295.792 162.032L294.368 157.33L293.932 155.908C293.85 155.737 293.794 155.554 293.766 155.367Z" fill="#E0E0E0"/>
<path d="M298.684 168.744C298.684 168.678 302.035 167.427 306.217 165.948C310.398 164.469 313.811 163.327 313.811 163.398C313.811 163.469 310.46 164.715 306.278 166.194C302.096 167.673 298.707 168.792 298.684 168.744Z" fill="#E0E0E0"/>
<path d="M290.059 186.39C290.24 186.347 290.427 186.326 290.614 186.328L292.138 186.238C293.419 186.162 295.194 186.049 297.145 185.854C299.096 185.66 300.857 185.437 302.129 185.257L303.639 185.053C303.823 185.014 304.011 184.998 304.199 185.006C304.026 185.079 303.844 185.128 303.658 185.153C303.307 185.229 302.794 185.328 302.158 185.442C300.89 185.665 299.129 185.916 297.169 186.115C295.209 186.314 293.433 186.39 292.142 186.418C291.497 186.418 290.979 186.418 290.619 186.418C290.432 186.434 290.243 186.424 290.059 186.39Z" fill="#E0E0E0"/>
<path d="M282.945 175.297C282.945 175.297 283.078 175.43 283.273 175.7C283.467 175.97 283.747 176.359 284.084 176.852C284.754 177.828 285.67 179.193 286.667 180.705C287.663 182.217 288.565 183.597 289.192 184.601C289.51 185.104 289.762 185.516 289.932 185.801C290.032 185.948 290.113 186.108 290.174 186.275C290.047 186.156 289.937 186.02 289.847 185.872C289.652 185.602 289.372 185.208 289.035 184.72C288.366 183.739 287.45 182.378 286.453 180.862C285.456 179.345 284.554 177.97 283.928 176.965C283.61 176.463 283.358 176.055 283.187 175.766C283.089 175.62 283.008 175.462 282.945 175.297Z" fill="#E0E0E0"/>
<path d="M273.344 189.926C273.495 190.085 273.632 190.258 273.752 190.442C274.027 190.836 274.379 191.329 274.796 191.917C275.665 193.168 276.852 194.908 278.147 196.832C279.443 198.756 280.606 200.515 281.437 201.79L282.41 203.312C282.538 203.493 282.647 203.687 282.737 203.89C282.582 203.73 282.444 203.556 282.324 203.368L281.285 201.894C280.416 200.643 279.23 198.908 277.929 196.979C276.628 195.05 275.47 193.296 274.64 192.021C274.25 191.414 273.928 190.902 273.667 190.499C273.537 190.321 273.429 190.129 273.344 189.926Z" fill="#E0E0E0"/>
<path d="M282.605 203.492C282.837 203.436 283.074 203.403 283.313 203.392L285.211 203.212C286.835 203.056 289.08 202.838 291.548 202.525C294.016 202.212 296.247 201.88 297.861 201.624L299.76 201.326C299.993 201.277 300.229 201.251 300.467 201.25C300.244 201.329 300.013 201.388 299.779 201.425C299.333 201.525 298.687 201.658 297.88 201.805C296.276 202.108 294.045 202.473 291.572 202.781C289.099 203.089 286.825 203.288 285.216 203.392C284.4 203.445 283.74 203.483 283.284 203.497C283.058 203.517 282.831 203.515 282.605 203.492Z" fill="#E0E0E0"/>
<path d="M146.386 161.001L55.9196 132.883C54.803 132.536 53.8701 131.761 53.3263 130.727C52.7824 129.693 52.672 128.486 53.0194 127.371L70.4159 71.5762C70.5864 71.0218 70.865 70.5066 71.2356 70.0601C71.6063 69.6137 72.0616 69.2448 72.5756 68.9747C73.0895 68.7047 73.6519 68.5388 74.2303 68.4866C74.8087 68.4344 75.3917 68.4969 75.9458 68.6706L166.417 96.793C167.533 97.14 168.464 97.9152 169.007 98.9481C169.55 99.981 169.66 101.187 169.313 102.301L151.892 158.11C151.546 159.222 150.771 160.151 149.739 160.694C148.706 161.236 147.5 161.346 146.386 161.001Z" fill="#E0E0E0"/>
<path d="M151.383 108.509C150.963 109.856 150.151 111.049 149.052 111.937C147.952 112.824 146.614 113.366 145.206 113.494C143.798 113.621 142.383 113.329 141.142 112.655C139.9 111.98 138.886 110.952 138.229 109.702C137.572 108.452 137.301 107.036 137.45 105.632C137.599 104.228 138.162 102.9 139.067 101.815C139.972 100.73 141.178 99.9381 142.534 99.5383C143.89 99.1385 145.334 99.1492 146.684 99.5689C147.581 99.8472 148.414 100.299 149.136 100.899C149.857 101.499 150.453 102.236 150.89 103.066C151.326 103.896 151.595 104.804 151.679 105.738C151.764 106.672 151.663 107.613 151.383 108.509Z" fill="white"/>
<path d="M151.894 116.322C151.454 116.264 151.021 116.169 150.598 116.037C148.793 115.467 147.279 114.223 146.37 112.566C145.46 110.909 145.226 108.965 145.715 107.139C146.204 105.314 147.38 103.747 148.996 102.765C150.613 101.783 152.547 101.461 154.396 101.866C156.244 102.272 157.865 103.374 158.92 104.943C159.976 106.511 160.385 108.426 160.063 110.288C159.74 112.15 158.711 113.817 157.19 114.941C155.668 116.065 153.771 116.559 151.894 116.322ZM153.664 102.149C152.369 101.987 151.055 102.197 149.876 102.755C148.696 103.312 147.7 104.194 147.005 105.297C146.31 106.4 145.945 107.678 145.952 108.981C145.959 110.284 146.338 111.559 147.044 112.654C147.751 113.75 148.756 114.621 149.941 115.166C151.127 115.711 152.443 115.908 153.736 115.732C155.029 115.556 156.245 115.016 157.241 114.174C158.237 113.332 158.972 112.224 159.36 110.98C159.899 109.245 159.727 107.368 158.882 105.761C158.036 104.153 156.586 102.946 154.851 102.405C154.455 102.286 154.05 102.201 153.64 102.149H153.664Z" fill="white"/>
<path d="M67.6782 111.168L65.9789 116.648L65.4141 116.472L66.9662 111.495L65.6751 111.092L65.8318 110.59L67.6782 111.168Z" fill="white"/>
<path d="M71.7679 117.903L71.6113 118.405L67.7617 117.206L67.8899 116.808L70.866 115.286C71.673 114.864 71.9056 114.533 72.0242 114.158C72.2236 113.523 71.8961 112.992 71.0749 112.736C70.8002 112.632 70.5057 112.592 70.2132 112.617C69.9207 112.642 69.6376 112.733 69.3851 112.883L69.0908 112.409C69.4199 112.22 69.7866 112.106 70.1648 112.075C70.543 112.044 70.9234 112.096 71.279 112.229C72.3945 112.575 72.9261 113.362 72.6413 114.277C72.4751 114.803 72.1666 115.225 71.2173 115.699L68.7775 116.95L71.7679 117.903Z" fill="white"/>
<path d="M77.8429 118.758L76.7417 118.421L76.2955 119.843L75.7307 119.663L76.1769 118.241L73.082 117.293L73.2054 116.886L77.2496 114.16L77.8762 114.354L73.9649 117.018L76.3382 117.763L76.7322 116.492L77.2781 116.663L76.8841 117.933L77.9806 118.274L77.8429 118.758Z" fill="white"/>
<path d="M86.257 121.372L85.1605 121.031L84.7096 122.453L84.1447 122.277L84.5957 120.855L81.4961 119.907L81.6243 119.5L85.6637 116.77L86.2902 116.964L82.3837 119.632L84.7571 120.372L85.151 119.106L85.7016 119.277L85.3029 120.543L86.4041 120.884L86.257 121.372Z" fill="white"/>
<path d="M91.1054 122.689C90.8159 123.637 89.9377 124.148 88.5944 123.731C87.8648 123.531 87.2397 123.06 86.8477 122.414L87.2606 122.053C87.5844 122.619 88.1182 123.034 88.7463 123.21C89.6957 123.504 90.3175 123.21 90.5263 122.537C90.7352 121.864 90.4409 121.257 89.0454 120.821L87.8777 120.461L89.0169 117.797L92.0215 118.745L91.8649 119.247L89.3539 118.465L88.6229 120.157L89.3302 120.375C90.982 120.868 91.4092 121.722 91.1054 122.689Z" fill="white"/>
<path d="M96.5356 124.354C96.2176 125.382 95.2066 125.776 94.1623 125.458C92.7051 124.984 92.2257 123.747 92.7668 122.017C93.3459 120.154 94.6654 119.495 96.1606 119.96C96.6183 120.081 97.0347 120.324 97.3663 120.661L97.0008 121.045C96.7346 120.759 96.392 120.555 96.0135 120.457C94.8316 120.088 93.83 120.614 93.3696 122.102C93.322 122.25 93.2824 122.4 93.2509 122.553C93.5037 122.299 93.8252 122.124 94.1759 122.05C94.5267 121.976 94.8915 122.005 95.2256 122.135C96.2888 122.477 96.8299 123.354 96.5356 124.354ZM95.9755 124.188C96.1986 123.467 95.8094 122.842 94.9645 122.576C94.1196 122.311 93.3933 122.657 93.1797 123.335C92.9899 123.941 93.3174 124.667 94.262 124.96C94.4242 125.033 94.5998 125.07 94.7775 125.07C94.9551 125.069 95.1306 125.031 95.2925 124.958C95.4543 124.885 95.5989 124.779 95.7166 124.646C95.8344 124.513 95.9226 124.357 95.9755 124.188Z" fill="white"/>
<path d="M104.03 126.754C103.741 127.669 102.858 128.176 101.534 127.754C100.802 127.554 100.173 127.083 99.7773 126.436L100.19 126.076C100.518 126.647 101.059 127.064 101.695 127.237C102.602 127.522 103.238 127.237 103.447 126.574C103.655 125.91 103.323 125.341 102.307 125.024L101.913 124.9L102.042 124.488L104.159 123.066L101.348 122.194L101.505 121.691L105.037 122.791L104.908 123.189L102.749 124.659C103.907 125.076 104.301 125.877 104.03 126.754Z" fill="white"/>
<path d="M109.552 128.401C109.234 129.425 108.222 129.823 107.154 129.501C105.697 129.027 105.218 127.79 105.759 126.06C106.338 124.197 107.658 123.543 109.153 124.007C109.611 124.128 110.027 124.371 110.358 124.709L109.993 125.093C109.727 124.805 109.385 124.6 109.006 124.5C107.819 124.135 106.822 124.657 106.362 126.145C106.314 126.301 106.274 126.459 106.243 126.619C106.495 126.365 106.815 126.189 107.165 126.114C107.515 126.039 107.879 126.068 108.213 126.197C109.305 126.519 109.865 127.396 109.552 128.401ZM108.991 128.24C109.215 127.524 108.825 126.894 107.98 126.633C107.135 126.372 106.409 126.709 106.196 127.392C106.006 127.994 106.329 128.719 107.278 129.017C107.44 129.09 107.616 129.127 107.794 129.126C107.972 129.125 108.148 129.087 108.31 129.013C108.472 128.94 108.616 128.833 108.734 128.7C108.851 128.566 108.939 128.41 108.991 128.24Z" fill="white"/>
<path d="M115.818 126.126L115.69 126.524L111.812 130.894L111.199 130.7L114.997 126.434L112.177 125.557L111.854 126.581L111.299 126.405L111.774 124.879L115.818 126.126Z" fill="white"/>
<path d="M123.65 128.561L123.526 128.964L119.644 133.33L119.031 133.14L122.829 128.874L119.981 127.997L119.663 129.026L119.102 128.851L119.577 127.324L123.65 128.561Z" fill="white"/>
<path d="M127.817 134.2C127.513 135.172 126.502 135.518 125.192 135.111C123.882 134.703 123.265 133.85 123.568 132.878C123.66 132.565 123.857 132.293 124.126 132.107C124.394 131.921 124.719 131.834 125.045 131.859C124.816 131.698 124.647 131.467 124.561 131.201C124.475 130.935 124.479 130.649 124.57 130.385C124.845 129.494 125.78 129.176 126.943 129.536C128.106 129.896 128.704 130.693 128.429 131.584C128.352 131.858 128.187 132.099 127.96 132.27C127.733 132.441 127.456 132.533 127.171 132.532C127.454 132.694 127.672 132.948 127.789 133.252C127.907 133.556 127.917 133.891 127.817 134.2ZM127.242 134.011C127.451 133.338 127 132.736 126.027 132.432C125.054 132.129 124.352 132.376 124.129 133.049C123.905 133.722 124.356 134.333 125.329 134.632C126.302 134.93 127.029 134.693 127.242 134.011ZM126.17 131.987C127.024 132.252 127.651 132.025 127.836 131.432C128.021 130.84 127.608 130.271 126.782 130.01C125.956 129.75 125.31 129.963 125.121 130.574C124.931 131.186 125.31 131.721 126.17 131.987Z" fill="white"/>
<path d="M133.541 134.617C132.962 136.48 131.642 137.134 130.147 136.67C129.689 136.55 129.272 136.307 128.941 135.968L129.307 135.584C129.571 135.873 129.914 136.077 130.294 136.172C131.476 136.542 132.478 136.02 132.938 134.532C132.981 134.404 133.019 134.248 133.057 134.058C132.804 134.312 132.483 134.487 132.132 134.561C131.781 134.635 131.416 134.605 131.082 134.475C129.995 134.139 129.435 133.257 129.748 132.257C130.062 131.257 131.077 130.835 132.122 131.157C133.603 131.608 134.082 132.864 133.541 134.617ZM133.104 133.285C133.294 132.684 132.967 131.954 132.022 131.66C131.86 131.588 131.684 131.552 131.507 131.552C131.329 131.553 131.154 131.591 130.992 131.664C130.831 131.737 130.686 131.843 130.568 131.975C130.451 132.108 130.362 132.263 130.308 132.432C130.081 133.153 130.47 133.783 131.319 134.044C132.169 134.305 132.905 133.949 133.104 133.267V133.285Z" fill="white"/>
<path d="M139.949 133.629L138.241 139.113L137.676 138.938L139.228 133.956L137.932 133.553L138.089 133.051L139.949 133.629Z" fill="white"/>
<path d="M144.043 140.365L143.886 140.868L140.027 139.669L140.151 139.271L143.127 137.749C143.939 137.332 144.171 137 144.29 136.621C144.484 135.99 144.162 135.46 143.341 135.199C143.066 135.095 142.772 135.053 142.479 135.078C142.187 135.103 141.904 135.193 141.651 135.341L141.361 134.867C141.691 134.679 142.057 134.566 142.436 134.536C142.814 134.505 143.194 134.559 143.549 134.692C144.66 135.038 145.192 135.82 144.907 136.735C144.741 137.261 144.432 137.683 143.483 138.157L141.048 139.408L144.043 140.365Z" fill="white"/>
<path d="M149.3 140.824C149.015 141.739 148.127 142.246 146.798 141.824C146.069 141.621 145.444 141.15 145.047 140.506L145.46 140.146C145.79 140.713 146.328 141.13 146.96 141.308C147.871 141.592 148.507 141.308 148.716 140.644C148.925 139.98 148.593 139.412 147.577 139.094L147.183 138.971L147.311 138.558L149.428 137.136L146.618 136.264L146.775 135.762L150.306 136.857L150.183 137.26L148.018 138.724C149.176 139.146 149.57 139.947 149.3 140.824Z" fill="white"/>
<path d="M105.394 133.358L104.652 135.738L148.619 149.405L149.361 147.024L105.394 133.358Z" fill="white"/>
<path d="M125.328 144.772L124.586 147.152L147.138 154.162L147.88 151.782L125.328 144.772Z" fill="white"/>
<g opacity="0.5">
<path opacity="0.5" d="M86.2963 96.6731L72.3417 92.3355C71.1002 91.9496 69.7805 92.6417 69.394 93.8815L66.5034 103.155C66.1169 104.395 66.8101 105.713 68.0516 106.098L82.0062 110.436C83.2477 110.822 84.5674 110.13 84.9539 108.89L87.8445 99.6166C88.231 98.3768 87.5378 97.059 86.2963 96.6731Z" fill="#EBEBEB"/>
</g>
<path d="M66.9883 101.587L67.2636 100.705L76.7569 103.658C77.0203 103.748 77.2989 103.784 77.5764 103.764C77.8539 103.744 78.1246 103.669 78.3726 103.543C78.6206 103.417 78.8408 103.243 79.0202 103.031C79.1997 102.818 79.3348 102.572 79.4175 102.307C79.5002 102.042 79.5289 101.763 79.5019 101.486C79.4749 101.21 79.3927 100.941 79.2602 100.697C79.1277 100.453 78.9476 100.238 78.7304 100.064C78.5132 99.8904 78.2635 99.7619 77.9958 99.6862L68.5025 96.7332L68.7778 95.8516L78.2711 98.8046C78.6596 98.9122 79.0225 99.0966 79.3383 99.347C79.654 99.5974 79.9161 99.9085 80.1091 100.262C80.3021 100.616 80.422 101.004 80.4616 101.405C80.5013 101.805 80.4599 102.21 80.34 102.594C80.2201 102.979 80.024 103.335 79.7635 103.642C79.503 103.95 79.1832 104.201 78.8233 104.383C78.4635 104.564 78.0707 104.672 77.6684 104.699C77.2662 104.726 76.8626 104.672 76.4816 104.54L66.9883 101.587Z" fill="#E0E0E0"/>
<path d="M79.6566 102.555L79.3789 103.434L85.8678 105.48L86.1455 104.602L79.6566 102.555Z" fill="#E0E0E0"/>
<path d="M123.252 95.7367L75.8047 80.9883L74.5378 85.0525L121.985 99.8008L123.252 95.7367Z" fill="white"/>
<path d="M90.5302 187.461C90.8949 189.924 90.5196 192.44 89.4517 194.691C88.3838 196.941 86.6713 198.824 84.5311 200.102C82.3909 201.38 79.9191 201.996 77.4285 201.87C74.938 201.745 72.5407 200.884 70.5401 199.398C68.5395 197.911 67.0255 195.865 66.1898 193.519C65.354 191.173 65.2341 188.632 65.8452 186.218C66.4562 183.803 67.7708 181.624 69.6225 179.957C71.4742 178.289 73.7798 177.207 76.2475 176.848C77.8832 176.608 79.5501 176.693 81.1531 177.096C82.7561 177.5 84.2638 178.215 85.5901 179.2C86.9164 180.186 88.0353 181.423 88.8829 182.84C89.7305 184.257 90.2903 185.828 90.5302 187.461Z" fill="#B6B9C1"/>
<path d="M87.5643 187.894C87.8424 189.773 87.5562 191.691 86.7419 193.406C85.9276 195.122 84.6219 196.558 82.9901 197.532C81.3582 198.506 79.4737 198.975 77.5749 198.879C75.6761 198.783 73.8485 198.127 72.3235 196.993C70.7985 195.859 69.6446 194.299 69.0079 192.51C68.3712 190.722 68.2803 188.784 68.7468 186.944C69.2133 185.103 70.2161 183.442 71.6284 182.171C73.0406 180.9 74.7987 180.076 76.6802 179.803C79.1977 179.437 81.7578 180.083 83.7984 181.6C85.8391 183.118 87.1935 185.381 87.5643 187.894Z" fill="#EBEBEB"/>
<path d="M87.5194 187.597C87.342 187.244 87.202 186.874 87.1017 186.493C86.7396 185.504 86.2273 184.577 85.5828 183.743C84.3557 182.151 82.6536 180.989 80.7222 180.425C80.2783 180.292 79.8243 180.196 79.3647 180.136C78.8928 180.073 78.4168 180.044 77.9407 180.051C77.446 180.066 76.9528 180.113 76.4645 180.193C75.9818 180.285 75.506 180.41 75.0405 180.568C74.5866 180.725 74.1454 180.917 73.7209 181.141C72.9168 181.567 72.1782 182.107 71.5279 182.743C70.9377 183.321 70.4255 183.972 70.0042 184.682C69.6373 185.303 69.3397 185.963 69.1166 186.649C68.8002 187.652 68.6401 188.698 68.642 189.749C68.6871 190.143 68.6871 190.54 68.642 190.934C68.4714 190.568 68.3777 190.171 68.3666 189.768C68.2552 188.672 68.3453 187.565 68.6325 186.502C68.8353 185.764 69.122 185.052 69.4869 184.379C69.9147 183.606 70.4448 182.895 71.0628 182.265C71.3947 181.921 71.7534 181.604 72.1355 181.317C72.5332 181.014 72.9537 180.743 73.3934 180.506C73.8511 180.261 74.3272 180.052 74.8174 179.88C75.3226 179.707 75.8398 179.571 76.3648 179.473C76.8919 179.383 77.425 179.332 77.9597 179.321C78.4774 179.315 78.9948 179.35 79.5071 179.425C80.0025 179.494 80.4914 179.604 80.969 179.752C81.4262 179.892 81.872 180.067 82.3029 180.274C83.7992 180.983 85.0874 182.065 86.0432 183.416C86.6811 184.314 87.1478 185.322 87.4198 186.388C87.5405 186.779 87.5745 187.192 87.5194 187.597Z" fill="#E0E0E0"/>
<path d="M79.9564 194.778L80.2222 196.428L78.746 196.665L78.4897 195.058C77.1736 195.228 75.8362 195.024 74.6307 194.47L75.1528 192.541C76.0944 192.995 77.1378 193.197 78.1812 193.129L77.7872 190.668C76.0831 190.536 74.1702 190.285 73.8332 188.175C73.5816 186.616 74.5025 185.094 76.7904 184.454L76.5293 182.819L78.0008 182.582L78.2619 184.189C79.3264 184.08 80.4017 184.224 81.3994 184.611L80.9532 186.54C80.1969 186.249 79.3902 186.11 78.5799 186.132L78.9833 188.64C80.6827 188.758 82.5671 189.019 82.8994 191.095C83.1367 192.626 82.2301 194.129 79.9564 194.778ZM77.4407 188.507L77.1037 186.412C76.349 186.715 76.1069 187.194 76.1876 187.678C76.2683 188.161 76.7572 188.403 77.4407 188.507ZM80.545 191.65C80.4643 191.133 79.9896 190.924 79.3204 190.801L79.6479 192.835C80.3599 192.555 80.621 192.119 80.545 191.65Z" fill="#E0E0E0"/>
<path d="M278.832 192.706C277.911 194.014 276.122 193.583 275.296 192.782C274.47 191.981 274.114 190.819 273.796 189.71C273.065 187.184 272.334 184.529 272.875 181.951C273.006 181.17 273.35 180.441 273.867 179.841C274.13 179.547 274.465 179.327 274.84 179.202C275.215 179.077 275.616 179.053 276.003 179.13C276.905 179.367 277.465 180.254 277.868 181.093C279.062 183.569 279.688 186.279 279.701 189.027C279.701 190.307 279.553 191.649 278.832 192.706Z" fill="#721B65"/>
<g opacity="0.2">
<path opacity="0.2" d="M278.832 192.706C277.911 194.014 276.122 193.583 275.296 192.782C274.47 191.981 274.114 190.819 273.796 189.71C273.065 187.184 272.334 184.529 272.875 181.951C273.006 181.17 273.35 180.441 273.867 179.841C274.13 179.547 274.465 179.327 274.84 179.202C275.215 179.077 275.616 179.053 276.003 179.13C276.905 179.367 277.465 180.254 277.868 181.093C279.062 183.569 279.688 186.279 279.701 189.027C279.701 190.307 279.553 191.649 278.832 192.706Z" fill="black"/>
</g>
<path d="M275.386 199.35C273.842 198.625 272.107 198.415 270.435 198.748C269.522 198.828 268.663 199.212 267.995 199.838C267.383 200.511 267.269 201.696 267.967 202.274C268.42 202.579 268.966 202.717 269.509 202.663C270.815 202.663 272.267 202.416 273.307 203.203C273.905 203.653 274.299 204.398 275.016 204.625C275.372 204.706 275.745 204.669 276.079 204.521C276.413 204.372 276.689 204.119 276.867 203.8C277.21 203.146 277.285 202.385 277.076 201.677C276.993 201.185 276.798 200.719 276.504 200.315C276.211 199.911 275.828 199.581 275.386 199.35Z" fill="#721B65"/>
<path d="M281.356 194.589C280.884 193.972 280.57 193.249 280.441 192.484C280.312 191.718 280.372 190.932 280.615 190.195C281.117 188.715 282.019 187.403 283.221 186.403C284.583 185.193 286.168 184.259 287.887 183.654C288.553 183.386 289.269 183.265 289.985 183.298C290.343 183.319 290.691 183.426 290.998 183.611C291.305 183.796 291.562 184.053 291.746 184.36C292.221 185.308 291.77 186.432 291.272 187.356C290.376 188.99 289.35 190.549 288.205 192.02C287.289 193.2 286.236 194.39 284.835 194.902C283.435 195.414 281.987 195.376 281.237 194.428" fill="#721B65"/>
<path d="M278.892 212.499C278.848 212.302 278.821 212.103 278.812 211.901C278.769 211.47 278.717 210.925 278.65 210.276C278.569 209.48 278.447 208.689 278.285 207.906C278.07 206.946 277.779 206.004 277.416 205.09C277.065 204.177 276.586 203.318 275.992 202.54C275.182 201.46 273.978 200.745 272.641 200.549C272.439 200.544 272.238 200.515 272.043 200.464C272.245 200.444 272.448 200.444 272.651 200.464C273.204 200.507 273.746 200.649 274.25 200.881C274.992 201.238 275.641 201.76 276.149 202.407C276.77 203.196 277.272 204.071 277.639 205.005C278.011 205.934 278.3 206.893 278.503 207.872C278.656 208.671 278.763 209.479 278.821 210.29C278.873 210.977 278.892 211.536 278.902 211.925C278.921 212.116 278.918 212.309 278.892 212.499Z" fill="#263238"/>
<path d="M278.784 211.248C278.773 211.157 278.773 211.064 278.784 210.973C278.784 210.765 278.784 210.499 278.784 210.182C278.784 209.494 278.784 208.499 278.746 207.271C278.684 204.816 278.475 201.431 278.067 197.706C277.659 193.98 277.118 190.629 276.61 188.226C276.491 187.624 276.373 187.083 276.263 186.605C276.154 186.126 276.064 185.718 275.979 185.387C275.893 185.055 275.841 184.822 275.794 184.619C275.767 184.529 275.751 184.437 275.746 184.344C275.786 184.427 275.818 184.515 275.841 184.604L276.074 185.363C276.173 185.695 276.278 186.102 276.396 186.576C276.515 187.05 276.653 187.586 276.781 188.188C277.458 191.319 277.968 194.483 278.309 197.668C278.722 201.403 278.903 204.778 278.922 207.257C278.922 208.489 278.922 209.485 278.879 210.172C278.879 210.494 278.841 210.755 278.831 210.964C278.824 211.06 278.808 211.155 278.784 211.248Z" fill="#263238"/>
<path d="M278.765 204.691C278.745 204.417 278.745 204.141 278.765 203.867C278.798 203.336 278.869 202.568 279.021 201.629C279.201 200.528 279.444 199.438 279.747 198.364C280.111 197.047 280.568 195.757 281.114 194.505C282.062 192.198 283.423 190.082 285.13 188.263C285.428 187.951 285.745 187.658 286.079 187.386C286.227 187.267 286.355 187.144 286.483 187.049L286.853 186.793C287.072 186.627 287.304 186.478 287.546 186.348C286.745 186.981 285.983 187.662 285.263 188.386C283.616 190.221 282.293 192.322 281.352 194.6C280.809 195.843 280.349 197.121 279.975 198.425C279.619 199.624 279.382 200.729 279.201 201.658C279.021 202.587 278.931 203.35 278.869 203.876C278.857 204.15 278.822 204.423 278.765 204.691Z" fill="#263238"/>
<path d="M175.627 167.093L102.158 89.4898C101.787 89.0964 101.587 88.5723 101.602 88.0322C101.617 87.4921 101.846 86.9799 102.239 86.6078L150.47 41.0849C150.664 40.9009 150.893 40.757 151.144 40.6615C151.394 40.566 151.661 40.5207 151.929 40.5281C152.197 40.5356 152.461 40.5958 152.706 40.7051C152.951 40.8145 153.171 40.9709 153.355 41.1655L226.82 118.773C227.191 119.167 227.39 119.691 227.375 120.231C227.36 120.771 227.131 121.283 226.739 121.655L178.518 167.159C178.324 167.346 178.095 167.492 177.845 167.589C177.594 167.687 177.327 167.734 177.058 167.728C176.79 167.721 176.525 167.662 176.279 167.553C176.033 167.444 175.812 167.288 175.627 167.093Z" fill="#721B65"/>
<g opacity="0.3">
<path opacity="0.3" d="M175.627 167.093L102.158 89.4898C101.787 89.0964 101.587 88.5723 101.602 88.0322C101.617 87.4921 101.846 86.9799 102.239 86.6078L150.47 41.0849C150.664 40.9009 150.893 40.757 151.144 40.6615C151.394 40.566 151.661 40.5207 151.929 40.5281C152.197 40.5356 152.461 40.5958 152.706 40.7051C152.951 40.8145 153.171 40.9709 153.355 41.1655L226.82 118.773C227.191 119.167 227.39 119.691 227.375 120.231C227.36 120.771 227.131 121.283 226.739 121.655L178.518 167.159C178.324 167.346 178.095 167.492 177.845 167.589C177.594 167.687 177.327 167.734 177.058 167.728C176.79 167.721 176.525 167.662 176.279 167.553C176.033 167.444 175.812 167.288 175.627 167.093Z" fill="black"/>
</g>
<path d="M226.28 118.204L153.884 41.7331C153.629 41.4634 153.324 41.2464 152.986 41.0947C152.647 40.9429 152.282 40.8594 151.911 40.8488C151.541 40.8382 151.171 40.9009 150.825 41.0331C150.478 41.1653 150.161 41.3645 149.892 41.6193L136.193 54.5548C136.057 54.6812 135.955 54.8391 135.896 55.0144C135.836 55.1897 135.821 55.377 135.851 55.5597C137.223 63.21 142.701 70.0499 149.232 74.5813C157.121 80.056 166.472 82.9426 175.339 86.5972C184.205 90.2517 193.143 95.0676 198.474 103.054C203.501 110.596 204.687 119.948 207.246 128.65C207.941 131.015 208.811 133.325 209.847 135.561C209.922 135.724 210.035 135.866 210.177 135.976C210.318 136.087 210.483 136.162 210.659 136.197C210.835 136.231 211.017 136.223 211.189 136.173C211.361 136.124 211.52 136.034 211.651 135.912L226.171 122.204C226.443 121.95 226.661 121.644 226.814 121.304C226.967 120.965 227.051 120.599 227.061 120.227C227.071 119.855 227.007 119.484 226.873 119.137C226.739 118.79 226.537 118.472 226.28 118.204Z" fill="#721B65"/>
<path d="M152.816 63.9891C152.161 64.61 151.287 64.4631 150.347 63.4534L148.496 61.4958L152.293 57.9219L154.04 59.7705C154.937 60.7185 154.99 61.5764 154.415 62.1405C154.247 62.3074 154.034 62.4228 153.802 62.4732C153.57 62.5236 153.328 62.5068 153.105 62.4249C153.239 62.6804 153.283 62.9733 153.231 63.2569C153.178 63.5404 153.032 63.7982 152.816 63.9891ZM152.445 59.415L151.553 60.2587L152.369 61.1451C152.773 61.5717 153.143 61.6617 153.442 61.3821C153.741 61.1024 153.665 60.7327 153.262 60.3061L152.445 59.415ZM152.07 63.0221C152.388 62.7235 152.312 62.3348 151.88 61.8798L150.931 60.8607L149.982 61.7423L150.931 62.7662C151.377 63.2212 151.748 63.3302 152.07 63.0411V63.0221Z" fill="white"/>
<path d="M155.578 67.3534L153.912 65.5949L152.782 66.0262L151.938 65.1304L157.32 63.2344L158.137 64.1018L155.953 69.3679L155.08 68.4484L155.578 67.3534ZM155.982 66.4481L156.865 64.481L154.847 65.2489L155.982 66.4481Z" fill="white"/>
<path d="M163.392 69.677L159.595 73.2509L158.925 72.521L159.443 68.4683L157.141 70.625L156.324 69.7575L160.122 66.1836L160.81 66.9088L160.288 70.9568L162.59 68.7858L163.392 69.677Z" fill="white"/>
<path d="M163.243 74.0971H162.232L161.282 75.0025L160.438 74.1256L164.235 70.5469L165.056 71.419L163.286 73.0875H166.641L167.562 74.0355L164.391 74.064L163.869 77.7327L162.92 76.7136L163.243 74.0971Z" fill="white"/>
<path d="M136.39 78.1515L135.754 77.4547L134.804 78.3174L134.467 77.9619L135.383 77.0992L133.527 75.1416L133.784 74.8951L137.833 74.5586L138.208 74.9568L134.282 75.3028L135.706 76.8101L136.508 76.047L136.836 76.3977L136.034 77.1561L136.689 77.8482L136.39 78.1515Z" fill="white"/>
<path d="M138.891 80.6209C138.307 81.166 137.467 81.1707 136.669 80.3317C136.22 79.8874 135.957 79.2892 135.934 78.6585L136.38 78.5637C136.386 79.1109 136.608 79.6337 136.997 80.0189C137.543 80.5972 138.108 80.6588 138.54 80.2512C138.971 79.8435 138.952 79.3032 138.345 78.6633L138.108 78.4168L138.373 78.1656L140.49 77.9902L138.81 76.2127L139.128 75.9141L141.24 78.1466L140.989 78.3836L138.82 78.5685C139.484 79.3506 139.446 80.1042 138.891 80.6209Z" fill="white"/>
<path d="M141.574 83.4224C140.98 83.9817 140.15 84.0054 139.329 83.157C138.879 82.7152 138.618 82.1178 138.598 81.4885L139.044 81.3937C139.054 81.9286 139.271 82.4386 139.651 82.8157C140.207 83.4082 140.791 83.4509 141.213 83.048C141.636 82.6451 141.688 82.1 140.843 81.2041L140.14 80.4647L142.039 79L143.838 80.896L143.52 81.1946L142.034 79.6304L140.81 80.5547L141.232 81.0287C142.224 82.0336 142.186 82.8204 141.574 83.4224Z" fill="white"/>
<path d="M144.485 86.4471C144.334 86.5879 144.155 86.6957 143.96 86.7636C143.765 86.8316 143.558 86.8581 143.352 86.8416C143.146 86.8251 142.946 86.7659 142.765 86.6678C142.583 86.5697 142.424 86.4348 142.297 86.2717C141.424 85.3474 141.59 84.243 142.686 83.205C143.868 82.0911 145.093 82.1527 145.985 83.0959C146.271 83.3704 146.476 83.718 146.578 84.1008L146.151 84.2288C146.08 83.911 145.915 83.6219 145.677 83.3993C144.969 82.6504 144.034 82.6219 143.09 83.5131C143.009 83.5889 142.914 83.6884 142.819 83.7975C143.105 83.7146 143.409 83.7176 143.694 83.8061C143.978 83.8946 144.23 84.0647 144.419 84.2952C145.074 84.9825 145.121 85.8499 144.485 86.4471ZM144.143 86.1058C144.618 85.6745 144.575 85.063 144.068 84.5274C143.977 84.4066 143.862 84.3057 143.731 84.2309C143.599 84.1561 143.454 84.109 143.303 84.0926C143.153 84.0762 143.001 84.0907 142.856 84.1353C142.712 84.18 142.578 84.2537 142.463 84.352C142.079 84.7123 142.017 85.3711 142.587 85.9684C142.674 86.087 142.786 86.1856 142.915 86.2577C143.044 86.3299 143.187 86.3739 143.334 86.3869C143.481 86.3999 143.629 86.3815 143.769 86.3331C143.908 86.2846 144.036 86.2072 144.143 86.1058Z" fill="white"/>
<path d="M150.551 94.9316L150.86 93.0735L148.961 93.2726L148.586 92.8744L150.907 92.6374L151.244 90.457L151.624 90.8552L151.339 92.6043L153.105 92.4194L153.47 92.8081L151.273 93.0261L150.917 95.3345L150.551 94.9316Z" fill="white"/>
<path d="M153.056 97.58L153.364 95.7172L151.466 95.9163L151.086 95.5181L153.407 95.2859L153.749 93.1055L154.124 93.4989L153.844 95.248L155.605 95.0678L155.975 95.4565L153.773 95.6746L153.417 97.9829L153.056 97.58Z" fill="white"/>
<path d="M155.563 100.225L155.871 98.3665L153.973 98.5656L153.598 98.1674L155.914 97.9351L156.256 95.75L156.631 96.1482L156.351 97.8972L158.116 97.7171L158.482 98.101L156.28 98.3191L155.924 100.627L155.563 100.225Z" fill="white"/>
<path d="M158.063 102.857L158.371 100.999L156.473 101.198L156.098 100.8L158.414 100.563L158.756 98.3828L159.131 98.781L158.851 100.53L160.616 100.345L160.982 100.734L158.78 100.952L158.428 103.26L158.063 102.857Z" fill="white"/>
<path d="M166.727 112.018L167.035 110.159L165.137 110.359L164.762 109.96L167.078 109.728L167.42 107.543L167.795 107.941L167.515 109.69L169.281 109.505L169.646 109.894L167.444 110.112L167.088 112.42L166.727 112.018Z" fill="white"/>
<path d="M169.235 114.67L169.543 112.807L167.645 113.006L167.27 112.613L169.586 112.376L169.928 110.195L170.303 110.593L170.023 112.343L171.788 112.158L172.154 112.546L169.951 112.764L169.595 115.073L169.235 114.67Z" fill="white"/>
<path d="M171.738 117.318L172.051 115.455L170.152 115.655L169.777 115.256L172.094 115.024L172.435 112.844L172.81 113.237L172.53 114.986L174.296 114.806L174.662 115.19L172.459 115.408L172.108 117.716L171.738 117.318Z" fill="white"/>
<path d="M174.25 119.963L174.559 118.105L172.66 118.304L172.285 117.906L174.602 117.673L174.943 115.488L175.323 115.886L175.038 117.636L176.804 117.451L177.169 117.839L174.967 118.057L174.616 120.366L174.25 119.963Z" fill="white"/>
<path d="M185.5 124.894L182.025 128.179L181.684 127.819L184.845 124.837L184.071 124.022L184.389 123.719L185.5 124.894Z" fill="white"/>
<path d="M185.981 130.347C185.402 130.897 184.557 130.897 183.759 130.058C183.31 129.614 183.047 129.016 183.023 128.385L183.47 128.29C183.478 128.838 183.7 129.362 184.087 129.75C184.633 130.324 185.202 130.39 185.634 129.982C186.066 129.575 186.047 129.034 185.435 128.39L185.202 128.143L185.463 127.897L187.58 127.717L185.9 125.944L186.218 125.641L188.33 127.873L188.079 128.115L185.914 128.3C186.579 129.091 186.545 129.831 185.981 130.347Z" fill="white"/>
<path d="M189.165 133.889L188.505 133.192L187.594 134.055L187.252 133.699L188.168 132.837L186.312 130.879L186.574 130.633L190.618 130.301L190.993 130.694L187.067 131.04L188.491 132.548L189.293 131.789L189.626 132.135L188.819 132.894L189.479 133.59L189.165 133.889Z" fill="white"/>
<path d="M191.101 137.133L190.783 137.432L188.477 134.995L188.733 134.758L191.514 134.863C192.274 134.891 192.578 134.744 192.815 134.521C193.218 134.137 193.199 133.621 192.696 133.099C192.539 132.912 192.342 132.763 192.119 132.663C191.897 132.563 191.654 132.515 191.41 132.521V132.047C191.726 132.044 192.038 132.11 192.326 132.241C192.613 132.372 192.867 132.565 193.071 132.805C193.736 133.512 193.802 134.294 193.218 134.844C192.886 135.156 192.492 135.318 191.595 135.318L189.312 135.237L191.101 137.133Z" fill="white"/>
<path d="M123.724 81.0525C123.913 80.8953 124.144 80.7969 124.388 80.7695C124.633 80.7422 124.88 80.787 125.099 80.8985C125.319 81.01 125.5 81.1832 125.622 81.3968C125.744 81.6104 125.8 81.8549 125.784 82.1001L125.309 82.0716C125.323 81.9628 125.312 81.8522 125.278 81.7481C125.243 81.6439 125.186 81.5488 125.11 81.4697C125.044 81.3999 124.964 81.3439 124.877 81.3048C124.789 81.2656 124.694 81.2441 124.598 81.2414C124.404 81.2361 124.216 81.308 124.075 81.4412C123.934 81.5745 123.852 81.7582 123.846 81.952C123.841 82.1458 123.913 82.3337 124.046 82.4745C124.121 82.5552 124.214 82.6176 124.317 82.6571C124.419 82.6965 124.53 82.7119 124.64 82.7021V83.1761C124.461 83.184 124.283 83.1514 124.118 83.0808C123.954 83.0103 123.808 82.9034 123.69 82.7684C123.574 82.6566 123.483 82.522 123.421 82.3731C123.359 82.2243 123.329 82.0643 123.332 81.9032C123.335 81.7422 123.372 81.5835 123.439 81.4371C123.506 81.2908 123.603 81.1598 123.724 81.0525Z" fill="white"/>
<path d="M125.994 84.3715L125.263 83.6036L124.788 83.7932L124.418 83.3998L126.791 82.5703L127.147 82.9495L126.198 85.2579L125.785 84.8455L125.994 84.3715ZM126.169 83.9781L126.554 83.1154L125.671 83.452L126.169 83.9781Z" fill="white"/>
<path d="M127.326 86.4929L127.482 85.7345L127.164 85.4027L126.69 85.8388L126.324 85.4548L127.986 83.8906L128.664 84.6064C129.082 85.0472 129.115 85.5544 128.74 85.8909C128.634 86.0021 128.495 86.077 128.343 86.1051C128.191 86.1332 128.035 86.1129 127.895 86.0473L127.715 86.9195L127.326 86.4929ZM128.332 84.8623L128.033 84.5495L127.454 85.0946L127.753 85.4074C127.971 85.6397 128.194 85.6539 128.375 85.488C128.555 85.3221 128.55 85.0946 128.332 84.8434V84.8623Z" fill="white"/>
<path d="M128.012 86.8927L128.425 86.7505C128.465 87.0174 128.586 87.2655 128.771 87.4615C128.985 87.689 129.146 87.708 129.246 87.6132C129.554 87.3193 128.429 86.5609 129.046 85.9779C129.331 85.7125 129.777 85.7172 130.224 86.1865C130.42 86.3837 130.558 86.6314 130.622 86.9022L130.219 87.0586C130.17 86.8414 130.065 86.6406 129.915 86.4756C129.697 86.2481 129.531 86.2433 129.44 86.3381C129.137 86.6273 130.257 87.3952 129.649 87.9687C129.369 88.2294 128.918 88.2247 128.467 87.7507C128.233 87.5166 128.074 87.2178 128.012 86.8927Z" fill="white"/>
<path d="M133.139 89.3137L131.477 90.8826L131.117 90.4987L131.795 89.854L131.083 89.1004L130.405 89.745L130.039 89.3611L131.7 87.7969L132.061 88.1761L131.406 88.797L132.118 89.5507L132.773 88.9297L133.139 89.3137Z" fill="white"/>
<path d="M132.583 90.3895C132.755 90.207 132.978 90.0804 133.223 90.0259C133.468 89.9715 133.724 89.9918 133.957 90.0843C134.191 90.1768 134.391 90.3371 134.532 90.5445C134.673 90.7519 134.748 90.9968 134.748 91.2475C134.748 91.4981 134.673 91.7431 134.532 91.9504C134.391 92.1578 134.191 92.3181 133.957 92.4106C133.724 92.5031 133.468 92.5234 133.223 92.469C132.978 92.4146 132.755 92.2879 132.583 92.1054C132.467 91.9947 132.374 91.8616 132.311 91.7141C132.247 91.5667 132.215 91.4079 132.215 91.2475C132.215 91.087 132.247 90.9282 132.311 90.7808C132.374 90.6333 132.467 90.5002 132.583 90.3895ZM133.931 91.8115C134.004 91.7497 134.064 91.6733 134.107 91.5872C134.149 91.5011 134.173 91.4072 134.177 91.3113C134.181 91.2155 134.165 91.1199 134.13 91.0306C134.095 90.9412 134.042 90.8601 133.974 90.7924C133.877 90.6844 133.75 90.6078 133.609 90.5723C133.468 90.5368 133.319 90.5441 133.183 90.5932C133.046 90.6422 132.927 90.7309 132.841 90.8478C132.755 90.9647 132.706 91.1046 132.699 91.2496C132.693 91.3946 132.731 91.5381 132.807 91.6618C132.883 91.7855 132.994 91.8838 133.126 91.9441C133.258 92.0044 133.405 92.024 133.549 92.0004C133.692 91.9768 133.825 91.911 133.931 91.8115Z" fill="white"/>
<path d="M135.407 91.7109L135.768 92.0949L134.42 93.3747L135.208 94.2042L134.895 94.4981L133.746 93.2846L135.407 91.7109Z" fill="white"/>
<path d="M136.762 93.1445L137.474 93.8982C137.592 94.0036 137.687 94.1322 137.752 94.2761C137.818 94.4199 137.853 94.5758 137.855 94.7338C137.857 94.8919 137.827 95.0487 137.765 95.1943C137.704 95.3399 137.612 95.4711 137.497 95.5797C137.382 95.6883 137.246 95.7719 137.097 95.8251C136.948 95.8784 136.79 95.9002 136.632 95.8892C136.474 95.8782 136.32 95.8346 136.18 95.7611C136.04 95.6876 135.916 95.5859 135.817 95.4624L135.105 94.7087L136.762 93.1445ZM136.112 95.1448C136.168 95.2329 136.242 95.3076 136.33 95.3638C136.418 95.4199 136.517 95.4561 136.62 95.4697C136.724 95.4834 136.829 95.4741 136.929 95.4426C137.028 95.4112 137.119 95.3583 137.196 95.2876C137.273 95.217 137.333 95.1304 137.373 95.034C137.412 94.9375 137.43 94.8336 137.425 94.7295C137.419 94.6255 137.391 94.5238 137.343 94.4317C137.294 94.3397 137.225 94.2595 137.142 94.1968L136.81 93.8461L135.784 94.7988L136.112 95.1448Z" fill="white"/>
<path d="M138.481 97.6408L138.172 97.9347L136.957 96.6501L138.618 95.0859L139.8 96.3373L139.496 96.6264L138.671 95.759L138.31 96.0956L139.036 96.8682L138.737 97.1478L138.011 96.38L137.626 96.7402L138.481 97.6408Z" fill="white"/>
<path d="M139.462 99.3093L139.619 98.5556L139.301 98.2238L138.826 98.6599L138.461 98.276L140.122 96.707L140.801 97.4275C141.219 97.8683 141.252 98.3755 140.877 98.7121C140.77 98.8233 140.631 98.8982 140.48 98.9262C140.328 98.9543 140.172 98.9341 140.032 98.8685L139.852 99.7406L139.462 99.3093ZM140.469 97.6787L140.17 97.3659L139.595 97.9157L139.89 98.2286C140.113 98.4608 140.331 98.4751 140.511 98.3044C140.692 98.1338 140.687 97.9157 140.469 97.6787Z" fill="white"/>
<path d="M170.878 142.821C170.228 143.437 169.312 143.295 168.671 142.617C167.84 141.735 167.874 140.664 168.904 139.692C170.01 138.649 171.277 138.744 172.164 139.692C172.469 139.995 172.686 140.375 172.791 140.792L171.989 141.029C171.929 140.745 171.787 140.484 171.581 140.28C171.473 140.151 171.338 140.046 171.186 139.973C171.033 139.901 170.867 139.862 170.699 139.86C170.53 139.857 170.363 139.892 170.208 139.96C170.054 140.029 169.917 140.13 169.805 140.256C170.204 140.288 170.574 140.475 170.835 140.778C170.975 140.907 171.088 141.064 171.166 141.238C171.244 141.412 171.286 141.6 171.29 141.79C171.294 141.981 171.26 142.17 171.189 142.347C171.118 142.524 171.013 142.685 170.878 142.821ZM170.166 142.138C170.235 142.073 170.288 141.994 170.324 141.907C170.359 141.82 170.376 141.726 170.372 141.632C170.369 141.538 170.345 141.445 170.303 141.361C170.261 141.277 170.201 141.202 170.128 141.143C170.071 141.068 169.999 141.005 169.916 140.959C169.834 140.913 169.743 140.885 169.649 140.876C169.555 140.866 169.46 140.876 169.37 140.905C169.281 140.934 169.198 140.981 169.127 141.043C169.059 141.111 169.006 141.192 168.972 141.281C168.938 141.37 168.923 141.465 168.929 141.561C168.934 141.656 168.96 141.749 169.004 141.834C169.047 141.919 169.109 141.993 169.184 142.053C169.24 142.128 169.311 142.191 169.393 142.237C169.476 142.283 169.567 142.311 169.66 142.319C169.754 142.327 169.849 142.315 169.937 142.284C170.026 142.253 170.107 142.203 170.176 142.138H170.166Z" fill="white"/>
<path d="M175.15 141.629L175.753 142.259L170.024 144.819L169.426 144.184L175.15 141.629Z" fill="white"/>
<path d="M174.724 147.684L174.121 148.252L171.828 145.84L172.303 145.39L174.633 145.522C174.792 145.553 174.955 145.549 175.111 145.511C175.268 145.472 175.414 145.4 175.54 145.299C175.792 145.062 175.773 144.75 175.45 144.413C175.334 144.279 175.187 144.176 175.021 144.113C174.855 144.05 174.676 144.03 174.5 144.053L174.339 143.185C174.673 143.147 175.012 143.191 175.325 143.314C175.638 143.437 175.915 143.636 176.133 143.892C176.807 144.607 176.888 145.423 176.309 145.973C176 146.266 175.635 146.447 174.795 146.39L173.409 146.309L174.724 147.684Z" fill="white"/>
<path d="M177.805 150.796L177.33 150.28L176.661 150.91L175.978 150.19L176.652 149.559L175.023 147.839L175.522 147.365L178.973 146.957L179.708 147.73L176.462 148.147L177.273 149.005L177.871 148.441L178.531 149.137L177.933 149.701L178.408 150.223L177.805 150.796Z" fill="white"/>
<path d="M192.802 111.317C194.605 108.549 193.898 104.87 191.477 102.624C190.741 101.93 189.888 101.371 188.957 100.974C186.645 100.026 183.584 100.713 182.369 102.903C181.376 104.69 181.775 106.923 182.473 108.842C183.199 110.857 184.372 112.914 186.37 113.696C188.368 114.478 190.604 113.763 192.038 112.274C192.324 111.982 192.58 111.661 192.802 111.317Z" fill="#721B65"/>
<path d="M236.825 112.461H115.438C110.866 112.461 107.16 116.162 107.16 120.727V204.166C107.16 208.731 110.866 212.432 115.438 212.432H236.825C241.397 212.432 245.103 208.731 245.103 204.166V120.727C245.103 116.162 241.397 112.461 236.825 112.461Z" fill="#721B65"/>
<path d="M245.104 120.728C245.104 120.728 245.104 120.628 245.104 120.429C245.095 120.132 245.066 119.836 245.018 119.543C244.852 118.389 244.437 117.284 243.803 116.305C243.338 115.585 242.769 114.938 242.113 114.386C241.312 113.73 240.397 113.229 239.412 112.907C239.147 112.817 238.867 112.764 238.587 112.684C238.306 112.603 238.007 112.594 237.708 112.546L236.792 112.504H231.675L182.182 112.542H148.006H128.962H116.474C115.631 112.508 114.787 112.556 113.953 112.684C112.275 112.992 110.736 113.821 109.558 115.054C108.963 115.668 108.471 116.374 108.101 117.144C107.719 117.914 107.469 118.742 107.36 119.595C107.278 120.461 107.251 121.332 107.279 122.202V135.564C107.279 142.788 107.279 150.155 107.279 157.666V204.118C107.282 206.101 108.004 208.015 109.311 209.508C110.6 210.992 112.388 211.954 114.338 212.214C115.31 212.298 116.286 212.325 117.262 212.295H192.335H231.566H236.132C236.878 212.318 237.623 212.269 238.359 212.148C239.082 212.009 239.783 211.773 240.442 211.446C240.77 211.286 241.087 211.105 241.392 210.906C241.689 210.698 241.974 210.473 242.246 210.233C243.054 209.523 243.713 208.66 244.183 207.693C244.653 206.726 244.926 205.675 244.985 204.602C245.032 198.914 244.985 193.444 245.013 188.23C245.013 167.374 245.047 150.481 245.056 138.811C245.056 132.976 245.056 128.449 245.08 125.373C245.08 123.842 245.08 122.671 245.08 121.879C245.08 121.088 245.08 120.69 245.08 120.69C245.08 120.69 245.08 121.093 245.08 121.879C245.08 122.666 245.08 123.842 245.08 125.373C245.08 128.449 245.08 132.957 245.104 138.811C245.104 150.481 245.104 167.364 245.142 188.23C245.142 193.444 245.175 198.909 245.142 204.611C245.062 206.073 244.597 207.487 243.794 208.712C243.393 209.327 242.914 209.888 242.37 210.38C242.091 210.626 241.797 210.856 241.491 211.067C241.186 211.271 240.869 211.456 240.542 211.622C239.868 211.959 239.151 212.201 238.411 212.342C237.663 212.468 236.905 212.519 236.147 212.494H231.58H192.349H148.993H117.243C116.256 212.525 115.269 212.496 114.286 212.409C112.277 212.145 110.434 211.155 109.107 209.626C107.767 208.093 107.025 206.129 107.018 204.095C107.018 188.173 107.018 172.635 107.018 157.643V135.564C107.018 131.955 107.018 128.384 107.018 124.851V122.211C106.99 121.33 107.019 120.448 107.104 119.571C107.216 118.695 107.474 117.845 107.868 117.054C108.247 116.26 108.754 115.533 109.368 114.902C109.976 114.278 110.673 113.748 111.438 113.328C112.206 112.921 113.032 112.634 113.887 112.475L114.528 112.376L115.168 112.343C115.6 112.319 116.023 112.343 116.445 112.343H147.977H182.153L231.647 112.385H236.74L237.666 112.433C237.965 112.485 238.264 112.518 238.549 112.58C238.833 112.641 239.113 112.712 239.379 112.807C240.371 113.133 241.294 113.641 242.099 114.305C242.758 114.863 243.329 115.516 243.794 116.244C244.425 117.231 244.833 118.344 244.99 119.505C245.038 119.799 245.064 120.097 245.066 120.396C245.104 120.628 245.104 120.728 245.104 120.728Z" fill="#263238"/>
<path d="M240.273 118.623C241.216 118.459 242.179 118.459 243.121 118.623C242.179 118.788 241.216 118.788 240.273 118.623Z" fill="#263238"/>
<path d="M228.652 118.623C230.585 118.459 232.529 118.459 234.462 118.623C232.529 118.788 230.585 118.788 228.652 118.623Z" fill="#263238"/>
<path d="M217.039 118.623C218.971 118.459 220.913 118.459 222.844 118.623C220.913 118.788 218.971 118.788 217.039 118.623Z" fill="#263238"/>
<path d="M205.418 118.623C207.351 118.459 209.295 118.459 211.228 118.623C209.295 118.788 207.351 118.788 205.418 118.623Z" fill="#263238"/>
<path d="M193.801 118.623C195.732 118.459 197.674 118.459 199.606 118.623C197.674 118.788 195.732 118.788 193.801 118.623Z" fill="#263238"/>
<path d="M182.184 118.623C184.117 118.459 186.06 118.459 187.993 118.623C186.06 118.788 184.117 118.788 182.184 118.623Z" fill="#263238"/>
<path d="M170.566 118.623C172.498 118.459 174.44 118.459 176.372 118.623C174.44 118.788 172.498 118.788 170.566 118.623Z" fill="#263238"/>
<path d="M158.949 118.623C160.882 118.459 162.826 118.459 164.759 118.623C162.826 118.788 160.882 118.788 158.949 118.623Z" fill="#263238"/>
<path d="M147.328 118.623C149.261 118.459 151.205 118.459 153.138 118.623C151.205 118.788 149.261 118.788 147.328 118.623Z" fill="#263238"/>
<path d="M135.715 118.622C136.673 118.501 137.64 118.46 138.606 118.499C139.576 118.459 140.547 118.5 141.511 118.622C140.548 118.747 139.576 118.788 138.606 118.746C137.64 118.787 136.673 118.746 135.715 118.622Z" fill="#263238"/>
<path d="M124.094 118.622C125.057 118.5 126.029 118.459 126.999 118.499C127.969 118.459 128.94 118.5 129.904 118.622C128.941 118.747 127.969 118.788 126.999 118.746C126.029 118.788 125.057 118.747 124.094 118.622Z" fill="#263238"/>
<path d="M115.441 121.467C115.316 120.525 115.274 119.573 115.317 118.623L115.441 118.5H116.547L117.453 118.528C117.734 118.518 118.015 118.547 118.289 118.614C118.016 118.684 117.735 118.714 117.453 118.704L116.547 118.728H116.015H115.441L115.564 118.604C115.605 119.56 115.564 120.518 115.441 121.467Z" fill="#263238"/>
<path d="M115.441 132.099C115.316 131.218 115.274 130.328 115.317 129.44C115.274 128.553 115.316 127.664 115.441 126.785C115.562 127.664 115.604 128.553 115.564 129.44C115.604 130.328 115.563 131.218 115.441 132.099Z" fill="#263238"/>
<path d="M115.44 142.732C115.275 140.964 115.275 139.185 115.44 137.418C115.604 139.185 115.604 140.964 115.44 142.732Z" fill="#263238"/>
<path d="M115.44 153.361C115.275 151.592 115.275 149.812 115.44 148.043C115.604 149.812 115.604 151.592 115.44 153.361Z" fill="#263238"/>
<path d="M115.44 164.002C115.275 162.233 115.275 160.453 115.44 158.684C115.604 160.453 115.604 162.233 115.44 164.002Z" fill="#263238"/>
<path d="M115.44 174.622C115.275 172.855 115.275 171.076 115.44 169.309C115.604 171.076 115.604 172.855 115.44 174.622Z" fill="#263238"/>
<path d="M115.44 185.255C115.275 183.488 115.275 181.709 115.44 179.941C115.604 181.709 115.604 183.488 115.44 185.255Z" fill="#263238"/>
<path d="M115.44 195.884C115.275 194.116 115.275 192.338 115.44 190.57C115.604 192.338 115.604 194.116 115.44 195.884Z" fill="#263238"/>
<path d="M118.289 204.046C117.344 204.168 116.392 204.209 115.441 204.17C115.194 203.923 115.369 204.098 115.317 204.042V203.478C115.317 203.293 115.317 203.117 115.317 202.942C115.317 202.629 115.317 202.33 115.317 202.037C115.303 201.757 115.334 201.477 115.407 201.207C115.475 201.478 115.503 201.757 115.493 202.037C115.493 202.33 115.493 202.629 115.521 202.942C115.521 203.117 115.521 203.293 115.521 203.478C115.521 203.568 115.521 203.662 115.521 203.757V204.042C115.464 203.989 115.645 204.17 115.398 203.923C116.363 203.878 117.331 203.919 118.289 204.046Z" fill="#263238"/>
<path d="M129.735 204.049C128.791 204.17 127.838 204.211 126.887 204.172C125.936 204.211 124.983 204.17 124.039 204.049C124.983 203.925 125.936 203.884 126.887 203.926C127.838 203.884 128.791 203.925 129.735 204.049Z" fill="#263238"/>
<path d="M141.184 204.049C140.24 204.17 139.287 204.211 138.336 204.172C137.385 204.211 136.432 204.17 135.488 204.049C136.432 203.925 137.385 203.884 138.336 203.926C139.287 203.884 140.24 203.925 141.184 204.049Z" fill="#263238"/>
<path d="M152.635 204.049C150.73 204.213 148.815 204.213 146.91 204.049C148.815 203.885 150.73 203.885 152.635 204.049Z" fill="#263238"/>
<path d="M164.084 204.049C162.179 204.213 160.264 204.213 158.359 204.049C160.264 203.885 162.179 203.885 164.084 204.049Z" fill="#263238"/>
<path d="M175.533 204.049C173.628 204.213 171.713 204.213 169.809 204.049C171.713 203.885 173.628 203.885 175.533 204.049Z" fill="#263238"/>
<path d="M186.982 204.049C185.078 204.213 183.162 204.213 181.258 204.049C183.162 203.885 185.078 203.885 186.982 204.049Z" fill="#263238"/>
<path d="M198.412 204.049C196.507 204.213 194.592 204.213 192.688 204.049C194.592 203.885 196.507 203.885 198.412 204.049Z" fill="#263238"/>
<path d="M209.881 204.049C207.976 204.213 206.061 204.213 204.156 204.049C206.061 203.885 207.976 203.885 209.881 204.049Z" fill="#263238"/>
<path d="M221.33 204.049C219.425 204.213 217.51 204.213 215.605 204.049C217.51 203.885 219.425 203.885 221.33 204.049Z" fill="#263238"/>
<path d="M232.783 204.049C230.878 204.213 228.963 204.213 227.059 204.049C228.963 203.885 230.878 203.885 232.783 204.049Z" fill="#263238"/>
<path d="M241.356 204.049C240.414 204.213 239.45 204.213 238.508 204.049C239.45 203.885 240.414 203.885 241.356 204.049Z" fill="#263238"/>
<g opacity="0.3">
<path opacity="0.3" d="M154.744 167.91C154.744 167.91 154.772 172.65 153.32 175.494C151.867 178.338 151.421 179.466 148.383 180.566C145.345 181.666 107.125 185.861 107.125 185.861V172.982L154.744 167.91Z" fill="black"/>
</g>
<g opacity="0.3">
<path opacity="0.3" d="M154.071 150.038C154.071 150.038 154.508 145.199 142.352 143.402C128.449 141.35 107.16 138.828 107.16 138.828V147.981L154.071 150.038Z" fill="black"/>
</g>
<path d="M147.97 145.652H108.425C104.674 145.652 101.633 148.689 101.633 152.435V170.115C101.633 173.862 104.674 176.898 108.425 176.898H147.97C151.721 176.898 154.762 173.862 154.762 170.115V152.435C154.762 148.689 151.721 145.652 147.97 145.652Z" fill="#721B65"/>
<path d="M108.424 176.892C108.424 176.892 108.286 176.892 108.021 176.892C107.622 176.877 107.226 176.823 106.839 176.731C106.204 176.588 105.595 176.352 105.03 176.03C104.257 175.594 103.578 175.009 103.032 174.309C102.34 173.432 101.876 172.398 101.679 171.299C101.58 170.672 101.542 170.037 101.565 169.403C101.565 168.749 101.565 168.066 101.565 167.36C101.565 164.54 101.565 161.331 101.565 157.781C101.565 156.003 101.565 154.15 101.565 152.206C101.597 151.182 101.858 150.178 102.33 149.267C102.801 148.357 103.471 147.563 104.29 146.945C105.15 146.284 106.159 145.842 107.228 145.656C107.771 145.566 108.32 145.528 108.87 145.542H117.414H148.002C149.032 145.54 150.05 145.769 150.98 146.212C151.91 146.655 152.728 147.301 153.375 148.102C154.231 149.15 154.757 150.428 154.884 151.775C154.937 152.443 154.918 153.093 154.922 153.742C154.922 155.041 154.922 156.329 154.922 157.605V165.128C154.922 166.355 154.922 167.573 154.922 168.773C154.922 169.379 154.946 169.967 154.922 170.574C154.905 170.875 154.869 171.174 154.813 171.47C154.749 171.761 154.669 172.049 154.576 172.332C154.189 173.442 153.526 174.435 152.648 175.217C151.77 175.999 150.707 176.545 149.559 176.802C149.284 176.865 149.007 176.914 148.728 176.949C148.448 176.973 148.168 176.982 147.888 176.992H143.07H131.441L114.599 176.949L110.019 176.926H108.832H108.424C108.424 176.926 108.562 176.926 108.832 176.926H110.019L114.599 176.902L131.441 176.864H143.07H146.255C147.337 176.835 148.443 176.954 149.506 176.674C150.607 176.412 151.623 175.875 152.46 175.114C153.297 174.353 153.927 173.393 154.291 172.323C154.699 171.228 154.642 170.038 154.642 168.834V165.189C154.642 162.734 154.642 160.222 154.642 157.667V153.804C154.642 153.154 154.642 152.496 154.609 151.86C154.481 150.562 153.975 149.329 153.152 148.315C152.738 147.813 152.259 147.368 151.728 146.992C151.176 146.63 150.577 146.344 149.948 146.144C149.311 145.959 148.651 145.86 147.988 145.85H117.4H108.856C108.317 145.836 107.779 145.872 107.247 145.959C106.211 146.138 105.234 146.564 104.399 147.201C103.603 147.8 102.951 148.569 102.491 149.453C102.031 150.336 101.774 151.311 101.741 152.306C101.717 154.235 101.741 156.098 101.741 157.875C101.741 161.426 101.741 164.635 101.741 167.455C101.741 168.161 101.741 168.844 101.741 169.498C101.717 170.124 101.752 170.751 101.845 171.37C102.073 172.662 102.671 173.861 103.568 174.82C104.464 175.779 105.62 176.458 106.896 176.774C107.28 176.87 107.673 176.93 108.068 176.954L108.424 176.892Z" fill="#263238"/>
<path d="M138.756 173.808C145.037 173.808 150.129 168.723 150.129 162.451C150.129 156.178 145.037 151.094 138.756 151.094C132.475 151.094 127.383 156.178 127.383 162.451C127.383 168.723 132.475 173.808 138.756 173.808Z" fill="white"/>
<path d="M141.668 171.724C142.63 171.368 143.542 170.89 144.383 170.302C145.277 169.648 146.054 168.846 146.68 167.932C147.46 166.824 147.976 165.552 148.189 164.214C148.403 162.876 148.307 161.507 147.91 160.211C147.6 159.148 147.108 158.145 146.457 157.248C145.844 156.429 145.126 155.693 144.321 155.059C144.321 155.059 144.393 155.087 144.506 155.163C144.682 155.272 144.852 155.391 145.014 155.518C145.612 155.988 146.145 156.535 146.6 157.144C147.282 158.047 147.8 159.062 148.128 160.145C148.55 161.471 148.656 162.878 148.437 164.252C148.218 165.626 147.679 166.931 146.866 168.06C146.22 168.983 145.416 169.786 144.492 170.43C143.872 170.869 143.195 171.221 142.48 171.478C142.287 171.552 142.091 171.613 141.891 171.663C141.821 171.698 141.746 171.719 141.668 171.724Z" fill="#B6B9C1"/>
<path d="M316.804 89.6539C317.189 93.7899 316.336 97.9469 314.353 101.598C312.37 105.25 309.347 108.232 305.665 110.166C301.984 112.1 297.811 112.9 293.674 112.463C289.538 112.027 285.624 110.375 282.428 107.716C279.233 105.057 276.899 101.51 275.724 97.5256C274.548 93.5411 274.583 89.2979 275.825 85.3334C277.066 81.3688 279.458 77.8614 282.697 75.2553C285.936 72.6492 289.877 71.0617 294.02 70.6939C299.558 70.196 305.068 71.9128 309.339 75.4676C313.611 79.0223 316.296 84.1244 316.804 89.6539Z" fill="#721B65"/>
<g opacity="0.3">
<path opacity="0.3" d="M311.768 89.5892C311.673 89.5892 311.545 88.9114 311.18 87.6932C310.668 86.0134 309.899 84.4226 308.901 82.9769C308.213 81.9901 307.417 81.0824 306.528 80.2704C305.512 79.3383 304.379 78.5417 303.158 77.9004C302.501 77.5544 301.818 77.2582 301.117 77.014C300.388 76.7579 299.64 76.5566 298.881 76.412C298.098 76.2619 297.305 76.1716 296.508 76.1418C295.684 76.1138 294.859 76.1471 294.04 76.2414C293.223 76.3427 292.414 76.5011 291.619 76.7154C290.849 76.9364 290.097 77.2153 289.369 77.5496C287.99 78.1822 286.71 79.0125 285.572 80.0144C284.537 80.9222 283.625 81.9593 282.856 83.1002C282.19 84.101 281.636 85.1724 281.205 86.2949C280.579 87.9346 280.214 89.6619 280.122 91.4141C280.051 92.6655 280.094 93.367 279.994 93.3812C279.895 93.3954 279.724 92.7034 279.643 91.4141C279.553 89.5811 279.804 87.7473 280.383 86.0058C281.246 83.3864 282.774 81.0349 284.817 79.1802C286.021 78.0781 287.385 77.1626 288.861 76.4641C289.642 76.0953 290.452 75.7894 291.282 75.5493C292.137 75.305 293.01 75.126 293.892 75.0137C294.776 74.9132 295.666 74.8783 296.555 74.9094C297.42 74.9479 298.28 75.0525 299.128 75.2223C300.728 75.5479 302.27 76.1103 303.704 76.8908C306.13 78.2078 308.176 80.1278 309.642 82.465C310.623 84.0176 311.305 85.7392 311.655 87.5415C311.854 88.8782 311.854 89.5892 311.768 89.5892Z" fill="black"/>
</g>
<g opacity="0.3">
<path opacity="0.3" d="M298.528 100.86L298.818 103.628L296.34 103.888L296.06 101.191C293.592 101.296 291.161 100.774 289.69 99.8547L290.734 96.6932C292.258 97.5363 293.976 97.9691 295.718 97.9493L295.286 93.8207C292.472 93.4368 289.306 92.8443 288.935 89.3035C288.66 86.6823 290.336 84.2364 294.199 83.3832L293.915 80.6388L296.392 80.3828L296.672 83.0751C298.454 82.9917 300.23 83.3295 301.856 84.0611L300.94 87.2179C299.705 86.6645 298.372 86.3616 297.019 86.3268L297.456 90.5312C300.27 90.8867 303.389 91.4792 303.75 94.9773C304.02 97.5653 302.364 99.9875 298.528 100.86ZM294.916 90.1851L294.546 86.6728C293.269 87.1041 292.823 87.8768 292.908 88.692C292.994 89.5073 293.786 89.9529 294.916 90.1851ZM299.796 95.7025C299.705 94.8351 298.937 94.4417 297.835 94.181L298.191 97.5938C299.402 97.1956 299.876 96.4941 299.796 95.7025Z" fill="black"/>
</g>
<path d="M279.931 92.9848C279.946 93.0261 279.958 93.069 279.964 93.1128C279.964 93.2124 280.002 93.3356 280.03 93.4873C280.059 93.639 280.087 93.8617 280.125 94.094C280.164 94.3721 280.219 94.6475 280.291 94.9188C280.973 97.8732 282.473 100.577 284.62 102.721L285.37 103.403C285.498 103.512 285.617 103.636 285.755 103.745L286.177 104.057C286.462 104.266 286.742 104.498 287.046 104.693L287.995 105.266C289.354 106.033 290.817 106.6 292.338 106.949C295.631 107.701 299.078 107.384 302.178 106.044C303.61 105.423 304.945 104.599 306.142 103.598L306.968 102.863C307.233 102.617 307.442 102.337 307.703 102.081C307.822 101.953 307.945 101.825 308.059 101.697C308.173 101.569 308.273 101.422 308.382 101.289C308.586 101.014 308.79 100.749 308.994 100.484C309.686 99.4659 310.264 98.3755 310.717 97.2319C311.373 95.5672 311.747 93.8051 311.823 92.0179C311.842 91.7385 311.842 91.4583 311.823 91.1789C311.823 90.9419 311.823 90.7333 311.823 90.5627C311.823 90.3921 311.823 90.283 311.823 90.1835C311.819 90.1393 311.819 90.0949 311.823 90.0508C311.828 90.0933 311.828 90.1363 311.823 90.1788C311.823 90.2783 311.823 90.4063 311.852 90.558C311.88 90.7096 311.852 90.9372 311.885 91.1789C311.907 91.4597 311.907 91.7418 311.885 92.0226C311.846 93.8248 311.494 95.6065 310.846 97.2888C310.403 98.4571 309.826 99.5705 309.127 100.607L308.534 101.436C308.425 101.574 308.325 101.721 308.211 101.853L307.85 102.247C307.608 102.507 307.376 102.787 307.105 103.038L306.275 103.792C305.064 104.812 303.711 105.652 302.259 106.285C299.12 107.648 295.627 107.97 292.291 107.205C290.746 106.847 289.262 106.266 287.886 105.479L286.937 104.896C286.628 104.697 286.348 104.46 286.059 104.252L285.636 103.929C285.498 103.82 285.375 103.692 285.242 103.579L284.473 102.858C283.601 101.968 282.832 100.982 282.18 99.9195C281.236 98.3824 280.565 96.6938 280.196 94.9282C280.129 94.6556 280.081 94.3783 280.054 94.0987C280.025 93.8617 280.002 93.6532 279.978 93.4825C279.954 93.3119 279.95 93.2029 279.935 93.1033C279.93 93.0641 279.929 93.0244 279.931 92.9848Z" fill="#263238"/>
<path d="M287.173 151.514C286.129 153.689 284.461 155.506 282.381 156.735C280.302 157.963 277.904 158.548 275.492 158.415C273.079 158.282 270.76 157.437 268.829 155.987C266.898 154.537 265.441 152.547 264.643 150.27C263.844 147.993 263.741 145.53 264.345 143.194C264.949 140.858 266.233 138.753 268.036 137.147C269.839 135.54 272.078 134.504 274.471 134.169C276.863 133.834 279.302 134.215 281.477 135.265C282.92 135.959 284.212 136.929 285.278 138.121C286.345 139.313 287.167 140.703 287.696 142.211C288.225 143.72 288.451 145.318 288.361 146.915C288.272 148.511 287.868 150.074 287.173 151.514Z" fill="#721B65"/>
<g opacity="0.3">
<path opacity="0.3" d="M284.701 149.995C284.75 149.616 284.839 149.242 284.967 148.881C285.212 147.892 285.303 146.87 285.238 145.853C285.186 145.155 285.061 144.466 284.863 143.795C284.629 143.031 284.299 142.3 283.88 141.62C283.654 141.253 283.401 140.903 283.125 140.572C282.225 139.497 281.087 138.644 279.803 138.079C279.364 137.887 278.912 137.729 278.45 137.605C278 137.487 277.541 137.403 277.078 137.354C276.632 137.303 276.183 137.287 275.735 137.306C275.303 137.323 274.873 137.372 274.448 137.453C273.662 137.596 272.897 137.841 272.175 138.183C271.544 138.485 270.947 138.853 270.395 139.283C269.595 139.918 268.899 140.673 268.33 141.52C268.145 141.857 267.927 142.174 267.68 142.468C267.737 142.081 267.878 141.71 268.093 141.383C268.594 140.432 269.27 139.585 270.086 138.885C270.646 138.398 271.263 137.981 271.923 137.643C272.684 137.254 273.493 136.968 274.33 136.794C275.266 136.601 276.226 136.55 277.178 136.643C277.678 136.692 278.173 136.781 278.659 136.908C279.158 137.043 279.647 137.214 280.121 137.42C280.593 137.631 281.048 137.879 281.483 138.159C281.902 138.434 282.299 138.742 282.67 139.079C283.031 139.403 283.364 139.757 283.666 140.136C283.958 140.494 284.222 140.875 284.454 141.274C284.891 142.015 285.225 142.812 285.446 143.644C285.635 144.359 285.739 145.094 285.755 145.834C285.782 146.9 285.61 147.963 285.247 148.967C285.138 149.343 284.952 149.694 284.701 149.995Z" fill="black"/>
</g>
<g opacity="0.3">
<path opacity="0.3" d="M274.732 151.683L274.053 153.148L272.738 152.541L273.403 151.119C272.254 150.54 271.29 149.652 270.621 148.555L272.088 147.289C272.597 148.165 273.325 148.893 274.2 149.403L275.221 147.213C273.925 146.185 272.525 144.943 273.398 143.071C274.043 141.682 275.605 140.957 277.789 141.682L278.467 140.227L279.777 140.838L279.113 142.26C280.028 142.747 280.813 143.444 281.406 144.293L279.982 145.602C279.53 144.958 278.956 144.411 278.292 143.99L277.257 146.218C278.553 147.232 279.929 148.46 279.07 150.309C278.458 151.683 276.91 152.38 274.732 151.683ZM276.113 145.279L276.982 143.421C276.213 143.255 275.757 143.507 275.558 143.938C275.358 144.369 275.624 144.82 276.113 145.27V145.279ZM276.906 149.489C277.115 149.015 276.853 148.602 276.379 148.142L275.539 149.953C276.255 150.105 276.73 149.896 276.906 149.479V149.489Z" fill="black"/>
</g>
<path d="M267.802 142.203C267.802 142.203 267.66 142.587 267.427 143.284C267.113 144.27 266.965 145.302 266.991 146.336C267.009 147.048 267.106 147.755 267.28 148.446C267.487 149.243 267.791 150.012 268.187 150.735C268.637 151.517 269.196 152.23 269.848 152.854C271.257 154.204 273.062 155.068 274.998 155.319C275.893 155.435 276.799 155.422 277.69 155.281C279.207 155.038 280.64 154.421 281.857 153.484C282.68 152.854 283.393 152.093 283.97 151.233C284.363 150.617 284.549 150.247 284.572 150.261C284.544 150.356 284.504 150.446 284.454 150.531C284.333 150.788 284.199 151.038 284.05 151.28C283.497 152.176 282.792 152.968 281.966 153.622C280.741 154.608 279.28 155.261 277.728 155.518C276.814 155.671 275.883 155.689 274.965 155.57C273.979 155.432 273.02 155.15 272.117 154.731C271.226 154.293 270.405 153.724 269.682 153.043C269.016 152.402 268.447 151.668 267.992 150.863C267.579 150.132 267.26 149.352 267.043 148.541C266.875 147.834 266.788 147.11 266.782 146.384C266.77 145.333 266.945 144.288 267.299 143.298C267.392 143.03 267.503 142.769 267.631 142.516C267.676 142.405 267.733 142.3 267.802 142.203Z" fill="#263238"/>
<path d="M85.6489 149.784C86.2272 153.681 85.6343 157.663 83.9453 161.223C82.2563 164.784 79.5472 167.765 76.1609 169.787C72.7746 171.809 68.8636 172.783 64.9229 172.584C60.9823 172.385 57.1893 171.024 54.0242 168.671C50.8592 166.318 48.4644 163.081 47.1431 159.368C45.8219 155.655 45.6336 151.635 46.6021 147.815C47.5706 143.995 49.6523 140.549 52.5836 137.911C55.515 135.274 59.1641 133.564 63.069 132.999C65.6553 132.621 68.2909 132.754 70.8254 133.393C73.3599 134.032 75.7436 135.162 77.8404 136.721C79.9371 138.28 81.7059 140.235 83.0457 142.477C84.3855 144.718 85.2701 147.201 85.6489 149.784Z" fill="#721B65"/>
<g opacity="0.3">
<path opacity="0.3" d="M80.882 149.985C80.7918 149.985 80.6304 149.354 80.2222 148.241C79.6539 146.674 78.8435 145.206 77.8204 143.889C77.1197 142.994 76.324 142.177 75.447 141.453C74.433 140.629 73.3161 139.941 72.1244 139.405C71.4842 139.112 70.8225 138.868 70.145 138.675C69.4417 138.462 68.7228 138.303 67.9948 138.201C67.243 138.099 66.4845 138.055 65.7259 138.068C64.9445 138.088 64.1656 138.164 63.3953 138.296C62.6255 138.436 61.8671 138.632 61.1263 138.884C60.409 139.134 59.7109 139.437 59.0378 139.789C58.3882 140.131 57.7661 140.522 57.1771 140.96C56.6085 141.376 56.0707 141.832 55.568 142.325C53.82 144.041 52.5167 146.156 51.7707 148.487C51.2641 150.075 51.0094 151.731 51.0159 153.398C51.0159 154.583 51.0871 155.246 51.0159 155.26C50.9447 155.275 50.7217 154.635 50.584 153.421C50.3968 151.69 50.5385 149.939 51.0017 148.259C51.316 147.091 51.7685 145.965 52.3498 144.904C53.026 143.684 53.8625 142.56 54.837 141.562C55.3643 141.02 55.9324 140.519 56.5363 140.064C57.1648 139.585 57.8298 139.155 58.5252 138.779C59.246 138.39 59.9968 138.059 60.7703 137.789C62.366 137.226 64.0432 136.928 65.7354 136.907C66.5547 136.898 67.3735 136.952 68.1846 137.068C68.968 137.179 69.7411 137.354 70.4963 137.59C71.2196 137.811 71.9256 138.085 72.6085 138.41C74.9741 139.531 77.0109 141.242 78.5229 143.377C79.5314 144.799 80.2684 146.395 80.6969 148.084C80.9437 149.312 80.9484 149.975 80.882 149.985Z" fill="black"/>
</g>
<g opacity="0.3">
<path opacity="0.3" d="M68.9302 161.34L69.3479 163.947L67.0172 164.322L66.609 161.781C64.2784 162.008 61.9478 161.643 60.5048 160.833L61.3307 157.785C62.8171 158.513 64.4682 158.839 66.1201 158.733L65.4983 154.846C62.807 154.633 59.7786 154.23 59.2422 150.903C58.8482 148.433 60.3055 146.025 63.9224 145.02L63.5047 142.432L65.8401 142.062L66.2435 144.598C67.9278 144.427 69.6288 144.654 71.2086 145.262L70.5013 148.315C69.3016 147.854 68.022 147.636 66.7372 147.675L67.3732 151.633C70.0599 151.822 73.0408 152.23 73.5676 155.515C73.9569 157.932 72.5186 160.312 68.9302 161.34ZM64.9477 151.419L64.4161 148.101C63.2247 148.575 62.8449 149.334 62.9683 150.102C63.0918 150.869 63.8702 151.258 64.9477 151.419ZM69.8605 156.392C69.7276 155.576 68.9824 155.24 67.9239 155.05L68.4365 158.264C69.5615 157.842 69.9792 157.136 69.8605 156.392Z" fill="black"/>
</g>
<path d="M50.9079 154.859C50.9222 154.897 50.9333 154.937 50.9412 154.977C50.9649 155.067 50.9934 155.186 51.0266 155.328L51.15 155.897C51.201 156.158 51.2675 156.416 51.3494 156.669C51.821 158.297 52.5605 159.835 53.5376 161.22C54.2115 162.173 54.9901 163.047 55.8587 163.827L56.6039 164.434C56.7321 164.533 56.8555 164.642 56.9884 164.737L57.4061 165.012C57.6862 165.192 57.9615 165.396 58.2605 165.566L59.1814 166.04C60.5088 166.695 61.9235 167.157 63.3822 167.41C64.9534 167.659 66.5525 167.676 68.1288 167.462C69.6991 167.209 71.2243 166.73 72.6572 166.04C73.9785 165.376 75.198 164.527 76.2789 163.519L77.0193 162.775C77.2614 162.528 77.4608 162.253 77.6791 162.002L77.9972 161.618C78.1016 161.485 78.187 161.348 78.2772 161.215C78.4623 160.945 78.638 160.679 78.8183 160.419C79.4189 159.419 79.9091 158.358 80.2803 157.252C80.8143 155.643 81.0758 153.956 81.054 152.261C81.0633 151.995 81.0522 151.729 81.0208 151.465C81.0208 151.242 80.9876 151.048 80.9781 150.882C80.9686 150.716 80.9781 150.621 80.9543 150.522C80.9481 150.481 80.9481 150.439 80.9543 150.398C80.9689 150.438 80.9769 150.48 80.9781 150.522C80.9781 150.616 81.0065 150.735 81.0255 150.877C81.0445 151.019 81.0683 151.237 81.0967 151.46C81.133 151.726 81.1505 151.993 81.149 152.261C81.2105 153.97 80.9727 155.677 80.4464 157.305C80.0852 158.431 79.5963 159.512 78.9892 160.528L78.4528 161.334C78.3579 161.471 78.2725 161.613 78.168 161.746L77.85 162.135C77.6317 162.395 77.4276 162.675 77.1855 162.926C76.9434 163.177 76.7108 163.429 76.4355 163.68C75.3421 164.712 74.1046 165.581 72.7616 166.258C69.854 167.716 66.5545 168.203 63.3489 167.647C61.8636 167.382 60.4247 166.903 59.0769 166.225L58.1276 165.718C57.8238 165.547 57.5485 165.339 57.2637 165.154L56.8413 164.874C56.7084 164.775 56.5849 164.661 56.452 164.562L55.7021 163.945C54.829 163.148 54.0488 162.254 53.3762 161.281C52.4017 159.874 51.679 158.309 51.2402 156.655C51.1588 156.4 51.0984 156.138 51.0598 155.873C51.0218 155.65 50.9886 155.461 50.9554 155.295L50.8984 154.939C50.8993 154.912 50.9025 154.885 50.9079 154.859Z" fill="#263238"/>
<path d="M336.289 212.447C336.289 212.519 265.417 212.575 178.011 212.575C90.6063 212.575 19.7148 212.519 19.7148 212.447C19.7148 212.376 90.5731 212.324 178.011 212.324C265.45 212.324 336.289 212.381 336.289 212.447Z" fill="#263238"/>
<path d="M262.489 123.399C262.489 123.399 262.456 120.247 262.318 120.219L255.844 121.664C255.773 122.072 254.956 127.248 255.094 127.751L262.399 129.775C262.399 129.775 262.489 123.584 262.489 123.399Z" fill="#FFBE9D"/>
<path d="M262.488 129.298C262.508 129.253 262.518 129.205 262.516 129.156C262.592 128.45 262.549 125.364 262.17 125.236C261.79 125.108 260.693 125.326 260.622 125.733C260.551 126.141 260.798 129.611 260.798 129.611C260.798 129.611 260.869 130.156 261.79 130.289C262.369 130.35 262.488 129.298 262.488 129.298Z" fill="#FFBE9D"/>
<path d="M260.648 130.406C260.668 130.361 260.678 130.312 260.676 130.263C260.752 129.557 260.71 126.471 260.33 126.339C259.95 126.206 258.854 126.433 258.782 126.841C258.711 127.249 258.958 130.718 258.958 130.718C258.958 130.718 259.029 131.264 259.95 131.396C260.52 131.477 260.648 130.406 260.648 130.406Z" fill="#FFBE9D"/>
<path d="M258.835 130.958C258.835 130.958 258.859 130.901 258.869 130.815C258.945 130.109 258.897 127.023 258.522 126.895C258.147 126.767 257.041 126.99 256.97 127.398C256.899 127.806 257.146 131.27 257.146 131.27C257.146 131.27 257.217 131.82 258.138 131.953C258.693 132.034 258.835 130.958 258.835 130.958Z" fill="#FFBE9D"/>
<path d="M257.032 131.477C257.032 131.477 257.032 131.42 257.065 131.335C257.141 130.629 257.094 127.543 256.719 127.415C256.344 127.287 255.243 127.51 255.167 127.913C255.091 128.316 255.342 131.79 255.342 131.79C255.342 131.79 255.418 132.335 256.339 132.468C256.909 132.553 257.032 131.477 257.032 131.477Z" fill="#FFBE9D"/>
<path d="M260.618 126.633C260.728 127.126 260.776 127.631 260.761 128.135C260.81 128.63 260.794 129.129 260.713 129.619C260.603 129.126 260.555 128.621 260.571 128.116C260.522 127.622 260.538 127.123 260.618 126.633Z" fill="#EB996E"/>
<path d="M258.796 126.625C258.921 127.329 258.98 128.043 258.971 128.758C259.031 129.471 259.023 130.189 258.948 130.9C258.829 130.196 258.771 129.482 258.777 128.767C258.72 128.054 258.726 127.337 258.796 126.625Z" fill="#EB996E"/>
<g opacity="0.78">
<path opacity="0.78" d="M256.951 126.773C257.07 127.478 257.128 128.192 257.122 128.906C257.186 129.619 257.186 130.336 257.122 131.049C257 130.345 256.941 129.631 256.947 128.916C256.886 128.203 256.888 127.486 256.951 126.773Z" fill="#EB996E"/>
</g>
<path d="M255.785 121.816C255.785 121.816 253.217 127.647 253.592 128.012C254.085 128.372 254.615 128.678 255.173 128.926L255.785 121.816Z" fill="#FFBE9D"/>
<path d="M241.606 43.6448L239.707 65.4488L228.79 64.5766C228.718 63.3016 228.813 58.3672 228.813 58.3672C228.813 58.3672 224.261 57.661 224.204 53.12C224.181 50.9159 224.494 46.3561 224.826 42.2465C225.004 40.0566 226.032 38.023 227.692 36.5809C229.352 35.1387 231.511 34.4025 233.707 34.5298C234.831 34.5953 235.929 34.885 236.939 35.3818C237.948 35.8785 238.847 36.5722 239.584 37.422C240.32 38.2717 240.878 39.2601 241.226 40.329C241.573 41.3978 241.702 42.5252 241.606 43.6448Z" fill="#FFBE9D"/>
<path d="M228.787 58.3007C230.887 58.3392 232.951 57.7517 234.715 56.6133C234.715 56.6133 233.291 59.8839 228.777 59.4573L228.787 58.3007Z" fill="#EB996E"/>
<path d="M226.012 45.4334C226.012 45.6021 226.077 45.7643 226.193 45.8862C226.31 46.008 226.47 46.0802 226.638 46.0875C226.721 46.0946 226.804 46.085 226.883 46.0593C226.962 46.0336 227.034 45.9924 227.097 45.9379C227.159 45.8835 227.21 45.8171 227.246 45.7426C227.283 45.6682 227.303 45.5872 227.308 45.5045C227.311 45.3351 227.248 45.171 227.132 45.0477C227.016 44.9244 226.855 44.8518 226.686 44.8456C226.603 44.8392 226.519 44.8494 226.44 44.8755C226.361 44.9017 226.288 44.9434 226.225 44.9981C226.162 45.0529 226.111 45.1196 226.075 45.1943C226.038 45.269 226.017 45.3503 226.012 45.4334Z" fill="#263238"/>
<path d="M225.775 44.5537C225.856 44.639 226.35 44.274 227.047 44.2787C227.745 44.2835 228.258 44.6295 228.334 44.5442C228.41 44.4589 228.291 44.3546 228.068 44.1887C227.763 43.9806 227.402 43.8699 227.033 43.8711C226.671 43.8735 226.317 43.9878 226.022 44.1982C225.809 44.3451 225.737 44.4968 225.775 44.5537Z" fill="#263238"/>
<path d="M232.895 45.4334C232.894 45.6044 232.962 45.7687 233.081 45.891C233.201 46.0132 233.364 46.0838 233.535 46.0875C233.617 46.0926 233.698 46.0816 233.776 46.055C233.853 46.0284 233.924 45.9868 233.985 45.9325C234.046 45.8783 234.095 45.8126 234.13 45.7391C234.166 45.6656 234.186 45.5859 234.19 45.5045C234.194 45.3351 234.131 45.171 234.015 45.0477C233.898 44.9244 233.738 44.8518 233.569 44.8456C233.485 44.8392 233.402 44.8494 233.323 44.8755C233.244 44.9017 233.171 44.9434 233.108 44.9981C233.045 45.0529 232.994 45.1196 232.957 45.1943C232.921 45.269 232.899 45.3503 232.895 45.4334Z" fill="#263238"/>
<path d="M232.641 44.667C232.722 44.7523 233.216 44.3874 233.913 44.3874C234.611 44.3874 235.129 44.7381 235.204 44.6528C235.28 44.5675 235.157 44.4632 234.934 44.302C234.631 44.093 234.272 43.9821 233.904 43.9845C233.54 43.9807 233.185 44.0955 232.893 44.3115C232.679 44.4774 232.584 44.6291 232.641 44.667Z" fill="#263238"/>
<path d="M230.107 49.8437C229.739 49.73 229.358 49.6616 228.973 49.6399C228.792 49.6399 228.626 49.583 228.593 49.4645C228.578 49.2797 228.619 49.0946 228.712 48.9336L229.243 47.578C229.974 45.6441 230.506 44.0562 230.425 44.0277C230.345 43.9993 229.69 45.5398 228.959 47.4737C228.783 47.9477 228.612 48.4217 228.451 48.8388C228.34 49.0552 228.308 49.3031 228.36 49.5404C228.388 49.6023 228.429 49.6576 228.479 49.7026C228.53 49.7476 228.59 49.7811 228.655 49.8011C228.754 49.8253 228.856 49.8395 228.959 49.8437C229.34 49.8917 229.726 49.8917 230.107 49.8437Z" fill="#263238"/>
<path d="M232.164 50.3282C232.05 50.3282 232.05 51.0771 231.4 51.6175C230.749 52.1579 229.942 52.0915 229.938 52.1768C229.933 52.2621 230.118 52.3238 230.46 52.3332C230.904 52.3379 231.335 52.1869 231.68 51.9066C232.013 51.6388 232.226 51.2503 232.273 50.8259C232.301 50.5083 232.216 50.3235 232.164 50.3282Z" fill="#263238"/>
<path d="M232.46 41.9334C232.532 42.123 233.229 42.0329 234.051 42.1325C234.872 42.232 235.532 42.4548 235.641 42.2842C235.688 42.1988 235.574 42.0235 235.308 41.8386C234.952 41.6136 234.548 41.4727 234.129 41.4267C233.709 41.3807 233.285 41.4308 232.888 41.5732C232.584 41.7106 232.432 41.8433 232.46 41.9334Z" fill="#263238"/>
<path d="M226.029 42.5162C226.152 42.6774 226.631 42.5162 227.211 42.5162C227.79 42.5162 228.283 42.6252 228.397 42.4593C228.445 42.3787 228.369 42.2176 228.155 42.0706C227.868 41.8927 227.535 41.8032 227.197 41.8133C226.86 41.8234 226.532 41.9327 226.257 42.1275C226.043 42.2745 225.976 42.4404 226.029 42.5162Z" fill="#263238"/>
<path d="M242.553 40.839C242.292 43.0431 241.689 45.835 241.513 48.0912C241.516 48.3014 241.461 48.5083 241.352 48.6884C241.029 49.115 240.256 50.0441 239.862 49.6744C238.912 48.7832 238.533 46.29 238.338 44.996C238.143 43.702 238.181 42.3842 238.006 41.0855V40.9954C237.876 40.0863 237.402 39.2616 236.681 38.6918C236.517 38.5755 236.338 38.4815 236.15 38.4121C234.811 37.9381 232.585 38.8103 231.251 39.2938C230.568 39.545 229.898 39.8531 229.234 40.1564C228.486 40.5083 227.658 40.6572 226.834 40.5881C226.01 40.5191 225.218 40.2345 224.539 39.763C223.728 39.1753 223.656 37.3219 224.012 36.1511C224.962 32.9896 228.954 31.8851 234.066 33.1081C239.178 34.331 243.075 36.2981 242.553 40.839Z" fill="#263238"/>
<path d="M240.048 45.7003C240.124 45.6672 243.171 44.7523 243.071 47.8807C242.972 51.0091 239.872 50.2507 239.867 50.1607C239.863 50.0706 240.048 45.7003 240.048 45.7003Z" fill="#FFBE9D"/>
<path d="M240.86 49.0146C240.86 49.0146 240.912 49.0525 241.002 49.0999C241.132 49.1524 241.277 49.1524 241.406 49.0999C241.611 48.9795 241.78 48.8067 241.896 48.5992C242.012 48.3918 242.071 48.1572 242.066 47.9197C242.081 47.6527 242.038 47.3856 241.938 47.1376C241.912 47.0396 241.863 46.9495 241.794 46.8751C241.725 46.8007 241.639 46.7443 241.544 46.711C241.482 46.6928 241.416 46.6966 241.357 46.7217C241.298 46.7468 241.25 46.7916 241.221 46.8484C241.173 46.9338 241.192 46.9954 241.173 47.0001C241.154 47.0049 241.112 46.948 241.14 46.82C241.159 46.7436 241.204 46.6764 241.268 46.6304C241.357 46.5689 241.465 46.5434 241.572 46.5593C241.699 46.5891 241.817 46.6509 241.913 46.7389C242.009 46.8268 242.082 46.938 242.123 47.0617C242.244 47.334 242.298 47.6316 242.279 47.9292C242.284 48.2057 242.208 48.4776 242.061 48.7116C241.913 48.9457 241.7 49.1317 241.449 49.2469C241.367 49.2672 241.282 49.2688 241.2 49.2516C241.118 49.2344 241.04 49.1987 240.974 49.1473C240.86 49.0905 240.846 49.0194 240.86 49.0146Z" fill="#EB996E"/>
<path d="M242.506 41.0469C241.824 41.4222 241.061 41.6256 240.282 41.6397C239.504 41.6537 238.734 41.4779 238.039 41.1275C238.777 41.279 239.527 41.3678 240.279 41.3929C241.03 41.3392 241.774 41.2235 242.506 41.0469Z" fill="#455A64"/>
<path d="M242.395 41.9375C241.764 42.3492 241.021 42.5561 240.268 42.53C239.514 42.583 238.762 42.4043 238.113 42.0181C238.822 42.163 239.541 42.2502 240.264 42.2788C240.982 42.2251 241.695 42.1109 242.395 41.9375Z" fill="#455A64"/>
<path d="M220.757 196.639L222.779 205.934C222.779 205.934 213.998 211.105 214.207 212.859L232.387 209.593L229.833 194.984L220.757 196.639Z" fill="#263238"/>
<path d="M232.384 209.594L232.071 208.129L214.755 211.807C214.755 211.807 214.01 212.281 214.204 212.859L232.384 209.594Z" fill="#455A64"/>
<path d="M241.436 197.656L241.735 207.16C241.735 207.16 232.161 210.658 232.047 212.417L250.521 212.497L250.663 197.67L241.436 197.656Z" fill="#263238"/>
<g opacity="0.6">
<path opacity="0.6" d="M250.524 212.501L250.481 211.008L232.786 211.482C232.786 211.482 231.96 211.833 232.05 212.43L250.524 212.501Z" fill="#455A64"/>
</g>
<path d="M219.771 204.609C219.771 204.609 210.277 158.219 210.277 157.29L227.204 148.359L233.754 202.798L219.771 204.609Z" fill="#263238"/>
<path d="M241.061 206.189L227.984 125.766V108.422L245.851 110.081C246.079 110.754 251.927 206.27 251.927 206.27L250.085 206.165H241.066" fill="#263238"/>
<path d="M217.699 107.195L210.285 157.292L226.865 153.278L233.62 108.826L217.699 107.195Z" fill="#263238"/>
<path d="M233.059 111.441C233.059 111.441 233.059 111.527 233.059 111.688C233.059 111.849 233.101 112.1 233.135 112.408C233.21 113.048 233.315 113.977 233.453 115.167C233.733 117.565 234.16 121.03 234.72 125.311C235.826 133.866 237.501 145.693 239.305 158.713C240.207 165.236 241.033 171.455 241.736 177.114C241.921 178.536 242.063 179.915 242.262 181.252C242.462 182.589 242.666 183.888 242.86 185.139C243.24 187.646 243.596 189.983 243.919 192.116C244.56 196.382 245.068 199.838 245.4 202.227C245.566 203.421 245.689 204.35 245.761 204.981C245.799 205.298 245.822 205.535 245.832 205.701C245.836 205.761 245.836 205.821 245.832 205.881C245.832 205.933 245.803 205.881 245.803 205.881C245.803 205.881 245.841 205.881 245.837 205.881C245.845 205.82 245.845 205.758 245.837 205.696C245.837 205.535 245.837 205.293 245.789 204.976C245.732 204.345 245.623 203.412 245.471 202.217C245.163 199.823 244.683 196.363 244.047 192.093C243.729 189.96 243.383 187.623 243.012 185.11C242.823 183.859 242.628 182.56 242.429 181.224C242.229 179.887 242.092 178.503 241.911 177.09C241.218 171.426 240.397 165.207 239.5 158.68C237.696 145.64 235.992 133.843 234.843 125.287L233.533 115.181C233.381 113.992 233.258 113.067 233.177 112.427L233.078 111.712C233.059 111.527 233.059 111.441 233.059 111.441Z" fill="#455A64"/>
<path d="M223.09 204.18C223.09 204.18 223.09 204.099 223.057 203.943C223.024 203.786 222.99 203.545 222.943 203.246C222.838 202.63 222.687 201.729 222.468 200.577L220.745 190.77L214.983 158.434C214.812 157.664 214.765 156.872 214.845 156.088C214.94 155.315 215.073 154.528 215.187 153.76C215.424 152.215 215.66 150.695 215.894 149.201C216.369 146.214 216.843 143.332 217.285 140.593C218.201 135.113 219.079 130.165 219.867 126.055C220.655 121.946 221.348 118.599 221.875 116.31C222.122 115.158 222.35 114.276 222.487 113.67C222.558 113.376 222.611 113.148 222.649 112.987C222.687 112.826 222.691 112.75 222.691 112.75C222.691 112.75 222.691 112.826 222.625 112.982C222.558 113.139 222.52 113.366 222.444 113.66C222.288 114.262 222.05 115.144 221.789 116.286C221.234 118.575 220.517 121.898 219.71 126.027C218.903 130.155 218.002 135.075 217.081 140.56C216.606 143.299 216.131 146.181 215.657 149.167C215.423 150.662 215.187 152.182 214.949 153.727C214.831 154.5 214.703 155.268 214.603 156.064C214.524 156.871 214.573 157.685 214.745 158.477C217.019 171.095 219.079 182.518 220.574 190.799C221.329 194.927 221.941 198.274 222.368 200.592C222.582 201.744 222.748 202.639 222.867 203.256C222.924 203.549 222.967 203.782 223 203.948C223.033 204.114 223.09 204.18 223.09 204.18Z" fill="#455A64"/>
<path d="M227.984 125.195C227.918 125.195 228.692 130.409 229.707 136.794C230.723 143.179 231.606 148.369 231.658 148.36C231.711 148.35 230.946 143.146 229.931 136.761C228.915 130.376 228.046 125.186 227.984 125.195Z" fill="#455A64"/>
<path d="M240.906 206.02C241.046 206.067 241.191 206.092 241.338 206.095C241.614 206.129 242.017 206.167 242.511 206.204C243.507 206.285 244.884 206.356 246.403 206.38C247.922 206.404 249.303 206.38 250.3 206.332C250.775 206.332 251.197 206.285 251.477 206.261C251.623 206.259 251.768 206.24 251.909 206.204C251.372 206.159 250.833 206.148 250.295 206.171C249.298 206.171 247.922 206.171 246.408 206.171C244.893 206.171 243.517 206.1 242.52 206.062C241.984 206.015 241.445 206.001 240.906 206.02Z" fill="#455A64"/>
<path d="M219.77 204.609C219.955 204.619 220.141 204.609 220.325 204.581L221.825 204.42C223.097 204.277 224.844 204.059 226.776 203.813C228.708 203.566 230.454 203.339 231.717 203.14L233.212 202.912C233.397 202.89 233.58 202.852 233.758 202.799C233.573 202.781 233.387 202.781 233.203 202.799C232.847 202.832 232.329 202.884 231.698 202.955C230.431 203.097 228.679 203.31 226.747 203.562C224.815 203.813 223.068 204.036 221.806 204.239L220.311 204.467C220.126 204.495 219.944 204.543 219.77 204.609Z" fill="#455A64"/>
<path d="M194.867 77.584L205.528 85.6846C205.528 85.6846 215.448 68.7818 216.326 67.7295C217.205 66.6772 219.431 65.5586 219.431 65.5586L218.206 87.2157C218.206 87.2157 212.838 100.895 205.471 100.151C199.832 99.5823 190.082 84.7224 190.082 84.7224L194.867 77.584Z" fill="#455A64"/>
<g opacity="0.2">
<path opacity="0.2" d="M205.334 85.4297C204.599 86.5726 204.122 87.8617 203.936 89.2074C203.75 90.5531 203.859 91.9231 204.257 93.2223C204.313 93.4958 204.467 93.7398 204.689 93.9096C204.88 93.9906 205.094 93.9993 205.29 93.9338C205.487 93.8683 205.653 93.7332 205.757 93.5541C205.949 93.184 206.043 92.7714 206.032 92.3548C206.208 92.7558 206.479 93.1086 206.82 93.3834C206.994 93.5157 207.209 93.5838 207.428 93.576C207.647 93.5682 207.856 93.4851 208.021 93.3408C208.372 92.9521 208.178 92.3359 207.964 91.8524C207.059 89.7984 206.151 87.7444 205.239 85.6904" fill="black"/>
</g>
<path d="M197.551 80.0086C197.618 80.0512 196.526 81.8809 195.107 84.0944C193.687 86.308 192.491 88.0666 192.425 88.0239C192.358 87.9812 193.45 86.1279 194.865 83.938C196.279 81.7481 197.485 79.9659 197.551 80.0086Z" fill="#263238"/>
<path d="M194.836 79.7136C194.807 79.7136 194.945 79.5477 195.187 79.6425C195.258 79.671 195.32 79.716 195.37 79.7737C195.42 79.8315 195.454 79.9003 195.472 79.9743C195.493 80.0752 195.481 80.1802 195.437 80.2736C195.394 80.367 195.321 80.4436 195.23 80.4918C195.138 80.5401 195.034 80.5573 194.932 80.5409C194.83 80.5245 194.736 80.4753 194.665 80.4009C194.613 80.3444 194.575 80.276 194.555 80.2017C194.535 80.1274 194.534 80.0493 194.551 79.9743C194.613 79.7231 194.807 79.6899 194.812 79.7279C194.817 79.7658 194.746 79.8464 194.755 79.998C194.765 80.1497 194.888 80.3109 195.083 80.2113C195.118 80.1931 195.149 80.1653 195.17 80.131C195.191 80.0967 195.202 80.0572 195.202 80.017C195.202 79.9768 195.191 79.9373 195.17 79.903C195.149 79.8687 195.118 79.8409 195.083 79.8227C194.973 79.7279 194.855 79.7516 194.836 79.7136Z" fill="#263238"/>
<path d="M205.53 90.8157C205.183 90.0101 205.021 89.1372 205.055 88.2609C205.032 86.8057 205.392 85.6681 205.464 85.6918C205.535 85.7155 205.316 86.8436 205.345 88.2561C205.373 89.6686 205.63 90.792 205.53 90.8157Z" fill="#263238"/>
<path d="M207.611 90.7404C207.545 90.7831 206.847 89.7545 206.244 88.3467C205.837 87.5168 205.564 86.6271 205.438 85.7113C205.518 85.6876 205.912 86.8489 206.51 88.233C207.108 89.617 207.683 90.6978 207.611 90.7404Z" fill="#263238"/>
<path d="M241.757 63.5134L240.143 60.3281H228.48L226.643 63.9447L219.438 65.5753L216.334 111.975C216.315 112.563 216.457 113.145 216.747 113.658L245.08 114.705L246.233 115.179C247.249 114.554 246.617 111.966 246.627 110.752L246.992 87.7727L252.598 69.41L241.757 63.5134Z" fill="#455A64"/>
<g opacity="0.2">
<path opacity="0.2" d="M229.668 65.1073L231.728 63.0454C232.5 64.9098 233.272 66.7695 234.044 68.6244C236.713 67.0605 239.252 65.2869 241.639 63.3203L233.793 65.8373C233.128 64.0772 232.465 62.3202 231.804 60.5664C231.337 62.1635 230.674 63.6966 229.829 65.131" fill="black"/>
</g>
<path d="M262.54 121.679L254.902 122.072V100.188L247.004 87.7925L252.61 69.4297C253.763 69.9037 262.464 91.7077 264.68 97.6232C264.999 98.4768 265.14 99.3867 265.093 100.297L262.54 121.679Z" fill="#455A64"/>
<path d="M219.436 75.1328C219.516 75.1328 219.136 79.6311 218.591 85.1532C218.045 90.6753 217.537 95.1593 217.456 95.1498C217.375 95.1404 217.755 90.6563 218.306 85.1247C218.856 79.5932 219.36 75.1281 219.436 75.1328Z" fill="#263238"/>
<path d="M231.788 60.5824C231.413 61.8569 230.948 63.1035 230.397 64.3128L230.24 64.6872C230.192 64.8366 230.105 64.9706 229.989 65.0759C229.916 65.1283 229.829 65.1588 229.739 65.1638C229.649 65.1689 229.56 65.1482 229.481 65.1044C229.37 65.0438 229.262 64.9773 229.158 64.9053L228.109 64.1943C227.772 63.9955 227.461 63.7551 227.184 63.4785C227.55 63.6169 227.897 63.8 228.218 64.0236L229.301 64.6778C229.509 64.8105 229.718 64.9622 229.813 64.8532C229.952 64.6542 230.059 64.4352 230.131 64.2038C230.971 62.1703 231.712 60.554 231.788 60.5824Z" fill="#263238"/>
<path d="M241.062 63.4259C240.487 63.7082 239.892 63.9474 239.282 64.1416C238.166 64.5492 236.624 65.0896 234.915 65.6774L233.966 65.9949L233.837 66.0376L233.79 65.9144C233.187 64.4592 232.665 63.1746 232.309 62.2456C232.092 61.7582 231.914 61.2541 231.777 60.7383C232.052 61.191 232.288 61.6668 232.48 62.1603C232.888 63.0656 233.429 64.3407 234.051 65.7911L233.875 65.7105L234.825 65.3882C236.538 64.8052 238.09 64.2933 239.22 63.933C239.819 63.715 240.435 63.5454 241.062 63.4259Z" fill="#263238"/>
<path d="M251.395 70.0859C251.395 70.1713 249.777 70.6168 247.873 71.4653C245.97 72.3137 244.551 73.2285 244.484 73.1574C244.746 72.8876 245.047 72.6591 245.377 72.4796C246.899 71.5123 248.556 70.7758 250.294 70.2945C250.649 70.1713 251.02 70.101 251.395 70.0859Z" fill="#263238"/>
<path d="M231.787 60.582C231.793 60.6277 231.793 60.6739 231.787 60.7195C231.787 60.8285 231.787 60.9612 231.787 61.1271C231.787 61.4874 231.82 62.0135 231.824 62.6961C231.824 64.0565 231.824 66.0141 231.734 68.4599C231.563 73.3279 230.951 80.035 229.983 87.3962C229.508 91.0839 228.986 94.5821 228.635 97.7768C228.297 100.608 228.138 103.458 228.16 106.309C228.193 108.227 228.351 110.142 228.635 112.039C228.72 112.717 228.829 113.234 228.882 113.585C228.905 113.751 228.924 113.883 228.939 113.992C228.945 114.038 228.945 114.084 228.939 114.13C228.918 114.088 228.904 114.043 228.896 113.997C228.872 113.888 228.844 113.76 228.806 113.599C228.739 113.248 228.611 112.732 228.511 112.058C228.188 110.16 228.006 108.239 227.965 106.314C227.91 103.464 228.043 100.614 228.364 97.7816C228.701 94.5773 229.219 91.0745 229.688 87.3962C230.638 80.035 231.302 73.3421 231.525 68.4836C231.649 66.0567 231.687 64.0896 231.706 62.7293C231.706 62.0657 231.706 61.5443 231.706 61.1603C231.706 60.9992 231.706 60.8617 231.706 60.7527C231.722 60.6914 231.75 60.6336 231.787 60.582Z" fill="#263238"/>
<path d="M262.966 118.328C262.966 118.409 261.152 118.385 258.917 118.276C256.681 118.167 254.882 118.015 254.887 117.935C254.891 117.854 256.7 117.878 258.931 117.987C260.282 118.007 261.63 118.121 262.966 118.328Z" fill="#263238"/>
<path d="M256.181 119.181C256.181 119.215 256.181 119.29 256.181 119.39C256.181 119.49 256.305 119.551 256.404 119.471C256.504 119.39 256.471 119.3 256.376 119.234C256.281 119.167 256.205 119.196 256.177 119.167C256.148 119.139 256.229 119.011 256.433 119.039C256.495 119.048 256.553 119.073 256.602 119.111C256.651 119.149 256.689 119.2 256.713 119.257C256.742 119.334 256.746 119.418 256.723 119.497C256.7 119.576 256.651 119.645 256.585 119.693C256.521 119.752 256.44 119.787 256.353 119.793C256.267 119.799 256.181 119.776 256.11 119.727C256.059 119.691 256.019 119.643 255.991 119.588C255.964 119.532 255.951 119.471 255.953 119.409C256.015 119.2 256.167 119.148 256.181 119.181Z" fill="#263238"/>
<g opacity="0.2">
<path opacity="0.2" d="M247.1 87.731L244.613 83.2422C243.622 91.1645 244.18 99.2036 246.256 106.914L247.025 87.8305" fill="black"/>
</g>
<path d="M234.483 79.4826C234.64 79.4583 234.799 79.4487 234.958 79.4542L236.282 79.421C237.436 79.3973 239.102 79.3689 241.105 79.3594H241.238V79.4921C241.109 81.2459 240.962 83.2841 240.801 85.4361V85.5166L240.73 85.5546L240.431 85.711L237.208 87.4032L237.127 87.4458L237.056 87.3889L234.008 84.9431L233.961 84.9052V84.8436C234.103 83.2367 234.217 81.8953 234.303 80.9046C234.345 80.478 234.383 80.1225 234.412 79.8381C234.417 79.7182 234.435 79.599 234.464 79.4826C234.474 79.6183 234.474 79.7546 234.464 79.8903C234.464 80.1794 234.436 80.5444 234.417 80.9852C234.364 81.9332 234.288 83.2794 234.198 84.8578L234.156 84.7582L237.179 87.1709H237.027L240.246 85.4692L240.54 85.3128L240.464 85.4266C240.64 83.2651 240.801 81.2412 240.939 79.4874L241.067 79.6248C239.116 79.6248 237.483 79.5869 236.32 79.5632L234.962 79.53C234.802 79.5232 234.642 79.5074 234.483 79.4826Z" fill="#263238"/>
<path d="M220.458 113.873C220.458 113.948 219.86 113.844 219.476 113.271C219.091 112.697 219.21 112.109 219.286 112.138C219.362 112.166 219.386 112.612 219.718 113.086C220.05 113.56 220.482 113.792 220.458 113.873Z" fill="#263238"/>
<path d="M221.193 113.567C220.803 113.219 220.525 112.762 220.397 112.255C220.268 111.748 220.294 111.215 220.472 110.723C220.557 110.723 220.472 111.405 220.676 112.187C220.88 112.969 221.26 113.515 221.193 113.567Z" fill="#263238"/>
<path d="M242.58 110.375C242.651 110.375 242.717 111.489 242.134 112.712C241.55 113.935 240.653 114.608 240.615 114.541C240.577 114.475 241.336 113.75 241.873 112.589C242.409 111.427 242.49 110.366 242.58 110.375Z" fill="#263238"/>
<path d="M194.27 78.4707C194.27 78.4707 185.641 71.9437 184.435 71.5077C182.427 70.7824 181.943 70.9768 181.943 70.9768L186.69 76.0675C186.69 76.0675 181.687 77.7502 181.326 77.9635C180.965 78.1768 180.79 79.2623 182.005 79.2623C183.006 79.2623 187.805 79.3761 187.805 79.3761L191.759 82.258L194.27 78.4707Z" fill="#FFBE9D"/>
<path d="M270.625 22.2352C270.719 22.2237 270.815 22.2237 270.91 22.2352L271.745 22.2589C271.93 22.2589 272.134 22.2589 272.362 22.2589L273.098 22.3632L273.962 22.4864L274.911 22.7282C276.568 23.1505 278.145 23.8423 279.577 24.7759C281.706 26.1176 283.497 27.9296 284.814 30.072C286.131 32.2144 286.938 34.6302 287.172 37.133C287.238 37.8817 287.253 38.6338 287.219 39.3846C287.191 39.7638 287.219 40.1524 287.143 40.5364C287.067 40.9203 287.025 41.3043 286.968 41.6977C286.674 43.2926 286.146 44.8355 285.401 46.2765C284.606 47.7883 283.595 49.1773 282.401 50.4003C281.129 51.6476 279.672 52.6916 278.082 53.4955C276.436 54.3397 274.654 54.8869 272.818 55.1119C272.346 55.1834 271.871 55.2229 271.394 55.2304C270.919 55.2566 270.444 55.2566 269.97 55.2304C269.012 55.192 268.059 55.073 267.122 54.8749C265.105 54.4425 263.186 53.6388 261.464 52.5049H261.635L255.867 54.818L255.526 54.9555L255.625 54.5999C256.204 52.4859 256.774 50.4335 257.32 48.438L257.348 48.5896C255.785 46.5184 254.731 44.1087 254.273 41.5555C254.053 40.368 253.978 39.1585 254.049 37.9531C254.06 37.3716 254.114 36.7917 254.211 36.2182C254.254 35.9386 254.301 35.6589 254.344 35.3792C254.386 35.0996 254.477 34.8341 254.543 34.564C255.508 30.7797 257.788 27.4606 260.975 25.1977C262.157 24.3693 263.448 23.7059 264.81 23.2259C265.109 23.1169 265.394 23.0126 265.674 22.9178L266.49 22.7092L267.24 22.5244C267.478 22.477 267.715 22.4533 267.929 22.4201C268.365 22.3632 268.75 22.2874 269.082 22.2732L269.932 22.2447H270.449C270.507 22.2376 270.566 22.2376 270.625 22.2447C270.567 22.2564 270.508 22.2643 270.449 22.2684L269.932 22.3063L269.092 22.3632C268.759 22.3917 268.38 22.4722 267.948 22.5386C264.819 23.0776 261.915 24.5121 259.588 26.6678C257.261 28.8236 255.61 31.6079 254.837 34.6825C254.776 34.9479 254.69 35.2134 254.643 35.4835C254.595 35.7537 254.562 36.0334 254.519 36.313C254.423 36.8736 254.372 37.4411 254.367 38.01C254.302 39.1921 254.38 40.3779 254.6 41.5413C255.057 44.041 256.096 46.3985 257.633 48.4237L257.685 48.4948V48.5754C257.144 50.5662 256.584 52.6234 256.005 54.7374L255.763 54.5241L261.525 52.2063L261.616 52.1683L261.696 52.2205C263.38 53.3332 265.257 54.1225 267.231 54.5478C268.145 54.7418 269.074 54.8591 270.008 54.8986C270.471 54.9152 270.936 54.9057 271.399 54.8701C271.858 54.8656 272.316 54.8276 272.77 54.7564C274.567 54.5407 276.311 54.0078 277.92 53.1827C279.477 52.3975 280.904 51.3775 282.15 50.1586C283.32 48.9656 284.311 47.6102 285.093 46.1343C285.828 44.724 286.351 43.2131 286.645 41.6503C286.702 41.2663 286.763 40.8871 286.82 40.5127C286.877 40.1382 286.868 39.759 286.896 39.3846C286.935 38.6468 286.924 37.9072 286.863 37.171C286.643 34.7118 285.865 32.335 284.588 30.2203C283.312 28.1057 281.571 26.3088 279.496 24.9655C278.09 24.0338 276.541 23.3359 274.911 22.8988L273.962 22.6476L273.112 22.5054L272.381 22.3869C272.158 22.3632 271.949 22.3585 271.769 22.3395L270.905 22.2779C270.811 22.2687 270.717 22.2545 270.625 22.2352Z" fill="#263238"/>
</svg>
