<svg width="20" height="20" viewBox="0 0 20 20" fill="none" xmlns="http://www.w3.org/2000/svg">
<path fill-rule="evenodd" clip-rule="evenodd" d="M2.5 5.41667C2.5 3.22899 2.52342 2.5 5.41667 2.5C8.30991 2.5 8.33333 3.22899 8.33333 5.41667C8.33333 7.60434 8.34256 8.33333 5.41667 8.33333C2.49077 8.33333 2.5 7.60434 2.5 5.41667Z" stroke="white" stroke-width="1.5" stroke-linecap="round" stroke-linejoin="round"/>
<path fill-rule="evenodd" clip-rule="evenodd" d="M11.666 5.41667C11.666 3.22899 11.6894 2.5 14.5827 2.5C17.4759 2.5 17.4993 3.22899 17.4993 5.41667C17.4993 7.60434 17.5086 8.33333 14.5827 8.33333C11.6568 8.33333 11.666 7.60434 11.666 5.41667Z" stroke="white" stroke-width="1.5" stroke-linecap="round" stroke-linejoin="round"/>
<path fill-rule="evenodd" clip-rule="evenodd" d="M2.5 14.5827C2.5 12.395 2.52342 11.666 5.41667 11.666C8.30991 11.666 8.33333 12.395 8.33333 14.5827C8.33333 16.7704 8.34256 17.4993 5.41667 17.4993C2.49077 17.4993 2.5 16.7704 2.5 14.5827Z" stroke="white" stroke-width="1.5" stroke-linecap="round" stroke-linejoin="round"/>
<path fill-rule="evenodd" clip-rule="evenodd" d="M11.666 14.5827C11.666 12.395 11.6894 11.666 14.5827 11.666C17.4759 11.666 17.4993 12.395 17.4993 14.5827C17.4993 16.7704 17.5086 17.4993 14.5827 17.4993C11.6568 17.4993 11.666 16.7704 11.666 14.5827Z" stroke="white" stroke-width="1.5" stroke-linecap="round" stroke-linejoin="round"/>
</svg>
