<svg width="17" height="17" viewBox="0 0 17 17" fill="none" xmlns="http://www.w3.org/2000/svg">
<path d="M8.1401 10.2601C7.86565 10.2601 7.63944 10.0343 7.67264 9.76191C7.69683 9.56344 7.73437 9.39399 7.78525 9.25356C7.87448 9.00727 8.05652 8.73422 8.33136 8.4344L9.03274 7.7116C9.33256 7.37252 9.48247 7.00844 9.48247 6.61938C9.48247 6.2446 9.38432 5.95192 9.188 5.74133C8.99169 5.52717 8.70614 5.42008 8.33136 5.42008C7.96729 5.42008 7.6746 5.51646 7.4533 5.7092C7.35412 5.79558 7.27717 5.89522 7.22244 6.00813C7.10387 6.25273 6.90099 6.48553 6.62916 6.48553C6.35496 6.48553 6.12545 6.25812 6.19163 5.99202C6.28017 5.63599 6.46515 5.33469 6.74657 5.08814C7.15348 4.7312 7.68174 4.55273 8.33136 4.55273C9.00597 4.55273 9.53066 4.73477 9.90544 5.09884C10.2838 5.45935 10.473 5.95549 10.473 6.58726C10.473 7.21189 10.1838 7.82761 9.60561 8.4344L9.02203 9.01263C8.84613 9.2078 8.72961 9.46071 8.67245 9.77137C8.62338 10.0381 8.41132 10.2601 8.1401 10.2601ZM7.59786 11.9573C7.59786 11.7967 7.64605 11.6629 7.74242 11.5558C7.84236 11.4451 7.9887 11.3898 8.18145 11.3898C8.37419 11.3898 8.52053 11.4451 8.62048 11.5558C8.72042 11.6629 8.77039 11.7967 8.77039 11.9573C8.77039 12.118 8.72042 12.2518 8.62048 12.3589C8.52053 12.4624 8.37419 12.5142 8.18145 12.5142C7.9887 12.5142 7.84236 12.4624 7.74242 12.3589C7.64605 12.2518 7.59786 12.118 7.59786 11.9573Z" fill="white"/>
<circle cx="8.5" cy="8.5" r="7.5" stroke="white" stroke-width="1.5"/>
</svg>
