<svg width="16" height="18" viewBox="0 0 16 18" fill="none" xmlns="http://www.w3.org/2000/svg">
<path fill-rule="evenodd" clip-rule="evenodd" d="M5.63166 16.3089V13.7532C5.63165 13.1032 6.16158 12.575 6.81816 12.5707H9.22322C9.88294 12.5707 10.4177 13.1001 10.4177 13.7532V16.3168C10.4176 16.8687 10.8625 17.3197 11.4198 17.3327H13.0232C14.6216 17.3327 15.9173 16.0499 15.9173 14.4675V7.19755C15.9088 6.57504 15.6135 5.99047 15.1156 5.61021L9.63209 1.2371C8.67143 0.475654 7.30582 0.475654 6.34517 1.2371L0.885672 5.61815C0.385867 5.99687 0.0901399 6.5824 0.0839844 7.20548V14.4675C0.0839844 16.0499 1.37971 17.3327 2.97808 17.3327H4.58145C5.15261 17.3327 5.61563 16.8743 5.61563 16.3089" fill="#721B65"/>
</svg>
