<svg width="28" height="28" viewBox="0 0 28 28" fill="none" xmlns="http://www.w3.org/2000/svg">
<path d="M13.3772 17.049C12.9015 17.049 12.5094 16.6577 12.567 16.1855C12.6089 15.8415 12.6739 15.5478 12.7621 15.3043C12.9168 14.8775 13.2323 14.4042 13.7087 13.8845L14.9244 12.6316C15.4441 12.0439 15.704 11.4128 15.704 10.7384C15.704 10.0888 15.5339 9.5815 15.1936 9.21647C14.8533 8.84526 14.3584 8.65966 13.7087 8.65966C13.0777 8.65966 12.5703 8.8267 12.1868 9.16079C12.0149 9.31052 11.8815 9.48323 11.7866 9.67893C11.5811 10.1029 11.2294 10.5064 10.7583 10.5064C10.283 10.5064 9.88516 10.1123 9.99986 9.65101C10.1533 9.03389 10.474 8.51164 10.9618 8.08428C11.6671 7.46559 12.5827 7.15625 13.7087 7.15625C14.878 7.15625 15.7875 7.47178 16.4371 8.10284C17.0929 8.72771 17.4208 9.58769 17.4208 10.6828C17.4208 11.7655 16.9197 12.8327 15.9174 13.8845L14.9059 14.8867C14.601 15.225 14.399 15.6634 14.3 16.2019C14.2149 16.6642 13.8473 17.049 13.3772 17.049ZM12.4373 19.9909C12.4373 19.7125 12.5209 19.4805 12.6879 19.2949C12.8611 19.1031 13.1148 19.0072 13.4489 19.0072C13.783 19.0072 14.0366 19.1031 14.2099 19.2949C14.3831 19.4805 14.4697 19.7125 14.4697 19.9909C14.4697 20.2693 14.3831 20.5013 14.2099 20.6869C14.0366 20.8663 13.783 20.956 13.4489 20.956C13.1148 20.956 12.8611 20.8663 12.6879 20.6869C12.5209 20.5013 12.4373 20.2693 12.4373 19.9909Z" fill="white"/>
<circle cx="14" cy="14" r="13" stroke="white" stroke-width="2"/>
</svg>
