<svg width="181" height="38" viewBox="0 0 181 38" fill="none" xmlns="http://www.w3.org/2000/svg">
<path d="M4.21998 0H10.3388V27.1466H10.2337C9.17867 27.1466 8.22897 26.7242 7.38497 25.9848C6.64648 25.1398 6.22386 24.2946 6.22386 23.2384V4.11942H4.11387V23.6608C4.21937 25.2452 4.85257 26.513 5.90757 27.5692C7.06806 28.7312 8.54567 29.3649 10.2337 29.3649C11.9217 29.3649 13.2927 28.7312 14.5587 27.5692C15.7192 26.4073 16.3524 24.9284 16.3524 23.2384V0H24.4761C25.6366 0 26.48 0.950557 26.48 2.00685V24.8228C26.48 26.6185 26.1635 28.3086 25.425 29.893C24.792 31.4775 23.7368 32.8506 22.5763 34.1182C21.4158 35.2801 19.9388 36.3363 18.3563 36.9701C15.0858 38.3433 11.3942 38.3433 8.12368 36.9701C6.54118 36.3363 5.06419 35.2801 3.90369 34.1182C3.37619 33.59 2.84828 33.0618 2.42629 32.428L2.53137 32.5338H2.63749C10.128 38.7659 22.3661 33.907 22.3661 22.8159V5.80959H24.0537L21.4162 1.58443L18.7787 5.80959H20.4663V23.2384C20.4663 24.6115 20.2555 25.879 19.6225 27.1466C19.095 28.3085 18.3569 29.4705 17.4074 30.4212C14.4534 33.3788 10.128 34.2237 6.32998 32.6392C5.16948 32.1111 4.00837 31.3718 3.05887 30.4212C2.10937 29.4705 1.37129 28.4141 0.843791 27.1466C0.316293 25.879 0 24.6115 0 23.2384V2.00685C0 0.844928 0.948878 0 2.00387 0H4.21998Z" fill="white"/>
<path d="M41.609 18.7849C42.3475 19.7356 43.508 20.2637 44.6685 20.1581C45.829 20.1581 46.9895 19.63 47.728 18.7849C48.4665 17.8343 48.8885 16.5667 48.8885 14.9823V3.78563H53.425V15.0879C53.425 18.0455 52.581 20.2637 50.9985 21.8482C49.416 23.4326 47.306 24.172 44.774 24.172C42.242 24.172 40.132 23.4326 38.5495 21.8482C36.967 20.2637 36.123 18.0455 36.123 15.0879V3.78563H40.6595V14.9823C40.4485 16.5667 40.765 17.8343 41.609 18.7849ZM71.9929 3.78563H76.5294V23.9607H71.9929L62.3925 11.2853V23.9607H57.856V3.78563H62.076L71.9929 16.778V3.78563ZM81.4879 23.9607V3.78563H86.0244V19.9468H94.6753V23.9607H81.4879ZM97.9458 3.78563H102.482V23.9607H97.9458V3.78563ZM113.876 7.27138C113.243 7.27138 112.61 7.37701 112.083 7.79953C111.661 8.11641 111.45 8.64456 111.45 9.1727C111.45 9.70085 111.766 10.3346 112.294 10.5459C112.821 10.8628 114.087 11.2853 115.986 11.8134C117.885 12.2359 119.362 12.9753 120.417 13.926C121.472 14.8767 122 16.2498 122 18.0455C122 19.7356 121.261 21.4257 119.995 22.4819C118.624 23.6439 116.83 24.172 114.615 24.172C111.45 24.172 108.496 23.0101 105.964 20.5806L108.601 17.3061C110.817 19.2074 112.821 20.1581 114.615 20.1581C115.459 20.1581 116.092 19.9468 116.514 19.63C116.936 19.3131 117.252 18.7849 117.252 18.1512C117.252 17.623 116.936 16.9892 116.514 16.6724C115.986 16.3555 115.037 15.933 113.56 15.6161C111.239 15.0879 109.445 14.3485 108.39 13.3979C107.335 12.4472 106.808 11.074 106.808 9.1727C106.808 7.27138 107.546 5.79258 108.918 4.73629C110.289 3.68 111.977 3.15186 114.087 3.15186C115.459 3.15186 116.83 3.36311 118.096 3.89126C119.362 4.31377 120.628 4.94755 121.578 5.89821L119.257 9.1727C117.569 7.90516 115.775 7.27138 113.876 7.27138ZM134.238 7.6939V23.9607H129.701V7.6939H124.004V3.78563H139.935V7.6939H134.238ZM157.764 3.78563V7.79953H147.742V11.9191H156.815V15.7217H147.742V19.9468H158.081V23.9607H143.205V3.78563H157.764ZM169.264 3.78563C172.851 3.78563 175.594 4.63066 177.598 6.42635C179.497 8.22204 180.447 10.6515 180.447 13.8204C180.447 16.9892 179.497 19.4187 177.598 21.32C175.699 23.1157 172.851 24.0664 169.053 24.0664H162.195V3.89126L169.264 3.78563ZM169.475 20.0525C171.585 20.0525 173.167 19.5243 174.222 18.468C175.277 17.4118 175.91 15.933 175.91 13.926C175.91 11.9191 175.383 10.4402 174.222 9.38396C173.167 8.32767 171.374 7.79953 169.158 7.79953H166.626V20.0525H169.475Z" fill="white"/>
<path d="M112.821 34.4888L113.348 33.1156H117.041L117.568 34.4888H119.045L116.197 27.6229H114.087L111.238 34.4888H112.821ZM113.876 31.8481L115.142 28.7848H115.247L116.513 31.8481H113.876ZM127.591 33.4325C126.43 33.4325 125.692 33.01 125.692 32.4818H124.32C124.32 33.855 125.692 34.7 127.591 34.7C129.701 34.7 130.861 33.9606 130.861 32.4818C130.861 31.1087 129.912 30.4749 127.591 30.4749C126.325 30.4749 125.692 30.2637 125.692 29.7355C125.692 29.1017 126.324 28.7848 127.485 28.7848C128.54 28.7848 129.278 29.2074 129.278 29.7355H130.65C130.65 28.3623 129.384 27.5173 127.485 27.5173C125.375 27.5173 124.32 28.2567 124.32 29.7355C124.32 31.1087 125.269 31.7425 127.485 31.7425C128.856 31.7425 129.49 31.9537 129.49 32.4818C129.595 33.01 128.857 33.4325 127.591 33.4325ZM139.828 33.4325C138.668 33.4325 137.929 33.01 137.929 32.4818H136.558C136.558 33.855 137.929 34.7 139.828 34.7C141.938 34.7 143.099 33.9606 143.099 32.4818C143.099 31.1087 142.149 30.4749 139.828 30.4749C138.562 30.4749 137.929 30.2637 137.929 29.7355C137.929 29.1017 138.563 28.7848 139.723 28.7848C140.778 28.7848 141.517 29.2074 141.517 29.7355H142.888C142.888 28.3623 141.622 27.5173 139.723 27.5173C137.613 27.5173 136.558 28.2567 136.558 29.7355C136.558 31.1087 137.508 31.7425 139.723 31.7425C141.095 31.7425 141.727 31.9537 141.727 32.4818C141.833 33.01 141.094 33.4325 139.828 33.4325ZM155.97 28.7848V27.5173H149.218V34.3832H155.97V33.1156H150.589V31.5312H154.598V30.2637H150.589V28.6792L155.97 28.7848ZM161.562 28.7848H164.304V34.4888H165.676V28.7848H168.419V27.5173H161.562V28.7848ZM177.069 33.4325C175.909 33.4325 175.171 33.01 175.171 32.4818H173.799C173.799 33.855 175.17 34.7 177.069 34.7C179.179 34.7 180.341 33.9606 180.341 32.4818C180.341 31.1087 179.39 30.4749 177.069 30.4749C175.803 30.4749 175.171 30.2637 175.171 29.7355C175.171 29.1017 175.804 28.7848 176.964 28.7848C178.019 28.7848 178.758 29.2074 178.758 29.7355H180.129C180.129 28.3623 178.863 27.5173 176.964 27.5173C174.854 27.5173 173.799 28.2567 173.799 29.7355C173.799 31.1087 174.749 31.7425 176.964 31.7425C178.336 31.7425 178.969 31.9537 178.969 32.4818C179.075 33.01 178.335 33.4325 177.069 33.4325Z" fill="white"/>
<path d="M35.9111 30.3693H109.55L109.022 31.7425H35.9111V30.3693Z" fill="white"/>
</svg>
