<svg width="20" height="20" viewBox="0 0 20 20" fill="none" xmlns="http://www.w3.org/2000/svg">
<path d="M20 10C20 15.5 15.5 20 10 20C4.5 20 0 15.5 0 10C0 4.5 4.5 0 10 0C15.5 0 20 4.5 20 10Z" fill="#00CC83"/>
<path d="M13.8992 7.29844C14.0992 7.49844 14.0992 7.89844 13.8992 8.09844L9.29922 12.6984C9.19922 12.7984 8.99922 12.8984 8.89922 12.8984C8.79922 12.8984 8.59922 12.7984 8.49922 12.6984L6.09922 10.2984C5.89922 10.0984 5.89922 9.69844 6.09922 9.49844C6.29922 9.29844 6.69922 9.29844 6.89922 9.49844L8.89922 11.4984L13.0992 7.29844C13.2992 7.09844 13.6992 7.09844 13.8992 7.29844Z" fill="white"/>
</svg>
