<svg width="112" height="112" viewBox="0 0 112 112" fill="none" xmlns="http://www.w3.org/2000/svg">
<path opacity="0.1" d="M112 56C112 86.8 86.8 112 56 112C25.2 112 0 86.8 0 56C0 25.2 25.2 0 56 0C86.8 0 112 25.2 112 56Z" fill="#00CC83"/>
<path d="M96.2032 56C96.2032 78.1129 78.1109 96.2052 55.9981 96.2052C33.8853 96.2052 15.793 78.1129 15.793 56C15.793 33.8872 33.8853 15.7949 55.9981 15.7949C78.1109 15.7949 96.2032 33.8872 96.2032 56Z" fill="#00CC83"/>
<path d="M71.6779 45.1421C72.482 45.9462 72.482 47.5544 71.6779 48.3586L53.1836 66.8529C52.7815 67.255 51.9774 67.657 51.5754 67.657C51.1733 67.657 50.3692 67.255 49.9672 66.8529L40.3179 57.2037C39.5138 56.3996 39.5138 54.7914 40.3179 53.9873C41.122 53.1832 42.7302 53.1832 43.5343 53.9873L51.5754 62.0283L68.4615 45.1421C69.2656 44.338 70.8738 44.338 71.6779 45.1421Z" fill="white"/>
</svg>
