<svg width="30" height="30" viewBox="0 0 30 30" fill="none" xmlns="http://www.w3.org/2000/svg">
<path d="M25 2.5H10C8.625 2.5 7.5 3.625 7.5 5V20C7.5 21.375 8.625 22.5 10 22.5H25C26.375 22.5 27.5 21.375 27.5 20V5C27.5 3.625 26.375 2.5 25 2.5ZM25 20H10V5H25V20ZM5 7.5H2.5V25C2.5 26.375 3.625 27.5 5 27.5H22.5V25H5V7.5ZM20 15V11.25C20 10.5625 19.4375 10 18.75 10H16.25V16.25H18.75C19.4375 16.25 20 15.6875 20 15ZM17.5 11.25H18.75V15H17.5V11.25ZM22.5 13.75H23.75V12.5H22.5V11.25H23.75V10H21.25V16.25H22.5V13.75ZM12.5 13.75H13.75C14.4375 13.75 15 13.1875 15 12.5V11.25C15 10.5625 14.4375 10 13.75 10H11.25V16.25H12.5V13.75ZM12.5 11.25H13.75V12.5H12.5V11.25Z" fill="#721B65"/>
</svg>
