<svg width="76" height="76" viewBox="0 0 76 76" fill="none" xmlns="http://www.w3.org/2000/svg">
<path d="M67.3427 66.4932H8.65487C7.52354 66.4932 6.47816 65.8896 5.91251 64.9098C5.34686 63.9301 5.34687 62.723 5.91253 61.7432L35.2549 11.0765C35.821 10.0984 36.8655 9.49609 37.9956 9.49609C39.1258 9.49609 40.1703 10.0984 40.7364 11.0765L70.0787 61.7432C70.6441 62.7225 70.6444 63.9289 70.0795 64.9085C69.5146 65.888 68.4703 66.4921 67.3395 66.4932H67.3427ZM38.0004 18.9932L14.1522 60.1599H61.8549L38.0004 18.9932ZM41.1512 47.4964H34.8179V31.6599H41.1512V47.4964Z" fill="#FFD868"/>
<path d="M34.8337 50.6662H41.167V56.9995H34.8337V50.6662Z" fill="#FFD868"/>
</svg>
