<svg width="66" height="40" viewBox="0 0 66 40" fill="none" xmlns="http://www.w3.org/2000/svg">
<path fill-rule="evenodd" clip-rule="evenodd" d="M32.4479 32.2345C39.4842 32.2345 45.1883 26.5875 45.1883 19.6215C45.1883 12.6555 39.4842 7.00842 32.4479 7.00842C25.4115 7.00842 19.7074 12.6555 19.7074 19.6215C19.7074 26.5875 25.4115 32.2345 32.4479 32.2345ZM32.4479 34.3367C40.6569 34.3367 47.3117 27.7485 47.3117 19.6215C47.3117 11.4945 40.6569 4.90625 32.4479 4.90625C24.2388 4.90625 17.584 11.4945 17.584 19.6215C17.584 27.7485 24.2388 34.3367 32.4479 34.3367Z" fill="white"/>
<path d="M35.4558 15.88C35.6571 16.0855 35.8263 16.3425 35.9635 16.6508H37.404V17.814H36.2378V17.9962C36.2378 18.7063 36.0549 19.3182 35.6891 19.8321C35.3324 20.346 34.8202 20.729 34.1525 20.9813L36.4299 24.5269H34.0428L31.9986 21.3176H29.2959V19.4957H31.8477C32.5702 19.4957 33.1053 19.3416 33.4528 19.0333C33.8095 18.7249 33.9925 18.3185 34.0016 17.814H28.7334V16.6508H33.6861C33.3202 16.1276 32.68 15.8707 31.7654 15.88H28.7334V14.7168H37.404V15.88H35.4558Z" fill="white"/>
<path d="M51.2079 27.7378H54.7062C54.3417 31.626 51.5768 34.9816 47.7326 36.0686L42.3604 37.5883V40.0005H48.5536C55.5742 40.0005 61.3383 34.576 61.7957 27.7378H65.364L58.2859 18.3945L51.2079 27.7378ZM60.0554 25.986V26.8619C60.0554 33.1404 54.8955 38.2487 48.5536 38.2487H46.4665L48.2183 37.7538C53.1048 36.3707 56.5164 31.8922 56.5164 26.8619V25.986H54.7469L58.2859 21.3148L61.8249 25.986H60.0554Z" fill="white"/>
<path d="M14.4012 12.2627H10.9029C11.2674 8.37454 14.0322 5.01894 17.8765 3.93194L23.2487 2.41225V0H17.0554C10.0349 0 4.27075 5.42448 3.81333 12.2627H0.245117L7.32315 21.606L14.4012 12.2627ZM5.55364 14.0145V13.1386C5.55364 6.86009 10.7135 1.75181 17.0554 1.75181H19.1426L17.3908 2.2467C12.5043 3.62975 9.09266 8.10826 9.09266 13.1386V14.0145H10.8622L7.32315 18.6857L3.78413 14.0145H5.55364Z" fill="white"/>
</svg>
