<svg width="37" height="40" viewBox="0 0 37 40" fill="none" xmlns="http://www.w3.org/2000/svg">
<path d="M0.980346 36.6733H21.432C24.0932 40.2837 29.2185 41.0642 32.8653 38.4785C36.5121 35.8439 37.3006 30.7699 34.6887 27.1596C32.8653 24.6715 29.7606 23.4029 26.6559 23.9396C24.8818 21.2074 22.1713 19.2071 19.0173 18.2313C23.7975 15.7919 25.6702 9.93734 23.1569 5.2048C20.6436 0.47226 14.7792 -1.38162 9.99882 1.10655C5.21848 3.59472 3.39516 9.40055 5.85918 14.133C6.79553 15.8894 8.2247 17.3042 9.99882 18.2312C4.13435 20.0364 0.142578 25.4031 0.142578 31.4529V35.795C0.142578 36.2829 0.536816 36.6733 0.980346 36.6733ZM26.4587 25.7446C29.9084 24.8665 33.4074 26.9643 34.2945 30.3796C35.1815 33.7948 33.0625 37.2587 29.6127 38.137C25.5717 39.1128 21.6292 36.0391 21.6292 31.8921C21.6292 28.9647 23.6004 26.4277 26.4587 25.7446ZM6.49988 9.74204C6.49988 5.3511 10.0481 1.78954 14.4834 1.78954C18.9187 1.78954 22.5162 5.3023 22.5162 9.69324C22.5162 14.0842 18.968 17.6457 14.4834 17.6457C10.0974 17.6457 6.49988 14.0843 6.49988 9.74204ZM1.86741 31.4529C1.86741 24.7689 7.33764 19.3533 14.1385 19.3045H14.9762C18.9187 19.3045 22.6641 21.2073 24.9804 24.4273C22.0235 25.6469 19.9537 28.5743 19.9537 31.8919C19.9537 32.8676 20.1508 33.9409 20.5451 34.9655H1.86741V31.4529Z" fill="white"/>
<path d="M24.7347 32.7694H27.1988V35.2088C27.1988 35.6967 27.5931 36.087 28.0859 36.087C28.5787 36.087 28.9729 35.6967 28.9729 35.2088V32.7694H31.4371C31.9299 32.7694 32.3241 32.3791 32.3241 31.8912C32.3241 31.4033 31.9299 31.013 31.4371 31.013H28.9729V28.6223C28.9729 28.1344 28.5787 27.7441 28.0859 27.7441C27.5931 27.7441 27.1988 28.1344 27.1988 28.6223V31.013H24.7347C24.2419 31.013 23.8477 31.4033 23.8477 31.8912C23.8477 32.3791 24.2419 32.7694 24.7347 32.7694Z" fill="white"/>
</svg>
