<svg width="59" height="40" viewBox="0 0 59 40" fill="none" xmlns="http://www.w3.org/2000/svg">
<path fill-rule="evenodd" clip-rule="evenodd" d="M16.6121 2.10526H2.78962L2.78962 15.7895H16.6121V2.10526ZM2.78962 0C1.61517 0 0.663086 0.942558 0.663086 2.10526V15.7895C0.663086 16.9522 1.61517 17.8947 2.78962 17.8947H16.6121C17.7865 17.8947 18.7386 16.9522 18.7386 15.7895V2.10526C18.7386 0.942559 17.7865 0 16.6121 0H2.78962Z" fill="white"/>
<rect x="22.9941" y="4.21094" width="35.0877" height="2.10526" fill="white"/>
<rect x="22.9941" y="10.5273" width="25.5184" height="2.10526" fill="white"/>
<path fill-rule="evenodd" clip-rule="evenodd" d="M16.6121 24.2107H2.78962L2.78962 37.8949H16.6121V24.2107ZM2.78962 22.1055C1.61517 22.1055 0.663086 23.048 0.663086 24.2107V37.8949C0.663086 39.0576 1.61517 40.0002 2.78962 40.0002H16.6121C17.7865 40.0002 18.7386 39.0576 18.7386 37.8949V24.2107C18.7386 23.048 17.7865 22.1055 16.6121 22.1055H2.78962Z" fill="white"/>
<rect x="22.9941" y="26.3145" width="35.0877" height="2.10526" fill="white"/>
<rect x="22.9941" y="32.6309" width="25.5184" height="2.10526" fill="white"/>
</svg>
