<svg width="42" height="40" viewBox="0 0 42 40" fill="none" xmlns="http://www.w3.org/2000/svg">
<path d="M23.1744 21.1857C23.3619 21.3952 23.5196 21.6571 23.6475 21.9714H24.99V23.1571H23.9032V23.3429C23.9032 24.0667 23.7327 24.6905 23.3917 25.2143C23.0593 25.7381 22.5819 26.1286 21.9597 26.3857L24.0822 30H21.8574L19.9523 26.7286H17.4334V24.8714H19.8116C20.485 24.8714 20.9837 24.7143 21.3076 24.4C21.64 24.0857 21.8105 23.6714 21.819 23.1571H16.9092V21.9714H21.525C21.184 21.4381 20.5873 21.1762 19.7349 21.1857H16.9092V20H24.99V21.1857H23.1744Z" fill="white"/>
<path d="M40.5553 10.6759C40.6334 10.6759 40.7108 10.6607 40.7829 10.6312C40.8551 10.6016 40.9207 10.5582 40.9759 10.5036C41.0312 10.4489 41.075 10.3839 41.1049 10.3125C41.1347 10.241 41.1501 10.1645 41.15 10.0871V7.51969C41.15 7.39828 41.1121 7.27985 41.0414 7.1806C40.9708 7.08135 40.8709 7.00613 40.7555 6.96522L21.1484 0.0340654C21.0191 -0.0113551 20.878 -0.0113551 20.7487 0.0340654L1.14197 6.96522C1.02645 7.00607 0.926498 7.08127 0.855807 7.18053C0.785116 7.27978 0.747138 7.39824 0.74707 7.51969V10.0871C0.74707 10.2433 0.809729 10.393 0.921263 10.5035C1.0328 10.6139 1.18407 10.6759 1.3418 10.6759H2.30255V12.2064H1.3418C1.18407 12.2064 1.0328 12.2684 0.921263 12.3789C0.809729 12.4893 0.74707 12.639 0.74707 12.7952V15.5648C0.74707 15.721 0.809729 15.8707 0.921263 15.9812C1.0328 16.0916 1.18407 16.1536 1.3418 16.1536H3.52973V18.4374C3.52973 18.5936 3.59239 18.7433 3.70392 18.8537C3.81546 18.9642 3.96673 19.0262 4.12446 19.0262H4.65292V31.2369H4.12616C3.96846 31.237 3.81724 31.299 3.70572 31.4094C3.59421 31.5198 3.53152 31.6695 3.53143 31.8257V34.1095H1.3418C1.18407 34.1095 1.0328 34.1715 0.921263 34.2819C0.809729 34.3923 0.74707 34.5421 0.74707 34.6983V39.4112C0.74707 39.5674 0.809729 39.7171 0.921263 39.8275C1.0328 39.938 1.18407 40 1.3418 40H40.5553C40.6334 40 40.7108 39.9848 40.7829 39.9553C40.8551 39.9257 40.9207 39.8823 40.9759 39.8276C41.0312 39.773 41.075 39.708 41.1049 39.6366C41.1347 39.5651 41.1501 39.4885 41.15 39.4112V34.6973C41.1501 34.6199 41.1347 34.5433 41.1049 34.4719C41.075 34.4004 41.0312 34.3355 40.9759 34.2808C40.9207 34.2261 40.8551 34.1828 40.7829 34.1532C40.7108 34.1236 40.6334 34.1084 40.5553 34.1085H38.3674V31.8247C38.3674 31.6685 38.3047 31.5187 38.1932 31.4083C38.0816 31.2979 37.9304 31.2359 37.7726 31.2359H37.2442V19.0262H37.7726C37.8507 19.0262 37.9281 19.011 38.0003 18.9815C38.0725 18.9519 38.138 18.9085 38.1933 18.8538C38.2485 18.7992 38.2923 18.7342 38.3222 18.6628C38.3521 18.5913 38.3674 18.5147 38.3674 18.4374V16.1536H40.5553C40.6334 16.1536 40.7108 16.1385 40.7829 16.1089C40.8551 16.0793 40.9207 16.0359 40.9759 15.9813C41.0312 15.9266 41.075 15.8616 41.1049 15.7902C41.1347 15.7187 41.1501 15.6422 41.15 15.5648V12.7952C41.1501 12.7179 41.1347 12.6413 41.1049 12.5698C41.075 12.4984 41.0312 12.4334 40.9759 12.3788C40.9207 12.3241 40.8551 12.2807 40.7829 12.2511C40.7108 12.2216 40.6334 12.2064 40.5553 12.2064H39.5946V10.6759H40.5553ZM1.93653 7.93486L20.9485 1.21399L39.9606 7.93486V9.49833H1.93653V7.93486ZM10.6706 16.1536V17.8486H4.71919V16.1536H10.6706ZM30.0384 16.1536V18.4374C30.0384 18.5147 30.0537 18.5913 30.0836 18.6628C30.1135 18.7342 30.1573 18.7992 30.2125 18.8538C30.2677 18.9085 30.3333 18.9519 30.4055 18.9815C30.4777 19.011 30.555 19.0262 30.6331 19.0262H31.1609V31.2369H30.6342C30.4764 31.2369 30.3252 31.2989 30.2136 31.4093C30.1021 31.5198 30.0394 31.6695 30.0394 31.8257V34.1095H11.8594V31.8247C11.8593 31.6685 11.7966 31.5188 11.6851 31.4084C11.5736 31.298 11.4223 31.236 11.2646 31.2359H10.7362V19.0262H11.2646C11.4224 19.0262 11.5736 18.9642 11.6852 18.8537C11.7967 18.7433 11.8594 18.5936 11.8594 18.4374V16.1536H30.0384ZM5.84137 19.0262H9.54569V31.2369H5.84238L5.84137 19.0262ZM4.71987 32.4134H10.6706V34.1085H4.71919L4.71987 32.4134ZM39.9619 38.8214H1.93653V35.286H39.9606L39.9619 38.8214ZM31.2279 34.1085V32.4145H37.1786V34.1095L31.2279 34.1085ZM36.0537 31.2359H32.3504V19.0262H36.0547L36.0537 31.2359ZM37.1752 17.8486H31.2272V16.1536H37.1779L37.1752 17.8486ZM39.9578 14.976H1.93653V13.384H39.9606L39.9578 14.976ZM38.4024 12.2064H3.49201V10.6759H38.4051L38.4024 12.2064Z" fill="white"/>
</svg>
