<svg width="41" height="40" viewBox="0 0 41 40" fill="none" xmlns="http://www.w3.org/2000/svg">
<path d="M4.68864 19.7L4.78047 25.4545C4.78328 25.615 4.82894 25.7718 4.9128 25.9091C4.99667 26.0465 5.11576 26.1594 5.25797 26.2364C5.39163 26.315 5.5433 26.3588 5.69874 26.3636C5.87066 26.3642 6.03929 26.3169 6.18542 26.2273L13.302 21.8182C12.8818 23.4296 12.8395 25.1148 13.1784 26.7448C13.5173 28.3749 14.2285 29.9066 15.2574 31.2227C16.2863 32.5387 17.6058 33.6043 19.1147 34.3378C20.6237 35.0713 22.2822 35.4533 23.9632 35.4545H27.3792L34.4958 39.8636C34.6419 39.9533 34.8106 40.0005 34.9825 40C35.1363 40.0008 35.2879 39.9632 35.4233 39.8909C35.5655 39.8139 35.6846 39.701 35.7684 39.5637C35.8523 39.4264 35.898 39.2695 35.9008 39.1091L35.9926 33.3364C37.8634 31.9754 39.2522 30.0643 39.9609 27.8758C40.6696 25.6872 40.662 23.3329 39.9392 21.1488C39.2164 18.9648 37.8152 17.0625 35.9357 15.7135C34.0562 14.3644 31.7944 13.6375 29.4729 13.6364H27.3792C27.6112 12.7453 27.7315 11.8293 27.7373 10.9091C27.7373 8.01582 26.5764 5.24105 24.5098 3.1952C22.4433 1.14935 19.6405 0 16.718 0H11.2084C8.88687 0.00109306 6.625 0.728029 4.7455 2.07709C2.866 3.42615 1.46489 5.32842 0.742068 7.51248C0.0192492 9.69654 0.0116531 12.0508 0.720363 14.2394C1.42907 16.428 2.81788 18.3391 4.68864 19.7ZM26.819 15.4545H29.4729C31.4438 15.4541 33.3626 16.0815 34.9456 17.2439C36.5286 18.4064 37.6918 20.0423 38.2632 21.9097C38.8347 23.7771 38.784 25.777 38.1188 27.6137C37.4536 29.4505 36.2091 31.0266 34.5693 32.1091C34.4472 32.1907 34.3468 32.3003 34.2764 32.4284C34.2061 32.5566 34.168 32.6996 34.1652 32.8454L34.0918 37.4636L28.123 33.7727C27.9769 33.6831 27.8082 33.6358 27.6363 33.6364H23.9632C22.5222 33.635 21.1016 33.2979 19.8166 32.6524C18.5315 32.0068 17.4179 31.0709 16.5659 29.9203C15.7139 28.7697 15.1474 27.4367 14.9122 26.0292C14.677 24.6217 14.7797 23.1791 15.2121 21.8182H16.718C18.8265 21.8167 20.8903 21.2163 22.6645 20.0883C24.4386 18.9603 25.8487 17.3521 26.7272 15.4545H26.819ZM11.2084 1.81818H16.718C19.1534 1.81818 21.4891 2.77597 23.2112 4.48085C24.9333 6.18572 25.9008 8.49803 25.9008 10.9091C25.9008 13.3201 24.9333 15.6325 23.2112 17.3373C21.4891 19.0422 19.1534 20 16.718 20H13.0449C12.873 19.9994 12.7044 20.0467 12.5582 20.1364L6.61701 23.8273L6.54355 19.2091C6.54081 19.0633 6.50267 18.9202 6.43235 18.7921C6.36202 18.6639 6.26158 18.5544 6.13951 18.4727C4.50163 17.3915 3.25807 15.8178 2.59225 13.9838C1.92642 12.1497 1.87359 10.1524 2.44153 8.28634C3.00946 6.42029 4.16811 4.78433 5.74658 3.61974C7.32506 2.45515 9.23979 1.82358 11.2084 1.81818Z" fill="white"/>
<path d="M17.0104 6.67275C17.2442 6.90311 17.4407 7.19106 17.6001 7.53659H19.2735V8.8402H17.9188V9.04438C17.9188 9.84016 17.7063 10.526 17.2813 11.1019C16.867 11.6778 16.272 12.1071 15.4964 12.3898L18.1419 16.3635H15.3689L12.9942 12.7667H9.8546V10.7249H12.8189C13.6583 10.7249 14.2798 10.5522 14.6836 10.2066C15.0979 9.8611 15.3104 9.40562 15.3211 8.8402H9.20117V7.53659H14.9545C14.5295 6.95023 13.7858 6.66228 12.7233 6.67275H9.20117V5.36914H19.2735V6.67275H17.0104Z" fill="white"/>
<path d="M26.8196 25.4549C27.0632 25.4549 27.2968 25.3591 27.469 25.1886C27.6412 25.0181 27.7379 24.7869 27.7379 24.5458C27.7379 24.3047 27.6412 24.0735 27.469 23.903C27.2968 23.7325 27.0632 23.6367 26.8196 23.6367C26.5761 23.6367 26.3425 23.7325 26.1703 23.903C25.9981 24.0735 25.9014 24.3047 25.9014 24.5458C25.9014 24.7869 25.9981 25.0181 26.1703 25.1886C26.3425 25.3591 26.5761 25.4549 26.8196 25.4549Z" fill="white"/>
<path d="M23.1458 23.6367C22.9642 23.6367 22.7867 23.69 22.6356 23.7899C22.4846 23.8898 22.3669 24.0318 22.2974 24.1979C22.2279 24.364 22.2098 24.5468 22.2452 24.7232C22.2806 24.8995 22.3681 25.0615 22.4965 25.1886C22.6249 25.3158 22.7885 25.4024 22.9667 25.4374C23.1448 25.4725 23.3294 25.4545 23.4972 25.3857C23.665 25.3169 23.8084 25.2004 23.9093 25.0509C24.0102 24.9014 24.0641 24.7256 24.0641 24.5458C24.0641 24.3047 23.9673 24.0735 23.7951 23.903C23.6229 23.7325 23.3894 23.6367 23.1458 23.6367Z" fill="white"/>
<path d="M19.473 23.6367C19.2913 23.6367 19.1138 23.69 18.9628 23.7899C18.8118 23.8898 18.6941 24.0318 18.6246 24.1979C18.5551 24.364 18.5369 24.5468 18.5723 24.7232C18.6078 24.8995 18.6952 25.0615 18.8236 25.1886C18.9521 25.3158 19.1157 25.4024 19.2938 25.4374C19.4719 25.4725 19.6566 25.4545 19.8244 25.3857C19.9922 25.3169 20.1356 25.2004 20.2365 25.0509C20.3374 24.9014 20.3912 24.7256 20.3912 24.5458C20.3912 24.3047 20.2945 24.0735 20.1223 23.903C19.9501 23.7325 19.7165 23.6367 19.473 23.6367Z" fill="white"/>
<path d="M30.4915 25.4549C30.7351 25.4549 30.9686 25.3591 31.1408 25.1886C31.313 25.0181 31.4098 24.7869 31.4098 24.5458C31.4098 24.3047 31.313 24.0735 31.1408 23.903C30.9686 23.7325 30.7351 23.6367 30.4915 23.6367C30.248 23.6367 30.0144 23.7325 29.8422 23.903C29.67 24.0735 29.5732 24.3047 29.5732 24.5458C29.5732 24.7869 29.67 25.0181 29.8422 25.1886C30.0144 25.3591 30.248 25.4549 30.4915 25.4549Z" fill="white"/>
<path d="M34.1653 25.4549C34.4089 25.4549 34.6425 25.3591 34.8147 25.1886C34.9869 25.0181 35.0836 24.7869 35.0836 24.5458C35.0836 24.3047 34.9869 24.0735 34.8147 23.903C34.6425 23.7325 34.4089 23.6367 34.1653 23.6367C33.9218 23.6367 33.6882 23.7325 33.516 23.903C33.3438 24.0735 33.2471 24.3047 33.2471 24.5458C33.2471 24.7869 33.3438 25.0181 33.516 25.1886C33.6882 25.3591 33.9218 25.4549 34.1653 25.4549Z" fill="white"/>
</svg>
