<svg width="94" height="84" viewBox="0 0 94 84" fill="none" xmlns="http://www.w3.org/2000/svg">
<path d="M19.2999 39.5003C19.2999 33.8003 23.1999 28.7003 28.9999 27.4003C22.1999 25.9003 15.5999 29.9003 13.8999 36.6003C12.1999 43.3003 16.3999 49.9003 23.1999 51.6003C25.0999 52.1003 27.0999 52.1003 28.9999 51.6003C23.1999 50.1003 19.2999 45.2003 19.2999 39.5003Z" fill="#F1E8F0"/>
<path d="M28.5002 59.7996C27.5002 59.5996 26.6002 59.5996 25.6002 59.5996C13.0002 59.5996 2.9002 69.2996 2.2002 81.5996H8.0002C8.7002 70.5996 17.3002 61.2996 28.5002 59.7996Z" fill="#F1E8F0"/>
<path d="M73.1 63.7992H67.7V50.8992C67.7 50.1992 67.2 49.6992 66.5 49.6992C65.8 49.6992 65.3 50.1992 65.3 50.8992V63.7992H48.7V50.8992C48.7 50.1992 48.2 49.6992 47.5 49.6992C46.8 49.6992 46.3 50.1992 46.3 50.8992V63.7992H42.7H42.5C37.7 59.5992 31.6 57.3992 25.4 57.3992C11.5 57.2992 0 68.8992 0 82.7992C0 83.4992 0.5 83.9992 1.2 83.9992H50.2C50.9 83.9992 51.4 83.4992 51.4 82.7992C51.4 76.5992 49.2 70.6992 45.1 65.9992H73.3C74 65.9992 74.5 65.4992 74.5 64.7992C74.3 64.2992 73.8 63.7992 73.1 63.7992ZM2.4 81.5992C2.9 68.7992 13.9 59.0992 26.8 59.7992C38.8 60.4992 48.3 69.8992 49 81.7992H2.4V81.5992Z" fill="#721B65"/>
<path d="M87.9 0H26.1C22.7 0 20 2.9 20 6V26.8H22.4V6C22.4 4 24.1 2.1 26.1 2.1H87.9C89.9 2.1 91.6 3.9 91.6 6V45.8C91.6 47.8 89.9 49.5 87.9 49.5H33.3V52H87.9C91.3 52 94 49.3 94 46V6C94 2.9 91.3 0 87.9 0Z" fill="#721B65"/>
<path d="M40.9002 40.3C40.9002 40.1 40.9002 39.6 40.9002 39.3C40.9002 31.2 34.3002 24.5 26.1002 24.5C18.0002 24.5 11.2002 31.1 11.2002 39.1C11.2002 47.1 17.8002 53.9 26.0002 53.9C33.0002 53.9 38.9002 49.2 40.6002 42.5H91.8002V40.3H40.9002ZM26.1002 51.7C19.1002 51.7 13.5002 46.2 13.5002 39.3C13.5002 32.4 19.1002 26.9 26.1002 26.9C33.1002 26.9 38.7002 32.4 38.7002 39.3C38.5002 46.2 32.9002 51.7 26.1002 51.7Z" fill="#721B65"/>
<path d="M37.2998 18.8008L46.2998 24.8008" stroke="#721B65" stroke-width="2" stroke-miterlimit="10"/>
<path d="M52.1001 23.3008L58.3001 13.8008" stroke="#721B65" stroke-width="2" stroke-miterlimit="10"/>
<path d="M64.8999 10.4004L74.3999 13.8004" stroke="#721B65" stroke-width="2" stroke-miterlimit="10"/>
<path d="M81.8 19.6008C81.7 19.6008 81.6 19.6008 81.5 19.5008L78.7 16.9008C78.6 16.8008 78.5 16.7008 78.5 16.5008C78.5 16.2008 78.7 15.9008 79 15.9008H80.1C80.1 15.9008 80.2 15.9008 80.3 15.9008C80.6 15.9008 80.8 15.7008 81 15.5008L81.2 15.3008H79C78.7 15.3008 78.5 15.1008 78.5 14.7008C78.5 14.4008 78.7 14.1008 79 14.0008H81.1H81C80.8 13.7008 80.5 13.5008 80.1 13.5008H79C78.7 13.5008 78.5 13.3008 78.5 12.9008C78.5 12.5008 78.7 12.3008 79 12.3008H82.9C83.2 12.3008 83.4 12.5008 83.4 12.9008C83.4 13.3008 83.2 13.5008 82.9 13.5008H82L82.2 13.8008C82.3 13.9008 82.3 14.0008 82.3 14.1008V14.2008H83C83.3 14.2008 83.5 14.4008 83.5 14.8008C83.5 15.1008 83.3 15.4008 83 15.4008H82.3V15.5008C82.1 16.3008 81.5 16.9008 80.7 17.1008L80.5 17.0008L82.3 18.7008C82.4 18.8008 82.6 19.2008 82.3 19.5008C82.1 19.6008 82 19.6008 81.8 19.6008Z" fill="#721B65"/>
<path d="M81.0001 23.8996C85.3631 23.8996 88.9001 20.3627 88.9001 15.9996C88.9001 11.6366 85.3631 8.09961 81.0001 8.09961C76.637 8.09961 73.1001 11.6366 73.1001 15.9996C73.1001 20.3627 76.637 23.8996 81.0001 23.8996Z" stroke="#721B65" stroke-width="2" stroke-miterlimit="10"/>
<path d="M61.1001 14.5996C63.3092 14.5996 65.1001 12.8087 65.1001 10.5996C65.1001 8.39047 63.3092 6.59961 61.1001 6.59961C58.891 6.59961 57.1001 8.39047 57.1001 10.5996C57.1001 12.8087 58.891 14.5996 61.1001 14.5996Z" stroke="#721B65" stroke-width="2" stroke-miterlimit="10"/>
<path d="M49.6001 30C51.8092 30 53.6001 28.2091 53.6001 26C53.6001 23.7909 51.8092 22 49.6001 22C47.391 22 45.6001 23.7909 45.6001 26C45.6001 28.2091 47.391 30 49.6001 30Z" stroke="#721B65" stroke-width="2" stroke-miterlimit="10"/>
<path d="M34.5 20.5C36.7091 20.5 38.5 18.7091 38.5 16.5C38.5 14.2909 36.7091 12.5 34.5 12.5C32.2909 12.5 30.5 14.2909 30.5 16.5C30.5 18.7091 32.2909 20.5 34.5 20.5Z" stroke="#721B65" stroke-width="2" stroke-miterlimit="10"/>
</svg>
