<svg width="48" height="32" viewBox="0 0 48 32" fill="none" xmlns="http://www.w3.org/2000/svg">
<rect x="0.75" y="0.75" width="46.5" height="30.5" rx="3.25" stroke="#2E384D" stroke-width="1.5"/>
<g clip-path="url(#clip0_1555_2513)">
<path d="M30.985 15.2666C30.58 15.2666 30.2425 15.5999 30.2425 15.9999V21.7333C30.2425 21.9999 30.04 22.1333 29.77 22.1333H17.9575C17.6875 22.1333 17.5525 21.9333 17.5525 21.7333V15.9999C17.5525 15.5999 17.215 15.2666 16.81 15.2666C16.405 15.2666 16 15.5999 16 16.0666V21.7999C16 22.7999 16.8775 23.6666 17.9575 23.6666H29.8375C30.9175 23.6666 31.795 22.7999 31.795 21.7333V15.9999C31.7275 15.5999 31.39 15.2666 30.985 15.2666Z" fill="#2E384D"/>
<path d="M23.3572 20.2C23.4922 20.3333 23.6947 20.4 23.8972 20.4C24.0997 20.4 24.3022 20.3333 24.4372 20.2L27.4072 17.2667C27.5422 17.1333 27.6097 16.9333 27.6097 16.7333C27.6097 16.5333 27.5422 16.3333 27.4072 16.2C27.1372 15.9333 26.6647 15.9333 26.3947 16.2L24.7072 17.8667V9.73333C24.7072 9.33333 24.3697 9 23.9647 9C23.5597 9 23.2222 9.33333 23.2222 9.73333V17.8667L21.3997 16.2C21.1297 15.9333 20.6572 15.9333 20.3197 16.2C20.0497 16.4667 20.0497 16.9333 20.3197 17.2L23.3572 20.2Z" fill="#2E384D"/>
</g>
<defs>
<clipPath id="clip0_1555_2513">
<rect width="15.7275" height="14.6667" fill="white" transform="translate(16 9)"/>
</clipPath>
</defs>
</svg>
