<svg width="36" height="32" viewBox="0 0 36 32" fill="none" xmlns="http://www.w3.org/2000/svg">
<path d="M34.6646 29.8004H2.71911V2.50039C2.71911 1.90039 2.22764 1.40039 1.63787 1.40039C1.04811 1.40039 0.556641 1.90039 0.556641 2.50039V30.9004C0.556641 31.5004 1.04811 32.0004 1.63787 32.0004H34.6646C35.2544 32.0004 35.7458 31.5004 35.7458 30.9004C35.7458 30.3004 35.2544 29.8004 34.6646 29.8004Z" fill="#721B65"/>
<path d="M6.74822 15.2C16.4793 15.2 25.7189 11.4 30.7319 5.2L31.0268 4.8V7.5C31.0268 8.1 31.5183 8.6 32.108 8.6C32.6978 8.6 33.1893 8.1 33.1893 7.5V1.1C33.1893 0.5 32.6978 0 32.108 0C32.0097 0 32.0097 0 31.9114 0L25.6206 2C25.0309 2.2 24.736 2.8 24.9326 3.4C25.0309 3.9 25.4241 4.2 25.9155 4.2C26.0138 4.2 26.0138 4.2 26.1121 4.2L29.6507 3.1L29.2575 3.6C24.736 9.3 15.8896 13 6.74822 13C6.15846 13 5.66699 13.5 5.66699 14.1C5.66699 14.7 6.15846 15.2 6.74822 15.2Z" fill="#721B65"/>
<path d="M29.748 12.7992V25.6992C29.748 26.2992 30.2395 26.7992 30.8293 26.7992C31.419 26.7992 31.9105 26.2992 31.9105 25.6992V12.7992C31.9105 12.1992 31.419 11.6992 30.8293 11.6992C30.2395 11.6992 29.748 12.1992 29.748 12.7992Z" fill="#721B65"/>
<path d="M22.1807 16.6996V25.6996C22.1807 26.2996 22.6721 26.7996 23.2619 26.7996C23.8517 26.7996 24.3431 26.2996 24.3431 25.6996V16.6996C24.3431 16.0996 23.8517 15.5996 23.2619 15.5996C22.6721 15.5996 22.1807 16.0996 22.1807 16.6996Z" fill="#721B65"/>
<path d="M14.5127 19.2992V25.7992C14.5127 26.3992 15.0042 26.8992 15.5939 26.8992C16.1837 26.8992 16.6752 26.3992 16.6752 25.7992V19.2992C16.6752 18.6992 16.1837 18.1992 15.5939 18.1992C15.0042 18.1992 14.5127 18.6992 14.5127 19.2992Z" fill="#721B65"/>
<path d="M6.94531 20.6V25.8C6.94531 26.4 7.43678 26.9 8.02654 26.9C8.61631 26.9 9.10778 26.4 9.10778 25.8V20.6C9.10778 20 8.61631 19.5 8.02654 19.5C7.43678 19.5 6.94531 20 6.94531 20.6Z" fill="#721B65"/>
</svg>
