<svg width="32" height="32" viewBox="0 0 32 32" fill="none" xmlns="http://www.w3.org/2000/svg">
<path d="M5.09536 31.9003C2.25372 31.9003 0 29.6075 0 26.7165V7.7757C0 4.98442 2.25372 2.69159 5.09536 2.69159H6.66316V1.09657C6.66316 0.498442 7.1531 0 7.74102 0C8.32895 0 8.81889 0.498442 8.81889 1.09657V2.69159H14.6002V1.09657C14.6002 0.498442 15.0901 0 15.678 0C16.266 0 16.7559 0.498442 16.7559 1.09657V2.69159H22.5372V1.09657C22.5372 0.498442 23.0271 0 23.615 0C24.2029 0 24.6929 0.498442 24.6929 1.09657V2.69159H26.2607C29.1023 2.69159 31.356 4.98442 31.356 7.87539V26.8162C31.356 29.7072 29.1023 32 26.2607 32H5.09536V31.9003ZM2.15573 26.7165C2.15573 28.3115 3.42957 29.7072 5.09536 29.7072H26.3587C27.9265 29.7072 29.2983 28.4112 29.2983 26.7165V13.0592L2.15573 12.9595V26.7165ZM5.09536 4.88474C3.52756 4.88474 2.15573 6.18069 2.15573 7.87539V10.7664H29.1023V7.7757C29.1023 6.18069 27.8285 4.78505 26.1627 4.78505H24.5949V6.38006C24.5949 6.97819 24.105 7.47664 23.517 7.47664C22.9291 7.47664 22.4392 6.97819 22.4392 6.38006V4.98442H16.6579V6.57944C16.6579 7.17757 16.168 7.67601 15.58 7.67601C14.9921 7.67601 14.5022 7.17757 14.5022 6.57944V4.98442L8.81889 4.88474V6.47975C8.81889 7.07788 8.32895 7.57632 7.74102 7.57632C7.1531 7.57632 6.66316 7.07788 6.66316 6.47975V4.98442L5.09536 4.88474Z" fill="#721B65"/>
<path d="M14.3046 25.1212C14.0106 25.1212 13.7167 25.0216 13.5207 24.8222L10.875 22.1306C10.679 21.9312 10.5811 21.6321 10.5811 21.3331C10.5811 21.034 10.679 20.735 10.875 20.5356C11.071 20.3362 11.365 20.2365 11.6589 20.2365C11.9529 20.2365 12.2468 20.3362 12.4428 20.5356L14.3046 22.4297L18.91 17.844C19.106 17.6446 19.3999 17.5449 19.6939 17.5449C19.9879 17.5449 20.2818 17.6446 20.4778 17.844C20.6738 18.0434 20.7718 18.3424 20.7718 18.6415C20.7718 18.9406 20.6738 19.2396 20.4778 19.439L15.1865 24.8222C14.8925 25.0216 14.5985 25.1212 14.3046 25.1212Z" fill="#721B65"/>
</svg>
