<svg width="46" height="46" viewBox="0 0 46 46" fill="none" xmlns="http://www.w3.org/2000/svg">
<path d="M17.8113 23.0018L17.8113 23.0018C17.8125 24.1812 18.2815 25.3119 19.1155 26.1459C19.9494 26.9798 21.0802 27.4488 22.2595 27.45H22.2596C23.1394 27.45 23.9994 27.1891 24.7309 26.7004C25.4624 26.2116 26.0326 25.5169 26.3692 24.704C26.7059 23.8912 26.794 22.9968 26.6224 22.134C26.4507 21.2711 26.0271 20.4785 25.405 19.8564C24.7829 19.2343 23.9903 18.8106 23.1274 18.639C22.2645 18.4674 21.3701 18.5554 20.5573 18.8921C19.7445 19.2288 19.0498 19.7989 18.561 20.5305C18.0722 21.262 17.8113 22.122 17.8113 23.0018ZM22.2596 25.8839C21.7683 25.8815 21.2863 25.7518 20.8606 25.508L22.5838 23.7848H25.0224C24.8554 24.3761 24.5037 24.8992 24.0178 25.277C23.5149 25.6681 22.8966 25.8815 22.2596 25.8839ZM24.2896 20.9717C24.6363 21.3185 24.8884 21.7478 25.0222 22.2187H23.0426V20.2391C23.5136 20.373 23.9429 20.625 24.2896 20.9717ZM19.9843 21.2435C20.3622 20.7576 20.8853 20.4059 21.4765 20.239V22.6776L19.7534 24.4007C19.5096 23.975 19.3799 23.4931 19.3774 23.0017C19.3798 22.3647 19.5933 21.7464 19.9843 21.2435Z" fill="#721B65" stroke="#721B65" stroke-width="0.1"/>
<mask id="path-2-outside-1_7988_86265" maskUnits="userSpaceOnUse" x="0" y="0" width="46" height="46" fill="black">
<rect fill="white" width="46" height="46"/>
<path d="M39.1273 19.3359H40.7283C40.9012 19.825 41.2414 20.2372 41.6889 20.4997C42.1364 20.7622 42.6622 20.858 43.1735 20.7703C43.6848 20.6826 44.1486 20.4169 44.483 20.0203C44.8173 19.6237 45.0007 19.1216 45.0007 18.6028C45.0007 18.0841 44.8173 17.582 44.483 17.1854C44.1486 16.7888 43.6848 16.5231 43.1735 16.4354C42.6622 16.3477 42.1364 16.4435 41.6889 16.706C41.2414 16.9685 40.9012 17.3807 40.7283 17.8698H39.1273C39.1273 17.0921 38.8184 16.3463 38.2685 15.7965C37.7186 15.2466 36.9728 14.9376 36.1951 14.9376H33.263V14.2046C33.263 13.6214 33.0313 13.062 32.6188 12.6496C32.2064 12.2372 31.6471 12.0055 31.0638 12.0055H23.7686L23.7334 5.27248C24.2225 5.09956 24.6347 4.7593 24.8972 4.31184C25.1597 3.86439 25.2555 3.33854 25.1678 2.82725C25.0801 2.31596 24.8144 1.85213 24.4178 1.51776C24.0212 1.18339 23.5191 1 23.0004 1C22.4816 1 21.9795 1.18339 21.5829 1.51776C21.1863 1.85213 20.9206 2.31596 20.8329 2.82725C20.7452 3.33854 20.841 3.86439 21.1035 4.31184C21.366 4.7593 21.7782 5.09956 22.2673 5.27248L22.2988 11.8017C22.2365 11.7667 22.177 11.727 22.1207 11.6829L19.6599 9.71398C19.139 9.29918 18.4931 9.07286 17.8273 9.07184H9.07257C8.48933 9.07184 7.92997 9.30353 7.51755 9.71595C7.10514 10.1284 6.87345 10.6877 6.87345 11.271V14.9362H5.27248C5.09956 14.4471 4.7593 14.0349 4.31185 13.7724C3.86439 13.5099 3.33854 13.414 2.82725 13.5018C2.31596 13.5895 1.85214 13.8551 1.51776 14.2518C1.18339 14.6484 1 15.1504 1 15.6692C1 16.188 1.18339 16.69 1.51776 17.0867C1.85214 17.4833 2.31596 17.7489 2.82725 17.8367C3.33854 17.9244 3.86439 17.8285 4.31185 17.5661C4.7593 17.3036 5.09956 16.8914 5.27248 16.4023H6.87345V22.2666H5.27248C5.09956 21.7775 4.7593 21.3653 4.31185 21.1028C3.86439 20.8403 3.33854 20.7445 2.82725 20.8322C2.31596 20.9199 1.85214 21.1856 1.51776 21.5822C1.18339 21.9788 1 22.4809 1 22.9996C1 23.5184 1.18339 24.0205 1.51776 24.4171C1.85214 24.8137 2.31596 25.0794 2.82725 25.1671C3.33854 25.2548 3.86439 25.159 4.31185 24.8965C4.7593 24.634 5.09956 24.2218 5.27248 23.7327H6.87345V29.597H5.27248C5.09956 29.1079 4.7593 28.6957 4.31185 28.4332C3.86439 28.1707 3.33854 28.0749 2.82725 28.1626C2.31596 28.2503 1.85214 28.516 1.51776 28.9126C1.18339 29.3092 1 29.8113 1 30.3301C1 30.8488 1.18339 31.3509 1.51776 31.7475C1.85214 32.1441 2.31596 32.4098 2.82725 32.4975C3.33854 32.5852 3.86439 32.4894 4.31185 32.2269C4.7593 31.9644 5.09956 31.5522 5.27248 31.0631H6.87345V33.2622C6.87461 34.2339 7.26114 35.1655 7.94825 35.8526C8.63535 36.5397 9.56694 36.9263 10.5387 36.9274H22.2673V40.7275C21.7782 40.9004 21.366 41.2407 21.1035 41.6882C20.841 42.1356 20.7452 42.6615 20.8329 43.1728C20.9206 43.684 21.1863 44.1479 21.5829 44.4822C21.9795 44.8166 22.4816 45 23.0004 45C23.5191 45 24.0212 44.8166 24.4178 44.4822C24.8144 44.1479 25.0801 43.684 25.1678 43.1728C25.2555 42.6615 25.1597 42.1356 24.8972 41.6882C24.6347 41.2407 24.2225 40.9004 23.7334 40.7275V36.9289H34.729C35.6377 36.9279 36.5238 36.6454 37.2654 36.1204C38.007 35.5953 38.5678 34.8534 38.8707 33.9967H40.7283C40.9012 34.4858 41.2414 34.898 41.6889 35.1605C42.1364 35.423 42.6622 35.5189 43.1735 35.4311C43.6848 35.3434 44.1486 35.0778 44.483 34.6811C44.8173 34.2845 45.0007 33.7825 45.0007 33.2637C45.0007 32.7449 44.8173 32.2429 44.483 31.8462C44.1486 31.4496 43.6848 31.184 43.1735 31.0962C42.6622 31.0085 42.1364 31.1044 41.6889 31.3668C41.2414 31.6293 40.9012 32.0415 40.7283 32.5306H39.1273V26.6663H40.7283C40.9012 27.1554 41.2414 27.5676 41.6889 27.8301C42.1364 28.0926 42.6622 28.1884 43.1735 28.1007C43.6848 28.013 44.1486 27.7473 44.483 27.3507C44.8173 26.9541 45.0007 26.452 45.0007 25.9333C45.0007 25.4145 44.8173 24.9124 44.483 24.5158C44.1486 24.1192 43.6848 23.8535 43.1735 23.7658C42.6622 23.6781 42.1364 23.7739 41.6889 24.0364C41.2414 24.2989 40.9012 24.7111 40.7283 25.2002H39.1273V19.3359ZM42.7925 17.8698C42.9375 17.8698 43.0792 17.9128 43.1998 17.9933C43.3203 18.0739 43.4143 18.1884 43.4697 18.3223C43.5252 18.4563 43.5397 18.6037 43.5115 18.7459C43.4832 18.8881 43.4134 19.0187 43.3108 19.1212C43.2083 19.2237 43.0777 19.2935 42.9355 19.3218C42.7933 19.3501 42.6459 19.3356 42.512 19.2801C42.378 19.2246 42.2635 19.1307 42.183 19.0101C42.1025 18.8896 42.0595 18.7478 42.0595 18.6028C42.0595 18.4084 42.1367 18.222 42.2742 18.0845C42.4116 17.947 42.5981 17.8698 42.7925 17.8698ZM3.20824 16.4037C3.06325 16.4037 2.92153 16.3607 2.80098 16.2802C2.68043 16.1996 2.58648 16.0851 2.53099 15.9512C2.47551 15.8173 2.46099 15.6699 2.48928 15.5277C2.51756 15.3855 2.58738 15.2549 2.6899 15.1523C2.79241 15.0498 2.92303 14.98 3.06523 14.9517C3.20742 14.9234 3.35481 14.938 3.48876 14.9934C3.6227 15.0489 3.73719 15.1429 3.81774 15.2634C3.89829 15.384 3.94128 15.5257 3.94128 15.6707C3.94128 15.8651 3.86405 16.0515 3.72657 16.189C3.5891 16.3265 3.40265 16.4037 3.20824 16.4037ZM3.20824 23.7341C3.06325 23.7341 2.92153 23.6912 2.80098 23.6106C2.68043 23.5301 2.58648 23.4156 2.53099 23.2816C2.47551 23.1477 2.46099 23.0003 2.48928 22.8581C2.51756 22.7159 2.58738 22.5853 2.6899 22.4828C2.79241 22.3802 2.92303 22.3104 3.06523 22.2821C3.20742 22.2539 3.35481 22.2684 3.48876 22.3239C3.6227 22.3793 3.73719 22.4733 3.81774 22.5938C3.89829 22.7144 3.94128 22.8561 3.94128 23.0011C3.94128 23.1955 3.86405 23.382 3.72657 23.5194C3.5891 23.6569 3.40265 23.7341 3.20824 23.7341ZM3.20824 31.0646C3.06325 31.0646 2.92153 31.0216 2.80098 30.941C2.68043 30.8605 2.58648 30.746 2.53099 30.612C2.47551 30.4781 2.46099 30.3307 2.48928 30.1885C2.51756 30.0463 2.58738 29.9157 2.6899 29.8132C2.79241 29.7107 2.92303 29.6408 3.06523 29.6126C3.20742 29.5843 3.35481 29.5988 3.48876 29.6543C3.6227 29.7098 3.73719 29.8037 3.81774 29.9243C3.89829 30.0448 3.94128 30.1865 3.94128 30.3315C3.94128 30.5259 3.86405 30.7124 3.72657 30.8499C3.5891 30.9873 3.40265 31.0646 3.20824 31.0646ZM23.0004 43.5263C22.8554 43.5263 22.7137 43.4833 22.5931 43.4027C22.4726 43.3222 22.3786 43.2077 22.3231 43.0738C22.2676 42.9398 22.2531 42.7924 22.2814 42.6502C22.3097 42.508 22.3795 42.3774 22.482 42.2749C22.5845 42.1724 22.7152 42.1026 22.8574 42.0743C22.9996 42.046 23.1469 42.0605 23.2809 42.116C23.4148 42.1715 23.5293 42.2654 23.6099 42.386C23.6904 42.5065 23.7334 42.6482 23.7334 42.7932C23.7334 42.9876 23.6562 43.1741 23.5187 43.3116C23.3812 43.449 23.1948 43.5263 23.0004 43.5263ZM42.7925 32.5306C42.9375 32.5306 43.0792 32.5736 43.1998 32.6542C43.3203 32.7347 43.4143 32.8492 43.4697 32.9832C43.5252 33.1171 43.5397 33.2645 43.5115 33.4067C43.4832 33.5489 43.4134 33.6795 43.3108 33.782C43.2083 33.8845 43.0777 33.9544 42.9355 33.9826C42.7933 34.0109 42.6459 33.9964 42.512 33.9409C42.378 33.8854 42.2635 33.7915 42.183 33.6709C42.1025 33.5504 42.0595 33.4087 42.0595 33.2637C42.0595 33.0693 42.1367 32.8828 42.2742 32.7453C42.4116 32.6079 42.5981 32.5306 42.7925 32.5306ZM42.7925 25.2002C42.9375 25.2002 43.0792 25.2432 43.1998 25.3238C43.3203 25.4043 43.4143 25.5188 43.4697 25.6527C43.5252 25.7867 43.5397 25.9341 43.5115 26.0763C43.4832 26.2185 43.4134 26.3491 43.3108 26.4516C43.2083 26.5541 43.0777 26.6239 42.9355 26.6522C42.7933 26.6805 42.6459 26.666 42.512 26.6105C42.378 26.555 42.2635 26.4611 42.183 26.3405C42.1025 26.22 42.0595 26.0782 42.0595 25.9333C42.0595 25.7389 42.1367 25.5524 42.2742 25.4149C42.4116 25.2775 42.5981 25.2002 42.7925 25.2002ZM23.0004 2.47593C23.1454 2.47593 23.2871 2.51892 23.4076 2.59947C23.5282 2.68001 23.6221 2.7945 23.6776 2.92845C23.7331 3.06239 23.7476 3.20978 23.7193 3.35198C23.691 3.49417 23.6212 3.62479 23.5187 3.72731C23.4162 3.82982 23.2856 3.89964 23.1434 3.92792C23.0012 3.95621 22.8538 3.94169 22.7198 3.88621C22.5859 3.83073 22.4714 3.73677 22.3909 3.61622C22.3103 3.49568 22.2673 3.35395 22.2673 3.20897C22.2673 3.01455 22.3446 2.8281 22.482 2.69063C22.6195 2.55316 22.806 2.47593 23.0004 2.47593ZM12.7378 33.2637C12.7378 33.8469 12.5061 34.4063 12.0937 34.8187C11.6813 35.2311 11.1219 35.4628 10.5387 35.4628C9.95541 35.4628 9.39605 35.2311 8.98364 34.8187C8.57122 34.4063 8.33953 33.8469 8.33953 33.2637V11.2724C8.33953 11.078 8.41676 10.8916 8.55423 10.7541C8.6917 10.6166 8.87816 10.5394 9.07257 10.5394H17.8302C18.1633 10.5392 18.4864 10.6525 18.7465 10.8605L21.2073 12.8287C21.7277 13.2445 22.3739 13.4711 23.04 13.4716H31.0638C31.2582 13.4716 31.4447 13.5488 31.5822 13.6863C31.7196 13.8237 31.7969 14.0102 31.7969 14.2046V14.9376H15.6699C14.8923 14.9376 14.1465 15.2466 13.5966 15.7965C13.0467 16.3463 12.7378 17.0921 12.7378 17.8698V33.2637ZM34.729 35.4628H13.4708C13.9479 34.8291 14.2053 34.057 14.2039 33.2637V17.8698C14.2039 17.481 14.3583 17.1081 14.6333 16.8331C14.9082 16.5582 15.2811 16.4037 15.6699 16.4037H36.1951C36.584 16.4037 36.9569 16.5582 37.2318 16.8331C37.5067 17.1081 37.6612 17.481 37.6612 17.8698V32.5306C37.6612 33.3083 37.3523 34.0541 36.8024 34.604C36.2525 35.1539 35.5067 35.4628 34.729 35.4628Z"/>
</mask>
<path d="M39.1273 19.3359H40.7283C40.9012 19.825 41.2414 20.2372 41.6889 20.4997C42.1364 20.7622 42.6622 20.858 43.1735 20.7703C43.6848 20.6826 44.1486 20.4169 44.483 20.0203C44.8173 19.6237 45.0007 19.1216 45.0007 18.6028C45.0007 18.0841 44.8173 17.582 44.483 17.1854C44.1486 16.7888 43.6848 16.5231 43.1735 16.4354C42.6622 16.3477 42.1364 16.4435 41.6889 16.706C41.2414 16.9685 40.9012 17.3807 40.7283 17.8698H39.1273C39.1273 17.0921 38.8184 16.3463 38.2685 15.7965C37.7186 15.2466 36.9728 14.9376 36.1951 14.9376H33.263V14.2046C33.263 13.6214 33.0313 13.062 32.6188 12.6496C32.2064 12.2372 31.6471 12.0055 31.0638 12.0055H23.7686L23.7334 5.27248C24.2225 5.09956 24.6347 4.7593 24.8972 4.31184C25.1597 3.86439 25.2555 3.33854 25.1678 2.82725C25.0801 2.31596 24.8144 1.85213 24.4178 1.51776C24.0212 1.18339 23.5191 1 23.0004 1C22.4816 1 21.9795 1.18339 21.5829 1.51776C21.1863 1.85213 20.9206 2.31596 20.8329 2.82725C20.7452 3.33854 20.841 3.86439 21.1035 4.31184C21.366 4.7593 21.7782 5.09956 22.2673 5.27248L22.2988 11.8017C22.2365 11.7667 22.177 11.727 22.1207 11.6829L19.6599 9.71398C19.139 9.29918 18.4931 9.07286 17.8273 9.07184H9.07257C8.48933 9.07184 7.92997 9.30353 7.51755 9.71595C7.10514 10.1284 6.87345 10.6877 6.87345 11.271V14.9362H5.27248C5.09956 14.4471 4.7593 14.0349 4.31185 13.7724C3.86439 13.5099 3.33854 13.414 2.82725 13.5018C2.31596 13.5895 1.85214 13.8551 1.51776 14.2518C1.18339 14.6484 1 15.1504 1 15.6692C1 16.188 1.18339 16.69 1.51776 17.0867C1.85214 17.4833 2.31596 17.7489 2.82725 17.8367C3.33854 17.9244 3.86439 17.8285 4.31185 17.5661C4.7593 17.3036 5.09956 16.8914 5.27248 16.4023H6.87345V22.2666H5.27248C5.09956 21.7775 4.7593 21.3653 4.31185 21.1028C3.86439 20.8403 3.33854 20.7445 2.82725 20.8322C2.31596 20.9199 1.85214 21.1856 1.51776 21.5822C1.18339 21.9788 1 22.4809 1 22.9996C1 23.5184 1.18339 24.0205 1.51776 24.4171C1.85214 24.8137 2.31596 25.0794 2.82725 25.1671C3.33854 25.2548 3.86439 25.159 4.31185 24.8965C4.7593 24.634 5.09956 24.2218 5.27248 23.7327H6.87345V29.597H5.27248C5.09956 29.1079 4.7593 28.6957 4.31185 28.4332C3.86439 28.1707 3.33854 28.0749 2.82725 28.1626C2.31596 28.2503 1.85214 28.516 1.51776 28.9126C1.18339 29.3092 1 29.8113 1 30.3301C1 30.8488 1.18339 31.3509 1.51776 31.7475C1.85214 32.1441 2.31596 32.4098 2.82725 32.4975C3.33854 32.5852 3.86439 32.4894 4.31185 32.2269C4.7593 31.9644 5.09956 31.5522 5.27248 31.0631H6.87345V33.2622C6.87461 34.2339 7.26114 35.1655 7.94825 35.8526C8.63535 36.5397 9.56694 36.9263 10.5387 36.9274H22.2673V40.7275C21.7782 40.9004 21.366 41.2407 21.1035 41.6882C20.841 42.1356 20.7452 42.6615 20.8329 43.1728C20.9206 43.684 21.1863 44.1479 21.5829 44.4822C21.9795 44.8166 22.4816 45 23.0004 45C23.5191 45 24.0212 44.8166 24.4178 44.4822C24.8144 44.1479 25.0801 43.684 25.1678 43.1728C25.2555 42.6615 25.1597 42.1356 24.8972 41.6882C24.6347 41.2407 24.2225 40.9004 23.7334 40.7275V36.9289H34.729C35.6377 36.9279 36.5238 36.6454 37.2654 36.1204C38.007 35.5953 38.5678 34.8534 38.8707 33.9967H40.7283C40.9012 34.4858 41.2414 34.898 41.6889 35.1605C42.1364 35.423 42.6622 35.5189 43.1735 35.4311C43.6848 35.3434 44.1486 35.0778 44.483 34.6811C44.8173 34.2845 45.0007 33.7825 45.0007 33.2637C45.0007 32.7449 44.8173 32.2429 44.483 31.8462C44.1486 31.4496 43.6848 31.184 43.1735 31.0962C42.6622 31.0085 42.1364 31.1044 41.6889 31.3668C41.2414 31.6293 40.9012 32.0415 40.7283 32.5306H39.1273V26.6663H40.7283C40.9012 27.1554 41.2414 27.5676 41.6889 27.8301C42.1364 28.0926 42.6622 28.1884 43.1735 28.1007C43.6848 28.013 44.1486 27.7473 44.483 27.3507C44.8173 26.9541 45.0007 26.452 45.0007 25.9333C45.0007 25.4145 44.8173 24.9124 44.483 24.5158C44.1486 24.1192 43.6848 23.8535 43.1735 23.7658C42.6622 23.6781 42.1364 23.7739 41.6889 24.0364C41.2414 24.2989 40.9012 24.7111 40.7283 25.2002H39.1273V19.3359ZM42.7925 17.8698C42.9375 17.8698 43.0792 17.9128 43.1998 17.9933C43.3203 18.0739 43.4143 18.1884 43.4697 18.3223C43.5252 18.4563 43.5397 18.6037 43.5115 18.7459C43.4832 18.8881 43.4134 19.0187 43.3108 19.1212C43.2083 19.2237 43.0777 19.2935 42.9355 19.3218C42.7933 19.3501 42.6459 19.3356 42.512 19.2801C42.378 19.2246 42.2635 19.1307 42.183 19.0101C42.1025 18.8896 42.0595 18.7478 42.0595 18.6028C42.0595 18.4084 42.1367 18.222 42.2742 18.0845C42.4116 17.947 42.5981 17.8698 42.7925 17.8698ZM3.20824 16.4037C3.06325 16.4037 2.92153 16.3607 2.80098 16.2802C2.68043 16.1996 2.58648 16.0851 2.53099 15.9512C2.47551 15.8173 2.46099 15.6699 2.48928 15.5277C2.51756 15.3855 2.58738 15.2549 2.6899 15.1523C2.79241 15.0498 2.92303 14.98 3.06523 14.9517C3.20742 14.9234 3.35481 14.938 3.48876 14.9934C3.6227 15.0489 3.73719 15.1429 3.81774 15.2634C3.89829 15.384 3.94128 15.5257 3.94128 15.6707C3.94128 15.8651 3.86405 16.0515 3.72657 16.189C3.5891 16.3265 3.40265 16.4037 3.20824 16.4037ZM3.20824 23.7341C3.06325 23.7341 2.92153 23.6912 2.80098 23.6106C2.68043 23.5301 2.58648 23.4156 2.53099 23.2816C2.47551 23.1477 2.46099 23.0003 2.48928 22.8581C2.51756 22.7159 2.58738 22.5853 2.6899 22.4828C2.79241 22.3802 2.92303 22.3104 3.06523 22.2821C3.20742 22.2539 3.35481 22.2684 3.48876 22.3239C3.6227 22.3793 3.73719 22.4733 3.81774 22.5938C3.89829 22.7144 3.94128 22.8561 3.94128 23.0011C3.94128 23.1955 3.86405 23.382 3.72657 23.5194C3.5891 23.6569 3.40265 23.7341 3.20824 23.7341ZM3.20824 31.0646C3.06325 31.0646 2.92153 31.0216 2.80098 30.941C2.68043 30.8605 2.58648 30.746 2.53099 30.612C2.47551 30.4781 2.46099 30.3307 2.48928 30.1885C2.51756 30.0463 2.58738 29.9157 2.6899 29.8132C2.79241 29.7107 2.92303 29.6408 3.06523 29.6126C3.20742 29.5843 3.35481 29.5988 3.48876 29.6543C3.6227 29.7098 3.73719 29.8037 3.81774 29.9243C3.89829 30.0448 3.94128 30.1865 3.94128 30.3315C3.94128 30.5259 3.86405 30.7124 3.72657 30.8499C3.5891 30.9873 3.40265 31.0646 3.20824 31.0646ZM23.0004 43.5263C22.8554 43.5263 22.7137 43.4833 22.5931 43.4027C22.4726 43.3222 22.3786 43.2077 22.3231 43.0738C22.2676 42.9398 22.2531 42.7924 22.2814 42.6502C22.3097 42.508 22.3795 42.3774 22.482 42.2749C22.5845 42.1724 22.7152 42.1026 22.8574 42.0743C22.9996 42.046 23.1469 42.0605 23.2809 42.116C23.4148 42.1715 23.5293 42.2654 23.6099 42.386C23.6904 42.5065 23.7334 42.6482 23.7334 42.7932C23.7334 42.9876 23.6562 43.1741 23.5187 43.3116C23.3812 43.449 23.1948 43.5263 23.0004 43.5263ZM42.7925 32.5306C42.9375 32.5306 43.0792 32.5736 43.1998 32.6542C43.3203 32.7347 43.4143 32.8492 43.4697 32.9832C43.5252 33.1171 43.5397 33.2645 43.5115 33.4067C43.4832 33.5489 43.4134 33.6795 43.3108 33.782C43.2083 33.8845 43.0777 33.9544 42.9355 33.9826C42.7933 34.0109 42.6459 33.9964 42.512 33.9409C42.378 33.8854 42.2635 33.7915 42.183 33.6709C42.1025 33.5504 42.0595 33.4087 42.0595 33.2637C42.0595 33.0693 42.1367 32.8828 42.2742 32.7453C42.4116 32.6079 42.5981 32.5306 42.7925 32.5306ZM42.7925 25.2002C42.9375 25.2002 43.0792 25.2432 43.1998 25.3238C43.3203 25.4043 43.4143 25.5188 43.4697 25.6527C43.5252 25.7867 43.5397 25.9341 43.5115 26.0763C43.4832 26.2185 43.4134 26.3491 43.3108 26.4516C43.2083 26.5541 43.0777 26.6239 42.9355 26.6522C42.7933 26.6805 42.6459 26.666 42.512 26.6105C42.378 26.555 42.2635 26.4611 42.183 26.3405C42.1025 26.22 42.0595 26.0782 42.0595 25.9333C42.0595 25.7389 42.1367 25.5524 42.2742 25.4149C42.4116 25.2775 42.5981 25.2002 42.7925 25.2002ZM23.0004 2.47593C23.1454 2.47593 23.2871 2.51892 23.4076 2.59947C23.5282 2.68001 23.6221 2.7945 23.6776 2.92845C23.7331 3.06239 23.7476 3.20978 23.7193 3.35198C23.691 3.49417 23.6212 3.62479 23.5187 3.72731C23.4162 3.82982 23.2856 3.89964 23.1434 3.92792C23.0012 3.95621 22.8538 3.94169 22.7198 3.88621C22.5859 3.83073 22.4714 3.73677 22.3909 3.61622C22.3103 3.49568 22.2673 3.35395 22.2673 3.20897C22.2673 3.01455 22.3446 2.8281 22.482 2.69063C22.6195 2.55316 22.806 2.47593 23.0004 2.47593ZM12.7378 33.2637C12.7378 33.8469 12.5061 34.4063 12.0937 34.8187C11.6813 35.2311 11.1219 35.4628 10.5387 35.4628C9.95541 35.4628 9.39605 35.2311 8.98364 34.8187C8.57122 34.4063 8.33953 33.8469 8.33953 33.2637V11.2724C8.33953 11.078 8.41676 10.8916 8.55423 10.7541C8.6917 10.6166 8.87816 10.5394 9.07257 10.5394H17.8302C18.1633 10.5392 18.4864 10.6525 18.7465 10.8605L21.2073 12.8287C21.7277 13.2445 22.3739 13.4711 23.04 13.4716H31.0638C31.2582 13.4716 31.4447 13.5488 31.5822 13.6863C31.7196 13.8237 31.7969 14.0102 31.7969 14.2046V14.9376H15.6699C14.8923 14.9376 14.1465 15.2466 13.5966 15.7965C13.0467 16.3463 12.7378 17.0921 12.7378 17.8698V33.2637ZM34.729 35.4628H13.4708C13.9479 34.8291 14.2053 34.057 14.2039 33.2637V17.8698C14.2039 17.481 14.3583 17.1081 14.6333 16.8331C14.9082 16.5582 15.2811 16.4037 15.6699 16.4037H36.1951C36.584 16.4037 36.9569 16.5582 37.2318 16.8331C37.5067 17.1081 37.6612 17.481 37.6612 17.8698V32.5306C37.6612 33.3083 37.3523 34.0541 36.8024 34.604C36.2525 35.1539 35.5067 35.4628 34.729 35.4628Z" fill="#721B65"/>
<path d="M39.1273 19.3359H40.7283C40.9012 19.825 41.2414 20.2372 41.6889 20.4997C42.1364 20.7622 42.6622 20.858 43.1735 20.7703C43.6848 20.6826 44.1486 20.4169 44.483 20.0203C44.8173 19.6237 45.0007 19.1216 45.0007 18.6028C45.0007 18.0841 44.8173 17.582 44.483 17.1854C44.1486 16.7888 43.6848 16.5231 43.1735 16.4354C42.6622 16.3477 42.1364 16.4435 41.6889 16.706C41.2414 16.9685 40.9012 17.3807 40.7283 17.8698H39.1273C39.1273 17.0921 38.8184 16.3463 38.2685 15.7965C37.7186 15.2466 36.9728 14.9376 36.1951 14.9376H33.263V14.2046C33.263 13.6214 33.0313 13.062 32.6188 12.6496C32.2064 12.2372 31.6471 12.0055 31.0638 12.0055H23.7686L23.7334 5.27248C24.2225 5.09956 24.6347 4.7593 24.8972 4.31184C25.1597 3.86439 25.2555 3.33854 25.1678 2.82725C25.0801 2.31596 24.8144 1.85213 24.4178 1.51776C24.0212 1.18339 23.5191 1 23.0004 1C22.4816 1 21.9795 1.18339 21.5829 1.51776C21.1863 1.85213 20.9206 2.31596 20.8329 2.82725C20.7452 3.33854 20.841 3.86439 21.1035 4.31184C21.366 4.7593 21.7782 5.09956 22.2673 5.27248L22.2988 11.8017C22.2365 11.7667 22.177 11.727 22.1207 11.6829L19.6599 9.71398C19.139 9.29918 18.4931 9.07286 17.8273 9.07184H9.07257C8.48933 9.07184 7.92997 9.30353 7.51755 9.71595C7.10514 10.1284 6.87345 10.6877 6.87345 11.271V14.9362H5.27248C5.09956 14.4471 4.7593 14.0349 4.31185 13.7724C3.86439 13.5099 3.33854 13.414 2.82725 13.5018C2.31596 13.5895 1.85214 13.8551 1.51776 14.2518C1.18339 14.6484 1 15.1504 1 15.6692C1 16.188 1.18339 16.69 1.51776 17.0867C1.85214 17.4833 2.31596 17.7489 2.82725 17.8367C3.33854 17.9244 3.86439 17.8285 4.31185 17.5661C4.7593 17.3036 5.09956 16.8914 5.27248 16.4023H6.87345V22.2666H5.27248C5.09956 21.7775 4.7593 21.3653 4.31185 21.1028C3.86439 20.8403 3.33854 20.7445 2.82725 20.8322C2.31596 20.9199 1.85214 21.1856 1.51776 21.5822C1.18339 21.9788 1 22.4809 1 22.9996C1 23.5184 1.18339 24.0205 1.51776 24.4171C1.85214 24.8137 2.31596 25.0794 2.82725 25.1671C3.33854 25.2548 3.86439 25.159 4.31185 24.8965C4.7593 24.634 5.09956 24.2218 5.27248 23.7327H6.87345V29.597H5.27248C5.09956 29.1079 4.7593 28.6957 4.31185 28.4332C3.86439 28.1707 3.33854 28.0749 2.82725 28.1626C2.31596 28.2503 1.85214 28.516 1.51776 28.9126C1.18339 29.3092 1 29.8113 1 30.3301C1 30.8488 1.18339 31.3509 1.51776 31.7475C1.85214 32.1441 2.31596 32.4098 2.82725 32.4975C3.33854 32.5852 3.86439 32.4894 4.31185 32.2269C4.7593 31.9644 5.09956 31.5522 5.27248 31.0631H6.87345V33.2622C6.87461 34.2339 7.26114 35.1655 7.94825 35.8526C8.63535 36.5397 9.56694 36.9263 10.5387 36.9274H22.2673V40.7275C21.7782 40.9004 21.366 41.2407 21.1035 41.6882C20.841 42.1356 20.7452 42.6615 20.8329 43.1728C20.9206 43.684 21.1863 44.1479 21.5829 44.4822C21.9795 44.8166 22.4816 45 23.0004 45C23.5191 45 24.0212 44.8166 24.4178 44.4822C24.8144 44.1479 25.0801 43.684 25.1678 43.1728C25.2555 42.6615 25.1597 42.1356 24.8972 41.6882C24.6347 41.2407 24.2225 40.9004 23.7334 40.7275V36.9289H34.729C35.6377 36.9279 36.5238 36.6454 37.2654 36.1204C38.007 35.5953 38.5678 34.8534 38.8707 33.9967H40.7283C40.9012 34.4858 41.2414 34.898 41.6889 35.1605C42.1364 35.423 42.6622 35.5189 43.1735 35.4311C43.6848 35.3434 44.1486 35.0778 44.483 34.6811C44.8173 34.2845 45.0007 33.7825 45.0007 33.2637C45.0007 32.7449 44.8173 32.2429 44.483 31.8462C44.1486 31.4496 43.6848 31.184 43.1735 31.0962C42.6622 31.0085 42.1364 31.1044 41.6889 31.3668C41.2414 31.6293 40.9012 32.0415 40.7283 32.5306H39.1273V26.6663H40.7283C40.9012 27.1554 41.2414 27.5676 41.6889 27.8301C42.1364 28.0926 42.6622 28.1884 43.1735 28.1007C43.6848 28.013 44.1486 27.7473 44.483 27.3507C44.8173 26.9541 45.0007 26.452 45.0007 25.9333C45.0007 25.4145 44.8173 24.9124 44.483 24.5158C44.1486 24.1192 43.6848 23.8535 43.1735 23.7658C42.6622 23.6781 42.1364 23.7739 41.6889 24.0364C41.2414 24.2989 40.9012 24.7111 40.7283 25.2002H39.1273V19.3359ZM42.7925 17.8698C42.9375 17.8698 43.0792 17.9128 43.1998 17.9933C43.3203 18.0739 43.4143 18.1884 43.4697 18.3223C43.5252 18.4563 43.5397 18.6037 43.5115 18.7459C43.4832 18.8881 43.4134 19.0187 43.3108 19.1212C43.2083 19.2237 43.0777 19.2935 42.9355 19.3218C42.7933 19.3501 42.6459 19.3356 42.512 19.2801C42.378 19.2246 42.2635 19.1307 42.183 19.0101C42.1025 18.8896 42.0595 18.7478 42.0595 18.6028C42.0595 18.4084 42.1367 18.222 42.2742 18.0845C42.4116 17.947 42.5981 17.8698 42.7925 17.8698ZM3.20824 16.4037C3.06325 16.4037 2.92153 16.3607 2.80098 16.2802C2.68043 16.1996 2.58648 16.0851 2.53099 15.9512C2.47551 15.8173 2.46099 15.6699 2.48928 15.5277C2.51756 15.3855 2.58738 15.2549 2.6899 15.1523C2.79241 15.0498 2.92303 14.98 3.06523 14.9517C3.20742 14.9234 3.35481 14.938 3.48876 14.9934C3.6227 15.0489 3.73719 15.1429 3.81774 15.2634C3.89829 15.384 3.94128 15.5257 3.94128 15.6707C3.94128 15.8651 3.86405 16.0515 3.72657 16.189C3.5891 16.3265 3.40265 16.4037 3.20824 16.4037ZM3.20824 23.7341C3.06325 23.7341 2.92153 23.6912 2.80098 23.6106C2.68043 23.5301 2.58648 23.4156 2.53099 23.2816C2.47551 23.1477 2.46099 23.0003 2.48928 22.8581C2.51756 22.7159 2.58738 22.5853 2.6899 22.4828C2.79241 22.3802 2.92303 22.3104 3.06523 22.2821C3.20742 22.2539 3.35481 22.2684 3.48876 22.3239C3.6227 22.3793 3.73719 22.4733 3.81774 22.5938C3.89829 22.7144 3.94128 22.8561 3.94128 23.0011C3.94128 23.1955 3.86405 23.382 3.72657 23.5194C3.5891 23.6569 3.40265 23.7341 3.20824 23.7341ZM3.20824 31.0646C3.06325 31.0646 2.92153 31.0216 2.80098 30.941C2.68043 30.8605 2.58648 30.746 2.53099 30.612C2.47551 30.4781 2.46099 30.3307 2.48928 30.1885C2.51756 30.0463 2.58738 29.9157 2.6899 29.8132C2.79241 29.7107 2.92303 29.6408 3.06523 29.6126C3.20742 29.5843 3.35481 29.5988 3.48876 29.6543C3.6227 29.7098 3.73719 29.8037 3.81774 29.9243C3.89829 30.0448 3.94128 30.1865 3.94128 30.3315C3.94128 30.5259 3.86405 30.7124 3.72657 30.8499C3.5891 30.9873 3.40265 31.0646 3.20824 31.0646ZM23.0004 43.5263C22.8554 43.5263 22.7137 43.4833 22.5931 43.4027C22.4726 43.3222 22.3786 43.2077 22.3231 43.0738C22.2676 42.9398 22.2531 42.7924 22.2814 42.6502C22.3097 42.508 22.3795 42.3774 22.482 42.2749C22.5845 42.1724 22.7152 42.1026 22.8574 42.0743C22.9996 42.046 23.1469 42.0605 23.2809 42.116C23.4148 42.1715 23.5293 42.2654 23.6099 42.386C23.6904 42.5065 23.7334 42.6482 23.7334 42.7932C23.7334 42.9876 23.6562 43.1741 23.5187 43.3116C23.3812 43.449 23.1948 43.5263 23.0004 43.5263ZM42.7925 32.5306C42.9375 32.5306 43.0792 32.5736 43.1998 32.6542C43.3203 32.7347 43.4143 32.8492 43.4697 32.9832C43.5252 33.1171 43.5397 33.2645 43.5115 33.4067C43.4832 33.5489 43.4134 33.6795 43.3108 33.782C43.2083 33.8845 43.0777 33.9544 42.9355 33.9826C42.7933 34.0109 42.6459 33.9964 42.512 33.9409C42.378 33.8854 42.2635 33.7915 42.183 33.6709C42.1025 33.5504 42.0595 33.4087 42.0595 33.2637C42.0595 33.0693 42.1367 32.8828 42.2742 32.7453C42.4116 32.6079 42.5981 32.5306 42.7925 32.5306ZM42.7925 25.2002C42.9375 25.2002 43.0792 25.2432 43.1998 25.3238C43.3203 25.4043 43.4143 25.5188 43.4697 25.6527C43.5252 25.7867 43.5397 25.9341 43.5115 26.0763C43.4832 26.2185 43.4134 26.3491 43.3108 26.4516C43.2083 26.5541 43.0777 26.6239 42.9355 26.6522C42.7933 26.6805 42.6459 26.666 42.512 26.6105C42.378 26.555 42.2635 26.4611 42.183 26.3405C42.1025 26.22 42.0595 26.0782 42.0595 25.9333C42.0595 25.7389 42.1367 25.5524 42.2742 25.4149C42.4116 25.2775 42.5981 25.2002 42.7925 25.2002ZM23.0004 2.47593C23.1454 2.47593 23.2871 2.51892 23.4076 2.59947C23.5282 2.68001 23.6221 2.7945 23.6776 2.92845C23.7331 3.06239 23.7476 3.20978 23.7193 3.35198C23.691 3.49417 23.6212 3.62479 23.5187 3.72731C23.4162 3.82982 23.2856 3.89964 23.1434 3.92792C23.0012 3.95621 22.8538 3.94169 22.7198 3.88621C22.5859 3.83073 22.4714 3.73677 22.3909 3.61622C22.3103 3.49568 22.2673 3.35395 22.2673 3.20897C22.2673 3.01455 22.3446 2.8281 22.482 2.69063C22.6195 2.55316 22.806 2.47593 23.0004 2.47593ZM12.7378 33.2637C12.7378 33.8469 12.5061 34.4063 12.0937 34.8187C11.6813 35.2311 11.1219 35.4628 10.5387 35.4628C9.95541 35.4628 9.39605 35.2311 8.98364 34.8187C8.57122 34.4063 8.33953 33.8469 8.33953 33.2637V11.2724C8.33953 11.078 8.41676 10.8916 8.55423 10.7541C8.6917 10.6166 8.87816 10.5394 9.07257 10.5394H17.8302C18.1633 10.5392 18.4864 10.6525 18.7465 10.8605L21.2073 12.8287C21.7277 13.2445 22.3739 13.4711 23.04 13.4716H31.0638C31.2582 13.4716 31.4447 13.5488 31.5822 13.6863C31.7196 13.8237 31.7969 14.0102 31.7969 14.2046V14.9376H15.6699C14.8923 14.9376 14.1465 15.2466 13.5966 15.7965C13.0467 16.3463 12.7378 17.0921 12.7378 17.8698V33.2637ZM34.729 35.4628H13.4708C13.9479 34.8291 14.2053 34.057 14.2039 33.2637V17.8698C14.2039 17.481 14.3583 17.1081 14.6333 16.8331C14.9082 16.5582 15.2811 16.4037 15.6699 16.4037H36.1951C36.584 16.4037 36.9569 16.5582 37.2318 16.8331C37.5067 17.1081 37.6612 17.481 37.6612 17.8698V32.5306C37.6612 33.3083 37.3523 34.0541 36.8024 34.604C36.2525 35.1539 35.5067 35.4628 34.729 35.4628Z" stroke="#721B65" stroke-width="0.2" mask="url(#path-2-outside-1_7988_86265)"/>
<path d="M34.7264 32.4813H34.0434V19.3366C34.0434 19.1289 33.9609 18.9297 33.8141 18.7829C33.6672 18.636 33.468 18.5535 33.2604 18.5535C33.0527 18.5535 32.8535 18.636 32.7067 18.7829C32.5598 18.9297 32.4773 19.1289 32.4773 19.3366V32.4813H31.1112V20.8026C31.1112 20.595 31.0287 20.3958 30.8819 20.2489C30.735 20.1021 30.5359 20.0196 30.3282 20.0196C30.1205 20.0196 29.9213 20.1021 29.7745 20.2489C29.6276 20.3958 29.5451 20.595 29.5451 20.8026V32.4813H28.1791V26.667C28.1791 26.4593 28.0966 26.2601 27.9497 26.1133C27.8029 25.9664 27.6037 25.8839 27.396 25.8839C27.1883 25.8839 26.9892 25.9664 26.8423 26.1133C26.6955 26.2601 26.613 26.4593 26.613 26.667V32.4813H25.2469V28.8661C25.2469 28.6584 25.1644 28.4593 25.0175 28.3124C24.8707 28.1656 24.6715 28.0831 24.4639 28.0831C24.2562 28.0831 24.057 28.1656 23.9102 28.3124C23.7633 28.4593 23.6808 28.6584 23.6808 28.8661V32.4813H22.3147V29.5991C22.3147 29.3915 22.2322 29.1923 22.0854 29.0454C21.9385 28.8986 21.7394 28.8161 21.5317 28.8161C21.324 28.8161 21.1248 28.8986 20.978 29.0454C20.8311 29.1923 20.7486 29.3915 20.7486 29.5991V32.4813H19.3826V28.8661C19.3826 28.6584 19.3001 28.4593 19.1532 28.3124C19.0064 28.1656 18.8072 28.0831 18.5995 28.0831C18.3918 28.0831 18.1927 28.1656 18.0458 28.3124C17.899 28.4593 17.8165 28.6584 17.8165 28.8661V32.4813H17.1334C16.9258 32.4813 16.7266 32.5638 16.5797 32.7107C16.4329 32.8575 16.3504 33.0567 16.3504 33.2644C16.3504 33.472 16.4329 33.6712 16.5797 33.818C16.7266 33.9649 16.9258 34.0474 17.1334 34.0474H34.7264C34.9341 34.0474 35.1333 33.9649 35.2801 33.818C35.427 33.6712 35.5095 33.472 35.5095 33.2644C35.5095 33.0567 35.427 32.8575 35.2801 32.7107C35.1333 32.5638 34.9341 32.4813 34.7264 32.4813Z" fill="#721B65" stroke="#721B65" stroke-width="0.1"/>
</svg>
