<svg width="27" height="32" viewBox="0 0 27 32" fill="none" xmlns="http://www.w3.org/2000/svg">
<path d="M18.6503 13.8C20.3457 12.3 21.3431 10.2 21.3431 7.9C21.3431 3.5 17.8524 0 13.4641 0C9.07579 0 5.5851 3.5 5.5851 7.9C5.5851 10.2 6.58244 12.3 8.27792 13.8C3.49069 14.8 0 19.3 0 24.6V30.9C0 31.5 0.49867 32 1.09707 32H25.8311C26.4295 32 26.9282 31.5 26.9282 30.9V24.6C26.8284 19.3 23.3378 14.8 18.6503 13.8ZM12.6662 17.3V15.8H14.1622V17.3H12.6662ZM11.5691 24.2L12.4667 19.5H14.3617L15.2593 24.2L13.3644 25.8L11.5691 24.2ZM10.0731 15.8H10.4721V18.3L9.27526 24.4C9.17553 24.8 9.37499 25.2 9.6742 25.4L12.7659 28C13.1649 28.3 13.7633 28.3 14.1622 28L17.254 25.4C17.5532 25.1 17.6529 24.7 17.6529 24.4L16.4561 18.3V15.8H16.855C21.2433 15.8 24.734 19.8 24.734 24.6V29.8H2.19415V24.6C2.19415 19.7 5.68484 15.8 10.0731 15.8ZM7.67952 7.9C7.67952 4.7 10.2726 2.2 13.3644 2.2C16.4561 2.2 19.0492 4.8 19.0492 7.9C19.0492 11 16.4561 13.6 13.3644 13.6C10.2726 13.6 7.67952 11 7.67952 7.9Z" fill="#721B65"/>
</svg>
