<svg width="42" height="32" viewBox="0 0 42 32" fill="none" xmlns="http://www.w3.org/2000/svg">
<path d="M40.5593 29.9H36.4309V18H40.5593C41.149 18 41.5422 17.5 41.5422 17C41.5422 16.5 41.0507 16 40.5593 16H35.448H35.3497C34.0719 15.2 32.5975 14.6 31.123 14.4C28.4691 14.1 26.2084 14.8 24.4391 15.5C23.8493 15.7 23.1612 15.9 22.5715 16.1C20.9005 16.4 19.2295 16.5 17.5585 16.4H16.2807C15.1011 16.4 14.1182 16.7 13.5284 17.4L6.2547 13C3.89565 11.5 2.02807 11.6 0.750246 13.3C-0.527574 15 -0.134399 17 1.63489 18.3C3.20759 19.5 11.4643 25.7 14.9046 27.5C18.2466 29.2 19.6227 29.6 23.3578 29.6H34.465V31C34.465 31.6 34.9565 32 35.448 32H40.5593C41.149 32 41.5422 31.5 41.5422 31C41.5422 30.5 41.149 29.9 40.5593 29.9ZM18.8363 23.2C19.8193 23.2 21.9817 23.3 26.5032 23.5C26.6015 23.5 26.6998 23.5 26.6998 23.5C27.2896 23.5 27.6828 23.1 27.7811 22.5C27.7811 22.2 27.6828 22 27.4862 21.7C27.2896 21.5 27.093 21.4 26.7981 21.4C26.7981 21.4 26.4049 21.4 25.9135 21.4C24.2425 21.3 20.7039 21.1 18.738 21.1C16.6739 21.1 14.6097 20.6 14.6097 19.5C14.6097 18.8 14.708 18.3 16.1824 18.3C16.5756 18.3 16.9687 18.3 17.3619 18.3C19.1312 18.4 20.9988 18.3 22.7681 17.9C23.5544 17.7 24.2425 17.5 24.9305 17.2C26.5032 16.6 28.5674 16 30.7299 16.2C32.0077 16.4 33.2855 16.9 34.2684 17.6V27.1H23.3578C20.0158 27.1 18.9346 26.8 15.7892 25.3C12.6438 23.7 5.07518 18 2.81442 16.3C2.32295 15.9 2.02807 15.5 2.02807 15.1C2.02807 14.8 2.12636 14.5 2.42124 14.1C2.61783 13.8 2.91271 13.6 3.30589 13.6C3.79736 13.6 4.38712 13.8 5.27176 14.4L12.7421 19C12.7421 19.1 12.7421 19.3 12.7421 19.4C12.7421 22.3 15.8875 23.2 18.8363 23.2Z" fill="#721B65"/>
<path d="M18.2467 2.1C21.1955 2.1 23.6529 4.6 23.6529 7.6C23.6529 10.6 21.1955 13.1 18.2467 13.1C15.2979 13.1 12.8405 10.7 12.8405 7.6C12.8405 4.5 15.2979 2.1 18.2467 2.1ZM18.2467 0C14.1184 0 10.7764 3.4 10.7764 7.6C10.7764 11.8 14.1184 15.2 18.2467 15.2C22.375 15.2 25.717 11.8 25.717 7.6C25.8153 3.4 22.4733 0 18.2467 0Z" fill="#721B65"/>
<path d="M20.2113 5.99922H19.7198C19.7198 5.99922 19.7198 5.99922 19.7198 5.89922C19.7198 5.79922 19.6215 5.59922 19.6215 5.49922H20.3096C20.4079 5.49922 20.6045 5.39922 20.7028 5.29922C20.8011 5.19922 20.8994 4.99922 20.8994 4.89922C20.8994 4.49922 20.6045 4.29922 20.3096 4.29922L16.4761 4.19922C16.083 4.19922 15.8864 4.49922 15.8864 4.79922C15.8864 5.09922 16.1813 5.39922 16.4761 5.39922H17.5574C17.8523 5.39922 18.1471 5.59922 18.3437 5.79922L16.4761 5.69922C16.083 5.69922 15.8864 5.99922 15.8864 6.29922C15.8864 6.69922 16.1813 6.89922 16.4761 6.89922H18.3437C18.1471 7.09922 17.9505 7.29922 17.5574 7.29922H16.4761C16.3778 7.29922 16.1813 7.39922 16.083 7.39922C15.7881 7.99922 15.7881 8.09922 15.7881 8.29922C15.7881 8.49922 15.8864 8.69922 15.9847 8.69922L18.7369 11.2992C18.8352 11.3992 19.0318 11.3992 19.1301 11.3992C19.5233 11.3992 19.7198 11.0992 19.7198 10.7992C19.7198 10.5992 19.6215 10.3992 19.5233 10.3992L17.9506 8.79922C18.8352 8.69922 19.5233 7.99922 19.7198 7.19922H20.2113C20.6045 7.19922 20.8011 6.89922 20.8011 6.59922C20.8011 6.29922 20.5062 5.99922 20.2113 5.99922Z" fill="#721B65"/>
</svg>
