<svg width="42" height="42" viewBox="0 0 42 42" fill="none" xmlns="http://www.w3.org/2000/svg">
<mask id="path-1-outside-1_7988_86275" maskUnits="userSpaceOnUse" x="0" y="0" width="42" height="42" fill="black">
<rect fill="white" width="42" height="42"/>
<path d="M41 21C41 9.97226 32.0277 1 21 1C17.5426 1 14.1742 1.89548 11.1877 3.58065H8.74194V1H4.87097V9.18516C2.34194 12.6303 1 16.7077 1 21C1 32.0284 9.97226 41 21 41C23.4574 41 25.8561 40.5581 28.1303 39.6897C29.4284 40.5148 30.9639 41 32.6129 41C34.6245 41 36.5703 40.2768 38.0916 38.9639L37.2484 37.9871C35.9613 39.0981 34.3155 39.7097 32.6129 39.7097C28.7 39.7097 25.5161 36.5258 25.5161 32.6129C25.5161 28.7 28.7 25.5161 32.6129 25.5161C36.5258 25.5161 39.7097 28.7 39.7097 32.6129C39.7097 34.2484 39.169 35.7858 38.1452 37.0587L39.151 37.8677C40.3432 36.3845 41 34.5187 41 32.6129C41 30.9626 40.5142 29.4271 39.6884 28.1284C40.5561 25.8535 41 23.4574 41 21ZM11.3226 7.45161H12.6129V8.74194V16.4839H11.3226V7.45161ZM8.74194 4.87097H10.0323V6.16129V16.4839H8.74194V4.87097ZM6.16129 2.29032H7.45161V3.58065V16.4839H6.16129V2.29032ZM20.3548 39.6935C10.551 39.3587 2.64129 31.449 2.30645 21.6452H20.3548V39.6935ZM20.3548 20.3548H2.31613C2.42129 17.2142 3.29355 14.2129 4.87097 11.5374V17.7742H7.45161H8.74194H10.0323H11.3226H12.6129H13.9032H15.1935H16.4839H19.0645V11.3226H16.4839V8.74194H13.9032V6.16129H11.3226V4.99484C14.0523 3.34065 17.1542 2.42258 20.3548 2.3129V20.3548ZM13.9032 16.4839V10.0323H15.1935V11.3226V16.4839H13.9032ZM16.4839 16.4839V12.6129H17.7742V16.4839H16.4839ZM39.6935 20.3548H34.1703L38.9148 15.6103C39.3703 17.1206 39.6374 18.711 39.6935 20.3548ZM36.4426 10.4516L29.2368 17.6574L30.149 18.5697L37.149 11.5697C37.6497 12.4239 38.0839 13.3206 38.4464 14.2542L32.3458 20.3548H28.3639L29.1981 19.5206L28.2858 18.6084L26.5394 20.3548H22.5574L34.669 8.24323C35.3129 8.93355 35.9071 9.67032 36.4426 10.4516ZM21.6452 2.30645C23.289 2.36258 24.8794 2.62968 26.3897 3.08516L21.6452 7.82968V2.30645ZM21.6452 15.4606L29.4858 7.62L28.5735 6.70774L21.6452 13.6361V9.65419L27.7458 3.55355C28.6794 3.91548 29.5761 4.34968 30.4303 4.85097L29.391 5.89032L30.3032 6.80258L31.5484 5.55742C32.3297 6.0929 33.0664 6.68645 33.7568 7.33097L21.6452 19.4426V15.4606ZM32.6129 24.2258C27.9884 24.2258 24.2258 27.9884 24.2258 32.6129C24.2258 35.0394 25.2677 37.2213 26.92 38.7542C25.22 39.3213 23.4516 39.6342 21.6452 39.6948V21.6452H39.6948C39.6342 23.451 39.3187 25.2181 38.7523 26.9181C37.2194 25.2665 35.0381 24.2258 32.6129 24.2258Z"/>
</mask>
<path d="M41 21C41 9.97226 32.0277 1 21 1C17.5426 1 14.1742 1.89548 11.1877 3.58065H8.74194V1H4.87097V9.18516C2.34194 12.6303 1 16.7077 1 21C1 32.0284 9.97226 41 21 41C23.4574 41 25.8561 40.5581 28.1303 39.6897C29.4284 40.5148 30.9639 41 32.6129 41C34.6245 41 36.5703 40.2768 38.0916 38.9639L37.2484 37.9871C35.9613 39.0981 34.3155 39.7097 32.6129 39.7097C28.7 39.7097 25.5161 36.5258 25.5161 32.6129C25.5161 28.7 28.7 25.5161 32.6129 25.5161C36.5258 25.5161 39.7097 28.7 39.7097 32.6129C39.7097 34.2484 39.169 35.7858 38.1452 37.0587L39.151 37.8677C40.3432 36.3845 41 34.5187 41 32.6129C41 30.9626 40.5142 29.4271 39.6884 28.1284C40.5561 25.8535 41 23.4574 41 21ZM11.3226 7.45161H12.6129V8.74194V16.4839H11.3226V7.45161ZM8.74194 4.87097H10.0323V6.16129V16.4839H8.74194V4.87097ZM6.16129 2.29032H7.45161V3.58065V16.4839H6.16129V2.29032ZM20.3548 39.6935C10.551 39.3587 2.64129 31.449 2.30645 21.6452H20.3548V39.6935ZM20.3548 20.3548H2.31613C2.42129 17.2142 3.29355 14.2129 4.87097 11.5374V17.7742H7.45161H8.74194H10.0323H11.3226H12.6129H13.9032H15.1935H16.4839H19.0645V11.3226H16.4839V8.74194H13.9032V6.16129H11.3226V4.99484C14.0523 3.34065 17.1542 2.42258 20.3548 2.3129V20.3548ZM13.9032 16.4839V10.0323H15.1935V11.3226V16.4839H13.9032ZM16.4839 16.4839V12.6129H17.7742V16.4839H16.4839ZM39.6935 20.3548H34.1703L38.9148 15.6103C39.3703 17.1206 39.6374 18.711 39.6935 20.3548ZM36.4426 10.4516L29.2368 17.6574L30.149 18.5697L37.149 11.5697C37.6497 12.4239 38.0839 13.3206 38.4464 14.2542L32.3458 20.3548H28.3639L29.1981 19.5206L28.2858 18.6084L26.5394 20.3548H22.5574L34.669 8.24323C35.3129 8.93355 35.9071 9.67032 36.4426 10.4516ZM21.6452 2.30645C23.289 2.36258 24.8794 2.62968 26.3897 3.08516L21.6452 7.82968V2.30645ZM21.6452 15.4606L29.4858 7.62L28.5735 6.70774L21.6452 13.6361V9.65419L27.7458 3.55355C28.6794 3.91548 29.5761 4.34968 30.4303 4.85097L29.391 5.89032L30.3032 6.80258L31.5484 5.55742C32.3297 6.0929 33.0664 6.68645 33.7568 7.33097L21.6452 19.4426V15.4606ZM32.6129 24.2258C27.9884 24.2258 24.2258 27.9884 24.2258 32.6129C24.2258 35.0394 25.2677 37.2213 26.92 38.7542C25.22 39.3213 23.4516 39.6342 21.6452 39.6948V21.6452H39.6948C39.6342 23.451 39.3187 25.2181 38.7523 26.9181C37.2194 25.2665 35.0381 24.2258 32.6129 24.2258Z" fill="#721B65"/>
<path d="M41 21C41 9.97226 32.0277 1 21 1C17.5426 1 14.1742 1.89548 11.1877 3.58065H8.74194V1H4.87097V9.18516C2.34194 12.6303 1 16.7077 1 21C1 32.0284 9.97226 41 21 41C23.4574 41 25.8561 40.5581 28.1303 39.6897C29.4284 40.5148 30.9639 41 32.6129 41C34.6245 41 36.5703 40.2768 38.0916 38.9639L37.2484 37.9871C35.9613 39.0981 34.3155 39.7097 32.6129 39.7097C28.7 39.7097 25.5161 36.5258 25.5161 32.6129C25.5161 28.7 28.7 25.5161 32.6129 25.5161C36.5258 25.5161 39.7097 28.7 39.7097 32.6129C39.7097 34.2484 39.169 35.7858 38.1452 37.0587L39.151 37.8677C40.3432 36.3845 41 34.5187 41 32.6129C41 30.9626 40.5142 29.4271 39.6884 28.1284C40.5561 25.8535 41 23.4574 41 21ZM11.3226 7.45161H12.6129V8.74194V16.4839H11.3226V7.45161ZM8.74194 4.87097H10.0323V6.16129V16.4839H8.74194V4.87097ZM6.16129 2.29032H7.45161V3.58065V16.4839H6.16129V2.29032ZM20.3548 39.6935C10.551 39.3587 2.64129 31.449 2.30645 21.6452H20.3548V39.6935ZM20.3548 20.3548H2.31613C2.42129 17.2142 3.29355 14.2129 4.87097 11.5374V17.7742H7.45161H8.74194H10.0323H11.3226H12.6129H13.9032H15.1935H16.4839H19.0645V11.3226H16.4839V8.74194H13.9032V6.16129H11.3226V4.99484C14.0523 3.34065 17.1542 2.42258 20.3548 2.3129V20.3548ZM13.9032 16.4839V10.0323H15.1935V11.3226V16.4839H13.9032ZM16.4839 16.4839V12.6129H17.7742V16.4839H16.4839ZM39.6935 20.3548H34.1703L38.9148 15.6103C39.3703 17.1206 39.6374 18.711 39.6935 20.3548ZM36.4426 10.4516L29.2368 17.6574L30.149 18.5697L37.149 11.5697C37.6497 12.4239 38.0839 13.3206 38.4464 14.2542L32.3458 20.3548H28.3639L29.1981 19.5206L28.2858 18.6084L26.5394 20.3548H22.5574L34.669 8.24323C35.3129 8.93355 35.9071 9.67032 36.4426 10.4516ZM21.6452 2.30645C23.289 2.36258 24.8794 2.62968 26.3897 3.08516L21.6452 7.82968V2.30645ZM21.6452 15.4606L29.4858 7.62L28.5735 6.70774L21.6452 13.6361V9.65419L27.7458 3.55355C28.6794 3.91548 29.5761 4.34968 30.4303 4.85097L29.391 5.89032L30.3032 6.80258L31.5484 5.55742C32.3297 6.0929 33.0664 6.68645 33.7568 7.33097L21.6452 19.4426V15.4606ZM32.6129 24.2258C27.9884 24.2258 24.2258 27.9884 24.2258 32.6129C24.2258 35.0394 25.2677 37.2213 26.92 38.7542C25.22 39.3213 23.4516 39.6342 21.6452 39.6948V21.6452H39.6948C39.6342 23.451 39.3187 25.2181 38.7523 26.9181C37.2194 25.2665 35.0381 24.2258 32.6129 24.2258Z" stroke="#721B65" stroke-width="0.4" mask="url(#path-1-outside-1_7988_86275)"/>
<path d="M16.756 24.3444L16.6853 24.2737L16.6146 24.3444L8.87265 32.0865L8.80194 32.1572L8.87265 32.2279L9.78503 33.1403L9.85574 33.211L9.92645 33.1403L17.6684 25.3983L17.7391 25.3276L17.6684 25.2568L16.756 24.3444Z" fill="#721B65" stroke="#721B65" stroke-width="0.2"/>
<path d="M15.8535 29.2867C14.7311 29.2867 13.818 30.1999 13.818 31.3222C13.818 32.4445 14.7311 33.3577 15.8535 33.3577C16.9758 33.3577 17.8889 32.4445 17.8889 31.3222C17.8889 30.1999 16.9758 29.2867 15.8535 29.2867ZM15.8535 31.8674C15.5531 31.8674 15.3083 31.623 15.3083 31.3222C15.3083 31.0214 15.5531 30.777 15.8535 30.777C16.1538 30.777 16.3986 31.0214 16.3986 31.3222C16.3986 31.623 16.1538 31.8674 15.8535 31.8674Z" fill="#721B65" stroke="#721B65" stroke-width="0.2"/>
<path d="M10.6699 24.1256C9.54753 24.1256 8.63437 25.0387 8.63437 26.1611C8.63437 27.2834 9.54753 28.1966 10.6699 28.1966C11.7922 28.1966 12.7053 27.2834 12.7053 26.1611C12.7053 25.0387 11.7922 24.1256 10.6699 24.1256ZM10.6699 26.7062C10.3695 26.7062 10.1247 26.4619 10.1247 26.1611C10.1247 25.8602 10.3695 25.6159 10.6699 25.6159C10.9702 25.6159 11.215 25.8602 11.215 26.1611C11.215 26.4619 10.9702 26.7062 10.6699 26.7062Z" fill="#721B65" stroke="#721B65" stroke-width="0.2"/>
<path d="M33.8081 30.6786V30.7786H33.9081H35.1984H35.2984V30.6786C35.2984 29.459 34.477 28.4375 33.3629 28.1134V26.8076V26.7076H33.2629H31.9726H31.8726V26.8076V28.1134C30.7585 28.4375 29.9371 29.459 29.9371 30.6786C29.9371 32.157 31.1393 33.3592 32.6178 33.3592C33.2741 33.3592 33.8081 33.8932 33.8081 34.5496C33.8081 35.2059 33.2741 35.7399 32.6178 35.7399C31.9614 35.7399 31.4274 35.2059 31.4274 34.5496V34.4496H31.3274H30.0371H29.9371V34.5496C29.9371 35.7691 30.7585 36.7906 31.8726 37.1148V38.4205V38.5205H31.9726H33.2629H33.3629V38.4205V37.1148C34.477 36.7906 35.2984 35.7691 35.2984 34.5496C35.2984 33.0711 34.0962 31.8689 32.6178 31.8689C31.9614 31.8689 31.4274 31.335 31.4274 30.6786C31.4274 30.0222 31.9614 29.4883 32.6178 29.4883C33.2741 29.4883 33.8081 30.0222 33.8081 30.6786Z" fill="#721B65" stroke="#721B65" stroke-width="0.2"/>
<path d="M38.5095 31.9668V31.8668H38.4095H37.1191H37.0191V31.9668V33.2571V33.3571H37.1191H38.4095H38.5095V33.2571V31.9668Z" fill="#721B65" stroke="#721B65" stroke-width="0.2"/>
<path d="M28.1989 31.9668V31.8668H28.0989H26.8086H26.7086V31.9668V33.2571V33.3571H26.8086H28.0989H28.1989V33.2571V31.9668Z" fill="#721B65" stroke="#721B65" stroke-width="0.2"/>
</svg>
