<svg width="37" height="32" viewBox="0 0 37 32" fill="none" xmlns="http://www.w3.org/2000/svg">
<path d="M16.3018 2.01993C16.5108 1.80731 16.6153 1.48837 16.6153 1.16944C16.6153 0.850498 16.5108 0.531561 16.3018 0.318937C16.0928 0.106312 15.7793 0 15.4658 0H1.14948C0.731489 0 0.522492 0.212625 0.313495 0.425249C0.104498 0.744186 0 1.06312 0 1.38206C0 1.59468 0.208997 1.91362 0.417994 2.12625C0.731489 2.33887 1.04498 2.44518 1.25398 2.44518H4.28444C4.38893 2.44518 4.49343 2.44518 4.49343 2.44518C4.59793 2.44518 4.59793 2.44518 4.70243 2.44518C7.52389 2.44518 9.92735 4.46512 10.5543 7.33555H1.25398H1.14948C0.522492 7.33555 0 7.97342 0 8.6113C0 9.24917 0.522492 9.78073 1.25398 9.78073H10.5543C10.0318 12.5448 7.73288 14.5648 5.01592 14.6711H4.80693C4.70243 14.6711 4.59793 14.6711 4.49343 14.6711H1.35848C1.25398 14.6711 1.14948 14.6711 1.04498 14.6711C0.731489 14.6711 0.417994 14.8837 0.208997 15.0963C0.104498 15.4153 0 15.7342 0 16.0532C0 16.3721 0.208997 16.691 0.417994 16.9037C0.626991 17.1163 0.940486 17.2226 1.25398 17.2226H4.07544L10.8678 31.2558C10.9723 31.5747 11.1813 31.7874 11.4948 31.8937C11.5993 32 11.8083 32 11.9128 32C12.1218 32 12.2263 32 12.4353 31.8937C12.7488 31.7874 12.9578 31.4684 13.0623 31.1495C13.1668 30.8306 13.1668 30.5116 12.9578 30.1927L6.5834 16.9037C9.92735 16.1595 12.5398 13.289 12.9578 9.67442H15.3613C15.6748 9.67442 15.9883 9.56811 16.1973 9.35548C16.4063 9.14286 16.6153 8.82392 16.6153 8.50498C16.6153 8.18605 16.5108 7.86711 16.3018 7.65448C16.0928 7.44186 15.7793 7.33555 15.4658 7.33555H13.0623C12.7488 5.42193 11.9128 3.72093 10.6588 2.44518H15.5703C15.7793 2.44518 15.9883 2.33887 16.3018 2.01993Z" fill="#721B65"/>
<path d="M36.3645 8.71761L28.3181 0.531561C28.1091 0.212625 27.7956 0 27.3776 0C26.9596 0 26.6461 0.318937 26.4371 0.531561L18.3908 8.71761C18.0773 9.03654 17.9728 9.46179 18.0773 9.88704C18.1818 10.3123 18.4953 10.6312 18.9133 10.7375C19.3313 10.8439 19.7492 10.7375 19.9582 10.4186L26.1237 4.03987V30.5116C26.1237 31.1495 26.6461 31.6811 27.1686 31.6811H27.2731C27.5866 31.6811 27.9001 31.5748 28.1091 31.3621C28.3181 31.1495 28.5271 30.8306 28.5271 30.5116V4.14618L34.6925 10.5249C34.9015 10.7375 35.1105 10.8439 35.424 10.8439C35.9465 10.9502 36.3645 10.6312 36.5735 10.0997C36.7825 9.56811 36.7825 9.03654 36.3645 8.71761Z" fill="#721B65"/>
</svg>
