<svg width="33" height="32" viewBox="0 0 33 32" fill="none" xmlns="http://www.w3.org/2000/svg">
<path d="M30.9636 29.9H25.8523C26.9336 28.7 27.6216 27.1 27.6216 25.4V22.6C27.6216 22 27.1302 21.5 26.5404 21.5H21.724C20.053 21.5 18.4803 22.1 17.3008 23.3V18.7C21.9206 18.2 25.4592 14.1 25.4592 9.4C25.5575 4.2 21.4291 0 16.3178 0C11.2066 0 7.07821 4.2 7.07821 9.4C7.07821 14.2 10.6168 18.2 15.2366 18.7V23.3C14.0571 22.2 12.4844 21.5 10.8134 21.5H6.09528C5.50551 21.5 5.01404 22 5.01404 22.6V25.4C5.01404 27.1 5.60381 28.7 6.78333 29.9H1.67205C1.08229 29.9 0.59082 30.4 0.59082 31C0.59082 31.5 1.08229 32 1.67205 32H31.0619C31.6517 32 32.1431 31.5 32.1431 30.9C32.0449 30.4 31.5534 29.9 30.9636 29.9ZM15.2366 28.2V29.9H11.5014C9.04409 29.9 7.07821 27.9 7.07821 25.4V23.7H10.8134C13.2707 23.7 15.2366 25.7 15.2366 28.2ZM23.4933 9.4C23.4933 13.4 20.2496 16.7 16.3178 16.7C12.3861 16.7 9.14239 13.4 9.14239 9.4C9.14239 5.4 12.3861 2.1 16.3178 2.1C20.2496 2.1 23.4933 5.4 23.4933 9.4ZM25.5575 23.7V25.4C25.5575 27.9 23.5916 29.9 21.1342 29.9H17.3991V28.2C17.3991 25.7 19.3649 23.7 21.8223 23.7H25.5575Z" fill="#721B65"/>
<path d="M19.8561 8.30117C19.8561 8.80117 19.4629 9.20117 18.9715 9.20117H18.1851C17.8902 10.4012 16.9073 11.4012 15.6295 11.6012L17.9885 13.9012C18.1851 14.0012 18.2834 14.3012 18.2834 14.5012C18.2834 15.0012 17.8902 15.4012 17.3988 15.4012C17.2022 15.4012 17.0056 15.4012 16.809 15.2012L12.9755 11.4012C12.779 11.3012 12.6807 11.0012 12.6807 10.8012C12.6807 10.6012 12.779 10.4012 12.9755 10.1012C13.1721 10.0012 13.3687 9.90117 13.5653 9.90117H15.138C15.6295 9.80117 16.0227 9.60117 16.3175 9.30117H13.5653C13.0738 9.30117 12.6807 8.90117 12.6807 8.40117C12.6807 7.90117 13.0738 7.50117 13.5653 7.50117L16.3175 7.60117C16.0227 7.20117 15.6295 7.00117 15.138 7.00117H13.5653C13.0738 7.00117 12.6807 6.60117 12.6807 6.10117C12.6807 5.60117 13.0738 5.20117 13.5653 5.20117L18.9715 5.30117C19.4629 5.30117 19.8561 5.70117 19.8561 6.20117C19.8561 6.40117 19.7578 6.60117 19.5612 6.80117C19.3646 7.00117 19.1681 7.10117 18.9715 7.10117H17.9885C18.0868 7.30117 18.1851 7.50117 18.1851 7.60117V7.70117H18.9715C19.3646 7.60117 19.8561 8.00117 19.8561 8.30117Z" fill="#721B65"/>
</svg>
