<svg width="10" height="10" viewBox="0 0 10 10" fill="none" xmlns="http://www.w3.org/2000/svg">
<path d="M4.19922 9.19998C4.19922 8.99998 4.29922 8.79998 4.39922 8.59998L7.99922 4.99998L4.39922 1.39998C4.09922 0.999976 4.19922 0.499976 4.49922 0.199976C4.79922 -0.100024 5.29922 -0.100024 5.59922 0.199976L9.79922 4.39998C10.0992 4.69998 10.0992 5.29998 9.79922 5.59998L5.59922 9.79998C5.29922 10.1 4.69922 10.1 4.39922 9.79998C4.29922 9.59998 4.19922 9.39997 4.19922 9.19998Z" fill="#2E384D"/>
<path d="M0 9.19998C0 8.99998 0.1 8.79998 0.2 8.59998L3.8 4.99998L0.2 1.39998C-0.1 0.999976 0 0.499976 0.3 0.199976C0.6 -0.100024 1.1 -0.100024 1.4 0.199976L5.6 4.39998C5.9 4.69998 5.9 5.29998 5.6 5.59998L1.4 9.79998C1.1 10.1 0.5 10.1 0.2 9.79998C0.1 9.59998 0 9.39997 0 9.19998Z" fill="#2E384D"/>
</svg>
