<svg width="30" height="26" viewBox="0 0 30 26" fill="none" xmlns="http://www.w3.org/2000/svg">
<path d="M9.17578 6.30039C9.17578 3.90039 10.8758 2.00039 13.0758 1.50039C12.7758 1.40039 12.3758 1.40039 12.0758 1.40039C9.37578 1.40039 7.17578 3.60039 7.17578 6.30039C7.17578 9.00039 9.37578 11.2004 12.0758 11.2004C12.3758 11.2004 12.7758 11.2004 13.0758 11.1004C10.7758 10.6004 9.17578 8.60039 9.17578 6.30039Z" fill="#2E384D" fill-opacity="0.2"/>
<path d="M17.8742 18.3996C17.8742 15.6996 19.8742 13.3996 22.5742 13.0996C19.6742 12.6996 16.9742 14.7996 16.5742 17.7996C16.1742 20.6996 18.2742 23.3996 21.2742 23.7996C21.6742 23.8996 22.1742 23.8996 22.5742 23.7996C19.9742 23.3996 17.8742 21.1996 17.8742 18.3996Z" fill="#2E384D" fill-opacity="0.2"/>
<path d="M18.575 12.8C17.775 12.3 16.875 11.8 15.875 11.5L15.675 11.4L15.775 11.3C17.375 10.1 18.275 8.3 18.275 6.3C18.275 2.8 15.475 0 11.975 0C8.475 0 5.775 2.8 5.775 6.3C5.775 8.3 6.675 10.1 8.275 11.3L8.375 11.5L8.175 11.6C6.775 12.1 5.475 12.8 4.275 13.7C2.175 15.5 0.675 17.9 0.075 20.6C-0.125 21.4 0.075 22.3 0.675 22.9C1.175 23.5 1.975 23.9 2.775 23.9H6.875C7.375 23.9 7.675 23.5 7.675 23.1C7.675 22.6 7.275 22.3 6.875 22.3H2.875C2.375 22.3 2.175 22 2.075 21.9C1.875 21.6 1.775 21.3 1.875 21C2.775 16.6 6.575 13.2 11.075 12.7H11.275L9.475 21C9.375 21.3 9.475 21.6 9.675 21.8L11.575 23.7C11.775 23.9 11.975 23.9 12.175 23.9C12.375 23.9 12.575 23.8 12.775 23.7L14.675 21.8C14.875 21.6 14.975 21.3 14.875 21L13.075 12.7H13.175C14.675 12.8 16.075 13.3 17.275 14C17.575 13.5 18.075 13.1 18.575 12.8ZM12.975 20.9L11.975 21.8L10.975 20.8L11.875 16.9H12.075L12.975 20.9ZM12.375 10.9H12.175H11.975C9.475 10.8 7.575 8.7 7.575 6.3C7.575 3.7 9.675 1.7 12.175 1.7C14.675 1.7 16.775 3.8 16.775 6.3C16.775 8.8 14.775 10.8 12.375 10.9Z" fill="#2E384D"/>
<path d="M29.2757 24.5996L27.1757 22.4996C28.1757 21.1996 28.6757 19.5996 28.5757 17.8996C28.4757 16.0996 27.6757 14.4996 26.2757 13.3996C24.9757 12.1996 23.2757 11.6996 21.4757 11.7996C20.3757 11.8996 19.3757 12.1996 18.5757 12.6996C18.0757 12.9996 17.5757 13.3996 17.1757 13.7996C17.0757 13.8996 16.9757 13.9996 16.9757 13.9996C15.7757 15.2996 15.2757 16.9996 15.3757 18.7996C15.4757 20.5996 16.2757 22.1996 17.6757 23.2996C20.0757 25.3996 23.5757 25.4996 26.0757 23.4996L28.1757 25.5996C28.2757 25.7996 28.4757 25.7996 28.7757 25.7996C28.9757 25.7996 29.1757 25.6996 29.3757 25.5996C29.4757 25.3996 29.5757 25.1996 29.5757 24.9996C29.5757 24.9996 29.4757 24.7996 29.2757 24.5996ZM21.9757 23.4996C19.1757 23.4996 16.9757 21.1996 16.9757 18.4996C16.9757 17.0996 17.5757 15.7996 18.5757 14.7996C18.9757 14.3996 19.4757 14.0996 19.9757 13.8996C20.5757 13.5996 21.2757 13.4996 21.9757 13.4996C24.7757 13.4996 26.9757 15.7996 26.9757 18.4996C26.9757 21.1996 24.7757 23.4996 21.9757 23.4996Z" fill="#2E384D"/>
</svg>
