<svg width="28" height="26" viewBox="0 0 28 26" fill="none" xmlns="http://www.w3.org/2000/svg">
<path d="M3.50039 23.1004V2.90039C3.50039 1.80039 4.40039 0.900391 5.50039 0.900391H2.90039C1.80039 0.900391 0.900391 1.80039 0.900391 2.90039V23.1004C0.900391 24.2004 1.80039 25.1004 2.90039 25.1004H5.60039C4.40039 25.2004 3.50039 24.2004 3.50039 23.1004Z" fill="#2E384D" fill-opacity="0.2"/>
<path d="M24.5 26H2.9C1.3 26 0 24.7 0 23.1V2.9C0 1.3 1.3 0 2.9 0H24.5C26.1 0 27.4 1.3 27.4 2.9V23.1C27.4 24.7 26.1 26 24.5 26ZM2.9 1.7C2.2 1.7 1.7 2.2 1.7 2.9V23.1C1.7 23.8 2.2 24.3 2.9 24.3H24.5C25.2 24.3 25.7 23.8 25.7 23.1V2.9C25.7 2.2 25.2 1.7 24.5 1.7H2.9Z" fill="#2E384D"/>
<path d="M7.20078 20.0996C7.20078 20.4996 6.80078 20.8996 6.40078 20.8996C6.00078 20.8996 5.60078 20.4996 5.60078 20.0996V19.1996C5.60078 18.7996 6.00078 18.3996 6.40078 18.3996C6.80078 18.3996 7.20078 18.7996 7.20078 19.1996V20.0996ZM12.1008 20.0996C12.1008 20.4996 11.7008 20.8996 11.3008 20.8996C10.9008 20.8996 10.5008 20.4996 10.5008 20.0996V16.6996C10.5008 16.2996 10.9008 15.8996 11.3008 15.8996C11.7008 15.8996 12.1008 16.2996 12.1008 16.6996V20.0996ZM17.0008 20.0996C17.0008 20.4996 16.6008 20.8996 16.2008 20.8996C15.8008 20.8996 15.4008 20.4996 15.4008 20.0996V17.5996C15.4008 17.1996 15.8008 16.7996 16.2008 16.7996C16.6008 16.7996 17.0008 17.1996 17.0008 17.5996V20.0996ZM20.0008 8.39961L19.9008 6.69961L13.5008 12.9996C13.4008 13.0996 13.2008 13.1996 13.0008 13.1996L8.30078 13.2996L4.80078 16.5996C4.50078 16.8996 4.10078 16.7996 3.90078 16.5996C3.60078 16.2996 3.60078 15.8996 3.90078 15.6996L7.50078 12.1996C7.70078 11.9996 7.80078 11.8996 8.00078 11.8996L12.7008 11.7996L18.6008 5.99961L17.1008 6.09961C16.7008 6.09961 16.4008 5.79961 16.4008 5.49961C16.4008 5.09961 16.7008 4.79961 17.0008 4.79961L20.3008 4.59961C20.4008 4.59961 20.6008 4.69961 20.7008 4.79961C21.0008 4.99961 21.1008 5.29961 21.1008 5.49961L21.3008 8.39961C21.3008 8.79961 21.0008 9.09961 20.7008 9.09961C20.3008 8.99961 20.0008 8.79961 20.0008 8.39961ZM21.9008 20.0996C21.9008 20.4996 21.5008 20.8996 21.1008 20.8996C20.7008 20.8996 20.3008 20.4996 20.3008 20.0996V13.5996C20.3008 13.1996 20.7008 12.7996 21.1008 12.7996C21.5008 12.7996 21.9008 13.1996 21.9008 13.5996V20.0996Z" fill="#2E384D"/>
<path d="M21.3008 5.49961C21.3008 5.19961 21.2008 4.99961 21.0008 4.79961C20.9008 4.69961 20.7008 4.59961 20.5008 4.59961L17.2008 4.79961C17.0008 4.79961 16.8008 4.89961 16.7008 5.09961C16.6008 5.29961 16.5008 5.49961 16.5008 5.69961C16.5008 5.89961 16.6008 6.09961 16.8008 6.19961C17.0008 6.29961 17.2008 6.39961 17.4008 6.39961L18.5008 6.29961L12.8008 11.7996H8.00078C7.80078 11.7996 7.60078 11.8996 7.50078 11.9996L3.90078 15.4996C3.60078 15.7996 3.60078 16.2996 3.90078 16.5996C4.10078 16.7996 4.30078 16.7996 4.50078 16.7996C4.70078 16.7996 4.90078 16.6996 5.00078 16.5996L8.40078 13.2996L13.1008 13.1996C13.3008 13.1996 13.5008 13.0996 13.6008 12.9996L19.8008 6.99961L19.9008 8.39961C19.9008 8.79961 20.3008 9.09961 20.7008 9.09961C20.9008 9.09961 21.1008 8.99961 21.2008 8.79961C21.3008 8.59961 21.4008 8.39961 21.4008 8.19961L21.3008 5.49961Z" fill="#2E384D"/>
<path d="M11.3 16C10.9 16 10.5 16.4 10.5 16.8V20.2C10.5 20.6 10.9 21 11.3 21C11.7 21 12.1 20.6 12.1 20.2V16.8C12.1 16.3 11.7 16 11.3 16Z" fill="#2E384D"/>
<path d="M6.39961 18.4004C5.99961 18.4004 5.59961 18.8004 5.59961 19.2004V20.1004C5.59961 20.5004 5.99961 20.9004 6.39961 20.9004C6.79961 20.9004 7.19961 20.5004 7.19961 20.1004V19.2004C7.19961 18.8004 6.89961 18.4004 6.39961 18.4004Z" fill="#2E384D"/>
<path d="M16.2004 16.8008C15.8004 16.8008 15.4004 17.2008 15.4004 17.6008V20.1008C15.4004 20.5008 15.8004 20.9008 16.2004 20.9008C16.6004 20.9008 17.0004 20.5008 17.0004 20.1008V17.6008C17.0004 17.2008 16.6004 16.8008 16.2004 16.8008Z" fill="#2E384D"/>
<path d="M21.1008 12.8008C20.7008 12.8008 20.3008 13.2008 20.3008 13.6008V20.1008C20.3008 20.5008 20.7008 20.9008 21.1008 20.9008C21.5008 20.9008 21.9008 20.5008 21.9008 20.1008V13.6008C21.9008 13.2008 21.5008 12.8008 21.1008 12.8008Z" fill="#2E384D"/>
</svg>
