<svg width="20" height="19" viewBox="0 0 20 19" fill="none" xmlns="http://www.w3.org/2000/svg">
<path d="M19.0558 8.11865C18.5408 8.11865 18.1116 8.55047 18.1116 9.06865V16.4959C18.1116 16.8414 17.8541 17.0141 17.5107 17.0141H2.48927C2.14592 17.0141 1.97425 16.755 1.97425 16.4959V9.06865C1.97425 8.55047 1.54506 8.11865 1.03004 8.11865C0.515022 8.11865 0 8.55047 0 9.15502V16.5823C0 17.8777 1.11588 19.0005 2.48927 19.0005H17.5966C18.97 19.0005 20.0858 17.8777 20.0858 16.4959V9.06865C20 8.55047 19.5708 8.11865 19.0558 8.11865Z" fill="#721B65"/>
<path d="M9.3565 14.5091C9.52817 14.6818 9.78568 14.7682 10.0432 14.7682C10.3007 14.7682 10.5582 14.6818 10.7299 14.5091L14.5067 10.7091C14.6784 10.5364 14.7642 10.2773 14.7642 10.0182C14.7642 9.75909 14.6784 9.5 14.5067 9.32727C14.1634 8.98182 13.5625 8.98182 13.2192 9.32727L11.0732 11.4864V0.95C11.0732 0.431818 10.6441 0 10.129 0C9.61401 0 9.18483 0.431818 9.18483 0.95V11.4864L6.86723 9.32727C6.52388 8.98182 5.92302 8.98182 5.49384 9.32727C5.15049 9.67273 5.15049 10.2773 5.49384 10.6227L9.3565 14.5091Z" fill="#721B65"/>
</svg>

