<svg width="64" height="64" viewBox="0 0 64 64" fill="none" xmlns="http://www.w3.org/2000/svg">
<g opacity="0.9">
<path d="M22.8571 13.7143C22.8571 16.239 20.8104 18.2857 18.2857 18.2857C15.761 18.2857 13.7143 16.239 13.7143 13.7143C13.7143 11.1896 15.761 9.14286 18.2857 9.14286C20.8104 9.14286 22.8571 11.1896 22.8571 13.7143Z" fill="#B6B9C1"/>
<path fill-rule="evenodd" clip-rule="evenodd" d="M0 54.8571C0 59.6019 3.61429 63.5025 8.23989 63.956L8.19608 63.9998H9.07969L9.14286 64H54.8571C59.9066 64 64 59.9066 64 54.8571V9.14286C64 4.0934 59.9066 0 54.8571 0H9.14286C4.0934 0 0 4.0934 0 9.14286V54.8571ZM9.14286 4.57143H54.8571C57.3819 4.57143 59.4286 6.61813 59.4286 9.14286V31.053L50.2857 21.9102L12.7673 59.4286H9.14286C8.12192 59.4286 7.17916 59.0939 6.41828 58.5283L30.6611 34.2855L20.5714 24.1959L4.57143 40.1959V9.14286C4.57143 6.61813 6.61813 4.57143 9.14286 4.57143Z" fill="#B6B9C1"/>
</g>
</svg>
