<svg width="26" height="26" viewBox="0 0 26 26" fill="none" xmlns="http://www.w3.org/2000/svg">
<path d="M26 13C26 20.15 20.15 26 13 26C5.85 26 0 20.15 0 13C0 5.85 5.85 0 13 0C20.15 0 26 5.85 26 13Z" fill="#00CC83"/>
<path d="M18.0699 9.49001C18.3299 9.75001 18.3299 10.27 18.0699 10.53L12.0899 16.51C11.9599 16.64 11.6999 16.77 11.5699 16.77C11.4399 16.77 11.1799 16.64 11.0499 16.51L7.92986 13.39C7.66986 13.13 7.66986 12.61 7.92986 12.35C8.18986 12.09 8.70986 12.09 8.96986 12.35L11.5699 14.95L17.0299 9.49001C17.2899 9.23001 17.8099 9.23001 18.0699 9.49001Z" fill="white"/>
</svg>
