<svg width="838" height="560" viewBox="0 0 838 560" fill="none" xmlns="http://www.w3.org/2000/svg">
<path opacity="0.2" d="M478.185 560C608.916 560 714.895 557.07 714.895 553.456C714.895 549.842 608.916 546.912 478.185 546.912C347.453 546.912 241.475 549.842 241.475 553.456C241.475 557.07 347.453 560 478.185 560Z" fill="#0B2252"/>
<path d="M384.511 97.591C381.641 94.7207 377.623 92.8836 373.203 92.8836H357.304C354.95 81.9764 345.25 73.8247 333.656 73.8247C322.061 73.8247 312.361 81.9764 310.008 92.8836H305.76C301.341 92.8836 297.323 94.6632 294.453 97.591C291.583 100.461 289.746 104.48 289.746 108.9C289.746 113.78 291.927 118.142 295.371 121.07C298.184 123.424 301.8 124.859 305.703 124.859H373.203C377.623 124.859 381.641 123.079 384.511 120.152C387.38 117.281 389.217 113.263 389.217 108.843C389.217 104.48 387.438 100.519 384.511 97.591Z" fill="#E9F3FC"/>
<path d="M638.153 66.821C641.023 63.9506 645.041 62.1136 649.461 62.1136H665.36C667.713 51.2064 677.414 43.0547 689.008 43.0547C700.603 43.0547 710.303 51.2064 712.656 62.1136H716.904C721.323 62.1136 725.341 63.8932 728.211 66.821C731.081 69.7487 732.918 73.7097 732.918 78.13C732.918 83.0096 730.737 87.3725 727.293 90.3002C724.48 92.6539 720.864 94.089 716.961 94.089H649.461C645.041 94.089 641.023 92.3094 638.153 89.3817C635.284 86.5114 633.447 82.4929 633.447 78.0726C633.504 73.7097 635.284 69.6913 638.153 66.821Z" fill="#E9F3FC"/>
<path d="M837.956 314.3V404.83C755.647 390.594 645.041 377.562 515.666 377.562C230.052 377.562 6.08441 441.054 6.08441 441.054C-10.5611 405.519 7.86376 303.164 51.2568 279.168C94.5924 255.229 132.246 303.106 166.512 285.999C200.722 268.892 168.693 117.569 221.27 107.809C273.847 98.0504 306.908 195.412 371.194 195.412C435.423 195.412 425.723 98.0504 500.799 94.1467C575.934 90.2431 573.925 193.804 619.097 193.804C664.269 193.804 645.959 152.299 716.789 151.037C787.618 149.831 807.191 297.595 837.497 313.956C837.612 314.128 837.784 314.243 837.956 314.3Z" fill="url(#paint0_linear_6723_43187)"/>
<path d="M206.863 413.154C198.655 412.925 189.701 409.997 189.874 396.793C190.046 383.59 199.689 381.523 200.664 371.592C201.64 361.718 201.698 352.475 206.863 352.361C212.029 352.246 208.758 356.494 211.168 361.086C213.579 365.679 218.228 371.534 217.31 380.145C216.392 388.699 222.533 392.029 222.189 399.032C221.902 406.036 217.539 413.441 206.863 413.154Z" fill="#DAEEFF"/>
<path d="M209.963 379.341C209.791 379.227 209.619 379.227 209.446 379.341C209.332 379.456 209.332 379.686 209.446 379.858C209.446 379.858 211.57 382.04 211.398 389.33C211.226 395.645 207.954 405.461 206.921 408.389C205.945 406.093 204.682 403.567 203.649 401.386C202.96 399.95 202.329 398.687 201.985 397.884C200.779 395.013 202.616 388.986 202.616 388.928C202.673 388.756 202.559 388.527 202.386 388.469C202.214 388.412 201.985 388.527 201.927 388.699C201.87 388.928 199.976 395.071 201.296 398.171C201.64 398.974 202.272 400.237 202.96 401.673C204.912 405.576 207.782 411.489 207.782 413.728C207.724 416.885 207.323 421.478 207.323 421.535C207.323 421.707 207.437 421.88 207.667 421.937C207.667 421.937 207.667 421.937 207.724 421.937C207.897 421.937 208.069 421.822 208.069 421.593C208.069 421.535 208.471 416.943 208.528 413.785C208.528 412.752 208.069 411.145 207.323 409.365C207.782 408.045 211.914 396.506 212.144 389.33C212.316 381.695 210.02 379.456 209.963 379.341Z" fill="#6AC1FF"/>
<path d="M806.904 369.296C799.901 369.066 792.267 366.598 792.439 355.346C792.612 344.095 800.82 342.315 801.623 333.876C802.484 325.437 802.484 317.573 806.904 317.515C811.323 317.458 808.511 321.017 810.577 324.978C812.644 328.939 816.604 333.876 815.858 341.224C815.112 348.515 820.278 351.328 819.991 357.298C819.704 363.211 815.973 369.526 806.904 369.296Z" fill="#DAEEFF"/>
<path d="M809.486 340.478C809.372 340.363 809.199 340.363 809.027 340.478C808.912 340.593 808.912 340.765 809.027 340.937C809.027 340.937 810.864 342.774 810.692 349.031C810.519 354.428 807.764 362.751 806.846 365.277C806.042 363.326 804.952 361.144 804.034 359.307C803.402 358.102 802.886 357.011 802.599 356.322C801.565 353.853 803.115 348.744 803.173 348.687C803.23 348.515 803.115 348.342 802.943 348.285C802.771 348.228 802.599 348.342 802.541 348.515C802.484 348.744 800.877 353.911 802.025 356.609C802.312 357.298 802.828 358.389 803.46 359.594C805.124 362.924 807.592 367.918 807.535 369.87C807.477 372.568 807.133 376.472 807.133 376.529C807.133 376.701 807.248 376.873 807.42 376.873C807.592 376.873 807.707 376.759 807.707 376.586C807.707 376.529 808.051 372.625 808.109 369.927C808.109 369.066 807.707 367.688 807.076 366.138C807.477 365.048 810.979 355.174 811.208 349.031C811.495 342.43 809.544 340.535 809.486 340.478Z" fill="#6AC1FF"/>
<path d="M302.604 353.394C297.782 353.222 292.559 351.557 292.674 343.807C292.789 336.058 298.414 334.852 298.988 329.054C299.562 323.256 299.562 317.86 302.604 317.802C305.646 317.745 303.694 320.213 305.129 322.911C306.564 325.61 309.262 329.054 308.745 334.048C308.229 339.1 311.787 340.994 311.615 345.128C311.443 349.204 308.86 353.566 302.604 353.394Z" fill="#DAEEFF"/>
<path d="M304.383 333.589C304.326 333.532 304.153 333.532 304.096 333.589C304.039 333.646 304.039 333.819 304.096 333.876C304.096 333.876 305.359 335.139 305.244 339.444C305.129 343.176 303.235 348.916 302.604 350.639C302.03 349.261 301.283 347.826 300.652 346.563C300.25 345.702 299.848 344.955 299.676 344.496C298.987 342.831 300.078 339.272 300.078 339.215C300.135 339.1 300.078 338.985 299.963 338.928C299.848 338.87 299.734 338.928 299.676 339.043C299.619 339.215 298.528 342.774 299.332 344.611C299.561 345.07 299.906 345.817 300.308 346.678C301.456 348.974 303.178 352.418 303.12 353.739C303.063 355.576 302.833 358.274 302.833 358.331C302.833 358.446 302.891 358.561 303.005 358.561C303.12 358.561 303.178 358.503 303.235 358.389C303.235 358.389 303.465 355.69 303.522 353.796C303.522 353.222 303.235 352.246 302.833 351.213C303.12 350.466 305.531 343.692 305.646 339.444C305.818 334.967 304.44 333.646 304.383 333.589Z" fill="#6AC1FF"/>
<path d="M721.151 440.25C712.713 440.02 703.53 437.035 703.759 423.487C703.931 409.94 713.804 407.815 714.78 397.655C715.755 387.494 715.813 378.079 721.151 377.964C726.431 377.849 723.102 382.212 725.57 386.92C728.039 391.627 732.803 397.655 731.884 406.438C730.966 415.221 737.222 418.608 736.878 425.784C736.534 432.959 732.056 440.595 721.151 440.25Z" fill="#DAEEFF"/>
<path d="M724.25 405.634C724.078 405.519 723.848 405.519 723.734 405.634C723.619 405.806 723.619 406.036 723.734 406.151C723.734 406.151 725.915 408.39 725.685 415.852C725.513 422.339 722.126 432.385 721.093 435.371C720.118 433.017 718.797 430.376 717.707 428.195C716.961 426.702 716.329 425.439 715.985 424.636C714.722 421.708 716.616 415.508 716.674 415.45C716.731 415.278 716.616 415.049 716.444 414.991C716.272 414.934 716.042 415.049 715.985 415.221C715.927 415.508 713.976 421.765 715.353 424.923C715.698 425.726 716.329 427.047 717.075 428.539C719.027 432.558 722.069 438.585 722.012 440.939C721.954 444.211 721.552 448.861 721.552 448.918C721.552 449.148 721.667 449.32 721.897 449.32C721.897 449.32 721.897 449.32 721.954 449.32C722.126 449.32 722.299 449.148 722.299 448.976C722.299 448.918 722.7 444.211 722.758 440.939C722.758 439.906 722.299 438.241 721.552 436.404C722.012 435.084 726.259 423.258 726.489 415.852C726.718 407.988 724.365 405.749 724.25 405.634Z" fill="#6AC1FF"/>
<path d="M693.428 533.823L695.552 544.558H659.505L657.209 533.823H693.428Z" fill="#FFAA9D"/>
<path d="M695.552 544.558L697.274 552.939C697.388 553.456 696.987 553.973 696.47 553.973H656.062C655.545 553.973 655.258 553.456 655.488 552.997L659.563 544.558H695.552Z" fill="#0B2252"/>
<path d="M638.727 533.823L640.851 544.558H604.805L602.509 533.823H638.727Z" fill="#FFAA9D"/>
<path d="M640.851 544.558L642.573 552.939C642.688 553.456 642.286 553.973 641.77 553.973H601.419C600.902 553.973 600.615 553.456 600.845 552.997L604.92 544.558H640.851Z" fill="#0B2252"/>
<path d="M696.929 366.311C696.929 366.311 686.253 444.383 689.639 479.401C692.968 514.476 696.699 537.956 696.699 537.956H655.66C655.66 537.956 644.869 493.925 644.122 467.862C644.122 467.862 637.407 502.192 641.54 537.956H601.648C601.648 537.956 590.685 412.867 613.816 365.507L696.929 366.311Z" fill="url(#paint1_linear_6723_43187)"/>
<path d="M644.582 245.47C644.582 245.47 683.268 251.613 697.561 285.081C711.853 318.549 705.768 330.202 700.545 335.541C695.265 340.88 684.646 345.817 684.646 345.817L644.582 245.47Z" fill="url(#paint2_linear_6723_43187)"/>
<path d="M605.896 381.294C610.086 386.862 698.536 383.303 700.545 369.066C702.554 354.829 685.105 265.447 666.566 252.875C649.174 241.165 637.12 243.403 625.928 246.101C614.735 248.742 602.337 270.844 606.929 290.017C611.521 309.191 615.711 310.512 615.194 329.628C614.448 352.877 601.591 375.553 605.896 381.294Z" fill="url(#paint3_linear_6723_43187)"/>
<path d="M610.43 221.244L608.65 234.046L610.544 234.218C610.544 234.218 610.774 245.011 618.465 244.264C620.647 244.035 623.631 242.6 624.378 243.059C625.239 243.633 625.296 246.561 625.411 247.422C625.812 250.751 637.464 248.857 636.029 245.355C634.709 242.026 632.643 237.433 633.332 236.342C635.742 232.439 637.579 222.278 627.649 217.57C619.786 213.724 611.061 216.882 610.43 221.244Z" fill="#FFAA9D"/>
<path d="M636.03 245.298C634.709 241.968 632.643 237.376 633.332 236.285C633.332 236.285 628.166 242.428 624.033 242.944C624.148 242.944 624.263 242.944 624.378 243.002C625.239 243.576 625.296 246.504 625.411 247.365C625.813 250.694 637.465 248.857 636.03 245.298Z" fill="#FF9F91"/>
<path d="M626.961 229.683C631.897 229.454 627.535 239.844 632.93 240.131C638.268 240.418 643.434 229.282 640.621 219.867C637.809 210.452 630.347 209.993 623.115 210.337C615.883 210.682 606.814 212.806 606.182 218.145C604.575 231.004 621.163 222.106 621.68 226.124C622.082 229.224 622.197 238.007 619.097 237.835C615.997 237.663 613.128 234.678 610.602 235.022C609.167 235.252 603.14 251.613 613.242 253.45C623.23 255.229 626.846 246.733 625.64 239.213C624.435 232.037 624.55 229.798 626.961 229.683Z" fill="#14336A"/>
<path d="M546.374 345.587C546.374 345.587 529.9 338.411 524.62 334.278C519.339 330.087 517.101 328.193 518.134 326.987C519.167 325.782 532.77 329.57 533.861 328.48C534.951 327.332 533.517 325.15 534.779 323.887C535.985 322.624 545.455 329.915 547.35 328.996C549.244 328.078 548.44 343.75 546.374 345.587Z" fill="#FFAA9D"/>
<path d="M545.455 324.806L543.848 346.104C543.848 346.104 585.691 366.598 620.762 341.913C655.832 317.228 671.789 276.986 655.086 255.918C641.827 239.27 621.91 274.174 615.079 287.377C608.306 300.523 594.014 324.06 545.455 324.806Z" fill="url(#paint4_linear_6723_43187)"/>
<path d="M132.762 6.68317e-05C132.762 6.68317e-05 246.238 51.1492 244.459 71.7007C242.622 92.1948 212.144 107.235 244.459 140.072C276.774 172.908 323.726 192.025 326.94 231.693C330.155 271.36 319.651 308.732 350.646 330.145C381.641 351.557 389.39 403.969 389.39 403.969H429.052C429.052 403.969 445.582 357.298 431.692 338.296C417.802 319.237 385.027 283.473 402.419 244.666C419.811 205.917 456.086 230.257 430.774 177.042C405.461 123.826 496.954 145.985 507.458 89.6116C517.961 33.2958 466.131 43.1123 478.185 -0.114746H132.762V6.68317e-05Z" fill="url(#paint5_linear_6723_43187)"/>
<path d="M478.931 433.993L496.15 467.518C498.389 471.881 504.416 472.513 507.458 468.666L524.39 447.369C527.26 443.752 527.777 438.758 525.653 434.624L501.087 386.805C497.987 380.835 489.607 380.49 486.048 386.173C484.441 388.814 484.269 392.086 485.704 394.784L492.706 408.16L479.39 426.989C478.012 429.056 477.783 431.754 478.931 433.993Z" fill="white"/>
<path d="M502.235 475.326C501.89 475.326 501.488 475.326 501.144 475.268C497.47 474.924 494.199 472.685 492.534 469.413L475.315 435.887C473.478 432.271 473.765 427.965 476.118 424.636L488 407.873L482.145 396.679C480.021 392.66 480.251 387.781 482.604 383.992C485.072 380.031 489.32 377.792 493.969 377.964C498.618 378.137 502.694 380.777 504.817 384.911L529.384 432.73C532.254 438.299 531.565 445.072 527.662 449.952L510.729 471.25C508.663 473.833 505.506 475.326 502.235 475.326ZM482.604 432.156L499.824 465.681C500.398 466.83 501.488 467.059 501.948 467.117C502.407 467.174 503.497 467.174 504.301 466.141L521.233 444.843C523.127 442.489 523.414 439.217 522.037 436.519L497.47 388.699C496.38 386.575 494.428 386.288 493.625 386.231C492.821 386.173 490.812 386.346 489.55 388.355C488.689 389.733 488.631 391.455 489.377 392.89L496.38 406.266C497.126 407.643 497.011 409.308 496.093 410.571L482.834 429.401C482.26 430.204 482.145 431.238 482.604 432.156Z" fill="#E0E9F3"/>
<path d="M403.854 464.763L422.393 497.542C424.804 501.847 421.992 507.186 417.113 507.645L390.021 510.114C385.371 510.516 380.952 508.22 378.656 504.144L352.195 457.357C348.866 451.502 353.228 444.269 359.944 444.441C363.044 444.498 365.856 446.221 367.348 448.919L374.695 462.122L397.769 461.318C400.238 461.261 402.591 462.581 403.854 464.763Z" fill="white"/>
<path d="M388.93 514.305C383.248 514.305 377.91 511.262 375.04 506.21L348.579 459.424C346.283 455.348 346.341 450.583 348.752 446.565C351.162 442.546 355.352 440.25 360.002 440.365C364.536 440.48 368.669 443.006 370.907 446.967L376.991 457.989L397.54 457.242C401.615 457.07 405.404 459.194 407.413 462.753L425.952 495.533C427.789 498.747 427.846 502.651 426.124 505.981C424.402 509.253 421.188 511.434 417.457 511.779L390.365 514.247C389.906 514.305 389.447 514.305 388.93 514.305ZM359.715 448.574C357.419 448.574 356.213 450.124 355.812 450.813C355.41 451.502 354.549 453.339 355.754 455.405L382.215 502.192C383.707 504.832 386.634 506.325 389.619 506.038L416.711 503.57C418.031 503.455 418.605 502.536 418.835 502.134C419.064 501.733 419.466 500.699 418.777 499.608L400.238 466.829C399.721 465.968 398.86 465.452 397.827 465.452L374.753 466.255C373.203 466.313 371.768 465.509 371.022 464.131L363.675 450.928C362.872 449.493 361.379 448.632 359.772 448.574C359.772 448.574 359.772 448.574 359.715 448.574Z" fill="#E0E9F3"/>
<path d="M425.723 510.631H525.423L455.742 374.864C452.528 368.607 445.64 365.048 438.637 366.139C430.889 367.287 419.868 370.329 406.379 377.735C393.981 384.566 385.659 390.881 380.321 395.76C374.868 400.755 373.433 408.792 376.819 415.393L425.723 510.631Z" fill="#FF9500"/>
<path d="M437.547 550.011H554.065L472.617 391.397C468.829 384.049 460.793 379.973 452.642 381.179C443.631 382.556 430.716 386.058 414.932 394.727C400.467 402.706 390.767 410.112 384.453 415.795C378.082 421.65 376.417 431.008 380.378 438.7L437.547 550.011Z" fill="white"/>
<path d="M554.065 554.145H437.547C435.997 554.145 434.562 553.283 433.873 551.906L376.705 440.595C371.883 431.237 373.95 419.813 381.698 412.752C389.906 405.29 400.41 397.999 412.923 391.11C426.411 383.705 439.556 378.997 452.011 377.103C461.941 375.61 471.641 380.605 476.233 389.503L557.681 548.117C558.312 549.38 558.255 550.93 557.509 552.135C556.82 553.398 555.5 554.145 554.065 554.145ZM440.072 545.878H547.349L468.943 393.234C465.959 387.494 459.645 384.221 453.274 385.197C445.41 386.403 432.725 389.618 416.941 398.229C405.002 404.773 395.015 411.662 387.266 418.723C382.272 423.258 380.952 430.663 384.052 436.748L440.072 545.878Z" fill="#E0E9F3"/>
<path d="M449.882 494.305C465.246 491.811 475.68 477.333 473.186 461.967C470.693 446.601 456.217 436.165 440.853 438.659C425.489 441.153 415.055 455.632 417.549 470.998C420.042 486.364 434.518 496.799 449.882 494.305Z" fill="#FF9500"/>
<path opacity="0.72" d="M445.353 487.898C457.177 487.898 466.762 478.311 466.762 466.485C466.762 454.659 457.177 445.072 445.353 445.072C433.529 445.072 423.943 454.659 423.943 466.485C423.943 478.311 433.529 487.898 445.353 487.898Z" fill="url(#paint6_linear_6723_43187)"/>
<path d="M580.927 554.144H389.848C387.553 554.144 385.716 552.307 385.716 550.011C385.716 547.715 387.553 545.878 389.848 545.878H580.927C583.223 545.878 585.06 547.715 585.06 550.011C585.06 552.25 583.223 554.144 580.927 554.144Z" fill="#E0E9F3"/>
<path d="M312.074 319.754C312.074 325.15 307.712 329.571 302.259 329.571C296.864 329.571 292.444 325.208 292.444 319.754C292.444 314.358 296.806 309.938 302.259 309.938C307.654 309.938 312.074 314.3 312.074 319.754Z" fill="#721B65"/>
<path d="M466.762 208.443C466.762 212.461 463.49 215.676 459.53 215.676C455.512 215.676 452.298 212.404 452.298 208.443C452.298 204.424 455.57 201.209 459.53 201.209C463.49 201.209 466.762 204.424 466.762 208.443Z" fill="#721B65"/>
<path d="M244.23 154.079C244.23 156.95 241.934 159.246 239.064 159.246C236.194 159.246 233.898 156.95 233.898 154.079C233.898 151.209 236.194 148.913 239.064 148.913C241.876 148.913 244.23 151.209 244.23 154.079Z" fill="#721B65"/>
<path d="M261.392 437.609C256.57 438.872 238.432 438.126 241.876 429.17C245.722 419.182 256.054 427.908 260.473 433.419C258.809 424.578 258.579 415.623 258.579 410.8C255.307 406.897 248.42 381.925 262.023 383.188C279.816 384.795 264.032 408.389 259.957 411.087C259.957 416.828 260.358 428.252 262.941 438.126C263.515 431.869 269.772 413.958 278.094 420.272C290.148 429.4 267.074 440.422 263.573 440.25C264.663 443.867 266.098 447.196 267.935 449.837C269.255 451.731 270.747 453.97 272.297 456.381C272.297 456.439 272.355 456.439 272.355 456.496C273.158 449.894 279.3 432.902 287.45 439.044C298.7 447.598 279.357 457.759 273.847 458.907C277.234 464.418 280.735 470.733 283.432 476.818C283.834 470.848 295.544 458.62 300.193 465.624C302.776 469.527 289.058 482.214 284.523 479.344C287.106 485.658 288.656 491.571 288.139 495.877C287.967 497.484 287.623 499.321 287.336 501.388C290.55 497.829 302.144 485.945 305.588 495.131C308.458 502.766 298.873 507.186 294.855 507.186C291.698 507.186 288.369 504.201 287.049 502.938C286.876 504.029 286.647 505.177 286.475 506.325C284.867 515.739 282.916 527.049 283.49 533.823C286.245 528.484 298.471 506.382 305.588 520.619C309.262 527.91 298.873 534.052 294.855 535.372C291.583 536.463 285.671 535.487 283.662 535.085C283.777 535.832 283.892 536.578 284.121 537.152C286.762 545.017 292.042 552.996 292.1 553.054C292.329 553.341 292.214 553.8 291.927 553.972C291.813 554.03 291.698 554.087 291.583 554.087C291.353 554.087 291.181 553.972 291.009 553.8C290.952 553.743 287.049 547.772 284.236 541.056C281.079 540.654 268.968 538.989 265.467 536.693C261.449 533.995 254.274 525.212 260.129 521.939C269.198 516.888 278.726 530.263 282.859 537.267C281.309 532.043 282.686 521.652 284.293 511.893C281.022 512.869 270.518 510.975 266.844 508.506C262.827 505.808 255.881 498.862 260.129 495.073C270.805 485.601 282.055 505.693 284.523 510.458C284.753 508.965 285.04 507.416 285.269 505.98C285.958 502.077 286.589 498.403 286.934 495.647C287.45 491.629 285.958 485.888 283.318 479.459C281.194 480.147 274.019 482.099 266.156 481.009C256.8 479.688 252.036 472.34 255.422 468.953C261.219 463.155 278.439 475.21 282.859 478.483C280.161 472.168 276.373 465.164 272.182 458.563C266.73 459.826 244.918 459.366 247.903 450.698C250.83 442.03 262.023 447.885 268.566 452.937C268.05 452.133 267.476 451.329 266.959 450.583C264.376 447.081 262.654 442.489 261.392 437.609Z" fill="url(#paint7_linear_6723_43187)"/>
<path d="M300.25 520.619C311.5 516.141 314.255 533.363 314.829 538.989C317.297 530.78 318.388 520.734 317.24 512.582C315.518 512.525 308.917 512.238 304.268 509.884C298.93 507.186 295.601 496.451 300.25 495.131C308.056 492.892 314.944 506.44 317.01 511.032C316.838 509.999 316.608 508.966 316.321 508.047C314.599 501.79 313.394 493.695 312.82 485.716C310.696 485.659 304.784 485.486 301.513 484.396C297.495 483.075 290.664 472.57 296.175 470.962C303.694 468.781 310.352 479.631 312.705 483.936C312.246 475.67 312.591 467.69 314.026 462.237C313.394 459.826 312.246 454.774 312.246 450.813C312.246 445.474 318.445 434.911 324.3 440.078C334.976 449.55 318.962 460.629 315.173 463.098C313.853 468.437 313.566 476.186 314.083 484.166C316.494 478.138 326.137 456.439 337.731 466.887C342.208 470.905 332.393 480.32 325.677 482.96C320.339 485.084 315.805 485.544 314.14 485.659C314.657 493.466 315.92 501.445 317.584 507.588C317.871 508.736 318.158 509.884 318.33 511.147C320.856 506.038 332.68 484.223 345.767 493.695C351.162 497.656 340.429 507.129 335.033 509.769C330.441 512.065 321.086 512.18 318.503 512.18C319.593 520.332 318.617 530.263 316.207 538.587C320.167 532.617 331.647 517.347 340.429 527.163C345.595 533.019 332.163 537.956 328.375 539.219C324.989 540.367 317.814 540.654 315.575 540.769C313.681 546.509 311.098 551.332 308.056 553.8C307.941 553.915 307.769 553.972 307.654 553.972C307.482 553.972 307.253 553.915 307.138 553.743C306.908 553.456 306.966 553.054 307.195 552.824C310.065 550.413 312.533 545.878 314.37 540.367C312.648 539.621 307.54 537.439 304.268 535.258C300.25 532.674 293.994 523.088 300.25 520.619Z" fill="#F2BE3C"/>
<path d="M271.436 554.144H332.451C332.795 554.144 333.139 553.857 333.139 553.455C333.139 553.111 332.852 552.767 332.451 552.767H271.436C271.092 552.767 270.748 553.054 270.748 553.455C270.748 553.8 271.035 554.144 271.436 554.144Z" fill="#14336A"/>
<path d="M249.97 554.144H264.032C264.376 554.144 264.721 553.857 264.721 553.455C264.721 553.111 264.434 552.767 264.032 552.767H249.97C249.625 552.767 249.281 553.054 249.281 553.455C249.338 553.8 249.625 554.144 249.97 554.144Z" fill="#14336A"/>
<defs>
<linearGradient id="paint0_linear_6723_43187" x1="418.972" y1="119.858" x2="418.972" y2="333.22" gradientUnits="userSpaceOnUse">
<stop stop-color="#E9F3FC"/>
<stop offset="1" stop-color="white" stop-opacity="0"/>
</linearGradient>
<linearGradient id="paint1_linear_6723_43187" x1="647.325" y1="541.189" x2="649.014" y2="426.883" gradientUnits="userSpaceOnUse">
<stop stop-color="#14336D"/>
<stop offset="0.9662" stop-color="#0E2253"/>
</linearGradient>
<linearGradient id="paint2_linear_6723_43187" x1="674.982" y1="286.306" x2="662.255" y2="332.716" gradientUnits="userSpaceOnUse">
<stop stop-color="#3162DF"/>
<stop offset="0.9649" stop-color="#173DB8"/>
</linearGradient>
<linearGradient id="paint3_linear_6723_43187" x1="676.81" y1="294.781" x2="589.154" y2="374.08" gradientUnits="userSpaceOnUse">
<stop stop-color="#3162DF"/>
<stop offset="0.9649" stop-color="#173DB8"/>
</linearGradient>
<linearGradient id="paint4_linear_6723_43187" x1="603.832" y1="285.479" x2="600.299" y2="379.793" gradientUnits="userSpaceOnUse">
<stop stop-color="#3162DF"/>
<stop offset="0.9649" stop-color="#173DB8"/>
</linearGradient>
<linearGradient id="paint5_linear_6723_43187" x1="423.663" y1="436.063" x2="323.864" y2="46.4908" gradientUnits="userSpaceOnUse">
<stop stop-color="#721B65"/>
<stop offset="0.9892" stop-color="#721B65" stop-opacity="0"/>
</linearGradient>
<linearGradient id="paint6_linear_6723_43187" x1="454.151" y1="442.993" x2="434.67" y2="494.964" gradientUnits="userSpaceOnUse">
<stop stop-color="#FEFEFD"/>
<stop offset="0.8395" stop-color="#EBF3FF"/>
</linearGradient>
<linearGradient id="paint7_linear_6723_43187" x1="271.558" y1="454.129" x2="286.845" y2="538.501" gradientUnits="userSpaceOnUse">
<stop stop-color="#721B65"/>
<stop offset="0.9649" stop-color="#611055"/>
</linearGradient>
</defs>
</svg>
