<svg width="512" height="560" viewBox="0 0 512 560" fill="none" xmlns="http://www.w3.org/2000/svg">
<path d="M456.979 93.5809L488.806 93.5811L488.806 80.1284L456.979 80.1283L456.979 93.5809Z" stroke="#EBEBEB" stroke-width="0.75" stroke-miterlimit="10"/>
<path d="M474.806 76.6216H506.634V63.1689H474.806V76.6216Z" stroke="#EBEBEB" stroke-width="0.75" stroke-miterlimit="10"/>
<path d="M256.031 225.757H287.858V212.305H256.031V225.757Z" stroke="#EBEBEB" stroke-width="0.75" stroke-miterlimit="10"/>
<path d="M273.738 208.798H305.565V195.345H273.738V208.798Z" stroke="#EBEBEB" stroke-width="0.75" stroke-miterlimit="10"/>
<path d="M291.426 225.757H323.253V212.305H291.426V225.757Z" stroke="#EBEBEB" stroke-width="0.75" stroke-miterlimit="10"/>
<path d="M5.35428 76.6216H37.1816V63.1689H5.35428V76.6216Z" stroke="#EBEBEB" stroke-width="0.75" stroke-miterlimit="10"/>
<path d="M23.0616 392.665H54.8889V379.212H23.0616V392.665Z" stroke="#EBEBEB" stroke-width="0.75" stroke-miterlimit="10"/>
<path d="M5.35428 375.706H37.1816V362.253H5.35428V375.706Z" stroke="#EBEBEB" stroke-width="0.75" stroke-miterlimit="10"/>
<path d="M456.979 392.665L488.807 392.665L488.807 379.212L456.979 379.212L456.979 392.665Z" stroke="#EBEBEB" stroke-width="0.75" stroke-miterlimit="10"/>
<path d="M206.577 513.276V362.414L238.645 318.573V236.536" stroke="#EBEBEB" stroke-miterlimit="10"/>
<path d="M235.762 233.653C235.762 235.215 237.084 236.536 238.645 236.536C240.206 236.536 241.527 235.215 241.527 233.653C241.527 232.092 240.206 230.771 238.645 230.771C237.084 230.891 235.762 232.092 235.762 233.653Z" stroke="#EBEBEB" stroke-miterlimit="10"/>
<path d="M214.865 513.276V367.7L246.932 323.858V266.564" stroke="#EBEBEB" stroke-miterlimit="10"/>
<path d="M244.05 263.682C244.05 265.243 245.371 266.564 246.932 266.564C248.493 266.564 249.815 265.243 249.815 263.682C249.815 262.12 248.493 260.799 246.932 260.799C245.371 260.799 244.05 262.12 244.05 263.682Z" stroke="#EBEBEB" stroke-miterlimit="10"/>
<path d="M198.531 513.276V313.408" stroke="#EBEBEB" stroke-miterlimit="10"/>
<path d="M195.768 310.645C195.768 312.207 197.089 313.528 198.651 313.528C200.212 313.528 201.533 312.207 201.533 310.645C201.533 309.084 200.212 307.763 198.651 307.763C196.969 307.763 195.768 308.964 195.768 310.645Z" stroke="#EBEBEB" stroke-miterlimit="10"/>
<path d="M190.964 513.277V411.781L169.105 370.582V296.953" stroke="#EBEBEB" stroke-miterlimit="10"/>
<path d="M166.223 294.07C166.223 295.632 167.544 296.953 169.105 296.953C170.666 296.953 171.988 295.632 171.988 294.07C171.988 292.509 170.666 291.188 169.105 291.188C167.544 291.188 166.223 292.509 166.223 294.07Z" stroke="#EBEBEB" stroke-miterlimit="10"/>
<path d="M183.278 513.276V416.105L157.575 370.702V322.177" stroke="#EBEBEB" stroke-miterlimit="10"/>
<path d="M154.693 319.294C154.693 320.855 156.014 322.177 157.575 322.177C159.137 322.177 160.458 320.855 160.458 319.294C160.458 317.732 159.137 316.411 157.575 316.411C156.014 316.411 154.693 317.732 154.693 319.294Z" stroke="#EBEBEB" stroke-miterlimit="10"/>
<path d="M89 52V-190" stroke="#B2B2B2" stroke-miterlimit="10"/>
<path d="M116.62 78.9477L114.338 83.8723H63.0542L60.8923 78.9477L82.631 63.8135H94.7614L116.62 78.9477Z" fill="#E4E4E4"/>
<path d="M96.3227 49.2798L94.7614 63.8134H82.6309L81.1897 49.2798H96.3227Z" fill="#CBCBCB"/>
<path d="M116.62 78.9478L114.338 83.8724H63.0542L60.8923 78.9478H116.62Z" fill="#CBCBCB"/>
<path d="M200 52V-190" stroke="#B2B2B2" stroke-miterlimit="10"/>
<path d="M228.076 78.9477L225.914 83.8723H174.63L172.348 78.9477L194.207 63.8135H206.337L228.076 78.9477Z" fill="#E4E4E4"/>
<path d="M207.779 49.2798L206.337 63.8134H194.207L192.646 49.2798H207.779Z" fill="#CBCBCB"/>
<path d="M228.076 78.9478L225.914 83.8724H174.63L172.348 78.9478H228.076Z" fill="#CBCBCB"/>
<path d="M312 52V-190" stroke="#B2B2B2" stroke-miterlimit="10"/>
<path d="M339.652 78.9477L337.37 83.8723H286.086L283.924 78.9477L305.663 63.8135H317.793L339.652 78.9477Z" fill="#E4E4E4"/>
<path d="M319.354 49.2798L317.793 63.8134H305.663L304.221 49.2798H319.354Z" fill="#CBCBCB"/>
<path d="M339.652 78.9478L337.37 83.8724H286.086L283.924 78.9478H339.652Z" fill="#CBCBCB"/>
<path d="M423 52V-190" stroke="#B2B2B2" stroke-miterlimit="10"/>
<path d="M451.108 78.9477L448.946 83.8723H397.662L395.38 78.9477L417.239 63.8135H429.369L451.108 78.9477Z" fill="#E4E4E4"/>
<path d="M430.81 49.2798L429.369 63.8134H417.239L415.677 49.2798H430.81Z" fill="#CBCBCB"/>
<path d="M451.108 78.9478L448.946 83.8724H397.662L395.38 78.9478H451.108Z" fill="#CBCBCB"/>
<path d="M176.432 560C247.008 560 304.221 550.858 304.221 539.581C304.221 528.304 247.008 519.162 176.432 519.162C105.855 519.162 48.6418 528.304 48.6418 539.581C48.6418 550.858 105.855 560 176.432 560Z" fill="#EBEBEB"/>
<path d="M354.905 218.879H276.838V513.396H354.905V218.879Z" fill="#37474F"/>
<path d="M498.669 218.879H354.905V513.396H498.669V218.879Z" fill="#455A64"/>
<path d="M489.661 475.2H365.714V503.787H489.661V475.2Z" fill="#37474F"/>
<path d="M441.5 479.885H370.999V482.287H441.5V479.885Z" fill="#455A64"/>
<path d="M441.5 484.089H370.999V486.491H441.5V484.089Z" fill="#455A64"/>
<path d="M441.5 488.292H370.999V490.695H441.5V488.292Z" fill="#455A64"/>
<path d="M441.5 492.497H370.999V494.899H441.5V492.497Z" fill="#455A64"/>
<path d="M441.5 496.701H370.999V499.103H441.5V496.701Z" fill="#455A64"/>
<path d="M454.351 482.287C454.351 483.608 453.27 484.689 451.948 484.689C450.627 484.689 449.546 483.608 449.546 482.287C449.546 480.966 450.627 479.885 451.948 479.885C453.27 479.885 454.351 480.966 454.351 482.287Z" fill="#FF9501"/>
<path d="M462.277 482.287C462.277 483.608 461.196 484.689 459.875 484.689C458.554 484.689 457.473 483.608 457.473 482.287C457.473 480.966 458.554 479.885 459.875 479.885C461.196 479.885 462.277 480.966 462.277 482.287Z" fill="#FF9501"/>
<path d="M470.204 482.287C470.204 483.608 469.123 484.689 467.802 484.689C466.481 484.689 465.4 483.608 465.4 482.287C465.4 480.966 466.481 479.885 467.802 479.885C469.123 479.885 470.204 480.966 470.204 482.287Z" fill="#FF9501"/>
<path d="M478.131 482.287C478.131 483.608 477.05 484.689 475.729 484.689C474.408 484.689 473.327 483.608 473.327 482.287C473.327 480.966 474.408 479.885 475.729 479.885C477.05 479.885 478.131 480.966 478.131 482.287Z" fill="#FF9501"/>
<path d="M485.938 482.287C485.938 483.608 484.857 484.689 483.536 484.689C482.214 484.689 481.134 483.608 481.134 482.287C481.134 480.966 482.214 479.885 483.536 479.885C484.857 479.885 485.938 480.966 485.938 482.287Z" fill="#FF9501"/>
<path d="M454.351 489.494C454.351 490.815 453.27 491.896 451.948 491.896C450.627 491.896 449.546 490.815 449.546 489.494C449.546 488.172 450.627 487.091 451.948 487.091C453.27 487.091 454.351 488.172 454.351 489.494Z" fill="#FF9501"/>
<path d="M462.277 489.494C462.277 490.815 461.196 491.896 459.875 491.896C458.554 491.896 457.473 490.815 457.473 489.494C457.473 488.172 458.554 487.091 459.875 487.091C461.196 487.091 462.277 488.172 462.277 489.494Z" fill="#FF9501"/>
<path d="M470.204 489.494C470.204 490.815 469.123 491.896 467.802 491.896C466.481 491.896 465.4 490.815 465.4 489.494C465.4 488.172 466.481 487.091 467.802 487.091C469.123 487.091 470.204 488.172 470.204 489.494Z" fill="#FF9501"/>
<path d="M478.131 489.494C478.131 490.815 477.05 491.896 475.729 491.896C474.408 491.896 473.327 490.815 473.327 489.494C473.327 488.172 474.408 487.091 475.729 487.091C477.05 487.091 478.131 488.172 478.131 489.494Z" fill="#FF9501"/>
<path d="M485.938 489.494C485.938 490.815 484.857 491.896 483.536 491.896C482.214 491.896 481.134 490.815 481.134 489.494C481.134 488.172 482.214 487.091 483.536 487.091C484.857 487.091 485.938 488.172 485.938 489.494Z" fill="#FF9501"/>
<path d="M451.948 499.103C453.275 499.103 454.351 498.027 454.351 496.701C454.351 495.374 453.275 494.298 451.948 494.298C450.622 494.298 449.546 495.374 449.546 496.701C449.546 498.027 450.622 499.103 451.948 499.103Z" fill="#FF9501"/>
<path d="M462.277 496.701C462.277 498.022 461.196 499.103 459.875 499.103C458.554 499.103 457.473 498.022 457.473 496.701C457.473 495.379 458.554 494.298 459.875 494.298C461.196 494.298 462.277 495.379 462.277 496.701Z" fill="#FF9501"/>
<path d="M467.802 499.103C469.129 499.103 470.204 498.027 470.204 496.701C470.204 495.374 469.129 494.298 467.802 494.298C466.475 494.298 465.4 495.374 465.4 496.701C465.4 498.027 466.475 499.103 467.802 499.103Z" fill="#FF9501"/>
<path d="M478.131 496.701C478.131 498.022 477.05 499.103 475.729 499.103C474.408 499.103 473.327 498.022 473.327 496.701C473.327 495.379 474.408 494.298 475.729 494.298C477.05 494.298 478.131 495.379 478.131 496.701Z" fill="#FF9501"/>
<path d="M485.938 496.701C485.938 498.022 484.857 499.103 483.536 499.103C482.214 499.103 481.134 498.022 481.134 496.701C481.134 495.379 482.214 494.298 483.536 494.298C484.857 494.298 485.938 495.379 485.938 496.701Z" fill="#FF9501"/>
<path d="M446.304 479.885H444.982V499.103H446.304V479.885Z" fill="#263238"/>
<path d="M489.661 440.728H365.714V469.314H489.661V440.728Z" fill="#37474F"/>
<path d="M441.5 445.412H370.999V447.814H441.5V445.412Z" fill="#455A64"/>
<path d="M441.5 449.616H370.999V452.018H441.5V449.616Z" fill="#455A64"/>
<path d="M441.5 453.82H370.999V456.222H441.5V453.82Z" fill="#455A64"/>
<path d="M441.5 458.024H370.999V460.426H441.5V458.024Z" fill="#455A64"/>
<path d="M441.5 462.228H370.999V464.63H441.5V462.228Z" fill="#455A64"/>
<path d="M454.351 447.814C454.351 449.136 453.27 450.217 451.948 450.217C450.627 450.217 449.546 449.136 449.546 447.814C449.546 446.493 450.627 445.412 451.948 445.412C453.27 445.412 454.351 446.493 454.351 447.814Z" fill="#FF9501"/>
<path d="M462.277 447.814C462.277 449.136 461.196 450.217 459.875 450.217C458.554 450.217 457.473 449.136 457.473 447.814C457.473 446.493 458.554 445.412 459.875 445.412C461.196 445.412 462.277 446.493 462.277 447.814Z" fill="#FF9501"/>
<path d="M470.204 447.814C470.204 449.136 469.123 450.217 467.802 450.217C466.481 450.217 465.4 449.136 465.4 447.814C465.4 446.493 466.481 445.412 467.802 445.412C469.123 445.412 470.204 446.493 470.204 447.814Z" fill="#FF9501"/>
<path d="M478.131 447.814C478.131 449.136 477.05 450.217 475.729 450.217C474.408 450.217 473.327 449.136 473.327 447.814C473.327 446.493 474.408 445.412 475.729 445.412C477.05 445.412 478.131 446.493 478.131 447.814Z" fill="#FF9501"/>
<path d="M485.938 447.814C485.938 449.136 484.857 450.217 483.536 450.217C482.214 450.217 481.134 449.136 481.134 447.814C481.134 446.493 482.214 445.412 483.536 445.412C484.857 445.412 485.938 446.493 485.938 447.814Z" fill="#FF9501"/>
<path d="M454.351 455.021C454.351 456.343 453.27 457.424 451.948 457.424C450.627 457.424 449.546 456.343 449.546 455.021C449.546 453.7 450.627 452.619 451.948 452.619C453.27 452.619 454.351 453.7 454.351 455.021Z" fill="#FF9501"/>
<path d="M462.277 455.021C462.277 456.343 461.196 457.424 459.875 457.424C458.554 457.424 457.473 456.343 457.473 455.021C457.473 453.7 458.554 452.619 459.875 452.619C461.196 452.619 462.277 453.7 462.277 455.021Z" fill="#FF9501"/>
<path d="M470.204 455.021C470.204 456.343 469.123 457.424 467.802 457.424C466.481 457.424 465.4 456.343 465.4 455.021C465.4 453.7 466.481 452.619 467.802 452.619C469.123 452.619 470.204 453.7 470.204 455.021Z" fill="#FF9501"/>
<path d="M478.131 455.021C478.131 456.343 477.05 457.424 475.729 457.424C474.408 457.424 473.327 456.343 473.327 455.021C473.327 453.7 474.408 452.619 475.729 452.619C477.05 452.619 478.131 453.7 478.131 455.021Z" fill="#FF9501"/>
<path d="M485.938 455.021C485.938 456.343 484.857 457.424 483.536 457.424C482.214 457.424 481.134 456.343 481.134 455.021C481.134 453.7 482.214 452.619 483.536 452.619C484.857 452.619 485.938 453.7 485.938 455.021Z" fill="#FF9501"/>
<path d="M454.351 462.228C454.351 463.549 453.27 464.63 451.948 464.63C450.627 464.63 449.546 463.549 449.546 462.228C449.546 460.907 450.627 459.826 451.948 459.826C453.27 459.826 454.351 460.907 454.351 462.228Z" fill="#FF9501"/>
<path d="M462.277 462.228C462.277 463.549 461.196 464.63 459.875 464.63C458.554 464.63 457.473 463.549 457.473 462.228C457.473 460.907 458.554 459.826 459.875 459.826C461.196 459.826 462.277 460.907 462.277 462.228Z" fill="#FF9501"/>
<path d="M470.204 462.228C470.204 463.549 469.123 464.63 467.802 464.63C466.481 464.63 465.4 463.549 465.4 462.228C465.4 460.907 466.481 459.826 467.802 459.826C469.123 459.826 470.204 460.907 470.204 462.228Z" fill="#FF9501"/>
<path d="M478.131 462.228C478.131 463.549 477.05 464.63 475.729 464.63C474.408 464.63 473.327 463.549 473.327 462.228C473.327 460.907 474.408 459.826 475.729 459.826C477.05 459.826 478.131 460.907 478.131 462.228Z" fill="#FF9501"/>
<path d="M485.938 462.228C485.938 463.549 484.857 464.63 483.536 464.63C482.214 464.63 481.134 463.549 481.134 462.228C481.134 460.907 482.214 459.826 483.536 459.826C484.857 459.826 485.938 460.907 485.938 462.228Z" fill="#FF9501"/>
<path d="M446.304 445.412H444.982V464.63H446.304V445.412Z" fill="#263238"/>
<path d="M489.661 406.135H365.714V434.722H489.661V406.135Z" fill="#37474F"/>
<path d="M441.5 410.94H370.999V413.342H441.5V410.94Z" fill="#455A64"/>
<path d="M441.5 415.144H370.999V417.546H441.5V415.144Z" fill="#455A64"/>
<path d="M441.5 419.348H370.999V421.75H441.5V419.348Z" fill="#455A64"/>
<path d="M441.5 423.432H370.999V425.834H441.5V423.432Z" fill="#455A64"/>
<path d="M441.5 427.636H370.999V430.038H441.5V427.636Z" fill="#455A64"/>
<path d="M451.948 415.744C453.275 415.744 454.351 414.669 454.351 413.342C454.351 412.015 453.275 410.94 451.948 410.94C450.622 410.94 449.546 412.015 449.546 413.342C449.546 414.669 450.622 415.744 451.948 415.744Z" fill="#FF9501"/>
<path d="M462.277 413.342C462.277 414.663 461.196 415.744 459.875 415.744C458.554 415.744 457.473 414.663 457.473 413.342C457.473 412.021 458.554 410.94 459.875 410.94C461.196 410.94 462.277 412.021 462.277 413.342Z" fill="#FF9501"/>
<path d="M467.802 415.744C469.129 415.744 470.204 414.669 470.204 413.342C470.204 412.015 469.129 410.94 467.802 410.94C466.475 410.94 465.4 412.015 465.4 413.342C465.4 414.669 466.475 415.744 467.802 415.744Z" fill="#FF9501"/>
<path d="M478.131 413.342C478.131 414.663 477.05 415.744 475.729 415.744C474.408 415.744 473.327 414.663 473.327 413.342C473.327 412.021 474.408 410.94 475.729 410.94C477.05 410.94 478.131 412.021 478.131 413.342Z" fill="#FF9501"/>
<path d="M485.938 413.342C485.938 414.663 484.857 415.744 483.536 415.744C482.214 415.744 481.134 414.663 481.134 413.342C481.134 412.021 482.214 410.94 483.536 410.94C484.857 410.94 485.938 412.021 485.938 413.342Z" fill="#FF9501"/>
<path d="M454.351 420.549C454.351 421.87 453.27 422.951 451.948 422.951C450.627 422.951 449.546 421.87 449.546 420.549C449.546 419.227 450.627 418.146 451.948 418.146C453.27 418.146 454.351 419.227 454.351 420.549Z" fill="#FF9501"/>
<path d="M462.277 420.549C462.277 421.87 461.196 422.951 459.875 422.951C458.554 422.951 457.473 421.87 457.473 420.549C457.473 419.227 458.554 418.146 459.875 418.146C461.196 418.146 462.277 419.227 462.277 420.549Z" fill="#FF9501"/>
<path d="M470.204 420.549C470.204 421.87 469.123 422.951 467.802 422.951C466.481 422.951 465.4 421.87 465.4 420.549C465.4 419.227 466.481 418.146 467.802 418.146C469.123 418.146 470.204 419.227 470.204 420.549Z" fill="#FF9501"/>
<path d="M478.131 420.549C478.131 421.87 477.05 422.951 475.729 422.951C474.408 422.951 473.327 421.87 473.327 420.549C473.327 419.227 474.408 418.146 475.729 418.146C477.05 418.146 478.131 419.227 478.131 420.549Z" fill="#FF9501"/>
<path d="M485.938 420.549C485.938 421.87 484.857 422.951 483.536 422.951C482.214 422.951 481.134 421.87 481.134 420.549C481.134 419.227 482.214 418.146 483.536 418.146C484.857 418.146 485.938 419.227 485.938 420.549Z" fill="#FF9501"/>
<path d="M454.351 427.636C454.351 428.957 453.27 430.038 451.948 430.038C450.627 430.038 449.546 428.957 449.546 427.636C449.546 426.314 450.627 425.233 451.948 425.233C453.27 425.233 454.351 426.314 454.351 427.636Z" fill="#FF9501"/>
<path d="M462.277 427.636C462.277 428.957 461.196 430.038 459.875 430.038C458.554 430.038 457.473 428.957 457.473 427.636C457.473 426.314 458.554 425.233 459.875 425.233C461.196 425.233 462.277 426.314 462.277 427.636Z" fill="#FF9501"/>
<path d="M470.204 427.636C470.204 428.957 469.123 430.038 467.802 430.038C466.481 430.038 465.4 428.957 465.4 427.636C465.4 426.314 466.481 425.233 467.802 425.233C469.123 425.233 470.204 426.314 470.204 427.636Z" fill="#FF9501"/>
<path d="M478.131 427.636C478.131 428.957 477.05 430.038 475.729 430.038C474.408 430.038 473.327 428.957 473.327 427.636C473.327 426.314 474.408 425.233 475.729 425.233C477.05 425.233 478.131 426.314 478.131 427.636Z" fill="#FF9501"/>
<path d="M485.938 427.636C485.938 428.957 484.857 430.038 483.536 430.038C482.214 430.038 481.134 428.957 481.134 427.636C481.134 426.314 482.214 425.233 483.536 425.233C484.857 425.233 485.938 426.314 485.938 427.636Z" fill="#FF9501"/>
<path d="M446.304 410.94H444.982V430.158H446.304V410.94Z" fill="#263238"/>
<path d="M489.661 371.663H365.714V400.249H489.661V371.663Z" fill="#37474F"/>
<path d="M441.5 376.347H370.999V378.749H441.5V376.347Z" fill="#455A64"/>
<path d="M441.5 380.551H370.999V382.954H441.5V380.551Z" fill="#455A64"/>
<path d="M441.5 384.755H370.999V387.157H441.5V384.755Z" fill="#455A64"/>
<path d="M441.5 388.959H370.999V391.361H441.5V388.959Z" fill="#455A64"/>
<path d="M441.5 393.163H370.999V395.565H441.5V393.163Z" fill="#455A64"/>
<path d="M454.351 378.749C454.351 380.071 453.27 381.152 451.948 381.152C450.627 381.152 449.546 380.071 449.546 378.749C449.546 377.428 450.627 376.347 451.948 376.347C453.27 376.347 454.351 377.428 454.351 378.749Z" fill="#FF9501"/>
<path d="M462.277 378.749C462.277 380.071 461.196 381.152 459.875 381.152C458.554 381.152 457.473 380.071 457.473 378.749C457.473 377.428 458.554 376.347 459.875 376.347C461.196 376.347 462.277 377.428 462.277 378.749Z" fill="#FF9501"/>
<path d="M470.204 378.749C470.204 380.071 469.123 381.152 467.802 381.152C466.481 381.152 465.4 380.071 465.4 378.749C465.4 377.428 466.481 376.347 467.802 376.347C469.123 376.347 470.204 377.428 470.204 378.749Z" fill="#FF9501"/>
<path d="M478.131 378.749C478.131 380.071 477.05 381.152 475.729 381.152C474.408 381.152 473.327 380.071 473.327 378.749C473.327 377.428 474.408 376.347 475.729 376.347C477.05 376.347 478.131 377.428 478.131 378.749Z" fill="#FF9501"/>
<path d="M485.938 378.749C485.938 380.071 484.857 381.152 483.536 381.152C482.214 381.152 481.134 380.071 481.134 378.749C481.134 377.428 482.214 376.347 483.536 376.347C484.857 376.347 485.938 377.428 485.938 378.749Z" fill="#FF9501"/>
<path d="M451.948 388.359C453.275 388.359 454.351 387.283 454.351 385.956C454.351 384.63 453.275 383.554 451.948 383.554C450.622 383.554 449.546 384.63 449.546 385.956C449.546 387.283 450.622 388.359 451.948 388.359Z" fill="#FF9501"/>
<path d="M462.277 385.956C462.277 387.278 461.196 388.359 459.875 388.359C458.554 388.359 457.473 387.278 457.473 385.956C457.473 384.635 458.554 383.554 459.875 383.554C461.196 383.554 462.277 384.635 462.277 385.956Z" fill="#FF9501"/>
<path d="M467.802 388.359C469.129 388.359 470.204 387.283 470.204 385.956C470.204 384.63 469.129 383.554 467.802 383.554C466.475 383.554 465.4 384.63 465.4 385.956C465.4 387.283 466.475 388.359 467.802 388.359Z" fill="#FF9501"/>
<path d="M478.131 385.956C478.131 387.278 477.05 388.359 475.729 388.359C474.408 388.359 473.327 387.278 473.327 385.956C473.327 384.635 474.408 383.554 475.729 383.554C477.05 383.554 478.131 384.635 478.131 385.956Z" fill="#FF9501"/>
<path d="M485.938 385.956C485.938 387.278 484.857 388.359 483.536 388.359C482.214 388.359 481.134 387.278 481.134 385.956C481.134 384.635 482.214 383.554 483.536 383.554C484.857 383.554 485.938 384.635 485.938 385.956Z" fill="#FF9501"/>
<path d="M451.948 395.565C453.275 395.565 454.351 394.49 454.351 393.163C454.351 391.836 453.275 390.761 451.948 390.761C450.622 390.761 449.546 391.836 449.546 393.163C449.546 394.49 450.622 395.565 451.948 395.565Z" fill="#FF9501"/>
<path d="M462.277 393.163C462.277 394.484 461.196 395.565 459.875 395.565C458.554 395.565 457.473 394.484 457.473 393.163C457.473 391.842 458.554 390.761 459.875 390.761C461.196 390.761 462.277 391.842 462.277 393.163Z" fill="#FF9501"/>
<path d="M467.802 395.565C469.129 395.565 470.204 394.49 470.204 393.163C470.204 391.836 469.129 390.761 467.802 390.761C466.475 390.761 465.4 391.836 465.4 393.163C465.4 394.49 466.475 395.565 467.802 395.565Z" fill="#FF9501"/>
<path d="M478.131 393.163C478.131 394.484 477.05 395.565 475.729 395.565C474.408 395.565 473.327 394.484 473.327 393.163C473.327 391.842 474.408 390.761 475.729 390.761C477.05 390.761 478.131 391.842 478.131 393.163Z" fill="#FF9501"/>
<path d="M485.938 393.163C485.938 394.484 484.857 395.565 483.536 395.565C482.214 395.565 481.134 394.484 481.134 393.163C481.134 391.842 482.214 390.761 483.536 390.761C484.857 390.761 485.938 391.842 485.938 393.163Z" fill="#FF9501"/>
<path d="M446.304 376.347H444.982V395.565H446.304V376.347Z" fill="#263238"/>
<path d="M489.661 337.19H365.714V365.777H489.661V337.19Z" fill="#37474F"/>
<path d="M441.5 341.875H370.999V344.277H441.5V341.875Z" fill="#455A64"/>
<path d="M441.5 346.079H370.999V348.481H441.5V346.079Z" fill="#455A64"/>
<path d="M441.5 350.283H370.999V352.685H441.5V350.283Z" fill="#455A64"/>
<path d="M441.5 354.487H370.999V356.889H441.5V354.487Z" fill="#455A64"/>
<path d="M441.5 358.691H370.999V361.093H441.5V358.691Z" fill="#455A64"/>
<path d="M451.948 346.68C453.275 346.68 454.351 345.604 454.351 344.277C454.351 342.951 453.275 341.875 451.948 341.875C450.622 341.875 449.546 342.951 449.546 344.277C449.546 345.604 450.622 346.68 451.948 346.68Z" fill="#FF9501"/>
<path d="M462.277 344.277C462.277 345.598 461.196 346.68 459.875 346.68C458.554 346.68 457.473 345.598 457.473 344.277C457.473 342.956 458.554 341.875 459.875 341.875C461.196 341.875 462.277 342.956 462.277 344.277Z" fill="#FF9501"/>
<path d="M467.802 346.68C469.129 346.68 470.204 345.604 470.204 344.277C470.204 342.951 469.129 341.875 467.802 341.875C466.475 341.875 465.4 342.951 465.4 344.277C465.4 345.604 466.475 346.68 467.802 346.68Z" fill="#FF9501"/>
<path d="M478.131 344.277C478.131 345.598 477.05 346.68 475.729 346.68C474.408 346.68 473.327 345.598 473.327 344.277C473.327 342.956 474.408 341.875 475.729 341.875C477.05 341.875 478.131 342.956 478.131 344.277Z" fill="#FF9501"/>
<path d="M485.938 344.277C485.938 345.598 484.857 346.68 483.536 346.68C482.214 346.68 481.134 345.598 481.134 344.277C481.134 342.956 482.214 341.875 483.536 341.875C484.857 341.875 485.938 342.956 485.938 344.277Z" fill="#FF9501"/>
<path d="M451.948 353.887C453.275 353.887 454.351 352.811 454.351 351.484C454.351 350.158 453.275 349.082 451.948 349.082C450.622 349.082 449.546 350.158 449.546 351.484C449.546 352.811 450.622 353.887 451.948 353.887Z" fill="#FF9501"/>
<path d="M462.277 351.484C462.277 352.806 461.196 353.887 459.875 353.887C458.554 353.887 457.473 352.806 457.473 351.484C457.473 350.163 458.554 349.082 459.875 349.082C461.196 349.082 462.277 350.163 462.277 351.484Z" fill="#FF9501"/>
<path d="M467.802 353.887C469.129 353.887 470.204 352.811 470.204 351.484C470.204 350.158 469.129 349.082 467.802 349.082C466.475 349.082 465.4 350.158 465.4 351.484C465.4 352.811 466.475 353.887 467.802 353.887Z" fill="#FF9501"/>
<path d="M478.131 351.484C478.131 352.806 477.05 353.887 475.729 353.887C474.408 353.887 473.327 352.806 473.327 351.484C473.327 350.163 474.408 349.082 475.729 349.082C477.05 349.082 478.131 350.163 478.131 351.484Z" fill="#FF9501"/>
<path d="M485.938 351.484C485.938 352.806 484.857 353.887 483.536 353.887C482.214 353.887 481.134 352.806 481.134 351.484C481.134 350.163 482.214 349.082 483.536 349.082C484.857 349.082 485.938 350.163 485.938 351.484Z" fill="#FF9501"/>
<path d="M454.351 358.691C454.351 360.012 453.27 361.093 451.948 361.093C450.627 361.093 449.546 360.012 449.546 358.691C449.546 357.37 450.627 356.289 451.948 356.289C453.27 356.289 454.351 357.37 454.351 358.691Z" fill="#FF9501"/>
<path d="M462.277 358.691C462.277 360.012 461.196 361.093 459.875 361.093C458.554 361.093 457.473 360.012 457.473 358.691C457.473 357.37 458.554 356.289 459.875 356.289C461.196 356.289 462.277 357.37 462.277 358.691Z" fill="#FF9501"/>
<path d="M470.204 358.691C470.204 360.012 469.123 361.093 467.802 361.093C466.481 361.093 465.4 360.012 465.4 358.691C465.4 357.37 466.481 356.289 467.802 356.289C469.123 356.289 470.204 357.37 470.204 358.691Z" fill="#FF9501"/>
<path d="M478.131 358.691C478.131 360.012 477.05 361.093 475.729 361.093C474.408 361.093 473.327 360.012 473.327 358.691C473.327 357.37 474.408 356.289 475.729 356.289C477.05 356.289 478.131 357.37 478.131 358.691Z" fill="#FF9501"/>
<path d="M485.938 358.691C485.938 360.012 484.857 361.093 483.536 361.093C482.214 361.093 481.134 360.012 481.134 358.691C481.134 357.37 482.214 356.289 483.536 356.289C484.857 356.289 485.938 357.37 485.938 358.691Z" fill="#FF9501"/>
<path d="M446.304 341.875H444.982V361.093H446.304V341.875Z" fill="#263238"/>
<path d="M489.661 302.718H365.714V331.305H489.661V302.718Z" fill="#37474F"/>
<path d="M441.5 307.402H370.999V309.805H441.5V307.402Z" fill="#455A64"/>
<path d="M441.5 311.606H370.999V314.009H441.5V311.606Z" fill="#455A64"/>
<path d="M441.5 315.81H370.999V318.212H441.5V315.81Z" fill="#455A64"/>
<path d="M441.5 320.014H370.999V322.416H441.5V320.014Z" fill="#455A64"/>
<path d="M441.5 324.098H370.999V326.5H441.5V324.098Z" fill="#455A64"/>
<path d="M454.351 309.805C454.351 311.126 453.27 312.207 451.948 312.207C450.627 312.207 449.546 311.126 449.546 309.805C449.546 308.483 450.627 307.402 451.948 307.402C453.27 307.402 454.351 308.483 454.351 309.805Z" fill="#FF9501"/>
<path d="M462.277 309.805C462.277 311.126 461.196 312.207 459.875 312.207C458.554 312.207 457.473 311.126 457.473 309.805C457.473 308.483 458.554 307.402 459.875 307.402C461.196 307.402 462.277 308.483 462.277 309.805Z" fill="#FF9501"/>
<path d="M470.204 309.805C470.204 311.126 469.123 312.207 467.802 312.207C466.481 312.207 465.4 311.126 465.4 309.805C465.4 308.483 466.481 307.402 467.802 307.402C469.123 307.402 470.204 308.483 470.204 309.805Z" fill="#FF9501"/>
<path d="M478.131 309.805C478.131 311.126 477.05 312.207 475.729 312.207C474.408 312.207 473.327 311.126 473.327 309.805C473.327 308.483 474.408 307.402 475.729 307.402C477.05 307.402 478.131 308.483 478.131 309.805Z" fill="#FF9501"/>
<path d="M485.938 309.805C485.938 311.126 484.857 312.207 483.536 312.207C482.214 312.207 481.134 311.126 481.134 309.805C481.134 308.483 482.214 307.402 483.536 307.402C484.857 307.402 485.938 308.483 485.938 309.805Z" fill="#FF9501"/>
<path d="M454.351 317.012C454.351 318.333 453.27 319.414 451.948 319.414C450.627 319.414 449.546 318.333 449.546 317.012C449.546 315.69 450.627 314.609 451.948 314.609C453.27 314.609 454.351 315.69 454.351 317.012Z" fill="#FF9501"/>
<path d="M462.277 317.012C462.277 318.333 461.196 319.414 459.875 319.414C458.554 319.414 457.473 318.333 457.473 317.012C457.473 315.69 458.554 314.609 459.875 314.609C461.196 314.609 462.277 315.69 462.277 317.012Z" fill="#FF9501"/>
<path d="M470.204 317.012C470.204 318.333 469.123 319.414 467.802 319.414C466.481 319.414 465.4 318.333 465.4 317.012C465.4 315.69 466.481 314.609 467.802 314.609C469.123 314.609 470.204 315.69 470.204 317.012Z" fill="#FF9501"/>
<path d="M478.131 317.012C478.131 318.333 477.05 319.414 475.729 319.414C474.408 319.414 473.327 318.333 473.327 317.012C473.327 315.69 474.408 314.609 475.729 314.609C477.05 314.609 478.131 315.69 478.131 317.012Z" fill="#FF9501"/>
<path d="M485.938 317.012C485.938 318.333 484.857 319.414 483.536 319.414C482.214 319.414 481.134 318.333 481.134 317.012C481.134 315.69 482.214 314.609 483.536 314.609C484.857 314.609 485.938 315.69 485.938 317.012Z" fill="#FF9501"/>
<path d="M454.351 324.218C454.351 325.539 453.27 326.62 451.948 326.62C450.627 326.62 449.546 325.539 449.546 324.218C449.546 322.897 450.627 321.816 451.948 321.816C453.27 321.816 454.351 322.897 454.351 324.218Z" fill="#FF9501"/>
<path d="M462.277 324.218C462.277 325.539 461.196 326.62 459.875 326.62C458.554 326.62 457.473 325.539 457.473 324.218C457.473 322.897 458.554 321.816 459.875 321.816C461.196 321.816 462.277 322.897 462.277 324.218Z" fill="#FF9501"/>
<path d="M470.204 324.218C470.204 325.539 469.123 326.62 467.802 326.62C466.481 326.62 465.4 325.539 465.4 324.218C465.4 322.897 466.481 321.816 467.802 321.816C469.123 321.816 470.204 322.897 470.204 324.218Z" fill="#FF9501"/>
<path d="M478.131 324.218C478.131 325.539 477.05 326.62 475.729 326.62C474.408 326.62 473.327 325.539 473.327 324.218C473.327 322.897 474.408 321.816 475.729 321.816C477.05 321.816 478.131 322.897 478.131 324.218Z" fill="#FF9501"/>
<path d="M485.938 324.218C485.938 325.539 484.857 326.62 483.536 326.62C482.214 326.62 481.134 325.539 481.134 324.218C481.134 322.897 482.214 321.816 483.536 321.816C484.857 321.816 485.938 322.897 485.938 324.218Z" fill="#FF9501"/>
<path d="M446.304 307.402H444.982V326.62H446.304V307.402Z" fill="#263238"/>
<path d="M489.661 268.125H365.714V296.712H489.661V268.125Z" fill="#37474F"/>
<path d="M441.5 272.93H370.999V275.332H441.5V272.93Z" fill="#455A64"/>
<path d="M441.5 277.134H370.999V279.537H441.5V277.134Z" fill="#455A64"/>
<path d="M441.5 281.218H370.999V283.62H441.5V281.218Z" fill="#455A64"/>
<path d="M441.5 285.422H370.999V287.824H441.5V285.422Z" fill="#455A64"/>
<path d="M441.5 289.626H370.999V292.028H441.5V289.626Z" fill="#455A64"/>
<path d="M454.351 275.332C454.351 276.654 453.27 277.735 451.948 277.735C450.627 277.735 449.546 276.654 449.546 275.332C449.546 274.011 450.627 272.93 451.948 272.93C453.27 272.93 454.351 274.011 454.351 275.332Z" fill="#FF9501"/>
<path d="M462.277 275.332C462.277 276.654 461.196 277.735 459.875 277.735C458.554 277.735 457.473 276.654 457.473 275.332C457.473 274.011 458.554 272.93 459.875 272.93C461.196 272.93 462.277 274.011 462.277 275.332Z" fill="#FF9501"/>
<path d="M470.204 275.332C470.204 276.654 469.123 277.735 467.802 277.735C466.481 277.735 465.4 276.654 465.4 275.332C465.4 274.011 466.481 272.93 467.802 272.93C469.123 272.93 470.204 274.011 470.204 275.332Z" fill="#FF9501"/>
<path d="M478.131 275.332C478.131 276.654 477.05 277.735 475.729 277.735C474.408 277.735 473.327 276.654 473.327 275.332C473.327 274.011 474.408 272.93 475.729 272.93C477.05 272.93 478.131 274.011 478.131 275.332Z" fill="#FF9501"/>
<path d="M485.938 275.332C485.938 276.654 484.857 277.735 483.536 277.735C482.214 277.735 481.134 276.654 481.134 275.332C481.134 274.011 482.214 272.93 483.536 272.93C484.857 272.93 485.938 274.011 485.938 275.332Z" fill="#FF9501"/>
<path d="M454.351 282.419C454.351 283.74 453.27 284.821 451.948 284.821C450.627 284.821 449.546 283.74 449.546 282.419C449.546 281.098 450.627 280.017 451.948 280.017C453.27 280.017 454.351 281.098 454.351 282.419Z" fill="#FF9501"/>
<path d="M462.277 282.419C462.277 283.74 461.196 284.821 459.875 284.821C458.554 284.821 457.473 283.74 457.473 282.419C457.473 281.098 458.554 280.017 459.875 280.017C461.196 280.017 462.277 281.098 462.277 282.419Z" fill="#FF9501"/>
<path d="M470.204 282.419C470.204 283.74 469.123 284.821 467.802 284.821C466.481 284.821 465.4 283.74 465.4 282.419C465.4 281.098 466.481 280.017 467.802 280.017C469.123 280.017 470.204 281.098 470.204 282.419Z" fill="#FF9501"/>
<path d="M478.131 282.419C478.131 283.74 477.05 284.821 475.729 284.821C474.408 284.821 473.327 283.74 473.327 282.419C473.327 281.098 474.408 280.017 475.729 280.017C477.05 280.017 478.131 281.098 478.131 282.419Z" fill="#FF9501"/>
<path d="M485.938 282.419C485.938 283.74 484.857 284.821 483.536 284.821C482.214 284.821 481.134 283.74 481.134 282.419C481.134 281.098 482.214 280.017 483.536 280.017C484.857 280.017 485.938 281.098 485.938 282.419Z" fill="#FF9501"/>
<path d="M454.351 289.626C454.351 290.947 453.27 292.028 451.948 292.028C450.627 292.028 449.546 290.947 449.546 289.626C449.546 288.305 450.627 287.224 451.948 287.224C453.27 287.224 454.351 288.305 454.351 289.626Z" fill="#FF9501"/>
<path d="M462.277 289.626C462.277 290.947 461.196 292.028 459.875 292.028C458.554 292.028 457.473 290.947 457.473 289.626C457.473 288.305 458.554 287.224 459.875 287.224C461.196 287.224 462.277 288.305 462.277 289.626Z" fill="#FF9501"/>
<path d="M470.204 289.626C470.204 290.947 469.123 292.028 467.802 292.028C466.481 292.028 465.4 290.947 465.4 289.626C465.4 288.305 466.481 287.224 467.802 287.224C469.123 287.224 470.204 288.305 470.204 289.626Z" fill="#FF9501"/>
<path d="M478.131 289.626C478.131 290.947 477.05 292.028 475.729 292.028C474.408 292.028 473.327 290.947 473.327 289.626C473.327 288.305 474.408 287.224 475.729 287.224C477.05 287.224 478.131 288.305 478.131 289.626Z" fill="#FF9501"/>
<path d="M485.938 289.626C485.938 290.947 484.857 292.028 483.536 292.028C482.214 292.028 481.134 290.947 481.134 289.626C481.134 288.305 482.214 287.224 483.536 287.224C484.857 287.224 485.938 288.305 485.938 289.626Z" fill="#FF9501"/>
<path d="M446.304 272.93H444.982V292.148H446.304V272.93Z" fill="#263238"/>
<path d="M489.661 233.653H365.714V262.24H489.661V233.653Z" fill="#37474F"/>
<path d="M441.5 238.337H370.999V240.74H441.5V238.337Z" fill="#455A64"/>
<path d="M441.5 242.542H370.999V244.944H441.5V242.542Z" fill="#455A64"/>
<path d="M441.5 246.745H370.999V249.147H441.5V246.745Z" fill="#455A64"/>
<path d="M441.5 250.949H370.999V253.351H441.5V250.949Z" fill="#455A64"/>
<path d="M441.5 255.153H370.999V257.556H441.5V255.153Z" fill="#455A64"/>
<path d="M454.351 240.74C454.351 242.061 453.27 243.142 451.948 243.142C450.627 243.142 449.546 242.061 449.546 240.74C449.546 239.418 450.627 238.337 451.948 238.337C453.27 238.337 454.351 239.418 454.351 240.74Z" fill="#FF9501"/>
<path d="M462.277 240.74C462.277 242.061 461.196 243.142 459.875 243.142C458.554 243.142 457.473 242.061 457.473 240.74C457.473 239.418 458.554 238.337 459.875 238.337C461.196 238.337 462.277 239.418 462.277 240.74Z" fill="#FF9501"/>
<path d="M470.204 240.74C470.204 242.061 469.123 243.142 467.802 243.142C466.481 243.142 465.4 242.061 465.4 240.74C465.4 239.418 466.481 238.337 467.802 238.337C469.123 238.337 470.204 239.418 470.204 240.74Z" fill="#FF9501"/>
<path d="M478.131 240.74C478.131 242.061 477.05 243.142 475.729 243.142C474.408 243.142 473.327 242.061 473.327 240.74C473.327 239.418 474.408 238.337 475.729 238.337C477.05 238.337 478.131 239.418 478.131 240.74Z" fill="#FF9501"/>
<path d="M485.938 240.74C485.938 242.061 484.857 243.142 483.536 243.142C482.214 243.142 481.134 242.061 481.134 240.74C481.134 239.418 482.214 238.337 483.536 238.337C484.857 238.337 485.938 239.418 485.938 240.74Z" fill="#FF9501"/>
<path d="M451.948 250.348C453.275 250.348 454.351 249.273 454.351 247.946C454.351 246.619 453.275 245.544 451.948 245.544C450.622 245.544 449.546 246.619 449.546 247.946C449.546 249.273 450.622 250.348 451.948 250.348Z" fill="#FF9501"/>
<path d="M462.277 247.946C462.277 249.267 461.196 250.348 459.875 250.348C458.554 250.348 457.473 249.267 457.473 247.946C457.473 246.625 458.554 245.544 459.875 245.544C461.196 245.544 462.277 246.625 462.277 247.946Z" fill="#FF9501"/>
<path d="M467.802 250.348C469.129 250.348 470.204 249.273 470.204 247.946C470.204 246.619 469.129 245.544 467.802 245.544C466.475 245.544 465.4 246.619 465.4 247.946C465.4 249.273 466.475 250.348 467.802 250.348Z" fill="#FF9501"/>
<path d="M478.131 247.946C478.131 249.267 477.05 250.348 475.729 250.348C474.408 250.348 473.327 249.267 473.327 247.946C473.327 246.625 474.408 245.544 475.729 245.544C477.05 245.544 478.131 246.625 478.131 247.946Z" fill="#FF9501"/>
<path d="M485.938 247.946C485.938 249.267 484.857 250.348 483.536 250.348C482.214 250.348 481.134 249.267 481.134 247.946C481.134 246.625 482.214 245.544 483.536 245.544C484.857 245.544 485.938 246.625 485.938 247.946Z" fill="#FF9501"/>
<path d="M454.351 255.153C454.351 256.474 453.27 257.555 451.948 257.555C450.627 257.555 449.546 256.474 449.546 255.153C449.546 253.832 450.627 252.751 451.948 252.751C453.27 252.751 454.351 253.832 454.351 255.153Z" fill="#FF9501"/>
<path d="M462.277 255.153C462.277 256.474 461.196 257.555 459.875 257.555C458.554 257.555 457.473 256.474 457.473 255.153C457.473 253.832 458.554 252.751 459.875 252.751C461.196 252.751 462.277 253.832 462.277 255.153Z" fill="#FF9501"/>
<path d="M470.204 255.153C470.204 256.474 469.123 257.555 467.802 257.555C466.481 257.555 465.4 256.474 465.4 255.153C465.4 253.832 466.481 252.751 467.802 252.751C469.123 252.751 470.204 253.832 470.204 255.153Z" fill="#FF9501"/>
<path d="M478.131 255.153C478.131 256.474 477.05 257.555 475.729 257.555C474.408 257.555 473.327 256.474 473.327 255.153C473.327 253.832 474.408 252.751 475.729 252.751C477.05 252.751 478.131 253.832 478.131 255.153Z" fill="#FF9501"/>
<path d="M485.938 255.153C485.938 256.474 484.857 257.555 483.536 257.555C482.214 257.555 481.134 256.474 481.134 255.153C481.134 253.832 482.214 252.751 483.536 252.751C484.857 252.751 485.938 253.832 485.938 255.153Z" fill="#FF9501"/>
<path d="M446.304 238.337H444.982V257.555H446.304V238.337Z" fill="#263238"/>
<path d="M469.483 209.871H306.023V218.999H469.483V209.871Z" fill="#37474F"/>
<path d="M307.704 468.354H289.449V486.611H307.704V468.354Z" fill="#263238"/>
<path d="M31.467 279.296V262H34.2294V279.296H31.467Z" fill="#263238"/>
<path d="M40.715 267.165V279.296H37.9526V262H40.1145L49.963 274.492V262H52.8454V279.296H50.5635L40.715 267.165Z" fill="#263238"/>
<path d="M69.4197 264.402H63.6548V279.296H60.8924V264.402H55.1274V262H69.4197V264.402Z" fill="#263238"/>
<path d="M83.5919 276.894V279.296H71.7017V262H83.3517V264.402H74.464V269.327H82.1506V271.609H74.464V276.894H83.5919Z" fill="#263238"/>
<path d="M86.3542 279.296V262H93.9207C94.6414 262 95.362 262.12 96.0826 262.48C96.6831 262.841 97.2836 263.201 97.7641 263.802C98.2445 264.282 98.6048 264.883 98.845 265.603C99.0852 266.324 99.2053 266.925 99.2053 267.645C99.2053 268.246 99.0852 268.846 98.9651 269.327C98.845 269.807 98.6048 270.408 98.2445 270.768C98.0043 271.249 97.6439 271.609 97.1635 271.969C96.6831 272.33 96.3228 272.57 95.7223 272.69L99.8058 279.296H96.6831L92.9599 273.291H88.9965V279.296H86.3542ZM89.1166 270.888H93.9207C94.2811 270.888 94.6414 270.768 95.0017 270.648C95.362 270.528 95.6022 270.288 95.8424 269.927C96.0826 269.687 96.2027 269.327 96.3228 268.846C96.4429 268.486 96.563 268.006 96.563 267.645C96.563 267.165 96.4429 266.805 96.3228 266.444C96.2027 266.084 95.9625 265.724 95.7223 265.363C95.4821 265.123 95.1218 264.883 94.8816 264.642C94.5213 264.522 94.161 264.402 93.8006 264.402H89.1166V270.888Z" fill="#263238"/>
<path d="M105.21 267.165V279.296H102.448V262H104.61L114.458 274.492V262H117.221V279.296H114.939L105.21 267.165Z" fill="#263238"/>
<path d="M126.228 262H128.631L135.476 279.296H132.594L130.792 274.612H124.067L122.265 279.296H119.383L126.228 262ZM130.192 272.57L127.429 265.123L124.547 272.57H130.192Z" fill="#263238"/>
<path d="M137.518 279.296V262H140.28V276.894H149.528V279.296H137.518Z" fill="#263238"/>
<path d="M167.424 266.084C167.304 265.964 167.064 265.723 166.703 265.483C166.343 265.243 165.983 265.123 165.622 264.883C165.262 264.763 164.782 264.522 164.301 264.402C163.821 264.282 163.34 264.282 162.74 264.282C161.539 264.282 160.698 264.522 160.218 264.883C159.617 265.363 159.377 265.844 159.377 266.684C159.377 267.165 159.497 267.405 159.617 267.765C159.737 268.006 160.098 268.246 160.458 268.486C160.818 268.726 161.299 268.846 161.779 268.967C162.26 269.087 162.98 269.327 163.701 269.447C164.541 269.687 165.382 269.927 166.103 270.168C166.823 270.408 167.424 270.768 167.904 271.129C168.385 271.489 168.745 271.969 168.985 272.45C169.225 272.93 169.346 273.651 169.346 274.492C169.346 275.333 169.226 276.173 168.865 276.774C168.505 277.374 168.024 277.975 167.544 278.335C166.944 278.696 166.343 279.056 165.502 279.176C164.782 279.416 163.941 279.416 163.1 279.416C161.779 279.416 160.458 279.176 159.257 278.816C158.056 278.455 156.975 277.855 155.894 277.134L157.095 274.852C157.335 275.092 157.575 275.333 158.056 275.573C158.416 275.813 158.897 276.053 159.497 276.293C159.978 276.534 160.578 276.654 161.179 276.894C161.779 277.014 162.38 277.134 163.1 277.134C164.181 277.134 165.022 276.894 165.622 276.534C166.223 276.173 166.463 275.573 166.463 274.852C166.463 274.372 166.343 274.011 166.103 273.771C165.863 273.531 165.622 273.171 165.142 273.05C164.782 272.81 164.181 272.69 163.701 272.45C163.1 272.33 162.5 272.089 161.659 271.849C160.818 271.609 160.098 271.369 159.377 271.129C158.777 270.888 158.176 270.528 157.816 270.168C157.335 269.807 157.095 269.447 156.855 268.967C156.615 268.486 156.495 267.886 156.495 267.285C156.495 266.444 156.615 265.724 156.975 265.003C157.335 264.402 157.696 263.802 158.296 263.321C158.897 262.841 159.497 262.48 160.338 262.36C161.058 262.12 161.899 262 162.86 262C164.061 262 165.142 262.24 166.103 262.601C167.064 262.961 167.904 263.441 168.745 264.042L167.424 266.084Z" fill="#263238"/>
<path d="M183.878 276.894V279.296H171.988V262H183.638V264.402H174.75V269.327H182.437V271.609H174.75V276.894H183.878Z" fill="#263238"/>
<path d="M186.76 279.296V262H194.327C195.048 262 195.768 262.12 196.489 262.48C197.089 262.841 197.69 263.201 198.17 263.802C198.651 264.282 199.011 264.883 199.251 265.603C199.491 266.324 199.612 266.925 199.612 267.645C199.612 268.246 199.491 268.846 199.371 269.327C199.251 269.807 199.011 270.408 198.651 270.768C198.411 271.249 198.05 271.609 197.57 271.969C197.089 272.33 196.729 272.57 196.129 272.69L200.212 279.296H197.089L193.366 273.291H189.403V279.296H186.76ZM189.403 270.888H194.207C194.567 270.888 194.928 270.768 195.288 270.648C195.648 270.528 195.888 270.288 196.129 269.927C196.369 269.687 196.489 269.327 196.609 268.846C196.729 268.486 196.849 268.006 196.849 267.645C196.849 267.165 196.729 266.805 196.609 266.444C196.489 266.084 196.249 265.724 196.008 265.363C195.768 265.123 195.408 264.883 195.168 264.642C194.807 264.522 194.447 264.402 194.087 264.402H189.403V270.888Z" fill="#263238"/>
<path d="M203.455 262L208.619 275.813L213.784 262H216.666L209.7 279.296H207.418L200.452 262H203.455Z" fill="#263238"/>
<path d="M230.718 276.894V279.296H218.828V262H230.478V264.402H221.591V269.327H229.277V271.609H221.591V276.894H230.718Z" fill="#263238"/>
<path d="M233.601 279.296V262H241.167C241.888 262 242.609 262.12 243.329 262.48C243.93 262.841 244.53 263.201 245.011 263.802C245.491 264.282 245.851 264.883 246.092 265.603C246.332 266.324 246.452 266.925 246.452 267.645C246.452 268.246 246.332 268.846 246.212 269.327C246.092 269.807 245.851 270.408 245.491 270.768C245.251 271.249 244.891 271.609 244.41 271.969C243.93 272.33 243.569 272.57 242.969 272.69L247.052 279.296H243.93L240.207 273.291H236.243V279.296H233.601ZM236.243 270.888H241.047C241.408 270.888 241.768 270.768 242.128 270.648C242.488 270.528 242.729 270.288 242.969 269.927C243.209 269.687 243.329 269.327 243.449 268.846C243.569 268.486 243.69 268.006 243.69 267.645C243.69 267.165 243.569 266.805 243.449 266.444C243.329 266.084 243.089 265.724 242.849 265.363C242.609 265.123 242.248 264.883 242.008 264.642C241.648 264.522 241.287 264.402 240.927 264.402H236.243V270.888Z" fill="#263238"/>
<path d="M114.338 302.358V305.841H102.208V288.545H114.098V292.028H106.171V295.391H113.017V298.634H106.171V302.358H114.338Z" fill="#263238"/>
<path d="M116.86 305.841V288.545H124.667C125.508 288.545 126.228 288.665 126.949 289.025C127.67 289.386 128.27 289.866 128.751 290.347C129.231 290.947 129.591 291.548 129.952 292.268C130.192 292.989 130.432 293.71 130.432 294.43C130.432 294.911 130.312 295.511 130.192 295.992C130.072 296.472 129.831 296.953 129.591 297.433C129.351 297.914 129.111 298.274 128.751 298.634C128.39 298.995 128.03 299.235 127.55 299.475L131.393 305.961H126.829L123.466 300.436H120.824V305.961H116.86V305.841ZM120.824 296.833H124.427C124.907 296.833 125.268 296.592 125.628 296.112C125.988 295.632 126.108 295.151 126.108 294.43C126.108 293.71 125.868 293.109 125.508 292.749C125.147 292.268 124.667 292.148 124.187 292.148H120.704V296.833H120.824Z" fill="#263238"/>
<path d="M133.074 305.841V288.545H140.881C141.722 288.545 142.442 288.665 143.163 289.025C143.884 289.386 144.484 289.866 144.964 290.347C145.445 290.947 145.805 291.548 146.165 292.268C146.406 292.989 146.646 293.71 146.646 294.43C146.646 294.911 146.526 295.511 146.406 295.992C146.286 296.472 146.045 296.953 145.805 297.433C145.565 297.914 145.325 298.274 144.964 298.634C144.604 298.995 144.244 299.235 143.763 299.475L147.607 305.961H143.043L139.68 300.436H137.038V305.961H133.074V305.841ZM137.158 296.833H140.761C141.241 296.833 141.602 296.592 141.962 296.112C142.322 295.632 142.442 295.151 142.442 294.43C142.442 293.71 142.202 293.109 141.842 292.749C141.481 292.268 141.001 292.148 140.521 292.148H137.038V296.833H137.158Z" fill="#263238"/>
<path d="M156.975 305.961C155.654 305.961 154.573 305.721 153.492 305.241C152.411 304.76 151.57 304.04 150.85 303.199C150.129 302.358 149.528 301.397 149.168 300.436C148.808 299.355 148.568 298.274 148.568 297.193C148.568 296.112 148.808 294.911 149.168 293.95C149.649 292.869 150.249 291.908 150.97 291.187C151.69 290.347 152.651 289.746 153.732 289.266C154.813 288.785 155.894 288.545 157.215 288.545C158.536 288.545 159.617 288.785 160.698 289.266C161.779 289.746 162.62 290.467 163.34 291.308C164.061 292.148 164.661 293.109 165.022 294.19C165.382 295.271 165.622 296.352 165.622 297.433C165.622 298.514 165.382 299.715 165.022 300.676C164.541 301.757 163.941 302.718 163.22 303.439C162.5 304.28 161.539 304.88 160.458 305.361C159.377 305.721 158.296 305.961 156.975 305.961ZM152.531 297.193C152.531 297.914 152.651 298.514 152.771 299.115C153.011 299.715 153.252 300.316 153.612 300.796C153.972 301.277 154.453 301.637 155.053 301.998C155.654 302.238 156.254 302.478 156.975 302.478C157.695 302.478 158.416 302.358 159.017 301.998C159.617 301.637 160.098 301.277 160.458 300.796C160.818 300.316 161.058 299.715 161.299 299.115C161.539 298.514 161.539 297.794 161.539 297.193C161.539 296.472 161.419 295.872 161.299 295.271C161.058 294.671 160.818 294.07 160.458 293.59C160.098 293.109 159.617 292.749 159.017 292.389C158.416 292.148 157.816 291.908 157.095 291.908C156.374 291.908 155.654 292.028 155.053 292.389C154.453 292.749 153.972 293.109 153.612 293.59C153.252 294.07 152.891 294.671 152.771 295.271C152.531 295.992 152.531 296.593 152.531 297.193Z" fill="#263238"/>
<path d="M167.904 305.841V288.545H175.711C176.552 288.545 177.272 288.665 177.993 289.025C178.714 289.386 179.314 289.866 179.795 290.347C180.275 290.947 180.635 291.548 180.996 292.268C181.236 292.989 181.476 293.71 181.476 294.43C181.476 294.911 181.356 295.511 181.236 295.992C181.116 296.472 180.875 296.953 180.635 297.433C180.395 297.914 180.155 298.274 179.795 298.634C179.434 298.995 179.074 299.235 178.593 299.475L182.437 305.961H177.873L174.51 300.436H171.868V305.961H167.904V305.841ZM171.868 296.833H175.471C175.951 296.833 176.312 296.592 176.672 296.112C177.032 295.632 177.152 295.151 177.152 294.43C177.152 293.71 176.912 293.109 176.552 292.749C176.191 292.268 175.711 292.148 175.231 292.148H171.748V296.833H171.868Z" fill="#263238"/>
<path d="M55.1275 143.088V169.753C56.929 167.111 59.5713 165.069 62.9342 163.628C64.7357 162.907 66.7775 162.547 69.1795 162.547C77.3466 162.547 83.4718 165.429 87.3151 171.195C90.678 176.119 92.3595 183.206 92.3595 192.214V219C92.3595 228.248 89.477 235.695 83.5919 241.581C78.0672 247.226 70.9811 250.109 62.5739 250.109C54.4068 250.109 47.561 247.106 42.1563 241.22C36.9919 235.575 34.3496 228.609 34.3496 220.441V217.438L52.245 215.997L52.6053 220.321C53.0857 225.245 55.1275 228.609 58.6105 230.29C59.6914 230.771 60.7723 231.131 61.9733 231.131C69.66 231.131 73.5033 227.167 73.5033 219.12V188.731C73.5033 185.128 72.1821 182.125 69.5398 179.723C68.2187 178.642 66.5373 178.041 64.2553 178.041C60.8924 178.041 58.4904 179.362 56.929 181.885C55.6079 184.167 54.8873 186.569 54.8873 188.971V192.335H36.3914V124.23H91.2785V143.088H55.1275Z" fill="#721B65"/>
<path d="M167.664 220.321C167.664 228.609 164.782 235.575 158.897 241.341C153.132 247.106 146.046 249.989 137.999 249.989C129.712 249.989 122.746 247.106 116.981 241.341C111.216 235.575 108.333 228.609 108.333 220.321V152.457C108.333 144.169 111.216 137.203 117.101 131.437C122.866 125.672 129.952 122.789 138.119 122.789C146.406 122.789 153.372 125.672 159.137 131.557C164.902 137.323 167.784 144.409 167.784 152.577V220.321H167.664ZM148.208 152.097C148.208 149.094 147.127 146.571 145.085 144.409C142.923 142.247 140.401 141.286 137.398 141.286C134.396 141.286 131.873 142.367 129.832 144.409C127.79 146.571 126.709 149.094 126.709 152.097V220.081C126.709 223.083 127.79 225.606 129.832 227.768C131.873 229.93 134.396 230.891 137.398 230.891C140.401 230.891 142.923 229.81 145.085 227.768C147.247 225.606 148.208 223.083 148.208 220.081V152.097Z" fill="#721B65"/>
<path d="M243.209 220.321C243.209 228.609 240.327 235.575 234.442 241.341C228.677 247.106 221.591 249.989 213.544 249.989C205.257 249.989 198.291 247.106 192.526 241.341C186.761 235.575 183.878 228.609 183.878 220.321V152.457C183.878 144.169 186.761 137.203 192.646 131.437C198.411 125.672 205.497 122.789 213.664 122.789C221.951 122.789 228.917 125.672 234.682 131.557C240.447 137.323 243.329 144.409 243.329 152.577V220.321H243.209ZM223.752 152.097C223.752 149.094 222.672 146.571 220.63 144.409C218.468 142.247 215.946 141.286 212.943 141.286C209.941 141.286 207.418 142.367 205.377 144.409C203.335 146.571 202.254 149.094 202.254 152.097V220.081C202.254 223.083 203.335 225.606 205.377 227.768C207.418 229.93 209.941 230.891 212.943 230.891C215.946 230.891 218.468 229.81 220.63 227.768C222.792 225.606 223.752 223.083 223.752 220.081V152.097Z" fill="#721B65"/>
<path d="M39.8742 431.839H7.92676V463.789H39.8742V431.839Z" fill="#37474F"/>
<path d="M23.9004 458.505C29.8038 458.505 34.5896 453.719 34.5896 447.815C34.5896 441.911 29.8038 437.125 23.9004 437.125C17.9969 437.125 13.2112 441.911 13.2112 447.815C13.2112 453.719 17.9969 458.505 23.9004 458.505Z" fill="#455A64"/>
<path d="M21.9787 443.49H19.5767V452.259H21.9787V443.49Z" fill="#263238"/>
<path d="M28.5844 443.49H26.1824V452.259H28.5844V443.49Z" fill="#263238"/>
<path d="M0 513.396L64.015 513.036H128.03L255.94 512.795L383.97 513.036H447.985L512 513.396L447.985 513.636L383.97 513.756L255.94 513.997L128.03 513.756L64.015 513.636L0 513.396Z" fill="#263238"/>
<path d="M109.534 483.248C110.735 485.77 106.171 504.027 104.73 507.751C103.289 511.474 98.2446 532.374 95.8425 533.335C93.4405 534.296 81.5502 533.935 79.8688 533.335C78.1873 532.734 79.8688 529.131 81.7904 527.93C83.7121 526.729 85.9941 524.807 85.9941 524.807C85.9941 524.807 82.5111 492.496 83.1116 488.893C83.8322 485.17 106.412 476.401 109.534 483.248Z" fill="#FF9501"/>
<path opacity="0.1" d="M109.534 483.248C110.735 485.77 106.171 504.027 104.73 507.751C103.289 511.474 98.2446 532.374 95.8425 533.335C93.4405 534.296 81.5502 533.935 79.8688 533.335C78.1873 532.734 79.8688 529.131 81.7904 527.93C83.7121 526.729 85.9941 524.807 85.9941 524.807C85.9941 524.807 82.5111 492.496 83.1116 488.893C83.8322 485.17 106.412 476.401 109.534 483.248Z" fill="black"/>
<path opacity="0.1" d="M84.6728 532.014C84.7929 531.413 85.0331 530.692 85.3935 530.212C85.7538 529.731 86.2342 529.251 86.7146 528.77C87.195 528.41 87.7955 528.05 88.396 527.93C88.5161 527.93 88.5161 528.05 88.5161 528.05C88.2759 528.29 88.0357 528.41 87.9156 528.65C87.6754 528.891 87.4352 529.011 87.3151 529.251C86.9548 529.731 86.5945 530.092 86.3543 530.692C86.1141 531.173 85.7538 531.653 85.5136 532.254C85.2734 532.734 85.1532 533.335 84.913 533.935C84.913 534.055 84.6728 534.055 84.6728 533.935C84.5527 533.215 84.5527 532.614 84.6728 532.014Z" fill="black"/>
<path opacity="0.1" d="M81.3101 530.092C81.9106 528.891 82.9915 528.05 84.1926 527.569C84.3127 527.569 84.3127 527.689 84.3127 527.689C83.4719 528.41 82.6312 529.251 82.0307 530.332C81.4302 531.413 81.19 532.614 81.5503 533.815C81.5503 533.815 81.5503 533.935 81.4302 533.815C80.7096 532.614 80.5895 531.173 81.3101 530.092Z" fill="black"/>
<path opacity="0.1" d="M84.1925 506.67L100.527 522.164C102.328 516.279 104.01 509.793 104.73 507.871C106.171 504.147 110.735 485.89 109.654 483.368C106.532 476.521 83.8322 485.29 83.2317 488.893C82.8714 490.574 83.4719 498.622 84.1925 506.67Z" fill="black"/>
<path d="M171.267 501.505C171.988 502.105 178.353 496.1 179.314 493.217C180.275 490.334 176.191 482.287 176.912 480.966C177.633 479.644 181.116 478.443 183.037 480.605C184.839 482.767 189.523 494.178 188.562 499.103C187.601 504.027 177.633 515.078 176.672 514.957C175.591 514.957 171.267 501.505 171.267 501.505Z" fill="#FF9501"/>
<path opacity="0.1" d="M171.267 501.505C171.267 501.505 175.591 514.957 176.672 514.957C177.392 514.957 182.917 509.072 186.16 504.027L177.152 496.46C174.87 499.223 171.627 501.985 171.267 501.505Z" fill="black"/>
<path d="M134.876 446.013H81.55C81.55 446.013 77.5866 481.086 78.067 485.77C78.5474 490.454 101.968 524.807 109.174 529.251C116.5 533.815 158.176 533.935 168.385 531.653C176.311 529.972 182.917 519.882 179.554 504.267C178.113 497.421 159.617 481.326 156.975 478.203C154.453 475.2 134.876 446.013 134.876 446.013Z" fill="#C7C7C7"/>
<path d="M78.0671 485.77C78.5475 490.454 101.968 524.807 109.174 529.251C116.5 533.815 158.176 533.935 168.385 531.653C176.312 529.852 182.917 519.762 179.554 504.267C178.113 497.421 159.617 481.326 156.975 478.203C155.414 476.281 147.487 464.63 141.482 455.862C137.758 450.337 134.756 445.893 134.756 445.893H81.5501C81.5501 445.893 80.5893 454.661 79.6284 464.03C78.6676 473.519 77.8269 483.368 78.0671 485.77Z" fill="#FF9501"/>
<path opacity="0.1" d="M79.6284 464.15C108.333 473.038 133.795 460.426 141.602 455.862C137.878 450.337 134.876 445.893 134.876 445.893H81.5501C81.5501 446.013 80.5892 454.781 79.6284 464.15Z" fill="black"/>
<path d="M169.466 502.585C169.466 502.585 154.813 493.337 144.484 495.018C134.155 496.7 130.552 517.84 135.476 529.731C135.476 529.731 126.108 532.494 126.108 537.058C126.108 539.7 131.513 540.421 139.2 540.301C146.886 540.061 162.38 539.941 162.62 538.019C162.98 536.097 161.659 533.334 161.659 533.334C161.659 533.334 175.591 531.773 178.233 522.524C180.996 513.396 171.748 504.147 169.466 502.585Z" fill="#FF9501"/>
<path opacity="0.1" d="M149.408 530.812C153.252 532.494 157.575 533.334 161.779 533.575C161.899 533.575 161.899 533.695 161.779 533.695C157.335 534.175 153.132 533.094 149.408 530.812C149.288 530.932 149.288 530.812 149.408 530.812Z" fill="black"/>
<path opacity="0.1" d="M132.113 540.421C132.474 538.619 133.915 537.298 135.356 536.337C136.197 535.737 137.158 535.256 138.119 535.016C139.2 534.656 140.401 534.416 141.482 534.055C141.602 534.055 141.602 534.175 141.602 534.175C140.641 534.536 139.68 535.016 138.839 535.497C137.999 535.977 137.038 536.457 136.197 537.058C134.756 538.019 133.675 539.34 132.594 540.661C132.354 540.661 131.993 540.541 132.113 540.421Z" fill="black"/>
<path opacity="0.1" d="M134.035 533.094C134.155 533.094 134.155 533.214 134.035 533.214C131.153 534.295 128.991 536.818 127.67 539.46C127.67 539.58 127.429 539.58 127.429 539.46C127.79 536.097 130.672 533.575 134.035 533.094Z" fill="black"/>
<path opacity="0.1" d="M129.471 532.494C129.351 532.494 129.471 532.494 129.471 532.494C129.831 532.494 132.354 530.692 135.356 529.851C135.596 530.212 135.837 530.692 136.077 531.052C136.077 531.172 136.197 531.052 136.197 530.932C134.395 527.209 133.675 523.125 133.675 519.041C133.675 516.879 133.795 514.717 134.035 512.555C134.636 508.711 135.716 504.988 137.518 501.745C138.599 499.703 140.04 497.661 142.082 496.58C144.004 495.379 146.526 495.259 148.928 495.379C151.33 495.499 153.732 495.979 156.014 496.7C158.296 497.301 160.698 498.141 162.86 499.102C158.536 496.82 153.972 495.018 148.928 494.418C146.406 494.178 143.883 494.298 141.481 495.619C139.199 496.94 137.638 499.102 136.437 501.144C134.155 505.588 132.954 510.513 132.714 515.438C132.714 516.038 132.714 516.639 132.714 517.119C132.714 517.84 132.714 518.681 132.714 519.401C132.834 523.005 133.555 526.488 135.236 529.611C132.594 530.212 131.032 530.932 129.471 532.494Z" fill="black"/>
<path d="M126.829 487.812C128.03 490.335 123.466 508.592 122.025 512.315C120.584 516.039 115.539 536.938 113.137 537.899C110.735 538.86 98.8449 538.5 97.1635 537.899C95.482 537.299 97.1635 533.695 99.0851 532.494C101.007 531.293 103.289 529.371 103.289 529.371C103.289 529.371 99.8057 497.061 100.406 493.458C101.007 489.734 123.706 480.966 126.829 487.812Z" fill="#FF9501"/>
<path opacity="0.1" d="M118.782 522.405C119.863 519.162 121.304 515.919 122.385 512.676C122.385 512.555 122.625 512.555 122.625 512.796C121.785 515.438 121.184 518.201 120.344 520.843C120.464 520.603 120.584 520.483 120.704 520.243C121.424 519.162 122.265 518.081 122.625 516.88C122.625 516.759 122.866 516.759 122.866 517C122.746 517.6 122.385 518.081 122.145 518.561C121.785 519.162 121.545 519.762 121.184 520.363C120.824 521.083 120.344 521.924 119.863 522.645V522.765C118.782 526.128 117.701 529.371 116.26 532.494C116.14 532.614 115.9 532.614 116.02 532.374C116.62 529.011 117.701 525.768 118.782 522.405Z" fill="black"/>
<path opacity="0.1" d="M99.926 498.502C99.926 498.382 100.046 498.382 100.046 498.502C100.406 500.904 100.527 503.427 100.767 505.829C101.007 508.351 101.367 510.994 101.607 513.516C102.208 518.561 103.049 523.606 103.409 528.771C103.409 529.011 103.049 529.011 102.929 528.771C101.607 523.846 101.007 518.801 100.406 513.757C100.166 511.234 99.926 508.712 99.8059 506.31C99.926 503.787 99.8059 501.145 99.926 498.502Z" fill="black"/>
<path opacity="0.1" d="M101.367 536.218C101.487 535.617 101.728 534.896 102.088 534.416C102.448 533.935 102.929 533.455 103.409 532.975C103.889 532.614 104.49 532.254 105.09 532.134C105.211 532.134 105.211 532.254 105.211 532.254C104.97 532.494 104.73 532.614 104.61 532.854C104.37 533.095 104.13 533.215 104.009 533.455C103.649 533.935 103.289 534.296 103.049 534.896C102.808 535.377 102.448 535.857 102.208 536.458C101.968 536.938 101.848 537.539 101.607 538.139C101.607 538.26 101.367 538.26 101.367 538.139C101.127 537.539 101.247 536.818 101.367 536.218Z" fill="black"/>
<path opacity="0.1" d="M97.8842 534.296C98.4847 533.095 99.5656 532.254 100.767 531.773C100.887 531.773 100.887 531.894 100.887 531.894C100.046 532.614 99.2053 533.455 98.6048 534.536C98.0043 535.617 97.764 536.818 98.1244 538.019C98.1244 538.019 98.1244 538.139 98.0043 538.019C97.2836 536.938 97.2836 535.497 97.8842 534.296Z" fill="black"/>
<path d="M101.968 397.127C102.568 394.965 97.2837 387.518 95.2419 385.115C93.2002 382.593 82.1507 378.87 78.6677 380.791C77.2264 381.512 74.7043 386.797 71.2213 391.481C65.8166 398.568 59.5713 406.135 61.8532 408.057C67.378 412.982 79.9888 405.294 84.0723 402.652C88.1558 400.009 91.879 396.886 92.96 397.007C94.2811 397.127 97.0435 399.289 98.1244 399.409C100.887 399.649 101.968 397.127 101.968 397.127Z" fill="#FF9501"/>
<path opacity="0.1" d="M101.968 397.127C102.568 394.965 97.2837 387.518 95.2419 385.115C93.2002 382.593 82.1507 378.87 78.6677 380.791C77.2264 381.512 74.7043 386.797 71.2213 391.481C65.8166 398.568 59.5713 406.135 61.8532 408.057C67.378 412.982 79.9888 405.294 84.0723 402.652C88.1558 400.009 91.879 396.886 92.96 397.007C94.2811 397.127 97.0435 399.289 98.1244 399.409C100.887 399.649 101.968 397.127 101.968 397.127Z" fill="black"/>
<path d="M127.429 389.68C140.281 397.367 146.045 417.906 146.406 421.149C146.646 423.792 152.891 433.281 151.69 443.49C150.97 449.976 139.32 458.624 129.711 458.624C127.91 458.624 113.017 464.029 100.526 463.189C87.9155 462.228 78.4274 453.339 78.0671 452.619C77.7067 451.898 67.498 450.337 66.8975 439.887C65.8165 423.071 82.9913 394.484 87.9155 390.64C95.9624 384.154 118.662 384.395 127.429 389.68Z" fill="#FF9501"/>
<path d="M121.424 398.568C121.184 396.286 127.91 389.44 130.312 387.158C132.834 384.875 144.845 382.833 148.208 385.356C149.529 386.317 151.33 392.322 154.093 397.607C158.536 405.895 163.701 414.663 161.059 416.465C154.453 420.669 142.683 410.58 138.839 407.096C134.996 403.733 131.633 399.889 130.552 399.769C129.111 399.649 125.988 401.451 124.787 401.331C122.145 401.331 121.424 398.568 121.424 398.568Z" fill="#FF9501"/>
<path opacity="0.1" d="M121.424 398.568C121.184 396.286 127.91 389.44 130.312 387.158C132.834 384.875 144.845 382.833 148.208 385.356C149.529 386.317 151.33 392.322 154.093 397.607C158.536 405.895 163.701 414.663 161.059 416.465C154.453 420.669 142.683 410.58 138.839 407.096C134.996 403.733 131.633 399.889 130.552 399.769C129.111 399.649 125.988 401.451 124.787 401.331C122.145 401.331 121.424 398.568 121.424 398.568Z" fill="black"/>
<path opacity="0.1" d="M97.764 427.275C105.691 427.395 109.294 435.803 110.255 437.965C111.216 440.127 116.14 445.172 116.26 450.457C116.38 455.742 106.411 461.627 95.8424 459.705C85.2733 457.904 79.7485 451.898 79.7485 446.613C79.7485 442.289 83.832 438.566 84.3125 437.485C84.7929 436.403 90.6779 427.275 97.764 427.275Z" fill="black"/>
<path opacity="0.1" d="M117.221 442.169C118.302 443.37 119.142 444.691 119.863 446.133C120.584 447.574 121.184 449.135 121.424 450.697C121.665 452.258 121.665 454.06 120.944 455.622C120.584 456.342 120.103 457.063 119.383 457.543C118.662 458.024 117.941 458.384 117.221 458.624C118.542 457.784 119.623 456.582 119.983 455.141C120.463 453.82 120.463 452.258 120.223 450.817C119.983 449.376 119.503 447.814 119.022 446.373C118.542 445.052 117.941 443.61 117.221 442.169Z" fill="black"/>
<path opacity="0.1" d="M81.0697 439.046C80.3491 439.887 79.7486 440.727 79.1481 441.568C78.5476 442.409 77.947 443.25 77.5867 444.211C77.2264 445.172 76.9862 446.012 76.8661 447.093C76.8661 448.054 77.1063 449.015 77.4666 450.096C76.746 449.376 76.1455 448.295 76.0254 447.093C75.9053 445.892 76.1455 444.811 76.5058 443.73C76.9862 442.649 77.5867 441.808 78.4275 440.968C79.1481 440.127 79.9888 439.526 81.0697 439.046Z" fill="black"/>
<path d="M204.536 552.193C191.565 552.193 177.272 551.952 162.98 551.712C155.534 551.592 149.769 551.472 146.046 551.472C127.43 551.472 122.025 527.449 116.86 504.267C116.14 501.024 115.419 497.781 114.699 494.658C113.257 488.413 111.936 482.167 110.855 476.161C107.252 457.423 104.009 441.208 95.7223 440.367C84.7929 439.166 75.0645 455.502 71.5815 480.966L69.1794 480.605C72.9026 453.7 83.7119 436.524 95.9625 437.965C105.931 439.046 109.294 455.982 113.137 475.681C114.338 481.686 115.539 487.932 116.981 494.058C117.701 497.301 118.422 500.544 119.142 503.787C124.307 527.089 129.231 549.07 146.046 549.07C149.769 549.07 155.534 549.19 162.98 549.31C179.194 549.67 201.413 550.03 220.269 549.67C250.775 549.07 254.379 546.667 254.739 545.947C254.739 540.902 222.551 534.896 210.421 532.614C198.17 530.332 197.69 530.212 197.81 528.77C197.93 527.449 199.491 527.449 201.653 527.449H251.977C267.83 527.449 272.875 504.748 275.877 491.175C276.718 487.332 277.438 484.209 278.159 482.647C281.642 475.32 290.65 476.401 291.01 476.401L290.65 478.803C290.289 478.803 283.083 477.963 280.321 483.728C279.72 485.049 279 488.172 278.159 491.776C274.916 506.069 269.632 529.972 251.856 529.972H208.139C208.98 530.092 209.82 530.332 210.661 530.452C239.966 535.977 257.021 540.301 257.021 546.187C257.021 546.667 256.901 547.268 256.3 547.868C252.817 551.232 231.679 552.193 204.536 552.193Z" fill="#263238"/>
<path d="M77.9595 479.128L63.2134 478.244L62.6819 487.116L77.428 488L77.9595 479.128Z" fill="#455A64"/>
<path d="M75.3797 476.195L66.1484 475.642L65.9833 478.4L75.2146 478.953L75.3797 476.195Z" fill="#37474F"/>
<path d="M67.5788 487.384L65.9004 487.284L65.4982 493.998L67.1767 494.098L67.5788 487.384Z" fill="#FF9501"/>
<path d="M74.1867 487.741L72.5083 487.641L72.1061 494.355L73.7846 494.455L74.1867 487.741Z" fill="#FF9501"/>
<path d="M295.717 470.093V484.867H302.203V470.093H295.717Z" fill="#455A64"/>
<path d="M290.491 472.794V482.043H295.656V472.794H290.491Z" fill="#37474F"/>
<path d="M87.7957 440.127C87.7957 440.127 90.9183 443.731 92.1194 443.01C93.3204 442.289 96.323 435.083 96.323 435.083C96.323 435.083 97.0436 444.211 99.4457 444.451C101.848 444.692 105.811 441.088 105.811 441.088L96.323 434.482L87.7957 440.127Z" fill="#FF9501"/>
<path opacity="0.1" d="M87.7957 440.127C87.7957 440.127 90.9183 443.731 92.1194 443.01C93.3204 442.289 96.323 435.083 96.323 435.083C96.323 435.083 97.0436 444.211 99.4457 444.451C101.848 444.692 105.811 441.088 105.811 441.088L96.323 434.482L87.7957 440.127Z" fill="black"/>
<path opacity="0.1" d="M134.275 428.837C135.236 425.954 135.476 422.831 135.236 419.828C135.116 418.267 134.756 416.705 134.155 415.264C133.915 414.543 133.435 413.822 132.954 413.102C132.474 412.381 131.993 411.781 131.393 411.18C131.033 410.94 130.792 410.699 130.432 410.339C130.072 410.099 129.712 409.859 129.351 409.739L128.871 409.378L128.27 409.138C127.91 409.018 127.55 408.778 127.069 408.658C125.508 408.177 123.826 408.057 122.265 408.177C119.142 408.417 116.14 409.739 113.738 411.54C116.62 410.579 119.503 409.859 122.265 409.979C123.706 410.099 125.027 410.219 126.349 410.699C126.709 410.82 126.949 410.94 127.309 411.06L127.79 411.3L128.27 411.54C128.51 411.78 128.871 411.901 129.111 412.021C129.351 412.261 129.591 412.381 129.832 412.621C130.792 413.462 131.633 414.663 132.114 415.864C132.714 417.065 133.074 418.507 133.435 419.828C134.035 422.831 134.275 425.834 134.275 428.837Z" fill="black"/>
<path opacity="0.1" d="M75.6652 422.711C75.9054 420.189 76.2657 417.666 76.9863 415.264C77.7069 412.982 78.9079 410.82 80.7095 409.498C81.1899 409.138 81.6703 408.898 82.1507 408.658C82.6311 408.417 83.1116 408.297 83.7121 408.177C84.793 408.057 85.994 408.057 87.1951 408.297C89.5971 408.658 91.9992 409.378 94.5214 410.219C93.5605 409.378 92.4796 408.658 91.2786 408.057C90.6781 407.697 90.0775 407.457 89.477 407.216C88.8765 406.976 88.276 406.736 87.5554 406.616C86.2342 406.255 84.9131 406.015 83.4719 406.135C82.7512 406.255 82.0306 406.376 81.31 406.616C80.5894 406.856 79.9889 407.216 79.3884 407.697C78.1873 408.538 77.3466 409.739 76.626 410.94C76.0255 412.141 75.5451 413.462 75.3048 414.783C74.8244 417.546 74.9445 420.189 75.6652 422.711Z" fill="black"/>
<path d="M114.699 425.113C114.699 424.993 115.059 425.353 114.939 425.473C114.699 429.077 114.939 433.281 118.542 434.602C118.662 434.602 118.662 434.842 118.542 434.842C114.218 434.001 113.858 428.476 114.699 425.113Z" fill="#263238"/>
<path d="M118.422 421.39C124.787 421.269 124.787 432.92 118.902 433.041C113.017 433.281 113.017 421.63 118.422 421.39Z" fill="#263238"/>
<path d="M89.9574 422.23C89.9574 422.11 89.5971 422.351 89.5971 422.471C89.3569 426.074 88.3961 430.158 84.793 430.999C84.6729 430.999 84.6729 431.239 84.793 431.239C89.2368 431.119 90.3177 425.714 89.9574 422.23Z" fill="#263238"/>
<path d="M86.7146 418.146C80.3491 417.065 78.7878 428.716 84.6729 429.677C90.4378 430.638 92.1193 418.987 86.7146 418.146Z" fill="#263238"/>
<path d="M96.2029 434.722C97.2838 435.083 105.211 432.56 104.61 430.158C104.01 427.515 92.84 426.915 91.3987 428.596C90.0776 430.398 95.0018 434.362 96.2029 434.722Z" fill="#263238"/>
<path d="M106.051 440.968C104.73 441.929 103.529 442.77 101.968 443.49C101.247 443.851 100.406 444.091 99.806 444.091C99.3256 444.211 98.9653 443.61 98.725 443.01C98.2446 441.809 98.0044 440.487 97.7642 439.166C97.524 437.845 97.4039 436.524 97.2838 435.203L96.9235 431.599L95.8426 435.203C95.4823 436.284 95.122 437.365 94.7616 438.446C94.4013 439.527 93.9209 440.608 93.3204 441.569C93.2003 441.809 93.0802 442.049 92.84 442.289C92.7199 442.529 92.4797 442.77 92.2395 442.89C92.1194 443.01 91.8792 443.01 91.5189 443.01C91.2786 442.89 90.9183 442.77 90.6781 442.65C89.5972 441.929 88.6364 441.088 87.7957 440.127C88.3962 441.208 89.1168 442.169 90.1977 443.13C90.4379 443.37 90.7982 443.49 91.2787 443.731C91.5189 443.731 91.7591 443.851 91.9993 443.851C92.2395 443.851 92.5998 443.731 92.7199 443.731C93.0802 443.49 93.3204 443.25 93.5606 443.01C93.8008 442.77 94.041 442.529 94.1611 442.289C94.8817 441.208 95.3622 440.127 95.8426 439.046C96.323 437.965 96.6833 436.884 97.0436 435.683L95.6024 435.563C95.7225 436.884 95.8426 438.325 96.2029 439.647C96.323 440.367 96.5632 440.968 96.6833 441.689C96.9235 442.409 97.1637 443.01 97.524 443.731C97.7642 444.091 97.8843 444.451 98.2446 444.691C98.3647 444.812 98.605 445.052 98.8452 445.172C98.9653 445.292 99.2055 445.292 99.3256 445.292C99.5658 445.292 99.5658 445.292 99.806 445.292C100.887 445.172 101.728 444.812 102.448 444.331C103.889 443.13 104.97 442.049 106.051 440.968Z" fill="#263238"/>
<path d="M45.6392 482.527C48.0412 482.287 50.4433 482.407 52.8454 482.527C55.2474 482.647 57.5294 482.888 59.9314 483.488C57.5294 483.729 55.1273 483.608 52.7253 483.488C50.4433 483.248 48.0412 483.008 45.6392 482.527Z" fill="#263238"/>
<path d="M80.229 490.094C82.511 490.815 84.6728 491.896 86.8347 492.857C88.9965 493.938 91.0383 495.139 92.9599 496.46C90.678 495.74 88.5161 494.659 86.3543 493.698C84.3125 492.617 82.2708 491.536 80.229 490.094Z" fill="#263238"/>
<path d="M53.3259 506.67C54.527 504.508 55.8481 502.586 57.2893 500.664C58.7306 498.743 60.1718 496.941 61.9734 495.259C60.7723 497.421 59.4512 499.343 58.01 501.265C56.5687 503.067 55.0074 504.988 53.3259 506.67Z" fill="#263238"/>
<path d="M39.8743 468.354C41.6758 468.955 43.5975 469.675 45.399 470.276C47.2006 470.996 49.0021 471.717 50.8037 472.438C52.6052 473.159 54.4068 473.999 56.0882 474.84C57.8897 475.681 59.5712 476.522 61.2526 477.483C59.4511 476.882 57.5294 476.161 55.7279 475.561C53.9263 474.84 52.1248 474.119 50.3232 473.399C48.5217 472.678 46.7201 471.837 45.0387 470.996C43.2372 470.036 41.5557 469.195 39.8743 468.354Z" fill="#263238"/>
<path d="M82.0305 478.924C83.712 478.083 85.5135 477.362 87.195 476.882C88.9965 476.401 90.798 475.921 92.7197 475.681C91.0383 476.521 89.2367 477.242 87.5553 477.723C85.6336 478.323 83.8321 478.804 82.0305 478.924Z" fill="#263238"/>
<path d="M64.7357 472.918C63.7748 471.357 62.814 469.795 61.9733 468.114C61.1326 466.552 60.2918 464.871 59.4511 463.189C58.6104 461.508 57.8898 459.946 57.0491 458.264C56.3284 456.583 55.6078 454.901 54.8872 453.22C55.848 454.781 56.8089 456.343 57.6496 458.024C58.4903 459.586 59.331 461.267 60.1717 462.949C61.0125 464.63 61.7331 466.192 62.5738 467.874C63.2944 469.435 64.1352 471.117 64.7357 472.918Z" fill="#263238"/>
<path d="M88.9965 510.874C87.9156 509.673 86.9548 508.352 85.9939 507.03C85.0331 505.709 84.0723 504.388 83.1115 503.067C82.1506 501.745 81.3099 500.424 80.4692 498.983C79.6285 497.662 78.7877 496.22 77.947 494.779C79.028 495.98 79.9888 497.301 80.9496 498.622C81.9104 499.944 82.8713 501.265 83.8321 502.586C84.7929 503.907 85.6336 505.229 86.4743 506.67C87.4352 508.111 88.2759 509.433 88.9965 510.874Z" fill="#263238"/>
<path d="M412.074 209.871H312.749L305.062 142.367H404.388L412.074 209.871Z" fill="#A6A6A6"/>
<path d="M406.669 205.307H317.193L310.467 146.932H399.944L406.669 205.307Z" fill="white"/>
<path d="M351.422 177.681L349.981 179.362L335.929 167.231L337.25 165.429L351.422 177.681Z" fill="#721B65"/>
<path d="M347.819 165.429L349.741 167.231L339.532 179.362L337.49 177.681L347.819 165.429Z" fill="#721B65"/>
<path d="M381.448 177.681L380.007 179.362L365.955 167.231L367.396 165.429L381.448 177.681Z" fill="#721B65"/>
<path d="M377.845 165.429L379.887 167.231L369.558 179.362L367.636 177.681L377.845 165.429Z" fill="#721B65"/>
<path d="M334.127 189.331L333.647 186.929H388.294L388.654 189.331H334.127Z" fill="#721B65"/>
<path d="M441.139 205.306H313.469V209.87H441.139V205.306Z" fill="#A6A6A6"/>
<path d="M451.949 205.306H341.213V209.87H451.949V205.306Z" fill="#C7C7C7"/>
<path d="M400.304 149.694L399.944 146.932H310.467L310.827 149.694H400.304Z" fill="#263238"/>
<path d="M318.033 148.373C318.033 148.733 318.394 149.094 318.754 149.094C319.114 149.094 319.354 148.733 319.354 148.373C319.354 148.013 318.994 147.652 318.634 147.652C318.273 147.652 318.033 147.893 318.033 148.373Z" fill="#C7C7C7"/>
<path d="M315.511 148.373C315.511 148.733 315.871 149.094 316.232 149.094C316.592 149.094 316.832 148.733 316.832 148.373C316.832 148.013 316.472 147.652 316.112 147.652C315.631 147.652 315.391 147.893 315.511 148.373Z" fill="white"/>
<path d="M312.869 148.373C312.869 148.733 313.229 149.094 313.59 149.094C313.95 149.094 314.19 148.733 314.19 148.373C314.19 148.013 313.83 147.652 313.469 147.652C313.109 147.652 312.869 147.893 312.869 148.373Z" fill="#721B65"/>
</svg>
