<svg width="913" height="560" viewBox="0 0 913 560" fill="none" xmlns="http://www.w3.org/2000/svg">
<path opacity="0.2" d="M474.362 560C628.91 560 754.196 556.814 754.196 552.885C754.196 548.955 628.91 545.77 474.362 545.77C319.814 545.77 194.528 548.955 194.528 552.885C194.528 556.814 319.814 560 474.362 560Z" fill="#0B2252"/>
<path d="M659.933 27.5589C663.286 24.2017 667.939 22.0972 673.042 22.0972H691.454C694.206 9.47011 705.463 -0.050293 718.872 -0.050293C732.331 -0.050293 743.588 9.42 746.29 22.0972H751.243C756.347 22.0972 761 24.1516 764.352 27.5589C767.704 30.9161 769.806 35.576 769.806 40.687C769.806 46.3491 767.254 51.41 763.251 54.8173C759.999 57.5732 755.846 59.2267 751.243 59.2267H672.992C667.889 59.2267 663.235 57.1723 659.883 53.765C656.531 50.4078 654.43 45.7478 654.43 40.6369C654.48 35.576 656.581 30.9161 659.933 27.5589Z" fill="#E9F3FC"/>
<path d="M434.535 55.5188C431.383 52.362 427.03 50.4078 422.227 50.4078H404.916C402.314 38.5324 391.757 29.6133 379.149 29.6133C366.491 29.6133 355.934 38.5324 353.382 50.4078H348.729C343.926 50.4078 339.573 52.362 336.421 55.5188C333.269 58.6756 331.318 63.0349 331.318 67.8452C331.318 73.1566 333.719 77.9669 337.472 81.1237C340.524 83.7292 344.426 85.2826 348.729 85.2826H422.277C427.081 85.2826 431.433 83.3284 434.585 80.1716C437.737 77.0149 439.689 72.6555 439.689 67.8452C439.639 63.0349 437.687 58.6756 434.535 55.5188Z" fill="#E9F3FC"/>
<path d="M913 291.925V390.687C823.341 375.154 702.812 360.923 561.819 360.923C250.665 360.973 6.60423 430.222 6.60423 430.222C-11.5077 391.439 8.55552 279.749 55.7866 253.643C103.018 227.487 144.045 279.799 181.369 261.109C218.644 242.419 183.771 77.3155 241.058 66.6927C298.346 56.0699 334.37 162.298 404.366 162.298C474.362 162.298 463.755 56.0699 545.608 51.8108C627.462 47.5517 625.311 160.544 674.543 160.544C723.775 160.544 703.812 115.247 781.013 113.894C858.214 112.541 879.478 273.837 912.55 291.625C912.7 291.775 912.85 291.875 913 291.925Z" fill="url(#paint0_linear_6723_43355)"/>
<path d="M193.627 398.253C184.671 398.003 174.915 394.846 175.115 380.415C175.315 365.984 185.772 363.729 186.873 352.956C187.923 342.183 187.973 332.112 193.627 332.011C199.281 331.911 195.678 336.521 198.33 341.532C200.932 346.543 206.035 352.956 205.034 362.276C204.034 371.646 210.688 375.204 210.338 382.87C209.988 390.487 205.235 398.604 193.627 398.253Z" fill="#DAEEFF"/>
<path d="M196.929 361.424C196.779 361.274 196.529 361.274 196.379 361.424C196.229 361.575 196.229 361.825 196.379 361.975C196.379 361.975 198.73 364.331 198.48 372.298C198.28 379.212 194.728 389.885 193.577 393.092C192.526 390.587 191.125 387.831 189.975 385.476C189.174 383.922 188.524 382.519 188.173 381.668C186.822 378.511 188.874 371.947 188.874 371.847C188.924 371.646 188.824 371.396 188.624 371.346C188.424 371.295 188.173 371.396 188.123 371.596C188.023 371.897 185.972 378.511 187.423 381.918C187.773 382.82 188.474 384.173 189.274 385.776C191.375 390.036 194.578 396.449 194.528 398.955C194.477 402.412 194.027 407.423 194.027 407.473C194.027 407.673 194.177 407.874 194.377 407.874C194.377 407.874 194.377 407.874 194.427 407.874C194.628 407.874 194.778 407.724 194.828 407.523C194.828 407.473 195.228 402.462 195.328 398.955C195.328 397.852 194.828 396.099 194.027 394.144C194.528 392.741 199.03 380.114 199.281 372.298C199.531 363.93 197.029 361.524 196.929 361.424Z" fill="#6AC1FF"/>
<path d="M806.73 361.525C799.075 361.274 790.769 358.618 790.97 346.292C791.17 333.966 800.076 332.062 800.976 322.892C801.877 313.672 801.927 305.104 806.73 305.054C811.533 304.953 808.481 308.912 810.733 313.171C812.984 317.43 817.287 322.892 816.487 330.859C815.636 338.826 821.34 341.883 821.04 348.396C820.689 354.91 816.587 361.825 806.73 361.525Z" fill="#DAEEFF"/>
<path d="M809.532 330.107C809.382 329.957 809.182 330.007 809.082 330.107C808.932 330.257 808.982 330.458 809.082 330.558C809.082 330.558 811.083 332.562 810.883 339.377C810.733 345.24 807.681 354.359 806.68 357.115C805.78 354.96 804.629 352.605 803.628 350.601C802.978 349.248 802.377 348.096 802.077 347.344C800.926 344.688 802.678 339.026 802.678 338.976C802.728 338.776 802.628 338.625 802.477 338.575C802.277 338.525 802.127 338.625 802.077 338.776C802.027 339.026 800.276 344.688 801.477 347.595C801.777 348.346 802.377 349.499 803.028 350.852C804.829 354.459 807.531 359.971 807.481 362.076C807.431 365.032 807.08 369.291 807.08 369.341C807.08 369.542 807.18 369.692 807.381 369.692C807.381 369.692 807.381 369.692 807.431 369.692C807.581 369.692 807.731 369.542 807.781 369.391C807.781 369.341 808.131 365.082 808.181 362.126C808.181 361.174 807.731 359.67 807.08 358.017C807.531 356.814 811.333 346.091 811.533 339.377C811.733 332.262 809.632 330.207 809.532 330.107Z" fill="#6AC1FF"/>
<path d="M269.727 327.952C264.474 327.802 258.77 325.948 258.87 317.48C259.02 309.012 265.124 307.709 265.774 301.345C266.425 295.032 266.425 289.119 269.727 289.069C273.029 289.019 270.928 291.725 272.479 294.631C274.03 297.587 276.982 301.345 276.431 306.807C275.831 312.319 279.734 314.373 279.534 318.883C279.333 323.393 276.532 328.153 269.727 327.952Z" fill="#DAEEFF"/>
<path d="M271.678 306.356C271.578 306.256 271.428 306.256 271.378 306.356C271.278 306.456 271.278 306.606 271.378 306.657C271.378 306.657 272.729 308.06 272.629 312.72C272.529 316.778 270.428 323.042 269.727 324.896C269.127 323.443 268.326 321.789 267.626 320.436C267.175 319.534 266.775 318.732 266.575 318.231C265.775 316.377 266.975 312.519 266.975 312.469C267.025 312.369 266.925 312.218 266.825 312.168C266.725 312.118 266.575 312.218 266.525 312.319C266.475 312.469 265.274 316.377 266.125 318.382C266.325 318.883 266.725 319.685 267.225 320.637C268.476 323.142 270.327 326.9 270.277 328.353C270.227 330.407 269.977 333.314 269.977 333.314C269.977 333.464 270.077 333.564 270.177 333.564C270.277 333.564 270.378 333.464 270.428 333.364C270.428 333.314 270.678 330.407 270.728 328.353C270.728 327.702 270.428 326.7 269.977 325.497C270.277 324.645 272.929 317.279 273.029 312.669C273.179 307.809 271.728 306.406 271.678 306.356Z" fill="#6AC1FF"/>
<path d="M788.818 517.709C779.612 517.409 769.656 514.202 769.856 499.42C770.056 484.639 780.813 482.334 781.914 471.26C783.014 460.186 783.064 449.914 788.818 449.764C794.572 449.664 790.92 454.374 793.621 459.535C796.323 464.646 801.527 471.21 800.526 480.83C799.525 490.401 806.33 494.109 805.98 501.926C805.579 509.742 800.676 518.06 788.818 517.709Z" fill="#DAEEFF"/>
<path d="M792.22 479.928C792.07 479.778 791.82 479.778 791.67 479.928C791.52 480.078 791.52 480.329 791.67 480.479C791.67 480.479 794.072 482.885 793.822 491.052C793.621 498.117 789.969 509.091 788.768 512.348C787.667 509.792 786.267 506.936 785.116 504.531C784.315 502.927 783.615 501.524 783.265 500.623C781.914 497.416 783.965 490.651 784.015 490.601C784.065 490.401 783.965 490.15 783.765 490.1C783.565 490.05 783.315 490.15 783.265 490.35C783.165 490.651 781.063 497.466 782.564 500.923C782.964 501.825 783.665 503.228 784.465 504.882C786.617 509.241 789.869 515.805 789.819 518.411C789.769 521.968 789.319 527.079 789.319 527.129C789.319 527.33 789.469 527.53 789.669 527.58C789.669 527.58 789.669 527.58 789.719 527.58C789.919 527.58 790.119 527.43 790.119 527.23C790.119 527.179 790.569 522.068 790.619 518.461C790.619 517.308 790.119 515.555 789.319 513.5C789.869 512.047 794.472 499.119 794.672 491.102C794.872 482.534 792.321 480.028 792.22 479.928Z" fill="#6AC1FF"/>
<path d="M319.46 447.609C325.914 449.764 321.061 458.883 321.061 465.297C321.061 471.711 324.263 489.399 317.859 492.605C311.455 495.812 301.798 502.276 301.798 508.69C301.798 515.104 300.197 523.171 293.793 526.378C287.389 529.585 280.935 529.585 280.935 534.395C280.935 539.205 284.137 540.809 282.536 545.669C280.935 550.479 277.732 552.083 279.334 553.686H237.606C237.606 553.686 229.601 540.809 231.202 532.792C232.803 524.774 240.858 524.774 242.459 518.311C244.06 511.897 252.116 510.293 252.116 503.829C252.116 497.416 255.318 487.745 260.121 484.538C264.924 481.331 274.58 484.538 277.783 478.124C280.985 471.711 277.783 465.247 282.586 462.04C287.389 458.833 297.045 463.643 301.848 458.833C306.651 454.023 314.657 446.006 319.46 447.609Z" fill="url(#paint1_linear_6723_43355)"/>
<path d="M313.006 480.329C312.906 479.878 312.455 479.677 312.005 479.778C311.905 479.778 304.6 481.882 299.397 481.832C302.999 468.103 310.804 465.247 310.854 465.247C311.255 465.096 311.505 464.645 311.355 464.244C311.205 463.844 310.754 463.593 310.354 463.743C309.954 463.894 300.247 467.301 296.995 485.239C296.245 489.398 293.543 493.357 289.891 497.115C286.788 494.008 285.838 484.237 285.738 480.529C285.738 480.078 285.388 479.728 284.937 479.728C284.487 479.728 284.137 480.128 284.137 480.529C284.137 481.08 284.587 493.958 288.79 498.217C284.737 502.176 279.684 505.984 274.731 509.742C269.427 513.751 264.274 517.659 260.321 521.617C259.671 520.014 259.571 514.903 260.071 509.491C260.121 509.04 259.771 508.64 259.32 508.64C258.87 508.64 258.47 508.94 258.47 509.391C258.17 512.798 257.669 520.315 259.22 522.82C256.569 525.676 254.617 528.632 253.667 531.739C253.517 532.14 253.767 532.591 254.217 532.741C254.317 532.741 254.367 532.791 254.467 532.791C254.817 532.791 255.118 532.591 255.218 532.24C257.169 525.676 264.424 519.663 272.629 513.4C277.082 517.609 289.19 518.31 289.74 518.31H289.79C290.191 518.31 290.591 517.96 290.591 517.559C290.591 517.108 290.291 516.757 289.84 516.707C289.74 516.707 278.133 516.005 273.93 512.398C274.53 511.947 275.131 511.496 275.731 511.045C286.138 503.228 296.845 495.111 298.596 485.49C298.746 484.738 298.896 484.087 299.047 483.385C299.297 483.385 299.497 483.436 299.747 483.436C305.151 483.436 312.155 481.431 312.505 481.331C312.906 481.231 313.156 480.78 313.006 480.329Z" fill="#F1E8F0"/>
<path d="M223.297 450.816C214.941 455.025 223.297 473.314 221.696 479.778C220.095 486.192 215.291 491.052 216.893 497.466C218.494 503.88 221.696 508.74 221.696 515.154C221.696 521.568 212.039 528.031 213.69 539.255C215.291 550.53 220.095 553.736 220.095 553.736H255.418C255.418 553.736 258.62 550.53 258.62 544.066C258.62 537.652 250.615 531.188 252.216 527.981C253.817 524.774 260.221 518.311 258.62 507.087C257.019 495.812 252.216 495.812 250.615 489.399C249.014 482.985 252.216 479.728 250.615 474.918C249.014 470.107 240.958 465.247 239.357 462.04C237.756 458.883 232.953 446.006 223.297 450.816Z" fill="#F2BE3C"/>
<path d="M250.315 507.287C249.964 506.986 249.464 507.036 249.164 507.387C247.563 509.291 243.46 513.951 240.858 516.056C240.908 514.953 240.958 513.851 240.958 512.749C240.958 507.738 240.958 502.677 240.708 497.767C240.708 497.716 240.708 497.716 240.708 497.666C240.508 493.307 240.108 489.098 239.357 485.24C237.756 477.122 229.901 466.099 229.601 465.648C229.351 465.297 228.85 465.197 228.5 465.447C228.15 465.698 228.05 466.199 228.3 466.55C228.4 466.65 236.255 477.774 237.806 485.54C238.407 488.497 238.757 491.754 239.007 495.111C236.105 492.104 231.202 489.599 230.952 489.499C230.552 489.298 230.051 489.449 229.851 489.85C229.651 490.25 229.801 490.751 230.201 490.952C230.251 491.002 237.356 494.56 239.157 497.967C239.407 502.777 239.407 507.788 239.407 512.749C239.407 517.008 238.757 521.618 238.207 525.676C237.656 529.535 237.206 532.792 237.406 535.097C234.604 533.493 229.951 531.589 229.301 531.338C228.9 531.188 228.4 531.389 228.25 531.789C228.1 532.19 228.3 532.691 228.7 532.842C230.852 533.694 236.656 536.199 237.956 537.401C239.758 541.059 242.66 548.626 242.91 553.837C242.91 554.288 243.26 554.588 243.71 554.588C243.71 554.588 243.71 554.588 243.76 554.588C244.211 554.588 244.561 554.187 244.511 553.736C244.261 548.225 241.209 540.258 239.357 536.55C238.557 534.996 239.207 530.587 239.858 525.927C240.208 523.472 240.558 520.866 240.758 518.21C244.01 516.256 250.215 508.79 250.515 508.49C250.665 508.089 250.665 507.537 250.315 507.287Z" fill="white"/>
<path d="M506.983 304.903H489.972V554.288H506.983V304.903Z" fill="#E0E9F3"/>
<path d="M737.635 304.903H720.624V554.288H737.635V304.903Z" fill="#E0E9F3"/>
<path d="M749.793 281.303H477.814V335.97H749.793V281.303Z" fill="url(#paint2_linear_6723_43355)"/>
<path d="M506.333 281.303L483.768 335.97H477.814V315.777L492.023 281.303H506.333Z" fill="#14336A"/>
<path d="M536.052 281.303L513.487 335.97H499.228L521.743 281.303H536.052Z" fill="#14336A"/>
<path d="M565.772 281.303L543.207 335.97H528.948L551.462 281.303H565.772Z" fill="#14336A"/>
<path d="M595.491 281.303L572.976 335.97H558.667L581.182 281.303H595.491Z" fill="#14336A"/>
<path d="M625.211 281.303L602.696 335.97H588.387L610.902 281.303H625.211Z" fill="#14336A"/>
<path d="M654.93 281.303L632.416 335.97H618.106L640.671 281.303H654.93Z" fill="#14336A"/>
<path d="M684.65 281.303L662.135 335.97H647.826L670.39 281.303H684.65Z" fill="#14336A"/>
<path d="M714.369 281.303L691.855 335.97H677.545L700.11 281.303H714.369Z" fill="#14336A"/>
<path d="M744.089 281.303L721.574 335.97H707.265L729.829 281.303H744.089Z" fill="#14336A"/>
<path d="M749.793 304.903V335.97H736.984L749.793 304.903Z" fill="#14336A"/>
<path d="M749.793 358.017H477.814V385.376H749.793V358.017Z" fill="url(#paint3_linear_6723_43355)"/>
<path d="M495.075 358.017L483.768 385.376H477.814V365.182L480.766 358.017H495.075Z" fill="#14336A"/>
<path d="M524.795 358.017L513.487 385.376H499.228L510.485 358.017H524.795Z" fill="#14336A"/>
<path d="M554.514 358.017L543.207 385.376H528.948L540.205 358.017H554.514Z" fill="#14336A"/>
<path d="M584.234 358.017L572.976 385.376H558.667L569.924 358.017H584.234Z" fill="#14336A"/>
<path d="M613.953 358.017L602.696 385.376H588.387L599.644 358.017H613.953Z" fill="#14336A"/>
<path d="M643.673 358.017L632.416 385.376H618.106L629.364 358.017H643.673Z" fill="#14336A"/>
<path d="M673.392 358.017L662.135 385.376H647.826L659.083 358.017H673.392Z" fill="#14336A"/>
<path d="M703.112 358.017L691.855 385.376H677.545L688.803 358.017H703.112Z" fill="#14336A"/>
<path d="M732.831 358.017L721.574 385.376H707.265L718.572 358.017H732.831Z" fill="#14336A"/>
<path d="M749.793 358.017V385.376H736.984L748.292 358.017H749.793Z" fill="#14336A"/>
<path d="M309.453 528.382L306.702 542.312H353.432L356.434 528.382H309.453Z" fill="#FFAA9D"/>
<path d="M306.702 542.312L304.5 553.185C304.35 553.887 304.9 554.488 305.601 554.488H357.985C358.636 554.488 359.036 553.837 358.786 553.235L353.482 542.262H306.702V542.312Z" fill="#0B2252"/>
<path d="M380.45 528.382L377.698 542.312H424.429L427.431 528.382H380.45Z" fill="#FFAA9D"/>
<path d="M377.698 542.312L375.497 553.185C375.347 553.887 375.897 554.488 376.598 554.488H428.982C429.632 554.488 430.033 553.837 429.782 553.235L424.479 542.262H377.698V542.312Z" fill="#0B2252"/>
<path d="M304.85 310.565C304.85 310.565 318.659 412.033 314.307 457.581C309.954 503.128 305.101 533.694 305.101 533.694H358.336C358.336 533.694 372.395 476.471 373.345 442.548C373.345 442.548 382.051 487.144 376.748 533.694H428.532C428.532 533.694 442.791 371.095 412.771 309.513L304.85 310.565Z" fill="url(#paint4_linear_6723_43355)"/>
<path d="M372.845 153.529C372.845 153.529 322.662 161.496 304.1 205.039C285.538 248.532 293.443 263.715 300.247 270.63C307.052 277.545 320.861 283.958 320.861 283.958L372.845 153.529Z" fill="url(#paint5_linear_6723_43355)"/>
<path d="M423.078 330.057C417.674 337.323 302.849 332.713 300.197 314.173C297.546 295.633 320.26 179.434 344.326 163.15C366.891 147.917 382.601 150.873 397.111 154.331C411.62 157.788 427.731 186.5 421.777 211.403C415.823 236.256 410.42 238.01 411.07 262.863C411.921 293.128 428.682 322.641 423.078 330.057Z" fill="url(#paint6_linear_6723_43355)"/>
<path d="M417.224 122.012L419.526 138.647L417.024 138.898C417.024 138.898 416.724 152.928 406.767 151.976C403.915 151.675 400.063 149.771 399.062 150.372C397.911 151.074 397.861 154.932 397.711 156.034C397.161 160.344 382.101 157.939 383.902 153.379C385.653 149.019 388.305 143.107 387.404 141.654C384.252 136.593 381.901 123.364 394.759 117.251C405.016 112.291 416.374 116.349 417.224 122.012Z" fill="#FFAA9D"/>
<path d="M383.952 153.329C385.703 148.969 388.355 143.057 387.455 141.604C387.455 141.604 394.159 149.571 399.513 150.222C399.513 150.222 399.512 150.222 399.563 150.222C399.412 150.222 399.262 150.272 399.112 150.322C397.961 151.024 397.911 154.882 397.761 155.984C397.211 160.294 382.101 157.888 383.952 153.329Z" fill="#FF9F91"/>
<path d="M395.76 132.985C389.356 132.684 395.01 146.163 388.055 146.564C381.1 146.965 374.396 132.484 378.048 120.208C381.651 107.931 391.357 107.38 400.763 107.831C410.12 108.282 421.877 111.038 422.728 117.953C424.779 134.689 403.315 123.114 402.615 128.275C402.064 132.283 401.914 143.708 405.967 143.507C410.02 143.257 413.722 139.449 416.974 139.9C418.875 140.15 426.63 161.446 413.572 163.851C400.663 166.206 395.91 155.082 397.511 145.361C398.962 136.041 398.862 133.135 395.76 132.985Z" fill="#14336A"/>
<path d="M405.066 344.438C405.066 344.438 427.831 349.499 436.537 349.098C445.243 348.747 449.045 348.447 448.895 346.392C448.745 344.338 431.584 337.974 431.283 335.97C430.983 333.966 434.135 332.713 433.835 330.458C433.485 328.203 417.975 328.654 416.724 326.249C415.423 323.844 404.266 340.931 405.066 344.438Z" fill="#FFAA9D"/>
<path d="M421.827 323.293L407.268 346.893C407.268 346.893 347.678 336.471 329.667 283.758C311.605 230.995 325.514 176.478 359.136 167.108C385.703 159.692 380.1 211.654 377.198 230.694C374.346 249.785 371.444 285.412 421.827 323.293Z" fill="url(#paint7_linear_6723_43355)"/>
<defs>
<linearGradient id="paint0_linear_6723_43355" x1="456.512" y1="79.7965" x2="456.512" y2="312.588" gradientUnits="userSpaceOnUse">
<stop stop-color="#E9F3FC"/>
<stop offset="1" stop-color="white" stop-opacity="0"/>
</linearGradient>
<linearGradient id="paint1_linear_6723_43355" x1="273.585" y1="491.537" x2="277.873" y2="545.376" gradientUnits="userSpaceOnUse">
<stop stop-color="#721B65"/>
<stop offset="0.9649" stop-color="#611055"/>
</linearGradient>
<linearGradient id="paint2_linear_6723_43355" x1="613.821" y1="330.542" x2="613.821" y2="275.872" gradientUnits="userSpaceOnUse">
<stop stop-color="#F2C43C"/>
<stop offset="0.7634" stop-color="#FFAC00"/>
</linearGradient>
<linearGradient id="paint3_linear_6723_43355" x1="613.821" y1="382.654" x2="613.821" y2="355.315" gradientUnits="userSpaceOnUse">
<stop stop-color="#F2C43C"/>
<stop offset="0.7634" stop-color="#FFAC00"/>
</linearGradient>
<linearGradient id="paint4_linear_6723_43355" x1="369.277" y1="537.915" x2="367.079" y2="389.335" gradientUnits="userSpaceOnUse">
<stop stop-color="#14336D"/>
<stop offset="0.9662" stop-color="#0E2253"/>
</linearGradient>
<linearGradient id="paint5_linear_6723_43355" x1="333.377" y1="206.607" x2="349.939" y2="266.921" gradientUnits="userSpaceOnUse">
<stop stop-color="#F2C43C"/>
<stop offset="0.9649" stop-color="#FFAC00"/>
</linearGradient>
<linearGradient id="paint6_linear_6723_43355" x1="331.003" y1="217.624" x2="444.927" y2="320.548" gradientUnits="userSpaceOnUse">
<stop stop-color="#F2C43C"/>
<stop offset="0.9649" stop-color="#FFAC00"/>
</linearGradient>
<linearGradient id="paint7_linear_6723_43355" x1="390.515" y1="237.363" x2="322.209" y2="339.196" gradientUnits="userSpaceOnUse">
<stop stop-color="#F2C43C"/>
<stop offset="0.9649" stop-color="#FFAC00"/>
</linearGradient>
</defs>
</svg>
