<svg width="910" height="560" viewBox="0 0 910 560" fill="none" xmlns="http://www.w3.org/2000/svg">
<path opacity="0.2" d="M562.773 560C712.311 560 833.535 556.825 833.535 552.91C833.535 548.994 712.311 545.819 562.773 545.819C413.236 545.819 292.012 548.994 292.012 552.91C292.012 556.825 413.236 560 562.773 560Z" fill="#0B2252"/>
<path d="M417.453 59.085C414.337 55.9753 409.975 53.985 405.177 53.985H387.915C385.36 42.1681 374.829 33.3364 362.241 33.3364C349.654 33.3364 339.122 42.1681 336.567 53.985H331.956C327.158 54.0472 322.796 55.9753 319.68 59.085C316.564 62.1947 314.57 66.5483 314.57 71.3373C314.57 76.6239 316.938 81.3506 320.677 84.5226C323.73 87.0725 327.656 88.6274 331.894 88.6274H405.177C409.975 88.6274 414.337 86.6994 417.453 83.5275C420.569 80.4177 422.563 76.0641 422.563 71.2751C422.563 66.5483 420.631 62.1947 417.453 59.085Z" fill="#E9F3FC"/>
<path d="M692.826 25.7486C695.942 22.6388 700.304 20.6486 705.102 20.6486H722.364C724.919 8.83163 735.45 0 748.038 0C760.626 0 771.157 8.83163 773.712 20.6486H778.323C783.122 20.6486 787.484 22.5766 790.6 25.7486C793.715 28.9205 795.71 33.2119 795.71 38.0009C795.71 43.2874 793.342 48.0142 789.603 51.1861C786.549 53.7361 782.623 55.291 778.386 55.291H705.102C700.304 55.291 695.942 53.3629 692.826 50.191C689.711 47.0813 687.716 42.7277 687.716 37.9387C687.779 33.2119 689.711 28.8583 692.826 25.7486Z" fill="#E9F3FC"/>
<path d="M909.747 293.869V391.95C820.387 376.526 700.304 362.408 559.845 362.408C249.761 362.408 6.60548 431.195 6.60548 431.195C-11.4661 392.696 8.53727 281.803 55.648 255.806C102.696 229.871 143.575 281.741 180.778 263.207C217.918 244.673 183.146 80.7283 240.227 70.1553C297.308 59.5822 333.202 165.064 402.996 165.064C472.727 165.064 462.196 59.5822 543.705 55.353C625.276 51.1237 623.095 163.323 672.137 163.323C721.18 163.323 701.301 118.356 778.199 116.988C855.096 115.682 876.346 275.771 909.249 293.496C909.373 293.683 909.56 293.745 909.747 293.869Z" fill="url(#paint0_linear_6723_43298)"/>
<path d="M224.586 400.906C215.675 400.657 205.953 397.485 206.14 383.181C206.327 368.876 216.796 366.637 217.856 355.877C218.915 345.18 218.977 335.166 224.586 335.042C230.194 334.918 226.642 339.52 229.26 344.496C231.877 349.471 236.924 355.815 235.927 365.144C234.93 374.411 241.598 378.018 241.224 385.606C240.913 393.194 236.177 401.279 224.586 400.906Z" fill="#DAEEFF"/>
<path d="M227.951 364.335C227.764 364.211 227.577 364.211 227.39 364.335C227.265 364.46 227.265 364.709 227.39 364.895C227.39 364.895 229.696 367.259 229.509 375.157C229.322 381.999 225.77 392.634 224.648 395.806C223.589 393.318 222.218 390.582 221.096 388.218C220.348 386.663 219.663 385.295 219.289 384.424C217.98 381.315 219.975 374.784 219.975 374.722C220.037 374.535 219.912 374.287 219.725 374.224C219.538 374.162 219.289 374.287 219.227 374.473C219.164 374.722 217.108 381.377 218.541 384.735C218.915 385.606 219.601 386.974 220.348 388.529C222.467 392.758 225.583 399.164 225.583 401.59C225.521 405.011 225.084 409.986 225.084 410.049C225.084 410.235 225.209 410.422 225.458 410.484C225.458 410.484 225.458 410.484 225.521 410.484C225.708 410.484 225.895 410.36 225.895 410.111C225.895 410.049 226.331 405.073 226.393 401.652C226.393 400.533 225.895 398.791 225.084 396.863C225.583 395.433 230.07 382.932 230.319 375.157C230.506 366.823 228.013 364.398 227.951 364.335Z" fill="#6AC1FF"/>
<path d="M846.061 302.514C838.458 302.266 830.17 299.591 830.357 287.401C830.544 275.211 839.455 273.283 840.328 264.14C841.262 254.998 841.262 246.477 846.061 246.415C850.859 246.353 847.806 250.209 850.049 254.5C852.292 258.729 856.592 264.14 855.782 272.101C854.972 280 860.58 283.047 860.269 289.516C860.019 295.922 855.969 302.763 846.061 302.514Z" fill="#DAEEFF"/>
<path d="M848.927 271.293C848.803 271.168 848.616 271.168 848.429 271.293C848.304 271.417 848.304 271.603 848.429 271.79C848.429 271.79 850.423 273.78 850.236 280.559C850.049 286.406 847.058 295.424 846.061 298.161C845.188 296.046 844.004 293.683 843.007 291.692C842.322 290.386 841.761 289.205 841.449 288.458C840.328 285.784 842.01 280.249 842.073 280.186C842.135 280 842.01 279.813 841.823 279.751C841.636 279.689 841.449 279.813 841.387 280C841.325 280.249 839.58 285.846 840.826 288.769C841.138 289.515 841.699 290.697 842.384 292.003C844.191 295.611 846.871 301.021 846.809 303.136C846.746 306.059 846.372 310.288 846.372 310.351C846.372 310.537 846.497 310.724 846.684 310.724C846.871 310.724 846.995 310.599 846.995 310.413C846.995 310.351 847.369 306.121 847.432 303.198C847.432 302.265 846.995 300.773 846.31 299.093C846.746 297.912 850.547 287.214 850.797 280.559C851.108 273.407 848.99 271.355 848.927 271.293Z" fill="#6AC1FF"/>
<path d="M328.528 336.224C323.294 336.037 317.623 334.234 317.748 325.837C317.872 317.441 323.979 316.135 324.603 309.853C325.226 303.572 325.226 297.725 328.528 297.663C331.831 297.601 329.712 300.275 331.27 303.198C332.828 306.122 335.757 309.853 335.196 315.264C334.635 320.737 338.499 322.79 338.312 327.268C338.125 331.684 335.321 336.41 328.528 336.224Z" fill="#DAEEFF"/>
<path d="M330.46 314.767C330.398 314.705 330.211 314.705 330.149 314.767C330.086 314.829 330.086 315.016 330.149 315.078C330.149 315.078 331.52 316.446 331.395 321.111C331.27 325.153 329.214 331.373 328.529 333.239C327.905 331.746 327.095 330.191 326.41 328.823C325.974 327.89 325.537 327.081 325.35 326.584C324.603 324.78 325.787 320.924 325.787 320.862C325.849 320.738 325.787 320.613 325.662 320.551C325.537 320.489 325.413 320.551 325.35 320.675C325.288 320.862 324.104 324.718 324.977 326.708C325.226 327.206 325.6 328.014 326.036 328.947C327.282 331.435 329.152 335.167 329.089 336.597C329.027 338.587 328.778 341.511 328.778 341.573C328.778 341.697 328.84 341.821 328.965 341.821C329.089 341.821 329.152 341.759 329.214 341.635C329.214 341.635 329.463 338.712 329.526 336.659C329.526 336.037 329.214 334.98 328.778 333.861C329.089 333.052 331.707 325.713 331.831 321.111C332.018 316.197 330.523 314.829 330.46 314.767Z" fill="#6AC1FF"/>
<path d="M778.635 370.68C769.475 370.431 759.504 367.197 759.753 352.519C759.94 337.841 770.659 335.54 771.718 324.531C772.777 313.523 772.84 303.323 778.635 303.199C784.368 303.074 780.754 307.801 783.433 312.901C786.113 318.001 791.285 324.531 790.288 334.047C789.291 343.563 796.084 347.232 795.71 355.007C795.398 362.719 790.537 370.991 778.635 370.68Z" fill="#DAEEFF"/>
<path d="M782.062 333.114C781.875 332.99 781.626 332.99 781.502 333.114C781.377 333.301 781.377 333.55 781.502 333.674C781.502 333.674 783.87 336.1 783.62 344.185C783.433 351.213 779.757 362.097 778.635 365.331C777.576 362.781 776.142 359.92 774.958 357.557C774.148 355.94 773.463 354.571 773.089 353.701C771.718 350.529 773.774 343.812 773.837 343.75C773.899 343.563 773.774 343.314 773.587 343.252C773.401 343.19 773.151 343.314 773.089 343.501C773.027 343.812 770.908 350.591 772.403 354.012C772.777 354.882 773.463 356.313 774.273 357.93C776.392 362.284 779.694 368.814 779.632 371.364C779.57 374.909 779.134 379.947 779.134 380.009C779.134 380.258 779.258 380.444 779.507 380.444C779.507 380.444 779.507 380.444 779.57 380.444C779.757 380.444 779.944 380.258 779.944 380.071C779.944 380.009 780.38 374.909 780.442 371.364C780.442 370.244 779.944 368.441 779.134 366.451C779.632 365.02 784.243 352.208 784.493 344.185C784.68 335.726 782.187 333.239 782.062 333.114Z" fill="#6AC1FF"/>
<path d="M740.311 427.401C735.076 428.77 715.385 427.961 719.123 418.259C723.299 407.437 734.515 416.89 739.314 422.861C737.507 413.283 737.257 403.581 737.257 398.356C733.705 394.127 726.227 367.072 740.996 368.441C760.314 370.182 743.177 395.744 738.753 398.667C738.753 404.887 739.189 417.263 741.993 427.961C742.616 421.182 749.409 401.777 758.445 408.618C771.531 418.507 746.48 430.449 742.679 430.262C743.863 434.18 745.421 437.788 747.415 440.649C748.848 442.701 750.468 445.127 752.151 447.739C752.151 447.801 752.213 447.801 752.213 447.863C753.086 440.711 759.753 422.301 768.602 428.956C780.816 438.223 759.816 449.232 753.833 450.475C757.51 456.446 761.311 463.287 764.24 469.88C764.676 463.412 777.389 450.164 782.436 457.752C785.24 461.981 770.347 475.726 765.424 472.617C768.228 479.458 769.911 485.864 769.35 490.529C769.163 492.27 768.789 494.26 768.477 496.499C771.967 492.643 784.555 479.769 788.294 489.72C791.41 497.992 781.003 502.781 776.641 502.781C773.214 502.781 769.599 499.547 768.166 498.179C767.979 499.36 767.73 500.604 767.543 501.848C765.798 512.048 763.679 524.3 764.302 531.639C767.294 525.855 780.567 501.91 788.294 517.335C792.282 525.233 781.003 531.888 776.641 533.319C773.089 534.5 766.67 533.443 764.489 533.008C764.614 533.816 764.739 534.625 764.988 535.247C767.854 543.767 773.587 552.412 773.65 552.475C773.899 552.786 773.774 553.283 773.463 553.47C773.338 553.532 773.214 553.594 773.089 553.594C772.84 553.594 772.653 553.47 772.466 553.283C772.403 553.221 768.166 546.753 765.113 539.476C761.685 539.041 748.536 537.237 744.735 534.749C740.373 531.826 732.584 522.31 738.94 518.765C748.786 513.292 759.13 527.783 763.617 535.371C761.934 529.711 763.43 518.454 765.175 507.881C761.623 508.938 750.219 506.886 746.231 504.212C741.869 501.288 734.329 493.763 738.94 489.658C750.531 479.396 762.745 501.164 765.424 506.326C765.673 504.709 765.985 503.03 766.234 501.475C766.982 497.246 767.667 493.265 768.041 490.28C768.602 485.926 766.982 479.707 764.115 472.741C761.81 473.487 754.02 475.602 745.483 474.42C735.326 472.99 730.153 465.029 733.83 461.359C740.124 455.078 758.819 468.139 763.617 471.684C760.688 464.842 756.575 457.255 752.026 450.102C746.106 451.471 722.426 450.973 725.667 441.582C728.845 432.19 740.996 438.534 748.1 444.007C747.539 443.136 746.916 442.266 746.355 441.457C743.551 437.663 741.619 432.688 740.311 427.401Z" fill="url(#paint1_linear_6723_43298)"/>
<path d="M782.499 517.335C794.712 512.483 797.704 531.142 798.327 537.237C801.006 528.343 802.19 517.459 800.944 508.627C799.075 508.565 791.908 508.254 786.861 505.704C781.065 502.781 777.451 491.151 782.499 489.72C790.974 487.295 798.451 501.973 800.695 506.948C800.508 505.829 800.259 504.709 799.947 503.714C798.078 496.935 796.769 488.165 796.146 479.52C793.84 479.458 787.422 479.272 783.87 478.09C779.507 476.659 772.092 465.278 778.074 463.536C786.238 461.173 793.466 472.928 796.021 477.592C795.523 468.636 795.896 459.991 797.454 454.083C796.769 451.471 795.523 445.997 795.523 441.706C795.523 435.922 802.253 424.478 808.609 430.076C820.2 440.338 802.814 452.341 798.701 455.016C797.267 460.8 796.956 469.196 797.517 477.841C800.134 471.311 810.603 447.801 823.191 459.121C828.051 463.474 817.395 473.674 810.104 476.535C804.309 478.836 799.386 479.334 797.579 479.458C798.14 487.917 799.511 496.562 801.318 503.216C801.63 504.46 801.941 505.704 802.128 507.073C804.87 501.537 817.707 477.903 831.915 488.165C837.773 492.457 826.12 502.719 820.262 505.58C815.277 508.068 805.119 508.192 802.315 508.192C803.499 517.024 802.44 527.783 799.822 536.802C804.122 530.333 816.585 513.79 826.12 524.425C831.728 530.769 817.146 536.117 813.033 537.486C809.357 538.73 801.567 539.041 799.137 539.165C797.081 545.384 794.276 550.609 790.974 553.283C790.849 553.408 790.662 553.47 790.537 553.47C790.35 553.47 790.101 553.408 789.976 553.221C789.727 552.91 789.79 552.475 790.039 552.226C793.155 549.614 795.834 544.7 797.828 538.73C795.959 537.921 790.413 535.558 786.861 533.194C782.499 530.458 775.706 520.071 782.499 517.335Z" fill="#F2BE3C"/>
<path d="M751.154 553.656H817.395C817.769 553.656 818.143 553.345 818.143 552.91C818.143 552.537 817.832 552.164 817.395 552.164H751.154C750.78 552.164 750.406 552.475 750.406 552.91C750.468 553.345 750.78 553.656 751.154 553.656Z" fill="#14336A"/>
<path d="M727.91 553.656H743.177C743.551 553.656 743.925 553.345 743.925 552.91C743.925 552.537 743.614 552.164 743.177 552.164H727.91C727.536 552.164 727.162 552.475 727.162 552.91C727.162 553.345 727.474 553.656 727.91 553.656Z" fill="#14336A"/>
<path d="M681.61 447.863C680.799 447.863 679.989 447.49 679.428 446.806C678.556 445.624 678.743 443.945 679.989 443.012L725.791 407.872C726.975 407.001 728.658 407.188 729.593 408.432C730.465 409.613 730.278 411.292 729.032 412.225L683.23 447.365C682.731 447.676 682.17 447.863 681.61 447.863Z" fill="#FC7500"/>
<path d="M508.995 504.211C507.375 504.211 505.817 503.402 504.82 501.972C503.324 499.671 504.01 496.623 506.253 495.131L524.138 483.562C525.259 482.816 526.63 482.567 527.939 482.878L565.702 491.772L583.151 472.056C584.958 470.004 588.074 469.817 590.13 471.621C592.186 473.425 592.373 476.534 590.566 478.587L571.124 500.479C569.94 501.848 568.07 502.407 566.263 502.034L527.814 493.016L511.674 503.465C510.864 503.962 509.93 504.211 508.995 504.211Z" fill="#FC7500"/>
<path d="M638.051 511.799H667.588V471.559H625.214V498.987C625.276 506.077 631.009 511.799 638.051 511.799Z" fill="#FC7500"/>
<path d="M643.659 553.656H627.146C624.404 553.656 622.223 551.417 622.223 548.743C622.223 546.006 624.404 543.829 627.146 543.829H641.104L657.93 520.071C659.114 518.454 659.238 516.402 658.303 514.66C657.369 512.919 655.624 511.861 653.63 511.861C650.888 511.861 648.707 509.622 648.707 506.948C648.707 504.274 650.888 502.035 653.63 502.035C659.3 502.035 664.473 505.144 667.09 510.182C669.707 515.22 669.271 521.191 666.031 525.855L647.772 551.666C646.775 552.91 645.279 553.656 643.659 553.656Z" fill="#FC7500"/>
<path d="M745.795 527.534C734.391 527.534 726.103 517.521 721.865 509.498C700.117 513.043 683.977 498.738 683.292 498.116C681.298 496.312 681.111 493.14 682.918 491.15C684.725 489.16 687.841 488.973 689.897 490.777C690.147 491.026 704.978 503.9 723.423 499.111C725.854 498.489 728.346 499.733 729.281 502.096C729.343 502.283 736.883 520.693 748.848 517.21C751.465 516.463 754.207 517.956 754.955 520.568C755.703 523.18 754.207 525.917 751.59 526.663C749.596 527.223 747.664 527.534 745.795 527.534Z" fill="#FF9500"/>
<path d="M526.942 530.146C526.007 530.146 525.01 529.835 524.138 529.276C521.894 527.721 521.333 524.673 522.891 522.434L537.037 501.91C537.972 500.542 539.467 499.796 541.087 499.796H571.871L587.014 478.836C588.634 476.597 591.688 476.162 593.931 477.716C596.175 479.333 596.673 482.381 595.053 484.62L578.415 507.632C577.48 508.938 575.984 509.684 574.426 509.684H543.705L530.992 528.032C530.058 529.4 528.5 530.146 526.942 530.146Z" fill="#FF9500"/>
<path d="M572.495 396.179C571.622 394.687 566.014 388.343 564.643 387.348L558.847 383.056L562.213 401.715L572.495 396.179Z" fill="#FC7500"/>
<path d="M678.244 440.089H603.528L574.676 389.462C573.803 387.97 572.682 386.663 571.311 385.668L565.515 381.377L568.132 395.93C568.132 395.93 548.005 392.137 548.005 408.432H528.811V419.751L542.77 433.683H552.803C554.423 433.683 556.043 433.931 557.476 434.615C561.589 436.419 564.02 440.337 564.082 444.504V460.799C564.082 477.468 577.604 490.964 594.305 490.964H657.431L657.618 491.648C660.547 501.412 670.829 506.948 680.55 504.025L693.387 500.169C698.933 498.489 702.049 492.705 700.366 487.17L688.153 447.49C686.844 443.074 682.856 440.089 678.244 440.089Z" fill="#FF9500"/>
<path d="M535.666 408.369C535.666 410.235 534.108 411.79 532.239 411.79C530.369 411.79 528.811 410.235 528.811 408.369H535.666Z" fill="#FC7500"/>
<path d="M555.046 410.608C554.485 410.608 553.987 410.297 553.8 409.737C553.551 409.053 553.862 408.245 554.548 407.996L561.901 405.073C562.586 404.824 563.396 405.135 563.646 405.819C563.895 406.503 563.583 407.312 562.898 407.561L555.545 410.484C555.42 410.608 555.233 410.608 555.046 410.608Z" fill="#FC7500"/>
<path d="M533.921 421.057L543.518 430.262H552.117V421.057H533.921Z" fill="#14336D"/>
<path d="M533.921 421.057L535.666 424.913L537.411 421.057H533.921Z" fill="white"/>
<path d="M542.209 421.057L543.954 424.913L545.699 421.057H542.209Z" fill="white"/>
<path d="M663.102 440.088C663.102 454.953 651.012 466.956 636.181 466.956C621.288 466.956 609.261 454.891 609.261 440.088H663.102Z" fill="#FC7500"/>
<path d="M363.488 180.675C363.488 180.675 362.927 165.064 359.873 159.529C356.82 153.994 350.838 147.588 348.843 148.831C346.849 150.075 351.336 154.056 350.962 155.611C350.588 157.165 347.659 170.724 348.22 173.212C348.843 175.824 350.775 178.623 351.897 179.431C353.019 180.177 363.488 180.675 363.488 180.675Z" fill="#FFAA9D"/>
<path d="M430.415 235.469C428.171 232.919 420.818 228.565 401.376 230.369C378.256 232.545 373.583 233.167 373.022 232.732C372.461 232.234 367.102 178.934 365.606 177.254C364.111 175.575 352.333 175.202 349.778 176.508C347.223 177.814 320.739 251.39 335.508 267.748C350.277 284.105 406.174 277.699 415.708 275.086C448.299 266.13 432.658 237.956 430.415 235.469Z" fill="url(#paint2_linear_6723_43298)"/>
<path d="M490.861 439.778L502.888 443.261C503.885 443.572 504.82 443.136 505.381 442.39C505.817 441.768 505.941 440.959 505.567 440.151L485.19 397.361C485.003 396.988 484.692 396.677 484.318 396.49C483.944 396.304 483.508 396.304 483.072 396.428L471.979 400.097L490.861 439.778Z" fill="#0B2252"/>
<path d="M490.861 439.778L479.021 446.557L460.077 401.217L471.979 400.16L490.861 439.778Z" fill="url(#paint3_linear_6723_43298)"/>
<path d="M481.264 447.987C481.264 447.987 430.726 480.453 402.373 467.205C373.957 453.958 401.376 334.917 401.376 334.917C401.376 334.917 437.332 329.942 442.442 325.961C447.552 321.919 460.513 307.365 460.513 307.365C460.513 307.365 464.314 362.283 462.694 372.048C460.077 387.596 453.409 399.413 453.409 399.413L461.074 398.667L481.264 447.987Z" fill="url(#paint4_linear_6723_43298)"/>
<path d="M329.401 527.472L330.772 540.595H375.203L377.446 525.606L329.401 527.472Z" fill="url(#paint5_linear_6723_43298)"/>
<path d="M459.516 308.112C451.789 311.968 440.011 327.268 421.566 329.071C403.183 330.875 374.829 344.185 352.894 384.673C330.523 425.971 325.413 463.971 325.537 486.61C325.787 525.171 326.971 527.472 326.971 527.472H379.503C379.503 527.472 386.171 482.941 387.479 472.243C388.788 461.546 390.657 436.17 390.657 436.17C390.657 436.17 449.421 409.427 459.454 384.176C469.549 358.925 459.516 308.112 459.516 308.112Z" fill="#14336D"/>
<path d="M330.772 540.595L322.484 549.986C321.798 550.795 321.798 551.79 322.235 552.598C322.608 553.22 323.294 553.718 324.166 553.718H372.025C372.461 553.718 372.835 553.531 373.147 553.282C373.458 553.034 373.645 552.66 373.707 552.225L375.141 540.657H330.772V540.595Z" fill="#0B2252"/>
<path d="M469.3 346.237C471.045 345.491 445.433 224.709 415.895 221.475C386.295 218.303 381.995 264.451 381.995 276.144C381.995 287.899 385.984 340.453 388.04 341.946C390.034 343.501 439.949 358.614 469.3 346.237Z" fill="url(#paint6_linear_6723_43298)"/>
<path d="M383.678 200.266L383.491 213.327L385.423 213.265C385.423 213.265 386.981 224.025 394.645 222.345C396.827 221.848 399.631 219.982 400.441 220.355C401.376 220.791 401.812 223.776 401.999 224.584C402.809 227.881 414.275 224.522 412.405 221.226C410.661 218.054 408.043 213.7 408.542 212.519C410.474 208.289 411.034 197.903 400.503 194.42C392.215 191.559 383.803 195.788 383.678 200.266Z" fill="#FFAA9D"/>
<path d="M412.468 221.226C410.723 218.054 408.106 213.7 408.604 212.519C408.604 212.519 404.18 219.298 400.129 220.355C400.254 220.355 400.379 220.355 400.441 220.417C401.376 220.853 401.812 223.838 401.999 224.646C402.871 227.881 414.275 224.584 412.468 221.226Z" fill="#FF9F91"/>
<path d="M401.376 206.672C406.298 205.864 403.245 216.748 408.667 216.437C414.088 216.064 417.889 204.247 413.901 195.104C409.913 185.961 402.373 186.521 395.144 187.765C387.915 189.009 379.067 192.243 379.129 197.716C379.129 210.839 394.645 199.831 395.705 203.749C396.515 206.797 397.699 215.628 394.583 215.815C391.405 216.001 388.227 213.389 385.672 214.073C384.239 214.447 380.251 231.612 390.595 232.234C400.815 232.794 403.432 223.776 401.251 216.437C399.132 209.347 398.945 207.045 401.376 206.672Z" fill="#14336A"/>
<path d="M325.039 219.298C325.039 219.298 313.448 208.787 307.341 207.108C301.234 205.428 292.448 205.242 291.949 207.543C291.451 209.844 297.433 209.409 298.305 210.715C299.178 212.083 306.843 223.651 309.024 224.957C311.329 226.388 314.694 226.948 316.003 226.699C317.436 226.45 325.039 219.298 325.039 219.298Z" fill="#FFAA9D"/>
<path d="M412.032 223.154C408.667 222.594 400.192 223.589 386.046 237.023C369.221 253.007 365.98 256.366 365.232 256.366C364.485 256.366 327.282 217.681 325.101 217.308C322.92 216.934 313.386 223.838 312.202 226.45C311.018 229.062 335.695 303.26 357.381 307.054C379.067 310.848 419.136 271.355 424.993 263.394C445.059 236.277 415.397 223.776 412.032 223.154Z" fill="url(#paint7_linear_6723_43298)"/>
<defs>
<linearGradient id="paint0_linear_6723_43298" x1="454.867" y1="83.186" x2="454.867" y2="314.344" gradientUnits="userSpaceOnUse">
<stop stop-color="#E9F3FC"/>
<stop offset="1" stop-color="white" stop-opacity="0"/>
</linearGradient>
<linearGradient id="paint1_linear_6723_43298" x1="751.348" y1="445.298" x2="767.878" y2="536.72" gradientUnits="userSpaceOnUse">
<stop stop-color="#721B65"/>
<stop offset="0.9649" stop-color="#611055"/>
</linearGradient>
<linearGradient id="paint2_linear_6723_43298" x1="389.916" y1="206.373" x2="375.312" y2="306.5" gradientUnits="userSpaceOnUse">
<stop stop-color="#3162DF"/>
<stop offset="0.3939" stop-color="#173DB8"/>
</linearGradient>
<linearGradient id="paint3_linear_6723_43298" x1="493.911" y1="448.223" x2="472.479" y2="419.176" gradientUnits="userSpaceOnUse">
<stop stop-color="#FFAA9D"/>
<stop offset="0.9662" stop-color="#FF9F91"/>
</linearGradient>
<linearGradient id="paint4_linear_6723_43298" x1="457.998" y1="455.401" x2="422.585" y2="370.866" gradientUnits="userSpaceOnUse">
<stop stop-color="#14336D"/>
<stop offset="0.9662" stop-color="#0E2253"/>
</linearGradient>
<linearGradient id="paint5_linear_6723_43298" x1="329.392" y1="533.087" x2="377.419" y2="533.087" gradientUnits="userSpaceOnUse">
<stop stop-color="#FFAA9D"/>
<stop offset="0.9662" stop-color="#FF9F91"/>
</linearGradient>
<linearGradient id="paint6_linear_6723_43298" x1="440.405" y1="282.769" x2="372.355" y2="317.867" gradientUnits="userSpaceOnUse">
<stop stop-color="#3162DF"/>
<stop offset="0.9649" stop-color="#173DB8"/>
</linearGradient>
<linearGradient id="paint7_linear_6723_43298" x1="413.99" y1="245.676" x2="315.379" y2="269.161" gradientUnits="userSpaceOnUse">
<stop stop-color="#3162DF"/>
<stop offset="0.9649" stop-color="#173DB8"/>
</linearGradient>
</defs>
</svg>
