<svg width="848" height="560" viewBox="0 0 848 560" fill="none" xmlns="http://www.w3.org/2000/svg">
<path opacity="0.2" d="M478.202 560C631.3 560 755.41 556.825 755.41 552.91C755.41 548.994 631.3 545.819 478.202 545.819C325.104 545.819 200.993 548.994 200.993 552.91C200.993 556.825 325.104 560 478.202 560Z" fill="#0B2252"/>
<path d="M356.098 59.085C352.985 55.9753 348.626 53.985 343.832 53.985H326.584C324.031 42.1681 313.508 33.3364 300.93 33.3364C288.353 33.3364 277.83 42.1681 275.277 53.985H270.669C265.875 54.0472 261.516 55.9753 258.403 59.085C255.289 62.1947 253.297 66.5483 253.297 71.3373C253.297 76.6238 255.663 81.3506 259.399 84.5226C262.45 87.0725 266.373 88.6274 270.607 88.6274H343.832C348.626 88.6274 352.985 86.6994 356.098 83.5274C359.211 80.4177 361.204 76.0641 361.204 71.2751C361.204 66.5483 359.274 62.1947 356.098 59.085Z" fill="#E9F3FC"/>
<path d="M631.252 25.7486C634.365 22.6388 638.724 20.6486 643.518 20.6486H660.766C663.319 8.83163 673.842 0 686.42 0C698.997 0 709.52 8.83163 712.073 20.6486H716.681C721.475 20.6486 725.834 22.5766 728.947 25.7486C732.061 28.9205 734.053 33.2119 734.053 38.0009C734.053 43.2874 731.687 48.0142 727.951 51.1861C724.9 53.7361 720.977 55.291 716.743 55.291H643.518C638.724 55.291 634.365 53.3629 631.252 50.191C628.139 47.0813 626.146 42.7277 626.146 37.9387C626.208 33.2119 628.139 28.8583 631.252 25.7486Z" fill="#E9F3FC"/>
<path d="M848 293.869V391.95C758.711 376.526 638.724 362.408 498.376 362.408C188.54 362.408 -54.422 431.195 -54.422 431.195C-72.4791 392.696 -52.4917 281.803 -5.41859 255.806C41.5923 229.871 82.4388 281.741 119.612 263.207C156.722 244.673 121.978 80.7283 179.013 70.1553C236.049 59.5822 271.914 165.064 341.652 165.064C411.328 165.064 400.805 59.5822 482.249 55.353C563.755 51.1237 561.576 163.323 610.58 163.323C659.583 163.323 639.72 118.356 716.556 116.988C793.393 115.682 814.625 275.771 847.502 293.496C847.626 293.683 847.813 293.745 848 293.869Z" fill="url(#paint0_linear_6723_43251)"/>
<path d="M163.821 415.46C154.917 415.211 145.203 412.039 145.39 397.734C145.577 383.43 156.037 381.191 157.096 370.431C158.154 359.733 158.217 349.72 163.821 349.596C169.425 349.471 165.875 354.074 168.491 359.049C171.106 364.025 176.149 370.369 175.153 379.698C174.157 388.965 180.819 392.572 180.446 400.16C180.134 407.748 175.34 415.833 163.821 415.46Z" fill="#DAEEFF"/>
<path d="M167.121 378.889C166.934 378.765 166.747 378.765 166.56 378.889C166.436 379.014 166.436 379.262 166.56 379.449C166.56 379.449 168.864 381.812 168.677 389.711C168.49 396.552 164.941 407.188 163.821 410.36C162.762 407.872 161.392 405.135 160.271 402.772C159.524 401.217 158.839 399.849 158.466 398.978C157.158 395.868 159.151 389.338 159.151 389.276C159.213 389.089 159.088 388.84 158.901 388.778C158.715 388.716 158.466 388.84 158.403 389.027C158.341 389.276 156.286 395.93 157.718 399.289C158.092 400.16 158.777 401.528 159.524 403.083C161.641 407.312 164.754 413.718 164.754 416.144C164.692 419.564 164.256 424.54 164.256 424.602C164.256 424.789 164.381 424.975 164.63 425.038C164.63 425.038 164.63 425.038 164.692 425.038C164.879 425.038 165.066 424.913 165.066 424.664C165.066 424.602 165.502 419.627 165.564 416.206C165.564 415.086 165.066 413.345 164.256 411.417C164.754 409.986 169.238 397.485 169.487 389.711C169.674 381.377 167.183 379.014 167.121 378.889Z" fill="#6AC1FF"/>
<path d="M814.314 353.39C806.718 353.141 798.436 350.467 798.623 338.277C798.81 326.086 807.714 324.158 808.586 315.016C809.52 305.873 809.52 297.352 814.314 297.29C819.109 297.228 816.057 301.084 818.299 305.376C820.541 309.667 824.837 315.016 824.028 322.977C823.218 330.875 828.822 333.923 828.511 340.391C828.199 346.859 824.152 353.701 814.314 353.39Z" fill="#DAEEFF"/>
<path d="M817.116 322.23C816.992 322.106 816.805 322.106 816.618 322.23C816.494 322.354 816.494 322.541 816.618 322.728C816.618 322.728 818.611 324.718 818.424 331.497C818.237 337.343 815.248 346.362 814.252 349.098C813.38 346.983 812.197 344.62 811.201 342.63C810.516 341.324 809.956 340.142 809.644 339.396C808.524 336.721 810.205 331.186 810.267 331.124C810.329 330.937 810.205 330.751 810.018 330.689C809.831 330.626 809.644 330.751 809.582 330.937C809.52 331.186 807.776 336.784 809.022 339.707C809.333 340.453 809.894 341.635 810.578 342.941C812.384 346.548 815.062 351.959 814.999 354.074C814.937 356.997 814.563 361.226 814.563 361.288C814.563 361.475 814.688 361.661 814.875 361.661C815.061 361.661 815.186 361.537 815.186 361.35C815.186 361.288 815.56 357.059 815.622 354.136C815.622 353.203 815.186 351.71 814.501 350.031C814.937 348.849 818.735 338.152 818.984 331.497C819.296 324.345 817.179 322.292 817.116 322.23Z" fill="#6AC1FF"/>
<path d="M237.544 344.744C232.313 344.558 226.647 342.754 226.772 334.358C226.896 325.962 232.998 324.655 233.621 318.374C234.243 312.092 234.243 306.246 237.544 306.184C240.844 306.121 238.727 308.796 240.283 311.719C241.84 314.642 244.766 318.374 244.206 323.785C243.646 329.258 247.506 331.31 247.319 335.788C247.07 340.204 244.331 344.931 237.544 344.744Z" fill="#DAEEFF"/>
<path d="M239.474 323.287C239.412 323.225 239.225 323.225 239.163 323.287C239.1 323.35 239.1 323.536 239.163 323.598C239.163 323.598 240.532 324.967 240.408 329.631C240.283 333.674 238.229 339.893 237.544 341.759C236.921 340.267 236.111 338.712 235.427 337.343C234.991 336.41 234.555 335.602 234.368 335.104C233.621 333.301 234.804 329.445 234.804 329.382C234.866 329.258 234.804 329.134 234.679 329.071C234.555 329.009 234.43 329.071 234.368 329.196C234.306 329.382 233.123 333.239 233.994 335.229C234.243 335.726 234.617 336.535 235.053 337.468C236.298 339.956 238.166 343.687 238.104 345.118C238.042 347.108 237.793 350.031 237.793 350.093C237.793 350.218 237.855 350.342 237.979 350.342C238.104 350.342 238.166 350.28 238.229 350.155C238.229 350.155 238.478 347.232 238.54 345.18C238.54 344.558 238.229 343.501 237.793 342.381C238.104 341.573 240.719 334.234 240.844 329.631C240.968 324.78 239.536 323.35 239.474 323.287Z" fill="#6AC1FF"/>
<path d="M711.949 379.2C702.796 378.952 692.833 375.717 693.082 361.039C693.269 346.362 703.979 344.06 705.037 333.052C706.096 322.043 706.158 311.844 711.949 311.719C717.677 311.595 714.066 316.322 716.743 321.422C719.421 326.521 724.589 333.052 723.592 342.568C722.596 352.083 729.383 355.753 729.01 363.527C728.636 371.302 723.779 379.573 711.949 379.2Z" fill="#DAEEFF"/>
<path d="M715.311 341.697C715.124 341.572 714.875 341.572 714.75 341.697C714.626 341.883 714.626 342.132 714.75 342.257C714.75 342.257 717.117 344.682 716.867 352.767C716.681 359.795 713.007 370.68 711.886 373.914C710.828 371.364 709.396 368.503 708.213 366.139C707.403 364.522 706.718 363.154 706.345 362.283C704.975 359.111 707.029 352.394 707.092 352.332C707.154 352.145 707.029 351.897 706.843 351.835C706.656 351.772 706.407 351.897 706.345 352.083C706.282 352.394 704.165 359.173 705.66 362.594C706.033 363.465 706.718 364.895 707.528 366.512C709.645 370.866 712.945 377.397 712.882 379.947C712.82 383.492 712.384 388.529 712.384 388.592C712.384 388.84 712.509 389.027 712.758 389.027C712.758 389.027 712.758 389.027 712.82 389.027C713.007 389.027 713.194 388.84 713.194 388.654C713.194 388.592 713.63 383.492 713.692 379.947C713.692 378.827 713.194 377.023 712.384 375.033C712.882 373.603 717.49 360.791 717.739 352.767C717.926 344.247 715.435 341.759 715.311 341.697Z" fill="#6AC1FF"/>
<path d="M662.26 427.401C657.03 428.769 637.354 427.961 641.09 418.259C645.262 407.437 656.47 416.89 661.264 422.861C659.458 413.283 659.209 403.581 659.209 398.356C655.66 394.127 648.188 367.072 662.945 368.441C682.248 370.182 665.125 395.744 660.704 398.667C660.704 404.887 661.14 417.263 663.942 427.961C664.564 421.182 671.351 401.777 680.38 408.618C693.456 418.507 668.425 430.449 664.626 430.262C665.809 434.18 667.366 437.788 669.359 440.649C670.791 442.701 672.41 445.127 674.091 447.739C674.091 447.801 674.153 447.801 674.153 447.863C675.025 440.711 681.687 422.301 690.529 428.956C702.733 438.223 681.75 449.231 675.772 450.475C679.446 456.446 683.244 463.287 686.17 469.88C686.606 463.412 699.309 450.164 704.352 457.752C707.154 461.981 692.273 475.726 687.354 472.617C690.155 479.458 691.837 485.864 691.276 490.529C691.089 492.27 690.716 494.26 690.405 496.499C693.891 492.643 706.469 479.769 710.205 489.72C713.318 497.992 702.92 502.781 698.561 502.781C695.137 502.781 691.525 499.547 690.093 498.179C689.906 499.36 689.657 500.604 689.471 501.848C687.727 512.048 685.61 524.3 686.233 531.639C689.221 525.855 702.484 501.91 710.205 517.335C714.19 525.233 702.92 531.888 698.561 533.319C695.012 534.5 688.599 533.443 686.42 533.008C686.544 533.816 686.669 534.625 686.918 535.247C689.782 543.767 695.51 552.412 695.573 552.474C695.822 552.785 695.697 553.283 695.386 553.47C695.261 553.532 695.137 553.594 695.012 553.594C694.763 553.594 694.576 553.47 694.39 553.283C694.327 553.221 690.093 546.753 687.042 539.476C683.618 539.04 670.479 537.237 666.681 534.749C662.323 531.826 654.539 522.31 660.89 518.765C670.728 513.292 681.065 527.783 685.548 535.371C683.867 529.711 685.361 518.454 687.104 507.881C683.555 508.938 672.161 506.886 668.176 504.212C663.817 501.288 656.283 493.763 660.89 489.658C672.472 479.396 684.676 501.164 687.354 506.326C687.603 504.709 687.914 503.03 688.163 501.475C688.91 497.246 689.595 493.265 689.969 490.28C690.529 485.926 688.91 479.707 686.046 472.741C683.742 473.487 675.959 475.602 667.428 474.42C657.279 472.99 652.111 465.029 655.785 461.359C662.073 455.078 680.753 468.139 685.548 471.684C682.621 464.842 678.512 457.255 673.966 450.102C668.051 451.471 644.39 450.973 647.628 441.582C650.803 432.19 662.945 438.534 670.044 444.007C669.483 443.136 668.861 442.266 668.3 441.457C665.498 437.663 663.568 432.688 662.26 427.401Z" fill="url(#paint1_linear_6723_43251)"/>
<path d="M704.352 517.335C716.556 512.483 719.545 531.142 720.167 537.237C722.845 528.343 724.028 517.459 722.783 508.627C720.915 508.565 713.754 508.254 708.71 505.704C702.92 502.781 699.308 491.151 704.352 489.72C712.82 487.295 720.292 501.973 722.534 506.948C722.347 505.829 722.098 504.709 721.786 503.714C719.918 496.935 718.611 488.165 717.988 479.52C715.684 479.458 709.271 479.272 705.722 478.09C701.363 476.659 693.953 465.278 699.931 463.536C708.088 461.173 715.311 472.928 717.864 477.592C717.365 468.636 717.739 459.991 719.296 454.083C718.611 451.471 717.365 445.997 717.365 441.706C717.365 435.922 724.09 424.478 730.441 430.076C742.023 440.338 724.651 452.341 720.541 455.016C719.109 460.8 718.798 469.196 719.358 477.841C721.973 471.311 732.434 447.801 745.012 459.121C749.868 463.474 739.221 473.674 731.936 476.535C726.145 478.836 721.226 479.334 719.42 479.458C719.981 487.917 721.35 496.562 723.156 503.216C723.468 504.46 723.779 505.704 723.966 507.073C726.705 501.537 739.532 477.903 753.729 488.165C759.582 492.457 747.938 502.719 742.085 505.58C737.104 508.068 726.954 508.192 724.152 508.192C725.336 517.024 724.277 527.783 721.662 536.802C725.958 530.333 738.411 513.79 747.938 524.425C753.542 530.769 738.972 536.117 734.862 537.486C731.188 538.73 723.405 539.041 720.977 539.165C718.922 545.384 716.12 550.609 712.82 553.283C712.696 553.407 712.509 553.47 712.384 553.47C712.197 553.47 711.948 553.407 711.824 553.221C711.575 552.91 711.637 552.475 711.886 552.226C714.999 549.614 717.677 544.7 719.669 538.73C717.801 537.921 712.26 535.558 708.71 533.194C704.352 530.458 697.627 520.071 704.352 517.335Z" fill="#F2BE3C"/>
<path d="M673.095 553.656H739.284C739.657 553.656 740.031 553.345 740.031 552.91C740.031 552.537 739.719 552.164 739.284 552.164H673.095C672.721 552.164 672.348 552.475 672.348 552.91C672.41 553.345 672.721 553.656 673.095 553.656Z" fill="#14336A"/>
<path d="M649.869 553.656H665.124C665.498 553.656 665.872 553.345 665.872 552.91C665.872 552.537 665.56 552.164 665.124 552.164H649.869C649.496 552.164 649.122 552.475 649.122 552.91C649.122 553.345 649.433 553.656 649.869 553.656Z" fill="#14336A"/>
<path d="M532.996 451.346C530.132 459.183 531.128 477.592 530.817 480.951C530.505 483.936 530.381 486.486 530.319 489.098L518.924 489.534C517.243 489.596 515.686 490.342 514.627 491.648C513.569 492.954 513.133 494.571 513.382 496.251L519.733 537.921C520.169 540.782 522.598 542.897 525.524 542.897H535.487C538.724 542.897 541.34 540.284 541.34 537.05C541.34 533.816 538.724 531.204 535.487 531.204H530.505L525.898 500.915L543.083 500.231C549.434 500.791 553.668 495.94 557.965 490.84C560.393 488.103 537.292 439.654 532.996 451.346Z" fill="#FC7500"/>
<path d="M550.182 459.556C549.123 459.431 548.065 458.934 547.317 458.001L536.732 445.064C533.058 440.524 531.315 434.864 531.875 429.08C532.436 423.296 535.238 418.072 539.783 414.34C545.761 409.427 553.295 407.188 561.016 407.934C568.737 408.68 575.648 412.412 580.505 418.383C582 420.186 581.688 422.861 579.883 424.353C578.077 425.846 575.399 425.597 573.905 423.731C570.418 419.502 565.561 416.89 560.082 416.33C554.665 415.771 549.31 417.388 545.076 420.87C542.336 423.109 540.593 426.344 540.219 429.889C539.845 433.434 540.904 436.917 543.208 439.715L553.793 452.652C555.287 454.456 555.038 457.13 553.17 458.623C552.361 459.369 551.24 459.68 550.182 459.556Z" fill="#FC7500"/>
<path d="M633.494 551.479L615.001 527.286L558.152 453.025C549.123 441.209 532.187 438.907 520.356 447.988C519.173 448.858 511.328 454.394 508.837 461.671C506.097 469.569 506.969 487.917 506.658 491.275C506.346 494.26 506.222 496.81 506.16 499.423L494.765 499.858C493.084 499.92 491.527 500.666 490.469 501.973C489.41 503.279 488.974 504.896 489.223 506.575L495.574 548.245C496.01 551.106 498.439 553.221 501.365 553.221H511.328C514.566 553.221 517.181 550.609 517.181 547.375C517.181 544.14 514.566 541.528 511.328 541.528H506.409L501.801 511.24L518.986 510.555C523.594 510.991 527.081 508.503 530.257 505.207L552.61 534.438L566.371 552.412L633.494 551.479Z" fill="#FF9500"/>
<path d="M607.155 517.086C603.73 519.636 599.496 521.129 594.889 521.129C583.494 521.129 574.279 511.924 574.279 500.542C574.279 494.012 577.33 488.165 582.124 484.372L607.155 517.086Z" fill="#FC7500"/>
<path d="M614.378 552.474C613.88 552.474 613.319 552.288 612.946 551.915C599.123 538.854 571.228 533.567 541.713 528.032C497.318 519.698 447.007 510.182 434.554 470.315C430.257 456.57 431.627 441.395 433.121 425.349C435.487 399.538 438.165 370.244 419.672 335.851C412.885 323.225 401.864 305.997 384.678 302.577C383.558 302.328 382.81 301.271 383.059 300.089C383.309 298.969 384.367 298.223 385.55 298.472C404.479 302.266 416.247 320.489 423.408 333.86C442.524 369.374 439.784 399.351 437.355 425.722C435.861 442.017 434.616 456.135 438.601 469.072C450.307 506.575 497.193 515.406 542.585 523.927C572.722 529.587 601.178 534.936 615.935 548.867C616.744 549.676 616.806 550.982 615.997 551.852C615.499 552.288 614.938 552.474 614.378 552.474Z" fill="#721B65"/>
<path d="M651.364 553.221H550.369C548.065 553.221 546.197 551.355 546.197 549.054C546.197 546.753 548.065 544.887 550.369 544.887H651.302C653.606 544.887 655.474 546.753 655.474 549.054C655.536 551.293 653.668 553.221 651.364 553.221Z" fill="#721B65"/>
<path d="M339.784 524.113L337.169 538.231H383.557L388.974 524.113H339.784Z" fill="#FFAA9D"/>
<path d="M383.557 538.231H335.924L333.745 552.909H398.003L383.557 538.231Z" fill="#0B2252"/>
<path d="M337.169 524.113C337.169 524.113 345.451 455.14 345.762 449.791C346.074 444.38 346.26 426.468 337.169 419.005C328.079 411.541 306.597 383.74 303.857 358.489C301.055 333.238 303.857 290.946 303.857 290.946H361.765C361.765 290.946 406.347 360.915 406.347 401.341C406.347 452.527 396.883 519.635 394.205 524.176H337.169V524.113Z" fill="url(#paint2_linear_6723_43251)"/>
<path d="M286.547 290.946L245.203 524.113H299.499L369.112 309.729L286.547 290.946Z" fill="#14336D"/>
<path d="M291.528 538.231H245.14L241.653 552.909H300.495L291.528 538.231Z" fill="#0B2252"/>
<path d="M247.693 524.113L245.14 538.231H291.529L296.946 524.113H247.693Z" fill="#FFAA9D"/>
<path d="M298.378 194.233C298.378 194.233 278.266 300.275 281.255 306.059C291.342 325.588 381.441 321.235 377.767 310.848C367.68 282.487 369.486 205.615 359.585 192.492C350.432 180.302 337.917 178.809 327.269 178.809C304.604 178.809 300.121 183.847 298.378 194.233Z" fill="url(#paint3_linear_6723_43251)"/>
<path d="M374.031 295.424C374.031 295.424 390.344 297.912 395.762 301.83C401.179 305.748 407.219 312.776 405.662 314.704C404.105 316.632 400.494 311.47 398.813 311.657C397.131 311.843 382.561 313.274 380.008 312.341C377.331 311.408 374.591 309.044 373.969 307.738C373.221 306.432 374.031 295.424 374.031 295.424Z" fill="#FFAA9D"/>
<path d="M325.463 192.554C326.46 199.271 311.889 256.055 315.501 260.533C319.112 265.011 376.895 292.874 378.576 294.18C380.257 295.486 377.144 310.786 375.899 311.719C374.591 312.652 299.872 310.786 275.588 280.373C251.304 249.96 290.719 193.3 293.023 190.688C310.27 171.283 324.405 185.837 325.463 192.554Z" fill="url(#paint4_linear_6723_43251)"/>
<path d="M355.787 155.3L356.036 169.977L353.857 169.915C353.857 169.915 352.113 182.043 343.52 180.115C341.03 179.555 337.917 177.503 336.983 177.876C335.924 178.374 335.426 181.67 335.177 182.665C334.243 186.335 321.354 182.603 323.471 178.871C325.463 175.326 328.39 170.413 327.767 169.045C325.588 164.318 324.965 152.563 336.796 148.645C346.198 145.535 355.662 150.262 355.787 155.3Z" fill="#FFAA9D"/>
<path d="M323.409 178.871C325.401 175.326 328.328 170.413 327.705 169.044C327.705 169.044 332.686 176.694 337.232 177.814C337.107 177.814 336.92 177.814 336.858 177.876C335.8 178.374 335.301 181.67 335.052 182.665C334.243 186.335 321.354 182.665 323.409 178.871Z" fill="#FF9F91"/>
<path d="M335.924 162.514C330.382 161.581 333.807 173.896 327.705 173.46C321.603 173.025 317.369 159.715 321.852 149.516C326.335 139.253 334.803 139.813 342.96 141.244C351.117 142.674 361.017 146.281 361.017 152.439C361.017 167.179 343.521 154.802 342.4 159.218C341.528 162.639 340.158 172.528 343.707 172.776C347.256 173.025 350.868 170.102 353.67 170.848C355.289 171.284 359.71 190.626 348.128 191.248C336.609 191.87 333.682 181.732 336.111 173.46C338.352 165.5 338.601 162.95 335.924 162.514Z" fill="#14336A"/>
<defs>
<linearGradient id="paint0_linear_6723_43251" x1="393.483" y1="83.186" x2="393.483" y2="314.344" gradientUnits="userSpaceOnUse">
<stop stop-color="#E9F3FC"/>
<stop offset="1" stop-color="white" stop-opacity="0"/>
</linearGradient>
<linearGradient id="paint1_linear_6723_43251" x1="673.289" y1="445.298" x2="689.831" y2="536.716" gradientUnits="userSpaceOnUse">
<stop stop-color="#721B65"/>
<stop offset="0.9649" stop-color="#611055"/>
</linearGradient>
<linearGradient id="paint2_linear_6723_43251" x1="405.934" y1="477.421" x2="340.862" y2="396.692" gradientUnits="userSpaceOnUse">
<stop stop-color="#14336D"/>
<stop offset="0.9662" stop-color="#0E2253"/>
</linearGradient>
<linearGradient id="paint3_linear_6723_43251" x1="362.967" y1="227.887" x2="273.192" y2="309.207" gradientUnits="userSpaceOnUse">
<stop stop-color="#3162DF"/>
<stop offset="0.9649" stop-color="#173DB8"/>
</linearGradient>
<linearGradient id="paint4_linear_6723_43251" x1="298.535" y1="208.723" x2="341.931" y2="332.499" gradientUnits="userSpaceOnUse">
<stop stop-color="#3162DF"/>
<stop offset="0.9649" stop-color="#173DB8"/>
</linearGradient>
</defs>
</svg>
