<svg width="966" height="560" viewBox="0 0 966 560" fill="none" xmlns="http://www.w3.org/2000/svg">
<path opacity="0.2" d="M563.003 560C713.229 560 835.012 556.624 835.012 552.461C835.012 548.297 713.229 544.922 563.003 544.922C412.777 544.922 290.994 548.297 290.994 552.461C290.994 556.624 412.777 560 563.003 560Z" fill="#0B2252"/>
<path d="M453.326 27.3784C450.019 24.0718 445.388 21.9556 440.295 21.9556H422.037C419.325 9.39065 408.146 0 394.783 0C381.421 0 370.242 9.39065 367.53 21.9556H362.635C357.541 21.9556 352.911 24.0057 349.603 27.3784C346.296 30.6849 344.179 35.3141 344.179 40.4062C344.179 46.0274 346.692 51.0534 350.661 54.4261C353.903 57.1375 358.07 58.7907 362.568 58.7907H440.361C445.454 58.7907 450.085 56.7407 453.392 53.368C456.7 50.0614 458.817 45.4322 458.817 40.3401C458.751 35.3141 456.7 30.6849 453.326 27.3784Z" fill="#E9F3FC"/>
<path d="M965.725 276.958V381.247C870.865 364.846 743.394 349.835 594.292 349.835C265.13 349.835 7.01205 422.976 7.01205 422.976C-12.1715 382.04 9.0627 264.128 59.0721 236.485C109.015 208.909 152.41 264.062 191.901 244.355C231.327 224.648 194.415 50.3258 255.009 39.0835C315.602 27.8412 353.704 140 427.792 140C501.814 140 490.635 27.8412 577.159 23.3442C663.75 18.8473 661.434 138.148 713.494 138.148C765.555 138.148 744.453 90.3352 826.082 88.8804C907.711 87.4916 930.268 257.714 965.195 276.561C965.328 276.759 965.526 276.892 965.725 276.958Z" fill="url(#paint0_linear_6723_43426)"/>
<path d="M225.903 379.66C216.443 379.395 206.124 376.022 206.322 360.812C206.521 345.602 217.634 343.221 218.758 331.781C219.883 320.406 219.949 309.759 225.903 309.627C231.856 309.494 228.086 314.388 230.864 319.679C233.642 324.969 239 331.714 237.942 341.634C236.884 351.488 243.962 355.323 243.565 363.391C243.234 371.459 238.207 380.056 225.903 379.66Z" fill="#DAEEFF"/>
<path d="M229.408 340.774C229.21 340.642 229.011 340.642 228.813 340.774C228.681 340.907 228.681 341.171 228.813 341.37C228.813 341.37 231.26 343.883 231.062 352.281C230.864 359.556 227.093 370.864 225.902 374.237C224.778 371.592 223.322 368.682 222.132 366.169C221.338 364.516 220.61 363.061 220.213 362.135C218.824 358.828 220.941 351.885 220.941 351.818C221.007 351.62 220.875 351.356 220.677 351.289C220.478 351.223 220.213 351.356 220.147 351.554C220.081 351.818 217.898 358.894 219.42 362.466C219.817 363.391 220.544 364.846 221.338 366.5C223.587 370.997 226.895 377.808 226.895 380.387C226.828 384.024 226.365 389.315 226.365 389.381C226.365 389.579 226.498 389.778 226.762 389.844C226.762 389.844 226.762 389.844 226.828 389.844C227.027 389.844 227.225 389.712 227.225 389.447C227.225 389.381 227.688 384.091 227.755 380.453C227.755 379.263 227.225 377.411 226.365 375.361C226.895 373.84 231.657 360.548 231.922 352.281C232.187 343.42 229.541 340.841 229.408 340.774Z" fill="#6AC1FF"/>
<path d="M929.938 340.312C921.867 340.047 913.069 337.204 913.268 324.242C913.466 311.28 922.926 309.23 923.852 299.509C924.844 289.788 924.844 280.728 929.938 280.661C935.031 280.595 931.79 284.695 934.171 289.258C936.553 293.822 941.117 299.509 940.257 307.974C939.397 316.372 945.351 319.613 945.02 326.49C944.689 333.302 940.389 340.576 929.938 340.312Z" fill="#DAEEFF"/>
<path d="M932.915 307.114C932.782 306.982 932.584 306.982 932.385 307.114C932.253 307.246 932.253 307.445 932.385 307.643C932.385 307.643 934.502 309.759 934.304 316.967C934.105 323.184 930.93 332.773 929.872 335.683C928.946 333.434 927.689 330.921 926.63 328.805C925.903 327.416 925.307 326.16 924.977 325.366C923.786 322.522 925.572 316.637 925.638 316.571C925.704 316.372 925.572 316.174 925.373 316.108C925.175 316.042 924.977 316.174 924.91 316.372C924.844 316.637 922.992 322.589 924.315 325.697C924.646 326.49 925.241 327.747 925.969 329.136C927.887 332.971 930.732 338.725 930.665 340.973C930.599 344.081 930.202 348.578 930.202 348.644C930.202 348.843 930.335 349.041 930.533 349.041C930.732 349.041 930.864 348.909 930.864 348.71C930.864 348.644 931.261 344.147 931.327 341.039C931.327 340.047 930.864 338.46 930.136 336.675C930.599 335.418 934.634 324.043 934.899 316.967C935.23 309.428 932.981 307.246 932.915 307.114Z" fill="#6AC1FF"/>
<path d="M297.94 316.306C292.383 316.108 286.363 314.19 286.496 305.262C286.628 296.335 293.111 294.946 293.772 288.267C294.434 281.587 294.434 275.371 297.94 275.305C301.446 275.239 299.197 278.082 300.85 281.191C302.504 284.299 305.613 288.267 305.018 294.02C304.422 299.84 308.524 302.022 308.325 306.783C308.127 311.545 305.15 316.571 297.94 316.306Z" fill="#DAEEFF"/>
<path d="M299.99 293.557C299.924 293.491 299.726 293.491 299.66 293.557C299.593 293.623 299.593 293.821 299.66 293.888C299.66 293.888 301.115 295.342 300.983 300.302C300.85 304.601 298.667 311.214 297.94 313.198C297.278 311.611 296.418 309.958 295.691 308.503C295.228 307.511 294.765 306.651 294.566 306.122C293.772 304.204 295.029 300.104 295.029 300.038C295.095 299.906 295.029 299.773 294.897 299.707C294.765 299.641 294.632 299.707 294.566 299.839C294.5 300.038 293.243 304.138 294.169 306.254C294.434 306.783 294.831 307.643 295.294 308.635C296.617 311.28 298.601 315.248 298.535 316.769C298.469 318.885 298.204 321.993 298.204 322.06C298.204 322.192 298.27 322.324 298.403 322.324C298.535 322.324 298.601 322.258 298.667 322.126C298.667 322.126 298.932 319.018 298.998 316.835C298.998 316.174 298.667 315.05 298.204 313.859C298.535 313 301.313 305.196 301.446 300.302C301.644 295.078 300.057 293.557 299.99 293.557Z" fill="#6AC1FF"/>
<path d="M843.149 406.178C833.425 405.914 822.841 402.475 823.105 386.868C823.304 371.261 834.682 368.814 835.806 357.109C836.931 345.404 836.997 334.558 843.149 334.426C849.235 334.294 845.398 339.32 848.242 344.742C851.087 350.165 856.577 357.109 855.519 367.227C854.461 377.345 861.671 381.247 861.274 389.513C860.877 397.78 855.717 406.575 843.149 406.178Z" fill="#DAEEFF"/>
<path d="M846.721 366.301C846.523 366.169 846.258 366.169 846.126 366.301C845.993 366.5 845.993 366.764 846.126 366.897C846.126 366.897 848.639 369.476 848.375 378.073C848.176 385.546 844.274 397.119 843.083 400.557C841.958 397.846 840.437 394.804 839.18 392.291C838.32 390.572 837.592 389.117 837.196 388.191C835.74 384.818 837.923 377.676 837.989 377.61C838.056 377.411 837.923 377.147 837.725 377.081C837.526 377.015 837.262 377.147 837.196 377.345C837.129 377.676 834.88 384.884 836.468 388.521C836.865 389.447 837.592 390.968 838.452 392.688C840.701 397.317 844.207 404.261 844.141 406.972C844.075 410.742 843.612 416.098 843.612 416.164C843.612 416.429 843.744 416.627 844.009 416.627C844.009 416.627 844.009 416.627 844.075 416.627C844.274 416.627 844.472 416.429 844.472 416.23C844.472 416.164 844.935 410.742 845.001 406.972C845.001 405.782 844.472 403.864 843.612 401.748C844.141 400.227 849.036 386.604 849.301 378.073C849.566 369.013 846.853 366.434 846.721 366.301Z" fill="#6AC1FF"/>
<path d="M313.948 419.008C308.392 420.463 287.488 419.603 291.457 409.287C295.889 397.78 307.796 407.832 312.89 414.18C310.971 403.996 310.707 393.68 310.707 388.125C306.936 383.628 298.998 354.861 314.676 356.316C335.182 358.167 316.991 385.347 312.294 388.455C312.294 395.069 312.757 408.229 315.734 419.603C316.396 412.395 323.606 391.762 333.198 399.036C347.089 409.551 320.497 422.248 316.462 422.05C317.719 426.216 319.372 430.052 321.489 433.094C323.011 435.276 324.731 437.855 326.517 440.633C326.517 440.699 326.583 440.699 326.583 440.765C327.509 433.16 334.587 413.585 343.98 420.661C356.946 430.515 334.653 442.22 328.303 443.543C332.206 449.891 336.241 457.166 339.35 464.176C339.813 457.298 353.307 443.212 358.666 451.28C361.642 455.777 345.833 470.392 340.607 467.086C343.583 474.36 345.369 481.172 344.774 486.131C344.576 487.983 344.179 490.099 343.848 492.48C347.552 488.38 360.915 474.691 364.884 485.272C368.191 494.067 357.144 499.159 352.514 499.159C348.875 499.159 345.039 495.72 343.517 494.266C343.319 495.522 343.054 496.845 342.856 498.167C341.004 509.013 338.754 522.041 339.416 529.844C342.591 523.694 356.681 498.233 364.884 514.634C369.117 523.033 357.144 530.109 352.514 531.63C348.743 532.886 341.93 531.762 339.614 531.299C339.747 532.159 339.879 533.019 340.144 533.68C343.187 542.74 349.272 551.932 349.338 551.998C349.603 552.329 349.471 552.858 349.14 553.056C349.008 553.122 348.875 553.189 348.743 553.189C348.479 553.189 348.28 553.056 348.082 552.858C348.015 552.792 343.517 545.914 340.276 538.177C336.638 537.714 322.68 535.796 318.645 533.151C314.014 530.043 305.746 519.924 312.493 516.155C322.945 510.335 333.925 525.744 338.688 533.812C336.902 527.794 338.49 515.824 340.342 504.582C336.571 505.706 324.466 503.524 320.232 500.68C315.602 497.572 307.598 489.57 312.493 485.206C324.797 474.294 337.762 497.44 340.607 502.929C340.871 501.209 341.202 499.424 341.467 497.77C342.26 493.274 342.988 489.041 343.385 485.867C343.98 481.238 342.26 474.625 339.217 467.218C336.77 468.011 328.501 470.26 319.439 469.003C308.656 467.482 303.166 459.018 307.069 455.116C313.75 448.437 333.595 462.324 338.688 466.094C335.579 458.819 331.213 450.751 326.384 443.146C320.1 444.601 294.963 444.072 298.403 434.086C301.777 424.1 314.676 430.846 322.217 436.665C321.622 435.739 320.96 434.813 320.365 433.954C317.388 429.92 315.403 424.629 313.948 419.008Z" fill="url(#paint1_linear_6723_43426)"/>
<path d="M358.732 514.634C371.697 509.476 374.872 529.315 375.534 535.796C378.378 526.339 379.635 514.766 378.312 505.376C376.328 505.31 368.72 504.979 363.362 502.267C357.21 499.159 353.374 486.793 358.732 485.272C367.728 482.693 375.666 498.3 378.048 503.59C377.849 502.4 377.585 501.209 377.254 500.151C375.269 492.943 373.88 483.618 373.219 474.426C370.771 474.36 363.958 474.162 360.187 472.905C355.557 471.384 347.685 459.282 354.035 457.43C362.701 454.917 370.374 467.416 373.086 472.376C372.557 462.853 372.954 453.661 374.608 447.378C373.88 444.601 372.557 438.781 372.557 434.218C372.557 428.068 379.701 415.9 386.449 421.852C398.753 432.763 380.297 445.527 375.931 448.37C374.409 454.521 374.079 463.448 374.674 472.641C377.452 465.697 388.565 440.699 401.928 452.735C407.087 457.364 395.776 468.21 388.036 471.252C381.884 473.699 376.658 474.228 374.74 474.36C375.335 483.354 376.791 492.546 378.709 499.622C379.04 500.945 379.371 502.267 379.569 503.722C382.48 497.837 396.107 472.707 411.189 483.618C417.407 488.181 405.037 499.093 398.819 502.135C393.527 504.78 382.744 504.913 379.767 504.913C381.024 514.303 379.9 525.744 377.121 535.333C381.686 528.455 394.916 510.865 405.037 522.173C410.99 528.918 395.511 534.606 391.145 536.061C387.242 537.383 378.974 537.714 376.394 537.846C374.211 544.459 371.234 550.014 367.728 552.858C367.596 552.99 367.397 553.056 367.265 553.056C367.067 553.056 366.802 552.99 366.67 552.792C366.405 552.461 366.471 551.998 366.736 551.734C370.043 548.956 372.888 543.732 375.005 537.383C373.02 536.523 367.133 534.011 363.362 531.498C358.732 528.522 351.521 517.478 358.732 514.634Z" fill="#F2BE3C"/>
<path d="M325.524 553.255H395.842C396.239 553.255 396.636 552.924 396.636 552.461C396.636 551.998 396.305 551.667 395.842 551.667H325.524C325.127 551.667 324.73 551.998 324.73 552.461C324.73 552.924 325.061 553.255 325.524 553.255Z" fill="#14336A"/>
<path d="M300.785 553.255H316.991C317.388 553.255 317.785 552.924 317.785 552.461C317.785 551.998 317.454 551.667 316.991 551.667H300.785C300.388 551.667 299.991 551.998 299.991 552.461C299.991 552.924 300.388 553.255 300.785 553.255Z" fill="#14336A"/>
<path d="M540.049 91.658H829.522C830.977 91.658 832.3 90.9967 833.16 89.9386C833.821 89.145 834.284 88.0208 834.284 86.8965V34.1238C834.284 32.9334 833.888 31.8753 833.16 31.0817C832.3 30.0236 830.977 29.3623 829.522 29.3623H540.049C538.991 29.3623 537.999 29.693 537.205 30.3543C536.08 31.214 535.353 32.6027 535.353 34.1238V86.8965C535.353 88.153 535.816 89.2773 536.609 90.0708C537.403 91.0628 538.66 91.658 540.049 91.658Z" fill="white"/>
<path d="M829.522 92.7161H540.049C538.396 92.7161 536.874 91.9887 535.75 90.7983C534.757 89.7402 534.228 88.3514 534.228 86.8965V34.1238C534.228 32.2721 535.088 30.6188 536.543 29.4946C537.536 28.701 538.792 28.3042 540.049 28.3042H829.522C831.242 28.3042 832.895 29.0316 833.954 30.3543C834.814 31.4124 835.343 32.735 835.343 34.0576V86.8304C835.343 88.2192 834.88 89.5418 833.954 90.5338C832.829 91.9886 831.242 92.7161 829.522 92.7161ZM540.049 30.4204C539.255 30.4204 538.462 30.6849 537.8 31.1478C536.874 31.8753 536.345 32.9334 536.345 34.1238V86.8965C536.345 87.8224 536.676 88.6821 537.271 89.4095C537.999 90.2031 538.991 90.5999 539.983 90.5999H829.522C830.646 90.5999 831.639 90.137 832.366 89.2773C832.895 88.616 833.226 87.7562 833.226 86.8965V34.1238C833.226 33.264 832.895 32.4043 832.366 31.743C831.639 30.8833 830.646 30.4204 829.522 30.4204H540.049Z" fill="#E3ECF5"/>
<path d="M785.532 79.7543H818.541C819.268 79.7543 819.996 79.4237 820.459 78.9608C820.922 78.4978 821.253 77.7704 821.253 77.0429V44.0434C821.253 43.5144 821.121 42.9853 820.79 42.5885C820.327 41.8611 819.467 41.332 818.541 41.332H785.532C784.87 41.332 784.275 41.5966 783.812 41.9933C783.217 42.5224 782.82 43.2498 782.82 44.0434V77.0429C782.82 77.7704 783.151 78.4978 783.614 78.9608C784.077 79.4237 784.738 79.7543 785.532 79.7543Z" fill="#E3ECF5"/>
<path d="M573.587 56.807H758.345C759.535 56.807 760.66 56.3441 761.387 55.5505C762.181 54.757 762.644 53.6989 762.644 52.5085C762.644 51.3181 762.181 50.3262 761.454 49.5326C760.66 48.6729 759.535 48.21 758.278 48.21H573.587C572.397 48.21 571.272 48.6729 570.544 49.4665C569.751 50.26 569.288 51.3181 569.288 52.5085C569.288 53.3682 569.552 54.1618 569.949 54.8231C570.677 55.9473 572 56.807 573.587 56.807Z" fill="#E3ECF5"/>
<path d="M573.587 72.943H758.344C759.734 72.943 760.99 72.2817 761.784 71.2236C762.38 70.4961 762.71 69.5703 762.71 68.5783C762.71 67.7186 762.446 66.925 762.049 66.2637C761.255 65.0734 759.932 64.2798 758.411 64.2798H573.587C572.396 64.2798 571.338 64.7427 570.544 65.5363C569.75 66.3299 569.221 67.4541 569.221 68.6444C569.221 69.8348 569.684 70.959 570.478 71.6865C571.272 72.4801 572.33 72.943 573.587 72.943Z" fill="#E3ECF5"/>
<path d="M644.169 177.695H354.697C353.242 177.695 351.919 177.033 351.059 175.975C350.397 175.182 349.934 174.057 349.934 172.933V120.16C349.934 118.97 350.331 117.912 351.059 117.118C351.919 116.06 353.242 115.399 354.697 115.399H644.169C645.228 115.399 646.22 115.73 647.014 116.391C648.138 117.251 648.866 118.639 648.866 120.16V172.933C648.866 174.19 648.403 175.314 647.609 176.107C646.815 177.099 645.559 177.695 644.169 177.695Z" fill="white"/>
<path d="M644.169 178.753H354.697C352.977 178.753 351.323 178.025 350.265 176.703C349.405 175.645 348.875 174.322 348.875 172.999V120.227C348.875 118.838 349.339 117.515 350.265 116.523C351.389 115.201 352.977 114.473 354.697 114.473H644.169C645.426 114.473 646.683 114.87 647.675 115.664C649.13 116.788 649.99 118.441 649.99 120.293V173.065C649.99 174.52 649.461 175.909 648.469 176.967C647.411 178.091 645.823 178.753 644.169 178.753ZM354.697 116.457C353.572 116.457 352.58 116.92 351.852 117.78C351.323 118.441 350.992 119.301 350.992 120.16V172.933C350.992 173.793 351.323 174.653 351.852 175.314C352.58 176.174 353.572 176.637 354.697 176.637H644.169C645.228 176.637 646.22 176.174 646.881 175.446C647.477 174.785 647.807 173.859 647.807 172.933V120.16C647.807 118.97 647.278 117.912 646.352 117.185C645.691 116.722 644.963 116.457 644.103 116.457H354.697Z" fill="#E3ECF5"/>
<path d="M398.686 165.659H365.677C364.95 165.659 364.222 165.328 363.759 164.865C363.296 164.402 362.965 163.675 362.965 162.947V129.948C362.965 129.419 363.098 128.89 363.428 128.493C363.891 127.765 364.751 127.236 365.677 127.236H398.686C399.348 127.236 399.943 127.501 400.406 127.898C401.002 128.427 401.398 129.154 401.398 129.948V162.947C401.398 163.675 401.068 164.402 400.605 164.865C400.142 165.328 399.48 165.659 398.686 165.659Z" fill="#E3ECF5"/>
<path d="M610.698 142.645H425.874C424.684 142.645 423.559 142.182 422.832 141.388C422.038 140.595 421.575 139.537 421.575 138.346C421.575 137.156 422.038 136.164 422.765 135.37C423.559 134.511 424.684 134.048 425.941 134.048H610.698C611.888 134.048 613.013 134.511 613.741 135.304C614.534 136.098 614.997 137.156 614.997 138.346C614.997 139.206 614.733 140 614.336 140.661C613.542 141.851 612.219 142.645 610.698 142.645Z" fill="#E3ECF5"/>
<path d="M551.626 158.847H425.874C424.485 158.847 423.228 158.186 422.434 157.128C421.905 156.4 421.508 155.475 421.508 154.483C421.508 153.623 421.773 152.829 422.17 152.168C422.964 150.978 424.287 150.184 425.808 150.184H551.559C552.75 150.184 553.808 150.647 554.602 151.441C555.396 152.234 555.925 153.358 555.925 154.549C555.925 155.739 555.462 156.863 554.668 157.591C553.941 158.384 552.816 158.847 551.626 158.847Z" fill="#E3ECF5"/>
<path d="M437.186 205.205C437.186 205.205 428.189 197.6 427.528 198.129C426.866 198.592 427.925 202.957 427.925 202.957C427.925 202.957 421.839 198.394 419.259 200.973C416.679 203.552 424.419 220.548 432.092 222.598L437.186 205.205Z" fill="#FFAA9D"/>
<path d="M742.601 196.476C742.601 196.476 751.597 188.871 752.258 189.4C752.92 189.863 751.862 194.228 751.862 194.228C751.862 194.228 757.947 189.665 760.527 192.244C763.107 194.823 755.368 211.819 747.694 213.869L742.601 196.476Z" fill="#FFAA9D"/>
<path d="M527.48 525.678V539.367H574.447L576.167 523.562L527.48 525.678Z" fill="url(#paint2_linear_6723_43426)"/>
<path d="M527.481 539.367L518.683 549.287C517.955 550.147 517.955 551.205 518.418 552.064C518.815 552.726 519.542 553.255 520.469 553.255H571.14C571.603 553.255 572 553.056 572.33 552.792C572.661 552.527 572.86 552.131 572.926 551.668L574.447 539.433H527.481V539.367Z" fill="#0B2252"/>
<path d="M656.936 525.612L658.259 539.367H611.293L608.978 523.496L656.936 525.612Z" fill="url(#paint3_linear_6723_43426)"/>
<path d="M658.259 539.367L667.057 549.287C667.785 550.147 667.785 551.205 667.322 552.064C666.925 552.726 666.198 553.255 665.271 553.255H614.6C614.137 553.255 613.741 553.056 613.41 552.792C613.079 552.527 612.881 552.131 612.814 551.668L611.293 539.433H658.259V539.367Z" fill="#0B2252"/>
<path d="M551.03 286.15C551.03 286.15 533.037 347.454 529.73 394.077C526.422 440.699 526.554 527.199 526.554 527.199H576.762C576.762 527.199 588.471 409.089 593.168 408.626C597.798 408.229 607.125 527.199 607.125 527.199H659.648C659.648 527.199 647.807 323.779 629.087 286.15H551.03Z" fill="#14336D"/>
<path d="M753.979 211.29L742.535 194.625C722.623 206.065 694.51 206.661 660.178 197.27C635.107 190.392 617.577 182.919 589.463 182.919C561.416 182.919 533.831 202.759 519.874 206.594C485.608 215.985 457.428 215.39 437.517 203.949L426.073 220.614C426.073 220.614 472.841 260.029 541.968 249.448C540.248 272.66 536.411 308.106 537.602 313.595C540.38 326.424 636.694 327.02 641.391 312.405C642.78 308.106 636.298 263.137 635.305 239.726C706.02 251.696 753.979 211.29 753.979 211.29Z" fill="url(#paint4_linear_6723_43426)"/>
<path d="M614.997 161.096L615.196 175.579L613.013 175.513C613.013 175.513 611.293 187.482 602.826 185.565C600.378 185.036 597.269 182.986 596.409 183.382C595.351 183.845 594.888 187.152 594.623 188.078C593.697 191.715 580.996 188.012 583.047 184.308C585.031 180.803 587.942 175.976 587.28 174.653C585.164 170.024 584.502 158.385 596.145 154.549C605.538 151.441 614.865 156.136 614.997 161.096Z" fill="#FFAA9D"/>
<path d="M583.113 184.308C585.097 180.803 588.008 175.975 587.347 174.653C587.347 174.653 592.242 182.192 596.74 183.316C596.608 183.316 596.475 183.316 596.343 183.382C595.285 183.845 594.822 187.152 594.557 188.077C593.763 191.715 581.062 188.078 583.113 184.308Z" fill="#FF9F91"/>
<path d="M595.417 168.172C589.993 167.246 593.366 179.348 587.347 178.952C581.327 178.555 577.159 165.461 581.592 155.343C586.024 145.225 594.358 145.82 602.363 147.142C610.367 148.531 620.157 152.102 620.157 158.186C620.157 172.735 602.958 160.501 601.833 164.866C600.973 168.238 599.584 178.026 603.09 178.224C606.596 178.422 610.168 175.579 612.947 176.306C614.534 176.703 618.9 195.815 607.456 196.41C596.145 197.071 593.234 187.02 595.615 178.885C597.864 171.148 598.063 168.635 595.417 168.172Z" fill="#14336A"/>
<path d="M832.234 253.68C831.374 253.68 830.514 253.085 830.249 252.225C824.957 235.229 817.945 225.64 809.412 223.722C803.723 222.4 798.894 224.913 793.801 227.558C788.707 230.203 783.481 232.914 777.197 231.79C764.761 229.542 755.367 213.406 748.422 182.324C748.157 181.2 748.885 180.076 750.009 179.877C751.134 179.613 752.258 180.34 752.457 181.464C758.873 210.298 767.473 225.905 777.925 227.756C782.82 228.616 787.186 226.367 791.882 223.921C797.174 221.209 803.128 218.101 810.272 219.754C820.327 222.069 828.331 232.584 834.086 251.101C834.417 252.159 833.821 253.349 832.697 253.68C832.631 253.68 832.432 253.68 832.234 253.68Z" fill="#721B65"/>
<path d="M762.445 176.372C758.873 185.102 748.951 189.268 740.219 185.763C732.744 182.721 728.577 174.983 729.767 167.378C729.966 166.122 758.278 157.194 760.064 159.509C763.702 164.072 764.827 170.487 762.445 176.372Z" fill="#A83196"/>
<path d="M748.223 144.299L750.538 143.703C751.067 143.571 751.597 143.902 751.729 144.431L756.756 163.212C756.889 163.741 756.558 164.27 756.029 164.403L753.713 164.998C753.184 165.13 752.655 164.799 752.523 164.27L747.495 145.489C747.429 144.96 747.694 144.431 748.223 144.299Z" fill="#14336A"/>
<path d="M730.627 149.06L732.943 148.465C733.472 148.332 734.001 148.663 734.133 149.192L739.161 167.973C739.293 168.502 738.962 169.032 738.433 169.164L736.118 169.759C735.589 169.891 735.059 169.561 734.927 169.032L729.9 150.25C729.767 149.721 730.098 149.192 730.627 149.06Z" fill="#14336A"/>
<path d="M762.313 169.363L733.075 176.968C729.9 177.827 726.592 175.843 725.732 172.669L723.417 163.874C723.218 163.08 723.682 162.22 724.475 162.022L762.379 152.168C763.173 151.97 764.033 152.433 764.232 153.226L766.547 162.022C767.473 165.196 765.488 168.503 762.313 169.363Z" fill="#721B65"/>
<path d="M418.465 332.112C418.002 332.112 417.605 331.98 417.208 331.649C401.2 319.282 393.46 307.313 394.32 296.07C395.18 284.696 404.309 277.223 413.107 270.081C422.236 262.608 430.835 255.598 431.298 244.62C431.563 238.338 428.983 234.171 426.271 229.741C423.294 224.979 420.251 220.085 420.913 212.546C421.971 199.254 433.944 187.02 456.435 176.108C457.428 175.579 458.684 176.042 459.214 177.034C459.743 178.092 459.28 179.282 458.287 179.811C437.186 189.996 426.072 201.106 425.08 212.877C424.551 219.027 427.131 223.194 429.843 227.558C432.621 232.055 435.796 237.213 435.466 244.752C434.937 257.648 425.146 265.584 415.753 273.255C407.22 280.199 399.216 286.746 398.422 296.401C397.694 306.188 404.838 316.968 419.722 328.408C420.648 329.136 420.78 330.392 420.119 331.318C419.722 331.847 419.061 332.112 418.465 332.112Z" fill="#721B65"/>
<path d="M469.798 191.781C461.066 193.765 452.334 188.276 450.349 179.547C448.365 170.818 453.855 162.088 462.587 160.104C471.319 158.12 480.051 163.609 482.035 172.339C484.086 181.068 478.596 189.797 469.798 191.781Z" fill="#A83196"/>
<path d="M487.856 192.178C484.417 192.972 479.521 184.573 477.008 173.463C474.494 162.353 475.222 152.698 478.728 151.904C482.168 151.11 487.063 159.509 489.576 170.619C492.09 181.729 491.362 191.384 487.856 192.178Z" fill="#721B65"/>
<path d="M465.035 177.827L464.307 174.719C461.992 164.469 468.408 154.218 478.662 151.904L487.856 192.112C477.669 194.492 467.416 188.078 465.035 177.827Z" fill="#721B65"/>
<path d="M486.931 188.078C484.152 188.673 480.316 182.06 478.265 173.198C476.281 164.337 476.876 156.666 479.588 156.07C482.366 155.475 486.203 162.088 488.254 170.95C490.304 179.745 489.709 187.417 486.931 188.078Z" fill="#A83196"/>
<path d="M482.498 167.511C482.035 167.643 481.374 166.453 481.043 164.998C480.712 163.477 480.779 162.154 481.242 162.088C481.705 161.956 482.366 163.146 482.697 164.601C483.028 166.122 482.961 167.379 482.498 167.511Z" fill="#14336A"/>
<path d="M485.806 181.994C485.343 182.126 484.682 180.936 484.351 179.481C484.02 178.026 484.086 176.637 484.549 176.571C485.012 176.439 485.674 177.629 486.004 179.084C486.335 180.539 486.269 181.862 485.806 181.994Z" fill="#14336A"/>
<defs>
<linearGradient id="paint0_linear_6723_43426" x1="482.856" y1="52.9674" x2="482.856" y2="298.757" gradientUnits="userSpaceOnUse">
<stop stop-color="#E9F3FC"/>
<stop offset="1" stop-color="white" stop-opacity="0"/>
</linearGradient>
<linearGradient id="paint1_linear_6723_43426" x1="325.665" y1="438.038" x2="343.268" y2="535.237" gradientUnits="userSpaceOnUse">
<stop stop-color="#721B65"/>
<stop offset="0.9649" stop-color="#611055"/>
</linearGradient>
<linearGradient id="paint2_linear_6723_43426" x1="527.456" y1="531.447" x2="576.147" y2="531.447" gradientUnits="userSpaceOnUse">
<stop stop-color="#FFAA9D"/>
<stop offset="0.9662" stop-color="#FF9F91"/>
</linearGradient>
<linearGradient id="paint3_linear_6723_43426" x1="658.278" y1="531.433" x2="608.945" y2="531.433" gradientUnits="userSpaceOnUse">
<stop stop-color="#FFAA9D"/>
<stop offset="0.9662" stop-color="#FF9F91"/>
</linearGradient>
<linearGradient id="paint4_linear_6723_43426" x1="426.181" y1="253.063" x2="754.009" y2="253.063" gradientUnits="userSpaceOnUse">
<stop stop-color="#3162DF"/>
<stop offset="0.9649" stop-color="#173DB8"/>
</linearGradient>
</defs>
</svg>
